<?xml version="1.0" encoding="UTF-8" standalone="no"?>
<svg width="58px" height="12px" viewBox="0 0 58 12" version="1.1" xmlns="http://www.w3.org/2000/svg" xmlns:xlink="http://www.w3.org/1999/xlink">
    <!-- Generator: Sketch 42 (36781) - http://www.bohemiancoding.com/sketch -->
    <title>Alert-LogoRGB—AW-WHITE</title>
    <desc>Created with Sketch.</desc>
    <defs></defs>
    <g id="0.3-Agency-Admin" stroke="none" stroke-width="1" fill="none" fill-rule="evenodd">
        <g id="Agency-Admin-(First-Time)" transform="translate(-31.000000, -275.000000)" fill="#B1B2B3">
            <g id="Alert-LogoRGB—AW-WHITE" transform="translate(31.000000, 275.000000)">
                <path d="M18.5858704,10.2415503 L14.1866926,10.2415503 C13.8154167,10.241804 13.504888,9.92085796 13.504888,9.47694918 L13.504888,1.68229159 C13.5045035,1.13761552 13.1420065,0.70556545 12.5956656,0.705882527 C12.0330486,0.706199605 11.5996798,1.138757 11.6000002,1.68343307 L11.6000002,11.007293 C11.6003847,11.5680132 12.0400333,12.0003169 12.6026503,11.9999998 L18.6754534,11.9999998 C19.1738629,11.9996827 19.5753202,11.5954721 19.5749998,11.0986748 C19.5746794,10.6021945 19.1345181,10.2412333 18.5858704,10.2415503" id="Fill-1"></path>
                <path d="M43.7136308,3.13945069 C43.7133906,2.77204429 43.9838436,2.4713353 44.3316803,2.4710817 L46.2968915,2.46981368 C46.7634754,2.46949668 47.1253,2.11483379 47.1249998,1.61840719 C47.1246996,1.12185379 46.7484069,0.705565531 46.281823,0.705882534 L39.2821649,0.710383976 C38.8008727,0.710700979 38.4247,1.12749644 38.4250002,1.62404984 C38.4252403,2.12041305 38.8018333,2.47469553 39.2831855,2.47437853 L41.2129167,2.47311052 C41.5608134,2.47285691 41.8455544,2.7732489 41.8457946,3.1406553 L41.8471753,11.023504 C41.8474755,11.5680516 42.2687937,12.0003168 42.7813036,11.9999998 C43.2929729,11.9996828 43.7139309,11.566847 43.7136308,11.0222994 L43.7136308,3.13945069" id="Fill-2"></path>
                <path d="M6.63895073,1.49561083 C6.41778267,1.0062668 5.99038863,0.705882353 5.43746848,0.705882353 C4.88467442,0.705882353 4.44164478,1.0062668 4.22047672,1.49561083 L0.110331843,10.6573991 C0.0315233838,10.7994001 0,10.9417138 0,11.0680829 C0,11.5892537 0.394735812,12 0.916826095,12 C1.37486086,12 1.69091431,11.7314423 1.86530167,11.3207585 L5.07394081,4.02980761 C5.2662965,3.63269237 5.62213246,3.63269237 5.81329026,4.05225516 L6.93873811,6.60627332 C7.13657886,7.061352 6.84208741,7.53162499 6.34244178,7.53318819 L5.17891368,7.53693987 C4.68695975,7.53693987 4.21997235,7.80824881 4.21997235,8.39100965 C4.21997235,8.98421266 4.64490756,9.26021119 5.22285728,9.26021119 C5.80061786,9.26021119 6.76422466,9.2515198 7.62664139,9.2515198 C7.94099257,9.2515198 8.18372263,9.43960399 8.29418057,9.69202947 L9.0455089,11.3990435 C9.20312582,11.7940328 9.56324895,12 9.97431388,12 C10.4804533,12 10.875,11.6053233 10.875,11.099722 C10.875,10.9574709 10.8279041,10.8154073 10.7487804,10.6573991 L6.63895073,1.49561083" id="Fill-3"></path>
                <path d="M56.5503177,8.47058824 C57.3506989,8.47058824 58,7.8698512 58,7.1290361 L58,1.34149089 C58,0.600492039 57.3506989,0 56.5503177,0 C55.7493647,0 55.1,0.600492039 55.1,1.34149089 L55.1,7.1290361 C55.1,7.8698512 55.7493647,8.47058824 56.5503177,8.47058824" id="Fill-4"></path>
                <path d="M52.9253177,12 C53.7256353,12 54.375,11.3993242 54.375,10.6584479 L54.375,4.8709639 C54.375,4.12996505 53.7256353,3.52941176 52.9253177,3.52941176 C52.1243647,3.52941176 51.475,4.12996505 51.475,4.8709639 L51.475,10.6584479 C51.475,11.3993242 52.1243647,12 52.9253177,12" id="Fill-5"></path>
                <path d="M56.5500661,9.17647059 C55.7491225,9.17647059 55.1,9.80857619 55.1,10.5881066 C55.1,11.3677657 55.7491225,12 56.5500661,12 C57.3509436,12 58,11.3677657 58,10.5881066 C58,9.80857619 57.3509436,9.17647059 56.5500661,9.17647059" id="Fill-6"></path>
                <path d="M27.4348852,10.2250489 L22.6017586,10.2326556 C22.3137419,10.2326556 22.0781638,9.98556583 22.0781638,9.68358136 L22.0781638,7.74109354 C22.0781638,7.43910907 22.3137419,7.19201934 22.6017586,7.19201934 L26.6715099,7.19201934 C27.1298153,7.19201934 27.5118683,6.80452332 27.5118683,6.32067625 C27.5118683,5.82085519 27.1298153,5.41751196 26.6715099,5.41751196 L22.5927447,5.41751196 C22.3097222,5.41751196 22.0781638,5.17466929 22.0781638,4.87788271 L22.0781638,3.02039932 C22.0781638,2.72361274 22.3097222,2.48077007 22.5927447,2.48077007 L27.3586939,2.48077007 C27.8169992,2.48077007 28.1986868,2.09359099 28.1986868,1.59345299 C28.1986868,1.10954253 27.8169992,0.705882353 27.3586939,0.705882353 L21.2053434,0.705882353 C20.6710294,0.705882353 20.3,1.14168068 20.3,1.70622175 L20.3,10.9996606 C20.3,11.5643285 20.6710294,12 21.2053434,12 L27.4348852,12 C27.8931905,12 28.275,11.6126308 28.275,11.1124928 C28.275,10.6285823 27.8931905,10.2250489 27.4348852,10.2250489" id="Fill-7"></path>
                <path d="M49.2996823,7.05882353 C48.4991105,7.05882353 47.85,7.74137707 47.85,8.58344355 L47.85,10.4751873 C47.85,11.3171896 48.4991105,12 49.2996823,12 C50.1006353,12 50.75,11.3171896 50.75,10.4751873 L50.75,8.58344355 C50.75,7.74137707 50.1006353,7.05882353 49.2996823,7.05882353" id="Fill-8"></path>
                <path d="M36.7266416,7.53035838 C36.4437369,7.05963492 36.4554006,6.95862923 36.9351597,6.63234449 C37.8122881,6.03585612 38.2725665,5.16964142 38.2725665,3.9731447 C38.2725665,3.00455212 37.963853,2.21780556 37.3467363,1.61296468 C36.7293714,1.00830279 35.8214088,0.705882353 34.6224763,0.705882353 L30.6928937,0.705882353 C30.39299,0.705882353 30.1568639,0.789646072 29.9840811,0.956934868 C29.8113604,1.12440265 29.725,1.35326136 29.725,1.64357066 L29.725,10.4006976 C29.725,10.6614152 29.8100575,10.8755974 29.9803587,11.0430651 C30.1504737,11.2105329 30.3713999,11.2941176 30.6433233,11.2941176 C30.9150607,11.2941176 31.1373518,11.2105329 31.3100104,11.0430651 C31.4828553,10.8755974 31.5692156,10.6614152 31.5692156,10.4006976 L31.5692156,3.06015595 C31.5692156,2.53639406 31.8760679,2.33760438 32.2545769,2.33760438 L34.4774256,2.33760438 C35.7781666,2.33760438 36.4282889,2.88278449 36.4282889,3.9731447 C36.4282889,5.06362423 35.7781666,5.56775773 34.4774256,5.56775773 L33.2286747,5.56775773 C32.8896854,5.56775773 32.3873436,5.7969744 32.3873436,6.42036978 C32.3873436,6.98672946 32.9828082,7.23891553 33.2286747,7.23891553 L34.0314786,7.23891553 C34.2706447,7.23891553 34.4925015,7.36020587 34.6168306,7.55660912 L36.6190013,10.7179139 C36.8578572,11.1021293 37.1751943,11.2941176 37.571571,11.2941176 C37.8204154,11.2941176 38.0249009,11.2178712 38.1848413,11.0653186 C38.3450298,10.9128257 38.425,10.7111723 38.425,10.4602987 C38.425,10.258705 38.3404388,10.0275792 38.1713164,9.76692129 L36.7266416,7.53035838" id="Fill-9"></path>
            </g>
        </g>
    </g>
</svg>