<?xml version="1.0" encoding="UTF-8"?>
<svg width="124px" height="26px" viewBox="0 0 124 26" version="1.1" xmlns="http://www.w3.org/2000/svg" xmlns:xlink="http://www.w3.org/1999/xlink">
    <!-- Generator: Sketch 42 (36781) - http://www.bohemiancoding.com/sketch -->
    <title>Alert-LogoRGB—AW-WHITE</title>
    <desc>Created with Sketch.</desc>
    <defs></defs>
    <g id="0.1-Login" stroke="none" stroke-width="1" fill="none" fill-rule="evenodd">
        <g id="Login" transform="translate(-424.000000, -188.000000)">
            <g id="Alert-LogoRGB—AW-WHITE" transform="translate(424.000000, 188.000000)">
                <path d="M39.7353092,22.1900257 L30.3301705,22.1900257 C29.5364081,22.1905753 28.8725192,21.4951922 28.8725192,20.5333899 L28.8725192,3.6449651 C28.8716972,2.46483362 28.0967035,1.52872514 26.9286645,1.52941214 C25.7258281,1.53009914 24.7993154,2.46730683 24.8000004,3.64743831 L24.8000004,23.8491348 C24.8008224,25.0640285 25.7407609,26.0006866 26.9435972,25.9999996 L39.9268315,25.9999996 C40.9923965,25.9993126 41.8506846,25.1235229 41.8499996,24.0471287 C41.8493146,22.9714214 40.9082801,22.1893387 39.7353092,22.1900257" id="Fill-1" fill="#131D50"></path>
                <path d="M93.4567279,6.80214317 C93.4562145,6.00609595 94.0344242,5.35455981 94.778075,5.35401034 L98.9795612,5.35126298 C99.9770853,5.35057614 100.750641,4.58213989 100.75,3.50654892 C100.749358,2.43068321 99.9448698,1.52872532 98.9473458,1.52941216 L83.9825594,1.53916528 C82.95359,1.53985212 82.1493586,2.44290896 82.1500004,3.51877466 C82.1505138,4.59422827 82.9556435,5.36184032 83.9847413,5.36115348 L88.1103736,5.35840612 C88.8541528,5.35785664 89.4629094,6.00870594 89.4634228,6.80475316 L89.4663749,23.8842586 C89.4670166,25.0641118 90.3677659,26.0006865 91.4634766,25.9999996 C92.5573903,25.9993128 93.4573696,25.0615019 93.4567279,23.8816486 L93.4567279,6.80214317" id="Fill-2" fill="#131D50"></path>
                <path d="M14.1936188,3.24049013 C13.7207767,2.18024474 12.8070378,1.52941176 11.6249326,1.52941176 C10.443097,1.52941176 9.49593022,2.18024474 9.02308816,3.24049013 L0.235881872,23.0910313 C0.0673948206,23.3987003 0,23.7070466 0,23.9808462 C0,25.1100496 0.843917944,26 1.96011096,26 C2.93935771,26 3.61505818,25.418125 3.98788632,24.52831 L10.8477355,8.73124983 C11.2589787,7.87083346 12.0197315,7.87083346 12.4284137,8.77988618 L14.8345435,14.3135922 C15.2575134,15.299596 14.627911,16.3185208 13.5597031,16.3219078 L11.0721603,16.3300364 C10.0203967,16.3300364 9.02200984,16.9178724 9.02200984,18.1805209 C9.02200984,19.4657941 9.93049203,20.0637909 11.1661087,20.0637909 C12.4013209,20.0637909 14.4614458,20.0449596 16.3052333,20.0449596 C16.9772945,20.0449596 17.4962346,20.4524753 17.732386,20.9993972 L19.3386742,24.6979276 C19.6756483,25.5537378 20.4455667,26 21.3243952,26 C22.4064864,26 23.25,25.1448673 23.25,24.0493978 C23.25,23.7411869 23.1493121,23.4333825 22.9801511,23.0910313 L14.1936188,3.24049013" id="Fill-3" fill="#131D50"></path>
                <path d="M120.900679,18.3529412 C122.611839,18.3529412 124,17.0513443 124,15.4462449 L124,2.90656359 C124,1.30106609 122.611839,0 120.900679,0 C119.188297,0 117.8,1.30106609 117.8,2.90656359 L117.8,15.4462449 C117.8,17.0513443 119.188297,18.3529412 120.900679,18.3529412" id="Fill-4" fill="#E10514"></path>
                <path d="M113.150679,26 C114.861703,26 116.25,24.6985358 116.25,23.0933037 L116.25,10.5537551 C116.25,8.94825762 114.861703,7.64705882 113.150679,7.64705882 C111.438297,7.64705882 110.05,8.94825762 110.05,10.5537551 L110.05,23.0933037 C110.05,24.6985358 111.438297,26 113.150679,26" id="Fill-5" fill="#F3A500"></path>
                <path d="M120.900141,19.8823529 C119.187779,19.8823529 117.8,21.2519151 117.8,22.9408976 C117.8,24.630159 119.187779,26 120.900141,26 C122.612362,26 124,24.630159 124,22.9408976 C124,21.2519151 122.612362,19.8823529 120.900141,19.8823529" id="Fill-6" fill="#E10514"></path>
                <path d="M58.6538925,22.1542726 L48.3210011,22.1707537 C47.7052412,22.1707537 47.2015915,21.6353926 47.2015915,20.981093 L47.2015915,16.7723693 C47.2015915,16.1180697 47.7052412,15.5827086 48.3210011,15.5827086 L57.0218488,15.5827086 C58.001674,15.5827086 58.8184771,14.7431339 58.8184771,13.6947985 C58.8184771,12.6118529 58.001674,11.7379426 57.0218488,11.7379426 L48.3017301,11.7379426 C47.6966474,11.7379426 47.2015915,11.2117835 47.2015915,10.5687459 L47.2015915,6.54419853 C47.2015915,5.90116094 47.6966474,5.37500182 48.3017301,5.37500182 L58.4910007,5.37500182 C59.4708259,5.37500182 60.2868477,4.53611381 60.2868477,3.45248148 C60.2868477,2.40400882 59.4708259,1.52941176 58.4910007,1.52941176 L45.3355617,1.52941176 C44.1932352,1.52941176 43.4,2.47364146 43.4,3.69681379 L43.4,23.832598 C43.4,25.056045 44.1932352,26 45.3355617,26 L58.6538925,26 C59.6337177,26 60.45,25.1607 60.45,24.0770676 C60.45,23.028595 59.6337177,22.1542726 58.6538925,22.1542726" id="Fill-7" fill="#131D50"></path>
                <path d="M105.399321,15.2941176 C103.687754,15.2941176 102.3,16.7729837 102.3,18.597461 L102.3,22.6962392 C102.3,24.5205775 103.687754,26 105.399321,26 C107.111703,26 108.5,24.5205775 108.5,22.6962392 L108.5,18.597461 C108.5,16.7729837 107.111703,15.2941176 105.399321,15.2941176" id="Fill-8" fill="#46AA31"></path>
                <path d="M78.5190268,16.3157765 C77.9141962,15.2958757 77.9391322,15.07703 78.9648241,14.3700797 C80.8400643,13.0776883 81.8241077,11.2008897 81.8241077,8.60848018 C81.8241077,6.50986292 81.1640996,4.80524537 79.8447465,3.49475681 C78.5248629,2.18465605 76.5837015,1.52941176 74.0204666,1.52941176 L65.61929,1.52941176 C64.9781165,1.52941176 64.4732951,1.71089982 64.1038975,2.07335888 C63.7346325,2.43620573 63.55,2.93206627 63.55,3.56106976 L63.55,22.5348449 C63.55,23.0997329 63.7318471,23.5637943 64.0959392,23.9266411 C64.4596334,24.289488 64.9319583,24.4705882 65.513312,24.4705882 C66.0942677,24.4705882 66.5695107,24.289488 66.938643,23.9266411 C67.3081733,23.5637943 67.4928058,23.0997329 67.4928058,22.5348449 L67.4928058,6.6303379 C67.4928058,5.49552047 68.1488348,5.06480949 68.958061,5.06480949 L73.7103583,5.06480949 C76.4912526,5.06480949 77.8811693,6.24603306 77.8811693,8.60848018 C77.8811693,10.9711858 76.4912526,12.0634751 73.7103583,12.0634751 L71.0406148,12.0634751 C70.3158792,12.0634751 69.2419069,12.5601112 69.2419069,13.9108012 C69.2419069,15.1379138 70.5149692,15.684317 71.0406148,15.684317 L72.7569542,15.684317 C73.2682748,15.684317 73.7425894,15.9471127 74.0083965,16.3726531 L78.2888994,23.2221469 C78.7995568,24.0546135 79.4780017,24.4705882 80.3254277,24.4705882 C80.8574399,24.4705882 81.2946157,24.3053876 81.6365572,23.974857 C81.9790292,23.6444556 82.15,23.2075399 82.15,22.6639806 C82.15,22.2271942 81.969214,21.7264216 81.607642,21.1616628 L78.5190268,16.3157765" id="Fill-9" fill="#131D50"></path>
            </g>
        </g>
    </g>
</svg>