<?xml version="1.0" encoding="UTF-8"?>
<svg width="80px" height="17px" viewBox="0 0 80 17" version="1.1" xmlns="http://www.w3.org/2000/svg" xmlns:xlink="http://www.w3.org/1999/xlink">
    <!-- Generator: Sketch 42 (36781) - http://www.bohemiancoding.com/sketch -->
    <title>Alert-LogoRGB—AW-WHITE</title>
    <desc>Created with Sketch.</desc>
    <defs></defs>
    <g id="0.1-Login" stroke="none" stroke-width="1" fill="none" fill-rule="evenodd">
        <g id="Login" transform="translate(-15.000000, -20.000000)">
            <g id="TOP-BAR-Green">
                <g id="TOP-BAR">
                    <g id="Alert-LogoRGB—AW-WHITE" transform="translate(15.000000, 20.000000)">
                        <path d="M25.6356834,14.508863 L19.5678519,14.508863 C19.0557472,14.5092223 18.6274317,14.0545488 18.6274317,13.425678 L18.6274317,2.38324641 C18.6269014,1.61162198 18.1269055,0.999551054 17.3733319,1.00000025 C16.5973085,1.00044944 15.9995583,1.61323908 16.0000002,2.38486351 L16.0000002,15.593665 C16.0005306,16.3880187 16.6069425,17.0004489 17.3829659,16.9999998 L25.7592461,16.9999998 C26.4467074,16.9995506 27.0004417,16.4269188 26.9999997,15.7231226 C26.9995578,15.0197756 26.3924388,14.5084138 25.6356834,14.508863" id="Fill-1" fill="#FFFFFF"></path>
                        <path d="M60.2946631,4.44755515 C60.2943319,3.92706274 60.6673704,3.50105834 61.1471452,3.50069907 L63.8577814,3.49890272 C64.5013454,3.49845363 65.0004138,2.99601454 64.9999997,2.29274352 C64.9995857,1.58929287 64.4805612,0.999551169 63.8369973,1.00000026 L54.1822964,1.0063773 C53.5184451,1.00682639 52.9995862,1.59728663 53.0000002,2.30073728 C53.0003315,3.00391848 53.51977,3.50581867 54.1837041,3.50536958 L56.8454023,3.50357323 C57.3252599,3.50321396 57.7180061,3.92876927 57.7183373,4.44926168 L57.7202418,15.6166306 C57.7206559,16.3880731 58.3017845,17.0004488 59.0086946,16.9999998 C59.7144454,16.9995507 60.2950772,16.3863666 60.2946631,15.6149241 L60.2946631,4.44755515" id="Fill-2" fill="#FFFFFF"></path>
                        <path d="M9.15717342,2.11878201 C8.85211402,1.42554464 8.26260501,1 7.49995652,1 C6.73748196,1 6.1264066,1.42554464 5.8213472,2.11878201 L0.152181853,15.097982 C0.0434805294,15.2991502 0,15.5007612 0,15.6797841 C0,16.4181093 0.544463189,17 1.26458772,17 C1.89635981,17 2.3322956,16.6195433 2.57282989,16.0377412 L6.99853905,5.70889412 C7.26385724,5.14631419 7.75466546,5.14631419 8.01833139,5.74069481 L9.57067325,9.3588872 C9.84355706,10.003582 9.43736195,10.6698021 8.74819556,10.6720166 L7.14332922,10.6773315 C6.46477208,10.6773315 5.82065151,11.0616858 5.82065151,11.8872637 C5.82065151,12.7276346 6.40676905,13.1186325 7.20394108,13.1186325 C8.00085222,13.1186325 9.32996504,13.1063197 10.5195054,13.1063197 C10.9530932,13.1063197 11.2878933,13.3727723 11.4402491,13.7303751 L12.476564,16.148645 C12.6939666,16.7082131 13.1906882,17 13.7576743,17 C14.4557977,17 15,16.4408747 15,15.7246062 C15,15.5230837 14.9350401,15.321827 14.825904,15.097982 L9.15717342,2.11878201" id="Fill-3" fill="#FFFFFF"></path>
                        <path d="M78.0004382,12 C79.1044122,12 80,11.1489559 80,10.0994678 L80,1.90044542 C80,0.850697056 79.1044122,0 78.0004382,0 C76.8956754,0 76,0.850697056 76,1.90044542 L76,10.0994678 C76,11.1489559 76.8956754,12 78.0004382,12" id="Fill-4" fill="#E10514"></path>
                        <path d="M73.0004382,17 C74.1043246,17 75,16.1490426 75,15.0994678 L75,6.90053219 C75,5.85078383 74.1043246,5 73.0004382,5 C71.8956754,5 71,5.85078383 71,6.90053219 L71,15.0994678 C71,16.1490426 71.8956754,17 73.0004382,17" id="Fill-5" fill="#F3A500"></path>
                        <path d="M78.0000912,13 C76.8953414,13 76,13.8954829 76,14.9998177 C76,16.1043347 76.8953414,17 78.0000912,17 C79.1047497,17 80,16.1043347 80,14.9998177 C80,13.8954829 79.1047497,13 78.0000912,13" id="Fill-6" fill="#E10514"></path>
                        <path d="M37.841221,14.4854859 L31.1748394,14.496262 C30.777575,14.496262 30.4526397,14.1462183 30.4526397,13.7184069 L30.4526397,10.9665492 C30.4526397,10.5387378 30.777575,10.1886941 31.1748394,10.1886941 L36.7882896,10.1886941 C37.4204348,10.1886941 37.9474046,9.63974137 37.9474046,8.95429136 C37.9474046,8.24621153 37.4204348,7.67480861 36.7882896,7.67480861 L31.1624065,7.67480861 C30.7720306,7.67480861 30.4526397,7.33078149 30.4526397,6.91033383 L30.4526397,4.27889904 C30.4526397,3.85845138 30.7720306,3.51442426 31.1624065,3.51442426 L37.7361295,3.51442426 C38.3682747,3.51442426 38.8947405,2.96592057 38.8947405,2.25739173 C38.8947405,1.57185192 38.3682747,1 37.7361295,1 L29.2487495,1 C28.5117647,1 28,1.61738096 28,2.41714748 L28,15.5828525 C28,16.3827986 28.5117647,17 29.2487495,17 L37.841221,17 C38.4733663,17 39,16.4512269 39,15.7426981 C39,15.0571583 38.4733663,14.4854859 37.841221,14.4854859" id="Fill-7" fill="#FFFFFF"></path>
                        <path d="M67.9995618,10 C66.8953249,10 66,10.9669508 66,12.1598784 L66,14.8398487 C66,16.0326853 66.8953249,17 67.9995618,17 C69.1043246,17 70,16.0326853 70,14.8398487 L70,12.1598784 C70,10.9669508 69.1043246,10 67.9995618,10" id="Fill-8" fill="#46AA31"></path>
                        <path d="M50.6574367,10.6680077 C50.2672234,10.0011495 50.2833111,9.85805808 50.9450478,9.39582136 C52.1548802,8.55079617 52.7897469,7.32365868 52.7897469,5.62862166 C52.7897469,4.25644883 52.3639352,3.14189121 51.5127397,2.2850333 C50.6612019,1.42842895 49.4088397,1 47.7551397,1 L42.3350258,1 C41.9213655,1 41.5956743,1.11866527 41.3573532,1.35565773 C41.1191177,1.59290375 41,1.91712025 41,2.32839176 L41,14.7343216 C41,15.1036715 41.1173207,15.4070963 41.3522188,15.6443423 C41.5868603,15.8815883 41.891586,16 42.2666529,16 C42.641463,16 42.9480714,15.8815883 43.1862213,15.6443423 C43.4246279,15.4070963 43.5437457,15.1036715 43.5437457,14.7343216 L43.5437457,4.33522093 C43.5437457,3.59322492 43.9669902,3.31160621 44.4890716,3.31160621 L47.5550698,3.31160621 C49.3491953,3.31160621 50.2459157,4.08394469 50.2459157,5.62862166 C50.2459157,7.17346766 49.3491953,7.88765678 47.5550698,7.88765678 L45.8326547,7.88765678 C45.3650833,7.88765678 44.672198,8.21238041 44.672198,9.09552385 C44.672198,9.89786673 45.4935285,10.2551303 45.8326547,10.2551303 L46.9399705,10.2551303 C47.2698547,10.2551303 47.5758641,10.4269583 47.7473526,10.7051963 L50.5089673,15.1837114 C50.8384237,15.7280165 51.2761301,16 51.8228566,16 C52.1660902,16 52.4481391,15.8919842 52.6687466,15.675868 C52.8896963,15.4598364 53,15.1741607 53,14.8187566 C53,14.5331654 52.8833639,14.2057372 52.6500916,13.8364718 L50.6574367,10.6680077" id="Fill-9" fill="#FFFFFF"></path>
                    </g>
                </g>
            </g>
        </g>
    </g>
</svg>