<?xml version="1.0" encoding="UTF-8"?>
<svg width="7px" height="9px" viewBox="0 0 7 9" version="1.1" xmlns="http://www.w3.org/2000/svg" xmlns:xlink="http://www.w3.org/1999/xlink">
  <!-- Generator: Sketch 44.1 (41455) - http://www.bohemiancoding.com/sketch -->
  <title>?</title>
  <desc>Created with Sketch.</desc>
  <defs></defs>
  <g id="Tooltip-Behaviour" stroke="none" stroke-width="1" fill="none" fill-rule="evenodd">
    <g id="Risk-Monitoring---Add-indicator" transform="translate(-132.000000, -583.000000)" fill="#FFFFFF">
      <g id="Group-5" transform="translate(127.000000, 579.000000)">
        <path d="M9.17407227,10.4697266 L7.80444336,10.4697266 C7.80086261,10.2727855 7.79907227,10.1528322 7.79907227,10.1098633 C7.79907227,9.66585064 7.87247648,9.30061992 8.01928711,9.01416016 C8.16609774,8.72770039 8.45971459,8.40543799 8.90014648,8.04736328 C9.34057837,7.68928857 9.60375934,7.45475316 9.68969727,7.34375 C9.82218491,7.16829339 9.88842773,6.97493595 9.88842773,6.76367188 C9.88842773,6.47005062 9.77116003,6.21850691 9.53662109,6.0090332 C9.30208216,5.7995595 8.98608597,5.69482422 8.58862305,5.69482422 C8.20548311,5.69482422 7.88501105,5.80403537 7.62719727,6.02246094 C7.36938348,6.24088651 7.19213916,6.57389099 7.09545898,7.02148438 L5.7097168,6.84960938 C5.74910501,6.20865565 6.02213288,5.66439026 6.52880859,5.21679688 C7.0354843,4.76920349 7.7005981,4.54541016 8.52416992,4.54541016 C9.39071071,4.54541016 10.0799942,4.77188901 10.592041,5.22485352 C11.1040878,5.67781802 11.3601074,6.20507512 11.3601074,6.80664062 C11.3601074,7.1396501 11.2661142,7.45475112 11.078125,7.75195312 C10.8901358,8.04915513 10.4882029,8.45377348 9.87231445,8.96582031 C9.55362796,9.2307956 9.35579466,9.44384685 9.27880859,9.60498047 C9.20182253,9.76611409 9.16691077,10.0543599 9.17407227,10.4697266 Z M7.80444336,12.5 L7.80444336,10.9907227 L9.3137207,10.9907227 L9.3137207,12.5 L7.80444336,12.5 Z" id="?"></path>
      </g>
    </g>
  </g>
</svg>
