<?xml version="1.0" encoding="UTF-8" standalone="no"?>
<svg width="65px" height="65px" viewBox="0 0 65 65" version="1.1" xmlns="http://www.w3.org/2000/svg" xmlns:xlink="http://www.w3.org/1999/xlink">
    <!-- Generator: Sketch 42 (36781) - http://www.bohemiancoding.com/sketch -->
    <title>risk-conflict</title>
    <desc>Created with Sketch.</desc>
    <defs></defs>
    <g id="01-Dashboard-(START-HERE)" stroke="none" stroke-width="1" fill="none" fill-rule="evenodd">
        <g id="Home" transform="translate(-324.000000, -1048.000000)">
            <g id="Risk-Monitoring" transform="translate(15.000000, 791.000000)">
                <g id="risk-conflict" transform="translate(309.000000, 257.000000)">
                    <g id="Layer_1">
                        <path d="M32.2018349,64.940367 C45.2316831,64.9403446 56.9773957,57.0881515 61.9581136,45.0478278 C66.9388315,33.007504 64.1728317,19.1522543 54.9508027,9.9473031 C45.7287736,0.742351894 31.8684207,-1.99796148 19.8373498,3.0050654 C7.80627882,8.00809228 -0.0241293487,19.7683392 2.86172792e-14,32.7981651 C0.0328913336,50.5594549 14.4405147,64.9403974 32.2018349,64.940367" id="Shape" fill="#131D50"></path>
                        <path d="M47.1100917,39.3577982 C47.1100917,39.3577982 43.7944954,37.2885321 47.1100917,35.1834862 L52.9779817,31.4623853 C52.9779817,31.4623853 55.4944954,29.8642202 52.5307339,29.5541284 L48.1059633,29.0889908 C48.1059633,29.0889908 44.2,28.6775229 45.1243119,24.8550459 L46.4600917,19.1302752 C46.4600917,19.1302752 47.2770642,15.6477064 44.7784404,18.2059633 L41.3495413,21.7243119 C41.3495413,21.7243119 39.2385321,23.853211 38.5408257,20.9669725 L37.4256881,16.3215596 C37.4256881,16.3215596 37.0082569,14.5802752 36.3582569,16.25 L35.0582569,19.5834862 C35.0582569,19.5834862 33.6330275,23.2449541 31.2119266,20.1798165 L26.8944954,14.633945 C26.8944954,14.633945 24.4495413,11.5449541 25.2366972,15.3972477 L26.6798165,22.6963303 C26.6798165,22.6963303 27.3715596,26.2087156 23.8770642,25.4394495 L22.6844037,25.1830275 C22.6844037,25.1830275 19.1899083,24.4137615 20.4243119,26.7633028 C21.6587156,29.112844 21.6587156,29.112844 22.3504587,30.5261468 C22.3504587,30.5261468 23.0422018,31.9394495 19.4701835,31.7188073 L13.8825688,31.3311927 C13.8825688,31.3311927 9.9646789,31.062844 13.3637615,33.0307339 L20.7642202,37.3183486 C21.0327031,37.4397759 21.2215478,37.6887641 21.2660824,37.9800445 C21.310617,38.271325 21.2047973,38.5653652 20.9848624,38.7614679 L18.8380734,40.95 C18.8380734,40.95 18.4206422,41.3733945 19.0050459,41.2720183 L21.1637615,40.8784404 C21.1637615,40.8784404 23.912844,40.3834862 22.8334862,44.1582569 L21.0981651,50.2408257 C21.0981651,50.2408257 20.0188073,54.0155963 23.0422018,51.5110092 L29.3155963,46.3169725 C29.3155963,46.3169725 31.6114679,44.4146789 32.7266055,47.1816514 L34.3844037,51.2844037 C34.3844037,51.2844037 34.6110092,51.8389908 34.8853211,51.2844037 L36.1555046,48.8990826 C36.1555046,48.8990826 37.7059633,45.9174312 40.4431193,48.7380734 L44.9275229,53.3357798 C44.9275229,53.3357798 47.6706422,56.1444954 46.3288991,52.453211 L43.5321101,44.6770642 C43.5321101,44.6770642 42.7151376,42.4348624 45.0885321,42.6733945 L49.7577982,43.1444954 C49.7577982,43.1444954 53.6637615,43.5380734 50.3541284,41.4330275 L47.1100917,39.3577982 Z" id="Shape" fill="#FFFFFF"></path>
                    </g>
                </g>
            </g>
        </g>
    </g>
</svg>