<?xml version="1.0" encoding="UTF-8"?>
<svg width="30px" height="30px" viewBox="0 0 30 30" version="1.1" xmlns="http://www.w3.org/2000/svg" xmlns:xlink="http://www.w3.org/1999/xlink">
    <!-- Generator: Sketch 43.2 (39069) - http://www.bohemiancoding.com/sketch -->
    <title>Group 2</title>
    <desc>Created with Sketch.</desc>
    <defs></defs>
    <g id="♠️-04-Risk-Monitoring" stroke="none" stroke-width="1" fill="none" fill-rule="evenodd">
        <g id="Raise-Alert-Copy" transform="translate(-54.000000, -366.000000)">
            <g id="Group-2" transform="translate(54.000000, 366.000000)">
                <path d="M14.8506036,29.701587 C20.8596021,29.7015767 26.2763935,26.0803667 28.5733601,20.527709 C30.8703267,14.9750513 29.5947256,8.58540092 25.3417859,4.34033705 C21.0888463,0.0952731814 14.6968424,-1.16848205 9.14845185,1.13877283 C3.60006126,3.44602771 -0.0111021303,8.86952189 2.56447261e-05,14.8785101 C0.0151942001,23.069516 6.65958372,29.7016011 14.8506036,29.701587" id="Shape" fill="#000000"></path>
                <path d="M24.0945,16.4157222 L21.1625556,17.3443333 L18.2697778,17.7562778 L14.5508889,16.5198889 L13.6756111,16.1068333 L14.1772778,16.1068333 C14.0572778,15.0007222 13.897,14.1640556 13.8186667,13.0662778 L13.8133889,13.0662778 C13.8125556,13.0329444 13.7733889,12.2976667 13.7653333,11.9851667 C13.7067222,11.6548889 13.5500556,11.5257222 13.0350556,11.1687778 C12.7506111,10.9848889 12.5389444,10.9204444 12.4214444,10.9232222 C12.2308889,10.9232222 12.0636667,11.1276667 12.0228333,11.7468333 C12.8508889,11.8873889 12.907,12.8035 12.907,12.8035 C12.9800556,13.4532222 12.6606111,14.4046111 11.9233889,14.6518333 C10.5625556,15.1048889 10.7039444,12.4818333 11.4714444,11.8537778 C11.492,11.0973889 11.6992222,10.4057222 12.4214444,10.3765556 C12.7061667,10.3782222 12.9961667,10.4962778 13.3322778,10.7087778 C13.4925556,10.8062778 13.6214444,10.9043333 13.7353333,11.0040556 C13.7228333,10.7557222 13.707,10.501 13.707,10.2385 C13.7053333,9.68961111 13.7933889,9.08988889 14.2797778,8.66377778 C14.5325556,8.43461111 14.8178333,8.31544444 15.0947778,8.31822222 C15.8186667,8.35294444 16.2731111,8.981 16.5345,9.62044444 C16.8414444,9.48738889 17.2239444,9.42183333 17.6617222,9.57377778 C18.7789444,9.96016667 19.3881111,11.9126667 18.9158889,12.5918333 C17.812,14.1790556 15.0339444,11.2296111 15.7706111,10.1982222 C15.7706111,10.1982222 15.8772778,10.0590556 16.0675556,9.90405556 C15.8514444,9.33655556 15.4181111,8.82905556 15.0945,8.8635 C14.9708889,8.86544444 14.8258889,8.91044444 14.6417222,9.07211111 C14.3331111,9.34377778 14.2547778,9.73294444 14.2531111,10.2385 C14.2531111,10.5957222 14.2967222,10.9932222 14.2967222,11.391 C14.2967222,11.5996111 14.3100556,11.7818333 14.3153333,11.9851667 C14.3658889,12.3401667 14.3697778,12.6140556 14.3606111,12.9879444 C14.4381111,14.0798889 14.8811667,14.976 15.002,16.1068333 L24.0945,16.1071111 L24.0945,16.4157222 Z M24.0945,18.0107222 L22.1650556,17.4546111 L24.0945,16.9315556 L24.0945,18.0107222 Z M24.0945,21.7243333 L20.6608889,20.9193333 L18.8206111,18.2535 L21.6217222,17.8782222 L24.0945,18.6751667 L24.0945,21.7243333 Z M18.0156111,21.9804444 L20.3364444,21.4662778 L22.4642222,21.9804444 L18.0156111,21.9804444 Z M12.4850556,18.9935 L14.1383889,16.9315556 L17.8564444,18.1679444 L19.8150556,20.9379444 L17.0311667,21.4662778 L12.4850556,18.9935 Z M9.40894444,21.9804444 L9.01422222,21.491 L11.9778333,19.4737778 L16.2039444,21.8790556 L16.2261667,21.9804444 L9.40894444,21.9804444 Z M5.87755556,21.9804444 L5.87755556,19.0868333 L7.82311111,18.1590556 L9.42227778,20.2440556 L7.30616667,21.9804444 L5.87755556,21.9804444 Z M9.047,16.1071111 L12.8975556,16.1071111 L13.442,16.6568333 L11.6983889,18.8137778 L10.0261667,19.8207222 L8.282,17.6307222 L9.047,16.1071111 Z M5.87755556,16.1071111 L8.35227778,16.1071111 L7.77866667,17.4146111 L5.87755556,18.4312778 L5.87755556,16.1071111 Z" id="Fill-5" fill="#FFFFFF"></path>
            </g>
        </g>
    </g>
</svg>