<?xml version="1.0" encoding="UTF-8"?>
<svg width="30px" height="30px" viewBox="0 0 30 30" version="1.1" xmlns="http://www.w3.org/2000/svg" xmlns:xlink="http://www.w3.org/1999/xlink">
    <!-- Generator: Sketch 43.2 (39069) - http://www.bohemiancoding.com/sketch -->
    <title>risk-conflict</title>
    <desc>Created with Sketch.</desc>
    <defs></defs>
    <g id="♠️-04-Risk-Monitoring" stroke="none" stroke-width="1" fill="none" fill-rule="evenodd">
        <g id="Raise-Alert-Copy" transform="translate(-60.000000, -249.000000)">
            <g id="Context" transform="translate(14.000000, 240.000000)">
                <g id="risk-conflict" transform="translate(46.000000, 9.000000)">
                    <g id="Layer_1">
                        <path d="M14.850578,29.9486656 C20.8595765,29.9486553 26.2763678,26.3274453 28.5733344,20.7747876 C30.8703011,15.2221299 29.5947,8.8324795 25.3417603,4.58741563 C21.0888206,0.342351755 14.6968168,-0.92140348 9.1484262,1.3858514 C3.60003562,3.69310629 -0.011127775,9.11660047 -5.51365933e-15,15.1255887 C0.0151685554,23.3165945 6.65955808,29.9486796 14.850578,29.9486656" id="Shape" fill="#000000"></path>
                        <path d="M21.7258456,18.1507064 C21.7258456,18.1507064 20.1967861,17.1964193 21.7258456,16.2256315 L24.4319509,14.5095647 C24.4319509,14.5095647 25.5924961,13.772536 24.2256929,13.6295305 L22.1851134,13.4150221 C22.1851134,13.4150221 20.3837933,13.2252647 20.8100599,11.4624461 L21.4260839,8.82234336 C21.4260839,8.82234336 21.8028486,7.21628086 20.6505537,8.39607677 L19.0692422,10.0186399 C19.0692422,10.0186399 18.0957043,11.0004281 17.7739418,9.66937633 L17.2596717,7.52704295 C17.2596717,7.52704295 17.0671643,6.7240117 16.7674026,7.49404167 L16.1678793,9.0313515 C16.1678793,9.0313515 15.5106037,10.7199172 14.3940602,9.3063622 L12.4029827,6.74876266 C12.4029827,6.74876266 11.2754388,5.32420722 11.638453,7.10077636 L12.3039789,10.4669074 C12.3039789,10.4669074 12.6229913,12.0867204 11.0114286,11.7319566 L10.4614072,11.613702 C10.4614072,11.613702 8.84984443,11.2589382 9.41911659,12.3424804 C9.98838875,13.4260225 9.98838875,13.4260225 10.3074012,14.0777979 C10.3074012,14.0777979 10.6264136,14.7295733 8.97909946,14.6278193 L6.40224917,14.4490624 C6.40224917,14.4490624 4.59542885,14.3253075 6.16298986,15.2328429 L9.57587269,17.2101698 C9.69968943,17.2661686 9.78677929,17.380995 9.8073174,17.5153253 C9.82785551,17.6496556 9.77905444,17.7852587 9.67762665,17.8756957 L8.68758812,18.884985 C8.68758812,18.884985 8.49508063,19.0802426 8.76459112,19.0334908 L9.76012986,18.8519837 C9.76012986,18.8519837 11.0279292,18.6237248 10.5301598,20.3645426 L9.72987869,23.1696518 C9.72987869,23.1696518 9.23210931,24.9104695 10.6264136,23.7554246 L13.5195262,21.3600813 C13.5195262,21.3600813 14.5783174,20.4827972 15.0925874,21.7588469 L15.8571172,23.6509205 C15.8571172,23.6509205 15.9616212,23.9066804 16.0881261,23.6509205 L16.6738989,22.5508777 C16.6738989,22.5508777 17.3889268,21.1758242 18.6512259,22.4766248 L20.7193064,24.5969573 C20.7193064,24.5969573 21.9843556,25.8922577 21.3655815,24.1899415 L20.0757813,20.6038019 C20.0757813,20.6038019 19.6990167,19.5697617 20.7935593,19.6797659 L22.9468931,19.8970244 C22.9468931,19.8970244 24.7482132,20.0785315 23.2219038,19.1077437 L21.7258456,18.1507064 Z" id="Shape" fill="#FFFFFF"></path>
                    </g>
                </g>
            </g>
        </g>
    </g>
</svg>