<?xml version="1.0" encoding="UTF-8" standalone="no"?>
<svg width="65px" height="65px" viewBox="0 0 65 65" version="1.1" xmlns="http://www.w3.org/2000/svg" xmlns:xlink="http://www.w3.org/1999/xlink">
    <!-- Generator: Sketch 42 (36781) - http://www.bohemiancoding.com/sketch -->
    <title>risk-flood</title>
    <desc>Created with Sketch.</desc>
    <defs></defs>
    <g id="01-Dashboard-(START-HERE)" stroke="none" stroke-width="1" fill="none" fill-rule="evenodd">
        <g id="Home" transform="translate(-96.000000, -1048.000000)">
            <g id="Risk-Monitoring" transform="translate(15.000000, 791.000000)">
                <g id="risk-flood" transform="translate(81.000000, 257.000000)">
                    <g id="Layer_1">
                        <path d="M32.2018349,64.940367 C45.2316831,64.9403446 56.9773957,57.0881515 61.9581136,45.0478278 C66.9388315,33.007504 64.1728317,19.1522543 54.9508027,9.9473031 C45.7287736,0.742351894 31.8684207,-1.99796148 19.8373498,3.0050654 C7.80627882,8.00809228 -0.0241293487,19.7683392 1.95542638e-16,32.7981651 C0.0328913336,50.5594549 14.4405147,64.9403974 32.2018349,64.940367" id="Shape" fill="#131D50"></path>
                        <path d="M51.4275229,49.5550459 L12.5229358,49.5550459 L12.5229358,45.6669725 C13.1192661,45.5417431 15.0573394,44.4027523 16.4110092,41.7788991 C18.2,38.3321101 20.2990826,40.8068807 20.2990826,40.8068807 C18.6174312,40.9559633 19.0288991,42.7986239 19.3270642,43.7229358 C19.6293217,44.6430619 20.3509748,45.364715 21.2711009,45.6669725 L22.2431193,45.6669725 C22.8394495,45.5417431 23.8055046,44.4027523 25.1591743,41.7788991 C26.9481651,38.3321101 29.0472477,40.8068807 29.0472477,40.8068807 C27.3715596,40.9559633 27.7711009,42.7986239 28.0752294,43.7229358 C28.3766458,44.6435789 29.098623,45.3655561 30.0192661,45.6669725 L31.0091743,45.6669725 C31.6055046,45.5417431 32.5715596,44.4027523 33.9252294,41.7788991 C35.7142202,38.3321101 37.8133028,40.8068807 37.8133028,40.8068807 C36.1376147,40.9559633 36.537156,42.7986239 36.8412844,43.7229358 C37.1378225,44.6381904 37.8499439,45.3591579 38.7614679,45.6669725 L39.7334862,45.6669725 C40.3298165,45.5417431 42.2738532,44.4027523 43.6215596,41.7788991 C45.4105505,38.3321101 47.509633,40.8068807 47.509633,40.8068807 C45.833945,40.9559633 46.2334862,42.7986239 46.5376147,43.7229358 C46.8390311,44.6435789 47.5610083,45.3655561 48.4816514,45.6669725 L51.3977064,45.6669725 L51.3977064,49.5550459 L51.4275229,49.5550459 Z" id="Shape" fill="#FFFFFF"></path>
                        <path d="M45.5954128,33.9908257 L45.5954128,23.3105505 L46.5674312,24.2825688 L47.5394495,23.3105505 L38.3022936,15.5045872 L29.0651376,23.2568807 L30.037156,24.2288991 L31.0091743,23.3105505 L31.0091743,33.9908257 L30.0431193,33.9908257 C29.1224762,33.6894093 28.400499,32.9674321 28.0990826,32.046789 C27.7949541,31.1224771 27.3954128,29.2798165 29.0711009,29.1307339 C29.0711009,29.1307339 26.9600917,26.6559633 25.1830275,30.1027523 C23.853211,32.7385321 22.887156,33.8775229 22.2610092,33.9908257 L21.2889908,33.9908257 C20.3688647,33.6885683 19.6472116,32.9669151 19.3449541,32.046789 C19.046789,31.1224771 18.6353211,29.2798165 20.3169725,29.1307339 C20.3169725,29.1307339 18.2059633,26.6559633 16.4288991,30.1027523 C15.0752294,32.7385321 13.1610092,33.8775229 12.5229358,33.9908257 L12.5229358,39.8348624 C13.1192661,39.709633 15.0573394,38.5706422 16.4110092,35.946789 C18.2,32.5 20.2990826,34.9747706 20.2990826,34.9747706 C18.6174312,35.1238532 19.0288991,36.9665138 19.3270642,37.8908257 C19.632963,38.8150254 20.3620278,39.5374422 21.2889908,39.8348624 L22.2610092,39.8348624 C22.8573394,39.709633 23.8233945,38.5706422 25.1770642,35.946789 C26.966055,32.5 29.0651376,34.9747706 29.0651376,34.9747706 C27.3894495,35.1238532 27.7889908,36.9665138 28.0931193,37.8908257 C28.3945357,38.8114688 29.1165129,39.533446 30.037156,39.8348624 L31.0091743,39.8348624 C31.6055046,39.709633 32.5715596,38.5706422 33.9252294,35.946789 C35.7142202,32.5 37.8133028,34.9747706 37.8133028,34.9747706 C36.1376147,35.1238532 36.537156,36.9665138 36.8412844,37.8908257 C37.1378225,38.8060803 37.8499439,39.5270479 38.7614679,39.8348624 L39.7334862,39.8348624 C40.3298165,39.709633 42.2738532,38.5706422 43.6215596,35.946789 C45.4105505,32.5 47.509633,34.9747706 47.509633,34.9747706 C45.833945,35.1238532 46.2334862,36.9665138 46.5376147,37.8908257 C46.8390311,38.8114688 47.5610083,39.533446 48.4816514,39.8348624 L51.3977064,39.8348624 L51.3977064,33.9908257 L45.5954128,33.9908257 L45.5954128,33.9908257 Z" id="Shape" fill="#FFFFFF"></path>
                    </g>
                </g>
            </g>
        </g>
    </g>
</svg>