<?xml version="1.0" encoding="UTF-8" standalone="no"?>
<svg width="65px" height="65px" viewBox="0 0 65 65" version="1.1" xmlns="http://www.w3.org/2000/svg" xmlns:xlink="http://www.w3.org/1999/xlink">
    <!-- Generator: Sketch 42 (36781) - http://www.bohemiancoding.com/sketch -->
    <title>risk-typhoon</title>
    <desc>Created with Sketch.</desc>
    <defs></defs>
    <g id="01-Dashboard-(START-HERE)" stroke="none" stroke-width="1" fill="none" fill-rule="evenodd">
        <g id="Home" transform="translate(-324.000000, -889.000000)">
            <g id="Risk-Monitoring" transform="translate(15.000000, 791.000000)">
                <g id="risk-typhoon" transform="translate(309.000000, 98.000000)">
                    <g id="Layer_1">
                        <path d="M32.4995776,65 C45.649879,64.9999775 57.5041736,57.0751939 62.5309352,44.923562 C67.5576969,32.7719301 64.7661271,18.788594 55.458846,9.4985466 C46.1515648,0.208499188 32.1630813,-2.55714732 20.0207903,2.4921306 C7.8784993,7.54140852 -0.0242962882,19.4103744 5.61218106e-05,32.560656 C0.033251516,50.4861419 14.5740647,65.0000307 32.4995776,65" id="Shape" fill="#131D50"></path>
                        <path d="M32.8399083,21.5931193 C32.6192661,21.5931193 32.3986239,21.5573394 32.1779817,21.5573394 C30.2641411,21.5546238 28.3807982,22.0367432 26.7036697,22.9587156 C29.6018349,13.1848624 36.8412844,12.3321101 36.8412844,12.3321101 C36.8412844,12.3321101 20.8715596,13.65 20.8715596,32.106422 L20.8715596,32.106422 C20.8715596,32.3270642 20.8417431,32.5417431 20.8417431,32.7683486 C20.8484755,34.6594287 21.3391215,36.5173142 22.2669725,38.1651376 C12.3977064,35.2908257 11.5330275,28.1288991 11.5330275,28.1288991 C11.5330275,28.1288991 12.8688073,43.9555046 31.5041284,43.9555046 L31.5041284,43.943578 C31.7247706,43.943578 31.9454128,43.9793578 32.1720183,43.9793578 C34.0838398,43.9810665 35.9650077,43.4989787 37.640367,42.5779817 C34.7422018,52.3518349 27.5027523,53.2045872 27.5027523,53.2045872 C27.5027523,53.2045872 43.490367,51.8807339 43.490367,33.4302752 L43.4545872,33.4302752 C43.4545872,33.209633 43.490367,32.9949541 43.490367,32.7683486 C43.4922058,30.8720187 43.0054623,29.0071955 42.0770642,27.3536697 C51.9463303,30.2279817 52.8110092,37.3899083 52.8110092,37.3899083 C52.8110092,37.3899083 51.4752294,21.5573394 32.8399083,21.5573394 L32.8399083,21.5931193 L32.8399083,21.5931193 Z" id="Shape" fill="#FFFFFF"></path>
                    </g>
                </g>
            </g>
        </g>
    </g>
</svg>