<?xml version="1.0" encoding="UTF-8" standalone="no"?>
<svg width="86px" height="86px" viewBox="0 0 86 86" version="1.1" xmlns="http://www.w3.org/2000/svg" xmlns:xlink="http://www.w3.org/1999/xlink">
    <!-- Generator: Sketch 42 (36781) - http://www.bohemiancoding.com/sketch -->
    <title>Alert-LogoRGB—AW-WHITE</title>
    <desc>Created with Sketch.</desc>
    <defs></defs>
    <g id="0.3-Agency-Admin-(DONE)" stroke="none" stroke-width="1" fill="none" fill-rule="evenodd">
        <g id="Agency-Admin-(First-Time)" transform="translate(-17.000000, -238.000000)">
            <g id="Alert-LogoRGB—AW-WHITE" transform="translate(18.000000, 239.000000)">
                <path d="M31.5858704,46.2415503 L27.1866926,46.2415503 C26.8154167,46.241804 26.504888,45.920858 26.504888,45.4769492 L26.504888,37.6822916 C26.5045035,37.1376155 26.1420065,36.7055654 25.5956656,36.7058825 C25.0330486,36.7061996 24.5996798,37.138757 24.6000002,37.6834331 L24.6000002,47.007293 C24.6003847,47.5680132 25.0400333,48.0003169 25.6026503,47.9999998 L31.6754534,47.9999998 C32.1738629,47.9996827 32.5753202,47.5954721 32.5749998,47.0986748 C32.5746794,46.6021945 32.1345181,46.2412333 31.5858704,46.2415503" id="Fill-1" fill="#B1B2B3"></path>
                <path d="M56.7136308,39.1394507 C56.7133906,38.7720443 56.9838436,38.4713353 57.3316803,38.4710817 L59.2968915,38.4698137 C59.7634754,38.4694967 60.1253,38.1148338 60.1249998,37.6184072 C60.1246996,37.1218538 59.7484069,36.7055655 59.281823,36.7058825 L52.2821649,36.710384 C51.8008727,36.710701 51.4247,37.1274964 51.4250002,37.6240498 C51.4252403,38.120413 51.8018333,38.4746955 52.2831855,38.4743785 L54.2129167,38.4731105 C54.5608134,38.4728569 54.8455544,38.7732489 54.8457946,39.1406553 L54.8471753,47.023504 C54.8474755,47.5680516 55.2687937,48.0003168 55.7813036,47.9999998 C56.2929729,47.9996828 56.7139309,47.566847 56.7136308,47.0222994 L56.7136308,39.1394507" id="Fill-2" fill="#B1B2B3"></path>
                <path d="M19.6389507,37.4956108 C19.4177827,37.0062668 18.9903886,36.7058824 18.4374685,36.7058824 C17.8846744,36.7058824 17.4416448,37.0062668 17.2204767,37.4956108 L13.1103318,46.6573991 C13.0315234,46.7994001 13,46.9417138 13,47.0680829 C13,47.5892537 13.3947358,48 13.9168261,48 C14.3748609,48 14.6909143,47.7314423 14.8653017,47.3207585 L18.0739408,40.0298076 C18.2662965,39.6326924 18.6221325,39.6326924 18.8132903,40.0522552 L19.9387381,42.6062733 C20.1365789,43.061352 19.8420874,43.531625 19.3424418,43.5331882 L18.1789137,43.5369399 C17.6869598,43.5369399 17.2199723,43.8082488 17.2199723,44.3910096 C17.2199723,44.9842127 17.6449076,45.2602112 18.2228573,45.2602112 C18.8006179,45.2602112 19.7642247,45.2515198 20.6266414,45.2515198 C20.9409926,45.2515198 21.1837226,45.439604 21.2941806,45.6920295 L22.0455089,47.3990435 C22.2031258,47.7940328 22.563249,48 22.9743139,48 C23.4804533,48 23.875,47.6053233 23.875,47.099722 C23.875,46.9574709 23.8279041,46.8154073 23.7487804,46.6573991 L19.6389507,37.4956108" id="Fill-3" fill="#B1B2B3"></path>
                <path d="M69.5503177,44.4705882 C70.3506989,44.4705882 71,43.8698512 71,43.1290361 L71,37.3414909 C71,36.600492 70.3506989,36 69.5503177,36 C68.7493647,36 68.1,36.600492 68.1,37.3414909 L68.1,43.1290361 C68.1,43.8698512 68.7493647,44.4705882 69.5503177,44.4705882" id="Fill-4" fill="#B1B2B3"></path>
                <path d="M65.9253177,48 C66.7256353,48 67.375,47.3993242 67.375,46.6584479 L67.375,40.8709639 C67.375,40.1299651 66.7256353,39.5294118 65.9253177,39.5294118 C65.1243647,39.5294118 64.475,40.1299651 64.475,40.8709639 L64.475,46.6584479 C64.475,47.3993242 65.1243647,48 65.9253177,48" id="Fill-5" fill="#B1B2B3"></path>
                <path d="M69.5500661,45.1764706 C68.7491225,45.1764706 68.1,45.8085762 68.1,46.5881066 C68.1,47.3677657 68.7491225,48 69.5500661,48 C70.3509436,48 71,47.3677657 71,46.5881066 C71,45.8085762 70.3509436,45.1764706 69.5500661,45.1764706" id="Fill-6" fill="#B1B2B3"></path>
                <path d="M40.4348852,46.2250489 L35.6017586,46.2326556 C35.3137419,46.2326556 35.0781638,45.9855658 35.0781638,45.6835814 L35.0781638,43.7410935 C35.0781638,43.4391091 35.3137419,43.1920193 35.6017586,43.1920193 L39.6715099,43.1920193 C40.1298153,43.1920193 40.5118683,42.8045233 40.5118683,42.3206763 C40.5118683,41.8208552 40.1298153,41.417512 39.6715099,41.417512 L35.5927447,41.417512 C35.3097222,41.417512 35.0781638,41.1746693 35.0781638,40.8778827 L35.0781638,39.0203993 C35.0781638,38.7236127 35.3097222,38.4807701 35.5927447,38.4807701 L40.3586939,38.4807701 C40.8169992,38.4807701 41.1986868,38.093591 41.1986868,37.593453 C41.1986868,37.1095425 40.8169992,36.7058824 40.3586939,36.7058824 L34.2053434,36.7058824 C33.6710294,36.7058824 33.3,37.1416807 33.3,37.7062217 L33.3,46.9996606 C33.3,47.5643285 33.6710294,48 34.2053434,48 L40.4348852,48 C40.8931905,48 41.275,47.6126308 41.275,47.1124928 C41.275,46.6285823 40.8931905,46.2250489 40.4348852,46.2250489" id="Fill-7" fill="#B1B2B3"></path>
                <path d="M62.2996823,43.0588235 C61.4991105,43.0588235 60.85,43.7413771 60.85,44.5834435 L60.85,46.4751873 C60.85,47.3171896 61.4991105,48 62.2996823,48 C63.1006353,48 63.75,47.3171896 63.75,46.4751873 L63.75,44.5834435 C63.75,43.7413771 63.1006353,43.0588235 62.2996823,43.0588235" id="Fill-8" fill="#B1B2B3"></path>
                <path d="M49.7266416,43.5303584 C49.4437369,43.0596349 49.4554006,42.9586292 49.9351597,42.6323445 C50.8122881,42.0358561 51.2725665,41.1696414 51.2725665,39.9731447 C51.2725665,39.0045521 50.963853,38.2178056 50.3467363,37.6129647 C49.7293714,37.0083028 48.8214088,36.7058824 47.6224763,36.7058824 L43.6928937,36.7058824 C43.39299,36.7058824 43.1568639,36.7896461 42.9840811,36.9569349 C42.8113604,37.1244026 42.725,37.3532614 42.725,37.6435707 L42.725,46.4006976 C42.725,46.6614152 42.8100575,46.8755974 42.9803587,47.0430651 C43.1504737,47.2105329 43.3713999,47.2941176 43.6433233,47.2941176 C43.9150607,47.2941176 44.1373518,47.2105329 44.3100104,47.0430651 C44.4828553,46.8755974 44.5692156,46.6614152 44.5692156,46.4006976 L44.5692156,39.060156 C44.5692156,38.5363941 44.8760679,38.3376044 45.2545769,38.3376044 L47.4774256,38.3376044 C48.7781666,38.3376044 49.4282889,38.8827845 49.4282889,39.9731447 C49.4282889,41.0636242 48.7781666,41.5677577 47.4774256,41.5677577 L46.2286747,41.5677577 C45.8896854,41.5677577 45.3873436,41.7969744 45.3873436,42.4203698 C45.3873436,42.9867295 45.9828082,43.2389155 46.2286747,43.2389155 L47.0314786,43.2389155 C47.2706447,43.2389155 47.4925015,43.3602059 47.6168306,43.5566091 L49.6190013,46.7179139 C49.8578572,47.1021293 50.1751943,47.2941176 50.571571,47.2941176 C50.8204154,47.2941176 51.0249009,47.2178712 51.1848413,47.0653186 C51.3450298,46.9128257 51.425,46.7111723 51.425,46.4602987 C51.425,46.258705 51.3404388,46.0275792 51.1713164,45.7669213 L49.7266416,43.5303584" id="Fill-9" fill="#B1B2B3"></path>
                <circle id="Oval" stroke="#B1B2B3" cx="42" cy="42" r="42"></circle>
            </g>
        </g>
    </g>
</svg>