<?xml version="1.0" encoding="UTF-8" standalone="no"?>
<svg width="40px" height="11px" viewBox="0 0 40 11" version="1.1" xmlns="http://www.w3.org/2000/svg" xmlns:xlink="http://www.w3.org/1999/xlink">
    <!-- Generator: Sketch 42 (36781) - http://www.bohemiancoding.com/sketch -->
    <title>Start-logo-blue-red</title>
    <desc>Created with Sketch.</desc>
    <defs>
        <polygon id="path-1" points="9.01960784 3.46211009 0.0882352941 3.46211009 0.0882352941 0.019266055 9.01960784 0.019266055"></polygon>
        <polygon id="path-3" points="23.1764706 10.2052294 0.00980392157 10.2052294 0.00980392157 0.0481651376 23.1764706 0.0481651376 23.1764706 10.2052294"></polygon>
    </defs>
    <g id="0.2-System-Admin" stroke="none" stroke-width="1" fill="none" fill-rule="evenodd">
        <g id="Networks-(Existing)" transform="translate(-26.000000, -314.000000)">
            <g id="Group" transform="translate(14.000000, 311.000000)">
                <g id="Start-logo-blue-red" transform="translate(12.000000, 3.000000)">
                    <polyline id="Fill-1" fill="#0B1621" points="12.6862745 7.10917431 13.0490196 7.10917431 15.1862745 9.78715596 15.1862745 7.10917431 15.5588235 7.10917431 15.5588235 10.4518349 15.254902 10.4518349 13.0588235 7.71605505 13.0588235 10.4518349 12.6862745 10.4518349 12.6862745 7.10917431"></polyline>
                    <polyline id="Fill-2" fill="#0B1621" points="16.6764706 7.10917431 19.1372549 7.10917431 19.1372549 7.4559633 17.0588235 7.4559633 17.0588235 8.59266055 18.9117647 8.59266055 18.9117647 8.93944954 17.0588235 8.93944954 17.0588235 10.1050459 19.1568627 10.1050459 19.1568627 10.4518349 16.6764706 10.4518349 16.6764706 7.10917431"></polyline>
                    <polyline id="Fill-3" fill="#0B1621" points="20.9901961 7.4559633 19.8431373 7.4559633 19.8431373 7.10917431 22.5098039 7.10917431 22.5098039 7.4559633 21.372549 7.4559633 21.372549 10.4518349 20.9803922 10.4518349 20.9901961 7.4559633"></polyline>
                    <g id="Group-7" transform="translate(23.039216, 7.032110)">
                        <mask id="mask-2" fill="white">
                            <use xlink:href="#path-1"></use>
                        </mask>
                        <g id="Clip-5"></g>
                        <polyline id="Fill-4" fill="#0B1621" mask="url(#mask-2)" points="0.0882352941 0.0770642202 0.509803922 0.0770642202 1.48039216 2.86100917 2.41176471 0.0674311927 2.7254902 0.0674311927 3.65686275 2.86100917 4.62745098 0.0770642202 5.02941176 0.0770642202 3.81372549 3.43899083 3.49019608 3.43899083 2.55882353 0.732110092 1.61764706 3.43899083 1.29411765 3.43899083 0.0882352941 0.0770642202"></polyline>
                        <path d="M8.62745098,1.75321101 L8.62745098,1.75321101 C8.62745098,0.982568807 8.06862745,0.366055046 7.28431373,0.366055046 C6.50980392,0.366055046 5.95098039,0.97293578 5.95098039,1.73394495 L5.95098039,1.74357798 C5.95098039,2.50458716 6.50980392,3.12110092 7.29411765,3.12110092 C8.07843137,3.12110092 8.62745098,2.51422018 8.62745098,1.75321101 Z M5.55882353,1.75321101 L5.55882353,1.75321101 C5.55882353,0.818807339 6.26470588,0.019266055 7.29411765,0.019266055 C8.33333333,0.019266055 9.01960784,0.818807339 9.01960784,1.73394495 L9.01960784,1.74357798 C9.01960784,2.66834862 8.31372549,3.46788991 7.28431373,3.46788991 C6.25490196,3.46788991 5.55882353,2.67798165 5.55882353,1.75321101 L5.55882353,1.75321101 Z" id="Fill-6" fill="#0B1621" mask="url(#mask-2)"></path>
                    </g>
                    <path d="M34.4607843,8.81422018 C34.9705882,8.81422018 35.3333333,8.55412844 35.3333333,8.13027523 C35.3333333,7.71605505 35.0098039,7.47522936 34.4607843,7.47522936 L33.4117647,7.47522936 L33.4117647,8.83348624 L34.4607843,8.81422018 Z M33.0294118,7.10917431 L34.4901961,7.10917431 C34.9117647,7.10917431 35.245098,7.23440367 35.4607843,7.44633028 C35.627451,7.61009174 35.7254902,7.8412844 35.7254902,8.10137615 L35.7254902,8.11100917 C35.7254902,8.66009174 35.3333333,8.98761468 34.8039216,9.08394495 L35.8529412,10.4518349 L35.3823529,10.4518349 L34.3921569,9.15137615 L33.4215686,9.15137615 L33.4215686,10.4518349 L33.0392157,10.4518349 L33.0392157,7.10917431 L33.0294118,7.10917431 L33.0294118,7.10917431 Z" id="Fill-8" fill="#0B1621"></path>
                    <polyline id="Fill-9" fill="#0B1621" points="36.6960784 7.10917431 37.0784314 7.10917431 37.0784314 9.10321101 39.0294118 7.10917431 39.5294118 7.10917431 38.0686275 8.5733945 39.5882353 10.4518349 39.1078431 10.4518349 37.8039216 8.83348624 37.0784314 9.5559633 37.0784314 10.4518349 36.6960784 10.4518349 36.6960784 7.10917431"></polyline>
                    <path d="M12.3529412,5.32706422 L13.1176471,4.42155963 C13.6470588,4.85504587 14.2058824,5.12477064 14.8823529,5.12477064 C15.4117647,5.12477064 15.7352941,4.92247706 15.7352941,4.57568807 L15.7352941,4.55642202 C15.7352941,4.22889908 15.5294118,4.06513761 14.5490196,3.82431193 C13.3627451,3.52568807 12.5980392,3.20779817 12.5980392,2.05183486 L12.5980392,2.03256881 C12.5980392,0.982568807 13.4607843,0.288990826 14.6568627,0.288990826 C15.5196078,0.288990826 16.245098,0.558715596 16.8431373,1.02110092 L16.1666667,1.98440367 C15.6470588,1.62798165 15.127451,1.41605505 14.6372549,1.41605505 C14.1372549,1.41605505 13.8823529,1.63761468 13.8823529,1.91697248 L13.8823529,1.93623853 C13.8823529,2.32155963 14.1372549,2.43715596 15.1568627,2.69724771 C16.3529412,3.00550459 17.0294118,3.4293578 17.0294118,4.43119266 L17.0294118,4.45045872 C17.0294118,5.59678899 16.1372549,6.24220183 14.8627451,6.24220183 C13.9607843,6.25183486 13.0588235,5.95321101 12.3529412,5.32706422" id="Fill-10" fill="#0B1621"></path>
                    <polyline id="Fill-11" fill="#0B1621" points="19.3921569 1.55091743 17.5980392 1.55091743 17.5980392 0.375688073 22.4901961 0.375688073 22.4901961 1.55091743 20.6960784 1.55091743 20.6960784 6.17477064 19.4019608 6.17477064 19.3921569 1.55091743"></polyline>
                    <path d="M31.9901961,3.18853211 C32.6176471,3.18853211 32.9803922,2.86100917 32.9803922,2.36972477 L32.9803922,2.35045872 C32.9803922,1.80137615 32.5882353,1.52201835 31.9607843,1.52201835 L30.6764706,1.52201835 L30.6764706,3.18853211 L31.9901961,3.18853211 Z M29.372549,0.375688073 L32.0686275,0.375688073 C32.8137255,0.375688073 33.4019608,0.577981651 33.7843137,0.963302752 C34.1176471,1.29082569 34.2941176,1.74357798 34.2941176,2.28302752 L34.2941176,2.30229358 C34.2941176,3.23669725 33.7843137,3.82431193 33.0294118,4.0940367 L34.4705882,6.16513761 L32.9509804,6.16513761 L31.6862745,4.31559633 L30.6666667,4.31559633 L30.6666667,6.17477064 L29.372549,6.17477064 L29.372549,0.375688073 L29.372549,0.375688073 Z" id="Fill-12" fill="#0B1621"></path>
                    <polyline id="Fill-13" fill="#0B1621" points="36.8431373 1.55091743 35.0490196 1.55091743 35.0490196 0.375688073 39.9313725 0.375688073 39.9313725 1.55091743 38.1372549 1.55091743 38.1372549 6.17477064 36.8431373 6.17477064 36.8431373 1.55091743"></polyline>
                    <g id="Group-17" transform="translate(5.294118, 0.288991)">
                        <mask id="mask-4" fill="white">
                            <use xlink:href="#path-3"></use>
                        </mask>
                        <g id="Clip-15"></g>
                        <polyline id="Fill-14" fill="#BF2538" mask="url(#mask-4)" points="20.6470588 0.0481651376 19.4509804 0.0481651376 16.9215686 5.88577982 18.245098 5.88577982 18.7843137 4.5853211 19.254902 3.45825688 19.245098 3.45825688 20.0294118 1.57981651 20.8137255 3.45825688 21.2745098 4.5853211 21.8137255 5.88577982 23.1764706 5.88577982 20.6470588 0.0481651376"></polyline>
                        <path d="M0.0196078431,10.2110092 L0.00980392157,9.57522936 L0.0196078431,9.57522936 C0.156862745,9.57522936 0.284313725,9.56559633 0.421568627,9.5559633 L0.480392157,10.1917431 C0.323529412,10.2110092 0.166666667,10.2110092 0.0196078431,10.2110092" id="Fill-16" fill="#BF2538" mask="url(#mask-4)"></path>
                    </g>
                    <path d="M4.84313725,10.4807339 C4.68627451,10.4711009 4.53921569,10.4518349 4.38235294,10.4229358 L4.5,9.79678899 C4.6372549,9.81605505 4.76470588,9.8353211 4.90196078,9.84495413 L4.84313725,10.4807339" id="Fill-18" fill="#BF2538"></path>
                    <path d="M6.2254902,10.4229358 L6.11764706,9.79678899 C6.25490196,9.77752294 6.38235294,9.74862385 6.50980392,9.71009174 L6.67647059,10.3266055 C6.52941176,10.3651376 6.37254902,10.4036697 6.2254902,10.4229358" id="Fill-19" fill="#BF2538"></path>
                    <path d="M3.93137255,10.3266055 C3.78431373,10.2880734 3.6372549,10.2399083 3.49019608,10.1917431 L3.71568627,9.59449541 C3.84313725,9.64266055 3.97058824,9.68119266 4.09803922,9.71009174 L3.93137255,10.3266055" id="Fill-20" fill="#BF2538"></path>
                    <path d="M7.11764706,10.1917431 L6.89215686,9.59449541 C7.01960784,9.54633028 7.14705882,9.49816514 7.26470588,9.44036697 L7.53921569,10.0183486 C7.41176471,10.0857798 7.26470588,10.143578 7.11764706,10.1917431" id="Fill-21" fill="#BF2538"></path>
                    <path d="M3.05882353,10.0183486 C2.92156863,9.95091743 2.78431373,9.88348624 2.64705882,9.80642202 L2.97058824,9.25733945 C3.08823529,9.32477064 3.20588235,9.38256881 3.33333333,9.44036697 L3.05882353,10.0183486" id="Fill-22" fill="#BF2538"></path>
                    <path d="M7.96078431,9.80642202 L7.6372549,9.24770642 C7.75490196,9.18027523 7.87254902,9.11284404 7.98039216,9.03577982 L8.35294118,9.5559633 C8.2254902,9.65229358 8.08823529,9.7293578 7.96078431,9.80642202" id="Fill-23" fill="#BF2538"></path>
                    <path d="M2.25490196,9.5559633 C2.12745098,9.46926606 2.00980392,9.37293578 1.89215686,9.2766055 L2.31372549,8.7853211 C2.42156863,8.87201835 2.52941176,8.94908257 2.6372549,9.02614679 L2.25490196,9.5559633" id="Fill-24" fill="#0B1621"></path>
                    <path d="M8.71568627,9.28623853 L8.29411765,8.79495413 C8.40196078,8.70825688 8.5,8.62155963 8.59803922,8.52522936 L9.05882353,8.97798165 C8.95098039,9.08394495 8.83333333,9.18990826 8.71568627,9.28623853" id="Fill-25" fill="#BF2538"></path>
                    <path d="M1.54901961,8.97798165 C1.44117647,8.87201835 1.33333333,8.75642202 1.23529412,8.64082569 L1.73529412,8.2266055 C1.82352941,8.33256881 1.91176471,8.42889908 2.00980392,8.52522936 L1.54901961,8.97798165" id="Fill-26" fill="#0B1621"></path>
                    <path d="M9.37254902,8.65045872 L8.87254902,8.23623853 C8.96078431,8.13027523 9.03921569,8.02431193 9.11764706,7.91834862 L9.64705882,8.28440367 C9.56862745,8.40963303 9.47058824,8.53486239 9.37254902,8.65045872" id="Fill-27" fill="#BF2538"></path>
                    <path d="M0.960784314,8.27477064 C0.87254902,8.14954128 0.784313725,8.02431193 0.715686275,7.88944954 L1.28431373,7.57155963 C1.35294118,7.68715596 1.42156863,7.80275229 1.5,7.9087156 L0.960784314,8.27477064" id="Fill-28" fill="#0B1621"></path>
                    <path d="M9.90196078,7.89908257 L9.34313725,7.58119266 C9.41176471,7.46559633 9.47058824,7.35 9.52941176,7.22477064 L10.1176471,7.49449541 C10.0588235,7.63899083 9.98039216,7.77385321 9.90196078,7.89908257" id="Fill-29" fill="#BF2538"></path>
                    <path d="M0.490196078,7.48486239 C0.421568627,7.35 0.362745098,7.20550459 0.31372549,7.06100917 L0.921568627,6.83944954 C0.970588235,6.9646789 1.01960784,7.08990826 1.07843137,7.20550459 L0.490196078,7.48486239" id="Fill-30" fill="#0B1621"></path>
                    <path d="M10.2941176,7.08027523 L9.68627451,6.8587156 C9.73529412,6.73348624 9.7745098,6.60825688 9.81372549,6.48302752 L10.4411765,6.64678899 C10.4019608,6.7912844 10.3529412,6.93577982 10.2941176,7.08027523" id="Fill-31" fill="#BF2538"></path>
                    <path d="M0.176470588,6.63715596 C0.137254902,6.49266055 0.107843137,6.33853211 0.0784313725,6.1940367 L0.715686275,6.08807339 C0.735294118,6.22293578 0.764705882,6.34816514 0.803921569,6.4733945 L0.176470588,6.63715596" id="Fill-32" fill="#0B1621"></path>
                    <path d="M10.5392157,6.20366972 L9.90196078,6.08807339 C9.92156863,5.95321101 9.94117647,5.82798165 9.95098039,5.69311927 L10.5980392,5.75091743 C10.5882353,5.90504587 10.5686275,6.04954128 10.5392157,6.20366972" id="Fill-33" fill="#BF2538"></path>
                    <path d="M0.0196078431,5.7412844 C0.00980392157,5.58715596 0,5.44266055 0,5.28853211 L0,5.26926606 L0.647058824,5.26926606 L0.323529412,5.26926606 L0.647058824,5.27889908 L0.647058824,5.28853211 C0.647058824,5.4233945 0.656862745,5.55825688 0.666666667,5.68348624 L0.0196078431,5.7412844" id="Fill-34" fill="#0B1621"></path>
                    <path d="M9.97058824,5.29816514 L9.97058824,5.29816514 C9.97058824,5.16330275 9.96078431,5.02844037 9.95098039,4.90321101 L10.5980392,4.84541284 C10.6078431,4.98990826 10.6176471,5.1440367 10.6176471,5.28853211 L9.97058824,5.29816514" id="Fill-35" fill="#BF2538"></path>
                    <path d="M0.666666667,4.8646789 L0.0196078431,4.80688073 C0.0294117647,4.65275229 0.0588235294,4.50825688 0.0784313725,4.35412844 L0.715686275,4.46972477 C0.696078431,4.60458716 0.676470588,4.72981651 0.666666667,4.8646789" id="Fill-36" fill="#0B1621"></path>
                    <path d="M9.90196078,4.49862385 C9.88235294,4.36376147 9.85294118,4.23853211 9.81372549,4.11330275 L10.4411765,3.94954128 C10.4803922,4.0940367 10.5098039,4.24816514 10.5392157,4.39266055 L9.90196078,4.49862385" id="Fill-37" fill="#BF2538"></path>
                    <path d="M0.81372549,4.08440367 L0.18627451,3.9206422 C0.225490196,3.77614679 0.274509804,3.63165138 0.323529412,3.48715596 L0.931372549,3.7087156 C0.892156863,3.82431193 0.843137255,3.94954128 0.81372549,4.08440367" id="Fill-38" fill="#0B1621"></path>
                    <path d="M9.69607843,3.72798165 C9.64705882,3.60275229 9.59803922,3.47752294 9.53921569,3.36192661 L10.127451,3.09220183 C10.1960784,3.22706422 10.254902,3.37155963 10.3039216,3.51605505 L9.69607843,3.72798165" id="Fill-39" fill="#BF2538"></path>
                    <path d="M1.08823529,3.33302752 L0.5,3.06330275 C0.568627451,2.92844037 0.637254902,2.79357798 0.715686275,2.6587156 L1.2745098,2.9766055 C1.21568627,3.09220183 1.14705882,3.20779817 1.08823529,3.33302752" id="Fill-40" fill="#0B1621"></path>
                    <path d="M9.35294118,3.00550459 C9.28431373,2.88990826 9.21568627,2.77431193 9.1372549,2.66834862 L9.66666667,2.30229358 C9.75490196,2.42752294 9.83333333,2.55275229 9.91176471,2.68761468 L9.35294118,3.00550459" id="Fill-41" fill="#BF2538"></path>
                    <path d="M1.5,2.63944954 L0.970588235,2.2733945 C1.05882353,2.14816514 1.15686275,2.03256881 1.25490196,1.91697248 L1.75490196,2.33119266 C1.66666667,2.42752294 1.57843137,2.53348624 1.5,2.63944954" id="Fill-42" fill="#0B1621"></path>
                    <path d="M8.89215686,2.35045872 C8.80392157,2.24449541 8.71568627,2.14816514 8.61764706,2.05183486 L9.07843137,1.59908257 C9.18627451,1.70504587 9.29411765,1.8206422 9.39215686,1.93623853 L8.89215686,2.35045872" id="Fill-43" fill="#BF2538"></path>
                    <path d="M2.02941176,2.03256881 L1.56862745,1.57981651 C1.67647059,1.47385321 1.79411765,1.36788991 1.91176471,1.27155963 L2.33333333,1.76284404 C2.2254902,1.84954128 2.11764706,1.93623853 2.02941176,2.03256881" id="Fill-44" fill="#0B1621"></path>
                    <path d="M8.31372549,1.78211009 C8.20588235,1.69541284 8.09803922,1.61834862 7.99019608,1.5412844 L8.3627451,1.02110092 C8.49019608,1.10779817 8.60784314,1.20412844 8.7254902,1.30045872 L8.31372549,1.78211009" id="Fill-45" fill="#BF2538"></path>
                    <path d="M2.64705882,1.52201835 L2.2745098,0.992201835 C2.40196078,0.905504587 2.52941176,0.828440367 2.66666667,0.751376147 L2.99019608,1.31009174 C2.87254902,1.37752294 2.76470588,1.44495413 2.64705882,1.52201835" id="Fill-46" fill="#0B1621"></path>
                    <path d="M7.64705882,1.31972477 C7.52941176,1.25229358 7.41176471,1.19449541 7.28431373,1.13669725 L7.55882353,0.558715596 C7.69607843,0.626146789 7.83333333,0.693577982 7.97058824,0.770642202 L7.64705882,1.31972477" id="Fill-47" fill="#BF2538"></path>
                    <path d="M3.35294118,1.12706422 L3.07843137,0.549082569 C3.21568627,0.481651376 3.3627451,0.423853211 3.50980392,0.375688073 L3.73529412,0.97293578 C3.60784314,1.02110092 3.48039216,1.06926606 3.35294118,1.12706422" id="Fill-48" fill="#0B1621"></path>
                    <path d="M6.91176471,0.982568807 C6.78431373,0.93440367 6.65686275,0.89587156 6.52941176,0.85733945 L6.69607843,0.240825688 C6.84313725,0.279357798 6.99019608,0.327522936 7.1372549,0.375688073 L6.91176471,0.982568807" id="Fill-49" fill="#0B1621"></path>
                    <path d="M4.11764706,0.85733945 L3.95098039,0.240825688 C4.09803922,0.202293578 4.25490196,0.173394495 4.40196078,0.144495413 L4.50980392,0.770642202 C4.38235294,0.789908257 4.24509804,0.818807339 4.11764706,0.85733945" id="Fill-50" fill="#0B1621"></path>
                    <path d="M6.1372549,0.780275229 C6,0.761009174 5.87254902,0.741743119 5.73529412,0.732110092 L5.79411765,0.0963302752 C5.95098039,0.105963303 6.09803922,0.134862385 6.25490196,0.15412844 L6.1372549,0.780275229" id="Fill-51" fill="#0B1621"></path>
                    <path d="M4.92156863,0.722477064 L4.87254902,0.0866972477 C5.01960784,0.0770642202 5.16666667,0.0674311927 5.31372549,0.0674311927 L5.33333333,0.0674311927 L5.33333333,0.703211009 L5.31372549,0.703211009 C5.17647059,0.703211009 5.04901961,0.712844037 4.92156863,0.722477064" id="Fill-52" fill="#0B1621"></path>
                </g>
            </g>
        </g>
    </g>
</svg>