<?xml version="1.0" encoding="UTF-8"?>
<svg width="29px" height="53px" viewBox="0 0 29 53" version="1.1" xmlns="http://www.w3.org/2000/svg" xmlns:xlink="http://www.w3.org/1999/xlink">
    <!-- Generator: Sketch 43.2 (39069) - http://www.bohemiancoding.com/sketch -->
    <title>cyclone_blue</title>
    <desc>Created with Sketch.</desc>
    <defs>
        <path d="M25.7417029,22.9198491 C28.1288483,19.1391515 28.4076669,16.8934171 28.4076669,13.8625579 C28.4076669,6.20664523 21.8025947,0 14.1637294,0 C6.42937829,0 0,6.20664523 0,13.8625579 C0,16.8934171 0.239351112,19.1391515 2.62649652,22.9198491 C3.68957194,24.6060402 14.1637294,35.6015691 14.1637294,52.4571792 C14.1637294,35.6015691 24.6773543,24.6060402 25.7417029,22.9198491 Z" id="path-1"></path>
    </defs>
    <g id="Maps-Pins" stroke="none" stroke-width="1" fill="none" fill-rule="evenodd">
        <g id="Artboard" transform="translate(-69.000000, -34.000000)">
            <g id="cyclone_blue" transform="translate(69.122001, 34.000000)">
                <g id="Imported-Layers">
                    <use fill="#131D50" fill-rule="evenodd" xlink:href="#path-1"></use>
                    <path stroke="#FFFFFF" stroke-width="1" d="M14.164653,46.028696 C13.3219308,40.658452 11.4449851,35.6430679 8.78662355,30.9570036 C7.63655075,28.9296966 6.42474842,27.1114532 5.09930791,25.3359339 C4.60680303,24.6761895 3.16818919,22.8415214 3.04945458,22.6531911 C0.991733502,19.3942268 0.5,17.4548089 0.5,13.8625579 C0.5,6.51529477 6.67232345,0.5 14.1637294,0.5 C21.609258,0.5 27.9076669,6.56283216 27.9076669,13.8625579 C27.9076669,17.3908587 27.3922352,19.3692519 25.3189249,22.6529056 L25.3188889,22.6529627 C25.1993937,22.8422726 23.7528928,24.6813647 23.2626072,25.335924 C21.9318971,27.1124979 20.7157985,28.9308449 19.5615108,30.9584519 C16.893857,35.6444182 15.010374,40.659216 14.164653,46.028696 Z"></path>
                </g>
                <path d="M14.4506902,8.96956792 C14.3517219,8.96410417 14.2527537,8.95372304 14.1521762,8.95372304 C13.2595846,8.95372304 12.4211708,9.18729842 11.6911124,9.5948943 C12.9959376,5.11653025 16.2476744,4.725872 16.2476744,4.725872 C16.2476744,4.725872 9.06322413,5.32988975 9.06322413,13.785865 L9.07770729,13.785865 C9.07153854,13.8858517 9.06322413,13.9858383 9.06322413,14.0882837 C9.06322413,14.9887099 9.29388181,15.8347719 9.69753275,16.5710124 C5.25978629,15.2542483 4.87169133,11.9738118 4.87169133,11.9738118 C4.87169133,11.9738118 5.4714013,19.223937 13.8528577,19.223937 L13.8528577,19.2067262 C13.9518259,19.2127363 14.0507941,19.223937 14.1521762,19.223937 C15.0439632,19.223937 15.882377,18.9898153 16.6113626,18.5824926 C15.3076103,23.0600371 12.0561416,23.4515149 12.0561416,23.4515149 C12.0561416,23.4515149 19.2403237,22.8469508 19.2403237,14.3907023 L19.2244995,14.3907023 C19.2306683,14.2896229 19.2403237,14.190729 19.2403237,14.0882837 C19.2403237,13.1875842 19.009666,12.3420686 18.604674,11.6063745 C23.0440297,12.9223191 23.4305155,16.2027556 23.4305155,16.2027556 C23.4305155,16.2027556 22.8324147,8.95372304 14.4506902,8.95372304 L14.4506902,8.96956792 Z" id="Fill-1" fill="#FEFEFE"></path>
            </g>
        </g>
    </g>
</svg>