<?xml version="1.0" encoding="UTF-8"?>
<svg width="25px" height="46px" viewBox="0 0 25 46" version="1.1" xmlns="http://www.w3.org/2000/svg" xmlns:xlink="http://www.w3.org/1999/xlink">
    <!-- Generator: Sketch 43.2 (39069) - http://www.bohemiancoding.com/sketch -->
    <title>cyclone_red</title>
    <desc>Created with Sketch.</desc>
    <defs>
        <path d="M22.3715012,19.9190952 C24.4461124,16.633381 24.688427,14.6816667 24.688427,12.047619 C24.688427,5.39404762 18.948116,0 12.30936,0 C5.58761962,0 0,5.39404762 0,12.047619 C0,14.6816667 0.208014354,16.633381 2.2826256,19.9190952 C3.20651914,21.3845238 12.30936,30.9404762 12.30936,45.5892857 C12.30936,30.9404762 21.4465012,21.3845238 22.3715012,19.9190952 Z" id="path-1"></path>
    </defs>
    <g id="Maps-Pins" stroke="none" stroke-width="1" fill="none" fill-rule="evenodd">
        <g id="Artboard" transform="translate(-64.000000, -34.000000)">
            <g id="cyclone_red" transform="translate(64.000000, 34.000000)">
                <g id="Imported-Layers">
                    <use fill="#CE2912" fill-rule="evenodd" xlink:href="#path-1"></use>
                    <path stroke="#FFFFFF" stroke-width="1" d="M12.3102819,39.595356 C11.5479953,35.0696072 9.941628,30.8351718 7.69318342,26.8716945 C6.69222137,25.1072345 5.63758873,23.5248157 4.48414442,21.9796972 C4.05413496,21.4036698 2.80666839,19.8127722 2.70558366,19.6524373 C0.924293538,16.831277 0.5,15.1578451 0.5,12.047619 C0.5,5.69882412 5.83453892,0.5 12.30936,0.5 C18.7444847,0.5 24.188427,5.74032491 24.188427,12.047619 C24.188427,15.1021552 23.7436316,16.8094235 21.9487232,19.6521518 L21.9486872,19.6522089 C21.8469623,19.8133663 20.5927013,21.408043 20.1645843,21.9796037 C19.0065559,23.5256377 17.9481849,25.1081457 16.9435541,26.8728673 C14.6872469,30.8362675 13.0752791,35.0702291 12.3102819,39.595356 Z"></path>
                </g>
                <path d="M12.5587508,7.79523796 C12.4727399,7.79048954 12.386729,7.78146755 12.2993195,7.78146755 C11.5235894,7.78146755 10.7949439,7.98446236 10.1604675,8.33869423 C11.29446,4.44665464 14.1204671,4.10714286 14.1204671,4.10714286 C14.1204671,4.10714286 7.87663234,4.6320803 7.87663234,11.9809671 L7.88921931,11.9809671 C7.88385819,12.0678631 7.87663234,12.1547592 7.87663234,12.243792 C7.87663234,13.026331 8.07709144,13.7616233 8.42789486,14.4014724 C4.57115505,13.257104 4.23387097,10.4061548 4.23387097,10.4061548 C4.23387097,10.4061548 4.75506462,16.7070661 12.0391888,16.7070661 L12.0391888,16.6921085 C12.1251998,16.6973318 12.2112107,16.7070661 12.2993195,16.7070661 C13.0743503,16.7070661 13.8029958,16.5035964 14.4365398,16.149602 C13.3034797,20.0409293 10.4777057,20.3811533 10.4777057,20.3811533 C10.4777057,20.3811533 16.7213073,19.855741 16.7213073,12.5066168 L16.7075549,12.5066168 C16.712916,12.4187711 16.7213073,12.3328248 16.7213073,12.243792 C16.7213073,11.4610155 16.5208482,10.726198 16.1688793,10.0868238 C20.0270177,11.2304799 20.3629032,14.0814291 20.3629032,14.0814291 C20.3629032,14.0814291 19.8431081,7.78146755 12.5587508,7.78146755 L12.5587508,7.79523796 Z" id="Fill-1" fill="#FEFEFE"></path>
            </g>
        </g>
    </g>
</svg>