<?xml version="1.0" encoding="UTF-8"?>
<svg width="25px" height="46px" viewBox="0 0 25 46" version="1.1" xmlns="http://www.w3.org/2000/svg" xmlns:xlink="http://www.w3.org/1999/xlink">
    <!-- Generator: Sketch 43.2 (39069) - http://www.bohemiancoding.com/sketch -->
    <title>drought_amber</title>
    <desc>Created with Sketch.</desc>
    <defs>
        <path d="M22.3715012,19.9190952 C24.4461124,16.633381 24.688427,14.6816667 24.688427,12.047619 C24.688427,5.39404762 18.948116,0 12.30936,0 C5.58761962,0 0,5.39404762 0,12.047619 C0,14.6816667 0.208014354,16.633381 2.2826256,19.9190952 C3.20651914,21.3845238 12.30936,30.9404762 12.30936,45.5892857 C12.30936,30.9404762 21.4465012,21.3845238 22.3715012,19.9190952 Z" id="path-1"></path>
    </defs>
    <g id="Maps-Pins" stroke="none" stroke-width="1" fill="none" fill-rule="evenodd">
        <g id="Artboard" transform="translate(-461.000000, -34.000000)">
            <g id="drought_amber" transform="translate(461.000000, 34.000000)">
                <g id="Imported-Layers">
                    <use fill="#F3A500" fill-rule="evenodd" xlink:href="#path-1"></use>
                    <path stroke="#FFFFFF" stroke-width="1" d="M12.3102819,39.595356 C11.5479953,35.0696072 9.941628,30.8351718 7.69318342,26.8716945 C6.69222137,25.1072345 5.63758873,23.5248157 4.48414442,21.9796972 C4.05413496,21.4036698 2.80666839,19.8127722 2.70558366,19.6524373 C0.924293538,16.831277 0.5,15.1578451 0.5,12.047619 C0.5,5.69882412 5.83453892,0.5 12.30936,0.5 C18.7444847,0.5 24.188427,5.74032491 24.188427,12.047619 C24.188427,15.1021552 23.7436316,16.8094235 21.9487232,19.6521518 L21.9486872,19.6522089 C21.8469623,19.8133663 20.5927013,21.408043 20.1645843,21.9796037 C19.0065559,23.5256377 17.9481849,25.1081457 16.9435541,26.8728673 C14.6872469,30.8362675 13.0752791,35.0702291 12.3102819,39.595356 Z"></path>
                </g>
                <path d="M14.7746211,16.002537 L18.3570351,16.002537 L16.6435791,15.5881095 L14.7746211,16.002537 Z M6.56675601,12.924771 L5,13.6722075 L5,16.002537 L6.15012801,16.002537 L7.85404851,14.604486 L6.56675601,12.924771 Z M19.6700001,12.8052105 L19.6700001,11.9367465 L18.1164471,12.3577755 L19.6700001,12.8052105 Z M15.4230351,13.001055 L16.9047051,15.147276 L19.6700001,15.79569 L19.6700001,13.3406655 L17.6785476,12.698853 L15.4230351,13.001055 Z M5,11.2721955 L5,13.1440875 L6.53081451,12.3255015 L6.99291951,11.2721955 L5,11.2721955 Z M9.91224953,13.983945 L7.52544051,15.607914 L7.84377951,16.002537 L13.3332935,16.002537 L13.3156895,15.920385 L9.91224953,13.983945 Z M8.34109252,14.2634085 L9.68706502,13.451424 L11.0917175,11.7152295 L10.6530845,11.2721955 L7.55184651,11.2721955 L6.93570651,12.499341 L8.34109252,14.2634085 Z M9.85723703,8.03672698 L9.55430152,8.16068848 C9.55430152,8.16068848 9.40246702,9.19418998 9.55430152,9.73111199 L9.85723703,8.03672698 Z M13.369235,6.45236697 L15.0643536,8.29858648 C14.7599511,6.98928897 13.686107,6.26018997 13.686107,6.26018997 L13.369235,6.45236697 Z M19.6700001,11.2721955 L19.6700001,11.5215855 L17.3088636,12.2682885 L14.9792676,12.600564 L11.984387,11.604471 L11.2794935,11.2721955 L11.683652,11.2721955 C11.58683,10.380993 11.4584675,9.70763999 11.3953865,8.82377248 L11.3909855,8.82377248 C11.390252,8.79663298 11.3587115,8.20469848 11.35211,7.95310798 C11.305166,7.68684748 11.179004,7.58269048 10.763843,7.29515848 C10.534991,7.14772497 10.3640855,7.09564647 10.269464,7.09784697 C10.1161625,7.09784697 9.98193203,7.26215097 9.94892453,7.76093098 C10.615676,7.87388998 10.661153,8.61179098 10.661153,8.61179098 C10.719833,9.13550998 10.4623745,9.90128399 9.86897303,10.100796 C8.77239052,10.4653455 8.88681652,8.35286548 9.50442352,7.84748398 C9.52129402,7.23794547 9.68779852,6.68121897 10.269464,6.65774697 C10.4990495,6.65921397 10.7323025,6.75383547 11.002964,6.92474097 C11.13206,7.00322547 11.236217,7.08244347 11.3279045,7.16312847 C11.3176355,6.96288297 11.305166,6.75750297 11.305166,6.54625497 C11.303699,6.10468797 11.374115,5.62131147 11.765804,5.27803346 C11.969717,5.09392496 12.1993025,4.99783646 12.4222865,5.00003696 C13.005419,5.02790996 13.3714355,5.53402497 13.58195,6.04894197 C13.8291395,5.94185097 14.1372095,5.88830547 14.4892895,6.01079997 C15.3892941,6.32253747 15.8800056,7.89442798 15.4993191,8.44161898 C14.610317,9.72010949 12.3738755,7.34430298 12.9665435,6.51398097 C12.9665435,6.51398097 13.052363,6.40175547 13.2056645,6.27706047 C13.031825,5.82008997 12.682679,5.41153047 12.4222865,5.43940347 C12.3225305,5.44087047 12.205904,5.47681197 12.057737,5.60737497 C11.8090805,5.82595797 11.7459995,6.13916247 11.7445325,6.54625497 C11.7445325,6.83378697 11.7797405,7.15432647 11.7797405,7.47486598 C11.7797405,7.64283748 11.790743,7.78953748 11.795144,7.95310798 C11.8354865,8.23917298 11.8384205,8.45922298 11.8310855,8.76069148 C11.893433,9.64015799 12.2506475,10.361922 12.3474695,11.2721955 L19.6700001,11.2721955 Z M16.2240171,15.1626795 L13.9817075,15.5881095 L10.320809,13.596657 L11.6521115,11.9367465 L14.6462586,12.932106 L16.2240171,15.1626795 Z" id="drought" fill="#FFFFFF"></path>
            </g>
        </g>
    </g>
</svg>