<?xml version="1.0" encoding="UTF-8"?>
<svg width="29px" height="53px" viewBox="0 0 29 53" version="1.1" xmlns="http://www.w3.org/2000/svg" xmlns:xlink="http://www.w3.org/1999/xlink">
    <!-- Generator: Sketch 43.2 (39069) - http://www.bohemiancoding.com/sketch -->
    <title>drought_blue</title>
    <desc>Created with Sketch.</desc>
    <defs>
        <path d="M25.7417029,22.9198491 C28.1288483,19.1391515 28.4076669,16.8934171 28.4076669,13.8625579 C28.4076669,6.20664523 21.8025947,0 14.1637294,0 C6.42937829,0 0,6.20664523 0,13.8625579 C0,16.8934171 0.239351112,19.1391515 2.62649652,22.9198491 C3.68957194,24.6060402 14.1637294,35.6015691 14.1637294,52.4571792 C14.1637294,35.6015691 24.6773543,24.6060402 25.7417029,22.9198491 Z" id="path-1"></path>
    </defs>
    <g id="Maps-Pins" stroke="none" stroke-width="1" fill="none" fill-rule="evenodd">
        <g id="Artboard" transform="translate(-108.000000, -34.000000)">
            <g id="drought_blue" transform="translate(108.244003, 34.000000)">
                <g id="Imported-Layers">
                    <use fill="#131D50" fill-rule="evenodd" xlink:href="#path-1"></use>
                    <path stroke="#FFFFFF" stroke-width="1" d="M14.164653,46.028696 C13.3219308,40.658452 11.4449851,35.6430679 8.78662355,30.9570036 C7.63655075,28.9296966 6.42474842,27.1114532 5.09930791,25.3359339 C4.60680303,24.6761895 3.16818919,22.8415214 3.04945458,22.6531911 C0.991733502,19.3942268 0.5,17.4548089 0.5,13.8625579 C0.5,6.51529477 6.67232345,0.5 14.1637294,0.5 C21.609258,0.5 27.9076669,6.56283216 27.9076669,13.8625579 C27.9076669,17.3908587 27.3922352,19.3692519 25.3189249,22.6529056 L25.3188889,22.6529627 C25.1993937,22.8422726 23.7528928,24.6813647 23.2626072,25.335924 C21.9318971,27.1124979 20.7157985,28.9308449 19.5615108,30.9584519 C16.893857,35.6444182 15.010374,40.659216 14.164653,46.028696 Z"></path>
                </g>
                <path d="M17.0003748,18.4132728 L21.1224691,18.4132728 L19.1508859,17.9364129 L17.0003748,18.4132728 Z M7.55601873,14.8718502 L5.75323548,15.7318859 L5.75323548,18.4132728 L7.07662693,18.4132728 L9.03723812,16.8046094 L7.55601873,14.8718502 Z M22.6332285,14.7342783 L22.6332285,13.7349827 L20.8456372,14.2194385 L22.6332285,14.7342783 Z M17.7464705,14.9596262 L19.4513498,17.4291692 L22.6332285,18.1752648 L22.6332285,15.350398 L20.3417694,14.6118983 L17.7464705,14.9596262 Z M5.75323548,12.970319 L5.75323548,15.1242061 L7.51466275,14.1823025 L8.04638253,12.970319 L5.75323548,12.970319 Z M11.4055011,16.0905857 L8.65912627,17.9592009 L9.02542212,18.4132728 L15.3419155,18.4132728 L15.3216595,18.3187448 L11.4055011,16.0905857 Z M9.59765388,16.4121496 L11.1463932,15.477842 L12.7626526,13.4800948 L12.2579408,12.970319 L8.68951026,12.970319 L7.98055055,14.3823304 L9.59765388,16.4121496 Z M11.3422012,9.24743656 L10.9936293,9.3900725 C10.9936293,9.3900725 10.8189214,10.579268 10.9936293,11.1970757 L11.3422012,9.24743656 Z M15.3832715,7.42439732 L17.3337547,9.54874443 C16.9834948,8.04220506 15.7478793,7.20326941 15.7478793,7.20326941 L15.3832715,7.42439732 Z M22.6332285,12.970319 L22.6332285,13.2572789 L19.9163936,14.1164705 L17.2358507,14.4988024 L13.7898001,13.3526509 L12.9787165,12.970319 L13.4437603,12.970319 C13.3323523,11.9448594 13.1846524,11.1700678 13.1120684,10.1530482 L13.1070044,10.1530482 C13.1061604,10.1218202 13.0698684,9.44071248 13.0622724,9.1512206 C13.0082565,8.84484873 12.8630885,8.72500078 12.3853847,8.39415291 C12.1220568,8.22450898 11.9254049,8.16458501 11.816529,8.16711701 C11.640133,8.16711701 11.4856811,8.35617293 11.4477011,8.93009269 C12.2148968,9.06006864 12.2672248,9.90913228 12.2672248,9.90913228 C12.3347447,10.511748 12.0385009,11.3928837 11.3557052,11.6224516 C10.0939257,12.0419194 10.2255896,9.61120041 10.9362373,9.02968465 C10.9556493,8.32832094 11.1472372,7.68772521 11.816529,7.66071722 C12.0807009,7.66240522 12.3490927,7.77128117 12.6605286,7.96793309 C12.8090725,8.05824105 12.9289205,8.14939302 13.0344205,8.24223298 C13.0226045,8.01182107 13.0082565,7.77550117 13.0082565,7.53242927 C13.0065685,7.02434148 13.0875924,6.46814571 13.5382882,6.07315388 C13.7729201,5.86130997 14.037092,5.75074601 14.2936679,5.75327801 C14.9646477,5.78535 15.3858035,6.36770976 15.6280314,6.96019751 C15.9124593,6.83697356 16.2669391,6.77536159 16.6720589,6.91630953 C17.7076465,7.27500938 18.2722823,9.08370063 17.8342465,9.71332437 C16.8113189,11.1844158 14.237964,8.45070089 14.9199157,7.49529329 C14.9199157,7.49529329 15.0186636,7.36616134 15.1950596,7.2226814 C14.9950316,6.69686962 14.5932878,6.22676181 14.2936679,6.2588338 C14.178884,6.2605218 14.044688,6.30187778 13.8742001,6.45210972 C13.5880842,6.70362162 13.5155003,7.06400947 13.5138123,7.53242927 C13.5138123,7.86327713 13.5543242,8.23210498 13.5543242,8.60093283 C13.5543242,8.79420875 13.5669842,8.96300868 13.5720482,9.1512206 C13.6184682,9.48038046 13.6218442,9.73358036 13.6134042,10.0804642 C13.6851442,11.0924198 14.096172,11.9229154 14.20758,12.970319 L22.6332285,12.970319 Z M18.6681181,17.4468932 L16.0880112,17.9364129 L11.8756089,15.6449539 L13.4074683,13.7349827 L16.8526749,14.8802902 L18.6681181,17.4468932 Z" id="drought" fill="#FFFFFF"></path>
            </g>
        </g>
    </g>
</svg>