<?xml version="1.0" encoding="UTF-8"?>
<svg width="25px" height="46px" viewBox="0 0 25 46" version="1.1" xmlns="http://www.w3.org/2000/svg" xmlns:xlink="http://www.w3.org/1999/xlink">
    <!-- Generator: Sketch 43.2 (39069) - http://www.bohemiancoding.com/sketch -->
    <title>earthquake_red</title>
    <desc>Created with Sketch.</desc>
    <defs>
        <path d="M22.3715012,19.9190952 C24.4461124,16.633381 24.688427,14.6816667 24.688427,12.047619 C24.688427,5.39404762 18.948116,0 12.30936,0 C5.58761962,0 0,5.39404762 0,12.047619 C0,14.6816667 0.208014354,16.633381 2.2826256,19.9190952 C3.20651914,21.3845238 12.30936,30.9404762 12.30936,45.5892857 C12.30936,30.9404762 21.4465012,21.3845238 22.3715012,19.9190952 Z" id="path-1"></path>
    </defs>
    <g id="Maps-Pins" stroke="none" stroke-width="1" fill="none" fill-rule="evenodd">
        <g id="Artboard" transform="translate(-132.000000, -34.000000)">
            <g id="earthquake_red" transform="translate(132.000000, 34.000000)">
                <g id="Imported-Layers">
                    <use fill="#CE2912" fill-rule="evenodd" xlink:href="#path-1"></use>
                    <path stroke="#FFFFFF" stroke-width="1" d="M12.3102819,39.595356 C11.5479953,35.0696072 9.941628,30.8351718 7.69318342,26.8716945 C6.69222137,25.1072345 5.63758873,23.5248157 4.48414442,21.9796972 C4.05413496,21.4036698 2.80666839,19.8127722 2.70558366,19.6524373 C0.924293538,16.831277 0.5,15.1578451 0.5,12.047619 C0.5,5.69882412 5.83453892,0.5 12.30936,0.5 C18.7444847,0.5 24.188427,5.74032491 24.188427,12.047619 C24.188427,15.1021552 23.7436316,16.8094235 21.9487232,19.6521518 L21.9486872,19.6522089 C21.8469623,19.8133663 20.5927013,21.408043 20.1645843,21.9796037 C19.0065559,23.5256377 17.9481849,25.1081457 16.9435541,26.8728673 C14.6872469,30.8362675 13.0752791,35.0702291 12.3102819,39.595356 Z"></path>
                </g>
                <path d="M17.2475,12.4411717 C17.03975,12.4411717 16.8485,12.5559217 16.751,12.7396717 L15.941,14.2651717 L14.9435,11.3431717 C14.867,11.1226717 14.66375,10.9711717 14.4305,10.9629217 C14.1905,10.9561717 13.98275,11.0919217 13.892,11.3071717 L13.208,12.9324217 L12.128,6.46292175 C12.07775,6.19142175 11.8235,5.98442175 11.5625,6.00092175 C11.28575,6.00692175 11.05475,6.18917175 11.01725,6.46292175 L10.064,13.9711717 L9.29075,9.94142175 C9.245,9.70292175 9.05075,9.52067175 8.81,9.48917175 C8.57375,9.45767175 8.33525,9.58442175 8.231,9.80417175 L6.96575,12.4411717 L5,12.4411717 L5,13.5661717 L7.31975,13.5661717 C7.53575,13.5661717 7.733,13.4416717 7.82675,13.2466717 L8.507,11.8291717 L9.60425,17.5434217 C9.65525,17.8089217 9.887,18.0001717 10.15625,18.0001717 C10.16075,18.0001717 10.16675,18.0001717 10.1705,17.9994217 C10.4465,17.9919217 10.676,17.7864217 10.7135,17.5141717 L11.6525,10.1364217 L12.44,14.9941717 C12.4835,15.2386717 12.6845,15.4254217 12.93125,15.4524217 C13.181,15.4764217 13.41425,15.3406717 13.51175,15.1119217 L14.35625,13.1049217 L15.296,15.8589217 C15.3695,16.0711717 15.5615,16.2204217 15.78425,16.2376717 C16.0085,16.2504217 16.22075,16.1386717 16.32575,15.9406717 L17.58575,13.5661717 L20,13.5661717 L20,12.4411717 L17.2475,12.4411717 Z" id="earthquake" fill="#FFFFFF"></path>
            </g>
        </g>
    </g>
</svg>