<?xml version="1.0" encoding="UTF-8"?>
<svg width="29px" height="53px" viewBox="0 0 29 53" version="1.1" xmlns="http://www.w3.org/2000/svg" xmlns:xlink="http://www.w3.org/1999/xlink">
    <!-- Generator: Sketch 43.2 (39069) - http://www.bohemiancoding.com/sketch -->
    <title>earthquake_blue</title>
    <desc>Created with Sketch.</desc>
    <defs>
        <path d="M25.7417029,22.9198491 C28.1288483,19.1391515 28.4076669,16.8934171 28.4076669,13.8625579 C28.4076669,6.20664523 21.8025947,0 14.1637294,0 C6.42937829,0 0,6.20664523 0,13.8625579 C0,16.8934171 0.239351112,19.1391515 2.62649652,22.9198491 C3.68957194,24.6060402 14.1637294,35.6015691 14.1637294,52.4571792 C14.1637294,35.6015691 24.6773543,24.6060402 25.7417029,22.9198491 Z" id="path-1"></path>
    </defs>
    <g id="Maps-Pins" stroke="none" stroke-width="1" fill="none" fill-rule="evenodd">
        <g id="Artboard" transform="translate(-147.000000, -34.000000)">
            <g id="earthquake_blue" transform="translate(147.366004, 34.000000)">
                <g id="Imported-Layers">
                    <use fill="#131D50" fill-rule="evenodd" xlink:href="#path-1"></use>
                    <path stroke="#FFFFFF" stroke-width="1" d="M14.164653,46.028696 C13.3219308,40.658452 11.4449851,35.6430679 8.78662355,30.9570036 C7.63655075,28.9296966 6.42474842,27.1114532 5.09930791,25.3359339 C4.60680303,24.6761895 3.16818919,22.8415214 3.04945458,22.6531911 C0.991733502,19.3942268 0.5,17.4548089 0.5,13.8625579 C0.5,6.51529477 6.67232345,0.5 14.1637294,0.5 C21.609258,0.5 27.9076669,6.56283216 27.9076669,13.8625579 C27.9076669,17.3908587 27.3922352,19.3692519 25.3189249,22.6529056 L25.3188889,22.6529627 C25.1993937,22.8422726 23.7528928,24.6813647 23.2626072,25.335924 C21.9318971,27.1124979 20.7157985,28.9308449 19.5615108,30.9584519 C16.893857,35.6444182 15.010374,40.659216 14.164653,46.028696 Z"></path>
                </g>
                <path d="M19.8457858,14.3153981 C19.6067389,14.3153981 19.3866776,14.4474349 19.2744895,14.6588663 L18.3424654,16.4141784 L17.1946949,13.0519876 C17.1066704,12.7982699 16.8728014,12.6239469 16.6044129,12.6144541 C16.3282576,12.6066872 16.0892107,12.7628875 15.9847895,13.0105643 L15.1977468,14.8806535 L13.955048,7.43654214 C13.897228,7.12414146 13.6046759,6.88595751 13.304357,6.90494318 C12.9859155,6.91184707 12.720116,7.1215525 12.6769667,7.43654214 L11.5801124,16.0758882 L10.6903745,11.4390681 C10.6377324,11.1646387 10.4142192,10.9549333 10.1372009,10.9186879 C9.86536054,10.8824425 9.59093121,11.0282871 9.47097625,11.2811418 L8.01512001,14.3153981 L5.75323548,14.3153981 L5.75323548,15.6098761 L8.42244908,15.6098761 C8.67098885,15.6098761 8.89795399,15.4666206 9.00582716,15.2422444 L9.78855485,13.6112021 L11.0511024,20.1862873 C11.1097854,20.4917841 11.3764478,20.7118454 11.6862596,20.7118454 C11.6914375,20.7118454 11.6983414,20.7118454 11.7026563,20.7109824 C12.0202349,20.7023525 12.2843084,20.4658945 12.3274577,20.1526309 L13.4079153,11.6634442 L14.3140499,17.2530002 C14.364103,17.5343334 14.5953831,17.7492167 14.8793053,17.7802842 C15.1666794,17.8078997 15.4350678,17.6516994 15.5472559,17.3884889 L16.5189774,15.0791402 L17.600298,18.2480223 C17.6848705,18.4922471 17.9057948,18.6639812 18.1621014,18.6838298 C18.420134,18.6985006 18.6643589,18.5699158 18.7851768,18.3420877 L20.2349922,15.6098761 L23.0129419,15.6098761 L23.0129419,14.3153981 L19.8457858,14.3153981 Z" id="earthquake" fill="#FFFFFF"></path>
            </g>
        </g>
    </g>
</svg>