<?xml version="1.0" encoding="UTF-8"?>
<svg width="25px" height="46px" viewBox="0 0 25 46" version="1.1" xmlns="http://www.w3.org/2000/svg" xmlns:xlink="http://www.w3.org/1999/xlink">
    <!-- Generator: Sketch 43.2 (39069) - http://www.bohemiancoding.com/sketch -->
    <title>epidemic_amber</title>
    <desc>Created with Sketch.</desc>
    <defs>
        <path d="M22.3715012,19.9190952 C24.4461124,16.633381 24.688427,14.6816667 24.688427,12.047619 C24.688427,5.39404762 18.948116,0 12.30936,0 C5.58761962,0 0,5.39404762 0,12.047619 C0,14.6816667 0.208014354,16.633381 2.2826256,19.9190952 C3.20651914,21.3845238 12.30936,30.9404762 12.30936,45.5892857 C12.30936,30.9404762 21.4465012,21.3845238 22.3715012,19.9190952 Z" id="path-1"></path>
    </defs>
    <g id="Maps-Pins" stroke="none" stroke-width="1" fill="none" fill-rule="evenodd">
        <g id="Artboard" transform="translate(-529.000000, -34.000000)">
            <g id="epidemic_amber" transform="translate(529.000000, 34.000000)">
                <g id="Imported-Layers">
                    <use fill="#F3A500" fill-rule="evenodd" xlink:href="#path-1"></use>
                    <path stroke="#FFFFFF" stroke-width="1" d="M12.3102819,39.595356 C11.5479953,35.0696072 9.941628,30.8351718 7.69318342,26.8716945 C6.69222137,25.1072345 5.63758873,23.5248157 4.48414442,21.9796972 C4.05413496,21.4036698 2.80666839,19.8127722 2.70558366,19.6524373 C0.924293538,16.831277 0.5,15.1578451 0.5,12.047619 C0.5,5.69882412 5.83453892,0.5 12.30936,0.5 C18.7444847,0.5 24.188427,5.74032491 24.188427,12.047619 C24.188427,15.1021552 23.7436316,16.8094235 21.9487232,19.6521518 L21.9486872,19.6522089 C21.8469623,19.8133663 20.5927013,21.408043 20.1645843,21.9796037 C19.0065559,23.5256377 17.9481849,25.1081457 16.9435541,26.8728673 C14.6872469,30.8362675 13.0752791,35.0702291 12.3102819,39.595356 Z"></path>
                </g>
                <path d="M13.0204333,15.0320667 C12.9904667,14.4279 13.1161333,13.7957 13.4158,13.1944333 L12.9382667,12.917 C12.7633,13.0958333 12.5206667,13.2079667 12.25,13.2079667 C11.9812667,13.2079667 11.7376667,13.0958333 11.5617333,12.917 L11.0919333,13.1896 C11.3935333,13.7937667 11.5201667,14.4298333 11.4882667,15.0349667 C10.2615667,14.6985667 9.35,13.5830333 9.35,12.25 C9.35,11.9957667 9.39253333,11.7541 9.45536667,11.5192 C9.9909,11.7918 10.4761667,12.2123 10.8483333,12.7710333 L11.3336,12.4907 C11.3123333,12.4075667 11.2833333,12.3292667 11.2833333,12.2393667 C11.2833333,11.7908333 11.5936333,11.4302667 12.0083333,11.3210333 L12.0083333,10.7671333 C11.3355333,10.7246 10.7255667,10.5158 10.2190333,10.1852 C10.7429667,9.67093333 11.4583,9.35096667 12.2490333,9.35096667 C13.0407333,9.35096667 13.7570333,9.67093333 14.2809667,10.1861667 C13.7744333,10.5148333 13.1644667,10.7255667 12.4916667,10.7671333 L12.4916667,11.3210333 C12.9063667,11.4302667 13.2166667,11.7908333 13.2166667,12.2393667 C13.2166667,12.3292667 13.1896,12.4075667 13.1664,12.4907 L13.6594,12.7758667 C14.0296333,12.2181 14.5129667,11.7966333 15.0456,11.5240333 C15.1065,11.757 15.1490333,11.9977 15.1490333,12.25 C15.1490333,13.5791667 14.2442333,14.6918 13.0204333,15.0320667 M19.5,12.2393667 C19.5,8.3582 16.4559667,5.1972 12.627,5 C14.3186667,5.1595 15.6333333,6.39006667 15.6333333,7.88356667 C15.6333333,8.39686667 15.4641667,8.87053333 15.1925333,9.2891 C14.4366,8.538 13.3974333,8.07206667 12.2490333,8.07206667 C11.1035333,8.07206667 10.0634,8.538 9.30843333,9.28813333 C9.03583333,8.86956667 8.86666667,8.39686667 8.86666667,7.88356667 C8.86666667,6.39006667 10.1813333,5.1595 11.873,5 C8.045,5.1972 5,8.3582 5,12.2393667 C5,13.4119333 5.2842,14.5149 5.77623333,15.4941333 C5.10343333,13.961 5.51233333,12.2364667 6.79026667,11.4989 C7.23493333,11.2417667 7.73083333,11.1499333 8.22963333,11.1789333 C8.13683333,11.5230667 8.07303333,11.8768667 8.07303333,12.25 C8.07303333,14.1775333 9.39253333,15.7889667 11.1712,16.2674667 C11.1441333,16.3080667 11.1141667,16.3477 11.0909667,16.3902333 C11.0890333,16.3941 11.0890333,16.397 11.0880667,16.4008667 C11.0310333,16.5323333 10.9537,16.6377 10.8686333,16.7305 C10.6762667,16.9789333 10.4558667,17.2032 10.1736,17.3665667 C8.88986667,18.1089667 7.1837,17.5937333 6.19383333,16.2268667 C7.4911,18.1979 9.71733333,19.5 12.25,19.5 C14.7594667,19.5 16.9692667,18.2230333 18.2713667,16.2848667 C17.2766667,17.6072667 15.6024,18.0973667 14.3351,17.3675333 C13.8875333,17.1075 13.5627333,16.716 13.3375,16.2645667 C15.1113333,15.7822 16.4269667,14.1746333 16.4269667,12.25 C16.4269667,11.8768667 16.3631667,11.5230667 16.2703667,11.1789333 C16.7730333,11.1489667 17.2708667,11.2398333 17.7184333,11.4989 C18.9596333,12.2152 19.3801333,13.8604667 18.7895,15.3588 C19.2409333,14.4124333 19.5,13.3578 19.5,12.2393667" id="epidemic" fill="#FFFFFF"></path>
            </g>
        </g>
    </g>
</svg>