<?xml version="1.0" encoding="UTF-8"?>
<svg width="29px" height="53px" viewBox="0 0 29 53" version="1.1" xmlns="http://www.w3.org/2000/svg" xmlns:xlink="http://www.w3.org/1999/xlink">
    <!-- Generator: Sketch 43.2 (39069) - http://www.bohemiancoding.com/sketch -->
    <title>epidemic_blue</title>
    <desc>Created with Sketch.</desc>
    <defs>
        <path d="M25.7417029,22.9198491 C28.1288483,19.1391515 28.4076669,16.8934171 28.4076669,13.8625579 C28.4076669,6.20664523 21.8025947,0 14.1637294,0 C6.42937829,0 0,6.20664523 0,13.8625579 C0,16.8934171 0.239351112,19.1391515 2.62649652,22.9198491 C3.68957194,24.6060402 14.1637294,35.6015691 14.1637294,52.4571792 C14.1637294,35.6015691 24.6773543,24.6060402 25.7417029,22.9198491 Z" id="path-1"></path>
    </defs>
    <g id="Maps-Pins" stroke="none" stroke-width="1" fill="none" fill-rule="evenodd">
        <g id="Artboard" transform="translate(-186.000000, -34.000000)">
            <g id="epidemic_blue" transform="translate(186.488005, 34.000000)">
                <g id="Imported-Layers">
                    <use fill="#131D50" fill-rule="evenodd" xlink:href="#path-1"></use>
                    <path stroke="#FFFFFF" stroke-width="1" d="M14.164653,46.028696 C13.3219308,40.658452 11.4449851,35.6430679 8.78662355,30.9570036 C7.63655075,28.9296966 6.42474842,27.1114532 5.09930791,25.3359339 C4.60680303,24.6761895 3.16818919,22.8415214 3.04945458,22.6531911 C0.991733502,19.3942268 0.5,17.4548089 0.5,13.8625579 C0.5,6.51529477 6.67232345,0.5 14.1637294,0.5 C21.609258,0.5 27.9076669,6.56283216 27.9076669,13.8625579 C27.9076669,17.3908587 27.3922352,19.3692519 25.3189249,22.6529056 L25.3188889,22.6529627 C25.1993937,22.8422726 23.7528928,24.6813647 23.2626072,25.335924 C21.9318971,27.1124979 20.7157985,28.9308449 19.5615108,30.9584519 C16.893857,35.6444182 15.010374,40.659216 14.164653,46.028696 Z"></path>
                </g>
                <path d="M14.9819238,17.2966039 C14.9474427,16.6014212 15.0920407,15.8739821 15.4368513,15.1821364 L14.887379,14.8629085 C14.6860541,15.0686826 14.4068687,15.1977085 14.0954269,15.1977085 C13.7862097,15.1977085 13.5059121,15.0686826 13.3034749,14.8629085 L12.7629009,15.1765749 C13.109936,15.8717576 13.2556463,16.6036458 13.2189407,17.2999407 C11.8074419,16.912863 10.7585503,15.6292779 10.7585503,14.0954269 C10.7585503,13.8028941 10.8074912,13.524821 10.8797902,13.254534 C11.4960001,13.5682004 12.0543708,14.0520475 12.4826032,14.6949524 L13.0409739,14.3723877 C13.0165035,14.2767306 12.9831347,14.1866349 12.9831347,14.0831917 C12.9831347,13.5670881 13.3401805,13.1522031 13.8173539,13.0265141 L13.8173539,12.3891707 C13.0431985,12.3402298 12.3413421,12.0999747 11.758501,11.7195708 C12.3613634,11.1278314 13.1844596,10.7596626 14.0943146,10.7596626 C15.0052819,10.7596626 15.8294905,11.1278314 16.4323528,11.7206831 C15.8495117,12.0988624 15.1476553,12.3413421 14.3735,12.3891707 L14.3735,13.0265141 C14.8506733,13.1522031 15.2077191,13.5670881 15.2077191,14.0831917 C15.2077191,14.1866349 15.1765749,14.2767306 15.1498799,14.3723877 L15.7171489,14.7005139 C16.1431569,14.0587213 16.6993029,13.5737619 17.3121759,13.2600955 C17.3822504,13.5281579 17.4311912,13.8051187 17.4311912,14.0954269 C17.4311912,15.6248287 16.3900857,16.905077 14.9819238,17.2966039 M22.4376184,14.0831917 C22.4376184,9.61733856 18.9350103,5.98014309 14.5292209,5.75323548 C16.4757322,5.93676369 17.9884496,7.35271165 17.9884496,9.07120309 C17.9884496,9.66183025 17.7937985,10.2068534 17.4812444,10.6884759 C16.6114319,9.82422491 15.4157178,9.28810007 14.0943146,9.28810007 C12.7762484,9.28810007 11.579422,9.82422491 10.7107218,10.6873636 C10.3970554,10.2057411 10.2024043,9.66183025 10.2024043,9.07120309 C10.2024043,7.35271165 11.7151216,5.93676369 13.661633,5.75323548 C9.25695589,5.98014309 5.75323548,9.61733856 5.75323548,14.0831917 C5.75323548,15.4324021 6.08024938,16.7015275 6.64640611,17.8282795 C5.87225074,16.0641841 6.34275034,14.0798548 7.81320062,13.2311759 C8.32485503,12.9353062 8.89546092,12.8296384 9.4694037,12.8630072 C9.36262365,13.2589832 9.28921236,13.6660821 9.28921236,14.0954269 C9.28921236,16.3133376 10.8074912,18.1675286 12.8541088,18.7181133 C12.8229647,18.7648296 12.7884836,18.8104335 12.7617886,18.8593744 C12.759564,18.8638236 12.759564,18.8671604 12.7584517,18.8716096 C12.6928265,19.0228813 12.6038431,19.1441212 12.5059614,19.2509012 C12.2846152,19.5367603 12.0310126,19.7948121 11.7062233,19.9827895 C10.2290993,20.8370299 8.26590354,20.2441782 7.12691634,18.671397 C8.61961246,20.9393608 11.1812214,22.4376184 14.0954269,22.4376184 C16.9829375,22.4376184 19.5256374,20.9682804 21.023895,18.7381345 C19.8793463,20.2597503 17.9528562,20.8236824 16.4946412,19.9839018 C15.9796499,19.6846952 15.6059197,19.2342169 15.3467556,18.7147764 C17.3878118,18.1597426 18.9016415,16.3100007 18.9016415,14.0954269 C18.9016415,13.6660821 18.8282302,13.2589832 18.7214502,12.8630072 C19.2998421,12.8285261 19.8726726,12.9330816 20.3876639,13.2311759 C21.815847,14.0553844 22.2996941,15.9485057 21.6200836,17.6725586 C22.1395241,16.5836246 22.4376184,15.3701138 22.4376184,14.0831917" id="epidemic" fill="#FFFFFF"></path>
            </g>
        </g>
    </g>
</svg>