<?xml version="1.0" encoding="UTF-8"?>
<svg width="29px" height="53px" viewBox="0 0 29 53" version="1.1" xmlns="http://www.w3.org/2000/svg" xmlns:xlink="http://www.w3.org/1999/xlink">
    <!-- Generator: Sketch 43.2 (39069) - http://www.bohemiancoding.com/sketch -->
    <title>fire_blue</title>
    <desc>Created with Sketch.</desc>
    <defs>
        <path d="M25.7417029,22.9198491 C28.1288483,19.1391515 28.4076669,16.8934171 28.4076669,13.8625579 C28.4076669,6.20664523 21.8025947,0 14.1637294,0 C6.42937829,0 0,6.20664523 0,13.8625579 C0,16.8934171 0.239351112,19.1391515 2.62649652,22.9198491 C3.68957194,24.6060402 14.1637294,35.6015691 14.1637294,52.4571792 C14.1637294,35.6015691 24.6773543,24.6060402 25.7417029,22.9198491 Z" id="path-1"></path>
    </defs>
    <g id="Maps-Pins" stroke="none" stroke-width="1" fill="none" fill-rule="evenodd">
        <g id="Artboard" transform="translate(-225.000000, -34.000000)">
            <g id="fire_blue" transform="translate(225.610006, 34.000000)">
                <g id="Imported-Layers">
                    <use fill="#131D50" fill-rule="evenodd" xlink:href="#path-1"></use>
                    <path stroke="#FFFFFF" stroke-width="1" d="M14.164653,46.028696 C13.3219308,40.658452 11.4449851,35.6430679 8.78662355,30.9570036 C7.63655075,28.9296966 6.42474842,27.1114532 5.09930791,25.3359339 C4.60680303,24.6761895 3.16818919,22.8415214 3.04945458,22.6531911 C0.991733502,19.3942268 0.5,17.4548089 0.5,13.8625579 C0.5,6.51529477 6.67232345,0.5 14.1637294,0.5 C21.609258,0.5 27.9076669,6.56283216 27.9076669,13.8625579 C27.9076669,17.3908587 27.3922352,19.3692519 25.3189249,22.6529056 L25.3188889,22.6529627 C25.1993937,22.8422726 23.7528928,24.6813647 23.2626072,25.335924 C21.9318971,27.1124979 20.7157985,28.9308449 19.5615108,30.9584519 C16.893857,35.6444182 15.010374,40.659216 14.164653,46.028696 Z"></path>
                </g>
                <path d="M15.6818154,7.27284218 C15.3550803,6.92194713 15.1468442,6.50087307 15.1468442,6.20405038 C15.1468442,5.64837068 15.6012821,5.11455001 16.215636,4.60258838 C16.2777617,5.04782243 15.9487257,5.71509826 16.215636,6.20405038 C16.4227216,6.56645018 16.7506072,6.97601948 16.7506072,7.27284218 C16.7506072,7.66975625 16.6021958,8.03215606 16.215636,8.34048351 C16.1569618,8.19207216 16.0545695,7.70427052 15.6818154,7.27284218 M14.0792029,20.08914 C11.2812463,20.1938333 11.5677147,18.0942154 11.9439202,17.4188862 C12.4202171,16.559481 13.627066,16.3892106 13.0115616,15.2824531 C13.0196149,15.2997102 14.3208028,15.4952911 15.1468442,16.3512449 C16.4135178,17.6581851 16.2697084,20.0074563 14.0792029,20.08914 M17.8159476,14.2148118 C17.8159476,13.9525033 18.9434136,10.4642614 16.7506072,9.40927531 C14.2230124,8.19322264 13.5246737,7.22452221 13.5465327,5.67022971 C13.5442318,5.73350587 12.0175507,8.19322264 13.0115616,9.40927531 C14.5554998,11.2903029 13.9031801,12.7468049 13.0115616,12.6133498 C11.5136424,12.389007 11.6942671,10.4354995 11.9439202,9.94309598 C11.1604464,9.86026174 10.2550221,10.3469129 9.80748712,11.0107373 C8.46028022,13.0125648 11.3801872,14.9269561 10.3413078,16.3512449 C9.55208154,17.4349929 8.20142322,15.3008607 8.20602512,15.2824531 C6.60226218,23.6521629 18.2462254,23.8650008 18.8858898,16.8850656 C19.0768688,14.7923505 20.9613478,13.6533797 21.022323,13.6809911 C19.0147431,12.7560087 17.8159476,14.2815394 17.8159476,14.2148118" id="fire" fill="#FFFFFF"></path>
            </g>
        </g>
    </g>
</svg>