<?xml version="1.0" encoding="UTF-8"?>
<svg width="25px" height="46px" viewBox="0 0 25 46" version="1.1" xmlns="http://www.w3.org/2000/svg" xmlns:xlink="http://www.w3.org/1999/xlink">
    <!-- Generator: Sketch 43.2 (39069) - http://www.bohemiancoding.com/sketch -->
    <title>fire_red</title>
    <desc>Created with Sketch.</desc>
    <defs>
        <path d="M22.3715012,19.9190952 C24.4461124,16.633381 24.688427,14.6816667 24.688427,12.047619 C24.688427,5.39404762 18.948116,0 12.30936,0 C5.58761962,0 0,5.39404762 0,12.047619 C0,14.6816667 0.208014354,16.633381 2.2826256,19.9190952 C3.20651914,21.3845238 12.30936,30.9404762 12.30936,45.5892857 C12.30936,30.9404762 21.4465012,21.3845238 22.3715012,19.9190952 Z" id="path-1"></path>
    </defs>
    <g id="Maps-Pins" stroke="none" stroke-width="1" fill="none" fill-rule="evenodd">
        <g id="Artboard" transform="translate(-200.000000, -34.000000)">
            <g id="fire_red" transform="translate(200.000000, 34.000000)">
                <g id="Imported-Layers">
                    <use fill="#CE2912" fill-rule="evenodd" xlink:href="#path-1"></use>
                    <path stroke="#FFFFFF" stroke-width="1" d="M12.3102819,39.595356 C11.5479953,35.0696072 9.941628,30.8351718 7.69318342,26.8716945 C6.69222137,25.1072345 5.63758873,23.5248157 4.48414442,21.9796972 C4.05413496,21.4036698 2.80666839,19.8127722 2.70558366,19.6524373 C0.924293538,16.831277 0.5,15.1578451 0.5,12.047619 C0.5,5.69882412 5.83453892,0.5 12.30936,0.5 C18.7444847,0.5 24.188427,5.74032491 24.188427,12.047619 C24.188427,15.1021552 23.7436316,16.8094235 21.9487232,19.6521518 L21.9486872,19.6522089 C21.8469623,19.8133663 20.5927013,21.408043 20.1645843,21.9796037 C19.0065559,23.5256377 17.9481849,25.1081457 16.9435541,26.8728673 C14.6872469,30.8362675 13.0752791,35.0702291 12.3102819,39.595356 Z"></path>
                </g>
                <path d="M13.6286924,6.32065401 C13.3447348,6.01569948 13.1637618,5.64975404 13.1637618,5.3917925 C13.1637618,4.9088645 13.5587029,4.44493366 14.0926233,4 C14.1466152,4.38694231 13.8606579,4.96685585 14.0926233,5.3917925 C14.2725964,5.70674554 14.557554,6.06269247 14.557554,6.32065401 C14.557554,6.66560258 14.4285732,6.98055562 14.0926233,7.24851567 C14.0416309,7.1195349 13.9526441,6.69559811 13.6286924,6.32065401 M12.2359001,17.4589934 C9.80426263,17.5499798 10.0532255,15.7252519 10.3801768,15.1383394 C10.794115,14.3914507 11.8429587,14.2434728 11.3080384,13.2816162 C11.3150374,13.296614 12.4458688,13.4665886 13.1637618,14.2104777 C14.2645976,15.3463084 14.1396163,17.388004 12.2359001,17.4589934 M15.4834159,12.3537545 C15.4834159,12.1257885 16.4632698,9.09424049 14.557554,8.17737719 C12.3608815,7.12053475 11.7539719,6.27866027 11.7729691,4.92786166 C11.7709694,4.98285346 10.4441672,7.12053475 11.3080384,8.17737719 C12.6498384,9.81213346 12.0829229,11.0779447 11.3080384,10.961962 C10.0062325,10.7669911 10.1632091,9.06924422 10.3801768,8.64130802 C9.69927828,8.56931875 8.9123956,8.9922557 8.52345359,9.56916968 C7.35262815,11.3089103 9.89024981,12.9726623 8.98738442,14.2104777 C8.30148668,15.1523373 7.12766169,13.2976138 7.13166109,13.2816162 C5.73786889,20.5555317 15.8573602,20.7405041 16.4132773,14.6744085 C16.5792525,12.8556797 18.2170084,11.8658273 18.2700005,11.8898237 C16.5252606,11.0859435 15.4834159,12.4117459 15.4834159,12.3537545" id="fire" fill="#FFFFFF"></path>
            </g>
        </g>
    </g>
</svg>