<?xml version="1.0" encoding="UTF-8"?>
<svg width="30px" height="53px" viewBox="0 0 30 53" version="1.1" xmlns="http://www.w3.org/2000/svg" xmlns:xlink="http://www.w3.org/1999/xlink">
    <!-- Generator: Sketch 43.2 (39069) - http://www.bohemiancoding.com/sketch -->
    <title>flash_flood_blue</title>
    <desc>Created with Sketch.</desc>
    <defs>
        <path d="M25.7417029,22.9198491 C28.1288483,19.1391515 28.4076669,16.8934171 28.4076669,13.8625579 C28.4076669,6.20664523 21.8025947,0 14.1637294,0 C6.42937829,0 0,6.20664523 0,13.8625579 C0,16.8934171 0.239351112,19.1391515 2.62649652,22.9198491 C3.68957194,24.6060402 14.1637294,35.6015691 14.1637294,52.4571792 C14.1637294,35.6015691 24.6773543,24.6060402 25.7417029,22.9198491 Z" id="path-1"></path>
    </defs>
    <g id="Maps-Pins" stroke="none" stroke-width="1" fill="none" fill-rule="evenodd">
        <g id="Artboard" transform="translate(-264.000000, -34.000000)">
            <g id="flash_flood_blue" transform="translate(264.732008, 34.000000)">
                <g id="Imported-Layers">
                    <use fill="#131D50" fill-rule="evenodd" xlink:href="#path-1"></use>
                    <path stroke="#FFFFFF" stroke-width="1" d="M14.164653,46.028696 C13.3219308,40.658452 11.4449851,35.6430679 8.78662355,30.9570036 C7.63655075,28.9296966 6.42474842,27.1114532 5.09930791,25.3359339 C4.60680303,24.6761895 3.16818919,22.8415214 3.04945458,22.6531911 C0.991733502,19.3942268 0.5,17.4548089 0.5,13.8625579 C0.5,6.51529477 6.67232345,0.5 14.1637294,0.5 C21.609258,0.5 27.9076669,6.56283216 27.9076669,13.8625579 C27.9076669,17.3908587 27.3922352,19.3692519 25.3189249,22.6529056 L25.3188889,22.6529627 C25.1993937,22.8422726 23.7528928,24.6813647 23.2626072,25.335924 C21.9318971,27.1124979 20.7157985,28.9308449 19.5615108,30.9584519 C16.893857,35.6444182 15.010374,40.659216 14.164653,46.028696 Z"></path>
                </g>
                <path d="M6.77213348,9.19720971 L9.48248272,9.19720971 L9.48248272,9.99715169 L12.1767229,8.45011676 L9.48248272,6.90388258 L9.48248272,7.70462529 L6.77213348,7.70462529 L6.77213348,9.19720971 Z M19.4459359,14.6470646 L19.4459359,10.2429797 L19.8486624,10.6433511 L20.2513889,10.2429797 L16.4254873,7.03920809 L12.5995857,10.2429797 L13.0023122,10.6433511 L13.4050387,10.2429797 L13.4050387,14.6470646 L13.0023122,14.6470646 C12.7469836,14.5854074 12.3466735,14.3019445 12.1968592,13.8463219 C12.072014,13.4643676 11.9044798,12.7052636 12.5995857,12.6452078 C12.5995857,12.6452078 11.7248638,11.6266631 10.9878743,13.0447785 C10.42889,14.1257811 10.0390507,14.5950164 9.78130577,14.6470646 L9.37777383,14.6470646 C9.12325069,14.5854074 8.72213512,14.3019445 8.57312632,13.8463219 C8.44828111,13.4643676 8.27913598,12.7052636 8.97504735,12.6452078 C8.97504735,12.6452078 8.09951997,11.6266631 7.36414141,13.0447785 C6.80354615,14.1257811 6.01017498,14.5950164 5.75323548,14.6470646 L5.75323548,17.0492928 C6.01017498,16.9972445 6.80354615,16.5280093 7.36414141,15.4478074 C8.09951997,14.0288913 8.97504735,15.047436 8.97504735,15.047436 C8.27913598,15.1074917 8.44828111,15.8665958 8.57312632,16.2485501 C8.72213512,16.7041727 9.12325069,16.9876356 9.37777383,17.0492928 L9.78130577,17.0492928 C10.0390507,16.9972445 10.42889,16.5280093 10.9878743,15.4478074 C11.7248638,14.0288913 12.5995857,15.047436 12.5995857,15.047436 C11.9044798,15.1074917 12.072014,15.8665958 12.1968592,16.2485501 C12.3466735,16.7041727 12.7469836,16.9876356 13.0023122,17.0492928 L13.4050387,17.0492928 C13.6635891,16.9972445 14.0534283,16.5280093 14.6132181,15.4478074 C15.3494021,14.0288913 16.2241241,15.047436 16.2241241,15.047436 C15.5298236,15.1074917 15.6957469,15.8665958 15.8213976,16.2485501 C15.9720173,16.7041727 16.3715219,16.9876356 16.627656,17.0492928 L17.029577,17.0492928 C17.2865165,16.9972445 18.0831095,16.5280093 18.640483,15.4478074 C19.3790833,14.0288913 20.2513889,15.047436 20.2513889,15.047436 C19.5578939,15.1074917 19.7230117,15.8665958 19.8486624,16.2485501 C19.9984767,16.7041727 20.3987868,16.9876356 20.6541154,17.0492928 L21.8622948,17.0492928 L21.8622948,14.6470646 L19.4459359,14.6470646 Z M21.8622948,21.0522056 L5.75323548,21.0522056 L5.75323548,19.4515209 C6.01017498,19.3994727 6.80354615,18.9294367 7.36414141,17.8500355 C8.09951997,16.4311194 8.97504735,17.4496641 8.97504735,17.4496641 C8.27913598,17.5097198 8.44828111,18.2688239 8.57312632,18.6507782 C8.72213512,19.1064008 9.12325069,19.3898637 9.37777383,19.4515209 L9.78130577,19.4515209 C10.0390507,19.3994727 10.42889,18.9294367 10.9878743,17.8500355 C11.7248638,16.4311194 12.5995857,17.4496641 12.5995857,17.4496641 C11.9044798,17.5097198 12.072014,18.2688239 12.1968592,18.6507782 C12.3466735,19.1064008 12.7469836,19.3898637 13.0023122,19.4515209 L13.4050387,19.4515209 C13.6635891,19.3994727 14.0534283,18.9294367 14.6132181,17.8500355 C15.3494021,16.4311194 16.2241241,17.4496641 16.2241241,17.4496641 C15.5298236,17.5097198 15.6957469,18.2688239 15.8213976,18.6507782 C15.9720173,19.1064008 16.3715219,19.3898637 16.627656,19.4515209 L17.029577,19.4515209 C17.2865165,19.3994727 18.0831095,18.9294367 18.640483,17.8500355 C19.3790833,16.4311194 20.2513889,17.4496641 20.2513889,17.4496641 C19.5578939,17.5097198 19.7230117,18.2688239 19.8486624,18.6507782 C19.9984767,19.1064008 20.3987868,19.3898637 20.6541154,19.4515209 L21.8622948,19.4515209 L21.8622948,21.0522056 Z" id="flash_flood" fill="#FFFFFF"></path>
            </g>
        </g>
    </g>
</svg>