<?xml version="1.0" encoding="UTF-8"?>
<svg width="25px" height="46px" viewBox="0 0 25 46" version="1.1" xmlns="http://www.w3.org/2000/svg" xmlns:xlink="http://www.w3.org/1999/xlink">
    <!-- Generator: Sketch 43.2 (39069) - http://www.bohemiancoding.com/sketch -->
    <title>flood_red</title>
    <desc>Created with Sketch.</desc>
    <defs>
        <path d="M22.3715012,19.9190952 C24.4461124,16.633381 24.688427,14.6816667 24.688427,12.047619 C24.688427,5.39404762 18.948116,0 12.30936,0 C5.58761962,0 0,5.39404762 0,12.047619 C0,14.6816667 0.208014354,16.633381 2.2826256,19.9190952 C3.20651914,21.3845238 12.30936,30.9404762 12.30936,45.5892857 C12.30936,30.9404762 21.4465012,21.3845238 22.3715012,19.9190952 Z" id="path-1"></path>
    </defs>
    <g id="Maps-Pins" stroke="none" stroke-width="1" fill="none" fill-rule="evenodd">
        <g id="Artboard" transform="translate(-268.000000, -34.000000)">
            <g id="flood_red" transform="translate(268.000000, 34.000000)">
                <g id="Imported-Layers">
                    <use fill="#CE2912" fill-rule="evenodd" xlink:href="#path-1"></use>
                    <path stroke="#FFFFFF" stroke-width="1" d="M12.3102819,39.595356 C11.5479953,35.0696072 9.941628,30.8351718 7.69318342,26.8716945 C6.69222137,25.1072345 5.63758873,23.5248157 4.48414442,21.9796972 C4.05413496,21.4036698 2.80666839,19.8127722 2.70558366,19.6524373 C0.924293538,16.831277 0.5,15.1578451 0.5,12.047619 C0.5,5.69882412 5.83453892,0.5 12.30936,0.5 C18.7444847,0.5 24.188427,5.74032491 24.188427,12.047619 C24.188427,15.1021552 23.7436316,16.8094235 21.9487232,19.6521518 L21.9486872,19.6522089 C21.8469623,19.8133663 20.5927013,21.408043 20.1645843,21.9796037 C19.0065559,23.5256377 17.9481849,25.1081457 16.9435541,26.8728673 C14.6872469,30.8362675 13.0752791,35.0702291 12.3102819,39.595356 Z"></path>
                </g>
                <path d="M16.9,12.7294152 L16.9,8.90192982 L17.25,9.24988304 L17.6,8.90192982 L14.275,6.11760819 L10.95,8.90192982 L11.3,9.24988304 L11.65,8.90192982 L11.65,12.7294152 L11.3,12.7294152 C11.0781,12.6758304 10.7302,12.4294795 10.6,12.0335088 C10.4915,11.7015614 10.3459,11.0418421 10.95,10.9896491 C10.95,10.9896491 10.1898,10.1044561 9.5493,11.3369064 C9.0635,12.2763801 8.7247,12.6841813 8.5007,12.7294152 L8.15,12.7294152 C7.9288,12.6758304 7.5802,12.4294795 7.4507,12.0335088 C7.3422,11.7015614 7.1952,11.0418421 7.8,10.9896491 C7.8,10.9896491 7.0391,10.1044561 6.4,11.3369064 C5.9128,12.2763801 5.2233,12.6841813 5,12.7294152 L5,14.8171345 C5.2233,14.7719006 5.9128,14.3640994 6.4,13.4253216 C7.0391,12.1921754 7.8,13.0773684 7.8,13.0773684 C7.1952,13.1295614 7.3422,13.7892807 7.4507,14.1212281 C7.5802,14.5171988 7.9288,14.7635497 8.15,14.8171345 L8.5007,14.8171345 C8.7247,14.7719006 9.0635,14.3640994 9.5493,13.4253216 C10.1898,12.1921754 10.95,13.0773684 10.95,13.0773684 C10.3459,13.1295614 10.4915,13.7892807 10.6,14.1212281 C10.7302,14.5171988 11.0781,14.7635497 11.3,14.8171345 L11.65,14.8171345 C11.8747,14.7719006 12.2135,14.3640994 12.7,13.4253216 C13.3398,12.1921754 14.1,13.0773684 14.1,13.0773684 C13.4966,13.1295614 13.6408,13.7892807 13.75,14.1212281 C13.8809,14.5171988 14.2281,14.7635497 14.4507,14.8171345 L14.8,14.8171345 C15.0233,14.7719006 15.7156,14.3640994 16.2,13.4253216 C16.8419,12.1921754 17.6,13.0773684 17.6,13.0773684 C16.9973,13.1295614 17.1408,13.7892807 17.25,14.1212281 C17.3802,14.5171988 17.7281,14.7635497 17.95,14.8171345 L19,14.8171345 L19,12.7294152 L16.9,12.7294152 Z M19,18.2959708 L5,18.2959708 L5,16.9048538 C5.2233,16.8596199 5.9128,16.4511228 6.4,15.5130409 C7.0391,14.2798947 7.8,15.1650877 7.8,15.1650877 C7.1952,15.2172807 7.3422,15.877 7.4507,16.2089474 C7.5802,16.6049181 7.9288,16.851269 8.15,16.9048538 L8.5007,16.9048538 C8.7247,16.8596199 9.0635,16.4511228 9.5493,15.5130409 C10.1898,14.2798947 10.95,15.1650877 10.95,15.1650877 C10.3459,15.2172807 10.4915,15.877 10.6,16.2089474 C10.7302,16.6049181 11.0781,16.851269 11.3,16.9048538 L11.65,16.9048538 C11.8747,16.8596199 12.2135,16.4511228 12.7,15.5130409 C13.3398,14.2798947 14.1,15.1650877 14.1,15.1650877 C13.4966,15.2172807 13.6408,15.877 13.75,16.2089474 C13.8809,16.6049181 14.2281,16.851269 14.4507,16.9048538 L14.8,16.9048538 C15.0233,16.8596199 15.7156,16.4511228 16.2,15.5130409 C16.8419,14.2798947 17.6,15.1650877 17.6,15.1650877 C16.9973,15.2172807 17.1408,15.877 17.25,16.2089474 C17.3802,16.6049181 17.7281,16.851269 17.95,16.9048538 L19,16.9048538 L19,18.2959708 Z" id="flash_flood" fill="#FFFFFF"></path>
            </g>
        </g>
    </g>
</svg>