<?xml version="1.0" encoding="UTF-8"?>
<svg width="29px" height="52px" viewBox="0 0 29 52" version="1.1" xmlns="http://www.w3.org/2000/svg" xmlns:xlink="http://www.w3.org/1999/xlink">
    <!-- Generator: Sketch 43.2 (39069) - http://www.bohemiancoding.com/sketch -->
    <title>heatwave_blue</title>
    <desc>Created with Sketch.</desc>
    <defs>
        <path d="M25.7417029,22.9198491 C28.1288483,19.1391515 28.4076669,16.8934171 28.4076669,13.8625579 C28.4076669,6.20664523 21.8025947,0 14.1637294,0 C6.42937829,0 0,6.20664523 0,13.8625579 C0,16.8934171 0.239351112,19.1391515 2.62649652,22.9198491 C3.68957194,24.6060402 14.1637294,35.6015691 14.1637294,52.4571792 C14.1637294,35.6015691 24.6773543,24.6060402 25.7417029,22.9198491 Z" id="path-1"></path>
    </defs>
    <g id="Maps-Pins" stroke="none" stroke-width="1" fill="none" fill-rule="evenodd">
        <g id="Artboard" transform="translate(-30.000000, -95.000000)">
            <g id="heatwave_blue" transform="translate(30.000000, 94.984296)">
                <g id="Imported-Layers">
                    <use fill="#131D50" fill-rule="evenodd" xlink:href="#path-1"></use>
                    <path stroke="#FFFFFF" stroke-width="1" d="M14.164653,46.028696 C13.3219308,40.658452 11.4449851,35.6430679 8.78662355,30.9570036 C7.63655075,28.9296966 6.42474842,27.1114532 5.09930791,25.3359339 C4.60680303,24.6761895 3.16818919,22.8415214 3.04945458,22.6531911 C0.991733502,19.3942268 0.5,17.4548089 0.5,13.8625579 C0.5,6.51529477 6.67232345,0.5 14.1637294,0.5 C21.609258,0.5 27.9076669,6.56283216 27.9076669,13.8625579 C27.9076669,17.3908587 27.3922352,19.3692519 25.3189249,22.6529056 L25.3188889,22.6529627 C25.1993937,22.8422726 23.7528928,24.6813647 23.2626072,25.335924 C21.9318971,27.1124979 20.7157985,28.9308449 19.5615108,30.9584519 C16.893857,35.6444182 15.010374,40.659216 14.164653,46.028696 Z"></path>
                </g>
                <path d="M13.9979385,19.3642121 C13.9979385,18.4182755 13.4742901,17.5315997 12.634176,17.0541589 L12.5100941,16.9837168 L12.5100941,7.45502686 C12.5100941,6.78414984 11.9568483,6.23962132 11.2738287,6.23962132 C10.5908091,6.23962132 10.0352865,6.78414984 10.0352865,7.45502686 L10.0352865,16.9837168 L9.91234296,17.0541589 C9.07222886,17.5327179 8.54971888,18.4182755 8.54971888,19.3642121 C8.54971888,20.8390234 9.77232395,22.0387752 11.2726903,22.0387752 C12.7753334,22.0387752 13.9979385,20.8390234 13.9979385,19.3642121 L13.9979385,19.3642121 Z M14.4919893,19.3642121 C14.4919893,21.1062561 13.0485413,22.525161 11.2726903,22.525161 C9.49911611,22.525161 8.05452967,21.1062561 8.05452967,19.3642121 C8.05452967,18.2930451 8.62143593,17.2878477 9.54009729,16.7086572 L9.54009729,7.44831809 C9.54465075,6.51244464 10.319878,5.75323548 11.2738287,5.75323548 C12.226641,5.75323548 13.0030066,6.51244464 13.0075601,7.44831809 L13.0075601,7.45502686 L13.0075601,16.7075391 C13.9250831,17.2867296 14.4919893,18.2930451 14.4919893,19.3642121 L14.4919893,19.3642121 Z M18.222187,10.1228811 L15.4835061,10.1228811 L15.4835061,11.0956528 L18.222187,11.0956528 L18.222187,13.8343337 L19.1949587,13.8343337 L19.1949587,11.0956528 L21.9198274,11.0956528 L21.9198274,10.1228811 L19.1949587,10.1228811 L19.1949587,7.39801243 L18.222187,7.39801243 L18.222187,10.1228811 Z M13.0075601,19.3642121 C13.0075601,20.30344 12.2311945,21.0660035 11.2726903,21.0660035 C10.3153245,21.0660035 9.54009729,20.30344 9.54009729,19.3642121 C9.54009729,18.6866263 9.94649394,18.1051996 10.5304757,17.8312581 L10.5304757,13.771334 L12.0171817,13.771334 L12.0171817,17.8312581 C12.6000251,18.1051996 13.0075601,18.6866263 13.0075601,19.3642121 Z" id="heatwave" fill="#FFFFFF"></path>
            </g>
        </g>
    </g>
</svg>