<?xml version="1.0" encoding="UTF-8"?>
<svg width="25px" height="46px" viewBox="0 0 25 46" version="1.1" xmlns="http://www.w3.org/2000/svg" xmlns:xlink="http://www.w3.org/1999/xlink">
    <!-- Generator: Sketch 43.2 (39069) - http://www.bohemiancoding.com/sketch -->
    <title>heatwave_red</title>
    <desc>Created with Sketch.</desc>
    <defs>
        <path d="M22.3715012,19.9190952 C24.4461124,16.633381 24.688427,14.6816667 24.688427,12.047619 C24.688427,5.39404762 18.948116,0 12.30936,0 C5.58761962,0 0,5.39404762 0,12.047619 C0,14.6816667 0.208014354,16.633381 2.2826256,19.9190952 C3.20651914,21.3845238 12.30936,30.9404762 12.30936,45.5892857 C12.30936,30.9404762 21.4465012,21.3845238 22.3715012,19.9190952 Z" id="path-1"></path>
    </defs>
    <g id="Maps-Pins" stroke="none" stroke-width="1" fill="none" fill-rule="evenodd">
        <g id="Artboard" transform="translate(-30.000000, -87.000000)">
            <g id="heatwave_red" transform="translate(30.000000, 87.000000)">
                <g id="Imported-Layers">
                    <use fill="#CE2912" fill-rule="evenodd" xlink:href="#path-1"></use>
                    <path stroke="#FFFFFF" stroke-width="1" d="M12.3102819,39.595356 C11.5479953,35.0696072 9.941628,30.8351718 7.69318342,26.8716945 C6.69222137,25.1072345 5.63758873,23.5248157 4.48414442,21.9796972 C4.05413496,21.4036698 2.80666839,19.8127722 2.70558366,19.6524373 C0.924293538,16.831277 0.5,15.1578451 0.5,12.047619 C0.5,5.69882412 5.83453892,0.5 12.30936,0.5 C18.7444847,0.5 24.188427,5.74032491 24.188427,12.047619 C24.188427,15.1021552 23.7436316,16.8094235 21.9487232,19.6521518 L21.9486872,19.6522089 C21.8469623,19.8133663 20.5927013,21.408043 20.1645843,21.9796037 C19.0065559,23.5256377 17.9481849,25.1081457 16.9435541,26.8728673 C14.6872469,30.8362675 13.0752791,35.0702291 12.3102819,39.595356 Z"></path>
                </g>
                <path d="M12.1652751,16.8289758 C12.1652751,16.0068848 11.7101848,15.236296 10.9800616,14.8213635 L10.872225,14.760144 L10.872225,6.47898638 C10.872225,5.89594313 10.3914122,5.42270636 9.79781614,5.42270636 C9.20422007,5.42270636 8.7214286,5.89594313 8.7214286,6.47898638 L8.7214286,14.760144 L8.61458131,14.8213635 C7.88445814,15.2372677 7.43035715,16.0068848 7.43035715,16.8289758 C7.43035715,18.1106992 8.49289411,19.1533749 9.79682681,19.1533749 C11.1027382,19.1533749 12.1652751,18.1106992 12.1652751,16.8289758 L12.1652751,16.8289758 Z M12.5946429,16.8289758 C12.5946429,18.3429448 11.3401766,19.5760812 9.79682681,19.5760812 C8.25545568,19.5760812 7,18.3429448 7,16.8289758 C7,15.8980501 7.49268474,15.0244569 8.29107145,14.5210963 L8.29107145,6.47315594 C8.29502876,5.65981061 8.96876029,5 9.79781614,5 C10.6258827,5 11.3006035,5.65981061 11.3045608,6.47315594 L11.3045608,6.47898638 L11.3045608,14.5201245 C12.1019582,15.0234852 12.5946429,15.8980501 12.5946429,16.8289758 L12.5946429,16.8289758 Z M15.8364689,8.79755503 L13.4563466,8.79755503 L13.4563466,9.64296774 L15.8364689,9.64296774 L15.8364689,12.0230901 L16.6818817,12.0230901 L16.6818817,9.64296774 L19.0500002,9.64296774 L19.0500002,8.79755503 L16.6818817,8.79755503 L16.6818817,6.42943649 L15.8364689,6.42943649 L15.8364689,8.79755503 Z M11.3045608,16.8289758 C11.3045608,17.6452363 10.62984,18.3079622 9.79682681,18.3079622 C8.96480299,18.3079622 8.29107145,17.6452363 8.29107145,16.8289758 C8.29107145,16.2401021 8.64426111,15.734798 9.15178575,15.496722 L9.15178575,11.9683386 L10.4438465,11.9683386 L10.4438465,15.496722 C10.9503818,15.734798 11.3045608,16.2401021 11.3045608,16.8289758 Z" id="heatwave" fill="#FFFFFF"></path>
            </g>
        </g>
    </g>
</svg>