<?xml version="1.0" encoding="UTF-8"?>
<svg width="29px" height="53px" viewBox="0 0 29 53" version="1.1" xmlns="http://www.w3.org/2000/svg" xmlns:xlink="http://www.w3.org/1999/xlink">
    <!-- Generator: Sketch 43.2 (39069) - http://www.bohemiancoding.com/sketch -->
    <title>heavy_rain_blue</title>
    <desc>Created with Sketch.</desc>
    <defs>
        <path d="M25.7417029,22.9198491 C28.1288483,19.1391515 28.4076669,16.8934171 28.4076669,13.8625579 C28.4076669,6.20664523 21.8025947,0 14.1637294,0 C6.42937829,0 0,6.20664523 0,13.8625579 C0,16.8934171 0.239351112,19.1391515 2.62649652,22.9198491 C3.68957194,24.6060402 14.1637294,35.6015691 14.1637294,52.4571792 C14.1637294,35.6015691 24.6773543,24.6060402 25.7417029,22.9198491 Z" id="path-1"></path>
    </defs>
    <g id="Maps-Pins" stroke="none" stroke-width="1" fill="none" fill-rule="evenodd">
        <g id="Artboard" transform="translate(-69.000000, -95.000000)">
            <g id="heavy_rain_blue" transform="translate(69.122001, 94.984296)">
                <g id="Imported-Layers">
                    <use fill="#131D50" fill-rule="evenodd" xlink:href="#path-1"></use>
                    <path stroke="#FFFFFF" stroke-width="1" d="M14.164653,46.028696 C13.3219308,40.658452 11.4449851,35.6430679 8.78662355,30.9570036 C7.63655075,28.9296966 6.42474842,27.1114532 5.09930791,25.3359339 C4.60680303,24.6761895 3.16818919,22.8415214 3.04945458,22.6531911 C0.991733502,19.3942268 0.5,17.4548089 0.5,13.8625579 C0.5,6.51529477 6.67232345,0.5 14.1637294,0.5 C21.609258,0.5 27.9076669,6.56283216 27.9076669,13.8625579 C27.9076669,17.3908587 27.3922352,19.3692519 25.3189249,22.6529056 L25.3188889,22.6529627 C25.1993937,22.8422726 23.7528928,24.6813647 23.2626072,25.335924 C21.9318971,27.1124979 20.7157985,28.9308449 19.5615108,30.9584519 C16.893857,35.6444182 15.010374,40.659216 14.164653,46.028696 Z"></path>
                </g>
                <path d="M19.7761716,8.99000576 C19.3722945,8.99000576 18.989129,9.07285235 18.6347297,9.20747806 C18.3263563,7.25252865 16.6487128,5.75323548 14.6086155,5.75323548 C12.3487446,5.75323548 10.5180651,7.58506566 10.5180651,9.84378591 C10.5180651,9.89326373 10.5318729,9.94274156 10.5341742,9.99452068 C10.4835457,9.98991809 10.4340679,9.97841162 10.3834394,9.97841162 C9.16720541,9.97841162 8.18110085,10.9633655 8.18110085,12.1784489 C8.18110085,12.1968592 8.18570344,12.210667 8.18570344,12.2244747 C8.01080508,12.1726956 7.83130414,12.1358749 7.64144736,12.1358749 C6.5989611,12.1358749 5.75323548,12.9816005 5.75323548,14.0217855 C5.75323548,15.0665731 6.5989611,15.4600944 7.64144736,15.4600944 L13.5730331,15.4600944 L16.8063515,15.4600944 L19.7761716,15.4600944 C21.5642772,15.4600944 23.0129419,14.0125803 23.0129419,12.226776 C23.0129419,10.4375198 21.5642772,8.99000576 19.7761716,8.99000576 L19.7761716,8.99000576 Z M9.8069652,16.5278949 L8.24783838,20.8083021 L8.58152604,20.932572 L10.1843774,16.5278949 L9.8069652,16.5278949 Z M18.7175763,16.5278949 L17.1596001,20.8083021 L17.4932878,20.932572 L19.0949886,16.5278949 L18.7175763,16.5278949 Z M11.5893176,16.5278949 L10.0301907,20.8083021 L10.3638784,20.932572 L11.9667298,16.5278949 L11.5893176,16.5278949 Z M13.3716699,16.5278949 L11.8125431,20.8083021 L12.1462307,20.932572 L13.7490821,16.5278949 L13.3716699,16.5278949 Z M15.1528716,16.5278949 L13.5948954,20.8083021 L13.9285831,20.932572 L15.5314345,16.5278949 L15.1528716,16.5278949 Z M17.3126362,16.5278949 L15.7109354,20.932572 L15.3772478,20.8083021 L16.935224,16.5278949 L17.3126362,16.5278949 Z" id="heavy_rain" fill="#FFFFFF"></path>
            </g>
        </g>
    </g>
</svg>