<?xml version="1.0" encoding="UTF-8"?>
<svg width="25px" height="46px" viewBox="0 0 25 46" version="1.1" xmlns="http://www.w3.org/2000/svg" xmlns:xlink="http://www.w3.org/1999/xlink">
    <!-- Generator: Sketch 43.2 (39069) - http://www.bohemiancoding.com/sketch -->
    <title>heavy_rain_amber</title>
    <desc>Created with Sketch.</desc>
    <defs>
        <path d="M22.3715012,19.9190952 C24.4461124,16.633381 24.688427,14.6816667 24.688427,12.047619 C24.688427,5.39404762 18.948116,0 12.30936,0 C5.58761962,0 0,5.39404762 0,12.047619 C0,14.6816667 0.208014354,16.633381 2.2826256,19.9190952 C3.20651914,21.3845238 12.30936,30.9404762 12.30936,45.5892857 C12.30936,30.9404762 21.4465012,21.3845238 22.3715012,19.9190952 Z" id="path-1"></path>
    </defs>
    <g id="Maps-Pins" stroke="none" stroke-width="1" fill="none" fill-rule="evenodd">
        <g id="Artboard" transform="translate(-427.000000, -87.000000)">
            <g id="heavy_rain_amber" transform="translate(427.000000, 87.000000)">
                <g id="Imported-Layers">
                    <use fill="#F3A500" fill-rule="evenodd" xlink:href="#path-1"></use>
                    <path stroke="#FFFFFF" stroke-width="1" d="M12.3102819,39.595356 C11.5479953,35.0696072 9.941628,30.8351718 7.69318342,26.8716945 C6.69222137,25.1072345 5.63758873,23.5248157 4.48414442,21.9796972 C4.05413496,21.4036698 2.80666839,19.8127722 2.70558366,19.6524373 C0.924293538,16.831277 0.5,15.1578451 0.5,12.047619 C0.5,5.69882412 5.83453892,0.5 12.30936,0.5 C18.7444847,0.5 24.188427,5.74032491 24.188427,12.047619 C24.188427,15.1021552 23.7436316,16.8094235 21.9487232,19.6521518 L21.9486872,19.6522089 C21.8469623,19.8133663 20.5927013,21.408043 20.1645843,21.9796037 C19.0065559,23.5256377 17.9481849,25.1081457 16.9435541,26.8728673 C14.6872469,30.8362675 13.0752791,35.0702291 12.3102819,39.595356 Z"></path>
                </g>
                <path d="M17.187,7.813 C16.836,7.813 16.503,7.885 16.195,8.002 C15.927,6.303 14.469,5 12.696,5 C10.732,5 9.141,6.592 9.141,8.555 C9.141,8.598 9.153,8.641 9.155,8.686 C9.111,8.682 9.068,8.672 9.024,8.672 C7.967,8.672 7.11,9.528 7.11,10.584 C7.11,10.6 7.114,10.612 7.114,10.624 C6.962,10.579 6.806,10.547 6.641,10.547 C5.735,10.547 5,11.282 5,12.186 C5,13.094 5.735,13.436 6.641,13.436 L11.796,13.436 L14.606,13.436 L17.187,13.436 C18.741,13.436 20,12.178 20,10.626 C20,9.071 18.741,7.813 17.187,7.813 L17.187,7.813 Z M8.523,14.364 L7.168,18.084 L7.458,18.192 L8.851,14.364 L8.523,14.364 Z M16.267,14.364 L14.913,18.084 L15.203,18.192 L16.595,14.364 L16.267,14.364 Z M10.072,14.364 L8.717,18.084 L9.007,18.192 L10.4,14.364 L10.072,14.364 Z M11.621,14.364 L10.266,18.084 L10.556,18.192 L11.949,14.364 L11.621,14.364 Z M13.169,14.364 L11.815,18.084 L12.105,18.192 L13.498,14.364 L13.169,14.364 Z M15.046,14.364 L13.654,18.192 L13.364,18.084 L14.718,14.364 L15.046,14.364 Z" id="heavy_rain" fill="#FFFFFF"></path>
            </g>
        </g>
    </g>
</svg>