<?xml version="1.0" encoding="UTF-8"?>
<svg width="25px" height="46px" viewBox="0 0 25 46" version="1.1" xmlns="http://www.w3.org/2000/svg" xmlns:xlink="http://www.w3.org/1999/xlink">
    <!-- Generator: Sketch 43.2 (39069) - http://www.bohemiancoding.com/sketch -->
    <title>humanitarian_access_red</title>
    <desc>Created with Sketch.</desc>
    <defs>
        <path d="M22.3715012,19.9190952 C24.4461124,16.633381 24.688427,14.6816667 24.688427,12.047619 C24.688427,5.39404762 18.948116,0 12.30936,0 C5.58761962,0 0,5.39404762 0,12.047619 C0,14.6816667 0.208014354,16.633381 2.2826256,19.9190952 C3.20651914,21.3845238 12.30936,30.9404762 12.30936,45.5892857 C12.30936,30.9404762 21.4465012,21.3845238 22.3715012,19.9190952 Z" id="path-1"></path>
    </defs>
    <g id="Maps-Pins" stroke="none" stroke-width="1" fill="none" fill-rule="evenodd">
        <g id="Artboard" transform="translate(-166.000000, -87.000000)">
            <g id="humanitarian_access_red" transform="translate(166.000000, 87.000000)">
                <g id="Imported-Layers">
                    <use fill="#CE2912" fill-rule="evenodd" xlink:href="#path-1"></use>
                    <path stroke="#FFFFFF" stroke-width="1" d="M12.3102819,39.595356 C11.5479953,35.0696072 9.941628,30.8351718 7.69318342,26.8716945 C6.69222137,25.1072345 5.63758873,23.5248157 4.48414442,21.9796972 C4.05413496,21.4036698 2.80666839,19.8127722 2.70558366,19.6524373 C0.924293538,16.831277 0.5,15.1578451 0.5,12.047619 C0.5,5.69882412 5.83453892,0.5 12.30936,0.5 C18.7444847,0.5 24.188427,5.74032491 24.188427,12.047619 C24.188427,15.1021552 23.7436316,16.8094235 21.9487232,19.6521518 L21.9486872,19.6522089 C21.8469623,19.8133663 20.5927013,21.408043 20.1645843,21.9796037 C19.0065559,23.5256377 17.9481849,25.1081457 16.9435541,26.8728673 C14.6872469,30.8362675 13.0752791,35.0702291 12.3102819,39.595356 Z"></path>
                </g>
                <path d="M6,11.7701497 L13.7621222,11.7701497 L13.7621222,7 L6,7 L6,11.7701497 Z M15.8963086,13.3287412 C15.6159864,13.3287412 15.3889254,13.1007458 15.3889254,12.821358 C15.3889254,12.5429046 15.6159864,12.3139748 15.8963086,12.3139748 C16.1766309,12.3139748 16.4036919,12.5429046 16.4036919,12.821358 C16.4036919,13.1007458 16.1766309,13.3287412 15.8963086,13.3287412 L15.8963086,13.3287412 Z M15.8963086,11.8925571 C15.3814502,11.8925571 14.9656389,12.3093028 14.9656389,12.821358 C14.9656389,13.3362165 15.3814502,13.7520278 15.8963086,13.7520278 C16.4092983,13.7520278 16.8269784,13.3362165 16.8269784,12.821358 C16.8269784,12.3093028 16.4092983,11.8925571 15.8963086,11.8925571 L15.8963086,11.8925571 Z M9.40591493,13.3287412 C9.12465831,13.3287412 8.8966629,13.1007458 8.8966629,12.821358 C8.8966629,12.5429046 9.12465831,12.3139748 9.40591493,12.3139748 C9.68343392,12.3139748 9.91236373,12.5429046 9.91236373,12.821358 C9.91236373,13.1007458 9.68343392,13.3287412 9.40591493,13.3287412 L9.40591493,13.3287412 Z M9.40591493,11.8925571 C8.89105646,11.8925571 8.47431076,12.3093028 8.47431076,12.821358 C8.47431076,13.3362165 8.89105646,13.7520278 9.40591493,13.7520278 C9.91797018,13.7520278 10.3347159,13.3362165 10.3347159,12.821358 C10.3347159,12.3093028 9.91797018,11.8925571 9.40591493,11.8925571 L9.40591493,11.8925571 Z M14.7965112,10.2012797 L14.7965112,8.67726126 L15.9813397,8.67726126 L16.4877885,10.2012797 L14.7965112,10.2012797 Z M16.9951717,10.2012797 L16.3186608,8.16987805 L16.3186608,7.66249484 L14.197556,7.66249484 L14.197556,12.0607504 L10.4169437,12.0607504 C10.5767274,12.2737953 10.6729713,12.5354294 10.6729713,12.821358 L14.626449,12.821358 C14.626449,12.1205525 15.1955031,11.5533672 15.8963086,11.5533672 C16.3887413,11.5533672 16.8148311,11.8364926 17.0250728,12.2466975 C17.0998254,12.392465 17.1484145,12.5587896 17.158693,12.7325893 C17.1605618,12.761556 17.1652339,12.7905226 17.1652339,12.821358 L18.1800003,12.821358 L18.1800003,10.7086629 L16.9951717,10.2012797 Z M6,12.5793465 L6.95776757,12.821358 L8.13605529,12.821358 C8.13605529,12.5354294 8.23229925,12.2737953 8.39208291,12.0607504 L6,12.0607504 L6,12.5793465 Z M15.6430842,18.557685 L15.6430842,17.8736988 L6,17.8736988 L6,15.0704766 L15.6430842,15.0704766 L15.6430842,14.3640646 L18.1800003,16.4608748 L15.6430842,18.557685 Z" id="humanitarian_access" fill="#FFFFFF"></path>
            </g>
        </g>
    </g>
</svg>