<?xml version="1.0" encoding="UTF-8"?>
<svg width="29px" height="53px" viewBox="0 0 29 53" version="1.1" xmlns="http://www.w3.org/2000/svg" xmlns:xlink="http://www.w3.org/1999/xlink">
    <!-- Generator: Sketch 43.2 (39069) - http://www.bohemiancoding.com/sketch -->
    <title>humanitarian_access_blue</title>
    <desc>Created with Sketch.</desc>
    <defs>
        <path d="M25.7417029,22.9198491 C28.1288483,19.1391515 28.4076669,16.8934171 28.4076669,13.8625579 C28.4076669,6.20664523 21.8025947,0 14.1637294,0 C6.42937829,0 0,6.20664523 0,13.8625579 C0,16.8934171 0.239351112,19.1391515 2.62649652,22.9198491 C3.68957194,24.6060402 14.1637294,35.6015691 14.1637294,52.4571792 C14.1637294,35.6015691 24.6773543,24.6060402 25.7417029,22.9198491 Z" id="path-1"></path>
    </defs>
    <g id="Maps-Pins" stroke="none" stroke-width="1" fill="none" fill-rule="evenodd">
        <g id="Artboard" transform="translate(-186.000000, -95.000000)">
            <g id="humanitarian_access_blue" transform="translate(186.488005, 94.984296)">
                <g id="Imported-Layers">
                    <use fill="#131D50" fill-rule="evenodd" xlink:href="#path-1"></use>
                    <path stroke="#FFFFFF" stroke-width="1" d="M14.164653,46.028696 C13.3219308,40.658452 11.4449851,35.6430679 8.78662355,30.9570036 C7.63655075,28.9296966 6.42474842,27.1114532 5.09930791,25.3359339 C4.60680303,24.6761895 3.16818919,22.8415214 3.04945458,22.6531911 C0.991733502,19.3942268 0.5,17.4548089 0.5,13.8625579 C0.5,6.51529477 6.67232345,0.5 14.1637294,0.5 C21.609258,0.5 27.9076669,6.56283216 27.9076669,13.8625579 C27.9076669,17.3908587 27.3922352,19.3692519 25.3189249,22.6529056 L25.3188889,22.6529627 C25.1993937,22.8422726 23.7528928,24.6813647 23.2626072,25.335924 C21.9318971,27.1124979 20.7157985,28.9308449 19.5615108,30.9584519 C16.893857,35.6444182 15.010374,40.659216 14.164653,46.028696 Z"></path>
                </g>
                <path d="M6.90388258,13.5432886 L15.8353459,13.5432886 L15.8353459,8.05452967 L6.90388258,8.05452967 L6.90388258,13.5432886 Z M18.2910414,15.3366774 C17.9684894,15.3366774 17.7072224,15.0743352 17.7072224,14.7528584 C17.7072224,14.4324568 17.9684894,14.1690394 18.2910414,14.1690394 C18.6135933,14.1690394 18.8748604,14.4324568 18.8748604,14.7528584 C18.8748604,15.0743352 18.6135933,15.3366774 18.2910414,15.3366774 L18.2910414,15.3366774 Z M18.2910414,13.6841363 C17.698621,13.6841363 17.2201689,14.1636635 17.2201689,14.7528584 C17.2201689,15.3452788 17.698621,15.8237308 18.2910414,15.8237308 C18.8813114,15.8237308 19.3619138,15.3452788 19.3619138,14.7528584 C19.3619138,14.1636635 18.8813114,13.6841363 18.2910414,13.6841363 L18.2910414,13.6841363 Z M10.8228887,15.3366774 C10.4992616,15.3366774 10.2369193,15.0743352 10.2369193,14.7528584 C10.2369193,14.4324568 10.4992616,14.1690394 10.8228887,14.1690394 C11.1422151,14.1690394 11.4056325,14.4324568 11.4056325,14.7528584 C11.4056325,15.0743352 11.1422151,15.3366774 10.8228887,15.3366774 L10.8228887,15.3366774 Z M10.8228887,13.6841363 C10.2304683,13.6841363 9.75094107,14.1636635 9.75094107,14.7528584 C9.75094107,15.3452788 10.2304683,15.8237308 10.8228887,15.8237308 C11.4120836,15.8237308 11.8916108,15.3452788 11.8916108,14.7528584 C11.8916108,14.1636635 11.4120836,13.6841363 10.8228887,13.6841363 L10.8228887,13.6841363 Z M17.0255626,11.7380729 L17.0255626,9.98446547 L18.3888821,9.98446547 L18.971626,11.7380729 L17.0255626,11.7380729 Z M19.555445,11.7380729 L18.7770196,9.40064645 L18.7770196,8.81682743 L16.3363766,8.81682743 L16.3363766,13.8776674 L11.986226,13.8776674 C12.1700807,14.1228069 12.2808235,14.4238554 12.2808235,14.7528584 L16.8298811,14.7528584 C16.8298811,13.9464785 17.4846615,13.2938484 18.2910414,13.2938484 C18.8576576,13.2938484 19.3479366,13.6196259 19.5898505,14.0916269 C19.6758644,14.2593539 19.7317734,14.4507347 19.7436003,14.6507169 C19.7457507,14.6840473 19.7511265,14.7173777 19.7511265,14.7528584 L20.9187646,14.7528584 L20.9187646,12.3218919 L19.555445,11.7380729 Z M6.90388258,14.4743885 L8.00593505,14.7528584 L9.36172839,14.7528584 C9.36172839,14.4238554 9.47247123,14.1228069 9.65632583,13.8776674 L6.90388258,13.8776674 L6.90388258,14.4743885 Z M17.9996695,21.3533463 L17.9996695,20.5663196 L6.90388258,20.5663196 L6.90388258,17.3408001 L17.9996695,17.3408001 L17.9996695,16.5279692 L20.9187646,18.9406578 L17.9996695,21.3533463 Z" id="humanitarian_access" fill="#FFFFFF"></path>
            </g>
        </g>
    </g>
</svg>