<?xml version="1.0" encoding="UTF-8"?>
<svg width="25px" height="46px" viewBox="0 0 25 46" version="1.1" xmlns="http://www.w3.org/2000/svg" xmlns:xlink="http://www.w3.org/1999/xlink">
    <!-- Generator: Sketch 43.2 (39069) - http://www.bohemiancoding.com/sketch -->
    <title>insect_infestation_red</title>
    <desc>Created with Sketch.</desc>
    <defs>
        <path d="M22.3715012,19.9190952 C24.4461124,16.633381 24.688427,14.6816667 24.688427,12.047619 C24.688427,5.39404762 18.948116,0 12.30936,0 C5.58761962,0 0,5.39404762 0,12.047619 C0,14.6816667 0.208014354,16.633381 2.2826256,19.9190952 C3.20651914,21.3845238 12.30936,30.9404762 12.30936,45.5892857 C12.30936,30.9404762 21.4465012,21.3845238 22.3715012,19.9190952 Z" id="path-1"></path>
    </defs>
    <g id="Maps-Pins" stroke="none" stroke-width="1" fill="none" fill-rule="evenodd">
        <g id="Artboard" transform="translate(-98.000000, -87.000000)">
            <g id="insect_infestation_red" transform="translate(98.000000, 87.000000)">
                <g id="Imported-Layers">
                    <use fill="#CE2912" fill-rule="evenodd" xlink:href="#path-1"></use>
                    <path stroke="#FFFFFF" stroke-width="1" d="M12.3102819,39.595356 C11.5479953,35.0696072 9.941628,30.8351718 7.69318342,26.8716945 C6.69222137,25.1072345 5.63758873,23.5248157 4.48414442,21.9796972 C4.05413496,21.4036698 2.80666839,19.8127722 2.70558366,19.6524373 C0.924293538,16.831277 0.5,15.1578451 0.5,12.047619 C0.5,5.69882412 5.83453892,0.5 12.30936,0.5 C18.7444847,0.5 24.188427,5.74032491 24.188427,12.047619 C24.188427,15.1021552 23.7436316,16.8094235 21.9487232,19.6521518 L21.9486872,19.6522089 C21.8469623,19.8133663 20.5927013,21.408043 20.1645843,21.9796037 C19.0065559,23.5256377 17.9481849,25.1081457 16.9435541,26.8728673 C14.6872469,30.8362675 13.0752791,35.0702291 12.3102819,39.595356 Z"></path>
                </g>
                <path d="M17.4967184,9.61772501 L14.5586142,10.7017635 L16.5936864,12.7368357 C17.3897147,11.7948023 17.7017257,10.632761 17.4967184,9.61772501 L17.4967184,9.61772501 Z M16.7766929,8.2226755 C16.5006831,7.94566567 16.1706714,7.75065875 15.8136587,7.6196541 L14.8976262,10.1017422 L17.3807143,9.18570968 C17.2497097,8.82969704 17.0547028,8.49968533 16.7766929,8.2226755 L16.7766929,8.2226755 Z M12.2635327,8.40568199 L14.2976049,10.4407542 L15.3826434,7.50364998 C14.3666074,7.2986427 13.2045661,7.61065378 12.2635327,8.40568199 L12.2635327,8.40568199 Z M15.1396348,18.0200232 L15.2696394,16.8539818 L16.3086763,15.3809295 L15.2236378,14.1978876 C15.3186411,14.1018842 15.4066443,14.0098809 15.4956474,13.9178776 L16.9416988,13.7128703 L18.6557596,11.9978095 L19.7597988,11.7408004 C19.9268047,11.701799 20.0308084,11.533793 19.991807,11.3667871 C19.9528056,11.1987811 19.7847997,11.0957775 19.6167937,11.1347789 L18.3407484,11.4307894 L16.7976936,12.9748442 L16.2896756,13.0898482 L14.2576035,11.0567761 L8.13938635,17.1759933 C9.65744023,18.041024 11.3605007,17.3559996 12.8645541,16.2739612 L12.9875584,17.0029871 L11.5175062,18.4180373 L11.3505003,19.6450809 C11.3364998,19.7470845 11.3735011,19.8430879 11.4385034,19.9090903 C11.4855051,19.9560919 11.5475073,19.987093 11.6175098,19.9970934 C11.7875158,20.0200942 11.9445214,19.90109 11.9685223,19.7300839 L12.1055271,18.7160479 L13.850589,17.028988 L14.0065946,15.3559287 C14.2176021,15.168922 14.4206093,14.9819154 14.6156162,14.7959088 L15.4816469,15.4699327 L14.6586177,16.7049765 L14.5196128,17.9510208 C14.5096124,18.0490242 14.5446137,18.1410275 14.609616,18.2060298 C14.6586177,18.2550316 14.72262,18.2870327 14.7946226,18.295033 C14.9676287,18.3140336 15.1206341,18.1900292 15.1396348,18.0200232 L15.1396348,18.0200232 Z M11.9105202,8.70969278 L13.9425923,10.7427649 L7.7123712,16.9729861 C6.83634011,15.4349315 7.57936648,13.6798692 8.71440676,12.1328143 L7.99738131,12.01181 L6.58233109,13.4818622 L5.35328747,13.6488681 C5.25328392,13.6638686 5.15728052,13.6268673 5.09127817,13.560865 C5.04427651,13.5138633 5.01227537,13.4528611 5.00327505,13.3828586 C4.97827416,13.2118526 5.09927846,13.055847 5.26828446,13.0318462 L6.28432052,12.8928412 L7.97138039,11.1497794 L9.64143966,10.9937738 C9.8284463,10.7827664 10.016453,10.5787591 10.2044596,10.3837522 L9.53043572,9.51772146 L8.29439185,10.3417507 L7.04834763,10.4797556 C6.95134419,10.490756 6.85834089,10.4547547 6.79433862,10.3897524 C6.74533688,10.3417507 6.71333574,10.2767484 6.70433542,10.2047458 C6.68533475,10.0327397 6.80833911,9.87973431 6.98034522,9.8597336 L8.14538657,9.72972899 L9.61943888,8.69169214 L10.8024809,9.77573062 C10.8974842,9.68072725 10.9904875,9.59272412 11.0824908,9.504721 L11.2874981,8.05766964 L13.0015589,6.34460885 L13.2595681,5.24056966 C13.2975694,5.0725637 13.4665754,4.96856001 13.6335813,5.00856143 C13.8015873,5.04756281 13.904591,5.21556878 13.8655896,5.3825747 L13.568579,6.65962003 L12.0245242,8.20267479 L11.9105202,8.70969278 Z" id="insect_infestation" fill="#FFFFFF"></path>
            </g>
        </g>
    </g>
</svg>