<?xml version="1.0" encoding="UTF-8"?>
<svg width="29px" height="53px" viewBox="0 0 29 53" version="1.1" xmlns="http://www.w3.org/2000/svg" xmlns:xlink="http://www.w3.org/1999/xlink">
    <!-- Generator: Sketch 43.2 (39069) - http://www.bohemiancoding.com/sketch -->
    <title>insect_infestation_blue</title>
    <desc>Created with Sketch.</desc>
    <defs>
        <path d="M25.7417029,22.9198491 C28.1288483,19.1391515 28.4076669,16.8934171 28.4076669,13.8625579 C28.4076669,6.20664523 21.8025947,0 14.1637294,0 C6.42937829,0 0,6.20664523 0,13.8625579 C0,16.8934171 0.239351112,19.1391515 2.62649652,22.9198491 C3.68957194,24.6060402 14.1637294,35.6015691 14.1637294,52.4571792 C14.1637294,35.6015691 24.6773543,24.6060402 25.7417029,22.9198491 Z" id="path-1"></path>
    </defs>
    <g id="Maps-Pins" stroke="none" stroke-width="1" fill="none" fill-rule="evenodd">
        <g id="Artboard" transform="translate(-108.000000, -95.000000)">
            <g id="insect_infestation_blue" transform="translate(108.244003, 94.984296)">
                <g id="Imported-Layers">
                    <use fill="#131D50" fill-rule="evenodd" xlink:href="#path-1"></use>
                    <path stroke="#FFFFFF" stroke-width="1" d="M14.164653,46.028696 C13.3219308,40.658452 11.4449851,35.6430679 8.78662355,30.9570036 C7.63655075,28.9296966 6.42474842,27.1114532 5.09930791,25.3359339 C4.60680303,24.6761895 3.16818919,22.8415214 3.04945458,22.6531911 C0.991733502,19.3942268 0.5,17.4548089 0.5,13.8625579 C0.5,6.51529477 6.67232345,0.5 14.1637294,0.5 C21.609258,0.5 27.9076669,6.56283216 27.9076669,13.8625579 C27.9076669,17.3908587 27.3922352,19.3692519 25.3189249,22.6529056 L25.3188889,22.6529627 C25.1993937,22.8422726 23.7528928,24.6813647 23.2626072,25.335924 C21.9318971,27.1124979 20.7157985,28.9308449 19.5615108,30.9584519 C16.893857,35.6444182 15.010374,40.659216 14.164653,46.028696 Z"></path>
                </g>
                <path d="M20.1325483,11.0666074 L16.7518271,12.3139531 L19.0934771,14.655603 C20.0094247,13.571655 20.3684393,12.2345556 20.1325483,11.0666074 L20.1325483,11.0666074 Z M19.304053,9.46139768 C18.9864631,9.14265713 18.6067361,8.91827298 18.1959405,8.76753286 L17.1419103,11.6235403 L19.9990685,10.5695102 C19.8483284,10.1598653 19.6239442,9.78013824 19.304053,9.46139768 L19.304053,9.46139768 Z M14.1109983,9.67197358 L16.4514976,12.0136235 L17.699994,8.63405306 C16.530895,8.39816203 15.1937957,8.75717667 14.1109983,9.67197358 L14.1109983,9.67197358 Z M17.4203768,20.7346874 L17.5699662,19.3929852 L18.765531,17.6980219 L17.5170346,16.3367581 C17.62635,16.2262921 17.7276105,16.1204288 17.8300217,16.0145655 L19.4939165,15.7786744 L21.4661956,13.8052446 L22.7365551,13.5095178 C22.92872,13.464641 23.0483915,13.2713254 23.0035147,13.0791606 C22.9586378,12.885845 22.7653223,12.7673241 22.5720067,12.8122009 L21.1037289,13.1528046 L19.3282174,14.9294667 L18.7436679,15.0617959 L16.4054701,12.7224473 L9.36556127,19.7635068 C11.1123056,20.7588518 13.0719271,19.9706306 14.8025618,18.7255862 L14.9440964,19.5644377 L13.2525851,21.1926612 L13.0604202,22.6045553 C13.0443106,22.7219254 13.086886,22.8323915 13.1616808,22.9083369 C13.2157631,22.9624192 13.2871058,22.9980905 13.3676539,23.0095974 C13.5632709,23.0360632 13.7439289,22.8991314 13.7715454,22.7023637 L13.9291896,21.5355662 L15.9371401,19.5943556 L16.1166474,17.6692547 C16.3594425,17.4540761 16.5930322,17.2388974 16.8174163,17.0248695 L17.8139121,17.8004331 L16.8668959,19.2215327 L16.7069503,20.6552899 C16.6954434,20.7680573 16.7357175,20.8739206 16.8105122,20.9487153 C16.8668959,21.005099 16.9405399,21.0419211 17.0233895,21.0511266 C17.2224585,21.0729896 17.3985137,20.9303043 17.4203768,20.7346874 L17.4203768,20.7346874 Z M13.7048055,10.0217827 L16.0430034,12.3611313 L8.87421752,19.5299171 C7.86621489,17.7601591 8.72117603,15.7407017 10.0272068,13.9605875 L9.20216358,13.8213543 L7.57394016,15.5128655 L6.15974468,15.7050304 C6.04467589,15.7222907 5.93420985,15.6797153 5.85826444,15.6037699 C5.80418211,15.5496875 5.7673601,15.4794956 5.75700391,15.3989474 C5.72823671,15.2021798 5.86746995,15.0226725 6.06193621,14.995056 L7.23103515,14.8351103 L9.1722457,12.8294613 L11.0938945,12.649954 C11.3090732,12.4071588 11.5254025,12.1724185 11.7417319,11.9480343 L10.9661682,10.9515386 L9.5439179,11.8997054 L8.11016073,12.0585004 C7.998544,12.0711579 7.89153003,12.0297332 7.817886,11.9549384 C7.76150229,11.8997054 7.72468027,11.8249107 7.71432408,11.7420612 C7.69246101,11.5441428 7.83399563,11.3680876 8.03191395,11.3450738 L9.3724654,11.1954844 L11.0685794,10.0010703 L12.4298432,11.248416 C12.5391586,11.1391007 12.6461726,11.0378402 12.7520359,10.9365796 L12.9879269,9.27153417 L14.960206,7.30040574 L15.2570835,6.03004626 C15.3008096,5.83673069 15.4952759,5.71705915 15.6874408,5.76308666 C15.8807564,5.80796349 15.9992772,6.00127906 15.9544004,6.19344395 L15.6126461,7.66287244 L13.8359839,9.43838393 L13.7048055,10.0217827 Z" id="insect_infestation" fill="#FFFFFF"></path>
            </g>
        </g>
    </g>
</svg>