<?xml version="1.0" encoding="UTF-8"?>
<svg width="25px" height="46px" viewBox="0 0 25 46" version="1.1" xmlns="http://www.w3.org/2000/svg" xmlns:xlink="http://www.w3.org/1999/xlink">
    <!-- Generator: Sketch 43.2 (39069) - http://www.bohemiancoding.com/sketch -->
    <title>landslide_mudslide_red</title>
    <desc>Created with Sketch.</desc>
    <defs>
        <path d="M22.3715012,19.9190952 C24.4461124,16.633381 24.688427,14.6816667 24.688427,12.047619 C24.688427,5.39404762 18.948116,0 12.30936,0 C5.58761962,0 0,5.39404762 0,12.047619 C0,14.6816667 0.208014354,16.633381 2.2826256,19.9190952 C3.20651914,21.3845238 12.30936,30.9404762 12.30936,45.5892857 C12.30936,30.9404762 21.4465012,21.3845238 22.3715012,19.9190952 Z" id="path-1"></path>
    </defs>
    <g id="Maps-Pins" stroke="none" stroke-width="1" fill="none" fill-rule="evenodd">
        <g id="Artboard" transform="translate(-268.000000, -87.000000)">
            <g id="landslide_mudslide_red" transform="translate(268.000000, 87.000000)">
                <g id="Imported-Layers">
                    <use fill="#CE2912" fill-rule="evenodd" xlink:href="#path-1"></use>
                    <path stroke="#FFFFFF" stroke-width="1" d="M12.3102819,39.595356 C11.5479953,35.0696072 9.941628,30.8351718 7.69318342,26.8716945 C6.69222137,25.1072345 5.63758873,23.5248157 4.48414442,21.9796972 C4.05413496,21.4036698 2.80666839,19.8127722 2.70558366,19.6524373 C0.924293538,16.831277 0.5,15.1578451 0.5,12.047619 C0.5,5.69882412 5.83453892,0.5 12.30936,0.5 C18.7444847,0.5 24.188427,5.74032491 24.188427,12.047619 C24.188427,15.1021552 23.7436316,16.8094235 21.9487232,19.6521518 L21.9486872,19.6522089 C21.8469623,19.8133663 20.5927013,21.408043 20.1645843,21.9796037 C19.0065559,23.5256377 17.9481849,25.1081457 16.9435541,26.8728673 C14.6872469,30.8362675 13.0752791,35.0702291 12.3102819,39.595356 Z"></path>
                </g>
                <path d="M17.252005,18.5051242 C17.2483986,18.4816825 17.2285633,18.4357008 17.2402842,18.4357008 C16.9770161,18.0606339 15.8491108,17.1716534 15.8346851,17.0292001 C15.8175547,16.8768292 15.5037968,16.3304578 15.1305332,15.9743247 C14.9718511,15.7227774 14.9565238,15.5289328 14.7798097,15.271976 C14.6030955,15.0159207 14.2731088,14.4893846 14.0765594,14.2161989 L12.7503014,13.3831178 C12.5573584,13.280335 11.4492883,13.3173007 9.90754725,11.686301 L9.85615588,10.6999473 C9.6487872,10.4465969 9.21872258,9.84162131 9.15470877,9.64507186 C8.74718423,8.43421908 9.01676352,7.44425903 8.80218201,5.77809675 L8.02049224,5.25426543 L7.08462837,5.07484644 C6.76816573,4.9423108 6,5.02615988 6,5.02615988 L6,18.5240579 L17.2556114,18.5240579 L17.2826595,18.5240579 L17.252005,18.5051242 Z M18.2951596,11.7557244 C17.8263261,11.2354995 17.5756805,11.1732889 16.888659,11.4031976 L16.5370338,11.4031976 C16.2115552,11.6917106 16.0609875,11.9144065 15.8346851,12.4580731 C15.6137924,12.9773964 15.3838837,13.5670448 15.4821584,13.8654753 C15.4911744,13.888917 15.7697697,14.195462 16.1854087,14.567824 C16.6253909,14.9302684 16.8345628,15.1502596 16.888659,15.271976 L18.2951596,14.9194492 C18.4466289,14.869861 19.0344741,13.6184361 18.9984099,13.5138502 C18.7162082,12.6654418 18.582771,12.0793999 18.2951596,11.7557244 L18.2951596,11.7557244 Z M14.0765594,11.7557244 L14.0765594,12.4580731 C14.2523719,12.6140504 14.4362989,12.7583069 14.7798097,12.8105999 L15.4821584,12.4580731 L15.1305332,11.4031976 L14.0765594,11.7557244 Z M14.1549988,8.60101563 L14.0765594,8.591098 C14.0359872,8.60462204 13.7348518,8.35217321 13.373309,8.23947284 C13.1992997,8.17906544 13.1974965,8.30799467 13.0216839,8.23947284 C12.7719399,8.32422352 12.7304661,8.5315922 12.6691571,8.94272315 C12.6096513,9.35475571 12.5321135,9.93538802 12.6691571,10.3492238 C12.7070245,10.4601209 12.882837,10.5601989 13.0216839,10.6999473 L13.373309,11.0515725 L13.7240326,11.0515725 C14.1820469,10.8523182 14.3569579,10.3726655 14.4272829,10.3492238 C14.5922763,10.2500475 14.7212055,9.95612489 14.7798097,9.64507186 C14.8348074,9.33311724 14.8753796,9.23303931 14.7798097,8.94272315 C14.6689125,8.61273647 14.3767931,8.52798579 14.1549988,8.60101563 L14.1549988,8.60101563 Z M11.2626565,7.18369577 C11.0507798,7.08091303 10.7974294,7.10525631 10.5603078,7.18369577 C10.4358866,7.22516951 10.3529391,7.41089972 10.2086826,7.53532093 L10.2086826,8.591098 L11.2626565,8.23947284 C11.5538743,7.90948616 11.6837051,7.74178801 11.6151833,7.53532093 C11.5601855,7.37213079 11.477238,7.29098652 11.2626565,7.18369577 L11.2626565,7.18369577 Z M11.9659068,9.99759862 C12.0461495,10.2293106 12.2309781,10.2608667 11.9659068,10.3492238 L11.2626565,10.6999473 L10.5603078,9.99759862 C10.4674427,9.72260972 10.5828479,9.54589554 10.9119329,9.29434831 L11.6151833,9.64507186 C11.7008355,9.75326422 11.9379571,9.91645436 11.9659068,9.99759862 L11.9659068,9.99759862 Z" id="landslide" fill="#FFFFFF"></path>
            </g>
        </g>
    </g>
</svg>