<?xml version="1.0" encoding="UTF-8"?>
<svg width="30px" height="52px" viewBox="0 0 30 52" version="1.1" xmlns="http://www.w3.org/2000/svg" xmlns:xlink="http://www.w3.org/1999/xlink">
    <!-- Generator: Sketch 43.2 (39069) - http://www.bohemiancoding.com/sketch -->
    <title>landslide_mudslide_blue</title>
    <desc>Created with Sketch.</desc>
    <defs>
        <path d="M25.7417029,22.9198491 C28.1288483,19.1391515 28.4076669,16.8934171 28.4076669,13.8625579 C28.4076669,6.20664523 21.8025947,0 14.1637294,0 C6.42937829,0 0,6.20664523 0,13.8625579 C0,16.8934171 0.239351112,19.1391515 2.62649652,22.9198491 C3.68957194,24.6060402 14.1637294,35.6015691 14.1637294,52.4571792 C14.1637294,35.6015691 24.6773543,24.6060402 25.7417029,22.9198491 Z" id="path-1"></path>
    </defs>
    <g id="Maps-Pins" stroke="none" stroke-width="1" fill="none" fill-rule="evenodd">
        <g id="Artboard" transform="translate(-303.000000, -95.000000)">
            <g id="landslide_mudslide_blue" transform="translate(303.854009, 94.984296)">
                <g id="Imported-Layers">
                    <use fill="#131D50" fill-rule="evenodd" xlink:href="#path-1"></use>
                    <path stroke="#FFFFFF" stroke-width="1" d="M14.164653,46.028696 C13.3219308,40.658452 11.4449851,35.6430679 8.78662355,30.9570036 C7.63655075,28.9296966 6.42474842,27.1114532 5.09930791,25.3359339 C4.60680303,24.6761895 3.16818919,22.8415214 3.04945458,22.6531911 C0.991733502,19.3942268 0.5,17.4548089 0.5,13.8625579 C0.5,6.51529477 6.67232345,0.5 14.1637294,0.5 C21.609258,0.5 27.9076669,6.56283216 27.9076669,13.8625579 C27.9076669,17.3908587 27.3922352,19.3692519 25.3189249,22.6529056 L25.3188889,22.6529627 C25.1993937,22.8422726 23.7528928,24.6813647 23.2626072,25.335924 C21.9318971,27.1124979 20.7157985,28.9308449 19.5615108,30.9584519 C16.893857,35.6444182 15.010374,40.659216 14.164653,46.028696 Z"></path>
                </g>
                <path d="M19.8509694,21.2928674 C19.8468197,21.2658943 19.8239963,21.2129855 19.8374829,21.2129855 C19.5345543,20.781416 18.2367333,19.7585131 18.2201345,19.5945997 C18.2004234,19.4192746 17.8393988,18.7905939 17.4099041,18.3808103 C17.227317,18.0913682 17.2096807,17.8683214 17.0063451,17.5726548 C16.8030094,17.2780256 16.4233112,16.6721683 16.1971521,16.357828 L14.6710973,15.3992456 C14.4490879,15.2809789 13.1740904,15.3235134 11.4000905,13.4468083 L11.3409571,12.3118633 C11.102349,12.0203464 10.6074964,11.324233 10.5338391,11.0980739 C10.0649221,9.70480969 10.3751128,8.56571503 10.1282052,6.64855024 L9.22875611,6.04580526 L8.15190706,5.83935732 C7.78777024,5.68685557 6.90388258,5.78333627 6.90388258,5.78333627 L6.90388258,21.3146534 L19.8551192,21.3146534 L19.886242,21.3146534 L19.8509694,21.2928674 Z M21.0512723,13.5266901 C20.5118103,12.9280949 20.2234057,12.8565124 19.4328864,13.1210563 L19.02829,13.1210563 C18.6537789,13.4530328 18.4805286,13.7092773 18.2201345,14.3348456 C17.9659649,14.9324035 17.7014211,15.6108807 17.8145006,15.9542689 C17.8248748,15.981242 18.1454397,16.3339672 18.6236935,16.7624244 C19.1299578,17.17947 19.3706408,17.4326022 19.4328864,17.5726548 L21.0512723,17.1670209 C21.22556,17.1099624 21.9019623,15.670014 21.8604652,15.5496725 C21.5357506,14.5734538 21.3822115,13.8991264 21.0512723,13.5266901 L21.0512723,13.5266901 Z M16.1971521,13.5266901 L16.1971521,14.3348456 C16.3994504,14.5143205 16.6110854,14.6803088 17.0063451,14.7404795 L17.8145006,14.3348456 L17.4099041,13.1210563 L16.1971521,13.5266901 Z M16.2874083,9.89673366 L16.1971521,9.88532196 C16.1504679,9.90088337 15.8039674,9.61040385 15.3879592,9.4807255 C15.1877358,9.4112179 15.185661,9.55956994 14.9833627,9.4807255 C14.6959955,9.57824362 14.6482739,9.81685179 14.5777289,10.2899184 C14.5092587,10.7640225 14.42004,11.4321254 14.5777289,11.9083043 C14.6213008,12.0359078 14.823599,12.1510622 14.9833627,12.3118633 L15.3879592,12.7164598 L15.7915183,12.7164598 C16.3185311,12.4871885 16.5197919,11.9352774 16.6007112,11.9083043 C16.7905603,11.7941873 16.9389123,11.4559862 17.0063451,11.0980739 C17.0696281,10.7391242 17.1163123,10.6239699 17.0063451,10.2899184 C16.8787416,9.91022021 16.5426153,9.81270208 16.2874083,9.89673366 L16.2874083,9.89673366 Z M12.959343,8.26589868 C12.7155477,8.14763202 12.4240308,8.17564254 12.1511875,8.26589868 C12.0080226,8.31362031 11.9125793,8.52733024 11.746591,8.67049514 L11.746591,9.88532196 L12.959343,9.4807255 C13.2944319,9.10102728 13.4438213,8.90806589 13.3649769,8.67049514 C13.3016939,8.48272089 13.2062506,8.38935247 12.959343,8.26589868 L12.959343,8.26589868 Z M13.7685359,11.5037078 C13.8608669,11.7703265 14.0735394,11.8066365 13.7685359,11.9083043 L12.959343,12.3118633 L12.1511875,11.5037078 C12.0443325,11.1872926 12.1771232,10.983957 12.555784,10.6945149 L13.3649769,11.0980739 C13.4635324,11.2225652 13.7363757,11.4103394 13.7685359,11.5037078 L13.7685359,11.5037078 Z" id="landslide" fill="#FFFFFF"></path>
            </g>
        </g>
    </g>
</svg>