<?xml version="1.0" encoding="UTF-8"?>
<svg width="25px" height="46px" viewBox="0 0 25 46" version="1.1" xmlns="http://www.w3.org/2000/svg" xmlns:xlink="http://www.w3.org/1999/xlink">
    <!-- Generator: Sketch 43.2 (39069) - http://www.bohemiancoding.com/sketch -->
    <title>locust_infestation_amber</title>
    <desc>Created with Sketch.</desc>
    <defs>
        <path d="M22.3715012,19.9190952 C24.4461124,16.633381 24.688427,14.6816667 24.688427,12.047619 C24.688427,5.39404762 18.948116,0 12.30936,0 C5.58761962,0 0,5.39404762 0,12.047619 C0,14.6816667 0.208014354,16.633381 2.2826256,19.9190952 C3.20651914,21.3845238 12.30936,30.9404762 12.30936,45.5892857 C12.30936,30.9404762 21.4465012,21.3845238 22.3715012,19.9190952 Z" id="path-1"></path>
    </defs>
    <g id="Maps-Pins" stroke="none" stroke-width="1" fill="none" fill-rule="evenodd">
        <g id="Artboard" transform="translate(-393.000000, -140.000000)">
            <g id="locust_infestation_amber" transform="translate(393.000000, 140.000000)">
                <g id="Imported-Layers">
                    <use fill="#F3A500" fill-rule="evenodd" xlink:href="#path-1"></use>
                    <path stroke="#FFFFFF" stroke-width="1" d="M12.3102819,39.595356 C11.5479953,35.0696072 9.941628,30.8351718 7.69318342,26.8716945 C6.69222137,25.1072345 5.63758873,23.5248157 4.48414442,21.9796972 C4.05413496,21.4036698 2.80666839,19.8127722 2.70558366,19.6524373 C0.924293538,16.831277 0.5,15.1578451 0.5,12.047619 C0.5,5.69882412 5.83453892,0.5 12.30936,0.5 C18.7444847,0.5 24.188427,5.74032491 24.188427,12.047619 C24.188427,15.1021552 23.7436316,16.8094235 21.9487232,19.6521518 L21.9486872,19.6522089 C21.8469623,19.8133663 20.5927013,21.408043 20.1645843,21.9796037 C19.0065559,23.5256377 17.9481849,25.1081457 16.9435541,26.8728673 C14.6872469,30.8362675 13.0752791,35.0702291 12.3102819,39.595356 Z"></path>
                </g>
                <path d="M18.4780775,14.1588973 C18.5090806,14.149367 18.5800877,14.1546616 18.5760873,14.1144223 C18.5660863,14.0561812 18.5600857,13.9958222 18.5500847,13.93864 C18.5390836,13.8549846 18.5210818,13.7692113 18.5050802,13.6866148 C18.4740771,13.5256575 18.4210718,13.3858788 18.3570654,13.2323341 C18.3080605,13.3043413 18.253055,13.4271771 18.1870484,13.4695343 C18.1010398,13.519304 17.9990296,13.519304 17.9020199,13.53307 C17.8200117,13.5447183 17.7710068,13.3414038 17.7610058,13.2831627 C17.7460043,13.1687983 17.7420039,13.0819661 17.7070004,12.9697196 C17.6299927,13.0046643 17.6049902,12.9728964 17.5289826,13.0141946 C17.4739771,13.0427857 17.4119709,13.0618464 17.3549652,13.0914965 C17.2809578,13.1222054 17.2339531,13.1846823 17.1659463,13.2228037 C17.1499447,13.2323341 17.1399437,13.2524537 17.1209418,13.2577484 C17.1089406,13.264102 17.0799377,13.2386877 17.0659363,13.2461002 C17.0409338,13.2577484 17.022932,13.2768091 17.0109308,13.3064591 C16.9899287,13.3721128 17.0459343,13.4504735 17.0719369,13.5118914 C17.1209418,13.6262558 17.1669464,13.7406202 17.2159513,13.8560435 C17.2359533,13.9068721 17.2569554,14.0021758 17.2979595,14.0350026 C17.3489646,14.0773598 17.5169814,14.1408955 17.6089906,14.1472491 L18.4780775,14.1588973 Z M7.58398806,13.2461002 C7.57298696,13.2577484 7.56298596,13.2810448 7.55098476,13.2948109 C7.89301897,13.3318734 8.23505317,13.3435217 8.57308697,13.3816431 C8.74310398,13.3996449 8.92412208,13.3954092 9.09413908,13.3784663 C9.15914558,13.3721128 9.29315898,13.3647003 9.33816348,13.3202252 C9.40917058,13.2577484 9.44417408,12.9464231 9.43817348,12.9231267 C9.41617128,12.8458248 9.20615028,12.8574731 9.15314498,12.8511195 C9.04513418,12.8341766 8.93812348,12.7907605 8.83111278,12.7907605 C8.72110178,12.7907605 8.61609128,12.7897016 8.50608027,12.7695819 C8.30305997,12.738873 8.06303597,12.6096836 7.86201587,12.7198122 C7.78600827,12.7600516 7.68599826,12.8902999 7.68599826,12.9834857 C7.68599826,13.09785 7.60399006,13.1338536 7.58398806,13.2461002 L7.58398806,13.2461002 Z M10.4402737,10.7650285 C10.3812678,10.7173767 10.3252622,10.6729017 10.2622559,10.6316034 C10.2062503,10.7925607 10.1592456,10.9492822 10.0772374,11.0996502 C10.373267,11.133536 10.6782975,11.1504788 10.9693266,11.2203682 C10.80331,11.0615288 10.6352932,10.8815108 10.4402737,10.7650285 L10.4402737,10.7650285 Z M10.7603057,9.37253633 C10.6472944,9.61820796 10.5672864,9.88188139 10.463276,10.1317887 C10.4182715,10.2397995 10.4672764,10.2397995 10.5512848,10.3022764 C10.5982895,10.3351032 10.6392936,10.3774604 10.6842981,10.4166407 C10.7843081,10.5055908 10.883318,10.5595962 11.0023299,10.6136016 C11.2503547,10.7247892 11.4243721,10.9217501 11.6453942,11.073177 C11.7454042,11.1409485 11.8724169,11.2468414 11.9894286,11.2690789 C12.1454442,11.29767 12.2484545,11.2934343 12.40347,11.2690789 C12.2254522,10.7618517 12.043434,10.2609781 11.7604057,9.80987418 C11.643394,9.62244368 11.483378,9.37571312 11.2903587,9.27193804 C11.1803477,9.21581478 11.0963393,9.11839327 10.9693266,9.10886291 C10.8793176,9.1014504 10.8813178,9.13215935 10.8383135,9.21581478 C10.813311,9.26770232 10.7863083,9.32064879 10.7603057,9.37253633 L10.7603057,9.37253633 Z M8.88511818,10.9429287 C8.85411508,11.0149359 8.81911158,11.0890609 8.78810848,11.1600092 C9.03213288,11.1356538 9.27415708,11.1250645 9.51818149,11.1250645 C9.57918759,11.1250645 9.65719539,11.1388306 9.65719539,11.0678823 C9.65719539,11.0191716 9.75420509,10.9768144 9.78420809,10.9323394 C9.85821549,10.8137393 9.89321899,10.6856088 9.93422309,10.547948 C9.90922059,10.5987766 9.96922659,10.4261711 9.99822949,10.3933443 C9.88921859,10.3139246 9.74120379,10.157203 9.61019069,10.1254352 C9.48117778,10.0968441 9.21715138,10.4886479 9.19814948,10.5098265 L8.88511818,10.9429287 Z M18.1710468,11.0498805 C18.033033,10.9937573 18.0780375,11.0615288 17.9370234,11.0848252 C17.8020099,11.1102395 17.6259923,11.0477627 17.5089806,11.1600092 C17.4759773,11.1917771 17.4859783,11.2415468 17.4389736,11.2182503 C17.4019699,11.2044842 17.3689666,11.1854235 17.3299627,11.1737753 C17.2359533,11.1525967 17.1579455,11.1504788 17.0639361,11.1589503 C16.5678865,11.2044842 16.092839,11.0943556 15.60279,11.1356538 C14.9857282,11.1854235 14.3686665,11.1684806 13.7486045,11.1949539 C13.6665963,11.1991896 13.5885885,11.2066021 13.5105807,11.2066021 C13.4075704,11.2066021 13.3705667,11.2415468 13.2975594,11.1525967 C13.1925489,11.028702 13.1045401,10.8793929 12.993529,10.7597339 C12.7625059,10.5055908 12.5244821,10.2863924 12.323462,10.0015404 C12.2254522,9.8681153 12.1294426,9.7346902 12.0324329,9.59914723 C11.9384235,9.46678105 11.823412,9.37783098 11.713401,9.25817195 C11.4713768,8.99661639 11.2113508,8.66940719 10.8703167,8.5688089 C10.6942991,8.51586243 10.5772874,8.66940719 10.5572854,8.85895556 C10.5472844,8.96802529 10.1862483,9.8321117 10.2092506,9.82575813 C10.1512448,9.83952421 10.2002497,9.97824396 10.1002397,9.98459754 C9.77420709,10.0110708 9.69819949,9.30052913 9.31716138,9.44560246 C9.13314298,9.51337395 8.99312898,9.80881525 9.07513718,10.0015404 C9.12014168,10.112728 9.18814848,10.187912 9.07513718,10.2810978 C8.98312798,10.3562818 8.59208887,10.8889233 8.63909358,10.8751572 C8.60809047,10.8836286 8.54308397,11.0191716 8.51408107,11.0498805 C8.45707537,11.1060038 8.40306997,11.1388306 8.32706237,11.1600092 C8.16604627,11.2066021 7.96102577,11.1854235 7.79700937,11.1642449 C7.63899356,11.1462431 7.49097876,11.1081217 7.33196286,11.1250645 C7.16594626,11.1388306 7.01593126,11.2066021 6.88091776,11.3146129 C6.81491115,11.3675594 6.76390605,11.4205058 6.71090075,11.4861595 C6.65889555,11.5496952 6.65489515,11.67359 6.63889355,11.7551275 C6.48087775,12.4794353 7.18394806,12.3227137 7.50197986,12.5334407 C7.60999066,12.60333 7.31296096,12.9601892 7.28895856,13.0353732 C7.27795746,13.0745536 7.26595626,13.1105572 7.24995466,13.1476197 C7.21695136,13.2228037 7.21895156,13.2100966 7.14694436,13.1825644 C6.62689235,12.9845446 6.11784145,12.7759355 5.62479214,12.5101442 C5.58378804,12.4889656 5.56278594,12.4614335 5.53878354,12.5164978 C5.52978264,12.5419121 5.52378204,12.5726211 5.53378304,12.5990943 C5.72080174,13.0766715 6.35186485,13.1783287 6.72490215,13.4377664 C6.78390805,13.4769468 6.83991366,13.518245 6.90291996,13.5521308 C7.04493416,13.6294326 7.04093376,13.6262558 6.98092776,13.7861542 C6.91292096,13.9704079 6.82291195,14.1567795 6.73690335,14.3367975 C6.67389705,14.4606922 6.59788945,14.6121191 6.55688535,14.7434264 C6.52588225,14.83873 6.51588125,14.9975694 6.44787445,15.0727534 C6.38086775,15.1426428 6.24085375,15.1913535 6.16084575,15.2411232 C6.02783245,15.3268965 5.87681734,15.3766662 5.74980464,15.4677341 C5.58378804,15.5905699 5.48677834,15.6212789 5.28875854,15.6424574 C5.23275294,15.64987 4.89671933,15.7864719 5.03173283,15.9135434 C5.06273594,15.9453113 5.31676134,15.7504683 5.37276694,15.7335254 C5.33176284,15.7949433 5.81681134,15.5979824 5.84181384,15.5768038 C5.90482014,15.5227984 6.37486715,15.3501929 6.43987365,15.3247786 C6.49687935,15.3036 6.79090875,15.3501929 6.81091075,15.21465 C6.82691235,15.1172285 6.82091175,15.0092177 6.84991466,14.9160319 C6.87491716,14.8344943 6.97892756,14.5634084 7.00393006,14.493519 C7.05293496,14.3696243 7.27995766,13.7501506 7.32096176,13.7385023 C7.34396406,13.7310898 7.41597126,13.7988613 7.44797446,13.8083917 C7.93202287,13.9672311 8.43807347,14.0487687 8.94212388,13.9788793 C8.97112678,13.9725257 9.23515318,13.9206382 9.22715238,13.9629954 C9.20014968,14.0794776 9.08813848,14.5422298 9.26415608,14.6258852 C9.14114378,14.6968335 8.95612528,14.7730764 8.81711138,14.7963728 C8.64309398,14.8291997 8.45907557,14.8927354 8.28205787,14.9096783 C8.17604727,14.9234444 7.69399906,15.2453589 7.66399606,15.3300733 C7.91102077,15.1913535 8.16804647,15.1331124 8.43407307,15.0600463 C8.51408107,15.0367498 9.44417408,14.733896 9.43817348,14.7847246 C9.45017468,14.6936567 9.45617528,14.6036477 9.48117778,14.5168155 C9.50418009,14.4395136 9.49517918,14.3547993 9.51818149,14.2806742 C9.54318399,14.1991366 9.56718639,14.1154812 9.59018869,14.0307669 C9.61419109,13.9460525 9.62519219,13.8507489 9.72320199,13.8856935 C9.95022469,13.9672311 10.153245,14.1080687 10.3812678,14.1853706 C11.0103307,14.3971564 13.4505747,14.5168155 13.6825979,14.313501 C13.6965993,14.434219 13.5825879,14.4818708 13.5825879,14.5729387 C13.5825879,14.629062 13.6455942,14.6470638 13.6575954,14.6968335 C13.6515948,14.6756549 12.6314928,14.943564 12.5384835,15.0007462 C12.4484745,15.0579284 12.3854682,15.1002856 12.293459,15.1489963 C12.1784475,15.2082964 12.0754372,15.2824214 12.0224319,15.4158466 C12.2274524,15.4190233 12.3484645,15.3385447 12.4484745,15.2517125 C12.4894786,15.2167678 12.5924889,15.1849999 12.6354932,15.1564088 C12.8545151,15.0282784 13.4875784,14.9234444 13.5495846,14.9012069 C13.5845881,14.8884997 13.6165913,14.8757925 13.6495946,14.8577907 C13.7066003,14.8291997 13.7176014,14.8154336 13.7586055,14.854614 C13.7826079,14.8757925 13.8546151,14.80908 13.8566153,14.794255 C13.8646161,14.7180121 13.8776174,14.6417691 13.883618,14.5634084 C13.8916188,14.449044 13.8686165,14.1197169 14.0026299,14.1101866 C15.233753,14.0148829 16.7439041,13.563779 16.7919089,13.5584843 C16.9019199,13.5426004 16.9079205,13.6103719 16.9569254,13.7056755 C16.9899287,13.7670934 17.0149312,13.848631 17.0269324,13.9185203 C17.0419339,14.0095883 17.0599357,14.1006562 17.082938,14.1896063 C17.1109408,14.3103242 17.1949492,14.2870278 17.2459543,14.2965582 C17.6689966,14.4013922 18.1090406,14.3367975 18.5370834,14.3198546 C18.5110808,14.3717421 18.7771074,14.3198546 18.9081205,14.343151 C19.0461343,14.3675064 19.0991396,14.4723404 19.2201517,14.5337583 C19.3161613,14.5824691 19.4271724,14.5676441 19.5251822,14.6121191 C19.6301927,14.6629477 19.9472244,14.6396513 19.9762273,14.6862442 C20.0072304,14.6470638 20.0112308,14.5962352 19.9682265,14.5676441 C19.7852082,14.4765762 19.5971894,14.4585744 19.4151712,14.3833904 C19.2141511,14.2965582 19.033133,14.1726634 18.8411138,14.0678294 C18.7421039,14.013824 18.7571054,13.6972041 18.7341031,13.5870754 C18.7010998,13.428236 18.6790976,13.2196269 18.5910888,13.084084 C18.5350832,13.0004285 18.513081,12.963366 18.5620859,12.8722981 C18.5970894,12.8045266 18.6520949,12.7367551 18.6710968,12.663689 C18.7591056,12.3364798 18.8101107,11.9446759 18.6790976,11.6217024 C18.6340931,11.5052202 18.4660763,11.2468414 18.4120709,11.1388306 L18.1710468,11.0498805 Z M18.1710468,11.0498805 C18.1710468,11.0498805 15.4207718,5.34542773 9.38116778,6.06232295 C9.38116778,6.06232295 15.0387335,5.1283472 18.4120709,11.1388306 L18.1710468,11.0498805 Z" id="locust_infestation" fill="#FFFFFF"></path>
            </g>
        </g>
    </g>
</svg>