<?xml version="1.0" encoding="UTF-8"?>
<svg width="29px" height="53px" viewBox="0 0 29 53" version="1.1" xmlns="http://www.w3.org/2000/svg" xmlns:xlink="http://www.w3.org/1999/xlink">
    <!-- Generator: Sketch 43.2 (39069) - http://www.bohemiancoding.com/sketch -->
    <title>locust_infestation_blue</title>
    <desc>Created with Sketch.</desc>
    <defs>
        <path d="M25.7417029,22.9198491 C28.1288483,19.1391515 28.4076669,16.8934171 28.4076669,13.8625579 C28.4076669,6.20664523 21.8025947,0 14.1637294,0 C6.42937829,0 0,6.20664523 0,13.8625579 C0,16.8934171 0.239351112,19.1391515 2.62649652,22.9198491 C3.68957194,24.6060402 14.1637294,35.6015691 14.1637294,52.4571792 C14.1637294,35.6015691 24.6773543,24.6060402 25.7417029,22.9198491 Z" id="path-1"></path>
    </defs>
    <g id="Maps-Pins" stroke="none" stroke-width="1" fill="none" fill-rule="evenodd">
        <g id="Artboard" transform="translate(-30.000000, -155.000000)">
            <g id="locust_infestation_blue" transform="translate(30.000000, 155.968592)">
                <g id="Imported-Layers">
                    <use fill="#131D50" fill-rule="evenodd" xlink:href="#path-1"></use>
                    <path stroke="#FFFFFF" stroke-width="1" d="M14.164653,46.028696 C13.3219308,40.658452 11.4449851,35.6430679 8.78662355,30.9570036 C7.63655075,28.9296966 6.42474842,27.1114532 5.09930791,25.3359339 C4.60680303,24.6761895 3.16818919,22.8415214 3.04945458,22.6531911 C0.991733502,19.3942268 0.5,17.4548089 0.5,13.8625579 C0.5,6.51529477 6.67232345,0.5 14.1637294,0.5 C21.609258,0.5 27.9076669,6.56283216 27.9076669,13.8625579 C27.9076669,17.3908587 27.3922352,19.3692519 25.3189249,22.6529056 L25.3188889,22.6529627 C25.1993937,22.8422726 23.7528928,24.6813647 23.2626072,25.335924 C21.9318971,27.1124979 20.7157985,28.9308449 19.5615108,30.9584519 C16.893857,35.6444182 15.010374,40.659216 14.164653,46.028696 Z"></path>
                </g>
                <path d="M21.2617462,16.2918941 C21.2974198,16.280928 21.3791239,16.2870203 21.3745209,16.240719 C21.3630133,16.173704 21.3561087,16.1042522 21.3446011,16.0384556 C21.3319427,15.9421978 21.311229,15.843503 21.2928168,15.7484636 C21.2571431,15.5632586 21.1961528,15.4024226 21.122504,15.2257468 C21.0661166,15.3086017 21.0028247,15.4499423 20.9268744,15.4986805 C20.8279089,15.5559478 20.7105311,15.5559478 20.5989072,15.5717877 C20.5045447,15.5851907 20.4481573,15.3512476 20.4366497,15.2842326 C20.4193883,15.1526395 20.4147852,15.0527263 20.3745086,14.9235702 C20.2858999,14.9637792 20.2571308,14.9272255 20.1696729,14.9747452 C20.106381,15.0076435 20.0350337,15.0295757 19.9694403,15.0636924 C19.8842839,15.0990276 19.8301981,15.1709164 19.7519462,15.2147807 C19.733534,15.2257468 19.7220264,15.2488974 19.7001619,15.2549897 C19.6863528,15.2623004 19.6529807,15.2330575 19.63687,15.2415867 C19.608101,15.2549897 19.5873872,15.2769219 19.5735781,15.3110386 C19.5494121,15.3865827 19.6138548,15.4767483 19.6437746,15.5474187 C19.7001619,15.6790117 19.753097,15.8106047 19.8094843,15.9434162 C19.8324996,16.001902 19.8566656,16.1115629 19.9038468,16.149335 C19.9625357,16.1980731 20.1558637,16.2711804 20.2617339,16.2784911 L21.2617462,16.2918941 Z M8.72649384,15.2415867 C8.71383546,15.2549897 8.70232784,15.2817957 8.68851869,15.2976356 C9.08207935,15.3402815 9.47564002,15.3536845 9.86459763,15.3975488 C10.0602272,15.4182625 10.2685152,15.4133887 10.4641447,15.3938934 C10.5389443,15.3865827 10.6931464,15.3780535 10.7449307,15.3268785 C10.8266348,15.2549897 10.8669115,14.8967642 10.8600069,14.8699582 C10.8346901,14.781011 10.5930301,14.794414 10.5320397,14.7871033 C10.4077574,14.7676081 10.2846258,14.7176514 10.1614943,14.7176514 C10.0349104,14.7176514 9.9140804,14.716433 9.78749657,14.6932824 C9.55389184,14.6579472 9.27770892,14.5092958 9.04640573,14.636015 C8.9589478,14.6823163 8.84387158,14.8321861 8.84387158,14.9394101 C8.84387158,15.0710031 8.74950908,15.1124306 8.72649384,15.2415867 L8.72649384,15.2415867 Z M12.0130706,12.3867488 C11.9451756,12.3319184 11.880733,12.2807433 11.8082349,12.2332236 C11.7437923,12.4184286 11.6897064,12.5987598 11.5953439,12.7717803 C11.9359695,12.8107708 12.286952,12.8302661 12.6218238,12.9106841 C12.4307973,12.7279159 12.2374692,12.5207788 12.0130706,12.3867488 L12.0130706,12.3867488 Z M12.3813145,10.7844817 C12.2512784,11.0671631 12.1592174,11.3705581 12.0395381,11.6581133 C11.9877538,11.7823956 12.0441412,11.7823956 12.1408052,11.8542844 C12.194891,11.8920565 12.2420723,11.9407946 12.2938566,11.9858774 C12.4089328,12.0882276 12.5228583,12.1503687 12.659799,12.2125099 C12.945188,12.3404476 13.1454206,12.56708 13.399739,12.7413189 C13.5148152,12.8193 13.660962,12.9411454 13.7956012,12.9667329 C13.9751201,12.9996312 14.0936486,12.9947574 14.2720168,12.9667329 C14.0671811,12.3830934 13.8577424,11.8067647 13.5320767,11.2877032 C13.3974375,11.0720369 13.2133156,10.7881371 12.9912185,10.6687286 C12.8646346,10.6041505 12.7679706,10.4920527 12.6218238,10.4810867 C12.5182552,10.4725575 12.5205567,10.5078926 12.471074,10.6041505 C12.4423049,10.6638548 12.4112343,10.7247775 12.3813145,10.7844817 L12.3813145,10.7844817 Z M10.2236354,12.5914491 C10.1879618,12.674304 10.1476851,12.7595958 10.1120115,12.8412322 C10.3927975,12.8132077 10.6712819,12.8010232 10.9520679,12.8010232 C11.0222644,12.8010232 11.1120238,12.8168631 11.1120238,12.7352267 C11.1120238,12.6791778 11.2236478,12.6304396 11.2581706,12.5792646 C11.343327,12.4427977 11.3836037,12.2953648 11.4307849,12.1369657 C11.4020159,12.1954515 11.4710616,11.9968435 11.5044337,11.9590714 C11.3790007,11.8676874 11.2086878,11.6873562 11.057938,11.6508026 C10.9094897,11.6179043 10.6056885,12.0687323 10.583824,12.0931014 L10.2236354,12.5914491 Z M20.9084622,12.714513 C20.749657,12.6499349 20.8014413,12.7279159 20.6391839,12.7547219 C20.483831,12.7839648 20.2812968,12.712076 20.1466577,12.8412322 C20.1086825,12.8777858 20.1201901,12.9350531 20.0661043,12.9082471 C20.0235261,12.8924072 19.9855509,12.8704751 19.9406712,12.8570721 C19.8324996,12.832703 19.7427401,12.8302661 19.6345685,12.8400137 C19.0637904,12.8924072 18.5171784,12.765688 17.9533049,12.8132077 C17.2432847,12.8704751 16.5332644,12.8509798 15.8197919,12.8814412 C15.7254294,12.886315 15.6356699,12.8948442 15.5459105,12.8948442 C15.427382,12.8948442 15.3848038,12.9350531 15.3007981,12.832703 C15.1799681,12.6901439 15.078701,12.5183418 14.9509664,12.3806565 C14.6851404,12.0882276 14.411259,11.8360076 14.1799558,11.5082434 C14.0671811,11.3547182 13.9567079,11.201193 13.845084,11.0452309 C13.7369123,10.8929241 13.6045747,10.790574 13.4779909,10.6528887 C13.1995064,10.3519305 12.9003082,9.97542821 12.5078983,9.85967508 C12.3053642,9.79875237 12.170725,9.97542821 12.1477098,10.1935315 C12.1362022,10.3190323 11.720777,11.3132908 11.7472445,11.3059801 C11.6805003,11.32182 11.7368877,11.4814374 11.6218115,11.4887482 C11.246663,11.5192095 11.1592051,10.7016268 10.7207647,10.868555 C10.5090244,10.9465361 10.3479177,11.2864848 10.4422802,11.5082434 C10.4940645,11.6361811 10.5723164,11.7226913 10.4422802,11.8299153 C10.3364101,11.9164255 9.88646211,12.5293079 9.94054793,12.513468 C9.90487431,12.5232157 9.83007477,12.6791778 9.79670266,12.714513 C9.73110922,12.779091 9.66896806,12.8168631 9.58151014,12.8412322 C9.39623743,12.8948442 9.16033118,12.8704751 8.97160618,12.846106 C8.78978576,12.8253923 8.61947296,12.7815279 8.43650177,12.8010232 C8.24547525,12.8168631 8.07286093,12.8948442 7.91750803,13.0191265 C7.84155773,13.0800492 7.78286886,13.1409719 7.72187846,13.216516 C7.66203883,13.2896233 7.65743578,13.4321824 7.63902359,13.5260034 C7.45720316,14.3594259 8.26618897,14.1790947 8.63213134,14.4215671 C8.75641366,14.5019851 8.41463729,14.9126041 8.387019,14.9991143 C8.37436062,15.0441971 8.36055147,15.0856246 8.34213928,15.1282705 C8.30416412,15.2147807 8.30646565,15.2001592 8.22361077,15.1684794 C7.62521444,14.9406285 7.03947649,14.7005931 6.47215074,14.3947611 C6.42496949,14.370392 6.40080349,14.3387122 6.3731852,14.4020718 C6.36282834,14.4313147 6.35592376,14.4666499 6.36743139,14.4971113 C6.58262391,15.046634 7.30875484,15.1636056 7.73798913,15.4621269 C7.8058841,15.5072097 7.87032678,15.5547294 7.9428248,15.5937199 C8.10623303,15.6826671 8.10162998,15.6790117 8.03258425,15.8629983 C7.95433242,16.0750093 7.85076383,16.2894572 7.75179828,16.4965944 C7.67930026,16.6391535 7.59184234,16.8133924 7.54466109,16.9644807 C7.50898746,17.0741416 7.49747984,17.2569097 7.41922801,17.34342 C7.34212695,17.4238379 7.18102024,17.4798868 7.08895927,17.5371541 C6.9359079,17.6358489 6.76214281,17.6931163 6.61599601,17.7979033 C6.42496949,17.939244 6.31334556,17.9745792 6.08549465,17.9989482 C6.02105197,18.0074774 5.63439588,18.164658 5.78974877,18.3108725 C5.8254224,18.3474261 6.11771599,18.1232306 6.18215868,18.1037353 C6.13497743,18.1744056 6.69309708,17.9477732 6.72186613,17.9234041 C6.79436415,17.8612629 7.33522237,17.6626549 7.41002191,17.633412 C7.47561536,17.6090429 7.81393944,17.6626549 7.83695468,17.5066928 C7.85536688,17.394595 7.8484623,17.2703127 7.88183441,17.1630887 C7.91060346,17.0692678 8.03028273,16.7573435 8.05905178,16.6769256 C8.11543913,16.5343665 8.37666214,15.8215708 8.42384339,15.8081678 C8.45031092,15.7996386 8.5331658,15.8776197 8.56999019,15.8885858 C9.12695908,16.0713539 9.70924474,16.1651749 10.2892289,16.0847569 C10.322601,16.0774462 10.6264022,16.0177419 10.6171961,16.0664801 C10.5861255,16.20051 10.4572402,16.7329745 10.6597743,16.8292323 C10.5182305,16.9108688 10.3053395,16.9985975 10.1453836,17.0254034 C9.94515098,17.0631755 9.73341074,17.1362828 9.52972584,17.155778 C9.40774505,17.1716179 8.85307768,17.542028 8.81855481,17.6395043 C9.10279307,17.4798868 9.39853895,17.4128718 9.70464169,17.3287985 C9.79670266,17.3019925 10.8669115,16.9535146 10.8600069,17.0120004 C10.8738161,16.9072134 10.8807206,16.8036448 10.9094897,16.7037316 C10.9359572,16.6147844 10.9256004,16.5173081 10.9520679,16.4320163 C10.9808369,16.3381953 11.0084552,16.2419375 11.0349228,16.1444611 C11.0625411,16.0469848 11.0751994,15.937324 11.1879741,15.9775329 C11.4491971,16.0713539 11.6828019,16.2334083 11.9451756,16.3223554 C12.669005,16.5660463 15.4768648,16.7037316 15.7438416,16.4697884 C15.7599522,16.6086921 15.6287654,16.6635226 15.6287654,16.7683096 C15.6287654,16.8328877 15.7012634,16.8536014 15.7150725,16.9108688 C15.7081679,16.8864997 14.5343905,17.1947686 14.4273696,17.2605651 C14.3238011,17.3263616 14.251303,17.3750998 14.1454329,17.4311486 C14.0130953,17.4993821 13.8945668,17.5846739 13.8335764,17.7381991 C14.0694826,17.7418544 14.2087248,17.6492519 14.3238011,17.5493387 C14.3709823,17.5091297 14.4895108,17.4725761 14.5389936,17.4396778 C14.7910105,17.2922449 15.519443,17.1716179 15.5907902,17.1460304 C15.6310669,17.1314089 15.6678913,17.1167875 15.7058664,17.0960738 C15.7714599,17.0631755 15.7841183,17.0473356 15.8312995,17.0924184 C15.8589178,17.1167875 15.9417727,17.0400249 15.9440742,17.0229665 C15.9532803,16.9352378 15.9682402,16.8475091 15.9751448,16.7573435 C15.9843509,16.6257505 15.9578833,16.2468113 16.1120855,16.2358452 C17.5286737,16.1261843 19.2663246,15.6071229 19.3215612,15.6010306 C19.448145,15.5827538 19.4550496,15.6607349 19.5114369,15.7703958 C19.5494121,15.8410661 19.5781811,15.9348871 19.5919903,16.015305 C19.6092517,16.1200921 19.6299654,16.2248791 19.656433,16.3272293 C19.6886543,16.466133 19.7853183,16.439327 19.8440072,16.4502931 C20.3307796,16.5709201 20.837115,16.4965944 21.3296412,16.4770991 C21.2997213,16.5368034 21.6058241,16.4770991 21.7565739,16.5039051 C21.9153791,16.5319295 21.9763695,16.6525565 22.1156117,16.7232268 C22.2260849,16.7792757 22.3538195,16.7622174 22.4665942,16.8133924 C22.5874242,16.8718782 22.9522158,16.8450722 22.9855879,16.8986842 C23.0212616,16.8536014 23.0258646,16.7951156 22.9763818,16.7622174 C22.7657924,16.6574303 22.5494491,16.6367166 22.3400104,16.5502064 C22.1087072,16.4502931 21.9004192,16.307734 21.6794729,16.187107 C21.5655474,16.1249659 21.5828088,15.7606481 21.5563413,15.6339289 C21.5183662,15.4511608 21.4930494,15.2111253 21.3917823,15.0551632 C21.3273396,14.9589053 21.3020229,14.9162595 21.3584102,14.8114724 C21.3986869,14.7334913 21.4619788,14.6555103 21.4838433,14.571437 C21.5851104,14.1949346 21.6437992,13.7441066 21.4930494,13.3724781 C21.4412651,13.2384482 21.2479371,12.9411454 21.1857959,12.8168631 L20.9084622,12.714513 Z M20.9084622,12.714513 C20.9084622,12.714513 17.7438662,6.1507009 10.7944135,6.9755943 C10.7944135,6.9755943 17.3042751,5.90091782 21.1857959,12.8168631 L20.9084622,12.714513 Z" id="locust_infestation" fill="#FFFFFF"></path>
            </g>
        </g>
    </g>
</svg>