<?xml version="1.0" encoding="UTF-8"?>
<svg width="25px" height="46px" viewBox="0 0 25 46" version="1.1" xmlns="http://www.w3.org/2000/svg" xmlns:xlink="http://www.w3.org/1999/xlink">
    <!-- Generator: Sketch 43.2 (39069) - http://www.bohemiancoding.com/sketch -->
    <title>population_displacement_red</title>
    <desc>Created with Sketch.</desc>
    <defs>
        <path d="M22.3715012,19.9190952 C24.4461124,16.633381 24.688427,14.6816667 24.688427,12.047619 C24.688427,5.39404762 18.948116,0 12.30936,0 C5.58761962,0 0,5.39404762 0,12.047619 C0,14.6816667 0.208014354,16.633381 2.2826256,19.9190952 C3.20651914,21.3845238 12.30936,30.9404762 12.30936,45.5892857 C12.30936,30.9404762 21.4465012,21.3845238 22.3715012,19.9190952 Z" id="path-1"></path>
    </defs>
    <g id="Maps-Pins" stroke="none" stroke-width="1" fill="none" fill-rule="evenodd">
        <g id="Artboard" transform="translate(-200.000000, -87.000000)">
            <g id="population_displacement_red" transform="translate(200.000000, 87.000000)">
                <g id="Imported-Layers">
                    <use fill="#CE2912" fill-rule="evenodd" xlink:href="#path-1"></use>
                    <path stroke="#FFFFFF" stroke-width="1" d="M12.3102819,39.595356 C11.5479953,35.0696072 9.941628,30.8351718 7.69318342,26.8716945 C6.69222137,25.1072345 5.63758873,23.5248157 4.48414442,21.9796972 C4.05413496,21.4036698 2.80666839,19.8127722 2.70558366,19.6524373 C0.924293538,16.831277 0.5,15.1578451 0.5,12.047619 C0.5,5.69882412 5.83453892,0.5 12.30936,0.5 C18.7444847,0.5 24.188427,5.74032491 24.188427,12.047619 C24.188427,15.1021552 23.7436316,16.8094235 21.9487232,19.6521518 L21.9486872,19.6522089 C21.8469623,19.8133663 20.5927013,21.408043 20.1645843,21.9796037 C19.0065559,23.5256377 17.9481849,25.1081457 16.9435541,26.8728673 C14.6872469,30.8362675 13.0752791,35.0702291 12.3102819,39.595356 Z"></path>
                </g>
                <path d="M13.1842446,15.4138583 L16.0984867,15.4138583 L16.0984867,16.2804223 L18.9958937,14.6075463 L16.0984867,12.9346703 L16.0984867,13.8003482 L13.1842446,13.8003482 L13.1842446,15.4138583 Z M11.145427,11.0145844 L12.2529985,12.7849266 C12.4107167,13.0339087 12.7376718,13.1145399 12.9901981,12.9656823 C13.2444965,12.8159386 13.3331022,12.4916417 13.1913331,12.2337991 L12.9104529,11.7252022 C12.6667872,11.2901482 12.4275518,10.854208 12.1856581,10.4173818 L11.6903522,9.52069194 C11.6354166,9.41702325 11.578709,9.30183582 11.5193431,9.17778781 C11.2145395,8.53894057 10.7404989,7.55275892 9.6984956,7.64313675 C8.80978024,7.72022373 7.90600191,8.14375907 7.01640049,8.89867979 C5.96110637,9.7306875 5.2256789,10.9366113 5.19555296,10.9888887 C5.16099673,11.0429382 5.12821261,11.0961016 5.10251695,11.1466069 C5.10074484,11.1492651 5.09897272,11.1501511 5.09720061,11.1519232 L5.09720061,11.1528093 C4.99884826,11.3388813 4.95011512,11.5098903 5.07327707,11.7252022 C5.1698573,11.8953252 5.35149902,12.000766 5.54731766,12.000766 C5.78389493,12.000766 5.90528477,11.8891228 6.02313037,11.7189998 C6.02490249,11.7181138 6.02490249,11.7163417 6.02490249,11.7145695 C6.05768661,11.6667225 6.09047072,11.613559 6.12502695,11.5577374 C6.13211541,11.5479908 6.74969727,10.5573789 7.70486692,9.74220624 C7.99903791,9.51094531 8.27991804,9.35145502 8.54484914,9.26462141 L8.33130936,11.8421618 C8.31093004,12.0973463 8.22941278,12.5368306 8.16030032,12.7831545 L7.68094338,14.463119 C7.61891938,14.6748866 7.43904977,15.0266513 7.29816667,15.1994325 L6.00363712,16.803196 C5.83971654,17.0078752 5.65275847,17.2391361 5.80693242,17.5581167 C5.8964242,17.7468469 6.08869861,17.8673507 6.29869416,17.8673507 C6.54944835,17.8673507 6.68412904,17.7220373 6.85336596,17.5386235 L8.16561666,16.1244762 C8.39953576,15.8728359 8.70345338,15.4333516 8.8540831,15.1241176 L9.50533514,13.8003482 L11.9109804,17.8425411 C12.02794,18.04279 12.1767976,18.29 12.5037527,18.29 C12.6907107,18.29 12.8626058,18.1951918 12.9627303,18.0392458 C13.1337393,17.7734286 13.019438,17.5288768 12.9193135,17.3126789 L10.974418,13.0861861 C10.898217,12.9213794 10.8565724,12.5829056 10.8893565,12.403036 L11.145427,11.0145844 Z M11.5370643,6.05000592 C11.6478214,6.73226996 11.1870717,7.37643354 10.5056937,7.4889628 C9.82165755,7.60060601 9.17660792,7.13808416 9.06585077,6.45670618 C8.95332151,5.77267002 9.4149573,5.12850645 10.0989935,5.01686324 C10.7803714,4.90433398 11.4263071,5.36685583 11.5370643,6.05000592 L11.5370643,6.05000592 Z" id="population_displacement" fill="#FFFFFF"></path>
            </g>
        </g>
    </g>
</svg>