<?xml version="1.0" encoding="UTF-8"?>
<svg width="25px" height="46px" viewBox="0 0 25 46" version="1.1" xmlns="http://www.w3.org/2000/svg" xmlns:xlink="http://www.w3.org/1999/xlink">
    <!-- Generator: Sketch 43.2 (39069) - http://www.bohemiancoding.com/sketch -->
    <title>population_return_red</title>
    <desc>Created with Sketch.</desc>
    <defs>
        <path d="M22.3715012,19.9190952 C24.4461124,16.633381 24.688427,14.6816667 24.688427,12.047619 C24.688427,5.39404762 18.948116,0 12.30936,0 C5.58761962,0 0,5.39404762 0,12.047619 C0,14.6816667 0.208014354,16.633381 2.2826256,19.9190952 C3.20651914,21.3845238 12.30936,30.9404762 12.30936,45.5892857 C12.30936,30.9404762 21.4465012,21.3845238 22.3715012,19.9190952 Z" id="path-1"></path>
    </defs>
    <g id="Maps-Pins" stroke="none" stroke-width="1" fill="none" fill-rule="evenodd">
        <g id="Artboard" transform="translate(-234.000000, -87.000000)">
            <g id="population_return_red" transform="translate(234.000000, 87.000000)">
                <g id="Imported-Layers">
                    <use fill="#CE2912" fill-rule="evenodd" xlink:href="#path-1"></use>
                    <path stroke="#FFFFFF" stroke-width="1" d="M12.3102819,39.595356 C11.5479953,35.0696072 9.941628,30.8351718 7.69318342,26.8716945 C6.69222137,25.1072345 5.63758873,23.5248157 4.48414442,21.9796972 C4.05413496,21.4036698 2.80666839,19.8127722 2.70558366,19.6524373 C0.924293538,16.831277 0.5,15.1578451 0.5,12.047619 C0.5,5.69882412 5.83453892,0.5 12.30936,0.5 C18.7444847,0.5 24.188427,5.74032491 24.188427,12.047619 C24.188427,15.1021552 23.7436316,16.8094235 21.9487232,19.6521518 L21.9486872,19.6522089 C21.8469623,19.8133663 20.5927013,21.408043 20.1645843,21.9796037 C19.0065559,23.5256377 17.9481849,25.1081457 16.9435541,26.8728673 C14.6872469,30.8362675 13.0752791,35.0702291 12.3102819,39.595356 Z"></path>
                </g>
                <path d="M19.2465841,11.9152435 C19.2465841,10.1521072 17.8121532,8.71767627 16.0490169,8.71767627 L14.6898958,8.71767627 L14.6898958,10.3328508 L16.0490169,10.3328508 C16.921725,10.3328508 17.6314095,11.0425353 17.6314095,11.9152435 C17.6314095,12.7879516 16.921725,13.4994081 16.0490169,13.4994081 L15.7654975,13.4994081 L15.7654975,12.633788 L12.8691696,14.3056664 L15.7654975,15.9784309 L15.7654975,15.1119247 L16.0817988,15.1119247 L16.0817988,15.1083807 C17.8298731,15.0906607 19.2465841,13.6677478 19.2465841,11.9152435 L19.2465841,11.9152435 Z M11.1450173,11.0141834 L12.253401,12.7852936 C12.4102226,13.0342591 12.7371559,13.1148849 12.9905514,12.9660373 C13.2448328,12.8163036 13.3325467,12.4911423 13.190787,12.2333168 L12.9099256,11.7247539 C12.6662761,11.2897288 12.4279426,10.8538177 12.1851791,10.4179067 L11.6907921,9.52039056 C11.6340883,9.41761478 11.5791564,9.30154903 11.5189085,9.17750929 C11.2150112,8.53870465 10.7392302,7.55258874 9.69995437,7.64384654 C8.80952626,7.72092838 7.90669417,8.14354948 7.01626606,8.89930588 C5.9619283,9.73037212 5.22566386,10.9371016 5.19553992,10.9884894 C5.16187199,11.0434213 5.12909006,11.0956952 5.10251012,11.1461971 C5.10073812,11.1488551 5.09896613,11.1506271 5.09719413,11.1523991 L5.09719413,11.1532851 C4.99884834,11.3393447 4.95011844,11.5094563 5.07327218,11.7247539 C5.16984598,11.8957515 5.35058959,12.0011853 5.54728118,12.0011853 C5.78384267,12.0011853 5.90522442,11.8895495 6.02217617,11.7185519 C6.02394816,11.7176659 6.02394816,11.7158939 6.02572016,11.7141219 C6.05761609,11.666278 6.08951203,11.6131181 6.12495195,11.5581862 C6.13203994,11.5475543 6.75046662,10.5570084 7.7055726,9.74189009 C7.99972397,9.51064458 8.28058538,9.35116492 8.54461282,9.26433711 L8.33108727,11.8417056 C8.31070931,12.0968731 8.22919749,12.5363282 8.16008963,12.7826356 L7.68165065,14.4624881 C7.61874478,14.6742416 7.43800117,15.0268689 7.29801346,15.1987525 L6.00357021,16.8032951 C5.83966056,17.0070747 5.65360095,17.2383202 5.80776462,17.5572795 C5.89725043,17.7459971 6.08774003,17.8664929 6.29860758,17.8664929 C6.54845905,17.8664929 6.68313077,17.7220752 6.8550144,17.5386736 L8.16540562,16.1237346 C8.39842313,15.8721111 8.70320648,15.433542 8.85382616,15.1234427 L9.50503478,13.7997615 L11.9105197,17.8425709 C12.0292434,18.0419205 12.1772051,18.29 12.5041384,18.29 C12.690198,18.29 12.8620817,18.1943122 12.9621994,18.0383765 C13.1331971,17.7725771 13.0197893,17.5280416 12.9196715,17.311858 L10.9749057,13.085647 C10.8987098,12.9208514 10.8561819,12.5824001 10.8880778,12.4025424 L11.1450173,11.0141834 Z M11.5366285,6.04993592 C11.6482642,6.73215448 11.1857732,7.37627511 10.5044407,7.48879687 C9.82045011,7.60043264 9.17721548,7.13794162 9.06557971,6.45660906 C8.95394395,5.77261851 9.41466297,5.12849788 10.0986535,5.01686212 C10.7799861,4.90434035 11.4267647,5.36683137 11.5366285,6.04993592 L11.5366285,6.04993592 Z" id="populaition_return" fill="#FFFFFF"></path>
            </g>
        </g>
    </g>
</svg>