<?xml version="1.0" encoding="UTF-8"?>
<svg width="30px" height="52px" viewBox="0 0 30 52" version="1.1" xmlns="http://www.w3.org/2000/svg" xmlns:xlink="http://www.w3.org/1999/xlink">
    <!-- Generator: Sketch 43.2 (39069) - http://www.bohemiancoding.com/sketch -->
    <title>population_return_blue</title>
    <desc>Created with Sketch.</desc>
    <defs>
        <path d="M25.7417029,22.9198491 C28.1288483,19.1391515 28.4076669,16.8934171 28.4076669,13.8625579 C28.4076669,6.20664523 21.8025947,0 14.1637294,0 C6.42937829,0 0,6.20664523 0,13.8625579 C0,16.8934171 0.239351112,19.1391515 2.62649652,22.9198491 C3.68957194,24.6060402 14.1637294,35.6015691 14.1637294,52.4571792 C14.1637294,35.6015691 24.6773543,24.6060402 25.7417029,22.9198491 Z" id="path-1"></path>
    </defs>
    <g id="Maps-Pins" stroke="none" stroke-width="1" fill="none" fill-rule="evenodd">
        <g id="Artboard" transform="translate(-264.000000, -95.000000)">
            <g id="population_return_blue" transform="translate(264.732008, 94.984296)">
                <g id="Imported-Layers">
                    <use fill="#131D50" fill-rule="evenodd" xlink:href="#path-1"></use>
                    <path stroke="#FFFFFF" stroke-width="1" d="M14.164653,46.028696 C13.3219308,40.658452 11.4449851,35.6430679 8.78662355,30.9570036 C7.63655075,28.9296966 6.42474842,27.1114532 5.09930791,25.3359339 C4.60680303,24.6761895 3.16818919,22.8415214 3.04945458,22.6531911 C0.991733502,19.3942268 0.5,17.4548089 0.5,13.8625579 C0.5,6.51529477 6.67232345,0.5 14.1637294,0.5 C21.609258,0.5 27.9076669,6.56283216 27.9076669,13.8625579 C27.9076669,17.3908587 27.3922352,19.3692519 25.3189249,22.6529056 L25.3188889,22.6529627 C25.1993937,22.8422726 23.7528928,24.6813647 23.2626072,25.335924 C21.9318971,27.1124979 20.7157985,28.9308449 19.5615108,30.9584519 C16.893857,35.6444182 15.010374,40.659216 14.164653,46.028696 Z"></path>
                </g>
                <path d="M22.1460261,13.7102403 C22.1460261,11.6814927 20.4955023,10.0309689 18.4667547,10.0309689 L16.9028859,10.0309689 L16.9028859,11.8894648 L18.4667547,11.8894648 C19.4709338,11.8894648 20.2875302,12.7060612 20.2875302,13.7102403 C20.2875302,14.7144194 19.4709338,15.5330548 18.4667547,15.5330548 L18.1405239,15.5330548 L18.1405239,14.5370314 L14.8078727,16.4607735 L18.1405239,18.3855351 L18.1405239,17.3884923 L18.5044751,17.3884923 L18.5044751,17.3844144 C20.5158917,17.364025 22.1460261,15.7267543 22.1460261,13.7102403 L22.1460261,13.7102403 Z M12.8239818,12.6734381 L14.0993402,14.711361 C14.2797866,14.9978324 14.6559715,15.0906043 14.9475402,14.9193331 C15.2401285,14.7470425 15.3410561,14.3728966 15.1779407,14.0762305 L14.8547684,13.491054 C14.5744138,12.9904937 14.300176,12.4889139 14.0208409,11.987334 L13.451976,10.9546098 C13.3867299,10.8363511 13.3235227,10.7028004 13.2541986,10.5600744 C12.90452,9.8250357 12.357064,8.6903643 11.1612243,8.79536983 C10.1366558,8.88406382 9.09781469,9.37035156 8.07324617,10.2399605 C6.86007548,11.1962244 6.01289494,12.5847441 5.97823292,12.6438735 C5.93949302,12.7070807 5.90177259,12.7672295 5.87118845,12.8253393 C5.86914951,12.8283978 5.86711057,12.8304367 5.86507162,12.8324756 L5.86507162,12.8334951 C5.75191032,13.0475841 5.69583941,13.2433225 5.8375459,13.491054 C5.94866826,13.6878119 6.15664038,13.809129 6.38296298,13.809129 C6.65516178,13.809129 6.79482933,13.6806756 6.92939952,13.4839177 C6.93143846,13.4828982 6.93143846,13.4808593 6.9334774,13.4788204 C6.97017837,13.4237689 7.00687933,13.3626006 7.04765817,13.2993934 C7.05581394,13.2871598 7.76740482,12.147391 8.86639473,11.2094775 C9.20485916,10.9433956 9.52803152,10.7598908 9.83183392,10.6599826 L9.58614137,13.6256242 C9.56269354,13.9192319 9.46890219,14.4248896 9.38938344,14.7083026 L8.83886901,16.6412199 C8.76648656,16.8848735 8.55851444,17.290623 8.397438,17.4884004 L6.90799062,19.3346627 C6.71938846,19.5691411 6.50529951,19.8352231 6.6826875,20.2022327 C6.78565409,20.41938 7.00484039,20.5580281 7.24747452,20.5580281 C7.53496539,20.5580281 7.68992501,20.3918543 7.88770241,20.1808238 L9.39550027,18.5527283 C9.66362118,18.2631985 10.0143193,17.7585603 10.1876294,17.4017454 L10.9369407,15.8786555 L13.7048049,20.5305024 C13.841414,20.7598834 14.0116657,21.0453353 14.3878506,21.0453353 C14.6019395,21.0453353 14.7997169,20.9352325 14.9149172,20.7558055 C15.1116751,20.4499642 14.9811828,20.1685901 14.8659825,19.9198392 L12.6282433,15.0569617 C12.5405688,14.8673401 12.4916342,14.4779021 12.5283352,14.2709495 L12.8239818,12.6734381 Z M13.274588,6.9613412 C13.4030414,7.746334 12.8708775,8.48748954 12.0869041,8.61696237 C11.2998724,8.74541574 10.5597363,8.21325179 10.431283,7.42927847 C10.3028296,6.64224673 10.8329546,5.90109119 11.6199863,5.77263782 C12.4039597,5.64316499 13.1481736,6.17532893 13.274588,6.9613412 L13.274588,6.9613412 Z" id="populaition_return" fill="#FFFFFF"></path>
            </g>
        </g>
    </g>
</svg>