<?xml version="1.0" encoding="UTF-8"?>
<svg width="29px" height="53px" viewBox="0 0 29 53" version="1.1" xmlns="http://www.w3.org/2000/svg" xmlns:xlink="http://www.w3.org/1999/xlink">
    <!-- Generator: Sketch 43.2 (39069) - http://www.bohemiancoding.com/sketch -->
    <title>population_displacement_blue</title>
    <desc>Created with Sketch.</desc>
    <defs>
        <path d="M25.7417029,22.9198491 C28.1288483,19.1391515 28.4076669,16.8934171 28.4076669,13.8625579 C28.4076669,6.20664523 21.8025947,0 14.1637294,0 C6.42937829,0 0,6.20664523 0,13.8625579 C0,16.8934171 0.239351112,19.1391515 2.62649652,22.9198491 C3.68957194,24.6060402 14.1637294,35.6015691 14.1637294,52.4571792 C14.1637294,35.6015691 24.6773543,24.6060402 25.7417029,22.9198491 Z" id="path-1"></path>
    </defs>
    <g id="Maps-Pins" stroke="none" stroke-width="1" fill="none" fill-rule="evenodd">
        <g id="Artboard" transform="translate(-225.000000, -95.000000)">
            <g id="population_displacement_blue" transform="translate(225.610006, 94.984296)">
                <g id="Imported-Layers">
                    <use fill="#131D50" fill-rule="evenodd" xlink:href="#path-1"></use>
                    <path stroke="#FFFFFF" stroke-width="1" d="M14.164653,46.028696 C13.3219308,40.658452 11.4449851,35.6430679 8.78662355,30.9570036 C7.63655075,28.9296966 6.42474842,27.1114532 5.09930791,25.3359339 C4.60680303,24.6761895 3.16818919,22.8415214 3.04945458,22.6531911 C0.991733502,19.3942268 0.5,17.4548089 0.5,13.8625579 C0.5,6.51529477 6.67232345,0.5 14.1637294,0.5 C21.609258,0.5 27.9076669,6.56283216 27.9076669,13.8625579 C27.9076669,17.3908587 27.3922352,19.3692519 25.3189249,22.6529056 L25.3188889,22.6529627 C25.1993937,22.8422726 23.7528928,24.6813647 23.2626072,25.335924 C21.9318971,27.1124979 20.7157985,28.9308449 19.5615108,30.9584519 C16.893857,35.6444182 15.010374,40.659216 14.164653,46.028696 Z"></path>
                </g>
                <path d="M15.1704128,17.7359113 L18.523677,17.7359113 L18.523677,18.7330206 L21.8575699,16.8081307 L18.523677,14.8832408 L18.523677,15.8793306 L15.1704128,15.8793306 L15.1704128,17.7359113 Z M12.8244532,12.6738995 L14.0988771,14.7109387 C14.2803551,14.9974292 14.656565,15.0902073 14.9471337,14.9189247 C15.2397414,14.7466226 15.3416953,14.3734713 15.1785691,14.0767854 L14.8553752,13.4915699 C14.5750019,12.9909762 14.2997263,12.4893629 14.0213921,11.9867301 L13.4514698,10.9549565 C13.3882583,10.8356705 13.3230078,10.7031304 13.2546987,10.5603949 C12.9039773,9.82530717 12.3585238,8.69056012 11.1595458,8.79455311 C10.1369481,8.88325301 9.09701813,9.37059272 8.07340084,10.2392401 C6.85912974,11.1965873 6.01291225,12.5841801 5.97824792,12.6443329 C5.9384859,12.7065248 5.90076295,12.7676971 5.87119631,12.8258108 C5.86915724,12.8288695 5.86711816,12.829889 5.86507908,12.8319281 L5.86507908,12.8329476 C5.75191024,13.0470508 5.69583558,13.2438219 5.83755152,13.4915699 C5.94868129,13.6873214 6.15768681,13.8086466 6.38300496,13.8086466 C6.65522191,13.8086466 6.79489877,13.6801846 6.93049747,13.4844331 C6.93253655,13.4834136 6.93253655,13.4813745 6.93253655,13.4793354 C6.9702595,13.4242803 7.00798245,13.363108 7.04774447,13.298877 C7.05590079,13.2876621 7.76651956,12.1478173 8.86558275,11.2098413 C9.20406974,10.9437416 9.52726365,10.7602246 9.83210585,10.6603097 L9.58639692,13.6261491 C9.56294752,13.9197763 9.46914992,14.4254677 9.38962587,14.7088996 L8.83805519,16.6419458 C8.76668745,16.8856157 8.55972101,17.2903727 8.39761429,17.4891828 L6.90806761,19.3345487 C6.71945287,19.5700622 6.50433012,19.8361619 6.68172993,20.203196 C6.78470338,20.4203579 7.00594337,20.5590152 7.24757415,20.5590152 C7.53610372,20.5590152 7.69107367,20.3918108 7.88580564,20.1807662 L9.3957431,18.5535817 C9.66490143,18.2640326 10.0146034,17.7583412 10.187925,17.402522 L10.9372863,15.8793306 L13.705335,20.5304681 C13.8399142,20.7608839 14.0111968,21.0453353 14.3874067,21.0453353 C14.6025295,21.0453353 14.80032,20.9362447 14.915528,20.7568058 C15.112299,20.450944 14.9807785,20.1695512 14.8655706,19.9207837 L12.6276822,15.057582 C12.5400018,14.8679477 12.4920834,14.4784838 12.5298064,14.2715173 L12.8244532,12.6738995 Z M13.2750895,6.96142175 C13.4025319,7.74646688 12.8723715,8.48767183 12.088346,8.6171533 C11.3012617,8.74561523 10.5590373,8.2134158 10.4315949,7.42939021 C10.3021134,6.642306 10.8332933,5.90110105 11.6203775,5.77263912 C12.4044031,5.64315765 13.1476471,6.17535708 13.2750895,6.96142175 L13.2750895,6.96142175 Z" id="population_displacement" fill="#FFFFFF"></path>
            </g>
        </g>
    </g>
</svg>