<?xml version="1.0" encoding="UTF-8"?>
<svg width="25px" height="46px" viewBox="0 0 25 46" version="1.1" xmlns="http://www.w3.org/2000/svg" xmlns:xlink="http://www.w3.org/1999/xlink">
    <!-- Generator: Sketch 43.2 (39069) - http://www.bohemiancoding.com/sketch -->
    <title>snowfall_red</title>
    <desc>Created with Sketch.</desc>
    <defs>
        <path d="M22.3715012,19.9190952 C24.4461124,16.633381 24.688427,14.6816667 24.688427,12.047619 C24.688427,5.39404762 18.948116,0 12.30936,0 C5.58761962,0 0,5.39404762 0,12.047619 C0,14.6816667 0.208014354,16.633381 2.2826256,19.9190952 C3.20651914,21.3845238 12.30936,30.9404762 12.30936,45.5892857 C12.30936,30.9404762 21.4465012,21.3845238 22.3715012,19.9190952 Z" id="path-1"></path>
    </defs>
    <g id="Maps-Pins" stroke="none" stroke-width="1" fill="none" fill-rule="evenodd">
        <g id="Artboard" transform="translate(-166.000000, -140.000000)">
            <g id="snowfall_red" transform="translate(166.000000, 140.000000)">
                <g id="Imported-Layers">
                    <use fill="#CE2912" fill-rule="evenodd" xlink:href="#path-1"></use>
                    <path stroke="#FFFFFF" stroke-width="1" d="M12.3102819,39.595356 C11.5479953,35.0696072 9.941628,30.8351718 7.69318342,26.8716945 C6.69222137,25.1072345 5.63758873,23.5248157 4.48414442,21.9796972 C4.05413496,21.4036698 2.80666839,19.8127722 2.70558366,19.6524373 C0.924293538,16.831277 0.5,15.1578451 0.5,12.047619 C0.5,5.69882412 5.83453892,0.5 12.30936,0.5 C18.7444847,0.5 24.188427,5.74032491 24.188427,12.047619 C24.188427,15.1021552 23.7436316,16.8094235 21.9487232,19.6521518 L21.9486872,19.6522089 C21.8469623,19.8133663 20.5927013,21.408043 20.1645843,21.9796037 C19.0065559,23.5256377 17.9481849,25.1081457 16.9435541,26.8728673 C14.6872469,30.8362675 13.0752791,35.0702291 12.3102819,39.595356 Z"></path>
                </g>
                <path d="M6.40855643,15.0985968 C5.70271844,15.5047087 5.20787054,15.9873032 5.31445316,16.1725851 C5.41777305,16.3557124 6.08119551,16.1725851 6.78920866,15.7718592 C7.49504665,15.3646701 8.08016351,15.5790369 8.09103929,16.2415271 C8.09973991,16.9040174 8.28245298,17.3521409 8.48800518,17.2325695 C8.69899528,17.1173069 8.86648226,16.4720522 8.86104437,15.7977125 C8.8545189,15.1233729 9.54186807,14.1797282 10.386916,13.6949792 C11.2352267,13.2113075 11.924751,13.6098789 11.924751,14.5836857 C11.924751,15.5564153 11.4418665,16.622863 10.8491366,16.9514151 C10.2574943,17.2799671 9.77678488,17.7507122 9.78113519,17.9952412 C9.7854855,18.2386929 10.2727204,18.1729824 10.8589248,17.8465848 C11.4462168,17.5201872 11.924751,17.9069091 11.924751,18.7051291 C11.924751,19.5065807 12.0955007,20.1582987 12.3021405,20.1582987 C12.5076927,20.1582987 12.6751797,19.503349 12.6751797,18.6986658 C12.6751797,17.8961369 13.1569767,17.5126466 13.7431811,17.8465848 C14.3304731,18.1794458 14.8133577,18.2462334 14.8133577,17.9952412 C14.8133577,17.7442489 14.3304731,17.2702722 13.7431811,16.9438745 C13.1569767,16.6207085 12.6751797,15.5564153 12.6751797,14.5836857 C12.6751797,13.6098789 13.3668792,13.2113075 14.2130147,13.6949792 C15.0580627,14.1797282 15.7486746,15.1233729 15.7454118,15.7977125 C15.7410615,16.4720522 15.9074609,17.1173069 16.1151883,17.2325695 C16.3196529,17.3521409 16.4980157,16.9040174 16.5088915,16.2415271 C16.5219424,15.5790369 17.1059717,15.3646701 17.8118097,15.7718592 C18.5176477,16.1725851 19.1810701,16.3557124 19.2854776,16.1725851 C19.3920602,15.9873032 18.900475,15.5047087 18.1924619,15.0985968 C17.4855363,14.6946393 17.3876543,14.0838556 17.9738588,13.7466858 C18.5611508,13.4052071 18.8634974,13.0260257 18.6448943,12.9010682 C18.4262911,12.7771879 17.7704817,12.9560064 17.1897152,13.2985623 C16.6045983,13.6389638 15.4115255,13.5096974 14.5371129,13.0120218 C13.6627004,12.5100373 13.6627004,11.6891958 14.5371129,11.1839796 C15.4115255,10.6819951 16.6045983,10.5484199 17.1897152,10.8866669 C17.7704817,11.2292229 18.4262911,11.4080414 18.6448943,11.2830839 C18.8634974,11.161358 18.5611508,10.7854083 17.9738588,10.4417751 C17.3876543,10.1024508 17.4855363,9.49274435 18.1924619,9.08770967 C18.900475,8.68482942 19.3920602,8.20331211 19.2854776,8.02126195 C19.1810701,7.8349029 18.5176477,8.01695307 17.8118097,8.42198776 C17.1059717,8.82594523 16.5219424,8.60726958 16.5088915,7.93939323 C16.4980157,7.27043967 16.3196529,6.82123896 16.1151883,6.94296481 C15.9074609,7.06576788 15.7410615,7.71102261 15.7454118,8.38320784 C15.7486746,9.05216141 15.0580627,9.99580606 14.2130147,10.4827095 C13.3668792,10.9696129 12.6751797,10.5678098 12.6751797,9.59184859 C12.6751797,8.61696456 13.1569767,7.55482572 13.7431811,7.23165975 C14.3304731,6.90849377 14.8133577,6.43882589 14.8133577,6.18891087 C14.8133577,5.93576419 14.3304731,6.00578348 13.7431811,6.3418761 C13.1569767,6.67365983 12.6751797,6.28693788 12.6751797,5.47471407 C12.6751797,4.66249025 12.5076927,4 12.3021405,4 C12.0955007,4 11.924751,4.65710415 11.924751,5.46286465 C11.924751,6.26539348 11.4462168,6.66073319 10.8589248,6.33649 C10.2727204,6.01332402 9.7854855,5.94438195 9.78113519,6.18567921 C9.77678488,6.42482203 10.2574943,6.89125826 10.8491366,7.22196477 C11.4418665,7.54728519 11.924751,8.61696456 11.924751,9.59184859 C11.924751,10.5678098 11.2352267,10.9696129 10.386916,10.4827095 C9.54186807,9.99580606 8.8545189,9.05216141 8.86104437,8.38320784 C8.86648226,7.71102261 8.69899528,7.06576788 8.48800518,6.94296481 C8.28245298,6.82123896 8.09973991,7.27043967 8.09103929,7.93939323 C8.08016351,8.60726958 7.49504665,8.82594523 6.78920866,8.42198776 C6.08119551,8.01695307 5.41777305,7.8349029 5.31445316,8.02126195 C5.20787054,8.20331211 5.70271844,8.68482942 6.40855643,9.08770967 C7.11656958,9.49274435 7.21988947,10.1024508 6.63586019,10.4417751 C6.05400607,10.7854083 5.75600975,11.161358 5.97243773,11.2830839 C6.18886571,11.4080414 6.83923724,11.2292229 7.41782863,10.8866669 C7.99098213,10.5484199 9.18079224,10.6819951 10.0595551,11.1839796 C10.938318,11.6891958 10.938318,12.5100373 10.0595551,13.0120218 C9.18079224,13.5096974 7.99098213,13.6389638 7.41782863,13.2985623 C6.83923724,12.9560064 6.18886571,12.7771879 5.97243773,12.9010682 C5.75600975,13.0260257 6.05400607,13.4052071 6.63586019,13.7466858 C7.21988947,14.0838556 7.11656958,14.6946393 6.40855643,15.0985968" id="snowfall" fill="#FFFFFF"></path>
            </g>
        </g>
    </g>
</svg>