<?xml version="1.0" encoding="UTF-8"?>
<svg width="29px" height="54px" viewBox="0 0 29 54" version="1.1" xmlns="http://www.w3.org/2000/svg" xmlns:xlink="http://www.w3.org/1999/xlink">
    <!-- Generator: Sketch 43.2 (39069) - http://www.bohemiancoding.com/sketch -->
    <title>snowfall_blue</title>
    <desc>Created with Sketch.</desc>
    <defs>
        <path d="M25.7417029,22.9198491 C28.1288483,19.1391515 28.4076669,16.8934171 28.4076669,13.8625579 C28.4076669,6.20664523 21.8025947,0 14.1637294,0 C6.42937829,0 0,6.20664523 0,13.8625579 C0,16.8934171 0.239351112,19.1391515 2.62649652,22.9198491 C3.68957194,24.6060402 14.1637294,35.6015691 14.1637294,52.4571792 C14.1637294,35.6015691 24.6773543,24.6060402 25.7417029,22.9198491 Z" id="path-1"></path>
    </defs>
    <g id="Maps-Pins" stroke="none" stroke-width="1" fill="none" fill-rule="evenodd">
        <g id="Artboard" transform="translate(-186.000000, -155.000000)">
            <g id="snowfall_blue" transform="translate(186.488005, 155.968592)">
                <g id="Imported-Layers">
                    <use fill="#131D50" fill-rule="evenodd" xlink:href="#path-1"></use>
                    <path stroke="#FFFFFF" stroke-width="1" d="M14.164653,46.028696 C13.3219308,40.658452 11.4449851,35.6430679 8.78662355,30.9570036 C7.63655075,28.9296966 6.42474842,27.1114532 5.09930791,25.3359339 C4.60680303,24.6761895 3.16818919,22.8415214 3.04945458,22.6531911 C0.991733502,19.3942268 0.5,17.4548089 0.5,13.8625579 C0.5,6.51529477 6.67232345,0.5 14.1637294,0.5 C21.609258,0.5 27.9076669,6.56283216 27.9076669,13.8625579 C27.9076669,17.3908587 27.3922352,19.3692519 25.3189249,22.6529056 L25.3188889,22.6529627 C25.1993937,22.8422726 23.7528928,24.6813647 23.2626072,25.335924 C21.9318971,27.1124979 20.7157985,28.9308449 19.5615108,30.9584519 C16.893857,35.6444182 15.010374,40.659216 14.164653,46.028696 Z"></path>
                </g>
                <path d="M7.37398684,17.3731566 C6.56181641,17.840448 5.99242111,18.395744 6.1150601,18.608938 C6.23394483,18.819653 6.99730995,18.608938 7.81198323,18.147844 C8.62415366,17.6793131 9.29741668,17.9259735 9.30993086,18.688266 C9.3199422,19.4505585 9.53018047,19.9661905 9.76669851,19.828606 C10.0094737,19.6959795 10.2021921,18.953519 10.195935,18.177592 C10.1884265,17.4016651 10.9793228,16.3158631 11.9516748,15.7580881 C12.927781,15.2015526 13.7211801,15.6601676 13.7211801,16.7806756 C13.7211801,17.899944 13.1655504,19.127049 12.4835275,19.5050965 C11.802756,19.883144 11.2496291,20.4248055 11.2546348,20.706172 C11.2596405,20.986299 11.8202758,20.9106895 12.4947903,20.535121 C13.1705561,20.1595525 13.7211801,20.604533 13.7211801,21.5230025 C13.7211801,22.4451904 13.9176528,23.1950879 14.1554223,23.1950879 C14.3919403,23.1950879 14.5846587,22.4414719 14.5846587,21.5155655 C14.5846587,20.592138 15.139037,20.150876 15.8135514,20.535121 C16.4893173,20.9181265 17.044947,20.9949755 17.044947,20.706172 C17.044947,20.4173685 16.4893173,19.8719885 15.8135514,19.49642 C15.139037,19.12457 14.5846587,17.899944 14.5846587,16.7806756 C14.5846587,15.6601676 15.3805607,15.2015526 16.3541641,15.7580881 C17.3265161,16.3158631 18.1211667,17.4016651 18.1174124,18.177592 C18.1124067,18.953519 18.3038737,19.6959795 18.5428946,19.828606 C18.7781612,19.9661905 18.9833938,19.4505585 18.995908,18.688266 C19.010925,17.9259735 19.6829366,17.6793131 20.4951071,18.147844 C21.3072775,18.608938 22.0706426,18.819653 22.1907788,18.608938 C22.3134178,18.395744 21.7477767,17.840448 20.9331034,17.3731566 C20.1196816,16.9083441 20.007054,16.2055476 20.6815684,15.8175841 C21.3573342,15.4246626 21.7052285,14.9883586 21.4536934,14.8445766 C21.2021584,14.7020341 20.4475532,14.9077911 19.7792958,15.3019521 C19.1060328,15.6936341 17.733227,15.5448941 16.7270868,14.9722451 C15.7209465,14.3946381 15.7209465,13.4501392 16.7270868,12.8688137 C17.733227,12.2912067 19.1060328,12.1375087 19.7792958,12.5267117 C20.4475532,12.9208727 21.2021584,13.1266297 21.4536934,12.9828477 C21.7052285,12.8427842 21.3573342,12.4101987 20.6815684,12.0147982 C20.007054,11.6243557 20.1196816,10.9227987 20.9331034,10.4567467 C21.7477767,9.99317375 22.3134178,9.43911726 22.1907788,9.22964177 C22.0706426,9.01520827 21.3072775,9.22468377 20.4951071,9.69073576 C19.6829366,10.1555482 19.010925,9.90392975 18.995908,9.13543977 C18.9833938,8.36571029 18.7781612,7.8488388 18.5428946,7.9889023 C18.3038737,8.13020529 18.1124067,8.87266578 18.1174124,9.64611376 C18.1211667,10.4158432 17.3265161,11.5016452 16.3541641,12.0618992 C15.3805607,12.6221532 14.5846587,12.1598197 14.5846587,11.0368327 C14.5846587,9.91508525 15.139037,8.69293828 15.8135514,8.32108829 C16.4893173,7.9492383 17.044947,7.40881631 17.044947,7.12125232 C17.044947,6.82996983 16.4893173,6.91053733 15.8135514,7.29726132 C15.139037,7.67902731 14.5846587,7.23404682 14.5846587,6.29946384 C14.5846587,5.36488086 14.3919403,4.60258838 14.1554223,4.60258838 C13.9176528,4.60258838 13.7211801,5.35868336 13.7211801,6.28582934 C13.7211801,7.20925682 13.1705561,7.66415331 12.4947903,7.29106382 C11.8202758,6.91921383 11.2596405,6.83988583 11.2546348,7.11753382 C11.2496291,7.39270281 11.802756,7.9294063 12.4835275,8.30993279 C13.1655504,8.68426178 13.7211801,9.91508525 13.7211801,11.0368327 C13.7211801,12.1598197 12.927781,12.6221532 11.9516748,12.0618992 C10.9793228,11.5016452 10.1884265,10.4158432 10.195935,9.64611376 C10.2021921,8.87266578 10.0094737,8.13020529 9.76669851,7.9889023 C9.53018047,7.8488388 9.3199422,8.36571029 9.30993086,9.13543977 C9.29741668,9.90392975 8.62415366,10.1555482 7.81198323,9.69073576 C6.99730995,9.22468377 6.23394483,9.01520827 6.1150601,9.22964177 C5.99242111,9.43911726 6.56181641,9.99317375 7.37398684,10.4567467 C8.18866012,10.9227987 8.30754485,11.6243557 7.63553326,12.0147982 C6.9660245,12.4101987 6.6231359,12.8427842 6.87216813,12.9828477 C7.12120036,13.1266297 7.86954847,12.9208727 8.53530297,12.5267117 C9.19480038,12.1375087 10.5638519,12.2912067 11.5749979,12.8688137 C12.5861438,13.4501392 12.5861438,14.3946381 11.5749979,14.9722451 C10.5638519,15.5448941 9.19480038,15.6936341 8.53530297,15.3019521 C7.86954847,14.9077911 7.12120036,14.7020341 6.87216813,14.8445766 C6.6231359,14.9883586 6.9660245,15.4246626 7.63553326,15.8175841 C8.30754485,16.2055476 8.18866012,16.9083441 7.37398684,17.3731566" id="snowfall" fill="#FFFFFF"></path>
            </g>
        </g>
    </g>
</svg>