<?xml version="1.0" encoding="UTF-8"?>
<svg width="25px" height="46px" viewBox="0 0 25 46" version="1.1" xmlns="http://www.w3.org/2000/svg" xmlns:xlink="http://www.w3.org/1999/xlink">
    <!-- Generator: Sketch 43.2 (39069) - http://www.bohemiancoding.com/sketch -->
    <title>snow_avalanche_amber</title>
    <desc>Created with Sketch.</desc>
    <defs>
        <path d="M22.3715012,19.9190952 C24.4461124,16.633381 24.688427,14.6816667 24.688427,12.047619 C24.688427,5.39404762 18.948116,0 12.30936,0 C5.58761962,0 0,5.39404762 0,12.047619 C0,14.6816667 0.208014354,16.633381 2.2826256,19.9190952 C3.20651914,21.3845238 12.30936,30.9404762 12.30936,45.5892857 C12.30936,30.9404762 21.4465012,21.3845238 22.3715012,19.9190952 Z" id="path-1"></path>
    </defs>
    <g id="Maps-Pins" stroke="none" stroke-width="1" fill="none" fill-rule="evenodd">
        <g id="Artboard" transform="translate(-427.000000, -140.000000)">
            <g id="snow_avalanche_amber" transform="translate(427.000000, 140.000000)">
                <g id="Imported-Layers">
                    <use fill="#F3A500" fill-rule="evenodd" xlink:href="#path-1"></use>
                    <path stroke="#FFFFFF" stroke-width="1" d="M12.3102819,39.595356 C11.5479953,35.0696072 9.941628,30.8351718 7.69318342,26.8716945 C6.69222137,25.1072345 5.63758873,23.5248157 4.48414442,21.9796972 C4.05413496,21.4036698 2.80666839,19.8127722 2.70558366,19.6524373 C0.924293538,16.831277 0.5,15.1578451 0.5,12.047619 C0.5,5.69882412 5.83453892,0.5 12.30936,0.5 C18.7444847,0.5 24.188427,5.74032491 24.188427,12.047619 C24.188427,15.1021552 23.7436316,16.8094235 21.9487232,19.6521518 L21.9486872,19.6522089 C21.8469623,19.8133663 20.5927013,21.408043 20.1645843,21.9796037 C19.0065559,23.5256377 17.9481849,25.1081457 16.9435541,26.8728673 C14.6872469,30.8362675 13.0752791,35.0702291 12.3102819,39.595356 Z"></path>
                </g>
                <path d="M10.4127393,11.1240049 C10.9494238,11.590654 11.6132379,12.5452673 13.3755423,12.7698374 C13.7858586,12.2301079 12.7901375,11.1354237 12.3881951,10.7943816 C11.7472187,10.2531296 11.1016748,10.275206 10.4127393,9.80703439 C9.91259503,9.46827608 9.73446145,8.96660928 9.42463082,8.49158639 C9.22442085,8.18251702 9.0272559,7.76154321 8.76690682,7.50347789 C8.6397773,7.37710962 7.78945588,6.99876607 7.77955957,6.84499264 C7.84198245,7.78057457 7.83056363,9.03968973 8.43804482,9.80703439 C8.90697767,10.4015743 9.86387474,10.648982 10.4127393,11.1240049 L10.4127393,11.1240049 Z M15.3494756,12.7698374 L15.3494756,13.0986994 L16.9953081,13.0986994 L16.9953081,11.4536281 L16.6664461,11.4536281 L16.6664461,12.4402141 L12.7162958,9.14931039 L12.3881951,9.47817239 L16.3368228,12.7698374 L15.3494756,12.7698374 Z M14.3628896,8.83947976 C14.1832335,8.94301039 14.0583877,9.06633364 14.0850316,9.11353143 C14.1109143,9.15996796 14.2791516,9.11353143 14.4580464,9.01076205 C14.6377025,8.90723142 14.7861472,8.96204175 14.7891922,9.13104028 C14.7907147,9.30080006 14.8371512,9.41574951 14.8896778,9.38529933 C14.9422044,9.35484914 14.9848346,9.19041814 14.9840734,9.01761334 C14.9825508,8.8455698 15.1568782,8.60349083 15.371552,8.48016758 C15.5854645,8.35608307 15.7605531,8.45809119 15.7605531,8.70702145 C15.7605531,8.95595172 15.6372298,9.22848087 15.4880239,9.31298014 C15.3372955,9.39671815 15.216256,9.51775763 15.2170173,9.58018051 C15.2177785,9.64260339 15.3411018,9.62509453 15.4903077,9.54211778 C15.6387523,9.45837977 15.7605531,9.55734287 15.7605531,9.76135911 C15.7605531,9.96613661 15.8031833,10.1336126 15.8549487,10.1336126 C15.9074752,10.1336126 15.9501055,9.96613661 15.9501055,9.7598366 C15.9501055,9.55429785 16.0726675,9.45685726 16.2218734,9.54211778 C16.3695568,9.6273783 16.4913575,9.6441259 16.4913575,9.58018051 C16.4913575,9.51623512 16.3695568,9.39443438 16.2218734,9.31069637 C16.0726675,9.22848087 15.9501055,8.95595172 15.9501055,8.70702145 C15.9501055,8.45809119 16.1259553,8.35608307 16.3398679,8.48016758 C16.5537804,8.60349083 16.7296302,8.8455698 16.7281077,9.01761334 C16.7273465,9.19041814 16.7692155,9.35484914 16.821742,9.38529933 C16.8735073,9.41574951 16.9191826,9.30080006 16.9229889,9.13104028 C16.9252727,8.96204175 17.0729561,8.90723142 17.2518509,9.01076205 C17.4307457,9.11353143 17.5982217,9.15996796 17.6263882,9.11353143 C17.6522708,9.06633364 17.5274251,8.94301039 17.347769,8.83947976 C17.1696354,8.73594913 17.144514,8.57989193 17.2937199,8.4931089 C17.4414033,8.40556462 17.5190513,8.30888528 17.4627184,8.27691259 C17.4079081,8.2449399 17.2419546,8.29061517 17.0942712,8.37892071 C16.9458265,8.46570374 16.6443697,8.43220853 16.4228446,8.30507901 C16.2013195,8.17642698 16.2013195,7.96708196 16.4228446,7.83766867 C16.6443697,7.70901664 16.9458265,7.67476018 17.0942712,7.76154321 C17.2419546,7.84908749 17.4079081,7.89476277 17.4627184,7.86279007 C17.5190513,7.83157863 17.4414033,7.7348993 17.2937199,7.64735501 C17.144514,7.56057199 17.1696354,7.40451479 17.347769,7.30174541 C17.5274251,7.19821478 17.6522708,7.07489153 17.6263882,7.028455 C17.5982217,6.98125721 17.4307457,7.02769375 17.2518509,7.13046312 C17.0729561,7.23399375 16.9252727,7.17766091 16.9229889,7.00790113 C16.9191826,6.83661884 16.8735073,6.72090813 16.821742,6.75211957 C16.7692155,6.78409227 16.7273465,6.94928452 16.7281077,7.12056681 C16.7296302,7.2918491 16.5537804,7.53392807 16.3398679,7.65801258 C16.1259553,7.78285834 15.9501055,7.68008896 15.9501055,7.43039744 C15.9501055,7.18070593 16.0726675,6.90893802 16.2218734,6.82596127 C16.3695568,6.74374577 16.4913575,6.62346754 16.4913575,6.55952215 C16.4913575,6.49481551 16.3695568,6.51232436 16.2218734,6.59834614 C16.0726675,6.68360666 15.9501055,6.58464355 15.9501055,6.37682104 C15.9501055,6.16899853 15.9074752,6 15.8549487,6 C15.8031833,6 15.7605531,6.16747602 15.7605531,6.37377602 C15.7605531,6.57931477 15.6387523,6.68056164 15.4903077,6.59758488 C15.3411018,6.51460813 15.2177785,6.49709927 15.2170173,6.5587609 C15.216256,6.61966127 15.3372955,6.73917824 15.4880239,6.82443876 C15.6372298,6.90741552 15.7605531,7.18070593 15.7605531,7.43039744 C15.7605531,7.68008896 15.5854645,7.78285834 15.371552,7.65801258 C15.1568782,7.53392807 14.9825508,7.2918491 14.9840734,7.12056681 C14.9848346,6.94928452 14.9422044,6.78409227 14.8896778,6.75211957 C14.8371512,6.72090813 14.7907147,6.83661884 14.7891922,7.00790113 C14.7861472,7.17766091 14.6377025,7.23399375 14.4580464,7.13046312 C14.2791516,7.02769375 14.1109143,6.98125721 14.0850316,7.028455 C14.0583877,7.07489153 14.1832335,7.19821478 14.3628896,7.30174541 C14.5425457,7.40451479 14.5676671,7.56057199 14.4207449,7.64735501 C14.2723003,7.7348993 14.1969361,7.83157863 14.2517464,7.86279007 C14.3065567,7.89476277 14.471749,7.84908749 14.6171486,7.76154321 C14.7640708,7.67476018 15.0647663,7.70901664 15.2870527,7.83766867 C15.5101003,7.96708196 15.5101003,8.17642698 15.2870527,8.30507901 C15.0647663,8.43220853 14.7640708,8.46570374 14.6171486,8.37892071 C14.471749,8.29061517 14.3065567,8.2449399 14.2517464,8.27691259 C14.1969361,8.30888528 14.2723003,8.40556462 14.4207449,8.4931089 C14.5676671,8.57989193 14.5425457,8.73594913 14.3628896,8.83947976 L14.3628896,8.83947976 Z M18.75,17.4188194 L6.00812005,17.4188194 C5.98984994,17.4188194 6.00812005,6.00228376 6.00812005,6.00228376 L7.14695697,6.28927676 C6.54099829,11.0075329 9.75425407,11.1240049 9.75425407,11.1240049 C12.2222416,14.2794053 14.0332663,13.0986994 14.0332663,13.0986994 C14.2662102,13.3126119 18.75,17.4188194 18.75,17.4188194 L18.75,17.4188194 Z" id="snow_avalanche" fill="#FFFFFF"></path>
            </g>
        </g>
    </g>
</svg>