<?xml version="1.0" encoding="UTF-8"?>
<svg width="29px" height="54px" viewBox="0 0 29 54" version="1.1" xmlns="http://www.w3.org/2000/svg" xmlns:xlink="http://www.w3.org/1999/xlink">
    <!-- Generator: Sketch 43.2 (39069) - http://www.bohemiancoding.com/sketch -->
    <title>snow_avalanche_blue</title>
    <desc>Created with Sketch.</desc>
    <defs>
        <path d="M25.7417029,22.9198491 C28.1288483,19.1391515 28.4076669,16.8934171 28.4076669,13.8625579 C28.4076669,6.20664523 21.8025947,0 14.1637294,0 C6.42937829,0 0,6.20664523 0,13.8625579 C0,16.8934171 0.239351112,19.1391515 2.62649652,22.9198491 C3.68957194,24.6060402 14.1637294,35.6015691 14.1637294,52.4571792 C14.1637294,35.6015691 24.6773543,24.6060402 25.7417029,22.9198491 Z" id="path-1"></path>
    </defs>
    <g id="Maps-Pins" stroke="none" stroke-width="1" fill="none" fill-rule="evenodd">
        <g id="Artboard" transform="translate(-69.000000, -155.000000)">
            <g id="snow_avalanche_blue" transform="translate(69.122001, 155.968592)">
                <g id="Imported-Layers">
                    <use fill="#131D50" fill-rule="evenodd" xlink:href="#path-1"></use>
                    <path stroke="#FFFFFF" stroke-width="1" d="M14.164653,46.028696 C13.3219308,40.658452 11.4449851,35.6430679 8.78662355,30.9570036 C7.63655075,28.9296966 6.42474842,27.1114532 5.09930791,25.3359339 C4.60680303,24.6761895 3.16818919,22.8415214 3.04945458,22.6531911 C0.991733502,19.3942268 0.5,17.4548089 0.5,13.8625579 C0.5,6.51529477 6.67232345,0.5 14.1637294,0.5 C21.609258,0.5 27.9076669,6.56283216 27.9076669,13.8625579 C27.9076669,17.3908587 27.3922352,19.3692519 25.3189249,22.6529056 L25.3188889,22.6529627 C25.1993937,22.8422726 23.7528928,24.6813647 23.2626072,25.335924 C21.9318971,27.1124979 20.7157985,28.9308449 19.5615108,30.9584519 C16.893857,35.6444182 15.010374,40.659216 14.164653,46.028696 Z"></path>
                </g>
                <path d="M11.9813883,12.7998039 C12.5989227,13.3367523 13.3627384,14.4351754 15.3905289,14.6935763 C15.8626581,14.0725381 14.7169346,12.812943 14.2544407,12.4205239 C13.5169031,11.7977338 12.7741098,11.8231359 11.9813883,11.2844356 C11.4058987,10.8946444 11.2009298,10.3174029 10.8444241,9.77081923 C10.6140531,9.41518944 10.3871858,8.93079715 10.0876159,8.63385504 C9.94133466,8.48844976 8.96291478,8.05310985 8.95152762,7.8761709 C9.02335433,8.95269554 9.0102153,10.4014927 9.70921177,11.2844356 C10.248788,11.9685412 11.3498388,12.2532202 11.9813883,12.7998039 L11.9813883,12.7998039 Z M17.6618295,14.6935763 L17.6618295,15.0719804 L19.5556019,15.0719804 L19.5556019,13.179084 L19.1771978,13.179084 L19.1771978,14.3142963 L14.6319689,10.5276274 L14.2544407,10.9060315 L18.7979177,14.6935763 L17.6618295,14.6935763 Z M16.5266172,10.1711217 C16.3198964,10.2902489 16.176243,10.4321505 16.2069008,10.4864585 C16.2366826,10.5398905 16.4302643,10.4864585 16.6361091,10.3682072 C16.8428299,10.24908 17.0136373,10.3121473 17.017141,10.506605 C17.0188929,10.7019386 17.072325,10.8342048 17.1327645,10.7991674 C17.193204,10.76413 17.2422564,10.5749279 17.2413805,10.3760906 C17.2396286,10.1781292 17.4402178,9.89958173 17.6872316,9.75768019 C17.9333695,9.61490272 18.1348346,9.73227807 18.1348346,10.018709 C18.1348346,10.3051398 17.9929331,10.6187247 17.8212497,10.7159536 C17.6478145,10.8123064 17.5085408,10.9515802 17.5094167,11.0234069 C17.5102927,11.0952336 17.6521942,11.0750871 17.8238776,10.9796101 C17.994685,10.8832572 18.1348346,10.9971288 18.1348346,11.2318795 C18.1348346,11.4675061 18.183887,11.6602119 18.2434506,11.6602119 C18.3038902,11.6602119 18.3529426,11.4675061 18.3529426,11.2301276 C18.3529426,10.9936251 18.4939682,10.8815053 18.6656515,10.9796101 C18.835583,11.0777149 18.9757326,11.0969855 18.9757326,11.0234069 C18.9757326,10.9498283 18.835583,10.8096786 18.6656515,10.7133257 C18.4939682,10.6187247 18.3529426,10.3051398 18.3529426,10.018709 C18.3529426,9.73227807 18.5552836,9.61490272 18.8014215,9.75768019 C19.0475593,9.89958173 19.2499004,10.1781292 19.2481486,10.3760906 C19.2472726,10.5749279 19.2954491,10.76413 19.3558886,10.7991674 C19.4154522,10.8342048 19.4680083,10.7019386 19.472388,10.506605 C19.4750158,10.3121473 19.6449473,10.24908 19.8507921,10.3682072 C20.056637,10.4864585 20.2493427,10.5398905 20.2817524,10.4864585 C20.3115342,10.4321505 20.1678808,10.2902489 19.96116,10.1711217 C19.7561911,10.0519945 19.7272852,9.87242773 19.8989686,9.7725711 C20.0689001,9.67183852 20.1582455,9.56059472 20.0934262,9.52380544 C20.0303589,9.48701615 19.839405,9.53957227 19.6694735,9.64118078 C19.4986661,9.74103742 19.1517957,9.70249626 18.8968985,9.55621505 C18.6420012,9.40818196 18.6420012,9.16729972 18.8968985,9.01839069 C19.1517957,8.87035761 19.4986661,8.83094051 19.6694735,8.93079715 C19.839405,9.03152973 20.0303589,9.08408585 20.0934262,9.04729656 C20.1582455,9.01138321 20.0689001,8.90013941 19.8989686,8.79940684 C19.7272852,8.6995502 19.7561911,8.51998344 19.96116,8.40173215 C20.1678808,8.28260494 20.3115342,8.1407034 20.2817524,8.08727134 C20.2493427,8.03296334 20.056637,8.0863954 19.8507921,8.20464668 C19.6449473,8.3237739 19.4750158,8.25895468 19.472388,8.06362108 C19.4680083,7.86653561 19.4154522,7.73339342 19.3558886,7.76930678 C19.2954491,7.80609606 19.2472726,7.99617405 19.2481486,8.19325952 C19.2499004,8.39034499 19.0475593,8.66889246 18.8014215,8.81166993 C18.5552836,8.95532334 18.3529426,8.83707206 18.3529426,8.54976524 C18.3529426,8.26245842 18.4939682,7.94974947 18.6656515,7.85427251 C18.835583,7.75967149 18.9757326,7.62127369 18.9757326,7.54769511 C18.9757326,7.4732406 18.835583,7.49338712 18.6656515,7.59236782 C18.4939682,7.69047259 18.3529426,7.57660098 18.3529426,7.33747061 C18.3529426,7.09834024 18.3038902,6.90388258 18.2434506,6.90388258 C18.183887,6.90388258 18.1348346,7.09658837 18.1348346,7.33396687 C18.1348346,7.57046944 17.994685,7.68696885 17.8238776,7.59149189 C17.6521942,7.49601492 17.5102927,7.47586841 17.5094167,7.54681918 C17.5085408,7.61689401 17.6478145,7.75441587 17.8212497,7.85252064 C17.9929331,7.9479976 18.1348346,8.26245842 18.1348346,8.54976524 C18.1348346,8.83707206 17.9333695,8.95532334 17.6872316,8.81166993 C17.4402178,8.66889246 17.2396286,8.39034499 17.2413805,8.19325952 C17.2422564,7.99617405 17.193204,7.80609606 17.1327645,7.76930678 C17.072325,7.73339342 17.0188929,7.86653561 17.017141,8.06362108 C17.0136373,8.25895468 16.8428299,8.3237739 16.6361091,8.20464668 C16.4302643,8.0863954 16.2366826,8.03296334 16.2069008,8.08727134 C16.176243,8.1407034 16.3198964,8.28260494 16.5266172,8.40173215 C16.7333379,8.51998344 16.7622438,8.6995502 16.5931883,8.79940684 C16.4223809,8.90013941 16.3356633,9.01138321 16.3987306,9.04729656 C16.461798,9.08408585 16.651876,9.03152973 16.8191796,8.93079715 C16.9882352,8.83094051 17.3342297,8.87035761 17.5900028,9.01839069 C17.8466519,9.16729972 17.8466519,9.40818196 17.5900028,9.55621505 C17.3342297,9.70249626 16.9882352,9.74103742 16.8191796,9.64118078 C16.651876,9.53957227 16.461798,9.48701615 16.3987306,9.52380544 C16.3356633,9.56059472 16.4223809,9.67183852 16.5931883,9.7725711 C16.7622438,9.87242773 16.7333379,10.0519945 16.5266172,10.1711217 L16.5266172,10.1711217 Z M21.574633,20.042914 L6.91322589,20.042914 C6.89220344,20.042914 6.91322589,6.90651038 6.91322589,6.90651038 L8.22362528,7.23673804 C7.52638069,12.6657858 11.2237041,12.7998039 11.2237041,12.7998039 C14.0634868,16.4305563 16.1473371,15.0719804 16.1473371,15.0719804 C16.4153734,15.3181183 21.574633,20.042914 21.574633,20.042914 L21.574633,20.042914 Z" id="snow_avalanche" fill="#FFFFFF"></path>
            </g>
        </g>
    </g>
</svg>