<?xml version="1.0" encoding="UTF-8"?>
<svg width="25px" height="46px" viewBox="0 0 25 46" version="1.1" xmlns="http://www.w3.org/2000/svg" xmlns:xlink="http://www.w3.org/1999/xlink">
    <!-- Generator: Sketch 43.2 (39069) - http://www.bohemiancoding.com/sketch -->
    <title>storm_surge_amber</title>
    <desc>Created with Sketch.</desc>
    <defs>
        <path d="M22.3715012,19.9190952 C24.4461124,16.633381 24.688427,14.6816667 24.688427,12.047619 C24.688427,5.39404762 18.948116,0 12.30936,0 C5.58761962,0 0,5.39404762 0,12.047619 C0,14.6816667 0.208014354,16.633381 2.2826256,19.9190952 C3.20651914,21.3845238 12.30936,30.9404762 12.30936,45.5892857 C12.30936,30.9404762 21.4465012,21.3845238 22.3715012,19.9190952 Z" id="path-1"></path>
    </defs>
    <g id="Maps-Pins" stroke="none" stroke-width="1" fill="none" fill-rule="evenodd">
        <g id="Artboard" transform="translate(-495.000000, -140.000000)">
            <g id="storm_surge_amber" transform="translate(495.000000, 140.000000)">
                <g id="Imported-Layers">
                    <use fill="#F3A500" fill-rule="evenodd" xlink:href="#path-1"></use>
                    <path stroke="#FFFFFF" stroke-width="1" d="M12.3102819,39.595356 C11.5479953,35.0696072 9.941628,30.8351718 7.69318342,26.8716945 C6.69222137,25.1072345 5.63758873,23.5248157 4.48414442,21.9796972 C4.05413496,21.4036698 2.80666839,19.8127722 2.70558366,19.6524373 C0.924293538,16.831277 0.5,15.1578451 0.5,12.047619 C0.5,5.69882412 5.83453892,0.5 12.30936,0.5 C18.7444847,0.5 24.188427,5.74032491 24.188427,12.047619 C24.188427,15.1021552 23.7436316,16.8094235 21.9487232,19.6521518 L21.9486872,19.6522089 C21.8469623,19.8133663 20.5927013,21.408043 20.1645843,21.9796037 C19.0065559,23.5256377 17.9481849,25.1081457 16.9435541,26.8728673 C14.6872469,30.8362675 13.0752791,35.0702291 12.3102819,39.595356 Z"></path>
                </g>
                <path d="M7.723,14.3975 C7.723,14.3975 6.876,13.4112 6.1669,14.7867 C5.8764,15.3495 5.4102,15.738 5,15.9879 L5,17.5083 L19,17.5083 L19,16.3414 C18.7536,16.2819 17.9766,16.0061 17.8338,15.5644 C17.7127,15.1941 17.5531,14.457 18.223,14.3975 C18.223,14.3975 17.3788,13.4112 16.6669,14.7867 C16.13,15.8353 15.7478,16.2924 15.5007,16.3414 L15.1122,16.3414 C14.8658,16.2819 14.4773,16.0061 14.3338,15.5644 C14.2127,15.1941 14.0531,14.457 14.723,14.3975 C14.723,14.3975 13.8774,13.4112 13.1669,14.7867 C12.6272,15.8353 12.2492,16.2924 12.0007,16.3414 L11.6122,16.3414 C11.3651,16.2819 10.9773,16.0061 10.8338,15.5644 C10.7127,15.1941 10.5531,14.457 11.223,14.3975 C11.223,14.3975 10.3767,13.4112 9.6676,14.7867 C9.1272,15.8353 8.7499,16.2924 8.5,16.3414 L8.1122,16.3414 C7.8665,16.2819 7.4773,16.0061 7.3338,15.5644 C7.2134,15.1941 7.0517,14.457 7.723,14.3975 M19,11.6738 L19,14.2631 C18.6878,14.1294 18.3175,13.9124 18.223,13.6198 C18.1012,13.2502 17.9423,12.5124 18.6122,12.4529 C18.6122,12.4529 17.7673,11.4666 17.0561,12.8421 C16.5185,13.89 16.137,14.3485 15.8899,14.3975 L15.5007,14.3975 C15.255,14.338 14.8665,14.0615 14.723,13.6198 C14.6012,13.2502 14.4423,12.5124 15.1122,12.4529 C15.1122,12.4529 14.2666,11.4666 13.5561,12.8421 C13.0164,13.89 12.6377,14.3485 12.3892,14.3975 L12.0007,14.3975 C11.7543,14.338 11.3665,14.0615 11.223,13.6198 C11.1012,13.2502 10.9423,12.5124 11.6122,12.4529 C11.6122,12.4529 10.7659,11.4666 10.0561,12.8421 C9.5164,13.89 9.1377,14.3485 8.8899,14.3975 L8.5,14.3975 C8.2557,14.338 7.8665,14.0615 7.723,13.6198 C7.6026,13.2502 7.4409,12.5124 8.1122,12.4529 C8.1122,12.4529 7.2652,11.4666 6.5561,12.8421 C6.1655,13.5981 5.4592,14.0426 5,14.2526 L5,10.5776 C5.8799,7.5543 8.1423,5 10.4453,5 C11.6241,5 12.4788,5.2604 12.7791,5.7791 C13.0654,6.2642 13.0759,7.1588 12.3892,7.3338 C12.1015,7.408 11.398,7.2071 11.223,6.9453 C11.1012,6.7626 10.8583,6.6408 11.223,6.1669 C9.1986,5.6503 7.6999,10.5699 12.3892,11.223 C13.0115,8.8416 14.8455,6.9453 16.6669,6.9453 C17.5748,6.9453 17.992,7.3226 18.223,7.7223 C18.4414,8.0954 18.3609,8.7555 17.8338,8.8892 C17.6126,8.9487 17.1646,8.7184 17.0561,8.5014 C16.9476,8.283 16.9714,7.8812 17.4453,7.7223 C15.8115,7.3037 14.6838,11.4526 19,11.6738" id="storm_surge" fill="#FFFFFF"></path>
            </g>
        </g>
    </g>
</svg>