<?xml version="1.0" encoding="UTF-8"?>
<svg width="29px" height="54px" viewBox="0 0 29 54" version="1.1" xmlns="http://www.w3.org/2000/svg" xmlns:xlink="http://www.w3.org/1999/xlink">
    <!-- Generator: Sketch 43.2 (39069) - http://www.bohemiancoding.com/sketch -->
    <title>storm_surge_blue</title>
    <desc>Created with Sketch.</desc>
    <defs>
        <path d="M25.7417029,22.9198491 C28.1288483,19.1391515 28.4076669,16.8934171 28.4076669,13.8625579 C28.4076669,6.20664523 21.8025947,0 14.1637294,0 C6.42937829,0 0,6.20664523 0,13.8625579 C0,16.8934171 0.239351112,19.1391515 2.62649652,22.9198491 C3.68957194,24.6060402 14.1637294,35.6015691 14.1637294,52.4571792 C14.1637294,35.6015691 24.6773543,24.6060402 25.7417029,22.9198491 Z" id="path-1"></path>
    </defs>
    <g id="Maps-Pins" stroke="none" stroke-width="1" fill="none" fill-rule="evenodd">
        <g id="Artboard" transform="translate(-147.000000, -155.000000)">
            <g id="storm_surge_blue" transform="translate(147.366004, 155.968592)">
                <g id="Imported-Layers">
                    <use fill="#131D50" fill-rule="evenodd" xlink:href="#path-1"></use>
                    <path stroke="#FFFFFF" stroke-width="1" d="M14.164653,46.028696 C13.3219308,40.658452 11.4449851,35.6430679 8.78662355,30.9570036 C7.63655075,28.9296966 6.42474842,27.1114532 5.09930791,25.3359339 C4.60680303,24.6761895 3.16818919,22.8415214 3.04945458,22.6531911 C0.991733502,19.3942268 0.5,17.4548089 0.5,13.8625579 C0.5,6.51529477 6.67232345,0.5 14.1637294,0.5 C21.609258,0.5 27.9076669,6.56283216 27.9076669,13.8625579 C27.9076669,17.3908587 27.3922352,19.3692519 25.3189249,22.6529056 L25.3188889,22.6529627 C25.1993937,22.8422726 23.7528928,24.6813647 23.2626072,25.335924 C21.9318971,27.1124979 20.7157985,28.9308449 19.5615108,30.9584519 C16.893857,35.6444182 15.010374,40.659216 14.164653,46.028696 Z"></path>
                </g>
                <path d="M8.88644752,16.5664416 C8.88644752,16.5664416 7.91184943,15.4315583 7.09592558,17.0142734 C6.76166259,17.6618576 6.22523092,18.108884 5.75323548,18.3964307 L5.75323548,20.1458746 L21.8622948,20.1458746 L21.8622948,18.8031845 C21.5787754,18.734721 20.6847226,18.4173725 20.5204102,17.9091317 C20.3810668,17.483047 20.1974235,16.6349051 20.968242,16.5664416 C20.968242,16.5664416 19.9968658,15.4315583 19.1777201,17.0142734 C18.5599377,18.220842 18.1201603,18.7468027 17.8358354,18.8031845 L17.388809,18.8031845 C17.1052896,18.734721 16.6582632,18.4173725 16.4931453,17.9091317 C16.353802,17.483047 16.1701587,16.6349051 16.9409772,16.5664416 C16.9409772,16.5664416 15.96799,15.4315583 15.1504552,17.0142734 C14.529451,18.220842 14.0945064,18.7468027 13.8085706,18.8031845 L13.3615442,18.8031845 C13.0772193,18.734721 12.6309984,18.4173725 12.4658805,17.9091317 C12.3265371,17.483047 12.1428939,16.6349051 12.9137124,16.5664416 C12.9137124,16.5664416 11.9399197,15.4315583 11.1239959,17.0142734 C10.5021862,18.220842 10.068047,18.7468027 9.78050032,18.8031845 L9.33427937,18.8031845 C9.05156538,18.734721 8.60373353,18.4173725 8.43861567,17.9091317 C8.30007776,17.483047 8.11401813,16.6349051 8.88644752,16.5664416 M21.8622948,13.4324241 L21.8622948,16.4117946 C21.5030628,16.2579531 21.0769782,16.0082627 20.968242,15.6715833 C20.8280932,15.2463042 20.6452554,14.3973567 21.4160739,14.3288932 C21.4160739,14.3288932 20.4438921,13.19401 19.6255519,14.7767251 C19.0069641,15.9824882 18.5679922,16.5100599 18.2836673,16.5664416 L17.8358354,16.5664416 C17.5531214,16.4979781 17.1060951,16.1798241 16.9409772,15.6715833 C16.8008284,15.2463042 16.6179906,14.3973567 17.388809,14.3288932 C17.388809,14.3288932 16.4158219,13.19401 15.5982871,14.7767251 C14.9772829,15.9824882 14.5415328,16.5100599 14.255597,16.5664416 L13.8085706,16.5664416 C13.5250512,16.4979781 13.0788302,16.1798241 12.9137124,15.6715833 C12.7735635,15.2463042 12.5907257,14.3973567 13.3615442,14.3288932 C13.3615442,14.3288932 12.3877516,13.19401 11.5710223,14.7767251 C10.950018,15.9824882 10.514268,16.5100599 10.2291376,16.5664416 L9.78050032,16.5664416 C9.49939723,16.4979781 9.05156538,16.1798241 8.88644752,15.6715833 C8.74790961,15.2463042 8.56184998,14.3973567 9.33427937,14.3288932 C9.33427937,14.3288932 8.35968128,13.19401 7.54375743,14.7767251 C7.09431467,15.6466143 6.28161263,16.1580769 5.75323548,16.3997128 L5.75323548,12.1710847 C6.76568986,8.69233336 9.36891385,5.75323548 12.0188541,5.75323548 C13.3752369,5.75323548 14.358695,6.05286398 14.7042343,6.64970463 C15.0336646,7.20788354 15.0457464,8.23725243 14.255597,8.43861567 C13.9245558,8.52399369 13.1150756,8.29282869 12.9137124,7.99158928 C12.7735635,7.78136605 12.4940714,7.64121723 12.9137124,7.09592558 C10.5843424,6.50150129 8.85986757,12.1622247 14.255597,12.9137124 C14.9716447,10.1735614 17.0819315,7.99158928 19.1777201,7.99158928 C20.2223926,7.99158928 20.7024426,8.42572842 20.968242,8.88564207 C21.2195434,9.3149485 21.1269163,10.0744906 20.5204102,10.2283322 C20.265887,10.2967957 19.7503971,10.0318016 19.6255519,9.78211122 C19.5007067,9.5308099 19.5280921,9.06847989 20.0733838,8.88564207 C18.1934566,8.40398119 16.8958718,13.1779009 21.8622948,13.4324241" id="storm_surge" fill="#FFFFFF"></path>
            </g>
        </g>
    </g>
</svg>