<?xml version="1.0" encoding="UTF-8"?>
<svg width="25px" height="46px" viewBox="0 0 25 46" version="1.1" xmlns="http://www.w3.org/2000/svg" xmlns:xlink="http://www.w3.org/1999/xlink">
    <!-- Generator: Sketch 43.2 (39069) - http://www.bohemiancoding.com/sketch -->
    <title>storm_red</title>
    <desc>Created with Sketch.</desc>
    <defs>
        <path d="M22.3715012,19.9190952 C24.4461124,16.633381 24.688427,14.6816667 24.688427,12.047619 C24.688427,5.39404762 18.948116,0 12.30936,0 C5.58761962,0 0,5.39404762 0,12.047619 C0,14.6816667 0.208014354,16.633381 2.2826256,19.9190952 C3.20651914,21.3845238 12.30936,30.9404762 12.30936,45.5892857 C12.30936,30.9404762 21.4465012,21.3845238 22.3715012,19.9190952 Z" id="path-1"></path>
    </defs>
    <g id="Maps-Pins" stroke="none" stroke-width="1" fill="none" fill-rule="evenodd">
        <g id="Artboard" transform="translate(-98.000000, -140.000000)">
            <g id="storm_red" transform="translate(98.000000, 140.000000)">
                <g id="Imported-Layers">
                    <use fill="#CE2912" fill-rule="evenodd" xlink:href="#path-1"></use>
                    <path stroke="#FFFFFF" stroke-width="1" d="M12.3102819,39.595356 C11.5479953,35.0696072 9.941628,30.8351718 7.69318342,26.8716945 C6.69222137,25.1072345 5.63758873,23.5248157 4.48414442,21.9796972 C4.05413496,21.4036698 2.80666839,19.8127722 2.70558366,19.6524373 C0.924293538,16.831277 0.5,15.1578451 0.5,12.047619 C0.5,5.69882412 5.83453892,0.5 12.30936,0.5 C18.7444847,0.5 24.188427,5.74032491 24.188427,12.047619 C24.188427,15.1021552 23.7436316,16.8094235 21.9487232,19.6521518 L21.9486872,19.6522089 C21.8469623,19.8133663 20.5927013,21.408043 20.1645843,21.9796037 C19.0065559,23.5256377 17.9481849,25.1081457 16.9435541,26.8728673 C14.6872469,30.8362675 13.0752791,35.0702291 12.3102819,39.595356 Z"></path>
                </g>
                <path d="M14.1577,13.9718887 L11.3935071,13.9718887 C10.5833299,14.7870608 9.26766601,16.1077197 9.25368021,16.1077197 L11.468431,16.1077197 L9.25368021,19.9847823 L14.2366198,15.5532827 L12.575307,15.5532827 L14.1577,13.9718887 Z M19.7700005,10.5383756 C19.7700005,12.0688213 18.5302595,13.3075633 16.9998137,13.3075633 L14.4583946,13.3075633 L11.6912048,13.3075633 L6.61535954,13.3075633 C5.72326549,13.3075633 5,12.9689072 5,12.0768132 C5,11.1847192 5.72326549,10.4604547 6.61535954,10.4604547 C6.77719519,10.4604547 6.93203794,10.4924222 7.08088677,10.5373766 C7.08088677,10.5243898 7.07689083,10.5124019 7.07689083,10.4994151 C7.07689083,9.45847224 7.92103357,8.61532849 8.96197645,8.61532849 C9.00493283,8.61532849 9.0478892,8.62531834 9.09084558,8.6283153 C9.08884761,8.58435994 9.07685978,8.54340153 9.07685978,8.49944617 C9.07685978,6.56640925 10.643269,5 12.5773049,5 C14.3225326,5 15.7600727,6.28369635 16.0228059,7.95599806 C16.3264975,7.84011575 16.6541647,7.76918778 16.9998137,7.76918778 C18.5302595,7.76918778 19.7700005,9.00892877 19.7700005,10.5383756 L19.7700005,10.5383756 Z" id="storm" fill="#FFFFFF"></path>
            </g>
        </g>
    </g>
</svg>