<?xml version="1.0" encoding="UTF-8"?>
<svg width="29px" height="54px" viewBox="0 0 29 54" version="1.1" xmlns="http://www.w3.org/2000/svg" xmlns:xlink="http://www.w3.org/1999/xlink">
    <!-- Generator: Sketch 43.2 (39069) - http://www.bohemiancoding.com/sketch -->
    <title>storm_blue</title>
    <desc>Created with Sketch.</desc>
    <defs>
        <path d="M25.7417029,22.9198491 C28.1288483,19.1391515 28.4076669,16.8934171 28.4076669,13.8625579 C28.4076669,6.20664523 21.8025947,0 14.1637294,0 C6.42937829,0 0,6.20664523 0,13.8625579 C0,16.8934171 0.239351112,19.1391515 2.62649652,22.9198491 C3.68957194,24.6060402 14.1637294,35.6015691 14.1637294,52.4571792 C14.1637294,35.6015691 24.6773543,24.6060402 25.7417029,22.9198491 Z" id="path-1"></path>
    </defs>
    <g id="Maps-Pins" stroke="none" stroke-width="1" fill="none" fill-rule="evenodd">
        <g id="Artboard" transform="translate(-108.000000, -155.000000)">
            <g id="storm_blue" transform="translate(108.244003, 155.968592)">
                <g id="Imported-Layers">
                    <use fill="#131D50" fill-rule="evenodd" xlink:href="#path-1"></use>
                    <path stroke="#FFFFFF" stroke-width="1" d="M14.164653,46.028696 C13.3219308,40.658452 11.4449851,35.6430679 8.78662355,30.9570036 C7.63655075,28.9296966 6.42474842,27.1114532 5.09930791,25.3359339 C4.60680303,24.6761895 3.16818919,22.8415214 3.04945458,22.6531911 C0.991733502,19.3942268 0.5,17.4548089 0.5,13.8625579 C0.5,6.51529477 6.67232345,0.5 14.1637294,0.5 C21.609258,0.5 27.9076669,6.56283216 27.9076669,13.8625579 C27.9076669,17.3908587 27.3922352,19.3692519 25.3189249,22.6529056 L25.3188889,22.6529627 C25.1993937,22.8422726 23.7528928,24.6813647 23.2626072,25.335924 C21.9318971,27.1124979 20.7157985,28.9308449 19.5615108,30.9584519 C16.893857,35.6444182 15.010374,40.659216 14.164653,46.028696 Z"></path>
                </g>
                <path d="M16.2905164,16.0767131 L13.1099059,16.0767131 C12.1776778,17.0146886 10.663813,18.5343008 10.6477203,18.5343008 L13.1961169,18.5343008 L10.6477203,22.9954318 L16.3813253,17.8963396 L14.4697404,17.8963396 L16.2905164,16.0767131 Z M22.7482936,12.1259512 C22.7482936,13.8869542 21.3217892,15.3123091 19.5607863,15.3123091 L16.6365098,15.3123091 L13.4524509,15.3123091 L7.61194424,15.3123091 C6.58545882,15.3123091 5.75323548,14.9226355 5.75323548,13.89615 C5.75323548,12.8696646 6.58545882,12.0362918 7.61194424,12.0362918 C7.79815996,12.0362918 7.97632932,12.0730752 8.1476018,12.1248017 C8.1476018,12.1098585 8.14300388,12.0960648 8.14300388,12.0811215 C8.14300388,10.8833636 9.11431427,9.9132027 10.3120722,9.9132027 C10.3614998,9.9132027 10.4109274,9.9246975 10.4603551,9.92814594 C10.4580561,9.87756883 10.4442623,9.83044016 10.4442623,9.77986305 C10.4442623,7.55561973 12.2466466,5.75323548 14.4720394,5.75323548 C16.4801805,5.75323548 18.1342819,7.23031696 18.4365951,9.15454607 C18.7860369,9.02120641 19.1630663,8.93959335 19.5607863,8.93959335 C21.3217892,8.93959335 22.7482936,10.3660977 22.7482936,12.1259512 L22.7482936,12.1259512 Z" id="storm" fill="#FFFFFF"></path>
            </g>
        </g>
    </g>
</svg>