<?xml version="1.0" encoding="UTF-8"?>
<svg width="25px" height="46px" viewBox="0 0 25 46" version="1.1" xmlns="http://www.w3.org/2000/svg" xmlns:xlink="http://www.w3.org/1999/xlink">
    <!-- Generator: Sketch 43.2 (39069) - http://www.bohemiancoding.com/sketch -->
    <title>technological_disaster_amber</title>
    <desc>Created with Sketch.</desc>
    <defs>
        <path d="M22.3715012,19.9190952 C24.4461124,16.633381 24.688427,14.6816667 24.688427,12.047619 C24.688427,5.39404762 18.948116,0 12.30936,0 C5.58761962,0 0,5.39404762 0,12.047619 C0,14.6816667 0.208014354,16.633381 2.2826256,19.9190952 C3.20651914,21.3845238 12.30936,30.9404762 12.30936,45.5892857 C12.30936,30.9404762 21.4465012,21.3845238 22.3715012,19.9190952 Z" id="path-1"></path>
    </defs>
    <g id="Maps-Pins" stroke="none" stroke-width="1" fill="none" fill-rule="evenodd">
        <g id="Artboard" transform="translate(-563.000000, -140.000000)">
            <g id="technological_disaster_amber" transform="translate(563.000000, 140.000000)">
                <g id="Imported-Layers">
                    <use fill="#F3A500" fill-rule="evenodd" xlink:href="#path-1"></use>
                    <path stroke="#FFFFFF" stroke-width="1" d="M12.3102819,39.595356 C11.5479953,35.0696072 9.941628,30.8351718 7.69318342,26.8716945 C6.69222137,25.1072345 5.63758873,23.5248157 4.48414442,21.9796972 C4.05413496,21.4036698 2.80666839,19.8127722 2.70558366,19.6524373 C0.924293538,16.831277 0.5,15.1578451 0.5,12.047619 C0.5,5.69882412 5.83453892,0.5 12.30936,0.5 C18.7444847,0.5 24.188427,5.74032491 24.188427,12.047619 C24.188427,15.1021552 23.7436316,16.8094235 21.9487232,19.6521518 L21.9486872,19.6522089 C21.8469623,19.8133663 20.5927013,21.408043 20.1645843,21.9796037 C19.0065559,23.5256377 17.9481849,25.1081457 16.9435541,26.8728673 C14.6872469,30.8362675 13.0752791,35.0702291 12.3102819,39.595356 Z"></path>
                </g>
                <path d="M20.0277178,13.2790214 C20.166092,13.854038 19.1002094,14.329844 18.5928373,14.73681 C18.0864678,15.1427636 16.9443792,15.7613114 15.4673847,16.5560087 C13.9903903,17.350706 12.1353736,17.9510314 10.9331222,17.6422637 C9.72986811,17.3324836 8.85349804,17.2798412 7.83173477,17.9247102 C6.80997149,18.5695792 5.87444143,17.9338214 5.76213771,17.1745565 C5.65083671,16.4152916 7.79864528,15.1073312 8.83745465,15.195406 C9.660681,15.2662707 11.2309276,14.4250052 12.0421214,14.2498681 C12.3589783,14.1810281 12.9054562,14.1719169 13.8139131,13.8277168 C14.7193618,13.4835167 15.0683055,12.0631851 15.5225339,11.8445169 C16.0690118,11.5853544 17.1268727,11.9933328 17.4166564,12.0864693 C17.8548414,12.2271864 19.8893436,12.7050171 20.0277178,13.2790214 L20.0277178,13.2790214 Z M7.20403721,7.25956917 L7.42363108,8.87022312 C7.28124601,8.97550786 7.25617822,9.1607685 7.28124601,9.3986715 L6.44698984,9.13343496 C6.31864273,8.79125957 6.85810166,7.31221153 7.20403721,7.25956917 L7.20403721,7.25956917 Z M7.59008123,9.06864435 C7.78260189,9.08180495 7.84677544,9.35817737 7.84677544,9.5565986 C7.84677544,9.75501983 7.79563714,9.95242871 7.64021682,9.92610752 C7.48680192,9.89978634 7.40959312,9.43714092 7.40959312,9.43714092 C7.39756058,9.64872274 7.39756058,9.05447141 7.59008123,9.06864435 L7.59008123,9.06864435 Z M8.46143775,7.73638753 C8.63891773,7.51974394 9.13826818,9.74894571 8.88759024,9.83398338 C8.84848448,9.84714397 8.00219576,9.60519155 8.00219576,9.60519155 C8.0392961,9.46447446 7.99016322,9.1455832 7.8086724,8.9876561 L8.46143775,7.73638753 Z M11.0564558,12.5703741 C10.7245582,12.2271864 10.5561026,11.6481203 10.558108,10.8483613 C10.5591107,9.75299512 11.1497079,7.58453455 12.5053742,7.53695395 L12.582583,7.53492924 C13.0127464,7.53492924 13.3536684,7.6655228 13.5993328,7.92367287 C14.0555666,8.40251594 14.0886561,9.21138616 14.0826398,9.53736389 C14.0485476,11.1085361 13.434888,12.8092895 12.4682739,12.9338089 C11.8475953,13.0137848 11.3682991,12.8923024 11.0564558,12.5703741 L11.0564558,12.5703741 Z M7.48680192,11.2198949 L7.51387514,10.1113682 C7.51387514,10.1113682 7.71943105,10.2956164 7.87284595,10.1498376 L8.59179027,11.5894038 C8.32206081,11.7878251 7.62918699,11.4972797 7.48680192,11.2198949 L7.48680192,11.2198949 Z M11.1968354,13.2425766 C11.4615513,13.3691208 11.7643703,13.4420102 12.1113085,13.4420102 C12.2446692,13.4420102 12.3830434,13.4318867 12.5274339,13.4136643 C13.8048887,13.2486508 14.5128032,11.3444144 14.5509062,9.54748742 C14.5629387,9.06864435 14.4957571,8.17473647 13.9342385,7.5855469 C13.5993328,7.23223563 13.1471098,7.05406147 12.589602,7.05304911 C11.6500611,6.83134376 7.99918763,5.98501648 7.3484277,6.00020177 C6.25747732,6.02449825 5.27281438,7.48734864 5.07528016,8.40352829 C4.87975137,9.31464618 4.96397916,11.2664632 6.5803505,11.629898 L11.1968354,13.2425766 Z" id="technological_disaster" fill="#FFFFFF"></path>
            </g>
        </g>
    </g>
</svg>