<?xml version="1.0" encoding="UTF-8"?>
<svg width="29px" height="54px" viewBox="0 0 29 54" version="1.1" xmlns="http://www.w3.org/2000/svg" xmlns:xlink="http://www.w3.org/1999/xlink">
    <!-- Generator: Sketch 43.2 (39069) - http://www.bohemiancoding.com/sketch -->
    <title>technological_disaster_blue</title>
    <desc>Created with Sketch.</desc>
    <defs>
        <path d="M25.7417029,22.9198491 C28.1288483,19.1391515 28.4076669,16.8934171 28.4076669,13.8625579 C28.4076669,6.20664523 21.8025947,0 14.1637294,0 C6.42937829,0 0,6.20664523 0,13.8625579 C0,16.8934171 0.239351112,19.1391515 2.62649652,22.9198491 C3.68957194,24.6060402 14.1637294,35.6015691 14.1637294,52.4571792 C14.1637294,35.6015691 24.6773543,24.6060402 25.7417029,22.9198491 Z" id="path-1"></path>
    </defs>
    <g id="Maps-Pins" stroke="none" stroke-width="1" fill="none" fill-rule="evenodd">
        <g id="Artboard" transform="translate(-225.000000, -155.000000)">
            <g id="technological_disaster_blue" transform="translate(225.610006, 155.968592)">
                <g id="Imported-Layers">
                    <use fill="#131D50" fill-rule="evenodd" xlink:href="#path-1"></use>
                    <path stroke="#FFFFFF" stroke-width="1" d="M14.164653,46.028696 C13.3219308,40.658452 11.4449851,35.6430679 8.78662355,30.9570036 C7.63655075,28.9296966 6.42474842,27.1114532 5.09930791,25.3359339 C4.60680303,24.6761895 3.16818919,22.8415214 3.04945458,22.6531911 C0.991733502,19.3942268 0.5,17.4548089 0.5,13.8625579 C0.5,6.51529477 6.67232345,0.5 14.1637294,0.5 C21.609258,0.5 27.9076669,6.56283216 27.9076669,13.8625579 C27.9076669,17.3908587 27.3922352,19.3692519 25.3189249,22.6529056 L25.3188889,22.6529627 C25.1993937,22.8422726 23.7528928,24.6813647 23.2626072,25.335924 C21.9318971,27.1124979 20.7157985,28.9308449 19.5615108,30.9584519 C16.893857,35.6444182 15.010374,40.659216 14.164653,46.028696 Z"></path>
                </g>
                <path d="M23.0448353,15.2794674 C23.2040552,15.9411086 21.9776005,16.4885934 21.3937942,16.9568676 C20.8111417,17.423977 19.4970007,18.1357072 17.7975013,19.0501233 C16.098002,19.9645394 13.9635324,20.6553022 12.5801653,20.3000195 C11.1956445,19.9435719 10.1872518,19.8829991 9.01156286,20.6250158 C7.83587392,21.3670324 6.75940897,20.6354995 6.63018703,19.7618536 C6.50211885,18.8882076 8.97348854,17.3832068 10.1687915,17.4845498 C11.1160345,17.5660901 12.9228342,16.5980903 13.856232,16.3965693 C14.2208225,16.3173588 14.8496257,16.306875 15.894939,15.9108222 C16.9367909,15.5147693 17.3383019,13.880469 17.8609585,13.6288589 C18.4897618,13.3306544 19.7069863,13.8000935 20.0404251,13.9072608 C20.5446214,14.0691765 22.8856154,14.618991 23.0448353,15.2794674 L23.0448353,15.2794674 Z M8.28930449,8.35320218 L8.54197955,10.2064965 C8.37814458,10.3276421 8.3493004,10.5408117 8.37814458,10.8145541 L7.41821014,10.5093604 C7.27052791,10.1156373 7.89125475,8.41377497 8.28930449,8.35320218 L8.28930449,8.35320218 Z M8.73350493,10.4348093 C8.95502826,10.4499525 9.02886938,10.7679596 9.02886938,10.9962724 C9.02886938,11.2245852 8.97002724,11.4517332 8.7911933,11.4214468 C8.61466689,11.3911604 8.5258268,10.8588188 8.5258268,10.8588188 C8.5119816,11.1022748 8.5119816,10.4185012 8.73350493,10.4348093 L8.73350493,10.4348093 Z M9.73612877,8.90185184 C9.94034559,8.65257153 10.5149217,11.2175961 10.2264799,11.3154444 C10.181483,11.3305876 9.20770332,11.0521858 9.20770332,11.0521858 C9.25039271,10.8902701 9.19385811,10.5233387 8.98502622,10.3416204 L9.73612877,8.90185184 Z M12.7220787,14.4640645 C12.3401817,14.0691765 12.1463488,13.4028758 12.1486563,12.4826354 C12.1498101,11.2222555 12.8293791,8.72712265 14.3892725,8.67237417 L14.4781126,8.67004445 C14.9730788,8.67004445 15.3653597,8.82031155 15.6480327,9.11735118 C16.1729969,9.66833057 16.2110712,10.5990547 16.2041486,10.9741401 C16.1649205,12.7820048 15.4588149,14.7389717 14.3465832,14.8822497 C13.6324012,14.9742737 13.0809004,14.8344903 12.7220787,14.4640645 L12.7220787,14.4640645 Z M8.61466689,12.9101395 L8.64581861,11.6346164 C8.64581861,11.6346164 8.88234092,11.8466212 9.05886733,11.6788811 L9.88611853,13.3353139 C9.57575511,13.5636267 8.77850186,13.2293115 8.61466689,12.9101395 L8.61466689,12.9101395 Z M12.8836061,15.2375324 C13.1882007,15.38314 13.5366385,15.46701 13.935842,15.46701 C14.089293,15.46701 14.2485129,15.4553614 14.4146554,15.4343939 C15.8845551,15.2445215 16.6991148,13.0534174 16.742958,10.9857887 C16.7568032,10.4348093 16.6795008,9.40623678 16.033391,8.72828751 C15.6480327,8.32175093 15.1276837,8.11673534 14.486189,8.11557048 C13.405109,7.86046586 9.20424201,6.88664183 8.455447,6.90411475 C7.2001481,6.93207142 6.06714855,8.61529597 5.83985638,9.66949543 C5.61487175,10.7178706 5.7117882,12.9637231 7.57166119,13.3819083 L12.8836061,15.2375324 Z" id="technological_disaster" fill="#FFFFFF"></path>
            </g>
        </g>
    </g>
</svg>