<?xml version="1.0" encoding="UTF-8"?>
<svg width="25px" height="46px" viewBox="0 0 25 46" version="1.1" xmlns="http://www.w3.org/2000/svg" xmlns:xlink="http://www.w3.org/1999/xlink">
    <!-- Generator: Sketch 43.2 (39069) - http://www.bohemiancoding.com/sketch -->
    <title>tornado_amber</title>
    <desc>Created with Sketch.</desc>
    <defs>
        <path d="M22.3715012,19.9190952 C24.4461124,16.633381 24.688427,14.6816667 24.688427,12.047619 C24.688427,5.39404762 18.948116,0 12.30936,0 C5.58761962,0 0,5.39404762 0,12.047619 C0,14.6816667 0.208014354,16.633381 2.2826256,19.9190952 C3.20651914,21.3845238 12.30936,30.9404762 12.30936,45.5892857 C12.30936,30.9404762 21.4465012,21.3845238 22.3715012,19.9190952 Z" id="path-1"></path>
    </defs>
    <g id="Maps-Pins" stroke="none" stroke-width="1" fill="none" fill-rule="evenodd">
        <g id="Artboard" transform="translate(-597.000000, -140.000000)">
            <g id="tornado_amber" transform="translate(597.000000, 140.000000)">
                <g id="Imported-Layers">
                    <use fill="#F3A500" fill-rule="evenodd" xlink:href="#path-1"></use>
                    <path stroke="#FFFFFF" stroke-width="1" d="M12.3102819,39.595356 C11.5479953,35.0696072 9.941628,30.8351718 7.69318342,26.8716945 C6.69222137,25.1072345 5.63758873,23.5248157 4.48414442,21.9796972 C4.05413496,21.4036698 2.80666839,19.8127722 2.70558366,19.6524373 C0.924293538,16.831277 0.5,15.1578451 0.5,12.047619 C0.5,5.69882412 5.83453892,0.5 12.30936,0.5 C18.7444847,0.5 24.188427,5.74032491 24.188427,12.047619 C24.188427,15.1021552 23.7436316,16.8094235 21.9487232,19.6521518 L21.9486872,19.6522089 C21.8469623,19.8133663 20.5927013,21.408043 20.1645843,21.9796037 C19.0065559,23.5256377 17.9481849,25.1081457 16.9435541,26.8728673 C14.6872469,30.8362675 13.0752791,35.0702291 12.3102819,39.595356 Z"></path>
                </g>
                <path d="M19,7.73277826 C17.978816,8.53493908 15.3486896,8.98499935 12.5032367,9.03305507 C9.29644174,8.98037861 6.73747481,8.75673469 6.00370097,7.73277826 C5.99815608,7.75957856 5.77358802,10.2455378 9.9026831,11.6317604 C12.7647707,12.5919506 11.2020358,14.2313898 11.2020358,14.2313898 C11.2020358,14.2313898 8.09966956,17.1766508 10.7695343,18.1294478 C12.4413188,18.7255235 12.2823652,19.5323051 12.0698111,19.8622261 C13.6907674,17.8217064 9.07094953,17.4603644 14.2350908,15.0973169 C16.8855484,13.8848342 17.2173177,13.1787848 16.4003705,12.065186 C15.3311308,10.6031832 18.7745078,10.016349 19,7.73277826 M6.00370097,7.30027681 C6.8308138,6.66353856 9.60510731,6 12.5032367,6 C15.693397,6 18.4649181,6.59145498 19,7.30027681 C18.5388499,8.10890666 14.3071744,8.59962946 12.5032367,8.59962946 C10.6974507,8.59962946 6.3936916,8.23551499 6.00370097,7.30027681" id="tornado" fill="#FFFFFF"></path>
            </g>
        </g>
    </g>
</svg>