<?xml version="1.0" encoding="UTF-8"?>
<svg width="30px" height="52px" viewBox="0 0 30 52" version="1.1" xmlns="http://www.w3.org/2000/svg" xmlns:xlink="http://www.w3.org/1999/xlink">
    <!-- Generator: Sketch 43.2 (39069) - http://www.bohemiancoding.com/sketch -->
    <title>tornado_blue</title>
    <desc>Created with Sketch.</desc>
    <defs>
        <path d="M25.7417029,22.9198491 C28.1288483,19.1391515 28.4076669,16.8934171 28.4076669,13.8625579 C28.4076669,6.20664523 21.8025947,0 14.1637294,0 C6.42937829,0 0,6.20664523 0,13.8625579 C0,16.8934171 0.239351112,19.1391515 2.62649652,22.9198491 C3.68957194,24.6060402 14.1637294,35.6015691 14.1637294,52.4571792 C14.1637294,35.6015691 24.6773543,24.6060402 25.7417029,22.9198491 Z" id="path-1"></path>
    </defs>
    <g id="Maps-Pins" stroke="none" stroke-width="1" fill="none" fill-rule="evenodd">
        <g id="Artboard" transform="translate(-264.000000, -156.000000)">
            <g id="tornado_blue" transform="translate(264.732008, 155.968592)">
                <g id="Imported-Layers">
                    <use fill="#131D50" fill-rule="evenodd" xlink:href="#path-1"></use>
                    <path stroke="#FFFFFF" stroke-width="1" d="M14.164653,46.028696 C13.3219308,40.658452 11.4449851,35.6430679 8.78662355,30.9570036 C7.63655075,28.9296966 6.42474842,27.1114532 5.09930791,25.3359339 C4.60680303,24.6761895 3.16818919,22.8415214 3.04945458,22.6531911 C0.991733502,19.3942268 0.5,17.4548089 0.5,13.8625579 C0.5,6.51529477 6.67232345,0.5 14.1637294,0.5 C21.609258,0.5 27.9076669,6.56283216 27.9076669,13.8625579 C27.9076669,17.3908587 27.3922352,19.3692519 25.3189249,22.6529056 L25.3188889,22.6529627 C25.1993937,22.8422726 23.7528928,24.6813647 23.2626072,25.335924 C21.9318971,27.1124979 20.7157985,28.9308449 19.5615108,30.9584519 C16.893857,35.6444182 15.010374,40.659216 14.164653,46.028696 Z"></path>
                </g>
                <path d="M21.8622948,8.89769885 C20.6872724,9.82070286 17.6609252,10.3385634 14.386813,10.3938586 C10.6969237,10.3332466 7.75245582,10.0759113 6.90814109,8.89769885 C6.90176088,8.92853654 6.64336229,11.7889983 11.3944935,13.3840513 C14.6877463,14.4888914 12.8895899,16.3753074 12.8895899,16.3753074 C12.8895899,16.3753074 9.31986125,19.7642634 12.3919334,20.8605965 C14.3155673,21.5464693 14.1326679,22.4747901 13.8880931,22.8544128 C15.7532418,20.5064947 10.4374617,20.0907176 16.3795659,17.3716839 C19.4293073,15.9765441 19.8110566,15.1641305 18.8710387,13.8827712 C17.6407212,12.200522 21.6028329,11.5252829 21.8622948,8.89769885 M6.90814109,8.40004231 C7.85985606,7.66738129 11.0520888,6.90388258 14.386813,6.90388258 C18.0575617,6.90388258 21.2466044,7.58443853 21.8622948,8.40004231 C21.3316739,9.3304899 16.4625087,9.89513867 14.386813,9.89513867 C12.3089906,9.89513867 7.35688267,9.47617141 6.90814109,8.40004231" id="tornado" fill="#FFFFFF"></path>
            </g>
        </g>
    </g>
</svg>