<?xml version="1.0" encoding="UTF-8"?>
<svg width="29px" height="53px" viewBox="0 0 29 53" version="1.1" xmlns="http://www.w3.org/2000/svg" xmlns:xlink="http://www.w3.org/1999/xlink">
    <!-- Generator: Sketch 43.2 (39069) - http://www.bohemiancoding.com/sketch -->
    <title>violent_wind_blue</title>
    <desc>Created with Sketch.</desc>
    <defs>
        <path d="M25.7417029,22.9198491 C28.1288483,19.1391515 28.4076669,16.8934171 28.4076669,13.8625579 C28.4076669,6.20664523 21.8025947,0 14.1637294,0 C6.42937829,0 0,6.20664523 0,13.8625579 C0,16.8934171 0.239351112,19.1391515 2.62649652,22.9198491 C3.68957194,24.6060402 14.1637294,35.6015691 14.1637294,52.4571792 C14.1637294,35.6015691 24.6773543,24.6060402 25.7417029,22.9198491 Z" id="path-1"></path>
    </defs>
    <g id="Maps-Pins" stroke="none" stroke-width="1" fill="none" fill-rule="evenodd">
        <g id="Artboard" transform="translate(-30.000000, -208.000000)">
            <g id="violent_wind_blue" transform="translate(30.000000, 208.898359)">
                <g id="Imported-Layers">
                    <use fill="#131D50" fill-rule="evenodd" xlink:href="#path-1"></use>
                    <path stroke="#FFFFFF" stroke-width="1" d="M14.164653,46.028696 C13.3219308,40.658452 11.4449851,35.6430679 8.78662355,30.9570036 C7.63655075,28.9296966 6.42474842,27.1114532 5.09930791,25.3359339 C4.60680303,24.6761895 3.16818919,22.8415214 3.04945458,22.6531911 C0.991733502,19.3942268 0.5,17.4548089 0.5,13.8625579 C0.5,6.51529477 6.67232345,0.5 14.1637294,0.5 C21.609258,0.5 27.9076669,6.56283216 27.9076669,13.8625579 C27.9076669,17.3908587 27.3922352,19.3692519 25.3189249,22.6529056 L25.3188889,22.6529627 C25.1993937,22.8422726 23.7528928,24.6813647 23.2626072,25.335924 C21.9318971,27.1124979 20.7157985,28.9308449 19.5615108,30.9584519 C16.893857,35.6444182 15.010374,40.659216 14.164653,46.028696 Z"></path>
                </g>
                <path d="M11.1671131,7.36442022 C11.3945977,6.93714471 11.6962622,6.56624583 11.9435281,6.37535654 L12.2669519,6.31502365 C12.2857441,6.52965047 12.113647,7.13100119 11.710109,7.85895206 C11.1730475,8.82526728 10.7596188,9.19616616 10.6112593,9.21495837 L10.5716967,9.16451612 C10.5232326,8.95186743 10.7052203,8.2338072 11.1671131,7.36442022 M10.7408266,7.13792464 C10.5934561,7.41486247 10.280912,8.05379761 10.1523337,8.62745454 L8.85072594,6.96286036 L11.1334849,6.52965047 C10.9218253,6.81153362 10.7744548,7.07660269 10.7408266,7.13792464 M22.0695621,8.45931372 C21.6393194,8.49986533 19.8283438,8.16457274 19.1706164,7.97665064 C18.5128891,7.7897176 17.9283524,6.63449122 16.7533448,7.01132448 C15.5793262,7.38519056 14.6525735,6.52569422 13.8543991,6.52569422 C13.3005234,6.52569422 13.0097387,6.3872253 12.7515931,6.23787668 C12.73379,6.06083429 12.6675227,5.91742005 12.5250975,5.8343387 C12.4321255,5.7799402 12.331241,5.75323548 12.222444,5.75323548 C12.0592485,5.75323548 11.8980311,5.82246994 11.7457153,5.92137631 L8.53818181,6.52965047 L8.53818181,6.52569422 L8.05452967,6.52569422 L8.05452967,20.5891907 L8.53818181,20.5891907 L8.53818181,7.34661707 L10.1602463,9.42167268 C10.1750822,9.45233365 10.2017869,9.47409305 10.2215682,9.50079777 L10.280912,9.57596661 L10.2868464,9.56904317 C10.311573,9.59179163 10.3224527,9.62047448 10.3531137,9.63827763 C10.4282825,9.68080736 10.5103748,9.7015777 10.5974124,9.7015777 L10.5984015,9.7015777 C10.6933516,9.7015777 10.793247,9.66498235 10.8970987,9.61058384 C11.3767946,9.77674654 12.0849642,9.94290924 12.4034427,9.91027014 C12.8504995,9.86180602 13.4785549,10.0883016 13.8543991,10.3939223 C14.2302433,10.6985539 15.8948375,10.2989722 16.2706817,10.3939223 C16.6465259,10.4878833 17.7572444,11.1485779 18.2043012,11.3592484 C18.6493798,11.5718971 20.3851866,11.430461 20.6215728,11.3592484 C20.8559809,11.290014 21.7342695,9.65212452 21.851968,9.42760706 C21.9696666,9.20308961 22.3286967,8.43656525 22.0695621,8.45931372" id="violent_wind" fill="#FFFFFF"></path>
            </g>
        </g>
    </g>
</svg>