<?xml version="1.0" encoding="UTF-8"?>
<svg width="25px" height="46px" viewBox="0 0 25 46" version="1.1" xmlns="http://www.w3.org/2000/svg" xmlns:xlink="http://www.w3.org/1999/xlink">
    <!-- Generator: Sketch 43.2 (39069) - http://www.bohemiancoding.com/sketch -->
    <title>violent_wind_red</title>
    <desc>Created with Sketch.</desc>
    <defs>
        <path d="M22.3715012,19.9190952 C24.4461124,16.633381 24.688427,14.6816667 24.688427,12.047619 C24.688427,5.39404762 18.948116,0 12.30936,0 C5.58761962,0 0,5.39404762 0,12.047619 C0,14.6816667 0.208014354,16.633381 2.2826256,19.9190952 C3.20651914,21.3845238 12.30936,30.9404762 12.30936,45.5892857 C12.30936,30.9404762 21.4465012,21.3845238 22.3715012,19.9190952 Z" id="path-1"></path>
    </defs>
    <g id="Maps-Pins" stroke="none" stroke-width="1" fill="none" fill-rule="evenodd">
        <g id="Artboard" transform="translate(-30.000000, -186.000000)">
            <g id="violent_wind_red" transform="translate(30.000000, 186.000000)">
                <g id="Imported-Layers">
                    <use fill="#CE2912" fill-rule="evenodd" xlink:href="#path-1"></use>
                    <path stroke="#FFFFFF" stroke-width="1" d="M12.3102819,39.595356 C11.5479953,35.0696072 9.941628,30.8351718 7.69318342,26.8716945 C6.69222137,25.1072345 5.63758873,23.5248157 4.48414442,21.9796972 C4.05413496,21.4036698 2.80666839,19.8127722 2.70558366,19.6524373 C0.924293538,16.831277 0.5,15.1578451 0.5,12.047619 C0.5,5.69882412 5.83453892,0.5 12.30936,0.5 C18.7444847,0.5 24.188427,5.74032491 24.188427,12.047619 C24.188427,15.1021552 23.7436316,16.8094235 21.9487232,19.6521518 L21.9486872,19.6522089 C21.8469623,19.8133663 20.5927013,21.408043 20.1645843,21.9796037 C19.0065559,23.5256377 17.9481849,25.1081457 16.9435541,26.8728673 C14.6872469,30.8362675 13.0752791,35.0702291 12.3102819,39.595356 Z"></path>
                </g>
                <path d="M9.70507215,6.4002423 C9.90277364,6.02890733 10.164943,5.70656794 10.3798359,5.5406706 L10.6609159,5.48823673 C10.6772477,5.67476379 10.5276823,6.19738338 10.176977,6.83002815 C9.71022958,7.66982971 9.35092861,7.99216909 9.22199285,8.00850096 L9.18760998,7.9646628 C9.14549097,7.77985488 9.30365216,7.15580583 9.70507215,6.4002423 M9.33459674,6.20340038 C9.20652056,6.44408046 8.9348959,6.99936378 8.82315158,7.49791537 L7.69195522,6.05125619 L9.67584671,5.67476379 C9.49189836,5.91974172 9.36382218,6.15010694 9.33459674,6.20340038 M19.180131,7.35178818 C18.8062173,7.38703062 17.2323415,7.09563581 16.6607264,6.93231719 C16.0891112,6.76985813 15.5811043,5.76587839 14.5599331,6.09337521 C13.5396215,6.41829331 12.7342028,5.6713255 12.0405285,5.6713255 C11.5591683,5.6713255 11.3064542,5.55098546 11.082106,5.42119013 C11.0666337,5.2673268 11.0090424,5.1426889 10.8852641,5.07048488 C10.8044644,5.02320844 10.716788,5 10.6222352,5 C10.4804058,5 10.3402956,5.06017002 10.2079216,5.14612719 L7.42033056,5.67476379 L7.42033056,5.6713255 L7,5.6713255 L7,17.8935755 L7.42033056,17.8935755 L7.42033056,6.38477001 L8.83002815,8.18815144 C8.84292173,8.21479817 8.86613017,8.23370874 8.8833216,8.25691718 L8.9348959,8.32224463 L8.94005333,8.31622763 C8.96154262,8.33599778 8.97099791,8.36092536 8.99764464,8.37639765 C9.06297208,8.41335923 9.13431654,8.43141023 9.20995885,8.43141023 L9.21081842,8.43141023 C9.2933373,8.43141023 9.38015404,8.39960608 9.47040907,8.35232964 C9.88730135,8.49673768 10.5027547,8.64114573 10.7795368,8.61277986 C11.1680632,8.57066085 11.7138912,8.76750277 12.0405285,9.03311043 C12.3671657,9.29785851 13.8138249,8.95059154 14.1404621,9.03311043 C14.4670994,9.11476974 15.4323984,9.68896363 15.8209248,9.87205241 C16.2077321,10.0568603 17.7162804,9.93394157 17.921718,9.87205241 C18.1254365,9.81188239 18.8887362,8.38843165 18.9910252,8.19330887 C19.0933143,7.9981861 19.4053388,7.33201803 19.180131,7.35178818" id="violent_wind" fill="#FFFFFF"></path>
            </g>
        </g>
    </g>
</svg>