<?xml version="1.0" encoding="UTF-8"?>
<svg width="29px" height="54px" viewBox="0 0 29 54" version="1.1" xmlns="http://www.w3.org/2000/svg" xmlns:xlink="http://www.w3.org/1999/xlink">
    <!-- Generator: Sketch 43.2 (39069) - http://www.bohemiancoding.com/sketch -->
    <title>volcano_blue</title>
    <desc>Created with Sketch.</desc>
    <defs>
        <path d="M25.7417029,22.9198491 C28.1288483,19.1391515 28.4076669,16.8934171 28.4076669,13.8625579 C28.4076669,6.20664523 21.8025947,0 14.1637294,0 C6.42937829,0 0,6.20664523 0,13.8625579 C0,16.8934171 0.239351112,19.1391515 2.62649652,22.9198491 C3.68957194,24.6060402 14.1637294,35.6015691 14.1637294,52.4571792 C14.1637294,35.6015691 24.6773543,24.6060402 25.7417029,22.9198491 Z" id="path-1"></path>
    </defs>
    <g id="Maps-Pins" stroke="none" stroke-width="1" fill="none" fill-rule="evenodd">
        <g id="Artboard" transform="translate(-69.000000, -208.000000)">
            <g id="volcano_blue" transform="translate(69.122001, 208.898359)">
                <g id="Imported-Layers">
                    <use fill="#131D50" fill-rule="evenodd" xlink:href="#path-1"></use>
                    <path stroke="#FFFFFF" stroke-width="1" d="M14.164653,46.028696 C13.3219308,40.658452 11.4449851,35.6430679 8.78662355,30.9570036 C7.63655075,28.9296966 6.42474842,27.1114532 5.09930791,25.3359339 C4.60680303,24.6761895 3.16818919,22.8415214 3.04945458,22.6531911 C0.991733502,19.3942268 0.5,17.4548089 0.5,13.8625579 C0.5,6.51529477 6.67232345,0.5 14.1637294,0.5 C21.609258,0.5 27.9076669,6.56283216 27.9076669,13.8625579 C27.9076669,17.3908587 27.3922352,19.3692519 25.3189249,22.6529056 L25.3188889,22.6529627 C25.1993937,22.8422726 23.7528928,24.6813647 23.2626072,25.335924 C21.9318971,27.1124979 20.7157985,28.9308449 19.5615108,30.9584519 C16.893857,35.6444182 15.010374,40.659216 14.164653,46.028696 Z"></path>
                </g>
                <path d="M5.75323548,19.6041824 C10.2030636,16.3606451 11.3140153,11.8787027 11.3140153,11.8787027 L15.8872825,11.8787027 C15.8872825,11.8787027 16.9982341,16.3606451 21.4480623,19.6041824 L5.75323548,19.6041824 Z M14.9178341,8.90512565 C15.9053467,9.24332865 17.2170123,9.64174582 17.4960047,8.04406284 C17.7167901,6.80465424 19.3716765,7.26428917 20.077186,7.18400359 C21.3547303,7.03848598 20.3913034,4.63895079 18.7865954,4.60382585 C17.1628196,4.56870091 16.4241923,5.28123541 15.7758862,6.75347218 C15.4687939,7.46098883 15.2038515,7.99589149 14.0567713,7.614535 C12.9106947,7.23217494 12.0707068,8.17352333 12.7671842,9.33465349 C13.3843796,10.3633124 12.7571485,11.4842998 12.7571485,11.4842998 L14.4873027,11.4842998 C14.4873027,11.4842998 14.4732527,10.8450259 14.0567713,10.1937092 C13.5710436,9.43501046 13.9052323,8.55588339 14.9178341,8.90512565 L14.9178341,8.90512565 Z" id="volcano" fill="#FFFFFF"></path>
            </g>
        </g>
    </g>
</svg>