<?xml version="1.0" encoding="UTF-8"?>
<svg width="25px" height="46px" viewBox="0 0 25 46" version="1.1" xmlns="http://www.w3.org/2000/svg" xmlns:xlink="http://www.w3.org/1999/xlink">
    <!-- Generator: Sketch 43.2 (39069) - http://www.bohemiancoding.com/sketch -->
    <title>volcano_red</title>
    <desc>Created with Sketch.</desc>
    <defs>
        <path d="M22.3715012,19.9190952 C24.4461124,16.633381 24.688427,14.6816667 24.688427,12.047619 C24.688427,5.39404762 18.948116,0 12.30936,0 C5.58761962,0 0,5.39404762 0,12.047619 C0,14.6816667 0.208014354,16.633381 2.2826256,19.9190952 C3.20651914,21.3845238 12.30936,30.9404762 12.30936,45.5892857 C12.30936,30.9404762 21.4465012,21.3845238 22.3715012,19.9190952 Z" id="path-1"></path>
    </defs>
    <g id="Maps-Pins" stroke="none" stroke-width="1" fill="none" fill-rule="evenodd">
        <g id="Artboard" transform="translate(-64.000000, -186.000000)">
            <g id="volcano_red" transform="translate(64.000000, 186.000000)">
                <g id="Imported-Layers">
                    <use fill="#CE2912" fill-rule="evenodd" xlink:href="#path-1"></use>
                    <path stroke="#FFFFFF" stroke-width="1" d="M12.3102819,39.595356 C11.5479953,35.0696072 9.941628,30.8351718 7.69318342,26.8716945 C6.69222137,25.1072345 5.63758873,23.5248157 4.48414442,21.9796972 C4.05413496,21.4036698 2.80666839,19.8127722 2.70558366,19.6524373 C0.924293538,16.831277 0.5,15.1578451 0.5,12.047619 C0.5,5.69882412 5.83453892,0.5 12.30936,0.5 C18.7444847,0.5 24.188427,5.74032491 24.188427,12.047619 C24.188427,15.1021552 23.7436316,16.8094235 21.9487232,19.6521518 L21.9486872,19.6522089 C21.8469623,19.8133663 20.5927013,21.408043 20.1645843,21.9796037 C19.0065559,23.5256377 17.9481849,25.1081457 16.9435541,26.8728673 C14.6872469,30.8362675 13.0752791,35.0702291 12.3102819,39.595356 Z"></path>
                </g>
                <path d="M5,17.0375282 C8.86723969,14.2186472 9.83274135,10.3234978 9.83274135,10.3234978 L13.807259,10.3234978 C13.807259,10.3234978 14.7727607,14.2186472 18.6400003,17.0375282 L5,17.0375282 Z M12.9647345,7.73923272 C13.8229582,8.03315689 14.9628956,8.37941177 15.2053612,6.99090352 C15.3972405,5.91376301 16.8354629,6.31322079 17.4486044,6.24344651 C18.5588877,6.11698062 17.7215963,4.0316017 16.3269828,4.00107545 C14.9157979,3.9705492 14.2738745,4.58979597 13.7104472,5.86928191 C13.4435605,6.48416779 13.2133054,6.94903895 12.2164053,6.6176111 C11.2203774,6.28531108 10.490364,7.10341456 11.0956559,8.11252514 C11.6320457,9.00650815 11.0869341,9.98073159 11.0869341,9.98073159 L12.5905699,9.98073159 C12.5905699,9.98073159 12.5783594,9.42515386 12.2164053,8.85910998 C11.7942709,8.19974299 12.0847064,7.43571458 12.9647345,7.73923272 L12.9647345,7.73923272 Z" id="volcano" fill="#FFFFFF"></path>
            </g>
        </g>
    </g>
</svg>