<?xml version="1.0" encoding="UTF-8"?>
<svg width="50px" height="36px" viewBox="0 0 50 36" version="1.1" xmlns="http://www.w3.org/2000/svg" xmlns:xlink="http://www.w3.org/1999/xlink">
    <!-- Generator: Sketch 42 (36781) - http://www.bohemiancoding.com/sketch -->
    <title>education_noun_4212</title>
    <desc>Created with Sketch.</desc>
    <defs></defs>
    <g id="02-Response-Plans" stroke="none" stroke-width="1" fill="none" fill-rule="evenodd">
        <g id="Create-Response-plan-2" transform="translate(-641.000000, -511.000000)" fill="#000000">
            <g id="education_noun_4212" transform="translate(641.000000, 511.000000)">
                <path d="M25.2475,4.115 C23.519,2.4615 13.587,-3.2825 0,2.5705 L0,6.7535 L0,34.6785 L20.586,34.6785 C21.2925,35.284 22.972,35.7135 24.9385,35.7135 C26.901,35.7135 28.5845,35.284 29.2935,34.6785 L50,34.6785 L50,6.7535 L50,2.5705 C36.9725,-3.1715 26.5625,2.9025 25.2475,4.115 L25.2475,4.115 Z M23.4015,32.6795 C23.4015,31.579 13.737,25.147 2.578,32.165 L2.578,4.9385 C4.788,3.6705 7.7605,2.894 11.0415,2.894 C17.871,2.894 23.4015,5.135 23.4015,9.292 L23.4015,32.6795 L23.4015,32.6795 Z M47.5815,32.165 C36.4225,25.147 26.764,31.579 26.764,32.6795 L26.764,9.2925 C26.764,5.1355 32.295,2.8945 39.1175,2.8945 C42.3985,2.8945 45.371,3.671 47.5815,4.939 L47.5815,32.165 L47.5815,32.165 Z" id="Shape"></path>
            </g>
        </g>
    </g>
</svg>