<?xml version="1.0" encoding="UTF-8"?>
<svg width="33px" height="40px" viewBox="0 0 33 40" version="1.1" xmlns="http://www.w3.org/2000/svg" xmlns:xlink="http://www.w3.org/1999/xlink">
    <!-- Generator: Sketch 42 (36781) - http://www.bohemiancoding.com/sketch -->
    <title>foodsec_noun_4272</title>
    <desc>Created with Sketch.</desc>
    <defs></defs>
    <g id="02-Response-Plans" stroke="none" stroke-width="1" fill="none" fill-rule="evenodd">
        <g id="Create-Response-plan-2" transform="translate(-498.000000, -507.000000)" fill="#000000">
            <g id="foodsec_noun_4272" transform="translate(498.000000, 507.000000)">
                <g id="Group">
                    <path d="M12.866,17.8448 C13.0508,18.0348 13.1396,18.2588 13.1396,18.5204 C13.1396,18.8108 13.0328,19.0672 12.814,19.2848 C12.5976,19.5012 12.3164,19.6364 11.9676,19.6912 L11.9676,17.406 C12.3816,17.5088 12.6836,17.6548 12.866,17.8448 L12.866,17.8448 Z" id="Shape"></path>
                    <path d="M10.0612,14.4788 C10.0612,14.6848 10.1392,14.8788 10.2852,15.0544 C10.4364,15.2356 10.6604,15.376 10.96,15.4868 L10.96,13.4596 C10.6864,13.5352 10.468,13.6704 10.3064,13.8568 C10.1444,14.0468 10.0612,14.25 10.0612,14.4788 L10.0612,14.4788 Z" id="Shape"></path>
                    <path d="M16.3476,0.0348 C13.7384,-0.2544 12.824,1.3488 11.5224,1.4124 C10.2072,1.3484 9.3036,-0.2544 6.6892,0.0348 C4.022,0.3316 2.3996,2.6012 2.3996,2.6012 L5.6548,5.6284 L17.3816,5.6284 L20.6368,2.6012 C20.6368,2.6012 19.0172,0.3316 16.3476,0.0348 L16.3476,0.0348 Z" id="Shape"></path>
                    <path d="M18.2616,7.5792 L4.7772,7.5792 C4.7772,7.5792 -1.702,12.6756 0.4308,22.0716 C0.4308,22.0716 1.1368,24.7812 4.3892,24.7812 L7.5688,24.7812 C10.0116,21.7316 15.082,21.1468 18.3708,21.0376 C18.6576,19.7592 19.1156,18.4256 19.7668,17.1016 C20.4592,15.6968 21.2904,14.4688 22.1888,13.4232 C20.8192,9.5948 18.2616,7.5792 18.2616,7.5792 L18.2616,7.5792 Z M14.082,19.8304 C13.574,20.3136 12.8684,20.6104 11.9676,20.7212 L11.9676,21.8148 L10.9596,21.8148 L10.9596,20.7484 C10.1576,20.668 9.5064,20.4164 9.0064,19.9932 C8.5064,19.5712 8.1888,18.9764 8.0508,18.208 L9.8632,18.0452 C9.9388,18.3552 10.074,18.6248 10.28,18.8528 C10.4832,19.0768 10.7124,19.2436 10.9596,19.3436 L10.9596,16.8892 C10.0508,16.672 9.3864,16.3396 8.962,15.8984 C8.5372,15.4532 8.3264,14.9164 8.3264,14.2812 C8.3264,13.6432 8.5636,13.104 9.0452,12.6692 C9.5244,12.2344 10.1624,11.9816 10.9596,11.918 L10.9596,11.336 L11.9676,11.336 L11.9676,11.918 C12.702,11.9924 13.2904,12.2032 13.7256,12.552 C14.1604,12.9012 14.4392,13.3696 14.5588,13.9532 L12.8008,14.1484 C12.694,13.6888 12.418,13.3724 11.9676,13.2108 L11.9676,15.5 C13.0796,15.7552 13.8372,16.0832 14.2356,16.4884 C14.642,16.892 14.8424,17.4116 14.8424,18.0456 C14.8424,18.75 14.59,19.346 14.082,19.8304 L14.082,19.8304 Z" id="Shape"></path>
                    <path d="M29.3688,23.9112 C29.1108,24.3224 28.8324,24.6976 28.5564,25.0724 C30.0224,25.6896 30.9392,26.4684 30.9392,27.3224 C30.9392,29.3016 26.2468,30.9084 20.46,30.9084 C14.6736,30.9084 9.9808,29.3016 9.9808,27.3224 C9.9808,25.6272 13.4368,24.2132 18.0644,23.8408 C18.0668,23.4424 18.0724,23.044 18.1136,22.6192 C12.2128,22.8952 7.7176,24.406 7.7176,29.0568 C7.7172,34.2812 13.3712,40 20.34,40 C27.3092,40 32.96,34.2812 32.96,29.0572 C32.9596,26.4896 31.5848,24.8852 29.3688,23.9112 L29.3688,23.9112 Z" id="Shape"></path>
                    <path d="M19.9624,30.0728 L21.6344,27.3932 L21.6344,27.3932 C21.7696,27.1276 21.3064,27.1876 20.8844,26.974 L20.8844,26.974 C20.4624,26.758 20.2412,26.3492 20.1084,26.612 L18.9288,29.6332 C18.7828,29.922 19.65,30.6876 19.9624,30.0728 L19.9624,30.0728 Z" id="Shape"></path>
                    <path d="M20.84,22.8672 C19.2284,20.854 20.1552,19.4556 20.1552,19.4556 C19.624,19.8452 17.8504,24.7136 20.0276,25.8284 C21.0068,26.3228 22.65,25.1248 20.84,22.8672 L20.84,22.8672 Z" id="Shape"></path>
                    <path d="M22.4912,19.6272 C20.8792,17.6168 21.8116,16.216 21.8116,16.216 C21.2776,16.6068 19.4992,21.4748 21.6816,22.5884 C22.658,23.0884 24.3008,21.8916 22.4912,19.6272 L22.4912,19.6272 Z" id="Shape"></path>
                    <path d="M24.0952,16.4868 C22.4804,14.4804 23.41,13.0768 23.41,13.0768 C22.8816,13.4648 21.1028,18.3308 23.2828,19.448 C24.2592,19.9424 25.9,18.7484 24.0952,16.4868 L24.0952,16.4868 Z" id="Shape"></path>
                    <path d="M22.374,27.0236 C24.5564,28.1352 27.4548,23.8384 27.46,23.182 C27.46,23.182 26.8688,24.75 24.296,24.63 C21.4024,24.4896 21.4,26.5256 22.374,27.0236 L22.374,27.0236 Z" id="Shape"></path>
                    <path d="M24.0248,23.7836 C26.2044,24.8984 29.108,20.6 29.1136,19.94 C29.1136,19.94 28.52,21.5156 25.9496,21.3908 C23.0536,21.2552 23.0484,23.2864 24.0248,23.7836 L24.0248,23.7836 Z" id="Shape"></path>
                    <path d="M25.6292,20.6416 C27.8112,21.756 30.7096,17.458 30.7124,16.8004 C30.7124,16.8004 30.1236,18.3784 27.5536,18.2484 C24.6552,18.1116 24.6524,20.1416 25.6292,20.6416 L25.6292,20.6416 Z" id="Shape"></path>
                    <path d="M25.8504,17.69 C28.1656,18.8696 28.2388,12.694 28.2388,12.694 C27.7076,13.0088 23.5352,16.51 25.8504,17.69 L25.8504,17.69 Z" id="Shape"></path>
                </g>
            </g>
        </g>
    </g>
</svg>