<?xml version="1.0" encoding="UTF-8"?>
<svg width="40px" height="40px" viewBox="0 0 40 40" version="1.1" xmlns="http://www.w3.org/2000/svg" xmlns:xlink="http://www.w3.org/1999/xlink">
    <!-- Generator: Sketch 42 (36781) - http://www.bohemiancoding.com/sketch -->
    <title>health_noun_4215</title>
    <desc>Created with Sketch.</desc>
    <defs></defs>
    <g id="02-Response-Plans" stroke="none" stroke-width="1" fill="none" fill-rule="evenodd">
        <g id="Create-Response-plan-2" transform="translate(-266.000000, -508.000000)" fill="#000000">
            <g id="health_noun_4215" transform="translate(266.000000, 508.000000)">
                <path d="M27.6356,2.6196 C26.3724,1.5844 25.4948,1.828 24.2292,4.0844 C23.3932,5.5764 22.0624,5.7564 21.2472,5.7108 L21.2528,5.4124 C22.198,4.9424 22.8644,3.9892 22.8644,2.8656 C22.8644,1.28 21.5808,0 20,0 C18.4192,0 17.1304,1.28 17.1304,2.866 C17.1304,3.9896 17.7972,4.9428 18.7448,5.4104 L18.7476,5.7112 C17.9352,5.7568 16.6016,5.5772 15.7656,4.0848 C14.5052,1.8284 13.6248,1.5848 12.3648,2.62 C11.0964,3.6564 6.0964,9.6316 0,9.0832 C0,9.0832 1.2084,11.8268 4.5024,11.2188 C4.5024,11.2188 6.2628,13.0456 9.1196,11.7668 C9.1196,11.7668 10.604,13.1056 12.966,11.888 C12.966,11.888 14.7212,13.2292 16.5936,12.0704 C16.5936,12.0704 17.6508,12.836 18.8256,12.638 L18.9008,19.5364 C18.768,19.5104 18.6612,19.4792 18.5208,19.4544 C18.5156,19.452 16.474,19.0144 14.3148,18.4088 C12.2368,17.8644 9.9556,16.9816 9.6196,16.522 C9.6484,16.4932 9.6952,16.4712 9.7552,16.4424 C9.94,16.3448 10.2552,16.2444 10.6304,16.1676 C11.3932,16.0124 12.4272,15.9332 13.4664,15.8916 C15.5316,15.8172 15.904,15.9072 15.9404,15.914 C15.9432,15.8488 17.1356,16.0548 17.464,14.8396 C17.4512,14.8292 17.4876,14.7796 17.4668,14.7508 C17.3992,13.9148 16.756,13.8732 16.2296,13.7756 C15.3756,13.6636 15.8208,13.708 14.67,13.7224 C12.7792,13.8632 6.9536,13.3916 6.2196,16.458 C6.2196,16.544 6.2144,16.5988 6.204,16.6744 C6.4488,19.3448 11.9776,20.5036 15.9828,21.302 C14.6236,22.2328 13.8968,23.4436 13.6076,25.0092 C13.4696,26.6784 14.7952,28.2672 17.8732,30.0428 C15.5344,31.6992 13.998,33.2536 14.1232,35.1316 C14.342,36.6628 15.6936,38.7096 18.3496,39.9988 C18.3576,40.0016 18.36,39.996 18.3652,39.9988 L18.3732,39.9988 C18.3732,39.9988 16.514,37.1628 16.3888,35.6108 C16.2664,34.7044 16.782,33.366 19.0424,31.7536 L19.1076,37.4256 L19.118,37.4256 C19.1336,37.9076 19.506,38.2928 19.9748,38.2928 C20.4432,38.2928 20.816,37.9076 20.8316,37.4256 L20.8396,37.4256 L20.9148,31.902 C22.998,33.4464 23.4696,34.73 23.3496,35.6104 C23.2248,37.1624 21.368,39.9984 21.368,39.9984 L21.3732,39.9984 C21.3732,39.9984 21.3788,40.0012 21.3916,39.9984 C24.0452,38.7092 25.3996,36.6624 25.6156,35.1312 C25.7404,33.2536 24.2044,31.6988 21.8684,30.0424 C24.9436,28.2668 26.272,26.678 26.134,25.0088 C25.8448,23.4436 25.1184,22.2328 23.7564,21.3016 C27.7644,20.5032 33.2904,19.3444 33.5352,16.674 C33.5248,16.5984 33.5196,16.5436 33.5196,16.4576 C32.7876,13.3912 26.9596,13.8628 25.0688,13.722 C23.918,13.7076 24.3632,13.6636 23.5092,13.7752 C22.9832,13.8728 22.34,13.9144 22.272,14.7504 C22.2512,14.7792 22.2904,14.8284 22.2776,14.8392 C22.6056,16.054 23.7984,15.848 23.8012,15.9136 C23.8348,15.9068 24.2076,15.8172 26.2752,15.8912 C27.3116,15.9328 28.3456,16.0124 29.1084,16.1672 C29.486,16.244 29.796,16.344 29.9836,16.442 C30.0436,16.4708 30.0928,16.4928 30.122,16.5216 C29.786,16.9812 27.5048,17.864 25.4268,18.4084 C23.2652,19.014 21.2236,19.4512 21.2184,19.454 C21.1664,19.4644 21.1248,19.4748 21.0728,19.484 L21.1616,12.6364 C22.3436,12.8436 23.4088,12.07 23.4088,12.07 C25.276,13.2288 27.0364,11.8876 27.0364,11.8876 C29.398,13.1052 30.88,11.7664 30.88,11.7664 C33.7368,13.0452 35.4972,11.2184 35.4972,11.2184 C38.7892,11.8268 40,9.0832 40,9.0832 C33.9012,9.6316 28.9012,3.6564 27.6356,2.6196 L27.6356,2.6196 Z M17.3072,27.0844 C16.5444,26.6104 16.1876,25.97 16.2576,25.5376 C16.2992,24.936 16.0908,23.5012 18.9372,22.4568 L19.0024,28.1548 C18.4532,27.8084 17.8852,27.4516 17.3072,27.0844 L17.3072,27.0844 Z M23.4792,25.5376 C23.5496,25.97 23.1924,26.6108 22.4296,27.0844 C21.9296,27.4048 21.44,27.7092 20.9608,28.0112 L21.034,22.5452 C23.63,23.5844 23.4376,24.9544 23.4792,25.5376 L23.4792,25.5376 Z" id="Shape"></path>
            </g>
        </g>
    </g>
</svg>