<?xml version="1.0" encoding="UTF-8"?>
<svg width="22px" height="30px" viewBox="0 0 22 30" version="1.1" xmlns="http://www.w3.org/2000/svg" xmlns:xlink="http://www.w3.org/1999/xlink">
    <!-- Generator: Sketch 42 (36781) - http://www.bohemiancoding.com/sketch -->
    <title>?</title>
    <desc>Created with Sketch.</desc>
    <defs></defs>
    <g id="02-Response-Plans" stroke="none" stroke-width="1" fill="none" fill-rule="evenodd">
        <g id="Create-Response-plan-2" transform="translate(-807.000000, -512.000000)" fill="#000000">
            <path d="M820.065496,534.343011 L814.900068,534.343011 C814.886563,533.600266 814.879811,533.147874 814.879811,532.98582 C814.879811,531.311268 815.156648,529.933834 815.710331,528.853477 C816.264014,527.773121 817.371362,526.557738 819.032411,525.207292 C820.693459,523.856847 821.686021,522.972318 822.010128,522.55368 C822.509793,521.891962 822.759622,521.162732 822.759622,520.365969 C822.759622,519.258604 822.317358,518.30993 821.432816,517.519919 C820.548274,516.729908 819.356523,516.334909 817.857529,516.334909 C816.412552,516.334909 815.203921,516.746789 814.2316,517.57056 C813.259279,518.394332 812.590819,519.650228 812.226199,521.338285 L807,520.690074 C807.148549,518.272777 808.178248,516.22013 810.089129,514.532073 C812.00001,512.844016 814.508425,512 817.61445,512 C820.882528,512 823.482097,512.854144 825.413234,514.562458 C827.344372,516.270772 828.309926,518.259273 828.309926,520.528022 C828.309926,521.783936 827.955439,522.97231 827.246455,524.09318 C826.537471,525.21405 825.021619,526.740031 822.698852,528.671168 C821.496956,529.670498 820.750845,530.474001 820.4605,531.081702 C820.170154,531.689402 820.038487,532.776495 820.065496,534.343011 L820.065496,534.343011 Z M814.900068,542 L814.900068,536.3079 L820.592167,536.3079 L820.592167,542 L814.900068,542 Z" id="?"></path>
        </g>
    </g>
</svg>