<?xml version="1.0" encoding="UTF-8"?>
<svg width="50px" height="41px" viewBox="0 0 50 41" version="1.1" xmlns="http://www.w3.org/2000/svg" xmlns:xlink="http://www.w3.org/1999/xlink">
    <!-- Generator: Sketch 42 (36781) - http://www.bohemiancoding.com/sketch -->
    <title>nutrition2_noun_4322</title>
    <desc>Created with Sketch.</desc>
    <defs></defs>
    <g id="02-Response-Plans" stroke="none" stroke-width="1" fill="none" fill-rule="evenodd">
        <g id="Create-Response-plan-2" transform="translate(-413.000000, -508.000000)" fill="#000000">
            <g id="nutrition2_noun_4322" transform="translate(413.000000, 508.000000)">
                <g id="Group">
                    <path d="M24.837,20.4555 C23.828,17.0375 29.3225,14.974 29.2575,18.418 C29.7655,20.257 29.9085,21.322 28.0335,21.6735 C26.377,21.982 25.342,22.1645 24.837,20.4555 L24.837,20.4555 Z" id="Shape"></path>
                    <path d="M28.815,9.137 C28.268,10.996 30.9705,11.2625 30.27,13.3165 C31.6795,13.3165 31.2695,12.1935 31.797,11.269 C32.5585,9.941 34.323,9.6185 34.193,7.789 C34.3265,11.152 36.195,7.5415 37.4545,7.408 C37.523,6.78 37.23,5.9985 37.1615,5.5755 C36.543,4.2475 36.598,2.9515 34.896,3.886 C33.6815,4.5465 32.1225,5.826 33.6425,6.9785 C32.103,7.2035 29.3815,7.1905 28.815,9.137 L28.815,9.137 Z" id="Shape"></path>
                    <path d="M24.87,4.293 C24.17,4.69 23.8055,6.2235 23.646,6.949 C23.353,8.2935 23.441,12.5545 25.7,11.861 C26.979,11.474 26.7515,9.524 27.246,8.5015 C27.5815,7.8215 28.063,7.932 28.242,7.2095 C28.3725,6.679 28.0695,5.849 27.988,5.3085 C28.8475,7.522 32.171,6.523 31.3535,4.293 C30.683,3.681 29.371,3.3005 28.5055,3.756 C27.2455,4.4235 28.3945,5.1525 27.4315,5.1885 C26.771,5.208 26.2435,3.5185 24.87,4.293 L24.87,4.293 Z" id="Shape"></path>
                    <path d="M28.506,13.727 C27.5845,10.664 22.064,15.1105 23.122,17.015 C23.8935,18.4115 25.15,16.0355 25.928,15.635 C26.9955,15.0875 28.737,15.579 28.506,13.727 L28.506,13.727 Z" id="Shape"></path>
                    <path d="M30.5895,2.4965 C31.4355,2.845 32.406,2.796 32.116,1.543 C30.863,0.5305 27.35,0.25 27.4645,2.5585 C28.444,2.4345 29.629,2.096 30.5895,2.4965 L30.5895,2.4965 Z" id="Shape"></path>
                    <path d="M32.9625,14.469 C33.893,13.828 35.443,13.9255 35.1955,12.373 C33.649,8.844 30.7685,15.8595 30.524,17.0635 C31.6345,16.588 31.9565,15.156 32.9625,14.469 L32.9625,14.469 Z" id="Shape"></path>
                    <path d="M39.5345,19.046 C40.065,20.0745 42.3695,19.4205 43.5315,18.841 C45.052,18.092 45.4065,17.0765 45.0485,15.374 C44.004,11.0575 38.0825,16.2335 39.5345,19.046 L39.5345,19.046 Z" id="Shape"></path>
                    <path d="M35.9865,20.768 C37.272,19.6875 36.9665,16.1845 36.7545,14.756 C35.4135,14.5445 33.7925,15.1305 32.8385,16.097 C32.1485,16.8065 30.1955,20.137 30.9735,21.117 C31.4975,21.777 35.521,21.1655 35.9865,20.768 L35.9865,20.768 Z" id="Shape"></path>
                    <path d="M43.4895,12.298 C44.5275,12.0865 44.137,10.4525 43.9645,9.505 C43.883,6.992 41.201,9.007 41.676,10.8135 C41.865,11.52 42.6235,12.4735 43.4895,12.298 L43.4895,12.298 Z" id="Shape"></path>
                    <path d="M36.4745,12.311 C36.8785,13.0665 37.9065,13.0725 38.177,14.4075 C38.486,15.9145 37.822,17.5065 38.021,19.0395 C38.9905,18.2485 38.8315,15.397 39.684,14.069 C40.179,13.291 40.7615,13.177 40.778,12.2625 C40.791,11.6245 40.166,10.7915 39.8475,10.267 C40.834,10.2215 41.83,6.6995 40.4335,6.7675 C39.717,5.719 38.9065,5.5565 38.5515,6.699 C38.1805,7.897 39.629,9.0555 39.997,10.055 C38.278,9.075 35.1595,9.837 36.4745,12.311 L36.4745,12.311 Z" id="Shape"></path>
                    <path d="M15.586,11.917 C16.273,11.881 16.162,12.529 16.839,12.2425 C17.526,11.956 18.0045,10.703 18.444,10.13 C19.16,6.956 12.6855,7.4475 13.242,11.201 C13.4635,12.6915 14.1145,12.005 15.586,11.917 L15.586,11.917 Z" id="Shape"></path>
                    <path d="M12.6595,8.219 C12.4835,6.891 10.5145,6.5165 9.964,7.8025 C9.5605,8.743 12.422,11.3895 12.6595,8.219 L12.6595,8.219 Z" id="Shape"></path>
                    <path d="M11.9725,15.996 C11.5395,16.8945 11.38,18.0045 11.458,18.997 C11.598,20.748 11.8,20.3545 13.0435,20.755 C13.7205,20.9665 14.85,21.6075 15.563,21.497 C17.018,21.259 16.3475,20.836 16.074,19.82 C15.8495,18.977 15.3155,18.085 15.325,17.193 C15.338,15.966 16.3735,15.1295 16.2525,13.8695 C15.293,11.0835 12.51,14.863 11.9725,15.996 L11.9725,15.996 Z" id="Shape"></path>
                    <path d="M6.683,12.5095 C7.334,12.786 7.575,13.9025 8.1965,14.062 C8.74,14.1955 9.3525,13.4075 10.2475,13.551 C11.016,13.678 11.1555,15.1105 11.9565,13.8895 C12.4385,13.1475 12.2885,12.33 12.0085,11.526 C10.368,9.9275 8.304,9.104 6.214,10.172 C5.778,10.3965 3.9875,10.8945 4.8145,11.65 C5.6835,12.441 5.9405,12.1935 6.683,12.5095 L6.683,12.5095 Z" id="Shape"></path>
                    <path d="M26.1295,1.3865 C25.065,-0.541 19.7785,-0.684 20.7975,2.402 C21.455,4.391 26.4845,3.8375 26.1295,1.3865 L26.1295,1.3865 Z" id="Shape"></path>
                    <path d="M6.4225,13.4015 C5.2245,14.0755 3.9845,15.205 4.671,16.7575 C5.9015,19.5275 6.3605,18.004 7.122,16.2595 C7.3305,17.418 7.0765,18.629 8.2975,19.2085 C9.622,19.83 10.166,19.1695 10.306,17.8185 C10.4005,16.9265 10.9995,14.674 9.8275,14.3875 C8.991,14.189 8.047,15.621 7.259,15.8395 C7.3925,15.4425 7.464,14.9605 7.6755,14.5995 C7.438,14.02 6.927,13.727 6.4225,13.4015 L6.4225,13.4015 Z" id="Shape"></path>
                    <path d="M20.088,8.5445 C20.342,9.7715 18.669,11.526 18.0695,12.441 C18.5545,12.2165 18.535,12.392 18.916,12.0115 C18.965,12.6365 19.0135,13.258 19.0655,13.883 C20.778,13.6455 21.2235,15.478 22.565,13.3035 C23.8215,11.2755 22.529,10.3415 20.4685,10.615 C20.8655,9.4495 21.9465,10.5335 22.2135,9.261 C22.477,8.014 22.4705,6.7415 22.7275,5.4945 C22.2035,4.8795 20.9405,4.049 20.153,4.2805 C19.593,4.453 18.2485,6.133 18.3235,6.6245 C18.4735,7.5975 19.86,7.4605 20.088,8.5445 L20.088,8.5445 Z" id="Shape"></path>
                    <path d="M17.0115,17.1055 C15.7745,18.8145 17.4675,18.834 18.112,19.5635 C18.7825,20.3185 18.545,21.3735 19.424,21.533 C20.075,21.647 21.4485,22.213 22.087,21.7345 C23.389,20.7615 21.7385,18.0595 21.1105,16.956 C20.283,15.771 17.8645,15.934 17.0115,17.1055 L17.0115,17.1055 Z" id="Shape"></path>
                    <path d="M50,17.0375 C50,15.231 48.965,13.551 47.1975,12.0505 C46.452,12.542 45.651,12.9715 44.828,13.3165 C45.9735,14.176 46.615,15.123 46.615,16.1225 C46.615,20.0255 36.9375,23.1865 25.0005,23.1865 C13.0635,23.1865 3.386,20.0255 3.386,16.1225 C3.386,15.022 4.193,13.977 5.58,13.0465 L3.334,11.601 C1.2275,13.203 0,15.055 0,17.0375 C0,17.145 0.0065,17.256 0.013,17.363 L0,17.363 C0.163,21.585 1.4715,26.012 3.6295,30.1525 C3.6295,30.1525 8.8605,40.472 25,40.472 C41.139,40.472 46.2825,30.065 46.2825,30.065 C48.434,25.944 49.837,21.478 49.9935,17.3635 L49.9865,17.3635 C49.9935,17.2555 50,17.145 50,17.0375 L50,17.0375 Z" id="Shape"></path>
                    <path d="M19.0135,3.561 C19.8535,0.625 12.861,3.499 14.082,6.556 C14.974,8.782 18.353,4.6025 19.0135,3.561 L19.0135,3.561 Z" id="Shape"></path>
                </g>
            </g>
        </g>
    </g>
</svg>