<?xml version="1.0" encoding="UTF-8"?>
<svg width="44px" height="40px" viewBox="0 0 44 40" version="1.1" xmlns="http://www.w3.org/2000/svg" xmlns:xlink="http://www.w3.org/1999/xlink">
    <!-- Generator: Sketch 42 (36781) - http://www.bohemiancoding.com/sketch -->
    <title>protection_noun_4218</title>
    <desc>Created with Sketch.</desc>
    <defs></defs>
    <g id="02-Response-Plans" stroke="none" stroke-width="1" fill="none" fill-rule="evenodd">
        <g id="Create-Response-plan-2" transform="translate(-568.000000, -508.000000)" fill="#000000">
            <g id="protection_noun_4218" transform="translate(568.000000, 508.000000)">
                <g id="Group">
                    <path d="M7.27164835,15.2685714 L17.3705495,25.6307692 L17.3705495,39.7191209 L17.2905495,39.7191209 L17.2905495,39.7648352 L9.00879121,39.7648352 L9.00879121,33.6835165 L0.558241758,22.5186813 C0.22021978,22.1024176 0,21.5903297 0,21.029011 L0,3.87340659 C0,2.53098901 1.09010989,1.4378022 2.43824176,1.4378022 C3.77758242,1.4378022 4.87076923,2.53098901 4.87076923,3.87340659 L4.87076923,13.7806593 C4.28131868,13.9094505 3.72043956,14.1569231 3.27120879,14.596044 C1.98065934,15.8593407 1.94901099,17.9340659 3.20835165,19.2276923 L7.81846154,23.9679121 L8.44527473,23.3551648 L3.82901099,18.6268132 C2.90769231,17.6725275 2.92747253,16.1468132 3.87208791,15.2171429 C4.16967033,14.938022 4.51868132,14.7393407 4.89362637,14.6334066 C5.29450549,14.5191209 5.70901099,14.5134066 6.10681319,14.5964835 C6.55648352,14.7076923 6.95692308,14.938022 7.27164835,15.2685714 L7.27164835,15.2685714 Z" id="Shape"></path>
                    <path d="M36.6874725,15.2685714 L26.5828571,25.6307692 L26.5828571,39.7191209 L26.6628571,39.7191209 L26.6628571,39.7648352 L34.9503297,39.7648352 L34.9503297,33.6835165 L43.3982418,22.5186813 C43.7362637,22.1024176 43.9564835,21.5903297 43.9564835,21.029011 L43.9564835,3.87340659 C43.9564835,2.53098901 42.8663736,1.4378022 41.5182418,1.4378022 C40.1789011,1.4378022 39.0857143,2.53098901 39.0857143,3.87340659 L39.0857143,13.7806593 C39.6782418,13.9094505 40.236044,14.1569231 40.6857143,14.596044 C41.9789011,15.8593407 42.010989,17.9340659 40.7512088,19.2276923 L36.138022,23.9683516 L35.5081319,23.3556044 L40.127033,18.6268132 C41.0487912,17.6725275 41.0285714,16.1468132 40.0813187,15.2171429 C39.7894505,14.938022 39.4316484,14.7393407 39.0597802,14.6334066 C38.6650549,14.5191209 38.247033,14.5134066 37.8492308,14.5964835 C37.4026374,14.7076923 37.0021978,14.938022 36.6874725,15.2685714 L36.6874725,15.2685714 Z" id="Shape"></path>
                    <path d="M21.9753846,19.1261538 C24.6193407,19.1261538 26.8575824,18.1731868 28.7345055,16.3134066 C30.6061538,14.4430769 31.5389011,12.2021978 31.5389011,9.55120879 C31.5389011,6.91692308 30.6061538,4.65494505 28.7345055,2.78769231 C26.8575824,0.914285714 24.6193407,0 21.9753846,0 C19.3367033,0 17.0734066,0.914285714 15.2246154,2.78725275 C13.3389011,4.65450549 12.4171429,6.91692308 12.4171429,9.55076923 C12.4171429,12.2021978 13.3389011,14.4426374 15.2246154,16.312967 C17.072967,18.1731868 19.3367033,19.1261538 21.9753846,19.1261538 L21.9753846,19.1261538 Z" id="Shape"></path>
                </g>
            </g>
        </g>
    </g>
</svg>