<?xml version="1.0" encoding="UTF-8"?>
<svg width="50px" height="36px" viewBox="0 0 50 36" version="1.1" xmlns="http://www.w3.org/2000/svg" xmlns:xlink="http://www.w3.org/1999/xlink">
    <!-- Generator: Sketch 42 (36781) - http://www.bohemiancoding.com/sketch -->
    <title>Group 3</title>
    <desc>Created with Sketch.</desc>
    <defs></defs>
    <g id="02-Response-Plans" stroke="none" stroke-width="1" fill="none" fill-rule="evenodd">
        <g id="Create-Response-plan-2" transform="translate(-187.000000, -510.000000)" fill="#000000">
            <g id="Group-3" transform="translate(187.000000, 510.000000)">
                <path d="M21.3705,16.0155 C21.867,17.0005 24.0915,22.1845 24.0915,22.9275 C24.0915,26.991 18.658,26.991 18.658,22.9275 C18.6575,22.1845 20.8765,16.751 21.3705,16.0155 L21.3705,16.0155 Z" id="Shape"></path>
                <path d="M24.5825,13.718 L24.5825,10.585 C24.5825,8.591 22.776,6.8765 20.386,6.8765 L14.8005,6.8765 L14.7705,5.1405 C14.7705,4.633 14.361,4.229 13.859,4.229 L11.675,4.229 L11.675,3.1115 C11.8625,2.995 12.0195,2.8595 12.1525,2.68 L16.8075,2.68 C17.114,3.0845 17.578,3.358 18.118,3.358 C19.0455,3.358 19.8,2.604 19.8,1.6735 C19.8,0.757 19.0455,0 18.118,0 C17.559,0 17.0925,0.2875 16.786,0.711 L12.1745,0.711 C11.868,0.2875 11.4015,0 10.8425,0 C10.2835,0 9.8145,0.2875 9.508,0.711 L4.419,0.711 C4.115,0.2875 3.6405,0 3.09,0 C2.159,0 1.4025,0.757 1.4025,1.674 C1.4025,2.6045 2.1595,3.3585 3.09,3.3585 C3.63,3.3585 4.091,3.0845 4.3975,2.6805 L9.5325,2.6805 C9.6625,2.862 9.825,3 10.015,3.1145 L10.015,4.2295 L7.6955,4.2295 C7.1965,4.2295 6.787,4.6335 6.787,5.141 L6.787,6.877 L0,6.877 L0,12.308 L7.5495,12.308 C8.29,13.7945 9.2775,14.5295 10.764,14.5295 C12.2395,14.5295 13.474,13.794 14.217,12.308 L16.927,12.308 C17.741,12.308 18.0395,12.8315 18.126,13.8325 C17.89,13.9925 17.722,14.253 17.722,14.5675 C17.722,15.072 18.1315,15.468 18.6335,15.468 L24.2705,15.468 C24.775,15.468 25.179,15.072 25.179,14.5675 C25.179,14.171 24.9295,13.8455 24.5825,13.718 L24.5825,13.718 Z" id="Shape"></path>
                <path d="M25.4205,29.4165 C25.342,29.804 25.3475,30.211 25.464,30.6015 C25.5615,30.9675 25.757,31.3095 26.0255,31.5945 C26.937,32.517 28.4265,32.5385 29.3595,31.6405 L33.979,27.1345 L34.573,27.7425 L29.9475,32.2485 C28.6865,33.4745 26.66,33.445 25.42,32.186 C24.9915,31.7465 24.753,31.1985 24.6225,30.6235 L14.955,30.6235 C13.642,30.6235 12.573,31.6895 12.573,32.997 C12.573,34.3155 13.642,35.379 14.955,35.379 L31.7055,35.379 C32.251,35.379 32.75,35.1645 33.1625,34.8335 L44.0645,26.5815 L50,26.5815 L50,18.495 L49.951,18.495 L49.951,18.4165 L36.2005,18.4165 L26.0795,28.277 C25.757,28.5865 25.5315,28.977 25.4205,29.4165 L25.4205,29.4165 Z" id="Shape"></path>
            </g>
        </g>
    </g>
</svg>