<?xml version="1.0" encoding="UTF-8"?>
<svg width="21px" height="22px" viewBox="0 0 21 22" version="1.1" xmlns="http://www.w3.org/2000/svg" xmlns:xlink="http://www.w3.org/1999/xlink">
    <!-- Generator: Sketch 43.2 (39069) - http://www.bohemiancoding.com/sketch -->
    <title>Page 1 Copy 2</title>
    <desc>Created with Sketch.</desc>
    <defs></defs>
    <g id="Symbols" stroke="none" stroke-width="1" fill="none" fill-rule="evenodd">
        <g id="Risk-Monitoring/Hazards/Season-icon" fill="#000000">
            <path d="M0,19.9448532 C0,21.0826142 0.917425372,22.0000395 2.05518638,22.0000395 L18.4173463,22.0000395 C19.5551073,22.0000395 20.4725327,21.0826142 20.4725327,19.9448532 L20.4725327,8.89275639 C20.3934575,8.93318964 20.3054257,8.95263855 20.216626,8.94879995 L0.255906659,8.94879995 C0.166595235,8.95007948 0.0783074376,8.92807151 0,8.88482329 L0,19.9448532 Z M2.05518638,1.52750685 C0.917425372,1.52750685 0,2.44493222 0,3.58269322 L0,7.98914998 C0.0783074376,7.94590176 0.166595235,7.92389378 0.255906659,7.92517332 L20.216626,7.92517332 C20.2324923,7.9244056 20.2486144,7.9244056 20.2647365,7.92517332 C20.3371581,7.92901192 20.4080442,7.94794901 20.4725327,7.98121687 L20.4725327,3.58269322 C20.4725327,2.44493222 19.5551073,1.52750685 18.4173463,1.52750685 L16.8898395,1.52750685 L16.3780262,1.52750685 L16.3780262,3.71064655 C16.6920236,3.99188797 16.8898395,4.39980318 16.8898395,4.85429341 C16.8898395,5.70236808 16.2024742,6.38973336 15.3543995,6.38973336 C14.5063249,6.38973336 13.8189596,5.70236808 13.8189596,4.85429341 C13.8189596,4.39980318 14.0167754,3.99188797 14.3307729,3.71064655 L14.3307729,1.52750685 L13.8189596,1.52750685 L6.65357313,1.52750685 L6.14175981,1.52750685 L6.14175981,3.71064655 C6.45575728,3.99188797 6.65357313,4.39980318 6.65357313,4.85429341 C6.65357313,5.70236808 5.96620784,6.38973336 5.11813318,6.38973336 C4.27005851,6.38973336 3.58269322,5.70236808 3.58269322,4.85429341 C3.58269322,4.39980318 3.78050907,3.99188797 4.09450654,3.71064655 L4.09450654,1.52750685 L3.58269322,1.52750685 L2.05518638,1.52750685 Z M15.3543995,0 C15.3357183,0.00179134661 15.3170372,0.0043504132 15.298356,0.00793310642 C15.0370753,0.0365946522 14.8400271,0.257953912 14.8425862,0.519746424 L14.8425862,4.86222652 C14.8384917,5.14397975 15.0644573,5.37557527 15.3472341,5.37966978 C15.6297551,5.38350838 15.8621183,5.15831052 15.8662128,4.8768132 L15.8662128,4.86222652 L15.8662128,0.519746424 C15.8715869,0.238249099 15.6469008,0.00562994649 15.364124,0.000255906659 C15.3607972,0 15.3577263,0 15.3543995,0 L15.3543995,0 Z M5.11813318,0 C5.09945199,0.00179134661 5.0807708,0.0043504132 5.06208962,0.00793310642 C4.80080892,0.0365946522 4.60376079,0.257953912 4.60631986,0.519746424 L4.60631986,4.86222652 C4.60222535,5.14397975 4.82819093,5.37557527 5.11096779,5.37966978 C5.39348874,5.38350838 5.62585199,5.15831052 5.62994649,4.8768132 L5.62994649,4.86222652 L5.62994649,0.519746424 C5.63532053,0.238249099 5.41063449,0.00562994649 5.12785763,0.000255906659 C5.12453084,0 5.12145996,0 5.11813318,0 L5.11813318,0 Z" id="Page-1-Copy-2"></path>
        </g>
    </g>
</svg>