<?xml version="1.0" encoding="UTF-8"?>
<svg width="22px" height="22px" viewBox="0 0 22 22" version="1.1" xmlns="http://www.w3.org/2000/svg" xmlns:xlink="http://www.w3.org/1999/xlink">
    <!-- Generator: Sketch 44.1 (41455) - http://www.bohemiancoding.com/sketch -->
    <title>Group 2</title>
    <desc>Created with Sketch.</desc>
    <defs></defs>
    <g id="✅-05-Country-Office-profile" stroke="none" stroke-width="1" fill="none" fill-rule="evenodd">
        <g id="Country-Office---equipment" transform="translate(-833.000000, -876.000000)">
            <g id="Group-2" transform="translate(833.000000, 876.000000)">
                <path d="M21.9895137,17.3509491 C22.0361315,17.7080984 21.9272933,18.0186299 21.6634556,18.2825436 L18.5659037,21.3566916 C18.4261645,21.5119573 18.2437653,21.6440474 18.0186299,21.7526193 C17.7934945,21.8613434 17.5722789,21.931213 17.3549829,21.9622281 C17.3394563,21.9622281 17.2927625,21.9662239 17.2150915,21.9739872 C17.1375728,21.9817124 17.0366501,21.9856701 16.9124374,21.9856701 C16.6173564,21.9856701 16.1398761,21.9352088 15.4799966,21.834248 C14.8201171,21.7332872 14.0127732,21.4848239 13.0579649,21.0889723 C12.1029282,20.6930446 11.0199876,20.099077 9.80895266,19.3072977 C8.59791776,18.5155564 7.30917387,17.42862 5.94283515,16.0467166 C4.8559748,14.9753829 3.95543338,13.9506288 3.24121087,12.9724926 C2.52698835,11.9942802 1.95250503,11.0898571 1.51776089,10.2591853 C1.0829787,9.42851348 0.756920596,8.67547453 0.539548528,8.00006846 C0.322176459,7.32466239 0.174673984,6.74241577 0.0970411021,6.25332862 C0.0194082204,5.76424147 -0.0116449323,5.3799587 0.00388164408,5.10048033 C0.0194082204,4.82100195 0.0271715086,4.66573619 0.0271715086,4.63468304 C0.0582246613,4.41731097 0.128094255,4.19605726 0.236780289,3.9709219 C0.345466324,3.74578654 0.477442222,3.56334927 0.632707986,3.42361008 L3.73025997,0.326058103 C3.94763203,0.108686034 4.19605726,0 4.47553563,0 C4.67738112,0 4.85593675,0.0582246613 5.01120251,0.174673984 C5.16646828,0.291123306 5.29844418,0.434744137 5.40713021,0.605536477 L7.89914571,5.33337897 C8.0388849,5.58180419 8.07770134,5.85351928 8.01559503,6.14852423 C7.95348873,6.44352918 7.82151283,6.6919544 7.61966734,6.89379989 L6.47846398,8.03500325 C6.44741082,8.06605641 6.42023932,8.11651778 6.39694945,8.18638737 C6.37365959,8.25625697 6.36201465,8.31448163 6.36201465,8.36106136 C6.42412096,8.68711946 6.56386015,9.05975729 6.78123222,9.47897485 C6.96755113,9.85161269 7.25479279,10.305765 7.6429572,10.8414319 C8.03112161,11.3770988 8.58231507,11.9942422 9.29653758,12.6929381 C9.99523352,13.4072367 10.6162966,13.9622357 11.1597267,14.3582395 C11.7030427,14.754015 12.1573473,15.0452525 12.5222219,15.2315714 C12.8870964,15.4178903 13.1665748,15.530458 13.3606189,15.5691603 L13.6516661,15.627423 C13.6827193,15.627423 13.7332948,15.61574 13.8030883,15.5924882 C13.8729579,15.5691603 13.9234193,15.5420268 13.9545105,15.5109356 L15.2819947,14.1601235 C15.5616253,13.9117363 15.8875312,13.7875237 16.2602071,13.7875237 C16.524235,13.7875237 16.7337296,13.8340654 16.8889954,13.9272629 L16.9122472,13.9272629 L21.407153,16.5823074 C21.7333252,16.7843051 21.9273694,17.0404175 21.9895137,17.3509491 Z" id="Shape" fill="#006EA0" fill-rule="nonzero"></path>
                <text id="1" font-family="Arial-BoldMT, Arial" font-size="11" font-weight="bold" fill="#FFFFFF">
                    <tspan x="7.44116211" y="13">1</tspan>
                </text>
            </g>
        </g>
    </g>
</svg>