<?xml version="1.0" encoding="UTF-8"?>
<svg width="31px" height="22px" viewBox="0 0 31 22" version="1.1" xmlns="http://www.w3.org/2000/svg" xmlns:xlink="http://www.w3.org/1999/xlink">
    <!-- Generator: Sketch 44.1 (41455) - http://www.bohemiancoding.com/sketch -->
    <title>Shape</title>
    <desc>Created with Sketch.</desc>
    <defs></defs>
    <g id="✅-05-Country-Office-profile" stroke="none" stroke-width="1" fill="none" fill-rule="evenodd">
        <g id="Country-Office---Programme" transform="translate(-195.000000, -999.000000)" fill="#000000">
            <path d="M210.902302,1002.13807 C209.880646,1001.15878 204.010186,997.756901 195.979381,1001.22334 L195.979381,1003.70072 L195.979381,1020.23929 L208.147052,1020.23929 C208.564639,1020.5979 209.557333,1020.85227 210.719663,1020.85227 C211.879629,1020.85227 212.874687,1020.5979 213.293753,1020.23929 L225.532646,1020.23929 L225.532646,1003.70072 L225.532646,1001.22334 C217.832543,997.82264 211.679553,1001.41996 210.902302,1002.13807 L210.902302,1002.13807 Z M209.811196,1019.05538 C209.811196,1018.40361 204.098845,1014.59426 197.503148,1018.75067 L197.503148,1002.62579 C198.809402,1001.87481 200.566344,1001.41493 202.505629,1001.41493 C206.542309,1001.41493 209.811196,1002.74216 209.811196,1005.20414 L209.811196,1019.05538 L209.811196,1019.05538 Z M224.103155,1018.75067 C217.507457,1014.59426 211.798653,1018.40361 211.798653,1019.05538 L211.798653,1005.20444 C211.798653,1002.74246 215.067835,1001.41523 219.100378,1001.41523 C221.039663,1001.41523 222.796605,1001.87511 224.103155,1002.62608 L224.103155,1018.75067 L224.103155,1018.75067 Z" id="Shape"></path>
        </g>
    </g>
</svg>