<?xml version="1.0" encoding="UTF-8"?>
<svg width="21px" height="22px" viewBox="0 0 21 22" version="1.1" xmlns="http://www.w3.org/2000/svg" xmlns:xlink="http://www.w3.org/1999/xlink">
    <!-- Generator: Sketch 44.1 (41455) - http://www.bohemiancoding.com/sketch -->
    <title>Page 1 Copy 2</title>
    <desc>Created with Sketch.</desc>
    <defs></defs>
    <g id="Symbols" stroke="none" stroke-width="1" fill="none" fill-rule="evenodd">
        <g id="Icons/calendar/grey" transform="translate(0.000000, -3.000000)" fill="#636361">
            <path d="M0,11.8848233 L0,22.9448532 C0,24.0826142 0.917425372,25.0000395 2.05518638,25.0000395 L18.4173463,25.0000395 C19.5551073,25.0000395 20.4725327,24.0826142 20.4725327,22.9448532 L20.4725327,11.8927564 C20.3934575,11.9331896 20.3054257,11.9526386 20.216626,11.9488 L0.255906659,11.9488 C0.166595235,11.9500795 0.0783074376,11.9280715 0,11.8848233 L0,11.8848233 Z M2.05518638,4.52750685 C0.917425372,4.52750685 0,5.44493222 0,6.58269322 L0,10.98915 C0.0783074376,10.9459018 0.166595235,10.9238938 0.255906659,10.9251733 L20.216626,10.9251733 C20.2324923,10.9244056 20.2486144,10.9244056 20.2647365,10.9251733 C20.3371581,10.9290119 20.4080442,10.947949 20.4725327,10.9812169 L20.4725327,6.58269322 C20.4725327,5.44493222 19.5551073,4.52750685 18.4173463,4.52750685 L16.8898395,4.52750685 L16.3780262,4.52750685 L16.3780262,6.71064655 C16.6920236,6.99188797 16.8898395,7.39980318 16.8898395,7.85429341 C16.8898395,8.70236808 16.2024742,9.38973336 15.3543995,9.38973336 C14.5063249,9.38973336 13.8189596,8.70236808 13.8189596,7.85429341 C13.8189596,7.39980318 14.0167754,6.99188797 14.3307729,6.71064655 L14.3307729,4.52750685 L13.8189596,4.52750685 L6.65357313,4.52750685 L6.14175981,4.52750685 L6.14175981,6.71064655 C6.45575728,6.99188797 6.65357313,7.39980318 6.65357313,7.85429341 C6.65357313,8.70236808 5.96620784,9.38973336 5.11813318,9.38973336 C4.27005851,9.38973336 3.58269322,8.70236808 3.58269322,7.85429341 C3.58269322,7.39980318 3.78050907,6.99188797 4.09450654,6.71064655 L4.09450654,4.52750685 L3.58269322,4.52750685 L2.05518638,4.52750685 Z M15.3543995,3 C15.3357183,3.00179135 15.3170372,3.00435041 15.298356,3.00793311 C15.0370753,3.03659465 14.8400271,3.25795391 14.8425862,3.51974642 L14.8425862,7.86222652 C14.8384917,8.14397975 15.0644573,8.37557527 15.3472341,8.37966978 C15.6297551,8.38350838 15.8621183,8.15831052 15.8662128,7.8768132 L15.8662128,7.86222652 L15.8662128,3.51974642 C15.8715869,3.2382491 15.6469008,3.00562995 15.364124,3.00025591 C15.3607972,3 15.3577263,3 15.3543995,3 L15.3543995,3 Z M5.11813318,3 C5.09945199,3.00179135 5.0807708,3.00435041 5.06208962,3.00793311 C4.80080892,3.03659465 4.60376079,3.25795391 4.60631986,3.51974642 L4.60631986,7.86222652 C4.60222535,8.14397975 4.82819093,8.37557527 5.11096779,8.37966978 C5.39348874,8.38350838 5.62585199,8.15831052 5.62994649,7.8768132 L5.62994649,7.86222652 L5.62994649,3.51974642 C5.63532053,3.2382491 5.41063449,3.00562995 5.12785763,3.00025591 C5.12453084,3 5.12145996,3 5.11813318,3 L5.11813318,3 Z" id="Page-1-Copy-2"></path>
        </g>
    </g>
</svg>