<?xml version="1.0" encoding="UTF-8"?>
<svg width="23px" height="23px" viewBox="0 0 23 23" version="1.1" xmlns="http://www.w3.org/2000/svg" xmlns:xlink="http://www.w3.org/1999/xlink">
    <!-- Generator: Sketch 44.1 (41455) - http://www.bohemiancoding.com/sketch -->
    <title>health_noun_4215</title>
    <desc>Created with Sketch.</desc>
    <defs></defs>
    <g id="✅-05-Country-Office-profile" stroke="none" stroke-width="1" fill="none" fill-rule="evenodd">
        <g id="Country-Office---staff-&amp;-surge" transform="translate(-269.000000, -940.000000)" fill="#000000">
            <g id="health_noun_4215" transform="translate(269.000000, 940.000000)">
                <path d="M15.89047,1.50627 C15.16413,0.91103 14.65951,1.0511 13.93179,2.34853 C13.45109,3.20643 12.68588,3.30993 12.21714,3.28371 L12.22036,3.11213 C12.76385,2.84188 13.14703,2.29379 13.14703,1.64772 C13.14703,0.736 12.40896,0 11.5,0 C10.59104,0 9.84998,0.736 9.84998,1.64795 C9.84998,2.29402 10.23339,2.84211 10.77826,3.11098 L10.77987,3.28394 C10.31274,3.31016 9.54592,3.20689 9.06522,2.34876 C8.34049,1.05133 7.83426,0.91126 7.10976,1.5065 C6.38043,2.10243 3.50543,5.53817 0,5.22284 C0,5.22284 0.69483,6.80041 2.58888,6.45081 C2.58888,6.45081 3.60111,7.50122 5.24377,6.76591 C5.24377,6.76591 6.0973,7.53572 7.45545,6.8356 C7.45545,6.8356 8.46469,7.60679 9.54132,6.94048 C9.54132,6.94048 10.14921,7.3807 10.82472,7.26685 L10.86796,11.23343 C10.7916,11.21848 10.73019,11.20054 10.64946,11.18628 C10.64647,11.1849 9.47255,10.93328 8.23101,10.58506 C7.03616,10.27203 5.72447,9.76442 5.53127,9.50015 C5.54783,9.48359 5.57474,9.47094 5.60924,9.45438 C5.7155,9.39826 5.89674,9.34053 6.11248,9.29637 C6.55109,9.20713 7.14564,9.16159 7.74318,9.13767 C8.93067,9.09489 9.1448,9.14664 9.16573,9.15055 C9.16734,9.11306 9.85297,9.23151 10.0418,8.53277 C10.03444,8.52679 10.05537,8.49827 10.04341,8.48171 C10.00454,8.00101 9.6347,7.97709 9.33202,7.92097 C8.84097,7.85657 9.09696,7.8821 8.43525,7.89038 C7.34804,7.97134 3.99832,7.70017 3.57627,9.46335 C3.57627,9.5128 3.57328,9.54431 3.5673,9.58778 C3.70806,11.12326 6.88712,11.78957 9.19011,12.24865 C8.40857,12.78386 7.99066,13.48007 7.82437,14.38029 C7.74502,15.34008 8.50724,16.25364 10.27709,17.27461 C8.93228,18.22704 8.04885,19.12082 8.12084,20.20067 C8.24665,21.08111 9.02382,22.25802 10.55102,22.99931 C10.55562,23.00092 10.557,22.9977 10.55999,22.99931 L10.56459,22.99931 C10.56459,22.99931 9.49555,21.36861 9.42356,20.47621 C9.35318,19.95503 9.64965,19.18545 10.94938,18.25832 L10.98687,21.51972 L10.99285,21.51972 C11.00182,21.79687 11.21595,22.01836 11.48551,22.01836 C11.75484,22.01836 11.9692,21.79687 11.97817,21.51972 L11.98277,21.51972 L12.02601,18.34365 C13.22385,19.23168 13.49502,19.96975 13.42602,20.47598 C13.35426,21.36838 12.2866,22.99908 12.2866,22.99908 L12.28959,22.99908 C12.28959,22.99908 12.29281,23.00069 12.30017,22.99908 C13.82599,22.25779 14.60477,21.08088 14.72897,20.20044 C14.80073,19.12082 13.91753,18.22681 12.57433,17.27438 C14.34257,16.25341 15.1064,15.33985 15.02705,14.38006 C14.86076,13.48007 14.44308,12.78386 13.65993,12.24842 C15.96453,11.78934 19.14198,11.12303 19.28274,9.58755 C19.27676,9.54408 19.27377,9.51257 19.27377,9.46312 C18.85287,7.69994 15.50177,7.97111 14.41456,7.89015 C13.75285,7.88187 14.00884,7.85657 13.51779,7.92074 C13.21534,7.97686 12.8455,8.00078 12.8064,8.48148 C12.79444,8.49804 12.81698,8.52633 12.80962,8.53254 C12.99822,9.23105 13.68408,9.1126 13.68569,9.15032 C13.70501,9.14641 13.91937,9.09489 15.10824,9.13744 C15.70417,9.16136 16.29872,9.20713 16.73733,9.29614 C16.95445,9.3403 17.1327,9.3978 17.24057,9.45415 C17.27507,9.47071 17.30336,9.48336 17.32015,9.49992 C17.12695,9.76419 15.81526,10.2718 14.62041,10.58483 C13.37749,10.93305 12.20357,11.18444 12.20058,11.18605 C12.17068,11.19203 12.14676,11.19801 12.11686,11.2033 L12.16792,7.26593 C12.84757,7.38507 13.46006,6.94025 13.46006,6.94025 C14.5337,7.60656 15.54593,6.83537 15.54593,6.83537 C16.90385,7.53549 17.756,6.76568 17.756,6.76568 C19.39866,7.50099 20.41089,6.45058 20.41089,6.45058 C22.30379,6.80041 23,5.22284 23,5.22284 C19.49319,5.53817 16.61819,2.10243 15.89047,1.50627 L15.89047,1.50627 Z M9.95164,15.57353 C9.51303,15.30098 9.30787,14.93275 9.34812,14.68412 C9.37204,14.3382 9.25221,13.51319 10.88889,12.91266 L10.92638,16.18901 C10.61059,15.98983 10.28399,15.78467 9.95164,15.57353 L9.95164,15.57353 Z M13.50054,14.68412 C13.54102,14.93275 13.33563,15.30121 12.89702,15.57353 C12.60952,15.75776 12.328,15.93279 12.05246,16.10644 L12.09455,12.96349 C13.58725,13.56103 13.47662,14.34878 13.50054,14.68412 L13.50054,14.68412 Z" id="Shape"></path>
            </g>
        </g>
    </g>
</svg>