<?xml version="1.0" encoding="UTF-8"?>
<svg width="85px" height="85px" viewBox="0 0 85 85" version="1.1" xmlns="http://www.w3.org/2000/svg" xmlns:xlink="http://www.w3.org/1999/xlink">
    <!-- Generator: Sketch 44.1 (41455) - http://www.bohemiancoding.com/sketch -->
    <title>Fill 1</title>
    <desc>Created with Sketch.</desc>
    <defs></defs>
    <g id="✅-07-Director-Dashboard" stroke="none" stroke-width="1" fill="none" fill-rule="evenodd">
        <g id="Director-Dashboard-03" transform="translate(-264.000000, -976.000000)" fill="#B1B2B3">
            <g id="Group-4" transform="translate(15.000000, 891.000000)">
                <path d="M313.95445,137.05995 C313.95445,137.47985 313.614025,137.820275 313.194125,137.820275 L302.368525,137.820275 C301.997075,137.820275 301.67365,137.55295 301.618825,137.18575 C301.26395,134.807025 299.824263,132.779988 297.820812,131.6208 C297.424712,131.391513 297.316975,130.873012 297.587913,130.504112 C298.7046,128.983463 300.502563,127.991087 302.5228,127.991087 L307.069875,127.991087 C310.856413,127.991087 313.95445,131.089125 313.95445,134.875663 L313.95445,137.05995 Z M300.073312,139.422525 L300.073312,141.057713 C300.073312,141.528188 299.692088,141.909625 299.221612,141.909625 L283.369962,141.909625 C282.899488,141.909625 282.51805,141.528188 282.51805,141.057713 L282.51805,139.422525 L282.51805,138.333462 C282.51805,135.752013 284.139637,133.535638 286.412113,132.638888 C287.10465,132.365187 287.855412,132.20985 288.6423,132.20985 L293.949275,132.20985 C294.877687,132.20985 295.755738,132.425113 296.546238,132.7989 C298.623425,133.781075 300.073312,135.89375 300.073312,138.333462 L300.073312,139.422525 Z M280.365425,137.820275 L269.64395,137.820275 C269.313513,137.820275 269.045763,137.552525 269.045763,137.222087 L269.045763,134.713313 C269.045763,131.016237 272.070488,127.991512 275.767562,127.991512 L280.476775,127.991512 C282.49935,127.991512 284.298375,128.986225 285.414425,130.509637 C285.630112,130.804163 285.528537,131.227675 285.201712,131.390238 C282.942625,132.5133 281.305313,134.703325 280.957025,137.298587 C280.916862,137.596513 280.6659,137.820275 280.365425,137.820275 L280.365425,137.820275 Z M277.891075,114.790588 C281.184613,114.790588 283.879113,117.485512 283.879113,120.778413 C283.879113,124.07195 281.184613,126.76645 277.891075,126.76645 C274.598175,126.76645 271.90325,124.07195 271.90325,120.778413 C271.90325,117.485512 274.598175,114.790588 277.891075,114.790588 L277.891075,114.790588 Z M291.363788,119.009138 C294.657325,119.009138 297.351612,121.704275 297.351612,124.997175 C297.351612,128.290712 294.657325,130.985 291.363788,130.985 C288.070675,130.985 285.37575,128.290712 285.37575,124.997175 C285.37575,121.704275 288.070675,119.009138 291.363788,119.009138 L291.363788,119.009138 Z M305.244712,114.790588 C308.53825,114.790588 311.232537,117.485512 311.232537,120.778413 C311.232537,124.07195 308.53825,126.76645 305.244712,126.76645 C301.950963,126.76645 299.256675,124.07195 299.256675,120.778413 C299.256675,117.485512 301.950963,114.790588 305.244712,114.790588 L305.244712,114.790588 Z M291.5,85 C268.027888,85 249,104.027888 249,127.5 C249,150.972112 268.027888,170 291.5,170 C314.972112,170 334,150.972112 334,127.5 C334,104.027888 314.972112,85 291.5,85 L291.5,85 Z" id="Fill-1"></path>
            </g>
        </g>
    </g>
</svg>