<?xml version="1.0" encoding="UTF-8"?>
<svg width="31px" height="25px" viewBox="0 0 31 25" version="1.1" xmlns="http://www.w3.org/2000/svg" xmlns:xlink="http://www.w3.org/1999/xlink">
    <!-- Generator: Sketch 44.1 (41455) - http://www.bohemiancoding.com/sketch -->
    <title>nutrition</title>
    <desc>Created with Sketch.</desc>
    <defs></defs>
    <g id="✅-05-Country-Office-profile" stroke="none" stroke-width="1" fill="none" fill-rule="evenodd">
        <g id="Country-Office---Programme" transform="translate(-240.000000, -932.000000)" fill="#000000">
            <path d="M255.580632,944.299262 C254.984247,942.274953 258.231856,941.052846 258.193436,943.092553 C258.493698,944.181701 258.57822,944.812447 257.469973,945.020622 C256.490873,945.203331 255.87912,945.311417 255.580632,944.299262 Z M257.93189,937.595884 C258.266729,936.44307 259.875313,936.45077 260.785258,936.317514 C259.886838,935.634946 260.808309,934.877162 261.526158,934.485981 C262.532151,933.932524 262.499643,934.70008 262.865216,935.486587 C262.905704,935.737109 263.078887,936.199952 263.038399,936.571885 C262.293952,936.65095 261.189546,938.789267 261.110639,936.797532 C261.187478,937.881053 260.144543,938.072053 259.694447,938.858561 C259.38266,939.406096 259.624997,940.071192 258.79189,940.071192 C259.205931,938.854711 257.608577,938.696877 257.93189,937.595884 Z M255.600137,934.727027 C256.411966,934.26833 256.723753,935.268936 257.114151,935.257387 C257.683347,935.236066 257.004213,934.804316 257.748955,934.408989 C258.260522,934.139219 259.036,934.36457 259.432309,934.727027 C259.915505,936.047744 257.9511,936.639401 257.443079,935.328457 C257.491251,935.648568 257.670344,936.140135 257.59321,936.454323 C257.487409,936.882224 257.202811,936.81678 257.004509,937.21951 C256.712227,937.825085 256.846694,938.979972 256.090722,939.209172 C254.755505,939.619898 254.703491,937.096322 254.876674,936.300042 C254.970948,935.870365 255.186392,934.96215 255.600137,934.727027 Z M257.749251,940.31431 C257.885787,941.411157 256.856447,941.120066 256.225485,941.444323 C255.765636,941.681519 255.022962,943.088704 254.566955,942.261627 C253.941608,941.133688 257.204584,938.50025 257.749251,940.31431 Z M258.980735,933.663051 C258.413017,933.425855 257.712605,933.626331 257.133656,933.69977 C257.065979,932.332562 259.142392,932.498688 259.882997,933.098341 C260.054405,933.840429 259.480777,933.86945 258.980735,933.663051 Z M260.383333,940.75376 C260.93332,940.374128 261.849471,940.431872 261.703182,939.512404 C260.7891,937.422355 259.086536,941.577283 258.942021,942.290351 C259.598399,942.008737 259.788722,941.160635 260.383333,940.75376 Z M264.267814,943.464486 C263.409588,941.798784 266.909581,938.7333 267.526948,941.289746 C267.73855,942.298051 267.529017,942.89948 266.630302,943.343075 C265.943485,943.686284 264.581375,944.073615 264.267814,943.464486 Z M262.170715,944.48434 C261.895574,944.719759 259.517423,945.08192 259.207704,944.691035 C258.747856,944.110631 259.902206,942.138143 260.310041,941.717942 C260.873918,941.145533 261.832034,940.798474 262.624653,940.923735 C262.749959,941.769764 262.930529,943.844414 262.170715,944.48434 Z M266.605478,939.467986 C266.093615,939.571925 265.645292,939.007215 265.533581,938.588791 C265.252825,937.518892 266.838062,936.325509 266.886234,937.813832 C266.988192,938.374989 267.219003,939.342725 266.605478,939.467986 Z M262.459155,939.475685 C261.681904,938.010459 263.525141,937.559165 264.541182,938.13957 C264.32367,937.547616 263.467512,936.861495 263.686797,936.15198 C263.896625,935.475335 264.375684,935.571575 264.799182,936.192549 C265.624605,936.152276 265.035904,938.238179 264.452818,938.265127 C264.641072,938.575761 265.010488,939.069105 265.002804,939.446961 C264.993052,939.988573 264.648756,940.05609 264.356179,940.51686 C263.852296,941.303367 263.946275,942.992167 263.373237,943.460637 C263.255615,942.552718 263.648082,941.609856 263.465443,940.717336 C263.30556,939.926683 262.697945,939.923129 262.459155,939.475685 Z M250.112687,939.242338 C249.242935,939.294456 248.858151,939.701036 248.72723,938.818288 C248.398302,936.595279 252.225155,936.304188 251.801952,938.183988 C251.542179,938.523347 251.259354,939.265436 250.853292,939.435116 C250.453141,939.604795 250.518749,939.221017 250.112687,939.242338 Z M248.382935,937.052199 C248.278907,936.265692 247.1151,936.043894 246.789718,936.805527 C246.551223,937.362538 248.242557,938.929927 248.382935,937.052199 Z M247.976873,941.658125 C248.29457,940.987106 249.939505,938.748698 250.506632,940.398706 C250.578151,941.144941 249.966103,941.640357 249.958419,942.367048 C249.952804,942.895334 250.268433,943.423621 250.401127,943.922888 C250.562784,944.524613 250.959093,944.775135 250.099093,944.91609 C249.677663,944.981534 249.010055,944.601902 248.609904,944.476641 C247.874914,944.239445 247.755519,944.472495 247.67277,943.435466 C247.626667,942.847658 247.720942,942.190261 247.976873,941.658125 Z M244.850433,939.593246 C244.411567,939.406096 244.259663,939.552677 243.746027,939.084208 C243.257216,938.636763 244.315519,938.341823 244.573223,938.208863 C245.80855,937.57634 247.028509,938.064058 247.998151,939.010769 C248.163649,939.486938 248.252309,939.971102 247.967416,940.410551 C247.493973,941.133688 247.411519,940.28529 246.957285,940.210074 C246.428282,940.125087 246.066254,940.591779 245.74501,940.512714 C245.377663,940.41825 245.235216,939.757003 244.850433,939.593246 Z M256.344584,933.005653 C255.715395,931.864092 252.590729,931.779401 253.193024,933.607083 C253.581649,934.785068 256.554412,934.457257 256.344584,933.005653 Z M244.69646,940.121533 C244.994653,940.31431 245.296687,940.48784 245.437065,940.831048 C245.312055,941.04485 245.269794,941.330315 245.190887,941.565438 C245.656646,941.436031 246.214612,940.58793 246.709038,940.705491 C247.401766,940.875171 247.047718,942.209213 246.991863,942.7375 C246.909113,943.537629 246.587574,943.92881 245.804708,943.560727 C245.083017,943.217518 245.233148,942.500304 245.109911,941.814183 C244.659814,942.847362 244.388515,943.749654 243.66121,942.109123 C243.255443,941.189655 243.988364,940.520709 244.69646,940.121533 Z M252.773663,937.244977 C252.6389,936.602978 251.819388,936.684116 251.730729,936.107857 C251.686399,935.816766 252.481086,934.821787 252.812082,934.719624 C253.277546,934.582518 254.024062,935.074382 254.33378,935.438615 C254.181876,936.17715 254.185718,936.930788 254.029973,937.669323 C253.872158,938.422961 253.233216,937.780962 252.998564,938.471229 C254.216454,938.309249 254.980405,938.86241 254.237732,940.063493 C253.444818,941.35134 253.181498,940.266042 252.169299,940.406701 C252.138564,940.036545 252.109897,939.668462 252.080935,939.298306 C251.855739,939.523657 251.867265,939.419717 251.580598,939.552677 C251.934942,939.010769 252.923794,937.971667 252.773663,937.244977 Z M250.955251,942.315226 C251.45943,941.621405 252.888921,941.524869 253.378027,942.226684 C253.749216,942.880232 254.72477,944.480491 253.955203,945.056749 C253.577808,945.340141 252.765979,945.004928 252.381196,944.937411 C251.861649,944.842947 252.002027,944.218124 251.605718,943.770975 C251.224777,943.338929 250.224103,943.32738 250.955251,942.315226 Z M270.453608,942.274953 C270.453608,942.33862 270.449766,942.404063 270.445629,942.468026 L270.449766,942.468026 C270.357265,944.904837 269.528,947.549824 268.256323,949.990485 C268.256323,949.990485 265.216179,956.154027 255.676976,956.154027 C246.137478,956.154027 243.045615,950.042307 243.045615,950.042307 C241.770096,947.590097 240.996687,944.968208 240.900344,942.46773 L240.908027,942.46773 C240.904186,942.404359 240.900344,942.33862 240.900344,942.274953 C240.900344,941.100818 241.625876,940.003972 242.870955,939.055188 L244.198488,939.911284 C243.37868,940.462373 242.901691,941.081274 242.901691,941.733044 C242.901691,944.044595 248.621725,945.916696 255.677271,945.916696 C262.732818,945.916696 268.452852,944.044595 268.452852,941.733044 C268.452852,941.141091 268.073684,940.58023 267.396619,940.071192 C267.883065,939.866866 268.356509,939.612495 268.797148,939.321404 C269.841856,940.210074 270.453608,941.205054 270.453608,942.274953 Z M252.138564,934.2935 C252.635058,932.554655 248.502034,934.256781 249.223725,936.067288 C249.750955,937.385636 251.748165,934.910328 252.138564,934.2935 Z" id="nutrition"></path>
        </g>
    </g>
</svg>