<?xml version="1.0" encoding="UTF-8"?>
<svg width="26px" height="26px" viewBox="0 0 26 26" version="1.1" xmlns="http://www.w3.org/2000/svg" xmlns:xlink="http://www.w3.org/1999/xlink">
    <!-- Generator: Sketch 44.1 (41455) - http://www.bohemiancoding.com/sketch -->
    <title>other</title>
    <desc>Created with Sketch.</desc>
    <defs></defs>
    <g id="✅-05-Country-Office-profile" stroke="none" stroke-width="1" fill="none" fill-rule="evenodd">
        <g id="Country-Office---Programme" transform="translate(-310.000000, -947.000000)" fill="#000000">
            <path d="M323,973 C315.820298,973 310,967.179702 310,960 C310,952.820298 315.820298,947 323,947 C330.179702,947 336,952.820298 336,960 C336,967.179702 330.179702,973 323,973 Z M324.041748,962.862305 C324.03068,962.220374 324.084635,961.774904 324.203613,961.525879 C324.322592,961.276854 324.628334,960.947593 325.12085,960.538086 C326.072677,959.746741 326.693846,959.121422 326.984375,958.662109 C327.274904,958.202797 327.420166,957.715823 327.420166,957.201172 C327.420166,956.27148 327.024499,955.456628 326.233154,954.756592 C325.441809,954.056556 324.376553,953.706543 323.037354,953.706543 C321.764561,953.706543 320.736658,954.052405 319.953613,954.744141 C319.170569,955.435876 318.748617,956.277013 318.687744,957.267578 L320.829346,957.533203 C320.978761,956.841468 321.252684,956.326825 321.651123,955.989258 C322.049563,955.651691 322.544838,955.48291 323.136963,955.48291 C323.751224,955.48291 324.239582,955.644774 324.602051,955.968506 C324.96452,956.292238 325.145752,956.680987 325.145752,957.134766 C325.145752,957.461265 325.043377,957.76009 324.838623,958.03125 C324.70581,958.2028 324.299076,958.565264 323.618408,959.118652 C322.937741,959.672041 322.483969,960.170082 322.25708,960.612793 C322.030191,961.055504 321.916748,961.619951 321.916748,962.306152 C321.916748,962.372559 321.919515,962.557941 321.925049,962.862305 L324.041748,962.862305 Z M321.925049,966 L324.257568,966 L324.257568,963.66748 L321.925049,963.66748 L321.925049,966 Z" id="other"></path>
        </g>
    </g>
</svg>