<?xml version="1.0" encoding="UTF-8"?>
<svg width="27px" height="25px" viewBox="0 0 27 25" version="1.1" xmlns="http://www.w3.org/2000/svg" xmlns:xlink="http://www.w3.org/1999/xlink">
    <!-- Generator: Sketch 44.1 (41455) - http://www.bohemiancoding.com/sketch -->
    <title>protection</title>
    <desc>Created with Sketch.</desc>
    <defs></defs>
    <g id="✅-05-Country-Office-profile" stroke="none" stroke-width="1" fill="none" fill-rule="evenodd">
        <g id="Country-Office---Programme" transform="translate(-152.000000, -997.000000)" fill="#000000">
            <path d="M157.129634,1006.96702 L163.098744,1013.10403 L163.098744,1021.44785 L163.051459,1021.44785 L163.051459,1021.47492 L158.156399,1021.47492 L158.156399,1017.87326 L153.161572,1011.26089 C152.961779,1011.01436 152.831615,1010.71108 152.831615,1010.37864 L152.831615,1000.21823 C152.831615,999.423189 153.475941,998.775749 154.272775,998.775749 C155.064413,998.775749 155.710558,999.423189 155.710558,1000.21823 L155.710558,1006.0858 C155.362154,1006.16208 155.030638,1006.30864 154.765113,1006.56871 C154.002314,1007.3169 153.983608,1008.54566 154.72796,1009.31181 L157.452836,1012.1192 L157.823324,1011.7563 L155.094811,1008.95593 C154.550251,1008.39076 154.561943,1007.48716 155.120272,1006.93656 C155.296163,1006.77125 155.502451,1006.65358 155.724068,1006.59084 C155.961014,1006.52316 156.206013,1006.51977 156.44114,1006.56897 C156.706925,1006.63484 156.943611,1006.77125 157.129634,1006.96702 Z M174.516307,1006.96702 C174.70233,1006.77125 174.939016,1006.63484 175.202982,1006.56897 C175.438109,1006.51977 175.685187,1006.52316 175.918496,1006.59084 C176.138294,1006.65358 176.349778,1006.77125 176.522291,1006.93656 C177.08218,1007.48716 177.094131,1008.39076 176.549312,1008.95593 L173.819239,1011.75656 L174.191546,1012.11946 L176.91824,1009.31181 C177.662853,1008.54566 177.643887,1007.3169 176.879529,1006.56871 C176.613744,1006.30864 176.284047,1006.16208 175.933824,1006.0858 L175.933824,1000.21823 C175.933824,999.423189 176.579969,998.775749 177.371607,998.775749 C178.168441,998.775749 178.812767,999.423189 178.812767,1000.21823 L178.812767,1010.37864 C178.812767,1010.71108 178.682603,1011.01436 178.48281,1011.26089 L173.489542,1017.87326 L173.489542,1021.47492 L168.591105,1021.47492 L168.591105,1021.44785 L168.543819,1021.44785 L168.543819,1013.10403 L174.516307,1006.96702 Z M165.820502,1009.25167 C164.260869,1009.25167 162.922853,1008.68727 161.830357,1007.58556 C160.715777,1006.47786 160.170957,1005.15096 160.170957,1003.58065 C160.170957,1002.02076 160.715777,1000.68084 161.830357,999.574961 C162.923113,998.465697 164.260869,997.924211 165.820502,997.924211 C167.383253,997.924211 168.7062,998.465697 169.815584,999.575221 C170.92185,1000.6811 171.473165,1002.02076 171.473165,1003.58091 C171.473165,1005.15096 170.92185,1006.47812 169.815584,1007.58582 C168.7062,1008.68727 167.383253,1009.25167 165.820502,1009.25167 Z" id="protection"></path>
        </g>
    </g>
</svg>