<?xml version="1.0" encoding="UTF-8"?>
<svg width="23px" height="27px" viewBox="0 0 23 27" version="1.1" xmlns="http://www.w3.org/2000/svg" xmlns:xlink="http://www.w3.org/1999/xlink">
    <!-- Generator: Sketch 44.1 (41455) - http://www.bohemiancoding.com/sketch -->
    <title>foodsec_noun_4272</title>
    <desc>Created with Sketch.</desc>
    <defs></defs>
    <g id="✅-05-Country-Office-profile" stroke="none" stroke-width="1" fill="none" fill-rule="evenodd">
        <g id="Country-Office---staff-&amp;-surge" transform="translate(-268.000000, -1008.000000)" fill="#000000">
            <g id="foodsec_noun_4272" transform="translate(268.000000, 1008.000000)">
                <g id="Group">
                    <path d="M8.68455,12.04524 C8.80929,12.17349 8.86923,12.32469 8.86923,12.50127 C8.86923,12.69729 8.79714,12.87036 8.64945,13.01724 C8.50338,13.16331 8.31357,13.25457 8.07813,13.29156 L8.07813,11.74905 C8.35758,11.81844 8.56143,11.91699 8.68455,12.04524 L8.68455,12.04524 Z" id="Shape"></path>
                    <path d="M6.79131,9.77319 C6.79131,9.91224 6.84396,10.04319 6.94251,10.16172 C7.04457,10.28403 7.19577,10.3788 7.398,10.45359 L7.398,9.08523 C7.21332,9.13626 7.0659,9.22752 6.95682,9.35334 C6.84747,9.48159 6.79131,9.61875 6.79131,9.77319 L6.79131,9.77319 Z" id="Shape"></path>
                    <path d="M11.03463,0.02349 C9.27342,-0.17172 8.6562,0.91044 7.77762,0.95337 C6.88986,0.91017 6.27993,-0.17172 4.51521,0.02349 C2.71485,0.22383 1.61973,1.75581 1.61973,1.75581 L3.81699,3.79917 L11.73258,3.79917 L13.92984,1.75581 C13.92984,1.75581 12.83661,0.22383 11.03463,0.02349 L11.03463,0.02349 Z" id="Shape"></path>
                    <path d="M12.32658,5.11596 L3.22461,5.11596 C3.22461,5.11596 -1.14885,8.55603 0.29079,14.89833 C0.29079,14.89833 0.76734,16.72731 2.96271,16.72731 L5.10894,16.72731 C6.75783,14.66883 10.18035,14.27409 12.40029,14.20038 C12.59388,13.33746 12.90303,12.43728 13.34259,11.54358 C13.80996,10.59534 14.37102,9.76644 14.97744,9.06066 C14.05296,6.47649 12.32658,5.11596 12.32658,5.11596 L12.32658,5.11596 Z M9.50535,13.38552 C9.16245,13.71168 8.68617,13.91202 8.07813,13.98681 L8.07813,14.72499 L7.39773,14.72499 L7.39773,14.00517 C6.85638,13.9509 6.41682,13.78107 6.07932,13.49541 C5.74182,13.21056 5.52744,12.80907 5.43429,12.2904 L6.65766,12.18051 C6.70869,12.38976 6.79995,12.57174 6.939,12.72564 C7.07616,12.87684 7.23087,12.98943 7.39773,13.05693 L7.39773,11.40021 C6.78429,11.2536 6.33582,11.02923 6.04935,10.73142 C5.76261,10.43091 5.62032,10.06857 5.62032,9.63981 C5.62032,9.20916 5.78043,8.8452 6.10551,8.55171 C6.42897,8.25822 6.85962,8.08758 7.39773,8.04465 L7.39773,7.6518 L8.07813,7.6518 L8.07813,8.04465 C8.57385,8.09487 8.97102,8.23716 9.26478,8.4726 C9.55827,8.70831 9.74646,9.02448 9.82719,9.41841 L8.64054,9.55017 C8.56845,9.23994 8.38215,9.02637 8.07813,8.91729 L8.07813,10.4625 C8.82873,10.63476 9.34011,10.85616 9.60903,11.12967 C9.88335,11.4021 10.01862,11.75283 10.01862,12.18078 C10.01862,12.65625 9.84825,13.05855 9.50535,13.38552 L9.50535,13.38552 Z" id="Shape"></path>
                    <path d="M19.82394,16.14006 C19.64979,16.41762 19.46187,16.67088 19.27557,16.92387 C20.26512,17.34048 20.88396,17.86617 20.88396,18.44262 C20.88396,19.77858 17.71659,20.86317 13.8105,20.86317 C9.90468,20.86317 6.73704,19.77858 6.73704,18.44262 C6.73704,17.29836 9.06984,16.34391 12.19347,16.09254 C12.19509,15.82362 12.19887,15.5547 12.22668,15.26796 C8.24364,15.45426 5.20938,16.47405 5.20938,19.61334 C5.20911,23.13981 9.02556,27 13.7295,27 C18.43371,27 22.248,23.13981 22.248,19.61361 C22.24773,17.88048 21.31974,16.79751 19.82394,16.14006 L19.82394,16.14006 Z" id="Shape"></path>
                    <path d="M13.47462,20.29914 L14.60322,18.49041 L14.60322,18.49041 C14.69448,18.31113 14.38182,18.35163 14.09697,18.20745 L14.09697,18.20745 C13.81212,18.06165 13.66281,17.78571 13.57317,17.9631 L12.77694,20.00241 C12.67839,20.19735 13.26375,20.71413 13.47462,20.29914 L13.47462,20.29914 Z" id="Shape"></path>
                    <path d="M14.067,15.43536 C12.97917,14.07645 13.60476,13.13253 13.60476,13.13253 C13.2462,13.39551 12.04902,16.68168 13.51863,17.43417 C14.17959,17.76789 15.28875,16.95924 14.067,15.43536 L14.067,15.43536 Z" id="Shape"></path>
                    <path d="M15.18156,13.24836 C14.09346,11.89134 14.72283,10.9458 14.72283,10.9458 C14.36238,11.20959 13.16196,14.49549 14.63508,15.24717 C15.29415,15.58467 16.40304,14.77683 15.18156,13.24836 L15.18156,13.24836 Z" id="Shape"></path>
                    <path d="M16.26426,11.12859 C15.17427,9.77427 15.80175,8.82684 15.80175,8.82684 C15.44508,9.08874 14.24439,12.37329 15.71589,13.1274 C16.37496,13.46112 17.4825,12.65517 16.26426,11.12859 L16.26426,11.12859 Z" id="Shape"></path>
                    <path d="M15.10245,18.24093 C16.57557,18.99126 18.53199,16.09092 18.5355,15.64785 C18.5355,15.64785 18.13644,16.70625 16.3998,16.62525 C14.44662,16.53048 14.445,17.90478 15.10245,18.24093 L15.10245,18.24093 Z" id="Shape"></path>
                    <path d="M16.21674,16.05393 C17.68797,16.80642 19.6479,13.905 19.65168,13.4595 C19.65168,13.4595 19.251,14.52303 17.51598,14.43879 C15.56118,14.34726 15.55767,15.71832 16.21674,16.05393 L16.21674,16.05393 Z" id="Shape"></path>
                    <path d="M17.29971,13.93308 C18.77256,14.6853 20.72898,11.78415 20.73087,11.34027 C20.73087,11.34027 20.33343,12.40542 18.59868,12.31767 C16.64226,12.22533 16.64037,13.59558 17.29971,13.93308 L17.29971,13.93308 Z" id="Shape"></path>
                    <path d="M17.44902,11.94075 C19.01178,12.73698 19.06119,8.56845 19.06119,8.56845 C18.70263,8.78094 15.88626,11.14425 17.44902,11.94075 L17.44902,11.94075 Z" id="Shape"></path>
                </g>
            </g>
        </g>
    </g>
</svg>