<?xml version="1.0" encoding="UTF-8"?>
<svg width="30px" height="22px" viewBox="0 0 30 22" version="1.1" xmlns="http://www.w3.org/2000/svg" xmlns:xlink="http://www.w3.org/1999/xlink">
    <!-- Generator: Sketch 44.1 (41455) - http://www.bohemiancoding.com/sketch -->
    <title>wash</title>
    <desc>Created with Sketch.</desc>
    <defs></defs>
    <g id="✅-05-Country-Office-profile" stroke="none" stroke-width="1" fill="none" fill-rule="evenodd">
        <g id="Country-Office---Programme" transform="translate(-107.000000, -933.000000)" fill="#000000">
            <path d="M119.950948,942.854173 C120.244412,943.437539 121.559237,946.507761 121.559237,946.947803 C121.559237,949.354409 118.347684,949.354409 118.347684,946.947803 C118.347388,946.507761 119.658962,943.289773 119.950948,942.854173 Z M121.84945,941.493479 C122.05455,941.568991 122.202021,941.761769 122.202021,941.996596 C122.202021,942.295385 121.96323,942.529916 121.665038,942.529916 L118.333203,942.529916 C118.036488,942.529916 117.794447,942.295385 117.794447,941.996596 C117.794447,941.810333 117.893746,941.656052 118.033237,941.561292 C117.98211,940.96845 117.805677,940.658407 117.32455,940.658407 L115.722763,940.658407 C115.283601,941.53849 114.553931,941.97409 113.681814,941.97409 C112.803196,941.97409 112.219519,941.538787 111.781835,940.658407 L107.319588,940.658407 L107.319588,937.4419 L111.331148,937.4419 L111.331148,936.413754 C111.331148,936.113187 111.573189,935.873919 111.868131,935.873919 L113.239107,935.873919 L113.239107,935.21356 C113.126804,935.145748 113.030756,935.064017 112.953918,934.956524 L109.918797,934.956524 C109.737636,935.195793 109.465155,935.358069 109.145979,935.358069 C108.595993,935.358069 108.148557,934.911513 108.148557,934.360425 C108.148557,933.817332 108.595698,933.368999 109.145979,933.368999 C109.471361,933.368999 109.751821,933.53927 109.931505,933.790088 L112.939436,933.790088 C113.120598,933.53927 113.397808,933.368999 113.728213,933.368999 C114.058619,933.368999 114.334351,933.53927 114.515512,933.790088 L117.24121,933.790088 C117.422371,933.53927 117.698103,933.368999 118.028509,933.368999 C118.576722,933.368999 119.02268,933.817332 119.02268,934.360128 C119.02268,934.911217 118.576722,935.357773 118.028509,935.357773 C117.709333,935.357773 117.435079,935.195793 117.253918,934.956228 L114.502509,934.956228 C114.423897,935.062537 114.3311,935.142786 114.220275,935.211783 L114.220275,935.873622 L115.511162,935.873622 C115.807876,935.873622 116.049918,936.112891 116.049918,936.413458 L116.067649,937.441603 L119.369045,937.441603 C120.781691,937.441603 121.84945,938.457015 121.84945,939.637961 L121.84945,941.493479 Z M122.344763,950.790911 C122.410371,950.530617 122.543656,950.299343 122.734275,950.116042 L128.716447,944.276164 L136.84389,944.276164 L136.84389,944.322656 L136.872852,944.322656 L136.872852,949.111883 L133.364584,949.111883 L126.92079,953.999127 C126.676976,954.195162 126.382034,954.322199 126.059608,954.322199 L116.158969,954.322199 C115.3829,954.322199 114.751052,953.692342 114.751052,952.911461 C114.751052,952.137094 115.3829,951.505756 116.158969,951.505756 L121.873093,951.505756 C121.950227,951.8463 122.091196,952.170852 122.344467,952.431146 C123.077388,953.176788 124.275182,953.19426 125.020515,952.468162 L127.754488,949.799485 L127.403395,949.439397 L124.672969,952.108074 C124.121505,952.639914 123.241113,952.627181 122.702357,952.08083 C122.543656,951.912039 122.428103,951.70949 122.370474,951.492727 C122.301615,951.261453 122.298364,951.020407 122.344763,950.790911 Z" id="wash"></path>
        </g>
    </g>
</svg>