<?xml version="1.0" encoding="UTF-8" standalone="no"?>
<svg width="21px" height="20px" viewBox="0 0 21 20" version="1.1" xmlns="http://www.w3.org/2000/svg" xmlns:xlink="http://www.w3.org/1999/xlink">
    <!-- Generator: Sketch 42 (36781) - http://www.bohemiancoding.com/sketch -->
    <title>Fill 1</title>
    <desc>Created with Sketch.</desc>
    <defs></defs>
    <g id="06-MAP" stroke="none" stroke-width="1" fill="none" fill-rule="evenodd">
        <g id="Map---PH-highlight" transform="translate(-631.000000, -595.000000)" fill="#FEFEFE">
            <g id="Location-Dot" transform="translate(626.000000, 590.000000)">
                <path d="M15.572851,9.4898549 C15.4661975,9.48407422 15.3595439,9.47309093 15.2511561,9.47309093 C14.2892508,9.47309093 13.3857304,9.72021504 12.5989797,10.1514538 C14.0051304,5.41331869 17.5093792,5 17.5093792,5 C17.5093792,5 9.76702411,5.63905428 9.76702411,14.5855252 L9.78263194,14.5855252 C9.77598416,14.6913116 9.76702411,14.7970981 9.76702411,14.9054859 C9.76702411,15.8581421 10.0155934,16.7532805 10.4505896,17.5322273 C5.66823227,16.1390832 5.25,12.6683623 5.25,12.6683623 C5.25,12.6683623 5.89628013,20.3390369 14.9285941,20.3390369 L14.9285941,20.3208278 C15.0352477,20.3271865 15.1419013,20.3390369 15.2511561,20.3390369 C16.2121943,20.3390369 17.1157148,20.0913348 17.9013093,19.660385 C16.4963148,24.397653 12.992355,24.8118388 12.992355,24.8118388 C12.992355,24.8118388 20.7344211,24.1722065 20.7344211,15.2254466 L20.7173681,15.2254466 C20.7240158,15.118504 20.7344211,15.0138736 20.7344211,14.9054859 C20.7344211,13.9525406 20.4858518,13.0579802 20.0494104,12.2796115 C24.8335019,13.6718885 25.25,17.1426094 25.25,17.1426094 C25.25,17.1426094 24.6054541,9.47309093 15.572851,9.47309093 L15.572851,9.4898549 Z" id="Fill-1"></path>
            </g>
        </g>
    </g>
</svg>