<?xml version="1.0" encoding="UTF-8"?>
<svg width="17px" height="14px" viewBox="0 0 17 14" version="1.1" xmlns="http://www.w3.org/2000/svg" xmlns:xlink="http://www.w3.org/1999/xlink">
    <!-- Generator: Sketch 43.2 (39069) - http://www.bohemiancoding.com/sketch -->
    <title>all_hazards</title>
    <desc>Created with Sketch.</desc>
    <defs></defs>
    <g id="Hazard-icons" stroke="none" stroke-width="1" fill="none" fill-rule="evenodd">
        <g id="Artboard" transform="translate(-449.000000, -652.000000)" fill="#FFFFFF">
            <g id="Group-6" transform="translate(397.000000, 634.000000)">
                <g id="Layer_1" transform="translate(46.000000, 10.000000)">
                    <g id="all_hazards" transform="translate(6.000000, 8.000000)">
                        <path d="M16.1018357,11.3624024 C16.1018357,12.3830804 15.2392357,13.2106536 14.1762773,13.2106536 C13.112404,13.2106536 12.25,12.3830804 12.25,11.3624024 L12.25,1.8479898 C12.25,0.827050423 13.112404,0 14.1762773,0 C15.2392357,0 16.1018357,0.827050423 16.1018357,1.8479898 L16.1018357,11.3624024 Z" id="Path"></path>
                        <path d="M9.97683574,11.4378151 C9.97683574,12.4584931 9.11417039,13.2860663 8.05127728,13.2860663 C6.9873386,13.2860663 6.125,12.4584931 6.125,11.4378151 L6.125,5.34825119 C6.125,4.32737717 6.9873386,3.5 8.05127728,3.5 C9.11417039,3.5 9.97683574,4.32737717 9.97683574,5.34825119 L9.97683574,11.4378151 Z" id="Path"></path>
                        <path d="M3.85183574,11.1708017 C3.85183574,12.1914797 2.98917039,13.0190529 1.92627728,13.0190529 C0.862338605,13.0190529 0,12.1914797 0,11.1708017 L0,8.84825119 C0,7.82737717 0.862338605,7 1.92627728,7 C2.98917039,7 3.85183574,7.82737717 3.85183574,8.84825119 L3.85183574,11.1708017 Z" id="Path"></path>
                    </g>
                </g>
            </g>
        </g>
    </g>
</svg>