<?xml version="1.0" encoding="UTF-8" standalone="no"?>
<svg width="71px" height="69px" viewBox="0 0 71 69" version="1.1" xmlns="http://www.w3.org/2000/svg" xmlns:xlink="http://www.w3.org/1999/xlink">
    <!-- Generator: Sketch 42 (36781) - http://www.bohemiancoding.com/sketch -->
    <title>Fill 1</title>
    <desc>Created with Sketch.</desc>
    <defs></defs>
    <g id="06-MAP" stroke="none" stroke-width="1" fill="none" fill-rule="evenodd">
        <g id="Hazard-icons" transform="translate(-35.000000, -29.000000)" fill="#FFFFFF">
            <path d="M93.8753,72.4772 C93.8753,72.4772 88.3143,68.9532 93.8723,65.4242 L103.7113,59.1792 C103.7113,59.1792 107.9323,56.5002 102.9593,55.9772 L95.5383,55.1982 C95.5383,55.1982 88.9903,54.5102 90.4903,48.1002 L92.7353,38.5052 C92.7353,38.5052 94.1023,32.6632 89.9143,36.9602 L84.1633,42.8632 C84.1633,42.8632 80.6733,46.4452 79.5053,41.5832 L77.6343,33.7922 C77.6343,33.7922 76.9333,30.8752 75.8453,33.6712 L73.6673,39.2652 C73.6673,39.2652 71.2803,45.4012 67.2213,40.2172 L59.9783,30.9682 C59.9783,30.9682 55.9193,25.7842 57.1943,32.2432 L59.6113,44.4882 C59.6113,44.4882 60.7733,50.3742 54.9133,49.0842 C54.9133,49.0842 60.7733,50.3742 52.9463,48.6512 C52.9463,48.6512 47.0863,47.3602 49.1613,51.2972 C51.2353,55.2342 51.2353,55.2342 52.3953,57.6052 C52.3953,57.6052 53.5553,59.9762 47.5693,59.5622 L38.1953,58.9142 C38.1953,58.9142 31.6273,58.4592 37.3243,61.7592 L49.7373,68.9492 C49.7373,68.9492 51.4683,69.9522 50.0683,71.3802 L46.4703,75.0532 C46.4703,75.0532 45.7703,75.7672 46.7543,75.5892 L50.3783,74.9322 C50.3783,74.9322 54.9853,74.0982 53.1793,80.4292 L50.2543,90.6822 C50.2543,90.6822 48.4483,97.0132 53.5193,92.8142 L64.0363,84.1022 C64.0363,84.1022 67.8873,80.9122 69.7603,85.5482 L72.5403,92.4332 C72.5403,92.4332 72.9153,93.3612 73.3773,92.4742 L75.5103,88.3822 C75.5103,88.3822 78.1063,83.4042 82.7043,88.1162 L90.2293,95.8272 C90.2293,95.8272 94.8273,100.5392 92.5783,94.3522 L87.8483,81.3432 C87.8483,81.3432 86.4813,77.5842 90.4613,77.9842 L98.2963,78.7722 C98.2963,78.7722 104.8473,79.4312 99.2863,75.9062 L93.8753,72.4772 Z" id="Fill-1"></path>
        </g>
    </g>
</svg>