<?xml version="1.0" encoding="UTF-8"?>
<svg width="20px" height="20px" viewBox="0 0 20 20" version="1.1" xmlns="http://www.w3.org/2000/svg" xmlns:xlink="http://www.w3.org/1999/xlink">
    <!-- Generator: Sketch 43.2 (39069) - http://www.bohemiancoding.com/sketch -->
    <title>cyclone</title>
    <desc>Created with Sketch.</desc>
    <defs></defs>
    <g id="Hazard-icons" stroke="none" stroke-width="1" fill="none" fill-rule="evenodd">
        <g id="Artboard" transform="translate(-65.000000, -89.000000)" fill="#FFFFFF">
            <g id="Group-6" transform="translate(14.000000, 74.000000)">
                <g id="Layer_1" transform="translate(46.000000, 10.000000)">
                    <path d="M15.1568807,9.96605505 C15.0550459,9.96605505 14.953211,9.94954128 14.8513761,9.94954128 C13.9680651,9.9482879 13.0988299,10.1708045 12.3247706,10.5963303 C13.6623853,6.0853211 17.0036697,5.69174312 17.0036697,5.69174312 C17.0036697,5.69174312 9.63302752,6.3 9.63302752,14.8183486 L9.63302752,14.8183486 C9.63302752,14.9201835 9.61926606,15.0192661 9.61926606,15.1238532 C9.62237331,15.9966594 9.84882531,16.854145 10.2770642,17.6146789 C5.72201835,16.2880734 5.32293578,12.9825688 5.32293578,12.9825688 C5.32293578,12.9825688 5.93944954,20.287156 14.540367,20.287156 L14.540367,20.2816514 C14.6422018,20.2816514 14.7440367,20.2981651 14.8486239,20.2981651 C15.731003,20.2989538 16.5992343,20.0764517 17.3724771,19.6513761 C16.0348624,24.1623853 12.693578,24.5559633 12.693578,24.5559633 C12.693578,24.5559633 20.0724771,23.9449541 20.0724771,15.4293578 L20.0559633,15.4293578 C20.0559633,15.3275229 20.0724771,15.2284404 20.0724771,15.1238532 C20.0733257,14.248624 19.8486749,13.3879364 19.4201835,12.6247706 C23.9752294,13.9513761 24.3743119,17.2568807 24.3743119,17.2568807 C24.3743119,17.2568807 23.7577982,9.94954128 15.1568807,9.94954128 L15.1568807,9.96605505 L15.1568807,9.96605505 Z" id="cyclone"></path>
                </g>
            </g>
        </g>
    </g>
</svg>