<?xml version="1.0" encoding="UTF-8" standalone="no"?>
<svg width="70px" height="69px" viewBox="0 0 70 69" version="1.1" xmlns="http://www.w3.org/2000/svg" xmlns:xlink="http://www.w3.org/1999/xlink">
    <!-- Generator: Sketch 42 (36781) - http://www.bohemiancoding.com/sketch -->
    <title>Fill 4</title>
    <desc>Created with Sketch.</desc>
    <defs></defs>
    <g id="06-MAP" stroke="none" stroke-width="1" fill="none" fill-rule="evenodd">
        <g id="Hazard-icons" transform="translate(-225.000000, -29.000000)" fill="#FFFFFF">
            <path d="M259.6832,44.4754 C256.3552,44.4754 253.2292,45.3304 250.5072,46.8224 C255.3722,30.4294 267.4962,28.9994 267.4962,28.9994 C267.4962,28.9994 240.7092,31.2104 240.7092,62.1634 C240.7402,62.5294 240.7092,62.8954 240.7092,63.2704 C240.7092,66.5664 241.5692,69.6634 243.0742,72.3584 C226.5282,67.5384 225.0812,55.5304 225.0812,55.5304 C225.0812,55.5304 227.3172,82.0694 258.5672,82.0694 C258.9362,82.0284 259.3052,82.0694 259.6832,82.0694 C263.0082,82.0694 266.1342,81.2124 268.8522,79.7214 C263.9912,96.1114 251.8682,97.5444 251.8682,97.5444 C251.8682,97.5444 278.6542,95.3314 278.6542,64.3774 C278.6182,64.0074 278.6542,63.6454 278.6542,63.2704 C278.6542,59.9734 277.7942,56.8784 276.2842,54.1854 C292.8362,59.0024 294.2772,71.0104 294.2772,71.0104 C294.2772,71.0104 292.0472,44.4754 260.7962,44.4754 C260.4272,44.5134 260.0582,44.4754 259.6832,44.4754 Z" id="Fill-4"></path>
        </g>
    </g>
</svg>