<?xml version="1.0" encoding="UTF-8" standalone="no"?>
<svg width="58px" height="81px" viewBox="0 0 58 81" version="1.1" xmlns="http://www.w3.org/2000/svg" xmlns:xlink="http://www.w3.org/1999/xlink">
    <!-- Generator: Sketch 42 (36781) - http://www.bohemiancoding.com/sketch -->
    <title>Page 1</title>
    <desc>Created with Sketch.</desc>
    <defs>
        <filter x="-50%" y="-50%" width="200%" height="200%" filterUnits="objectBoundingBox" id="filter-1">
            <feOffset dx="0" dy="2" in="SourceAlpha" result="shadowOffsetOuter1"></feOffset>
            <feGaussianBlur stdDeviation="2" in="shadowOffsetOuter1" result="shadowBlurOuter1"></feGaussianBlur>
            <feColorMatrix values="0 0 0 0 0   0 0 0 0 0   0 0 0 0 0  0 0 0 0.5 0" type="matrix" in="shadowBlurOuter1" result="shadowMatrixOuter1"></feColorMatrix>
            <feMerge>
                <feMergeNode in="shadowMatrixOuter1"></feMergeNode>
                <feMergeNode in="SourceGraphic"></feMergeNode>
            </feMerge>
        </filter>
    </defs>
    <g id="06-MAP" stroke="none" stroke-width="1" fill="none" fill-rule="evenodd">
        <g id="Hazard-icons" transform="translate(-420.000000, -326.000000)" fill="#FFFFFF">
            <g id="Page-1" filter="url(#filter-1)" transform="translate(424.000000, 328.000000)">
                <path d="M49.5812832,63.7406122 C48.9902832,65.0086122 47.8972832,65.8036122 46.6562832,66.1026122 C47.2322832,67.2526122 47.3762832,68.6186122 46.8052832,69.8866122 C45.8162832,72.0836122 43.2622832,73.0466122 41.1032832,72.0506122 C38.9272832,71.0496122 37.9772832,68.4596122 38.9732832,66.2656122 C39.0052832,66.1726122 39.0922832,66.1206122 39.1382832,66.0276122 L25.0132832,59.5976122 L10.7102832,65.6256122 C10.7562832,65.7146122 10.8322832,65.7706122 10.8662832,65.8596122 C11.7962832,68.0806122 10.7762832,70.6486122 8.57628319,71.5926122 C6.38628319,72.5226122 3.86428319,71.4806122 2.93528319,69.2536122 C2.40328319,67.9696122 2.58428319,66.6116122 3.18928319,65.4806122 C1.96328319,65.1436122 0.87928319,64.3106122 0.33728319,63.0346122 C-0.57971681,60.8136122 0.43428319,58.2416122 2.63728319,57.3156122 C4.82728319,56.3756122 7.34828319,57.4196122 8.27728319,59.6346122 C8.31128319,59.7286122 8.30128319,59.8266122 8.33628319,59.9156122 L17.3652832,56.1096122 L8.44328319,52.0456122 C8.41128319,52.1346122 8.42128319,52.2376122 8.38028319,52.3266122 C7.39428319,54.5196122 4.83928319,55.4876122 2.67228319,54.4916122 C0.51628319,53.4906122 -0.43771681,50.9006122 0.54828319,48.7026122 C1.12228319,47.4346122 2.22828319,46.6496122 3.46728319,46.3366122 C2.88128319,45.1906122 2.73728319,43.8246122 3.31228319,42.5576122 C4.29728319,40.3596122 6.85228319,39.3966122 9.02028319,40.3926122 C11.1882832,41.3886122 12.1412832,43.9786122 11.1442832,46.1776122 C11.1092832,46.2706122 11.0192832,46.3266122 10.9862832,46.4066122 L25.1112832,52.8496122 L39.4052832,46.8216122 C39.3602832,46.7286122 39.2812832,46.6776122 39.2392832,46.5836122 C38.3172832,44.3486122 39.3382832,41.7946122 41.5362832,40.8546122 C43.7282832,39.9196122 46.2512832,40.9536122 47.1792832,43.1836122 C47.7092832,44.4646122 47.5332832,45.8346122 46.9162832,46.9676122 C48.1502832,47.2986122 49.2342832,48.1176122 49.7742832,49.4116122 C50.6972832,51.6286122 49.6832832,54.1866122 47.4772832,55.1266122 C45.2862832,56.0666122 42.7652832,55.0286122 41.8382832,52.8076122 C41.7962832,52.7196122 41.8132832,52.6156122 41.7762832,52.5266122 L32.7562832,56.3286122 L41.6722832,60.3966122 C41.7042832,60.3076122 41.6942832,60.2046122 41.7352832,60.1156122 C42.7312832,57.9226122 45.2732832,56.9556122 47.4322832,57.9506122 C49.6132832,58.9516122 50.5632832,61.5376122 49.5812832,63.7406122" id="Fill-1"></path>
                <path d="M42.426,16.462 C42.426,7.376 34.705,0 25.213,0 C15.703,0 8,7.376 8,16.462 C8,19.768 9.041,22.829 10.788,25.411 C9.664,26.448 8.957,27.892 8.957,29.5 C8.957,32.158 10.883,34.294 13.448,34.947 L13.448,36.93 C13.448,40.361 16.195,43.173 19.554,43.173 L30.87,43.173 C34.23,43.173 36.974,40.361 36.974,36.93 L36.974,34.938 C39.525,34.285 41.443,32.15 41.443,29.5 C41.443,27.9 40.74,26.458 39.625,25.42 C41.379,22.833 42.426,19.773 42.426,16.462 L42.426,16.462 Z M17.617,22.363 C15,22.363 12.854,20.26 12.854,17.659 C12.854,15.06 14.998,12.95 17.617,12.95 C20.24,12.95 22.373,15.059 22.373,17.659 C22.373,20.262 20.239,22.363 17.617,22.363 L17.617,22.363 Z M25.52,29.309 L20.777,31.665 L25.564,23.516 L30.183,31.506 L25.52,29.309 Z M32.807,22.363 C30.182,22.363 28.053,20.26 28.053,17.659 C28.053,15.06 30.183,12.95 32.807,12.95 C35.423,12.95 37.561,15.059 37.561,17.659 C37.561,20.262 35.423,22.363 32.807,22.363 L32.807,22.363 Z" id="Fill-3"></path>
            </g>
        </g>
    </g>
</svg>