<?xml version="1.0" encoding="UTF-8"?>
<svg width="20px" height="14px" viewBox="0 0 20 14" version="1.1" xmlns="http://www.w3.org/2000/svg" xmlns:xlink="http://www.w3.org/1999/xlink">
    <!-- Generator: Sketch 43.2 (39069) - http://www.bohemiancoding.com/sketch -->
    <title>Fill 5</title>
    <desc>Created with Sketch.</desc>
    <defs></defs>
    <g id="♠️-04-Risk-Monitoring" stroke="none" stroke-width="1" fill="none" fill-rule="evenodd">
        <g id="Raise-Alert-Copy" transform="translate(-258.000000, -214.000000)" fill="#FFFFFF">
            <g id="Fill-5" transform="translate(258.000000, 214.000000)">
                <path d="M19.0945,8.41572222 L16.1625556,9.34433333 L13.2697778,9.75627778 L9.55088889,8.51988889 L8.67561111,8.10683333 L9.17727778,8.10683333 C9.05727778,7.00072222 8.897,6.16405556 8.81866667,5.06627778 L8.81338889,5.06627778 C8.81255556,5.03294444 8.77338889,4.29766667 8.76533333,3.98516667 C8.70672222,3.65488889 8.55005556,3.52572222 8.03505556,3.16877778 C7.75061111,2.98488889 7.53894444,2.92044444 7.42144444,2.92322222 C7.23088889,2.92322222 7.06366667,3.12766667 7.02283333,3.74683333 C7.85088889,3.88738889 7.907,4.8035 7.907,4.8035 C7.98005556,5.45322222 7.66061111,6.40461111 6.92338889,6.65183333 C5.56255556,7.10488889 5.70394444,4.48183333 6.47144444,3.85377778 C6.492,3.09738889 6.69922222,2.40572222 7.42144444,2.37655556 C7.70616667,2.37822222 7.99616667,2.49627778 8.33227778,2.70877778 C8.49255556,2.80627778 8.62144444,2.90433333 8.73533333,3.00405556 C8.72283333,2.75572222 8.707,2.501 8.707,2.2385 C8.70533333,1.68961111 8.79338889,1.08988889 9.27977778,0.663777778 C9.53255556,0.434611111 9.81783333,0.315444444 10.0947778,0.318222222 C10.8186667,0.352944444 11.2731111,0.981 11.5345,1.62044444 C11.8414444,1.48738889 12.2239444,1.42183333 12.6617222,1.57377778 C13.7789444,1.96016667 14.3881111,3.91266667 13.9158889,4.59183333 C12.812,6.17905556 10.0339444,3.22961111 10.7706111,2.19822222 C10.7706111,2.19822222 10.8772778,2.05905556 11.0675556,1.90405556 C10.8514444,1.33655556 10.4181111,0.829055556 10.0945,0.8635 C9.97088889,0.865444444 9.82588889,0.910444444 9.64172222,1.07211111 C9.33311111,1.34377778 9.25477778,1.73294444 9.25311111,2.2385 C9.25311111,2.59572222 9.29672222,2.99322222 9.29672222,3.391 C9.29672222,3.59961111 9.31005556,3.78183333 9.31533333,3.98516667 C9.36588889,4.34016667 9.36977778,4.61405556 9.36061111,4.98794444 C9.43811111,6.07988889 9.88116667,6.976 10.002,8.10683333 L19.0945,8.10711111 L19.0945,8.41572222 Z M19.0945,10.0107222 L17.1650556,9.45461111 L19.0945,8.93155556 L19.0945,10.0107222 Z M19.0945,13.7243333 L15.6608889,12.9193333 L13.8206111,10.2535 L16.6217222,9.87822222 L19.0945,10.6751667 L19.0945,13.7243333 Z M13.0156111,13.9804444 L15.3364444,13.4662778 L17.4642222,13.9804444 L13.0156111,13.9804444 Z M7.48505556,10.9935 L9.13838889,8.93155556 L12.8564444,10.1679444 L14.8150556,12.9379444 L12.0311667,13.4662778 L7.48505556,10.9935 Z M4.40894444,13.9804444 L4.01422222,13.491 L6.97783333,11.4737778 L11.2039444,13.8790556 L11.2261667,13.9804444 L4.40894444,13.9804444 Z M0.877555556,13.9804444 L0.877555556,11.0868333 L2.82311111,10.1590556 L4.42227778,12.2440556 L2.30616667,13.9804444 L0.877555556,13.9804444 Z M4.047,8.10711111 L7.89755556,8.10711111 L8.442,8.65683333 L6.69838889,10.8137778 L5.02616667,11.8207222 L3.282,9.63072222 L4.047,8.10711111 Z M0.877555556,8.10711111 L3.35227778,8.10711111 L2.77866667,9.41461111 L0.877555556,10.4312778 L0.877555556,8.10711111 Z"></path>
            </g>
        </g>
    </g>
</svg>