<?xml version="1.0" encoding="UTF-8" standalone="no"?>
<svg width="89px" height="69px" viewBox="0 0 89 69" version="1.1" xmlns="http://www.w3.org/2000/svg" xmlns:xlink="http://www.w3.org/1999/xlink">
    <!-- Generator: Sketch 42 (36781) - http://www.bohemiancoding.com/sketch -->
    <title>Fill 7</title>
    <desc>Created with Sketch.</desc>
    <defs></defs>
    <g id="06-MAP" stroke="none" stroke-width="1" fill="none" fill-rule="evenodd">
        <g id="Hazard-icons" transform="translate(-403.000000, -29.000000)" fill="#FFFFFF">
            <path d="M475.4095,65.7926 C474.1935,65.7926 473.0735,66.4496 472.5045,67.4996 L467.7755,76.2116 L461.9485,59.5216 C461.5035,58.2606 460.3145,57.3966 458.9485,57.3506 C457.5455,57.3106 456.3345,58.0866 455.8045,59.3136 L451.8065,68.5966 L445.4975,31.6436 C445.2075,30.0906 443.7195,28.9116 442.1935,29.0056 C440.5785,29.0416 439.2275,30.0776 439.0075,31.6436 L433.4365,74.5296 L428.9185,51.5116 C428.6525,50.1506 427.5215,49.1096 426.1125,48.9326 C424.7315,48.7526 423.3415,49.4766 422.7285,50.7296 L415.3365,65.7926 L403.8525,65.7926 L403.8525,72.2166 L417.4065,72.2166 C418.6715,72.2166 419.8215,71.5096 420.3695,70.3926 L424.3455,62.2946 L430.7525,94.9386 C431.0495,96.4566 432.4065,97.5446 433.9795,97.5446 C435.6765,97.5026 437.0175,96.3266 437.2355,94.7676 L442.7215,52.6266 L447.3185,80.3756 C447.5775,81.7726 448.7485,82.8396 450.1895,82.9946 C451.6535,83.1326 453.0145,82.3586 453.5785,81.0456 L458.5165,69.5856 L464.0125,85.3166 C464.4345,86.5256 465.5565,87.3786 466.8605,87.4796 C468.1695,87.5506 469.4105,86.9146 470.0265,85.7806 L477.3875,72.2176 L491.4905,72.2176 L491.4905,65.7926 L475.4095,65.7926 Z" id="Fill-7"></path>
        </g>
    </g>
</svg>