<?xml version="1.0" encoding="UTF-8"?>
<svg width="20px" height="16px" viewBox="0 0 20 16" version="1.1" xmlns="http://www.w3.org/2000/svg" xmlns:xlink="http://www.w3.org/1999/xlink">
    <!-- Generator: Sketch 43.2 (39069) - http://www.bohemiancoding.com/sketch -->
    <title>earthquake</title>
    <desc>Created with Sketch.</desc>
    <defs></defs>
    <g id="Hazard-icons" stroke="none" stroke-width="1" fill="none" fill-rule="evenodd">
        <g id="Artboard" transform="translate(-65.000000, -202.000000)" fill="#FFFFFF">
            <g id="Group-5" transform="translate(14.000000, 186.000000)">
                <g id="risk-conflict" transform="translate(46.000000, 9.000000)">
                    <path d="M21.33,15.588229 C21.053,15.588229 20.798,15.741229 20.668,15.986229 L19.588,18.020229 L18.258,14.124229 C18.156,13.830229 17.885,13.628229 17.574,13.617229 C17.254,13.608229 16.977,13.789229 16.856,14.076229 L15.944,16.243229 L14.504,7.617229 C14.437,7.255229 14.098,6.979229 13.75,7.001229 C13.381,7.009229 13.073,7.252229 13.023,7.617229 L11.752,17.628229 L10.721,12.255229 C10.66,11.937229 10.401,11.694229 10.08,11.652229 C9.765,11.610229 9.447,11.779229 9.308,12.072229 L7.621,15.588229 L5,15.588229 L5,17.088229 L8.093,17.088229 C8.381,17.088229 8.644,16.922229 8.769,16.662229 L9.676,14.772229 L11.139,22.391229 C11.207,22.745229 11.516,23.000229 11.875,23.000229 C11.881,23.000229 11.889,23.000229 11.894,22.999229 C12.262,22.989229 12.568,22.715229 12.618,22.352229 L13.87,12.515229 L14.92,18.992229 C14.978,19.318229 15.246,19.567229 15.575,19.603229 C15.908,19.635229 16.219,19.454229 16.349,19.149229 L17.475,16.473229 L18.728,20.145229 C18.826,20.428229 19.082,20.627229 19.379,20.650229 C19.678,20.667229 19.961,20.518229 20.101,20.254229 L21.781,17.088229 L25,17.088229 L25,15.588229 L21.33,15.588229 Z" id="earthquake"></path>
                </g>
            </g>
        </g>
    </g>
</svg>