<?xml version="1.0" encoding="UTF-8"?>
<svg width="30px" height="30px" viewBox="0 0 30 30" version="1.1" xmlns="http://www.w3.org/2000/svg" xmlns:xlink="http://www.w3.org/1999/xlink">
    <!-- Generator: Sketch 43.2 (39069) - http://www.bohemiancoding.com/sketch -->
    <title>icon-earthquake-small</title>
    <desc>Created with Sketch.</desc>
    <defs></defs>
    <g id="♠️-04-Risk-Monitoring" stroke="none" stroke-width="1" fill="#ffffff" fill-rule="evenodd">
        <g id="Add-new-hazard" transform="translate(-60.000000, -296.000000)" fill="#000000">
            <g id="Context" transform="translate(14.000000, 287.000000)">
                <path d="M69.2616009,26.487141 L67.2152807,30.2580977 C67.0440126,30.5733867 66.6989741,30.7502155 66.3350293,30.7304752 C65.9724748,30.7023939 65.6605221,30.465232 65.5429143,30.1290906 L64.015125,25.7553591 L62.6421998,28.9416131 C62.4853894,29.30667 62.106987,29.5218673 61.6999472,29.4834988 C61.2993021,29.4404037 60.9737259,29.1437429 60.9017155,28.7553313 L59.6233214,21.0402035 L58.0983123,32.756777 C58.0377012,33.1902299 57.6645814,33.5171963 57.2172269,33.5288737 L57.1930381,33.5288737 C56.7556927,33.5288737 56.3784024,33.2263742 56.2958267,32.8043206 L54.5141936,23.7282231 L53.4090138,25.9797314 C53.2566519,26.2902939 52.9369144,26.486863 52.5852031,26.486863 L48.8167487,26.486863 L48.8167487,24.7007813 L52.0096755,24.7007813 L54.0648928,20.5127756 C54.2353268,20.1644007 54.6217922,19.9631051 55.0057553,20.0131509 C55.3975033,20.0623627 55.7119582,20.3517947 55.7859149,20.7301971 L57.0420663,27.1299525 L58.5909862,15.2062446 C58.6521534,14.7708455 59.0277755,14.4828037 59.4767982,14.4727945 C59.900798,14.4466594 60.3147886,14.7744599 60.395418,15.2062446 L62.149526,25.4803848 L63.2608224,22.8994078 C63.4084578,22.5582617 63.7451553,22.3425084 64.1352351,22.3536297 C64.5150277,22.3664192 64.8456085,22.6066394 64.969333,22.9572386 L66.5894292,27.5976034 L67.9042456,25.175383 C68.0624461,24.8834487 68.3738427,24.7007813 68.7119304,24.7007813 L73.1829733,24.7007813 L73.1829733,26.487141 L69.2616009,26.487141 Z M60.999861,9 C52.7156004,9 46,15.7158784 46,24.000139 C46,32.2841216 52.7156004,39 60.999861,39 C69.2841216,39 75.999722,32.2841216 75.999722,24.000139 C75.999722,15.7158784 69.2841216,9 60.999861,9 L60.999861,9 Z" id="icon-earthquake-small"></path>
            </g>
        </g>
    </g>
</svg>
