<?xml version="1.0" encoding="UTF-8"?>
<svg width="18px" height="18px" viewBox="0 0 18 18" version="1.1" xmlns="http://www.w3.org/2000/svg" xmlns:xlink="http://www.w3.org/1999/xlink">
    <!-- Generator: Sketch 43.2 (39069) - http://www.bohemiancoding.com/sketch -->
    <title>epidemic</title>
    <desc>Created with Sketch.</desc>
    <defs></defs>
    <g id="Hazard-icons" stroke="none" stroke-width="1" fill="none" fill-rule="evenodd">
        <g id="Artboard" transform="translate(-66.000000, -202.000000)" fill="#FFFFFF">
            <g id="Group-5" transform="translate(14.000000, 186.000000)">
                <g id="risk-conflict" transform="translate(46.000000, 9.000000)">
                    <path d="M15.6798333,19.1076667 C15.6436667,18.3785 15.7953333,17.6155 16.157,16.8898333 L15.5806667,16.555 C15.3695,16.7708333 15.0766667,16.9061667 14.75,16.9061667 C14.4256667,16.9061667 14.1316667,16.7708333 13.9193333,16.555 L13.3523333,16.884 C13.7163333,17.6131667 13.8691667,18.3808333 13.8306667,19.1111667 C12.3501667,18.7051667 11.25,17.3588333 11.25,15.75 C11.25,15.4431667 11.3013333,15.1515 11.3771667,14.868 C12.0235,15.197 12.6091667,15.7045 13.0583333,16.3788333 L13.644,16.0405 C13.6183333,15.9401667 13.5833333,15.8456667 13.5833333,15.7371667 C13.5833333,15.1958333 13.9578333,14.7606667 14.4583333,14.6288333 L14.4583333,13.9603333 C13.6463333,13.909 12.9101667,13.657 12.2988333,13.258 C12.9311667,12.6373333 13.7945,12.2511667 14.7488333,12.2511667 C15.7043333,12.2511667 16.5688333,12.6373333 17.2011667,13.2591667 C16.5898333,13.6558333 15.8536667,13.9101667 15.0416667,13.9603333 L15.0416667,14.6288333 C15.5421667,14.7606667 15.9166667,15.1958333 15.9166667,15.7371667 C15.9166667,15.8456667 15.884,15.9401667 15.856,16.0405 L16.451,16.3846667 C16.8978333,15.7115 17.4811667,15.2028333 18.124,14.8738333 C18.1975,15.155 18.2488333,15.4455 18.2488333,15.75 C18.2488333,17.3541667 17.1568333,18.697 15.6798333,19.1076667 M23.5,15.7371667 C23.5,11.053 19.8261667,7.238 15.205,7 C17.2466667,7.1925 18.8333333,8.67766667 18.8333333,10.4801667 C18.8333333,11.0996667 18.6291667,11.6713333 18.3013333,12.1765 C17.389,11.27 16.1348333,10.7076667 14.7488333,10.7076667 C13.3663333,10.7076667 12.111,11.27 11.1998333,12.1753333 C10.8708333,11.6701667 10.6666667,11.0996667 10.6666667,10.4801667 C10.6666667,8.67766667 12.2533333,7.1925 14.295,7 C9.675,7.238 6,11.053 6,15.7371667 C6,17.1523333 6.343,18.4835 6.93683333,19.6653333 C6.12483333,17.815 6.61833333,15.7336667 8.16066667,14.8435 C8.69733333,14.5331667 9.29583333,14.4223333 9.89783333,14.4573333 C9.78583333,14.8726667 9.70883333,15.2996667 9.70883333,15.75 C9.70883333,18.0763333 11.3013333,20.0211667 13.448,20.5986667 C13.4153333,20.6476667 13.3791667,20.6955 13.3511667,20.7468333 C13.3488333,20.7515 13.3488333,20.755 13.3476667,20.7596667 C13.2788333,20.9183333 13.1855,21.0455 13.0828333,21.1575 C12.8506667,21.4573333 12.5846667,21.728 12.244,21.9251667 C10.6946667,22.8211667 8.6355,22.1993333 7.44083333,20.5496667 C9.0065,22.9285 11.6933333,24.5 14.75,24.5 C17.7786667,24.5 20.4456667,22.9588333 22.0171667,20.6196667 C20.8166667,22.2156667 18.796,22.8071667 17.2665,21.9263333 C16.7263333,21.6125 16.3343333,21.14 16.0625,20.5951667 C18.2033333,20.013 19.7911667,18.0728333 19.7911667,15.75 C19.7911667,15.2996667 19.7141667,14.8726667 19.6021667,14.4573333 C20.2088333,14.4211667 20.8096667,14.5308333 21.3498333,14.8435 C22.8478333,15.708 23.3553333,17.6936667 22.6425,19.502 C23.1873333,18.3598333 23.5,17.087 23.5,15.7371667" id="epidemic"></path>
                </g>
            </g>
        </g>
    </g>
</svg>