<?xml version="1.0" encoding="UTF-8"?>
<svg width="13px" height="17px" viewBox="0 0 13 17" version="1.1" xmlns="http://www.w3.org/2000/svg" xmlns:xlink="http://www.w3.org/1999/xlink">
    <!-- Generator: Sketch 43.2 (39069) - http://www.bohemiancoding.com/sketch -->
    <title>fire</title>
    <desc>Created with Sketch.</desc>
    <defs></defs>
    <g id="Hazard-icons" stroke="none" stroke-width="1" fill="none" fill-rule="evenodd">
        <g id="Artboard" transform="translate(-69.000000, -259.000000)" fill="#FFFFFF">
            <g id="Group-6" transform="translate(14.000000, 242.000000)">
                <g id="Layer_1" transform="translate(46.000000, 10.000000)">
                    <path d="M16.2168639,9.52656829 C15.9077103,9.19455479 15.7106794,8.79613859 15.7106794,8.51528783 C15.7106794,7.98950908 16.1406641,7.48441314 16.7219598,7 C16.7807425,7.42127614 16.4694119,8.05264607 16.7219598,8.51528783 C16.9179022,8.85818702 17.2281443,9.24571753 17.2281443,9.52656829 C17.2281443,9.90212454 17.087719,10.2450237 16.7219598,10.5367602 C16.6664428,10.3963348 16.5695602,9.9347816 16.2168639,9.52656829 M14.7004875,21.6532252 C12.0530881,21.752285 12.3241417,19.7656468 12.6801037,19.1266569 C13.1307712,18.313496 14.2726799,18.1523878 13.6902956,17.1051846 C13.6979156,17.1215131 14.9290869,17.3065698 15.7106794,18.116465 C16.9091937,19.3530792 16.7731226,21.5759368 14.7004875,21.6532252 M18.2361591,16.0949927 C18.2361591,15.846799 19.3029566,12.5462583 17.2281443,11.5480406 C14.8365586,10.3974234 14.1757973,9.4808484 14.1964801,8.01019189 C14.194303,8.07006317 12.7497721,10.3974234 13.6902956,11.5480406 C15.151155,13.3278507 14.5339364,14.7059789 13.6902956,14.5797049 C12.272979,14.3674339 12.4438843,12.519044 12.6801037,12.0531366 C11.9387883,11.9747596 11.0820846,12.4352242 10.6586314,13.0633285 C9.38391724,14.9574383 12.146705,16.7688168 11.1637273,18.116465 C10.4169691,19.1418969 9.13898925,17.1226017 9.14334353,17.1051846 C7.62587856,25.0245229 18.6432838,25.2259082 19.2485281,18.621561 C19.4292305,16.6414543 21.2123063,15.5637711 21.2700005,15.5898968 C19.3704478,14.7146874 18.2361591,16.1581297 18.2361591,16.0949927" id="fire"></path>
                </g>
            </g>
        </g>
    </g>
</svg>