<?xml version="1.0" encoding="UTF-8"?>
<svg width="18px" height="16px" viewBox="0 0 18 16" version="1.1" xmlns="http://www.w3.org/2000/svg" xmlns:xlink="http://www.w3.org/1999/xlink">
    <!-- Generator: Sketch 43.2 (39069) - http://www.bohemiancoding.com/sketch -->
    <title>flood</title>
    <desc>Created with Sketch.</desc>
    <defs></defs>
    <g id="Hazard-icons" stroke="none" stroke-width="1" fill="none" fill-rule="evenodd">
        <g id="Artboard" transform="translate(-66.000000, -371.000000)" fill="#FFFFFF">
            <g id="Group-6" transform="translate(14.000000, 354.000000)">
                <g id="Layer_1" transform="translate(46.000000, 10.000000)">
                    <path d="M21.2999572,15.6524311 L21.2999572,10.7313006 L21.7499644,11.1786761 L22.1999715,10.7313006 L17.9249038,7.15140181 L13.6498361,10.7313006 L14.0998433,11.1786761 L14.5498504,10.7313006 L14.5498504,15.6524311 L14.0998433,15.6524311 C13.8145387,15.5835353 13.3672317,15.2667935 13.199829,14.7576801 C13.0603268,14.3308839 12.8731238,13.4826599 13.6498361,13.4155536 C13.6498361,13.4155536 12.6724206,12.2774303 11.8489076,13.8620344 C11.2242977,15.0699482 10.7886908,15.5942723 10.5006863,15.6524311 L10.0497791,15.6524311 C9.76537462,15.5835353 9.31716753,15.2667935 9.15066489,14.7576801 C9.01116268,14.3308839 8.82215969,13.4826599 9.599772,13.4155536 C9.599772,13.4155536 8.62145651,12.2774303 7.7997435,13.8620344 C7.17333358,15.0699482 6.28681955,15.5942723 5.999715,15.6524311 L5.999715,18.3366842 C6.28681955,18.2785254 7.17333358,17.7542013 7.7997435,16.5471822 C8.62145651,14.9616834 9.599772,16.0998066 9.599772,16.0998066 C8.82215969,16.166913 9.01116268,17.0151369 9.15066489,17.4419332 C9.31716753,17.9510465 9.76537462,18.2677883 10.0497791,18.3366842 L10.5006863,18.3366842 C10.7886908,18.2785254 11.2242977,17.7542013 11.8489076,16.5471822 C12.6724206,14.9616834 13.6498361,16.0998066 13.6498361,16.0998066 C12.8731238,16.166913 13.0603268,17.0151369 13.199829,17.4419332 C13.3672317,17.9510465 13.8145387,18.2677883 14.0998433,18.3366842 L14.5498504,18.3366842 C14.8387549,18.2785254 15.2743618,17.7542013 15.8998717,16.5471822 C16.7224848,14.9616834 17.6999002,16.0998066 17.6999002,16.0998066 C16.924088,16.166913 17.1094909,17.0151369 17.2498931,17.4419332 C17.4181958,17.9510465 17.8646029,18.2677883 18.1508074,18.3366842 L18.5999145,18.3366842 C18.887019,18.2785254 19.7771331,17.7542013 20.399943,16.5471822 C21.2252561,14.9616834 22.1999715,16.0998066 22.1999715,16.0998066 C21.4250592,16.166913 21.6095622,17.0151369 21.7499644,17.4419332 C21.917367,17.9510465 22.3646741,18.2677883 22.6499786,18.3366842 L24,18.3366842 L24,15.6524311 L21.2999572,15.6524311 Z M24,22.8095445 L5.999715,22.8095445 L5.999715,21.0209372 C6.28681955,20.9627784 7.17333358,20.4375595 7.7997435,19.2314352 C8.62145651,17.6459364 9.599772,18.7840597 9.599772,18.7840597 C8.82215969,18.851166 9.01116268,19.69939 9.15066489,20.1261862 C9.31716753,20.6352995 9.76537462,20.9520414 10.0497791,21.0209372 L10.5006863,21.0209372 C10.7886908,20.9627784 11.2242977,20.4375595 11.8489076,19.2314352 C12.6724206,17.6459364 13.6498361,18.7840597 13.6498361,18.7840597 C12.8731238,18.851166 13.0603268,19.69939 13.199829,20.1261862 C13.3672317,20.6352995 13.8145387,20.9520414 14.0998433,21.0209372 L14.5498504,21.0209372 C14.8387549,20.9627784 15.2743618,20.4375595 15.8998717,19.2314352 C16.7224848,17.6459364 17.6999002,18.7840597 17.6999002,18.7840597 C16.924088,18.851166 17.1094909,19.69939 17.2498931,20.1261862 C17.4181958,20.6352995 17.8646029,20.9520414 18.1508074,21.0209372 L18.5999145,21.0209372 C18.887019,20.9627784 19.7771331,20.4375595 20.399943,19.2314352 C21.2252561,17.6459364 22.1999715,18.7840597 22.1999715,18.7840597 C21.4250592,18.851166 21.6095622,19.69939 21.7499644,20.1261862 C21.917367,20.6352995 22.3646741,20.9520414 22.6499786,21.0209372 L24,21.0209372 L24,22.8095445 Z" id="flood"></path>
                </g>
            </g>
        </g>
    </g>
</svg>