<?xml version="1.0" encoding="UTF-8"?>
<svg width="15px" height="17px" viewBox="0 0 15 17" version="1.1" xmlns="http://www.w3.org/2000/svg" xmlns:xlink="http://www.w3.org/1999/xlink">
    <!-- Generator: Sketch 43.2 (39069) - http://www.bohemiancoding.com/sketch -->
    <title>heatwave</title>
    <desc>Created with Sketch.</desc>
    <defs></defs>
    <g id="Hazard-icons" stroke="none" stroke-width="1" fill="none" fill-rule="evenodd">
        <g id="Artboard" transform="translate(-68.000000, -426.000000)" fill="#FFFFFF">
            <g id="Group-5" transform="translate(14.000000, 410.000000)">
                <g id="risk-conflict" transform="translate(46.000000, 9.000000)">
                    <path d="M14.0242308,20.7960667 C14.0242308,19.8372667 13.4934615,18.9385333 12.6419231,18.4546 L12.5161538,18.3832 L12.5161538,8.72493333 C12.5161538,8.04493333 11.9553846,7.493 11.2630769,7.493 C10.5707692,7.493 10.0076923,8.04493333 10.0076923,8.72493333 L10.0076923,18.3832 L9.88307692,18.4546 C9.03153846,18.9396667 8.50192308,19.8372667 8.50192308,20.7960667 C8.50192308,22.2909333 9.74115385,23.507 11.2619231,23.507 C12.785,23.507 14.0242308,22.2909333 14.0242308,20.7960667 L14.0242308,20.7960667 Z M14.525,20.7960667 C14.525,22.5618 13.0619231,24 11.2619231,24 C9.46423077,24 8,22.5618 8,20.7960667 C8,19.7103333 8.57461538,18.6914667 9.50576923,18.1044 L9.50576923,8.71813333 C9.51038462,7.76953333 10.2961538,7 11.2630769,7 C12.2288462,7 13.0157692,7.76953333 13.0203846,8.71813333 L13.0203846,8.72493333 L13.0203846,18.1032667 C13.9503846,18.6903333 14.525,19.7103333 14.525,20.7960667 L14.525,20.7960667 Z M18.3059231,11.4290667 L15.53,11.4290667 L15.53,12.4150667 L18.3059231,12.4150667 L18.3059231,15.1909897 L19.2919231,15.1909897 L19.2919231,12.4150667 L22.0538462,12.4150667 L22.0538462,11.4290667 L19.2919231,11.4290667 L19.2919231,8.66714359 L18.3059231,8.66714359 L18.3059231,11.4290667 Z M13.0203846,20.7960667 C13.0203846,21.7480667 12.2334615,22.521 11.2619231,22.521 C10.2915385,22.521 9.50576923,21.7480667 9.50576923,20.7960667 C9.50576923,20.1092667 9.91769231,19.5199333 10.5096154,19.2422667 L10.5096154,15.1271333 L12.0165385,15.1271333 L12.0165385,19.2422667 C12.6073077,19.5199333 13.0203846,20.1092667 13.0203846,20.7960667 Z" id="heatwave"></path>
                </g>
            </g>
        </g>
    </g>
</svg>