<?xml version="1.0" encoding="UTF-8"?>
<svg width="16px" height="15px" viewBox="0 0 16 15" version="1.1" xmlns="http://www.w3.org/2000/svg" xmlns:xlink="http://www.w3.org/1999/xlink">
    <!-- Generator: Sketch 43.2 (39069) - http://www.bohemiancoding.com/sketch -->
    <title>heavy_rain</title>
    <desc>Created with Sketch.</desc>
    <defs></defs>
    <g id="Hazard-icons" stroke="none" stroke-width="1" fill="none" fill-rule="evenodd">
        <g id="Artboard" transform="translate(-67.000000, -483.000000)" fill="#FFFFFF">
            <path d="M79.9991417,486.120843 C79.624751,486.120843 79.2695599,486.197642 78.9410348,486.322438 C78.6551753,484.510217 77.1000142,483.120385 75.2088614,483.120385 C73.1139805,483.120385 71.4169562,484.818476 71.4169562,486.91229 C71.4169562,486.958156 71.4297559,487.004021 71.4318892,487.05202 C71.384957,487.047754 71.3390915,487.037087 71.2921594,487.037087 C70.1647209,487.037087 69.2506104,487.950131 69.2506104,489.076503 C69.2506104,489.093569 69.254877,489.106369 69.254877,489.119168 C69.0927477,489.07117 68.9263518,489.037037 68.7503562,489.037037 C67.7839804,489.037037 67,489.821018 67,490.78526 C67,491.753769 67.7839804,492.11856 68.7503562,492.11856 L74.2488854,492.11856 L77.2461438,492.11856 L79.9991417,492.11856 C81.6567002,492.11856 82.9996,490.776727 82.9996,489.121302 C82.9996,487.462677 81.6567002,486.120843 79.9991417,486.120843 L79.9991417,486.120843 Z M70.7577727,493.108402 L69.3124755,497.076303 L69.6218011,497.1915 L71.1076306,493.108402 L70.7577727,493.108402 Z M79.0178329,493.108402 L77.5736023,497.076303 L77.8829279,497.1915 L79.3676908,493.108402 L79.0178329,493.108402 Z M72.4099981,493.108402 L70.9647009,497.076303 L71.2740265,497.1915 L72.759856,493.108402 L72.4099981,493.108402 Z M74.0622234,493.108402 L72.6169262,497.076303 L72.9262518,497.1915 L74.4120814,493.108402 L74.0622234,493.108402 Z M75.7133822,493.108402 L74.2691516,497.076303 L74.5784772,497.1915 L76.0643067,493.108402 L75.7133822,493.108402 Z M77.7154654,493.108402 L76.2307026,497.1915 L75.921377,497.076303 L77.3656075,493.108402 L77.7154654,493.108402 Z" id="heavy_rain"></path>
        </g>
    </g>
</svg>