<?xml version="1.0" encoding="UTF-8"?>
<svg width="15px" height="14px" viewBox="0 0 15 14" version="1.1" xmlns="http://www.w3.org/2000/svg" xmlns:xlink="http://www.w3.org/1999/xlink">
    <!-- Generator: Sketch 43.2 (39069) - http://www.bohemiancoding.com/sketch -->
    <title>humanitarian_access</title>
    <desc>Created with Sketch.</desc>
    <defs></defs>
    <g id="Hazard-icons" stroke="none" stroke-width="1" fill="none" fill-rule="evenodd">
        <g id="Artboard" transform="translate(-67.000000, -651.000000)" fill="#FFFFFF">
            <g id="Group-5" transform="translate(14.000000, 634.000000)">
                <g id="risk-conflict" transform="translate(46.000000, 9.000000)">
                    <g id="Layer_1">
                        <path d="M7.51755,14.0966383 L16.5557143,14.0966383 L16.5557143,8.54230713 L7.51755,8.54230713 L7.51755,14.0966383 Z M19.0407471,15.9114521 C18.7143418,15.9114521 18.4499534,15.6459757 18.4499534,15.3206584 C18.4499534,14.9964291 18.7143418,14.7298647 19.0407471,14.7298647 C19.3671525,14.7298647 19.6315408,14.9964291 19.6315408,15.3206584 C19.6315408,15.6459757 19.3671525,15.9114521 19.0407471,15.9114521 L19.0407471,15.9114521 Z M19.0407471,14.2391686 C18.4412493,14.2391686 17.9570813,14.7244246 17.9570813,15.3206584 C17.9570813,15.9201562 18.4412493,16.4043242 19.0407471,16.4043242 C19.6380689,16.4043242 20.1244129,15.9201562 20.1244129,15.3206584 C20.1244129,14.7244246 19.6380689,14.2391686 19.0407471,14.2391686 L19.0407471,14.2391686 Z M11.4833751,15.9114521 C11.1558817,15.9114521 10.8904054,15.6459757 10.8904054,15.3206584 C10.8904054,14.9964291 11.1558817,14.7298647 11.4833751,14.7298647 C11.8065164,14.7298647 12.0730808,14.9964291 12.0730808,15.3206584 C12.0730808,15.6459757 11.8065164,15.9114521 11.4833751,15.9114521 L11.4833751,15.9114521 Z M11.4833751,14.2391686 C10.8838772,14.2391686 10.3986213,14.7244246 10.3986213,15.3206584 C10.3986213,15.9201562 10.8838772,16.4043242 11.4833751,16.4043242 C12.0796089,16.4043242 12.5648648,15.9201562 12.5648648,15.3206584 C12.5648648,14.7244246 12.0796089,14.2391686 11.4833751,14.2391686 L11.4833751,14.2391686 Z M17.7601501,12.2698563 L17.7601501,10.4952992 L19.1397567,10.4952992 L19.7294624,12.2698563 L17.7601501,12.2698563 Z M20.3202561,12.2698563 L19.5325312,9.90450549 L19.5325312,9.31371179 L17.0627307,9.31371179 L17.0627307,14.4350118 L12.6606104,14.4350118 C12.8466615,14.6830799 12.9587273,14.9877249 12.9587273,15.3206584 L17.5621309,15.3206584 C17.5621309,14.504645 18.2247337,13.8442181 19.0407471,13.8442181 C19.6141325,13.8442181 20.1102687,14.1738876 20.3550727,14.6515274 C20.4421141,14.8212582 20.498691,15.0149254 20.5106592,15.2172967 C20.5128353,15.2510252 20.5182754,15.2847538 20.5182754,15.3206584 L21.6998628,15.3206584 L21.6998628,12.86065 L20.3202561,12.2698563 Z M7.51755,15.0388618 L8.6327683,15.3206584 L10.0047588,15.3206584 C10.0047588,14.9877249 10.1168247,14.6830799 10.3028757,14.4350118 L7.51755,14.4350118 L7.51755,15.0388618 Z M18.7458943,22 L18.7458943,21.2035709 L7.51755,21.2035709 L7.51755,17.9395174 L18.7458943,17.9395174 L18.7458943,17.1169759 L21.6998628,19.5584879 L18.7458943,22 Z" id="humanitarian_access"></path>
                    </g>
                </g>
            </g>
        </g>
    </g>
</svg>