<?xml version="1.0" encoding="UTF-8" standalone="no"?>
<svg width="73px" height="75px" viewBox="0 0 73 75" version="1.1" xmlns="http://www.w3.org/2000/svg" xmlns:xlink="http://www.w3.org/1999/xlink">
    <!-- Generator: Sketch 42 (36781) - http://www.bohemiancoding.com/sketch -->
    <title>Combined Shape</title>
    <desc>Created with Sketch.</desc>
    <defs></defs>
    <g id="06-MAP" stroke="none" stroke-width="1" fill="none" fill-rule="evenodd">
        <g id="Hazard-icons" transform="translate(-223.000000, -333.000000)" fill="#FFFFFF">
            <path d="M257.1546,349.089 L256.6026,351.601 L266.3816,361.672 L236.4096,392.535 C232.1966,384.917 235.7706,376.222 241.2286,368.557 L237.7816,367.957 L230.9736,375.243 L225.0636,376.07 C224.5796,376.14 224.1206,375.958 223.8006,375.632 C223.5776,375.4 223.4206,375.098 223.3766,374.748 C223.2606,373.903 223.8396,373.129 224.6596,373.013 L229.5396,372.326 L237.6566,363.688 L245.6846,362.915 C246.5916,361.868 247.4956,360.86 248.3976,359.891 L245.1566,355.604 L239.2106,359.684 L233.2186,360.368 C232.7486,360.421 232.3036,360.244 231.9956,359.926 C231.7596,359.684 231.5996,359.364 231.5616,359.004 C231.4716,358.154 232.0626,357.397 232.8876,357.297 L238.4956,356.654 L245.5856,351.511 L251.2726,356.883 C251.7376,356.414 252.1766,355.975 252.6206,355.535 L253.6106,348.373 L261.8546,339.881 L263.0926,334.412 C263.2776,333.581 264.0856,333.065 264.8876,333.263 C265.7006,333.456 266.1986,334.287 266.0096,335.115 L264.5836,341.444 L257.1546,349.089 Z M272.5227,397.9298 C272.4307,398.7718 271.6877,399.3808 270.8587,399.2878 C270.5057,399.2478 270.1947,399.0858 269.9597,398.8448 C269.6487,398.5288 269.4757,398.0728 269.5267,397.5868 L270.1947,391.4408 L274.1777,385.3418 L269.9887,382.0198 C269.0487,382.9378 268.0647,383.8618 267.0447,384.7838 L266.2937,393.0378 L257.8727,401.3648 L257.2067,406.3698 C257.0907,407.2138 256.3337,407.8028 255.5107,407.6868 C255.1687,407.6388 254.8757,407.4808 254.6507,407.2488 C254.3297,406.9228 254.1517,406.4508 254.2187,405.9528 L255.0297,399.8918 L262.1297,392.9088 L261.5357,389.3108 C254.2707,394.6558 246.0467,398.0338 238.7117,393.7618 L268.2627,363.5708 L278.0767,373.5968 L280.5257,373.0348 L287.9817,365.4158 L294.1497,363.9488 C294.9567,363.7548 295.7707,364.2658 295.9567,365.0988 C296.1487,365.9218 295.6447,366.7508 294.8387,366.9448 L289.5037,368.2108 L281.2277,376.6708 L274.2427,377.6838 C273.8127,378.1378 273.3887,378.5938 272.9267,379.0708 L278.1687,384.9048 L273.1487,392.1738 L272.5227,397.9298 Z M258.8743,350.0685 C263.2693,346.2635 268.6873,344.7685 273.4153,345.7525 L268.3623,359.8105 L258.8743,350.0685 Z M280.4094,349.2052 C281.6864,350.5172 282.5844,352.0842 283.1874,353.7692 L271.7584,358.1152 L275.9794,346.3452 C277.6134,346.9682 279.1354,347.8912 280.4094,349.2052 Z M283.7688,356.3585 C284.7228,361.2215 283.2708,366.7925 279.5718,371.3145 L270.0998,361.5555 L283.7688,356.3585 Z" id="Combined-Shape"></path>
        </g>
    </g>
</svg>