<?xml version="1.0" encoding="UTF-8"?>
<svg width="16px" height="16px" viewBox="0 0 16 16" version="1.1" xmlns="http://www.w3.org/2000/svg" xmlns:xlink="http://www.w3.org/1999/xlink">
    <!-- Generator: Sketch 43.2 (39069) - http://www.bohemiancoding.com/sketch -->
    <title>insect_infestation</title>
    <desc>Created with Sketch.</desc>
    <defs></defs>
    <g id="Hazard-icons" stroke="none" stroke-width="1" fill="none" fill-rule="evenodd">
        <g id="Artboard" transform="translate(-67.000000, -539.000000)" fill="#FFFFFF">
            <g id="Group-6" transform="translate(14.000000, 522.000000)">
                <g id="Layer_1" transform="translate(46.000000, 10.000000)">
                    <path d="M20.3293844,11.9258241 L17.1955151,13.0820917 L19.3661836,15.2527602 C20.2152509,14.2479594 20.5480512,13.0084917 20.3293844,11.9258241 L20.3293844,11.9258241 Z M19.5613837,10.4378229 C19.2669835,10.1423559 18.9149832,9.93435577 18.5341829,9.79462232 L17.5571154,12.4420912 L20.2056509,11.4650237 C20.0659175,11.0852901 19.8579173,10.7332898 19.5613837,10.4378229 L19.5613837,10.4378229 Z M14.7475131,10.633023 L16.9171149,12.8036915 L18.0744492,9.67088888 C16.9907149,9.45222203 15.7512472,9.78502231 14.7475131,10.633023 L14.7475131,10.633023 Z M17.8152489,20.8879649 L17.9539157,19.6442305 L19.0621833,18.0730292 L17.904849,16.8111615 C18.0061824,16.7087614 18.1000492,16.610628 18.1949826,16.5124946 L19.7373839,16.2938277 L21.5656521,14.4644929 L22.743253,14.1903593 C22.9213865,14.1487593 23.03232,13.9695591 22.9907199,13.7914256 C22.9491199,13.6122255 22.7699197,13.5023587 22.5907196,13.5439588 L21.2296518,13.8596924 L19.5837837,15.5066271 L19.0419166,15.6292938 L16.8744482,13.4607587 L10.3485761,19.9876975 C11.9677774,20.9103649 13.7843122,20.1796976 15.3885803,19.0255633 L15.5197804,19.803164 L13.9517791,21.3124986 L13.7736456,22.6212997 C13.7587122,22.7300998 13.7981789,22.8324999 13.8675123,22.9028999 C13.9176457,22.9530333 13.9837791,22.9861 14.0584458,22.9967667 C14.2397793,23.0213 14.4072461,22.8943666 14.4328461,22.7119664 L14.5789796,21.6303655 L16.4403145,19.8308973 L16.6067146,18.0463625 C16.8317815,17.8468957 17.048315,17.6474289 17.2563151,17.4490287 L18.1800492,18.1679626 L17.3021818,19.4852971 L17.1539151,20.8143648 C17.1432484,20.9188983 17.1805817,21.0170317 17.2499151,21.0863651 C17.3021818,21.1386318 17.3704486,21.1727651 17.4472486,21.1812985 C17.6317821,21.2015652 17.7949823,21.0692984 17.8152489,20.8879649 L17.8152489,20.8879649 Z M14.3709794,10.95729 L16.5384479,13.1258251 L9.89310901,19.771164 C8.95870823,18.1306293 9.75124222,16.2586277 10.9619099,14.608493 L10.1971093,14.4794262 L8.68777467,16.0474275 L7.37684024,16.225561 C7.27017349,16.241561 7.1677734,16.2020943 7.09737334,16.1316943 C7.04723997,16.0815609 7.01310661,16.0164942 7.0035066,15.9418274 C6.97683991,15.7594273 7.10590668,15.5930272 7.2861735,15.5674271 L8.36990774,15.4191603 L10.1693759,13.5599588 L11.9507107,13.3935587 C12.1501776,13.1684918 12.3507111,12.9508916 12.5512446,12.7428914 L11.8323106,11.8191573 L10.5139095,12.6980914 L9.18484175,12.8452915 C9.081375,12.8570249 8.98217491,12.8186248 8.91390819,12.7492914 C8.86164148,12.6980914 8.82750812,12.628758 8.81790811,12.5519579 C8.79764143,12.3684911 8.92884154,12.205291 9.11230836,12.1839576 L10.3549761,12.0452909 L11.927244,10.9380899 L13.1891118,12.0943576 C13.2904452,11.9930242 13.3896453,11.8991574 13.4877787,11.8052907 L13.7064455,10.2618227 L15.5347137,8.43462119 L15.8099139,7.2570202 C15.8504473,7.07782005 16.0307141,6.96688663 16.2088476,7.00955333 C16.3880478,7.05115337 16.4979145,7.23035351 16.4563145,7.408487 L16.1395142,8.77062147 L14.4925795,10.4164895 L14.3709794,10.95729 Z" id="insect_infestation"></path>
                </g>
            </g>
        </g>
    </g>
</svg>