<?xml version="1.0" encoding="UTF-8"?>
<svg width="15px" height="16px" viewBox="0 0 15 16" version="1.1" xmlns="http://www.w3.org/2000/svg" xmlns:xlink="http://www.w3.org/1999/xlink">
    <!-- Generator: Sketch 43.2 (39069) - http://www.bohemiancoding.com/sketch -->
    <title>landslide</title>
    <desc>Created with Sketch.</desc>
    <defs></defs>
    <g id="Hazard-icons" stroke="none" stroke-width="1" fill="none" fill-rule="evenodd">
        <g id="Artboard" transform="translate(-450.000000, -33.000000)" fill="#FFFFFF">
            <g id="Group-5" transform="translate(397.000000, 18.000000)">
                <g id="risk-conflict" transform="translate(46.000000, 9.000000)">
                    <path d="M19.9831499,21.9782542 C19.9789888,21.951207 19.9561027,21.8981529 19.9696263,21.8981529 C19.6658656,21.4653979 18.3644798,20.4396853 18.3478354,20.2753217 C18.3280701,20.099515 17.9660539,19.4691074 17.5353795,19.0581982 C17.3522908,18.7679611 17.3346061,18.5443017 17.1307119,18.2478229 C16.9268177,17.9523844 16.5460766,17.344863 16.3192963,17.0296592 L14.7890497,16.0684438 C14.5664305,15.9498523 13.2879308,15.9925036 11.5090581,14.1106435 L11.4497623,12.9725811 C11.2104987,12.6802634 10.7142869,11.9822379 10.6404272,11.7554577 C10.1702223,10.3583664 10.481265,9.21614288 10.2336792,7.29371203 L9.33175949,6.68931142 L8.25195255,6.48229641 C7.88681552,6.32937577 7.0005,6.42612148 7.0005,6.42612148 L7.0005,22.0001 L19.987311,22.0001 L20.0185193,22.0001 L19.9831499,21.9782542 Z M21.1867498,14.1907448 C20.645806,13.5905053 20.3566092,13.5187262 19.5639185,13.7839967 L19.1582107,13.7839967 C18.7826709,14.1168852 18.6089447,14.3738334 18.3478354,15.0011201 C18.0929676,15.6003194 17.8276971,16.2806602 17.9410873,16.6249917 C17.95149,16.6520388 18.2729355,17.0057328 18.7525029,17.435367 C19.2601578,17.8535581 19.5015019,18.1073856 19.5639185,18.2478229 L21.1867498,17.8410748 C21.3615162,17.7838596 22.0397764,16.3399559 21.9981654,16.2192838 C21.6725588,15.2403837 21.5185979,14.564204 21.1867498,14.1907448 L21.1867498,14.1907448 Z M16.3192963,14.1907448 L16.3192963,15.0011201 C16.5221502,15.181088 16.7343666,15.3475322 17.1307119,15.4078682 L17.9410873,15.0011201 L17.5353795,13.7839967 L16.3192963,14.1907448 Z M16.4098004,10.5508175 L16.3192963,10.5393745 C16.2724839,10.5549787 15.9250315,10.2637013 15.5078807,10.1336667 C15.3071073,10.0639682 15.3050268,10.2127277 15.1021729,10.1336667 C14.8140163,10.2314527 14.7661636,10.4707163 14.6954248,10.9450823 C14.6267666,11.4204886 14.5373028,12.0904267 14.6954248,12.5679136 C14.7391164,12.6958676 14.9419703,12.8113382 15.1021729,12.9725811 L15.5078807,13.3782889 L15.9125482,13.3782889 C16.4410087,13.1483878 16.6428223,12.5949607 16.7239638,12.5679136 C16.9143344,12.4534831 17.063094,12.114353 17.1307119,11.7554577 C17.1941688,11.395522 17.2409812,11.2800513 17.1307119,10.9450823 C17.0027579,10.5643411 16.6657084,10.4665552 16.4098004,10.5508175 L16.4098004,10.5508175 Z M13.0725936,8.91550299 C12.8281286,8.79691148 12.5358109,8.82499894 12.2622182,8.91550299 C12.1186601,8.96335571 12.0229546,9.17765265 11.8565104,9.3212108 L11.8565104,10.5393745 L13.0725936,10.1336667 C13.4086028,9.75292552 13.5584027,9.55943411 13.4793416,9.3212108 C13.4158848,9.13292077 13.3201793,9.03929589 13.0725936,8.91550299 L13.0725936,8.91550299 Z M13.8840092,12.1622057 C13.9765938,12.4295568 14.1898504,12.4659665 13.8840092,12.5679136 L13.0725936,12.9725811 L12.2622182,12.1622057 C12.1550697,11.8449214 12.2882251,11.6410273 12.667926,11.3507901 L13.4793416,11.7554577 C13.5781679,11.8802908 13.8517606,12.0685809 13.8840092,12.1622057 L13.8840092,12.1622057 Z" id="landslide"></path>
                </g>
            </g>
        </g>
    </g>
</svg>