<?xml version="1.0" encoding="UTF-8"?>
<svg width="17px" height="12px" viewBox="0 0 17 12" version="1.1" xmlns="http://www.w3.org/2000/svg" xmlns:xlink="http://www.w3.org/1999/xlink">
    <!-- Generator: Sketch 43.2 (39069) - http://www.bohemiancoding.com/sketch -->
    <title>locust_infestation</title>
    <desc>Created with Sketch.</desc>
    <defs></defs>
    <g id="Hazard-icons" stroke="none" stroke-width="1" fill="none" fill-rule="evenodd">
        <g id="Artboard" transform="translate(-449.000000, -92.000000)" fill="#FFFFFF">
            <g id="Group-6" transform="translate(397.000000, 74.000000)">
                <g id="Layer_1" transform="translate(46.000000, 10.000000)">
                    <path d="M21.2739333,17.245928 C21.3090667,17.235128 21.3895333,17.241128 21.385,17.195528 C21.3736667,17.129528 21.3668667,17.061128 21.3555333,16.996328 C21.3430667,16.901528 21.3226667,16.804328 21.3045333,16.710728 C21.2694,16.528328 21.2093333,16.369928 21.1368,16.195928 C21.0812667,16.277528 21.0189333,16.416728 20.9441333,16.464728 C20.8466667,16.521128 20.7310667,16.521128 20.6211333,16.536728 C20.5282,16.549928 20.4726667,16.319528 20.4613333,16.253528 C20.4443333,16.123928 20.4398,16.025528 20.4001333,15.898328 C20.3128667,15.937928 20.2845333,15.901928 20.1984,15.948728 C20.1360667,15.981128 20.0658,16.002728 20.0012,16.036328 C19.9173333,16.071128 19.8640667,16.141928 19.787,16.185128 C19.7688667,16.195928 19.7575333,16.218728 19.736,16.224728 C19.7224,16.231928 19.6895333,16.203128 19.6736667,16.211528 C19.6453333,16.224728 19.6249333,16.246328 19.6113333,16.279928 C19.5875333,16.354328 19.651,16.443128 19.6804667,16.512728 C19.736,16.642328 19.7881333,16.771928 19.8436667,16.902728 C19.8663333,16.960328 19.8901333,17.068328 19.9366,17.105528 C19.9944,17.153528 20.1848,17.225528 20.2890667,17.232728 L21.2739333,17.245928 Z M8.92853333,16.211528 C8.91606667,16.224728 8.90473333,16.251128 8.89113333,16.266728 C9.27873333,16.308728 9.66633333,16.321928 10.0494,16.365128 C10.2420667,16.385528 10.4472,16.380728 10.6398667,16.361528 C10.7135333,16.354328 10.8654,16.345928 10.9164,16.295528 C10.9968667,16.224728 11.0365333,15.871928 11.0297333,15.845528 C11.0048,15.757928 10.7668,15.771128 10.7067333,15.763928 C10.5843333,15.744728 10.4630667,15.695528 10.3418,15.695528 C10.2171333,15.695528 10.0981333,15.694328 9.97346667,15.671528 C9.7434,15.636728 9.4714,15.490328 9.2436,15.615128 C9.15746667,15.660728 9.04413333,15.808328 9.04413333,15.913928 C9.04413333,16.043528 8.9512,16.084328 8.92853333,16.211528 L8.92853333,16.211528 Z M12.1653333,13.399928 C12.0984667,13.345928 12.035,13.295528 11.9636,13.248728 C11.9001333,13.431128 11.8468667,13.608728 11.7539333,13.779128 C12.0894,13.817528 12.4350667,13.836728 12.7648667,13.915928 C12.5767333,13.735928 12.3863333,13.531928 12.1653333,13.399928 L12.1653333,13.399928 Z M12.528,11.821928 C12.3999333,12.100328 12.3092667,12.399128 12.1914,12.682328 C12.1404,12.804728 12.1959333,12.804728 12.2911333,12.875528 C12.3444,12.912728 12.3908667,12.960728 12.4418667,13.005128 C12.5552,13.105928 12.6674,13.167128 12.8022667,13.228328 C13.0833333,13.354328 13.2805333,13.577528 13.531,13.749128 C13.6443333,13.825928 13.7882667,13.945928 13.9208667,13.971128 C14.0976667,14.003528 14.2144,13.998728 14.3900667,13.971128 C14.1883333,13.396328 13.9820667,12.828728 13.6613333,12.317528 C13.5287333,12.105128 13.3474,11.825528 13.1286667,11.707928 C13.004,11.644328 12.9088,11.533928 12.7648667,11.523128 C12.6628667,11.514728 12.6651333,11.549528 12.6164,11.644328 C12.5880667,11.703128 12.5574667,11.763128 12.528,11.821928 L12.528,11.821928 Z M10.403,13.601528 C10.3678667,13.683128 10.3282,13.767128 10.2930667,13.847528 C10.5696,13.819928 10.8438667,13.807928 11.1204,13.807928 C11.1895333,13.807928 11.2779333,13.823528 11.2779333,13.743128 C11.2779333,13.687928 11.3878667,13.639928 11.4218667,13.589528 C11.5057333,13.455128 11.5454,13.309928 11.5918667,13.153928 C11.5635333,13.211528 11.6315333,13.015928 11.6644,12.978728 C11.5408667,12.888728 11.3731333,12.711128 11.2246667,12.675128 C11.0784667,12.642728 10.7792667,13.086728 10.7577333,13.110728 L10.403,13.601528 Z M20.926,13.722728 C20.7696,13.659128 20.8206,13.735928 20.6608,13.762328 C20.5078,13.791128 20.3083333,13.720328 20.1757333,13.847528 C20.1383333,13.883528 20.1496667,13.939928 20.0964,13.913528 C20.0544667,13.897928 20.0170667,13.876328 19.9728667,13.863128 C19.8663333,13.839128 19.7779333,13.836728 19.6714,13.846328 C19.1092667,13.897928 18.5709333,13.773128 18.0156,13.819928 C17.3163333,13.876328 16.6170667,13.857128 15.9144,13.887128 C15.8214667,13.891928 15.7330667,13.900328 15.6446667,13.900328 C15.5279333,13.900328 15.486,13.939928 15.4032667,13.839128 C15.2842667,13.698728 15.1845333,13.529528 15.0587333,13.393928 C14.7969333,13.105928 14.5272,12.857528 14.2994,12.534728 C14.1883333,12.383528 14.0795333,12.232328 13.9696,12.078728 C13.8630667,11.928728 13.7327333,11.827928 13.6080667,11.692328 C13.3338,11.395928 13.0391333,11.025128 12.6526667,10.911128 C12.4532,10.851128 12.3206,11.025128 12.2979333,11.239928 C12.2866,11.363528 11.8774667,12.342728 11.9035333,12.335528 C11.8378,12.351128 11.8933333,12.508328 11.78,12.515528 C11.4105333,12.545528 11.3244,11.740328 10.8926,11.904728 C10.6840667,11.981528 10.5254,12.316328 10.6183333,12.534728 C10.6693333,12.660728 10.7464,12.745928 10.6183333,12.851528 C10.5140667,12.936728 10.0709333,13.540328 10.1242,13.524728 C10.0890667,13.534328 10.0154,13.687928 9.98253333,13.722728 C9.91793333,13.786328 9.85673333,13.823528 9.7706,13.847528 C9.58813333,13.900328 9.3558,13.876328 9.16993333,13.852328 C8.99086667,13.831928 8.82313333,13.788728 8.64293333,13.807928 C8.4548,13.823528 8.2848,13.900328 8.1318,14.022728 C8.057,14.082728 7.9992,14.142728 7.93913333,14.217128 C7.8802,14.289128 7.87566667,14.429528 7.85753333,14.521928 C7.67846667,15.342728 8.4752,15.165128 8.8356,15.403928 C8.958,15.483128 8.6214,15.887528 8.5942,15.972728 C8.58173333,16.017128 8.56813333,16.057928 8.55,16.099928 C8.5126,16.185128 8.51486667,16.170728 8.43326667,16.139528 C7.84393333,15.915128 7.26706667,15.678728 6.70833333,15.377528 C6.66186667,15.353528 6.63806667,15.322328 6.61086667,15.384728 C6.60066667,15.413528 6.59386667,15.448328 6.6052,15.478328 C6.81713333,16.019528 7.53226667,16.134728 7.955,16.428728 C8.02186667,16.473128 8.08533333,16.519928 8.15673333,16.558328 C8.31766667,16.645928 8.31313333,16.642328 8.24513333,16.823528 C8.16806667,17.032328 8.06606667,17.243528 7.9686,17.447528 C7.8972,17.587928 7.81106667,17.759528 7.7646,17.908328 C7.72946667,18.016328 7.71813333,18.196328 7.64106667,18.281528 C7.56513333,18.360728 7.40646667,18.415928 7.3158,18.472328 C7.16506667,18.569528 6.99393333,18.625928 6.85,18.729128 C6.66186667,18.868328 6.55193333,18.903128 6.32753333,18.927128 C6.26406667,18.935528 5.88326667,19.090328 6.03626667,19.234328 C6.0714,19.270328 6.35926667,19.049528 6.42273333,19.030328 C6.37626667,19.099928 6.92593333,18.876728 6.95426667,18.852728 C7.02566667,18.791528 7.55833333,18.595928 7.632,18.567128 C7.6966,18.543128 8.0298,18.595928 8.05246667,18.442328 C8.0706,18.331928 8.0638,18.209528 8.09666667,18.103928 C8.125,18.011528 8.24286667,17.704328 8.2712,17.625128 C8.32673333,17.484728 8.584,16.782728 8.63046667,16.769528 C8.65653333,16.761128 8.73813333,16.837928 8.7744,16.848728 C9.32293333,17.028728 9.8964,17.121128 10.4676,17.041928 C10.5004667,17.034728 10.7996667,16.975928 10.7906,17.023928 C10.76,17.155928 10.6330667,17.680328 10.8325333,17.775128 C10.6931333,17.855528 10.4834667,17.941928 10.3259333,17.968328 C10.1287333,18.005528 9.9202,18.077528 9.7196,18.096728 C9.59946667,18.112328 9.0532,18.477128 9.0192,18.573128 C9.29913333,18.415928 9.5904,18.349928 9.89186667,18.267128 C9.98253333,18.240728 11.0365333,17.897528 11.0297333,17.955128 C11.0433333,17.851928 11.0501333,17.749928 11.0784667,17.651528 C11.1045333,17.563928 11.0943333,17.467928 11.1204,17.383928 C11.1487333,17.291528 11.1759333,17.196728 11.202,17.100728 C11.2292,17.004728 11.2416667,16.896728 11.3527333,16.936328 C11.61,17.028728 11.8400667,17.188328 12.0984667,17.275928 C12.8113333,17.515928 15.5766667,17.651528 15.8396,17.421128 C15.8554667,17.557928 15.7262667,17.611928 15.7262667,17.715128 C15.7262667,17.778728 15.7976667,17.799128 15.8112667,17.855528 C15.8044667,17.831528 14.6484667,18.135128 14.5430667,18.199928 C14.4410667,18.264728 14.3696667,18.312728 14.2654,18.367928 C14.1350667,18.435128 14.0183333,18.519128 13.9582667,18.670328 C14.1906,18.673928 14.3277333,18.582728 14.4410667,18.484328 C14.4875333,18.444728 14.6042667,18.408728 14.653,18.376328 C14.9012,18.231128 15.6186,18.112328 15.6888667,18.087128 C15.7285333,18.072728 15.7648,18.058328 15.8022,18.037928 C15.8668,18.005528 15.8792667,17.989928 15.9257333,18.034328 C15.9529333,18.058328 16.0345333,17.982728 16.0368,17.965928 C16.0458667,17.879528 16.0606,17.793128 16.0674,17.704328 C16.0764667,17.574728 16.0504,17.201528 16.2022667,17.190728 C17.5974,17.082728 19.3087333,16.571528 19.3631333,16.565528 C19.4878,16.547528 19.4946,16.624328 19.5501333,16.732328 C19.5875333,16.801928 19.6158667,16.894328 19.6294667,16.973528 C19.6464667,17.076728 19.6668667,17.179928 19.6929333,17.280728 C19.7246667,17.417528 19.8198667,17.391128 19.8776667,17.401928 C20.3570667,17.520728 20.8557333,17.447528 21.3408,17.428328 C21.3113333,17.487128 21.6128,17.428328 21.7612667,17.454728 C21.9176667,17.482328 21.9777333,17.601128 22.1148667,17.670728 C22.2236667,17.725928 22.3494667,17.709128 22.4605333,17.759528 C22.5795333,17.817128 22.9388,17.790728 22.9716667,17.843528 C23.0068,17.799128 23.0113333,17.741528 22.9626,17.709128 C22.7552,17.605928 22.5421333,17.585528 22.3358667,17.500328 C22.1080667,17.401928 21.9029333,17.261528 21.6853333,17.142728 C21.5731333,17.081528 21.5901333,16.722728 21.5640667,16.597928 C21.5266667,16.417928 21.5017333,16.181528 21.402,16.027928 C21.3385333,15.933128 21.3136,15.891128 21.3691333,15.787928 C21.4088,15.711128 21.4711333,15.634328 21.4926667,15.551528 C21.5924,15.180728 21.6502,14.736728 21.5017333,14.370728 C21.4507333,14.238728 21.2603333,13.945928 21.1991333,13.823528 L20.926,13.722728 Z M20.926,13.722728 C20.926,13.722728 17.8093333,7.258328 10.9651333,8.070728 C10.9651333,8.070728 17.3764,7.012328 21.1991333,13.823528 L20.926,13.722728 Z" id="locust_infestation"></path>
                </g>
            </g>
        </g>
    </g>
</svg>