<?xml version="1.0" encoding="UTF-8"?>
<svg width="16px" height="16px" viewBox="0 0 16 16" version="1.1" xmlns="http://www.w3.org/2000/svg" xmlns:xlink="http://www.w3.org/1999/xlink">
    <!-- Generator: Sketch 43.2 (39069) - http://www.bohemiancoding.com/sketch -->
    <title>population_displacement</title>
    <desc>Created with Sketch.</desc>
    <defs></defs>
    <g id="Hazard-icons" stroke="none" stroke-width="1" fill="none" fill-rule="evenodd">
        <g id="Artboard" transform="translate(-67.000000, -706.000000)" fill="#FFFFFF">
            <g id="Group-6" transform="translate(14.000000, 690.000000)">
                <g id="Layer_1" transform="translate(46.000000, 10.000000)">
                    <path d="M16.3562496,18.7114577 L19.6877476,18.7114577 L19.6877476,19.7020946 L23,17.7896993 L19.6877476,15.877304 L19.6877476,16.8669281 L16.3562496,16.8669281 L16.3562496,18.7114577 Z M14.0255178,13.6823037 L15.2916694,15.7061203 C15.4719694,15.9907512 15.8457373,16.082927 16.1344198,15.9127563 C16.4251282,15.7415726 16.5264204,15.3708434 16.364353,15.0760833 L16.0432569,14.4946665 C15.7647036,13.9973222 15.4912149,13.498965 15.2146874,12.9995948 L14.6484644,11.9745185 C14.5856633,11.8560067 14.5208363,11.724327 14.4529706,11.582518 C14.1045257,10.8522018 13.5626128,9.72482044 12.3714175,9.82813841 C11.3554574,9.91626255 10.3222778,10.4004389 9.30530486,11.2634478 C8.09891567,12.2145808 7.25819104,13.5931666 7.22375172,13.652929 C7.18424779,13.7147172 7.14676971,13.7754925 7.11739499,13.833229 C7.11536915,13.8362677 7.1133433,13.8372807 7.11131746,13.8393065 L7.11131746,13.8403194 C6.9988832,14.0530329 6.94317254,14.2485267 7.08396859,14.4946665 C7.194377,14.6891474 7.40202586,14.8096851 7.62588145,14.8096851 C7.89633142,14.8096851 8.03510163,14.682057 8.16982016,14.4875761 C8.171846,14.4865632 8.171846,14.4845373 8.171846,14.4825115 C8.20932408,14.4278137 8.24680217,14.3670385 8.2863061,14.3032244 C8.29440947,14.2920823 9.00041557,13.1596364 10.0923447,12.2277488 C10.4286345,11.9633764 10.7497305,11.7810506 11.052594,11.6817843 L10.80848,14.6283722 C10.7851828,14.9200935 10.691994,15.4225024 10.6129862,15.7040945 L10.0649958,17.6245932 C9.9940913,17.8666813 9.78846829,18.2688111 9.62741382,18.4663307 L8.14753589,20.2997182 C7.96014546,20.533703 7.74641908,20.7980754 7.92266737,21.1627271 C8.02497242,21.3784793 8.24477633,21.5162366 8.48483866,21.5162366 C8.77149537,21.5162366 8.9254594,21.3501175 9.11892736,21.1404428 L10.6190637,19.5238205 C10.8864749,19.2361509 11.2339069,18.7337419 11.4061035,18.3802324 L12.1506006,16.8669281 L14.9006818,21.4878748 C15.0343874,21.716795 15.2045582,21.9994 15.5783261,21.9994 C15.7920525,21.9994 15.9885592,21.8910174 16.1030193,21.7127433 C16.2985131,21.4088669 16.1678463,21.1293007 16.0533862,20.8821479 L13.830024,16.0505136 C13.7429128,15.8621102 13.6953055,15.4751743 13.7327836,15.2695513 L14.0255178,13.6823037 Z M14.473229,8.00690602 C14.5998442,8.78685537 14.0731251,9.52324911 13.2941887,9.65189011 C12.5122135,9.77951819 11.7748068,9.2507733 11.6481917,8.47183687 C11.5195507,7.68986167 12.0472827,6.95346793 12.8292578,6.82583986 C13.6081943,6.69719886 14.3466139,7.22594374 14.473229,8.00690602 L14.473229,8.00690602 Z" id="population_displacement"></path>
                </g>
            </g>
        </g>
    </g>
</svg>