<?xml version="1.0" encoding="UTF-8"?>
<svg width="17px" height="16px" viewBox="0 0 17 16" version="1.1" xmlns="http://www.w3.org/2000/svg" xmlns:xlink="http://www.w3.org/1999/xlink">
    <!-- Generator: Sketch 43.2 (39069) - http://www.bohemiancoding.com/sketch -->
    <title>populaition_return</title>
    <desc>Created with Sketch.</desc>
    <defs></defs>
    <g id="Hazard-icons" stroke="none" stroke-width="1" fill="none" fill-rule="evenodd">
        <g id="Artboard" transform="translate(-67.000000, -762.000000)" fill="#FFFFFF">
            <g id="Group-6" transform="translate(14.000000, 746.000000)">
                <g id="Layer_1" transform="translate(46.000000, 10.000000)">
                    <path d="M23.2833414,14.7138761 C23.2833414,12.6986738 21.6438376,11.0591699 19.6286353,11.0591699 L18.0752079,11.0591699 L18.0752079,12.9052573 L19.6286353,12.9052573 C20.6261098,12.9052573 21.437254,13.7164016 21.437254,14.7138761 C21.437254,15.7113506 20.6261098,16.5245202 19.6286353,16.5245202 L19.3045826,16.5245202 L19.3045826,15.535147 L15.9941824,17.4460449 L19.3045826,19.3579555 L19.3045826,18.3675696 L19.6661038,18.3675696 L19.6661038,18.3635189 C21.6640909,18.3432657 23.2833414,16.7169265 23.2833414,14.7138761 L23.2833414,14.7138761 Z M14.0235373,13.6839963 L15.2903806,15.7083126 C15.4696222,15.9928714 15.8432954,16.0850238 16.1329174,15.9148962 C16.4235521,15.7437559 16.5238059,15.372108 16.3617796,15.0774227 L16.040765,14.4961532 C15.7622822,13.998935 15.4898755,13.500704 15.2124054,13.0024731 L14.6473386,11.976644 C14.5825281,11.8591749 14.5197429,11.7265159 14.4508817,11.5847428 C14.1035378,10.8546117 13.5597369,9.72751614 12.3718815,9.83182058 C11.3541537,9.91992239 10.3222486,10.4029634 9.30452074,11.2667662 C8.09945,12.2166455 7.2579258,13.5958945 7.22349521,13.654629 C7.18501396,13.7174142 7.14754537,13.7771615 7.11716544,13.8348833 C7.11514011,13.8379213 7.11311478,13.8399466 7.11108945,13.841972 L7.11108945,13.8429846 C6.99868369,14.0556442 6.94298714,14.2500758 7.08374751,14.4961532 C7.19412794,14.6915975 7.4007115,14.8121046 7.62552301,14.8121046 C7.89590443,14.8121046 8.03463947,14.6845088 8.16831118,14.4890646 C8.17033651,14.4880519 8.17033651,14.4860266 8.17236184,14.4840013 C8.20881776,14.4293174 8.24527368,14.3685575 8.28578026,14.3057723 C8.29388158,14.2936203 9.0007214,13.1614614 10.0923737,12.2298101 C10.4285783,11.9655047 10.749593,11.7832251 11.051367,11.6839839 L10.8073149,14.629825 C10.7840236,14.9214723 10.6908584,15.4237539 10.6118706,15.7052746 L10.0650318,17.6252865 C9.9931326,17.8673133 9.78654904,18.2703538 9.62654805,18.4668107 L8.14704523,20.3007461 C7.9597023,20.533659 7.74704275,20.7979644 7.92324637,21.1625236 C8.02552549,21.3782211 8.24324835,21.5159435 8.4842625,21.5159435 C8.76983389,21.5159435 8.92375889,21.3508792 9.12021581,21.1412576 L10.6179466,19.5240325 C10.8842774,19.2364357 11.2326339,18.7351668 11.4047869,18.3807342 L12.1490953,16.8678135 L14.8984794,21.4886016 C15.0341764,21.7164511 15.2032914,21.9999971 15.5769646,21.9999971 C15.7896242,21.9999971 15.9860811,21.8906294 16.1005122,21.7124004 C16.2959564,21.4086011 16.1663354,21.1291057 16.0519043,20.8820155 L13.8291057,16.0516059 C13.7420166,15.8632503 13.6934087,15.4764125 13.7298646,15.2708416 L14.0235373,13.6839963 Z M14.471135,8.01003716 C14.5987307,8.78978882 14.0701199,9.52599591 13.2913809,9.6546043 C12.5096039,9.78220002 11.7744094,9.25358916 11.6468137,8.47485016 C11.519218,7.69307317 12.0458035,6.95686609 12.8275805,6.82927036 C13.6063195,6.70066197 14.3455646,7.22927284 14.471135,8.01003716 L14.471135,8.01003716 Z" id="populaition_return"></path>
                </g>
            </g>
        </g>
    </g>
</svg>