<?xml version="1.0" encoding="UTF-8"?>
<svg width="18px" height="16px" viewBox="0 0 18 16" version="1.1" xmlns="http://www.w3.org/2000/svg" xmlns:xlink="http://www.w3.org/1999/xlink">
    <!-- Generator: Sketch 43.2 (39069) - http://www.bohemiancoding.com/sketch -->
    <title>snow_avalanche</title>
    <desc>Created with Sketch.</desc>
    <defs></defs>
    <g id="Hazard-icons" stroke="none" stroke-width="1" fill="none" fill-rule="evenodd">
        <g id="Artboard" transform="translate(-449.000000, -146.000000)" fill="#FFFFFF">
            <g id="Group-5" transform="translate(397.000000, 130.000000)">
                <g id="risk-conflict" transform="translate(46.000000, 9.000000)">
                    <path d="M12.2966667,14.231 C13.0016667,14.844 13.8736667,16.098 16.1886667,16.393 C16.7276667,15.684 15.4196667,14.246 14.8916667,13.798 C14.0496667,13.087 13.2016667,13.116 12.2966667,12.501 C11.6396667,12.056 11.4056667,11.397 10.9986667,10.773 C10.7356667,10.367 10.4766667,9.814 10.1346667,9.475 C9.96766667,9.309 8.85066667,8.812 8.83766667,8.61 C8.91966667,9.839 8.90466667,11.493 9.70266667,12.501 C10.3186667,13.282 11.5756667,13.607 12.2966667,14.231 L12.2966667,14.231 Z M18.7816667,16.393 L18.7816667,16.825 L20.9436667,16.825 L20.9436667,14.664 L20.5116667,14.664 L20.5116667,15.96 L15.3226667,11.637 L14.8916667,12.069 L20.0786667,16.393 L18.7816667,16.393 Z M17.4856667,11.23 C17.2496667,11.366 17.0856667,11.528 17.1206667,11.59 C17.1546667,11.651 17.3756667,11.59 17.6106667,11.455 C17.8466667,11.319 18.0416667,11.391 18.0456667,11.613 C18.0476667,11.836 18.1086667,11.987 18.1776667,11.947 C18.2466667,11.907 18.3026667,11.691 18.3016667,11.464 C18.2996667,11.238 18.5286667,10.92 18.8106667,10.758 C19.0916667,10.595 19.3216667,10.729 19.3216667,11.056 C19.3216667,11.383 19.1596667,11.741 18.9636667,11.852 C18.7656667,11.962 18.6066667,12.121 18.6076667,12.203 C18.6086667,12.285 18.7706667,12.262 18.9666667,12.153 C19.1616667,12.043 19.3216667,12.173 19.3216667,12.441 C19.3216667,12.71 19.3776667,12.93 19.4456667,12.93 C19.5146667,12.93 19.5706667,12.71 19.5706667,12.439 C19.5706667,12.169 19.7316667,12.041 19.9276667,12.153 C20.1216667,12.265 20.2816667,12.287 20.2816667,12.203 C20.2816667,12.119 20.1216667,11.959 19.9276667,11.849 C19.7316667,11.741 19.5706667,11.383 19.5706667,11.056 C19.5706667,10.729 19.8016667,10.595 20.0826667,10.758 C20.3636667,10.92 20.5946667,11.238 20.5926667,11.464 C20.5916667,11.691 20.6466667,11.907 20.7156667,11.947 C20.7836667,11.987 20.8436667,11.836 20.8486667,11.613 C20.8516667,11.391 21.0456667,11.319 21.2806667,11.455 C21.5156667,11.59 21.7356667,11.651 21.7726667,11.59 C21.8066667,11.528 21.6426667,11.366 21.4066667,11.23 C21.1726667,11.094 21.1396667,10.889 21.3356667,10.775 C21.5296667,10.66 21.6316667,10.533 21.5576667,10.491 C21.4856667,10.449 21.2676667,10.509 21.0736667,10.625 C20.8786667,10.739 20.4826667,10.695 20.1916667,10.528 C19.9006667,10.359 19.9006667,10.084 20.1916667,9.914 C20.4826667,9.745 20.8786667,9.7 21.0736667,9.814 C21.2676667,9.929 21.4856667,9.989 21.5576667,9.947 C21.6316667,9.906 21.5296667,9.779 21.3356667,9.664 C21.1396667,9.55 21.1726667,9.345 21.4066667,9.21 C21.6426667,9.074 21.8066667,8.912 21.7726667,8.851 C21.7356667,8.789 21.5156667,8.85 21.2806667,8.985 C21.0456667,9.121 20.8516667,9.047 20.8486667,8.824 C20.8436667,8.599 20.7836667,8.447 20.7156667,8.488 C20.6466667,8.53 20.5916667,8.747 20.5926667,8.972 C20.5946667,9.197 20.3636667,9.515 20.0826667,9.678 C19.8016667,9.842 19.5706667,9.707 19.5706667,9.379 C19.5706667,9.051 19.7316667,8.694 19.9276667,8.585 C20.1216667,8.477 20.2816667,8.319 20.2816667,8.235 C20.2816667,8.15 20.1216667,8.173 19.9276667,8.286 C19.7316667,8.398 19.5706667,8.268 19.5706667,7.995 C19.5706667,7.722 19.5146667,7.5 19.4456667,7.5 C19.3776667,7.5 19.3216667,7.72 19.3216667,7.991 C19.3216667,8.261 19.1616667,8.394 18.9666667,8.285 C18.7706667,8.176 18.6086667,8.153 18.6076667,8.234 C18.6066667,8.314 18.7656667,8.471 18.9636667,8.583 C19.1596667,8.692 19.3216667,9.051 19.3216667,9.379 C19.3216667,9.707 19.0916667,9.842 18.8106667,9.678 C18.5286667,9.515 18.2996667,9.197 18.3016667,8.972 C18.3026667,8.747 18.2466667,8.53 18.1776667,8.488 C18.1086667,8.447 18.0476667,8.599 18.0456667,8.824 C18.0416667,9.047 17.8466667,9.121 17.6106667,8.985 C17.3756667,8.85 17.1546667,8.789 17.1206667,8.851 C17.0856667,8.912 17.2496667,9.074 17.4856667,9.21 C17.7216667,9.345 17.7546667,9.55 17.5616667,9.664 C17.3666667,9.779 17.2676667,9.906 17.3396667,9.947 C17.4116667,9.989 17.6286667,9.929 17.8196667,9.814 C18.0126667,9.7 18.4076667,9.745 18.6996667,9.914 C18.9926667,10.084 18.9926667,10.359 18.6996667,10.528 C18.4076667,10.695 18.0126667,10.739 17.8196667,10.625 C17.6286667,10.509 17.4116667,10.449 17.3396667,10.491 C17.2676667,10.533 17.3666667,10.66 17.5616667,10.775 C17.7546667,10.889 17.7216667,11.094 17.4856667,11.23 L17.4856667,11.23 Z M23.2486667,22.5 L6.51066667,22.5 C6.48666667,22.5 6.51066667,7.503 6.51066667,7.503 L8.00666667,7.88 C7.21066667,14.078 11.4316667,14.231 11.4316667,14.231 C14.6736667,18.376 17.0526667,16.825 17.0526667,16.825 C17.3586667,17.106 23.2486667,22.5 23.2486667,22.5 L23.2486667,22.5 Z" id="snow_avalanche"></path>
                </g>
            </g>
        </g>
    </g>
</svg>