<?xml version="1.0" encoding="UTF-8"?>
<svg width="16px" height="19px" viewBox="0 0 16 19" version="1.1" xmlns="http://www.w3.org/2000/svg" xmlns:xlink="http://www.w3.org/1999/xlink">
    <!-- Generator: Sketch 43.2 (39069) - http://www.bohemiancoding.com/sketch -->
    <title>snowfall</title>
    <desc>Created with Sketch.</desc>
    <defs></defs>
    <g id="Hazard-icons" stroke="none" stroke-width="1" fill="none" fill-rule="evenodd">
        <g id="Artboard" transform="translate(-450.000000, -314.000000)" fill="#FFFFFF">
            <g id="Group-6" transform="translate(397.000000, 298.000000)">
                <g id="Layer_1" transform="translate(46.000000, 10.000000)">
                    <path d="M8.25427692,18.5600914 C7.45550769,19.0196724 6.89550769,19.5658057 7.01612308,19.7754819 C7.13304615,19.98272 7.88381538,19.7754819 8.68504615,19.3219962 C9.48381538,18.8611962 10.1459692,19.1037867 10.1582769,19.853501 C10.1681231,20.6032152 10.3748923,21.110339 10.6075077,20.9750248 C10.8462769,20.8445867 11.0358154,20.1143771 11.0296615,19.3512533 C11.0222769,18.5881295 11.8001231,17.5202438 12.7564308,16.9716724 C13.7164308,16.42432 14.4967385,16.8753676 14.4967385,17.9773867 C14.4967385,19.0781867 13.9502769,20.2850438 13.2795077,20.6568533 C12.6099692,21.0286629 12.0659692,21.5613867 12.0708923,21.8381105 C12.0758154,22.1136152 12.6272,22.0392533 13.2905846,21.6698819 C13.9552,21.3005105 14.4967385,21.7381486 14.4967385,22.6414629 C14.4967385,23.5484343 14.6899692,24.2859581 14.9238154,24.2859581 C15.1564308,24.2859581 15.3459692,23.5447771 15.3459692,22.6341486 C15.3459692,21.7259581 15.8912,21.2919771 16.5545846,21.6698819 C17.2192,22.0465676 17.7656615,22.1221486 17.7656615,21.8381105 C17.7656615,21.5540724 17.2192,21.0176914 16.5545846,20.64832 C15.8912,20.2826057 15.3459692,19.0781867 15.3459692,17.9773867 C15.3459692,16.8753676 16.1287385,16.42432 17.0862769,16.9716724 C18.0425846,17.5202438 18.8241231,18.5881295 18.8204308,19.3512533 C18.8155077,20.1143771 19.0038154,20.8445867 19.2388923,20.9750248 C19.4702769,21.110339 19.6721231,20.6032152 19.6844308,19.853501 C19.6992,19.1037867 20.3601231,18.8611962 21.1588923,19.3219962 C21.9576615,19.7754819 22.7084308,19.98272 22.8265846,19.7754819 C22.9472,19.5658057 22.3908923,19.0196724 21.5896615,18.5600914 C20.7896615,18.1029486 20.6788923,17.4117486 21.3422769,17.0301867 C22.0068923,16.6437486 22.3490462,16.2146438 22.1016615,16.0732343 C21.8542769,15.9330438 21.1121231,16.1354057 20.4548923,16.5230629 C19.7927385,16.9082819 18.4425846,16.7619962 17.4530462,16.1987962 C16.4635077,15.63072 16.4635077,14.7018057 17.4530462,14.1300724 C18.4425846,13.5619962 19.7927385,13.4108343 20.4548923,13.7936152 C21.1121231,14.1812724 21.8542769,14.3836343 22.1016615,14.2422248 C22.3490462,14.1044724 22.0068923,13.6790248 21.3422769,13.2901486 C20.6788923,12.9061486 20.7896615,12.2161676 21.5896615,11.7578057 C22.3908923,11.3018819 22.9472,10.7569676 22.8265846,10.5509486 C22.7084308,10.3400533 21.9576615,10.5460724 21.1588923,11.0044343 C20.3601231,11.4615771 19.6992,11.2141105 19.6844308,10.458301 C19.6721231,9.70127238 19.4702769,9.19292952 19.2388923,9.3306819 C19.0038154,9.46965333 18.8155077,10.1998629 18.8204308,10.9605486 C18.8241231,11.7175771 18.0425846,12.7854629 17.0862769,13.3364724 C16.1287385,13.8874819 15.3459692,13.4327771 15.3459692,12.32832 C15.3459692,11.2250819 15.8912,10.023101 16.5545846,9.65738667 C17.2192,9.29167238 17.7656615,8.76016762 17.7656615,8.47734857 C17.7656615,8.19087238 17.2192,8.27011048 16.5545846,8.65045333 C15.8912,9.02592 15.3459692,8.5882819 15.3459692,7.66912 C15.3459692,6.7499581 15.1564308,6.00024381 14.9238154,6.00024381 C14.6899692,6.00024381 14.4967385,6.74386286 14.4967385,7.65571048 C14.4967385,8.56390095 13.9552,9.01129143 13.2905846,8.6443581 C12.6272,8.27864381 12.0758154,8.20062476 12.0708923,8.47369143 C12.0659692,8.74432 12.6099692,9.27216762 13.2795077,9.64641524 C13.9502769,10.0145676 14.4967385,11.2250819 14.4967385,12.32832 C14.4967385,13.4327771 13.7164308,13.8874819 12.7564308,13.3364724 C11.8001231,12.7854629 11.0222769,11.7175771 11.0296615,10.9605486 C11.0358154,10.1998629 10.8462769,9.46965333 10.6075077,9.3306819 C10.3748923,9.19292952 10.1681231,9.70127238 10.1582769,10.458301 C10.1459692,11.2141105 9.48381538,11.4615771 8.68504615,11.0044343 C7.88381538,10.5460724 7.13304615,10.3400533 7.01612308,10.5509486 C6.89550769,10.7569676 7.45550769,11.3018819 8.25427692,11.7578057 C9.05550769,12.2161676 9.17243077,12.9061486 8.51150769,13.2901486 C7.85304615,13.6790248 7.51581538,14.1044724 7.76073846,14.2422248 C8.00566154,14.3836343 8.74166154,14.1812724 9.39643077,13.7936152 C10.0450462,13.4108343 11.3915077,13.5619962 12.3859692,14.1300724 C13.3804308,14.7018057 13.3804308,15.63072 12.3859692,16.1987962 C11.3915077,16.7619962 10.0450462,16.9082819 9.39643077,16.5230629 C8.74166154,16.1354057 8.00566154,15.9330438 7.76073846,16.0732343 C7.51581538,16.2146438 7.85304615,16.6437486 8.51150769,17.0301867 C9.17243077,17.4117486 9.05550769,18.1029486 8.25427692,18.5600914" id="snowfall"></path>
                </g>
            </g>
        </g>
    </g>
</svg>