<?xml version="1.0" encoding="UTF-8" standalone="no"?>
<svg width="65px" height="74px" viewBox="0 0 65 74" version="1.1" xmlns="http://www.w3.org/2000/svg" xmlns:xlink="http://www.w3.org/1999/xlink">
    <!-- Generator: Sketch 42 (36781) - http://www.bohemiancoding.com/sketch -->
    <title>Combined Shape</title>
    <desc>Created with Sketch.</desc>
    <defs></defs>
    <g id="06-MAP" stroke="none" stroke-width="1" fill="none" fill-rule="evenodd">
        <g id="Hazard-icons" transform="translate(-227.000000, -182.000000)" fill="#FFFFFF">
            <path d="M291.6809,206.2834 C291.6809,212.7804 286.3069,218.0424 279.6809,218.0424 L268.6669,218.0424 L256.6769,218.0424 L234.6779,218.0424 C230.8119,218.0424 227.6779,216.6054 227.6779,212.8144 C227.6779,209.0284 230.8119,205.9554 234.6779,205.9554 C235.3839,205.9554 236.0529,206.0914 236.6969,206.2794 C236.6949,206.2244 236.6789,206.1754 236.6789,206.1194 C236.6789,201.7014 240.3339,198.1174 244.8429,198.1174 C245.0349,198.1174 245.2129,198.1594 245.4039,198.1724 C245.3959,197.9864 245.3469,197.8144 245.3469,197.6284 C245.3459,189.4184 252.1359,182.7654 260.5129,182.7654 C268.0809,182.7654 274.3029,188.2164 275.4439,195.3174 C276.7639,194.8274 278.1839,194.5244 279.6809,194.5244 C286.3069,194.5244 291.6809,199.7864 291.6809,206.2834 Z M266.885,230.0753 L260.307,236.6963 L267.215,236.6963 L246.483,255.2463 L255.697,239.0153 L246.483,239.0153 C246.547,239.0153 252.016,233.4873 255.387,230.0753 L266.885,230.0753 Z" id="Combined-Shape"></path>
        </g>
    </g>
</svg>