<?xml version="1.0" encoding="UTF-8"?>
<svg width="16px" height="16px" viewBox="0 0 16 16" version="1.1" xmlns="http://www.w3.org/2000/svg" xmlns:xlink="http://www.w3.org/1999/xlink">
    <!-- Generator: Sketch 43.2 (39069) - http://www.bohemiancoding.com/sketch -->
    <title>storm</title>
    <desc>Created with Sketch.</desc>
    <defs></defs>
    <g id="Hazard-icons" stroke="none" stroke-width="1" fill="none" fill-rule="evenodd">
        <g id="Artboard" transform="translate(-450.000000, -203.000000)" fill="#FFFFFF">
            <g id="Group-6" transform="translate(397.000000, 186.000000)">
                <g id="Layer_1" transform="translate(46.000000, 10.000000)">
                    <path d="M16.7781333,16.5796267 L13.8266667,16.5796267 C12.9616,17.4500267 11.5568,18.86016 11.5418667,18.86016 L13.9066667,18.86016 L11.5418667,22.9998933 L16.8624,18.26816 L15.0885333,18.26816 L16.7781333,16.5796267 Z M22.7706667,12.9134933 C22.7706667,14.5476267 21.4469333,15.8702933 19.8128,15.8702933 L17.0992,15.8702933 L14.1445333,15.8702933 L8.7248,15.8702933 C7.77226667,15.8702933 7,15.5086933 7,14.55616 C7,13.6036267 7.77226667,12.8302933 8.7248,12.8302933 C8.8976,12.8302933 9.06293333,12.8644267 9.22186667,12.9124267 C9.22186667,12.89856 9.2176,12.88576 9.2176,12.8718933 C9.2176,11.7604267 10.1189333,10.86016 11.2304,10.86016 C11.2762667,10.86016 11.3221333,10.8708267 11.368,10.8740267 C11.3658667,10.8270933 11.3530667,10.78336 11.3530667,10.7364267 C11.3530667,8.67242667 13.0256,6.99989333 15.0906667,6.99989333 C16.9541333,6.99989333 18.4890667,8.37056 18.7696,10.15616 C19.0938667,10.0324267 19.4437333,9.95669333 19.8128,9.95669333 C21.4469333,9.95669333 22.7706667,11.2804267 22.7706667,12.9134933 L22.7706667,12.9134933 Z" id="storm"></path>
                </g>
            </g>
        </g>
    </g>
</svg>