<?xml version="1.0" encoding="UTF-8"?>
<svg width="20px" height="18px" viewBox="0 0 20 18" version="1.1" xmlns="http://www.w3.org/2000/svg" xmlns:xlink="http://www.w3.org/1999/xlink">
    <!-- Generator: Sketch 43.2 (39069) - http://www.bohemiancoding.com/sketch -->
    <title>storm_surge</title>
    <desc>Created with Sketch.</desc>
    <defs></defs>
    <g id="Hazard-icons" stroke="none" stroke-width="1" fill="none" fill-rule="evenodd">
        <g id="Artboard" transform="translate(-448.000000, -257.000000)" fill="#FFFFFF">
            <g id="Group-6" transform="translate(397.000000, 242.000000)">
                <g id="Layer_1" transform="translate(46.000000, 10.000000)">
                    <path d="M8.8896,18.4248 C8.8896,18.4248 7.6796,17.0158 6.6666,18.9808 C6.2516,19.7848 5.5856,20.3398 4.9996,20.6968 L4.9996,22.8688 L24.9996,22.8688 L24.9996,21.2018 C24.6476,21.1168 23.5376,20.7228 23.3336,20.0918 C23.1606,19.5628 22.9326,18.5098 23.8896,18.4248 C23.8896,18.4248 22.6836,17.0158 21.6666,18.9808 C20.8996,20.4788 20.3536,21.1318 20.0006,21.2018 L19.4456,21.2018 C19.0936,21.1168 18.5386,20.7228 18.3336,20.0918 C18.1606,19.5628 17.9326,18.5098 18.8896,18.4248 C18.8896,18.4248 17.6816,17.0158 16.6666,18.9808 C15.8956,20.4788 15.3556,21.1318 15.0006,21.2018 L14.4456,21.2018 C14.0926,21.1168 13.5386,20.7228 13.3336,20.0918 C13.1606,19.5628 12.9326,18.5098 13.8896,18.4248 C13.8896,18.4248 12.6806,17.0158 11.6676,18.9808 C10.8956,20.4788 10.3566,21.1318 9.9996,21.2018 L9.4456,21.2018 C9.0946,21.1168 8.5386,20.7228 8.3336,20.0918 C8.1616,19.5628 7.9306,18.5098 8.8896,18.4248 M24.9996,14.5338 L24.9996,18.2328 C24.5536,18.0418 24.0246,17.7318 23.8896,17.3138 C23.7156,16.7858 23.4886,15.7318 24.4456,15.6468 C24.4456,15.6468 23.2386,14.2378 22.2226,16.2028 C21.4546,17.6998 20.9096,18.3548 20.5566,18.4248 L20.0006,18.4248 C19.6496,18.3398 19.0946,17.9448 18.8896,17.3138 C18.7156,16.7858 18.4886,15.7318 19.4456,15.6468 C19.4456,15.6468 18.2376,14.2378 17.2226,16.2028 C16.4516,17.6998 15.9106,18.3548 15.5556,18.4248 L15.0006,18.4248 C14.6486,18.3398 14.0946,17.9448 13.8896,17.3138 C13.7156,16.7858 13.4886,15.7318 14.4456,15.6468 C14.4456,15.6468 13.2366,14.2378 12.2226,16.2028 C11.4516,17.6998 10.9106,18.3548 10.5566,18.4248 L9.9996,18.4248 C9.6506,18.3398 9.0946,17.9448 8.8896,17.3138 C8.7176,16.7858 8.4866,15.7318 9.4456,15.6468 C9.4456,15.6468 8.2356,14.2378 7.2226,16.2028 C6.6646,17.2828 5.6556,17.9178 4.9996,18.2178 L4.9996,12.9678 C6.2566,8.6488 9.4886,4.9998 12.7786,4.9998 C14.4626,4.9998 15.6836,5.3718 16.1126,6.1128 C16.5216,6.8058 16.5366,8.0838 15.5556,8.3338 C15.1446,8.4398 14.1396,8.1528 13.8896,7.7788 C13.7156,7.5178 13.3686,7.3438 13.8896,6.6668 C10.9976,5.9288 8.8566,12.9568 15.5556,13.8898 C16.4446,10.4878 19.0646,7.7788 21.6666,7.7788 C22.9636,7.7788 23.5596,8.3178 23.8896,8.8888 C24.2016,9.4218 24.0866,10.3648 23.3336,10.5558 C23.0176,10.6408 22.3776,10.3118 22.2226,10.0018 C22.0676,9.6898 22.1016,9.1158 22.7786,8.8888 C20.4446,8.2908 18.8336,14.2178 24.9996,14.5338" id="storm_surge"></path>
                </g>
            </g>
        </g>
    </g>
</svg>