<?xml version="1.0" encoding="UTF-8"?>
<svg width="16px" height="13px" viewBox="0 0 16 13" version="1.1" xmlns="http://www.w3.org/2000/svg" xmlns:xlink="http://www.w3.org/1999/xlink">
    <!-- Generator: Sketch 43.2 (39069) - http://www.bohemiancoding.com/sketch -->
    <title>technological_disaster</title>
    <desc>Created with Sketch.</desc>
    <defs></defs>
    <g id="Hazard-icons" stroke="none" stroke-width="1" fill="none" fill-rule="evenodd">
        <g id="Artboard" transform="translate(-450.000000, -371.000000)" fill="#FFFFFF">
            <g id="Group-5" transform="translate(397.000000, 354.000000)">
                <path d="M69.0256174,24.762103 C69.173177,25.3752898 68.0365401,25.8826802 67.4954881,26.316661 C66.9555054,26.7495623 65.7376037,27.4091699 64.162565,28.2566199 C62.5875262,29.10407 60.6093717,29.7442456 59.3273137,29.4149816 C58.0441864,29.084638 57.109642,29.0285012 56.0200531,29.7161772 C54.9304642,30.4038532 53.9328327,29.7258932 53.8130741,28.9162276 C53.6943849,28.1065619 55.9847671,26.7117779 57.0925336,26.8056991 C57.9704066,26.8812679 59.6448877,25.9841583 60.5099293,25.7973954 C60.8478195,25.7239858 61.4305731,25.7142698 62.3993342,25.3472213 C63.3648875,24.9801729 63.7369944,23.4655584 64.221375,23.2323747 C64.8041286,22.9560088 65.9322114,23.3910691 66.2412312,23.4903881 C66.7085034,23.6404461 68.8780578,24.1499957 69.0256174,24.762103 L69.0256174,24.762103 Z M55.3506883,18.3430737 L55.5848591,20.0606444 C55.4330223,20.172918 55.4062905,20.3704765 55.4330223,20.6241717 L54.5433874,20.3413285 C54.4065205,19.9764392 54.9817893,18.3992105 55.3506883,18.3430737 L55.3506883,18.3430737 Z M55.7623583,20.272237 C55.9676587,20.2862712 56.0360922,20.5809895 56.0360922,20.7925821 C56.0360922,21.0041748 55.9815593,21.2146878 55.815822,21.1866194 C55.6522233,21.158551 55.5698893,20.6651947 55.5698893,20.6651947 C55.557058,20.8908216 55.557058,20.2571233 55.7623583,20.272237 L55.7623583,20.272237 Z M56.6915564,18.8515437 C56.8808176,18.6205191 57.4133155,20.9976974 57.1459973,21.08838 C57.1042956,21.1024142 56.2018294,20.8444007 56.2018294,20.8444007 C56.2413925,20.6943427 56.1889982,20.3542831 55.9954598,20.1858727 L56.6915564,18.8515437 Z M59.4588342,24.006415 C59.1049049,23.6404461 58.9252671,23.0229411 58.9274057,22.1700933 C58.9284749,21.0020157 59.5582766,18.6896106 61.0039333,18.6388715 L61.0862673,18.6367124 C61.5449853,18.6367124 61.908538,18.7759749 62.1705099,19.0512612 C62.657029,19.5618903 62.692315,20.4244542 62.6858993,20.7720706 C62.6495441,22.4475387 61.9951491,24.2611898 60.9643702,24.393975 C60.3024904,24.4792598 59.791378,24.3497133 59.4588342,24.006415 L59.4588342,24.006415 Z M55.6522233,22.5662897 L55.6810936,21.3841779 C55.6810936,21.3841779 55.9002945,21.5806567 56.0638933,21.4252009 L56.8305618,22.960327 C56.5429274,23.1719196 55.80406,22.8620876 55.6522233,22.5662897 L55.6522233,22.5662897 Z M59.6085324,24.723239 C59.8908204,24.8581833 60.2137408,24.9359112 60.5837091,24.9359112 C60.7259224,24.9359112 60.873482,24.9251156 61.0274573,24.9056837 C62.3897108,24.7297163 63.1446173,22.6990749 63.1852497,20.7828662 C63.198081,20.272237 63.1264397,19.3189907 62.527647,18.6906901 C62.1705099,18.3139257 61.6882679,18.1239241 61.0937522,18.1228446 C60.0918437,17.8864222 56.1986216,16.9839149 55.5046636,17.0001082 C54.3412949,17.0260175 53.2912691,18.5859733 53.0806223,19.5629699 C52.8721141,20.5345687 52.961933,22.6159492 54.6856007,23.0035092 L59.6085324,24.723239 Z" id="technological_disaster"></path>
            </g>
        </g>
    </g>
</svg>