<?xml version="1.0" encoding="UTF-8"?>
<svg width="15px" height="16px" viewBox="0 0 15 16" version="1.1" xmlns="http://www.w3.org/2000/svg" xmlns:xlink="http://www.w3.org/1999/xlink">
    <!-- Generator: Sketch 43.2 (39069) - http://www.bohemiancoding.com/sketch -->
    <title>tornado</title>
    <desc>Created with Sketch.</desc>
    <defs></defs>
    <g id="Hazard-icons" stroke="none" stroke-width="1" fill="none" fill-rule="evenodd">
        <g id="Artboard" transform="translate(-450.000000, -427.000000)" fill="#FFFFFF">
            <g id="Group-5" transform="translate(397.000000, 410.000000)">
                <g id="risk-conflict" transform="translate(46.000000, 9.000000)">
                    <g id="Layer_1">
                        <path d="M22,10.0036989 C20.8216868,10.9292879 17.786864,11.4485988 14.5035824,11.5040488 C10.8033592,11.4432671 7.85064502,11.1852111 7.0039657,10.0036989 C6.99756762,10.034623 6.73844536,12.9030958 11.5028826,14.5026159 C14.8053585,15.6105501 13.0021662,17.5022493 13.0021662,17.5022493 C13.0021662,17.5022493 9.42244012,20.9006964 12.5031159,22.0000998 C14.4321371,22.6878935 14.2487255,23.6188142 14.0034657,23.9995 C15.8738379,21.6450064 10.5431706,21.2280648 16.5019162,18.5014162 C19.5601986,17.1023692 19.9430171,16.2876803 19.0003666,15.0027325 C17.7666034,13.3157719 21.7398114,12.6386418 22,10.0036989 M7.0039657,9.50464867 C7.95834604,8.76993576 11.159519,8.0042988 14.5035824,8.0042988 C18.1846113,8.0042988 21.3825852,8.68676072 22,9.50464867 C21.467893,10.4377021 16.5850912,11.0039322 14.5035824,11.0039322 C12.4199408,11.0039322 7.45396403,10.5837916 7.0039657,9.50464867" id="tornado"></path>
                    </g>
                </g>
            </g>
        </g>
    </g>
</svg>