<?xml version="1.0" encoding="UTF-8" standalone="no"?>
<svg width="63px" height="71px" viewBox="0 0 63 71" version="1.1" xmlns="http://www.w3.org/2000/svg" xmlns:xlink="http://www.w3.org/1999/xlink">
    <!-- Generator: Sketch 42 (36781) - http://www.bohemiancoding.com/sketch -->
    <title>Combined Shape</title>
    <desc>Created with Sketch.</desc>
    <defs></defs>
    <g id="06-MAP" stroke="none" stroke-width="1" fill="none" fill-rule="evenodd">
        <g id="Hazard-icons" transform="translate(-40.000000, -339.000000)" fill="#FFFFFF">
            <path d="M40.322,345.3351 C44.303,342.3111 57.665,339.1571 71.619,339.1571 C86.989,339.1571 100.335,341.9651 102.915,345.3351 C100.694,349.1761 80.312,351.5081 71.619,351.5081 C62.925,351.5081 42.195,349.7781 40.322,345.3351 Z M102.9153,349.9269 C101.8273,361.2029 85.2443,364.0989 90.3963,371.3219 C94.3293,376.8179 92.7273,380.3039 79.9653,386.2959 C55.0903,397.9619 77.3443,399.7499 69.5323,409.8279 C70.5633,408.1979 71.3263,404.2099 63.2723,401.2719 C50.4163,396.5659 65.3603,382.0169 65.3603,382.0169 C65.3603,382.0169 72.8803,373.9209 59.1003,369.1819 C39.2133,362.3359 40.2893,350.0599 40.3223,349.9269 C43.8523,354.9849 56.1813,356.0879 71.6183,356.3469 C85.3253,356.1139 97.9953,353.8889 102.9153,349.9269 Z" id="Combined-Shape"></path>
        </g>
    </g>
</svg>