<?xml version="1.0" encoding="UTF-8"?>
<svg width="15px" height="15px" viewBox="0 0 15 15" version="1.1" xmlns="http://www.w3.org/2000/svg" xmlns:xlink="http://www.w3.org/1999/xlink">
    <!-- Generator: Sketch 43.2 (39069) - http://www.bohemiancoding.com/sketch -->
    <title>violent_wind</title>
    <desc>Created with Sketch.</desc>
    <defs></defs>
    <g id="Hazard-icons" stroke="none" stroke-width="1" fill="none" fill-rule="evenodd">
        <g id="Artboard" transform="translate(-451.000000, -540.000000)" fill="#FFFFFF">
            <g id="Group-6" transform="translate(397.000000, 522.000000)">
                <g id="Layer_1" transform="translate(46.000000, 10.000000)">
                    <path d="M11.147,9.629 C11.377,9.197 11.682,8.822 11.932,8.629 L12.259,8.568 C12.278,8.785 12.104,9.393 11.696,10.129 C11.153,11.106 10.735,11.481 10.585,11.5 L10.545,11.449 C10.496,11.234 10.68,10.508 11.147,9.629 M10.716,9.4 C10.567,9.68 10.251,10.326 10.121,10.906 L8.805,9.223 L11.113,8.785 C10.899,9.07 10.75,9.338 10.716,9.4 M22.17,10.736 C21.735,10.777 19.904,10.438 19.239,10.248 C18.574,10.059 17.983,8.891 16.795,9.272 C15.608,9.65 14.671,8.781 13.864,8.781 C13.304,8.781 13.01,8.641 12.749,8.49 C12.731,8.311 12.664,8.166 12.52,8.082 C12.426,8.027 12.324,8 12.214,8 C12.049,8 11.886,8.07 11.732,8.17 L8.489,8.785 L8.489,8.781 L8,8.781 L8,23 L8.489,23 L8.489,9.611 L10.129,11.709 C10.144,11.74 10.171,11.762 10.191,11.789 L10.251,11.865 L10.257,11.858 C10.282,11.881 10.293,11.91 10.324,11.928 C10.4,11.971 10.483,11.992 10.571,11.992 L10.572,11.992 C10.668,11.992 10.769,11.955 10.874,11.9 C11.359,12.068 12.075,12.236 12.397,12.203 C12.849,12.154 13.484,12.383 13.864,12.692 C14.244,13 15.927,12.596 16.307,12.692 C16.687,12.787 17.81,13.455 18.262,13.668 C18.712,13.883 20.467,13.74 20.706,13.668 C20.943,13.598 21.831,11.942 21.95,11.715 C22.069,11.488 22.432,10.713 22.17,10.736" id="violent_wind"></path>
                </g>
            </g>
        </g>
    </g>
</svg>