<?xml version="1.0" encoding="UTF-8" standalone="no"?>
<svg width="68px" height="66px" viewBox="0 0 68 66" version="1.1" xmlns="http://www.w3.org/2000/svg" xmlns:xlink="http://www.w3.org/1999/xlink">
    <!-- Generator: Sketch 42 (36781) - http://www.bohemiancoding.com/sketch -->
    <title>Combined Shape</title>
    <desc>Created with Sketch.</desc>
    <defs></defs>
    <g id="06-MAP" stroke="none" stroke-width="1" fill="none" fill-rule="evenodd">
        <g id="Hazard-icons" transform="translate(-414.000000, -182.000000)" fill="#FFFFFF">
            <path d="M453.6712,200.7897 C449.4022,199.3277 447.9922,203.0107 450.0422,206.1877 C451.7982,208.9177 451.8572,211.5947 451.8572,211.5947 L444.5632,211.5947 C444.5632,211.5947 447.2072,206.8987 444.6042,202.5877 C441.6662,197.7267 445.2072,193.7807 450.0422,195.3817 C454.8772,196.9797 455.9932,194.7417 457.2912,191.7777 C460.0222,185.6077 463.1392,182.6227 469.9862,182.7707 C476.7522,182.9187 480.8152,192.9687 475.4292,193.5807 C472.4542,193.9177 465.4732,191.9917 464.5442,197.1857 C463.3662,203.8767 457.8372,202.2057 453.6712,200.7897 Z M414.0198,247.0441 C433.0998,233.3921 437.8668,214.5301 437.8668,214.5301 L457.4758,214.5301 C457.4758,214.5301 462.2428,233.3921 481.3238,247.0441 L414.0198,247.0441 Z" id="Combined-Shape"></path>
        </g>
    </g>
</svg>