<?xml version="1.0" encoding="UTF-8"?>
<svg width="16px" height="15px" viewBox="0 0 16 15" version="1.1" xmlns="http://www.w3.org/2000/svg" xmlns:xlink="http://www.w3.org/1999/xlink">
    <!-- Generator: Sketch 43.2 (39069) - http://www.bohemiancoding.com/sketch -->
    <title>volcano</title>
    <desc>Created with Sketch.</desc>
    <defs></defs>
    <g id="Hazard-icons" stroke="none" stroke-width="1" fill="none" fill-rule="evenodd">
        <g id="Artboard" transform="translate(-449.000000, -595.000000)" fill="#FFFFFF">
            <g id="Group-6" transform="translate(397.000000, 578.000000)">
                <g id="Layer_1" transform="translate(46.000000, 10.000000)">
                    <path d="M6,21.9484 C10.434,18.7164 11.541,14.2504 11.541,14.2504 L16.098,14.2504 C16.098,14.2504 17.205,18.7164 21.639,21.9484 L6,21.9484 Z M15.132,11.2874 C16.116,11.6244 17.423,12.0214 17.701,10.4294 C17.921,9.1944 19.57,9.6524 20.273,9.5724 C21.546,9.4274 20.586,7.0364 18.987,7.0014 C17.369,6.9664 16.633,7.6764 15.987,9.1434 C15.681,9.8484 15.417,10.3814 14.274,10.0014 C13.132,9.6204 12.295,10.5584 12.989,11.7154 C13.604,12.7404 12.979,13.8574 12.979,13.8574 L14.703,13.8574 C14.703,13.8574 14.689,13.2204 14.274,12.5714 C13.79,11.8154 14.123,10.9394 15.132,11.2874 L15.132,11.2874 Z" id="volcano"></path>
                </g>
            </g>
        </g>
    </g>
</svg>