<?xml version="1.0" encoding="UTF-8" standalone="no"?>
<svg width="35px" height="34px" viewBox="0 0 35 34" version="1.1" xmlns="http://www.w3.org/2000/svg" xmlns:xlink="http://www.w3.org/1999/xlink">
    <!-- Generator: Sketch 42 (36781) - http://www.bohemiancoding.com/sketch -->
    <title>cross</title>
    <desc>Created with Sketch.</desc>
    <defs></defs>
    <g id="01-Dashboard-(START-HERE)" stroke="none" stroke-width="1" fill="none" fill-rule="evenodd">
        <g id="Home" transform="translate(-663.000000, -190.000000)" fill="#FFFFFF">
            <g id="Country-Overview" transform="translate(15.000000, 137.000000)">
                <g id="grey-cross" transform="translate(624.000000, 28.000000)">
                    <path d="M46.5374644,42.1821109 L57.3110691,31.423226 C58.7829996,29.9532471 58.7824252,27.5708148 57.3097287,26.1016004 C55.8374152,24.6321948 53.450387,24.6329593 51.9784565,26.1029383 L41.207341,36.8593384 L30.4362256,26.1029383 C28.964295,24.6329593 26.5772668,24.6325771 25.1047618,26.1016004 C23.6322568,27.5708148 23.6316824,29.9534382 25.1034214,31.423226 L35.8772176,42.1821109 L25.4680052,52.5768936 C23.9962662,54.0468725 23.9968406,56.429496 25.4693456,57.8985192 C26.2054066,58.6330309 27.169907,59 28.1344073,59 C29.0994821,59 30.0645569,58.6324575 30.8008094,57.8971813 L41.207341,47.5048833 L51.6138726,57.8971813 C52.3501251,58.6324575 53.3151999,59 54.2802747,59 C55.244775,59 56.2092754,58.6328397 56.9453364,57.8985192 C58.4180329,56.429496 58.4184158,54.0468725 56.9466768,52.5768936 L46.5374644,42.1821109 Z" id="cross"></path>
                </g>
            </g>
        </g>
    </g>
</svg>