<?xml version="1.0" encoding="UTF-8"?>
<svg width="98px" height="75px" viewBox="0 0 98 75" version="1.1" xmlns="http://www.w3.org/2000/svg" xmlns:xlink="http://www.w3.org/1999/xlink">
    <!-- Generator: Sketch 43.2 (39069) - http://www.bohemiancoding.com/sketch -->
    <title>AF</title>
    <desc>Created with Sketch.</desc>
    <defs></defs>
    <g id="Map-countries" stroke="none" stroke-width="1" fill="none" fill-rule="evenodd">
        <g id="Artboard" transform="translate(-1715.000000, -973.000000)" stroke-width="0.5" stroke="#FFFFFF" fill="#B1B2B3">
            <polygon id="AF" points="1720.24732 997.634869 1726.99962 1000.70415 1731.98121 999.618095 1733.37417 995.958571 1738.59185 994.73086 1742.32215 992.251828 1743.64427 985.664685 1749.2161 984.059217 1750.25492 981.107988 1753.39497 983.327312 1755.37817 983.58702 1759.06124 983.657849 1764.06644 985.404977 1766.07324 986.39659 1770.86596 983.752289 1773.10885 985.334147 1775.2337 981.556575 1779.20009 981.721843 1780.21529 980.494132 1780.92358 977.117926 1783.78032 974.213917 1787.34534 976.102704 1786.63706 978.676175 1788.64386 979.077542 1788.00641 986.042442 1790.62706 988.757573 1792.94078 987.010445 1795.89196 986.207711 1800 982.500968 1804.55662 983.114823 1811.40336 983.114823 1812.58383 985.499416 1808.71189 986.4202 1805.35935 987.954839 1797.75711 988.899232 1790.65067 990.62275 1786.77872 994.187834 1788.33694 997.634869 1789.11605 1001.64854 1785.81073 1005.02475 1786.09404 1008.09402 1784.27612 1010.97442 1777.9724 1010.71472 1780.56944 1015.9561 1776.36696 1017.96293 1773.55743 1022.6849 1773.91157 1027.35965 1771.31454 1029.53175 1768.88276 1028.82346 1763.80673 1029.83868 1763.09845 1031.98717 1758.16408 1031.98717 1754.48101 1036.33138 1754.24491 1042.82409 1745.62747 1045.96419 1741.02363 1045.30312 1739.67789 1046.95581 1735.73511 1046.01141 1729.10086 1047.14469 1718.02803 1043.27267 1724.02483 1036.35499 1723.48181 1031.39693 1718.47661 1030.09839 1717.95721 1025.16393 1715.78514 1018.93094 1718.61827 1014.61034 1715.73792 1013.45346 1717.55585 1007.66905"></polygon>
        </g>
    </g>
</svg>