<?xml version="1.0" encoding="utf-8"?>
<!-- Generator: Adobe Illustrator 21.1.0, SVG Export Plug-In . SVG Version: 6.00 Build 0)  -->
<svg version="1.1" id="Layer_1" xmlns="http://www.w3.org/2000/svg" xmlns:xlink="http://www.w3.org/1999/xlink" x="0px" y="0px"
	 viewBox="0 0 98 98" style="enable-background:new 0 0 98 98;" xml:space="preserve">
<style type="text/css">
	.st0{fill:#B1B2B3;stroke:#FFFFFF;stroke-width:0.5;}
</style>
<title>AF</title>
<desc>Created with Sketch.</desc>
<g id="Map-countries">
	<g id="Artboard" transform="translate(-1715.000000, -973.000000)">
		<polygon id="AF" class="st0" points="1720.2,1009.1 1727,1012.2 1732,1011.1 1733.4,1007.5 1738.6,1006.2 1742.3,1003.8 
			1743.6,997.2 1749.2,995.6 1750.3,992.6 1753.4,994.8 1755.4,995.1 1759.1,995.2 1764.1,996.9 1766.1,997.9 1770.9,995.3 
			1773.1,996.8 1775.2,993.1 1779.2,993.2 1780.2,992 1780.9,988.6 1783.8,985.7 1787.3,987.6 1786.6,990.2 1788.6,990.6 
			1788,997.5 1790.6,1000.3 1792.9,998.5 1795.9,997.7 1800,994 1804.6,994.6 1811.4,994.6 1812.6,997 1808.7,997.9 1805.4,999.5 
			1797.8,1000.4 1790.7,1002.1 1786.8,1005.7 1788.3,1009.1 1789.1,1013.1 1785.8,1016.5 1786.1,1019.6 1784.3,1022.5 1778,1022.2 
			1780.6,1027.5 1776.4,1029.5 1773.6,1034.2 1773.9,1038.9 1771.3,1041 1768.9,1040.3 1763.8,1041.3 1763.1,1043.5 1758.2,1043.5 
			1754.5,1047.8 1754.2,1054.3 1745.6,1057.5 1741,1056.8 1739.7,1058.5 1735.7,1057.5 1729.1,1058.6 1718,1054.8 1724,1047.9 
			1723.5,1042.9 1718.5,1041.6 1718,1036.7 1715.8,1030.4 1718.6,1026.1 1715.7,1025 1717.6,1019.2 		"/>
	</g>
</g>
</svg>
