<?xml version="1.0" encoding="UTF-8"?>
<svg width="84px" height="92px" viewBox="0 0 84 92" version="1.1" xmlns="http://www.w3.org/2000/svg" xmlns:xlink="http://www.w3.org/1999/xlink">
    <!-- Generator: Sketch 43.2 (39069) - http://www.bohemiancoding.com/sketch -->
    <title>AO</title>
    <desc>Created with Sketch.</desc>
    <defs></defs>
    <g id="Map-countries" stroke="none" stroke-width="1" fill="none" fill-rule="evenodd">
        <g id="Artboard" transform="translate(-1391.000000, -1278.000000)" stroke="#FFFFFF" stroke-width="0.5" fill="#B1B2B3">
            <path d="M1423.12255,1287.75247 L1424.7516,1292.68693 L1426.64035,1296.65338 L1428.15136,1298.80187 L1430.67757,1302.27252 L1435.04531,1301.72949 L1437.24099,1300.7851 L1440.90045,1301.72949 L1441.89205,1300.0768 L1443.54471,1296.20479 L1447.65275,1295.94508 L1448.00689,1294.7882 L1451.38304,1294.76459 L1450.81642,1297.14919 L1458.84362,1297.10197 L1458.96167,1301.28091 L1460.30741,1303.85438 L1459.33942,1307.86805 L1459.83522,1311.97616 L1462.05451,1314.45519 L1461.70037,1322.41171 L1463.32942,1321.79785 L1466.20977,1321.96312 L1470.31781,1320.97151 L1473.33982,1321.37287 L1474.0481,1323.45054 L1473.2926,1326.70869 L1474.44946,1329.87241 L1473.45787,1332.39866 L1474.02449,1334.73604 L1460.23658,1334.6416 L1459.92966,1356.2682 L1464.39184,1361.88734 L1468.71237,1366.18433 L1456.55351,1368.9939 L1440.5227,1368.0259 L1435.94247,1364.72052 L1409.09854,1365.02745 L1408.10694,1365.52326 L1404.16417,1362.40676 L1399.86725,1362.19427 L1395.90086,1363.37476 L1392.71359,1364.69691 L1392.09974,1360.37631 L1393.02051,1354.35581 L1395.31063,1348.0992 L1395.66477,1345.17158 L1397.81323,1339.05664 L1399.39506,1336.29429 L1403.19618,1331.87925 L1405.32103,1328.8808 L1406.0057,1323.89912 L1405.65156,1320.09794 L1403.66837,1317.71335 L1401.89766,1313.65246 L1400.26861,1309.6624 L1400.62275,1308.26942 L1402.65316,1305.62512 L1400.64636,1299.20324 L1399.30062,1294.76459 L1395.9953,1290.58565 L1396.63276,1289.31072 L1399.37145,1288.41355 L1401.28382,1288.5316 L1403.59754,1287.72886 L1423.12255,1287.75247 L1423.12255,1287.75247 Z M1397.36465,1286.47754 L1395.68838,1287.18584 L1393.91767,1282.22777 L1396.58554,1279.37098 L1398.59234,1278.26132 L1401.07133,1280.52786 L1398.66317,1281.92084 L1397.57713,1283.62075 L1397.36465,1286.47754 L1397.36465,1286.47754 Z" id="AO"></path>
        </g>
    </g>
</svg>