<?xml version="1.0" encoding="utf-8"?>
<!-- Generator: Adobe Illustrator 21.1.0, SVG Export Plug-In . SVG Version: 6.00 Build 0)  -->
<svg version="1.1" id="Layer_1" xmlns="http://www.w3.org/2000/svg" xmlns:xlink="http://www.w3.org/1999/xlink" x="0px" y="0px"
	 viewBox="0 0 92 92" style="enable-background:new 0 0 92 92;" xml:space="preserve">
<style type="text/css">
	.st0{fill:#B1B2B3;stroke:#FFFFFF;stroke-width:0.5;}
</style>
<title>AO</title>
<desc>Created with Sketch.</desc>
<g id="Map-countries">
	<g id="Artboard" transform="translate(-1391.000000, -1278.000000)">
		<path id="AO" class="st0" d="M1427.1,1287.8l1.6,4.9l1.9,4l1.5,2.1l2.5,3.5l4.4-0.5l2.2-0.9l3.7,0.9l1-1.7l1.7-3.9l4.1-0.3
			l0.4-1.2l3.4,0l-0.6,2.4l8,0l0.1,4.2l1.3,2.6l-1,4l0.5,4.1l2.2,2.5l-0.4,8l1.6-0.6l2.9,0.2l4.1-1l3,0.4l0.7,2.1l-0.8,3.3l1.2,3.2
			l-1,2.5l0.6,2.3l-13.8-0.1l-0.3,21.6l4.5,5.6l4.3,4.3l-12.2,2.8l-16-1l-4.6-3.3l-26.8,0.3l-1,0.5l-3.9-3.1l-4.3-0.2l-4,1.2
			l-3.2,1.3l-0.6-4.3l0.9-6l2.3-6.3l0.4-2.9l2.1-6.1l1.6-2.8l3.8-4.4l2.1-3l0.7-5l-0.4-3.8l-2-2.4l-1.8-4.1l-1.6-4l0.4-1.4l2-2.6
			l-2-6.4l-1.3-4.4l-3.3-4.2l0.6-1.3l2.7-0.9l1.9,0.1l2.3-0.8L1427.1,1287.8L1427.1,1287.8z M1401.4,1286.5l-1.7,0.7l-1.8-5l2.7-2.9
			l2-1.1l2.5,2.3l-2.4,1.4l-1.1,1.7L1401.4,1286.5L1401.4,1286.5z"/>
	</g>
</g>
</svg>
