<?xml version="1.0" encoding="UTF-8"?>
<svg width="133px" height="292px" viewBox="0 0 133 292" version="1.1" xmlns="http://www.w3.org/2000/svg" xmlns:xlink="http://www.w3.org/1999/xlink">
    <!-- Generator: Sketch 43.2 (39069) - http://www.bohemiancoding.com/sketch -->
    <title>AR</title>
    <desc>Created with Sketch.</desc>
    <defs></defs>
    <g id="Map-countries" stroke="none" stroke-width="1" fill="none" fill-rule="evenodd">
        <g id="Artboard" transform="translate(-828.000000, -1396.000000)" stroke="#FFFFFF" stroke-width="0.5" fill="#B1B2B3">
            <path d="M881.45121,1687.06555 L875.1711,1687.65579 L871.79495,1683.57129 L867.804955,1683.26436 L860.722124,1683.26436 L860.722124,1658.30877 L863.271943,1663.38488 L866.577265,1671.71916 L875.194709,1678.49518 L884.473218,1681.35197 L881.45121,1687.06555 L881.45121,1687.06555 Z M884.992626,1397.98677 L888.888183,1403.13372 L891.461612,1397.39653 L899.016632,1397.67985 L900.079057,1399.19088 L912.237917,1410.85413 L917.644479,1411.94018 L925.742516,1417.27601 L932.565644,1420.10919 L933.510021,1423.32012 L926.993816,1434.48757 L933.675287,1436.49441 L941.11226,1437.62768 L946.353555,1436.44719 L952.350353,1430.78083 L953.436387,1424.31174 L956.718099,1422.91876 L960.047029,1427.14492 L959.905373,1433.02376 L954.333545,1437.10826 L949.894971,1440.13032 L942.434389,1447.40215 L933.604459,1457.71965 L931.951798,1463.83459 L930.18109,1471.79111 L930.251919,1479.58235 L928.811743,1481.32948 L928.292335,1486.45281 L927.843756,1490.60814 L936.248716,1497.4786 L935.351557,1503.07413 L939.483209,1506.63922 L939.152677,1510.65289 L932.801738,1521.32453 L922.980212,1525.83401 L909.711708,1527.60475 L902.440001,1526.75479 L903.832958,1531.83091 L902.48722,1538.25278 L903.71491,1542.6206 L899.748525,1545.68988 L892.972616,1546.89398 L886.598068,1543.70665 L884.048249,1545.9968 L884.969017,1554.75605 L889.4312,1557.44757 L893.067054,1554.638 L895.050247,1559.26553 L888.959012,1562.05149 L883.646888,1567.67063 L882.678901,1576.90207 L881.120678,1581.88375 L874.864177,1581.90736 L869.670101,1586.72376 L867.781346,1593.83032 L874.297551,1600.86605 L880.62488,1602.82567 L878.358374,1611.63214 L870.54365,1617.25127 L866.246732,1629.12702 L860.202716,1633.18791 L857.487631,1638.05154 L859.63609,1649.0065 L864.051055,1655.21588 L861.265141,1654.67286 L855.126687,1652.99656 L839.119488,1651.55636 L836.380793,1645.34697 L836.498841,1637.4849 L832.083876,1638.14598 L829.746541,1634.3684 L829.156305,1623.50788 L834.232335,1619.06923 L836.333575,1612.7418 L835.554463,1607.76012 L839.072269,1599.44946 L841.480432,1586.8182 L840.772149,1581.31711 L843.6525,1579.54637 L842.944217,1576.05212 L839.87499,1574.21055 L842.047058,1570.36215 L839.04866,1566.91512 L837.514046,1556.52679 L840.181913,1554.70883 L839.072269,1543.98997 L840.630492,1535.13628 L842.4012,1527.53392 L846.367586,1524.46464 L844.360783,1516.29564 L844.337174,1508.69327 L849.342375,1503.35745 L849.200718,1496.58143 L852.978228,1488.76657 L853.001838,1481.47114 L851.278349,1480.03094 L848.232731,1466.59694 L852.317164,1458.71126 L851.679709,1451.3686 L854.040653,1444.52175 L858.38479,1437.53324 L863.059458,1432.92932 L861.076265,1430.02531 L862.469222,1427.66433 L862.256737,1415.52888 L869.457616,1411.96379 L871.724122,1404.50309 L870.921401,1402.70874 L876.44601,1396.28687 L884.992626,1397.98677 L884.992626,1397.98677 Z" id="AR"></path>
        </g>
    </g>
</svg>