<?xml version="1.0" encoding="utf-8"?>
<!-- Generator: Adobe Illustrator 21.1.0, SVG Export Plug-In . SVG Version: 6.00 Build 0)  -->
<svg version="1.1" id="Layer_1" xmlns="http://www.w3.org/2000/svg" xmlns:xlink="http://www.w3.org/1999/xlink" x="0px" y="0px"
	 viewBox="0 0 292 292" style="enable-background:new 0 0 292 292;" xml:space="preserve">
<style type="text/css">
	.st0{fill:#B1B2B3;stroke:#FFFFFF;stroke-width:0.5;}
</style>
<title>AR</title>
<desc>Created with Sketch.</desc>
<g id="Map-countries">
	<g id="Artboard" transform="translate(-828.000000, -1396.000000)">
		<path id="AR" class="st0" d="M961,1687.1l-6.3,0.6l-3.4-4.1l-4-0.3h-7.1v-25l2.5,5.1l3.3,8.3l8.6,6.8l9.3,2.9L961,1687.1
			L961,1687.1z M964.5,1398l3.9,5.1l2.6-5.7l7.6,0.3l1.1,1.5l12.2,11.7l5.4,1.1l8.1,5.3l6.8,2.8l0.9,3.2l-6.5,11.2l6.7,2l7.4,1.1
			l5.2-1.2l6-5.7l1.1-6.5l3.3-1.4l3.3,4.2l-0.1,5.9l-5.6,4.1l-4.4,3l-7.5,7.3l-8.8,10.3l-1.7,6.1l-1.8,8l0.1,7.8l-1.4,1.7l-0.5,5.1
			l-0.4,4.2l8.4,6.9l-0.9,5.6l4.1,3.6l-0.3,4l-6.4,10.7l-9.8,4.5l-13.3,1.8l-7.3-0.8l1.4,5.1l-1.3,6.4l1.2,4.4l-4,3.1l-6.8,1.2
			l-6.4-3.2l-2.5,2.3l0.9,8.8l4.5,2.7l3.6-2.8l2,4.6l-6.1,2.8l-5.3,5.6l-1,9.2l-1.6,5l-6.3,0l-5.2,4.8l-1.9,7.1l6.5,7l6.3,2
			l-2.3,8.8l-7.8,5.6l-4.3,11.9l-6,4.1l-2.7,4.9l2.1,11l4.4,6.2l-2.8-0.5l-6.1-1.7l-16-1.4l-2.7-6.2l0.1-7.9l-4.4,0.7l-2.3-3.8
			l-0.6-10.9l5.1-4.4l2.1-6.3l-0.8-5l3.5-8.3l2.4-12.6l-0.7-5.5l2.9-1.8l-0.7-3.5l-3.1-1.8l2.2-3.8l-3-3.4l-1.5-10.4l2.7-1.8
			l-1.1-10.7l1.6-8.9l1.8-7.6l4-3.1l-2-8.2l0-7.6l5-5.3l-0.1-6.8l3.8-7.8l0-7.3l-1.7-1.4l-3-13.4l4.1-7.9l-0.6-7.3l2.4-6.8l4.3-7
			l4.7-4.6l-2-2.9l1.4-2.4l-0.2-12.1l7.2-3.6l2.3-7.5l-0.8-1.8l5.5-6.4L964.5,1398L964.5,1398z"/>
	</g>
</g>
</svg>
