<?xml version="1.0" encoding="utf-8"?>
<!-- Generator: Adobe Illustrator 21.1.0, SVG Export Plug-In . SVG Version: 6.00 Build 0)  -->
<svg version="1.1" id="Layer_1" xmlns="http://www.w3.org/2000/svg" xmlns:xlink="http://www.w3.org/1999/xlink" x="0px" y="0px"
	 viewBox="0 0 51 51" style="enable-background:new 0 0 51 51;" xml:space="preserve">
<style type="text/css">
	.st0{fill:#B1B2B3;stroke:#FFFFFF;stroke-width:0.5;}
</style>
<title>AT</title>
<desc>Created with Sketch.</desc>
<g id="Map-countries">
	<g id="Artboard" transform="translate(-1377.000000, -877.000000)">
		<polygon id="AT" class="st0" points="1427.4,898.6 1426.9,902.6 1423.2,902.6 1424.5,904.7 1422.3,911 1421,912.6 1415.3,912.8 
			1411.9,915 1406.4,914.3 1397,911.8 1395.5,908.4 1389,910.1 1388.2,911.9 1384.2,910.6 1380.8,910.3 1377.8,908.6 1378.8,906.2 
			1378.5,904.4 1380.6,903.9 1383.9,906.6 1384.9,904 1390.7,904.5 1395.4,902.7 1398.6,903 1400.6,905 1401.3,903.3 1400.3,896.9 
			1402.7,895.6 1405,891 1410,894.3 1413.7,890.2 1416,889.4 1421.2,892.5 1424.3,892 1427.3,893.9 1426.8,895.1 		"/>
	</g>
</g>
</svg>
