<?xml version="1.0" encoding="utf-8"?>
<!-- Generator: Adobe Illustrator 21.1.0, SVG Export Plug-In . SVG Version: 6.00 Build 0)  -->
<svg version="1.1" id="Layer_1" xmlns="http://www.w3.org/2000/svg" xmlns:xlink="http://www.w3.org/1999/xlink" x="0px" y="0px"
	 viewBox="0 0 267 267" style="enable-background:new 0 0 267 267;" xml:space="preserve">
<style type="text/css">
	.st0{fill:#B1B2B3;stroke:#FFFFFF;stroke-width:0.5;}
</style>
<title>AU</title>
<desc>Created with Sketch.</desc>
<g id="Map-countries">
	<g id="Artboard" transform="translate(-2065.000000, -1319.000000)">
		<path id="AU" class="st0" d="M2277.5,1551.6l6.4,3l3.6-1.2l5.2-1.7l4,0.6l0.5,10.5l-2.3,3.1l-0.7,7.2l-2.3-2.5l-4.6,6.3l-1.4-0.5
			l-4.1-0.3l-4.1-7.7l-0.9-5.9l-3.8-7.7l0.2-4L2277.5,1551.6L2277.5,1551.6z M2265.4,1348.4l2.4,5.3l4.2-2.5l2.2,2.9l3.2,2.7l-0.7,3
			l1.4,5.9l1,3.4l1.7,0.8l1.8,5.9l-0.6,3.6l2.1,4.7l7.2,3.6l4.7,3.3l4.4,3l-0.9,1.7l3.8,4.4l2.6,7.7l2.6-1.6l2.7,3.1l1.6-1.1
			l1.1,7.6l4.7,4.4l3.1,2.8l5.2,5.9l1.9,5.9l0.2,4.2l-0.4,4.6l3.2,6.3l-0.4,6.6l-1.2,3.5l-1.8,6.8l0.1,4.4l-1.3,5.5l-2.9,7.1
			l-4.9,3.8l-2.4,6.1l-2.2,3.9l-2,6.9l-2.5,4l-1.7,6.1l-0.9,5.7l0.3,2.6l-3.8,2.9l-7.4,0.3l-6.1,3.4l-3,3.3l-4,3.6l-5.5-3.7
			l-4.1-1.5l1-4.4l-3.6,1.6l-5.8,6.1l-5.7-2.3l-3.8-1.3l-3.8-0.6l-6.4-2.4l-4.3-5.1l-1.2-6.3l-1.5-4.1l-3.3-3.3l-6.4-1l2.2-3.9
			l-1.6-5.9l-3.2,5.5l-5.9,1.5l3.5-4.4l1-4.6l2.5-3.9l-0.5-5.8l-5.4,6.7l-4.1,2.7l-2.5,6.4l-5.2-3.3l0.2-4.2l-4.1-5.7l-3.5-3
			l1.3-1.8l-8.5-4.7l-4.7-0.2l-6.4-3.8l-11.9,0.7l-8.6,2.8l-7.5,2.6l-6.3-0.5l-7,4l-5.7,1.8l-1.3,4.1l-2.5,3.2l-5.6,0.2l-4.2,0.7
			l-5.9-1.4l-4.8,0.9l-4.5,0.4l-3.9,4.2l-1.9-0.4l-3.3,2.3l-3.2,2.5l-4.8-0.3h-4.4l-7-5.1l-3.6-1.5l0.1-4.6l3.3-1.1l1.1-1.8
			l-0.2-2.8l0.8-5.4l-0.7-4.6l-3.5-7.8l-1.1-4.4l0.3-4.3l-2.6-4.9l-0.2-2.2l-2.9-3l-0.8-5.8l-3.8-5.9l-0.9-3.1l2.9,3.2l-2.2-6.8
			l3.3,2.1l2,2.8l-0.1-3.8l-3.3-5.7l-0.6-2.3l-1.5-2.2l0.7-4.2l1.3-1.8l0.9-3.6l-0.7-4.2l2.7-5.1l0.5,5.4l2.8-4.9l5.4-2.4l3.2-3
			l5.1-2.6l3-0.5l1.8,0.9l5.2-2.6l4-0.8l1-1.5l1.7-0.6l3.7,0.2l7-2.1l3.6-3.1l1.7-3.7l3.9-3.5l0.3-2.8l0.2-3.8l4.6-5.8l2.8,5.9
			l2.8-1.4l-2.4-3.3l2.1-3.3l2.9,1.5l0.8-5.2l3.6-3.4l1.6-2.7l3.3-1.2l0.1-1.9l2.9,0.8l0.1-1.7l2.9-1l3.2-0.9l4.9,3.1l3.7,4l4.1,0
			l4.2,0.6l-1.4-3.7l3.2-5.4l3-1.8l-1-1.7l2.9-3.8l4-2.4l3.4,0.8l5.6-1.3l-0.1-3.4l-4.8-2.2l3.5-1l4.4,1.7l3.5,2.8l5.6,1.7l1.9-0.7
			l4.1,2.1l3.9-1.9l2.5,0.6l1.6-1.3l3,3.3l-1.8,3.6l-2.5,2.7l-2.3,0.2l0.8,2.7l-1.9,3.4l-2.4,3.3l0.5,1.9l5.3,3.8l5.1,2.2l3.4,2.4
			l4.8,4.1h1.9l3.5,1.8l1,2.1l6.3,2.3l4.4-2.4l1.3-3.7l1.3-3l0.8-3.8l2-5.4l-0.9-3.3l0.5-2l-0.8-3.9l0.9-5.1l1.3-1.4l-1-2.2l1.6-3.6
			l1.3-3.7l0.2-1.9l2.5-2.5l1.9,3.3l0.4,4.2l1.7,0.8l0.3,2.8l2.4,3.4l0.5,3.8L2265.4,1348.4L2265.4,1348.4z"/>
	</g>
</g>
</svg>
