<?xml version="1.0" encoding="UTF-8"?>
<svg width="267px" height="251px" viewBox="0 0 267 251" version="1.1" xmlns="http://www.w3.org/2000/svg" xmlns:xlink="http://www.w3.org/1999/xlink">
    <!-- Generator: Sketch 43.2 (39069) - http://www.bohemiancoding.com/sketch -->
    <title>AU</title>
    <desc>Created with Sketch.</desc>
    <defs></defs>
    <g id="Map-countries" stroke="none" stroke-width="1" fill="none" fill-rule="evenodd">
        <g id="Artboard" transform="translate(-2065.000000, -1319.000000)" stroke="#FFFFFF" stroke-width="0.5" fill="#B1B2B3">
            <path d="M2277.5481,1543.63582 L2283.94626,1546.65788 L2287.55851,1545.45378 L2292.72897,1543.77748 L2296.69536,1544.36773 L2297.16755,1554.82688 L2294.90104,1557.89616 L2294.21637,1565.12077 L2291.90264,1562.64174 L2287.2988,1568.94556 L2285.92945,1568.44975 L2281.86863,1568.16644 L2277.7842,1560.42241 L2276.88704,1554.51995 L2273.06231,1546.84676 L2273.22758,1542.83309 L2277.5481,1543.63582 L2277.5481,1543.63582 Z M2265.38924,1340.44962 L2267.7738,1345.76183 L2272.0235,1343.21197 L2274.21917,1346.09237 L2277.40645,1348.76028 L2276.72177,1351.78233 L2278.13834,1357.63757 L2279.15355,1361.061 L2280.82982,1361.88734 L2282.62413,1367.7898 L2281.98668,1371.37849 L2284.13514,1376.07685 L2291.31241,1379.71276 L2295.98708,1383.04175 L2300.42565,1386.08742 L2299.5521,1387.78733 L2303.32961,1392.20237 L2305.90304,1399.87556 L2308.5473,1398.31731 L2311.23877,1401.4102 L2312.86782,1400.32415 L2314.00108,1407.9029 L2318.69935,1412.31794 L2321.76858,1415.08029 L2326.93905,1420.95914 L2328.80419,1426.83799 L2328.96946,1431.01693 L2328.52088,1435.59724 L2331.68455,1441.92467 L2331.30679,1448.55903 L2330.14993,1452.05329 L2328.35561,1458.82931 L2328.49727,1463.22074 L2327.19875,1468.74544 L2324.27118,1475.82839 L2319.36042,1479.67679 L2316.95226,1485.79174 L2314.73297,1489.73458 L2312.77339,1496.65226 L2310.22357,1500.68954 L2308.5473,1506.78088 L2307.69736,1512.44724 L2308.02789,1515.06793 L2304.22677,1517.94833 L2296.81341,1518.25525 L2290.69856,1521.67868 L2287.65294,1524.93684 L2283.66295,1528.57275 L2278.18556,1524.8424 L2274.12474,1523.35498 L2275.16355,1518.98716 L2271.55131,1520.56902 L2265.74339,1526.66035 L2260.0299,1524.3702 L2256.276,1523.04805 L2252.49849,1522.4578 L2246.10033,1520.02599 L2241.82702,1514.87905 L2240.59933,1508.59883 L2239.06472,1504.46711 L2235.80662,1501.16174 L2229.43207,1500.19373 L2231.60414,1496.2745 L2229.9987,1490.32482 L2226.7642,1495.87313 L2220.86184,1497.36055 L2224.33243,1492.9219 L2225.32403,1488.31799 L2227.87385,1484.42237 L2227.35444,1478.59074 L2221.97149,1485.31954 L2217.83984,1488.03467 L2215.31363,1494.38571 L2210.14316,1491.08034 L2210.35564,1486.85418 L2206.22399,1481.11699 L2202.7298,1478.16576 L2203.9811,1476.3478 L2195.4817,1471.62584 L2190.83064,1471.41335 L2184.45609,1467.63578 L2172.60415,1468.36768 L2164.03393,1471.15364 L2156.50252,1473.75072 L2150.17519,1473.23131 L2143.16318,1477.24498 L2137.42609,1479.06293 L2136.15118,1483.19465 L2133.6958,1486.40559 L2128.07675,1486.59447 L2123.92149,1487.30276 L2118.06635,1485.86257 L2113.29724,1486.73613 L2108.76423,1487.09028 L2104.82146,1491.34005 L2102.88548,1490.9859 L2099.55655,1493.25244 L2096.36928,1495.8023 L2091.52934,1495.49538 L2087.09077,1495.49538 L2080.07877,1490.37204 L2076.51374,1488.86101 L2076.6554,1484.30432 L2079.93711,1483.21826 L2081.07036,1481.42392 L2080.83427,1478.59074 L2081.63699,1473.16048 L2080.9051,1468.55656 L2077.4109,1460.78892 L2076.32486,1456.42111 L2076.60818,1452.10051 L2073.96392,1447.18966 L2073.79865,1444.99395 L2070.87108,1442.01911 L2070.04475,1436.18748 L2066.26724,1430.33224 L2065.34648,1427.19214 L2068.25044,1430.37946 L2066.00754,1423.57983 L2069.28925,1425.70472 L2071.24884,1428.5379 L2071.13079,1424.78393 L2067.84908,1419.04674 L2067.21162,1416.75659 L2065.67701,1414.58449 L2066.38529,1410.40555 L2067.73103,1408.63481 L2068.62819,1405.04611 L2067.9199,1400.86717 L2070.6586,1395.74384 L2071.1544,1401.15049 L2073.94031,1396.26326 L2079.32326,1393.90227 L2082.55776,1390.88022 L2087.61018,1388.28313 L2090.60857,1387.74011 L2092.4265,1388.61367 L2097.64419,1385.99298 L2101.65779,1385.21386 L2102.64939,1383.67922 L2104.39649,1383.04175 L2108.05595,1383.20702 L2115.02073,1381.15296 L2118.60937,1378.06008 L2120.30925,1374.32972 L2124.1812,1370.81186 L2124.48812,1368.04951 L2124.65338,1364.29555 L2129.28083,1358.46392 L2132.06675,1364.38998 L2134.87627,1363.02061 L2132.51533,1359.76246 L2134.59296,1356.43347 L2137.52053,1357.92089 L2138.32325,1352.70312 L2141.93549,1349.35052 L2143.54093,1346.659 L2146.86987,1345.50212 L2146.9643,1343.61333 L2149.86826,1344.41607 L2149.98631,1342.71616 L2152.89027,1341.74816 L2156.10116,1340.82737 L2160.98831,1343.94387 L2164.67138,1347.98115 L2168.80303,1348.02837 L2173.00551,1348.66584 L2171.61256,1344.93548 L2174.77622,1339.50522 L2177.75101,1337.73449 L2176.71219,1336.05819 L2179.59255,1332.20978 L2183.60615,1329.82519 L2186.9823,1330.62793 L2192.55413,1329.353 L2192.43608,1325.92957 L2187.59615,1323.71025 L2191.11395,1322.74224 L2195.50531,1324.39493 L2199.02311,1327.15728 L2204.59494,1328.8808 L2206.4837,1328.19611 L2210.59174,1330.27378 L2214.46369,1328.33777 L2216.94268,1328.92802 L2218.5009,1327.62948 L2221.54652,1330.95846 L2219.77581,1334.57077 L2217.27321,1337.30951 L2215.0067,1337.54561 L2215.78581,1340.26074 L2213.84984,1343.63694 L2211.4889,1346.96593 L2211.96109,1348.87833 L2217.22599,1352.6559 L2222.32563,1354.85161 L2225.72539,1357.2126 L2230.5181,1361.27349 L2232.38325,1361.27349 L2235.85384,1363.04422 L2236.86904,1365.16911 L2243.19637,1367.50648 L2247.56412,1365.1455 L2248.86264,1361.43876 L2250.20838,1358.39309 L2251.03471,1354.63912 L2253.04151,1349.20886 L2252.12074,1345.9271 L2252.59293,1343.94387 L2251.83743,1340.07186 L2252.71098,1334.97214 L2253.98589,1333.60276 L2252.94707,1331.35983 L2254.55251,1327.79475 L2255.80381,1324.11161 L2255.96908,1322.19922 L2258.42446,1319.69657 L2260.28961,1322.97834 L2260.73818,1327.18089 L2262.39085,1327.98363 L2262.67416,1330.8168 L2265.08232,1334.24023 L2265.57812,1338.06502 L2265.38924,1340.44962 L2265.38924,1340.44962 Z" id="AU"></path>
        </g>
    </g>
</svg>