<?xml version="1.0" encoding="utf-8"?>
<!-- Generator: Adobe Illustrator 21.1.0, SVG Export Plug-In . SVG Version: 6.00 Build 0)  -->
<svg version="1.1" id="Layer_1" xmlns="http://www.w3.org/2000/svg" xmlns:xlink="http://www.w3.org/1999/xlink" x="0px" y="0px"
	 viewBox="0 0 38 38" style="enable-background:new 0 0 38 38;" xml:space="preserve">
<style type="text/css">
	.st0{fill:#B1B2B3;stroke:#FFFFFF;stroke-width:0.5;}
</style>
<title>AZ</title>
<desc>Created with Sketch.</desc>
<g id="Map-countries">
	<g id="Artboard" transform="translate(-1611.000000, -944.000000)">
		<path id="AZ" class="st0" d="M1612.9,966l2,2.3l2.9,0l0,1.3l2.7,4.9l-4.5-1.1l-3.4-3.9l-1-3.2L1612.9,966L1612.9,966z
			 M1628.6,953.2l2.9,0.6l1.1-2.2l3.9-3.6l3.5,4.7l3.4,6.2l3.1,0.4l2,2.3l-5.5,0.7l-1.2,6.7l-1.1,3l-2.4,2l0.2,4.2l-1.7,0.4
			l-4.1-4.4l2.3-4.2l-2-2.5l-2.5,0.6l-7.8,6.3l-0.1-5.9l-3-1.4l-2.8-2.3l1.9-2.7l-3.5-3l1.3-2.2l-2.5-1.5l-1.4-2.3l1.6-1.4l4.9,2.5
			l3.6,0.5l0.9-1l-3.3-4.8l1.7-1.2l1.9,0.3L1628.6,953.2L1628.6,953.2z"/>
	</g>
</g>
</svg>
