<?xml version="1.0" encoding="utf-8"?>
<!-- Generator: Adobe Illustrator 21.1.0, SVG Export Plug-In . SVG Version: 6.00 Build 0)  -->
<svg version="1.1" id="Layer_1" xmlns="http://www.w3.org/2000/svg" xmlns:xlink="http://www.w3.org/1999/xlink" x="0px" y="0px"
	 viewBox="0 0 43 43" style="enable-background:new 0 0 43 43;" xml:space="preserve">
<style type="text/css">
	.st0{fill:#B1B2B3;stroke:#FFFFFF;stroke-width:0.5;}
</style>
<title>BD</title>
<desc>Created with Sketch.</desc>
<g id="Map-countries">
	<g id="Artboard" transform="translate(-1897.000000, -1068.000000)">
		<polygon id="BD" class="st0" points="1934,1100.4 1933.9,1105.4 1931.6,1104.4 1932,1110 1930.1,1106.4 1929.7,1102.8 
			1928.5,1099.3 1925.7,1095.2 1919.6,1094.9 1920.2,1097.9 1918.1,1101.8 1915.3,1100.4 1914.3,1101.7 1912.5,1100.9 
			1909.9,1100.2 1908.9,1094.4 1906.6,1089 1907.7,1084.7 1903.6,1082.7 1905.1,1080.1 1909.2,1077.4 1904.5,1073.5 1906.8,1068.5 
			1912,1071.7 1915.2,1072.1 1915.8,1077.2 1922.1,1078.1 1928.2,1078 1932,1079.3 1929,1085.4 1926,1085.8 1924,1089.9 
			1927.6,1093.6 1928.7,1089.1 1930.5,1089 		"/>
	</g>
</g>
</svg>
