<?xml version="1.0" encoding="UTF-8"?>
<svg width="32px" height="43px" viewBox="0 0 32 43" version="1.1" xmlns="http://www.w3.org/2000/svg" xmlns:xlink="http://www.w3.org/1999/xlink">
    <!-- Generator: Sketch 43.2 (39069) - http://www.bohemiancoding.com/sketch -->
    <title>BD</title>
    <desc>Created with Sketch.</desc>
    <defs></defs>
    <g id="Map-countries" stroke="none" stroke-width="1" fill="none" fill-rule="evenodd">
        <g id="Artboard" transform="translate(-1897.000000, -1068.000000)" stroke-width="0.5" stroke="#FFFFFF" fill="#B1B2B3">
            <polygon id="BD" points="1928.50617 1100.36124 1928.38813 1105.43736 1926.0744 1104.35131 1926.49937 1110.04127 1924.61062 1106.35814 1924.23287 1102.76945 1922.95796 1099.34602 1920.19565 1095.19069 1914.10442 1094.90737 1914.71826 1097.8586 1912.64063 1101.80144 1909.8075 1100.36124 1908.83951 1101.65978 1906.97437 1100.88066 1904.42455 1100.2432 1903.38573 1094.38796 1901.09562 1089.00492 1902.20526 1084.66071 1898.14444 1082.7247 1899.60822 1080.0804 1903.73987 1077.36527 1898.97077 1073.51687 1901.3081 1068.53519 1906.5494 1071.69891 1909.71306 1072.07667 1910.3033 1077.15278 1916.58341 1078.14439 1922.74547 1078.02634 1926.54659 1079.27767 1923.50097 1085.39261 1920.52618 1085.81759 1918.49577 1089.90209 1922.10802 1093.63244 1923.19405 1089.05214 1925.03559 1089.02853"></polygon>
        </g>
    </g>
</svg>