<?xml version="1.0" encoding="utf-8"?>
<!-- Generator: Adobe Illustrator 21.1.0, SVG Export Plug-In . SVG Version: 6.00 Build 0)  -->
<svg version="1.1" id="Layer_1" xmlns="http://www.w3.org/2000/svg" xmlns:xlink="http://www.w3.org/1999/xlink" x="0px" y="0px"
	 viewBox="0 0 52 52" style="enable-background:new 0 0 52 52;" xml:space="preserve">
<style type="text/css">
	.st0{fill:#B1B2B3;stroke:#FFFFFF;stroke-width:0.5;}
</style>
<title>BF</title>
<desc>Created with Sketch.</desc>
<g id="Map-countries">
	<g id="Artboard" transform="translate(-1278.000000, -1148.000000)">
		<polygon id="BF" class="st0" points="1296.3,1192.3 1291.8,1190.6 1288.7,1190.9 1286.4,1192.5 1283.4,1191.1 1282.2,1188.9 
			1279.3,1187.5 1278.8,1183.6 1280.6,1180.7 1280.5,1178.5 1285.7,1172.9 1286.7,1168.3 1288.5,1166.6 1291.7,1167.5 
			1294.5,1166.1 1295.4,1164.4 1300.5,1161.4 1301.8,1159.3 1308,1156.4 1311.6,1155.5 1313.3,1156.8 1317.5,1156.7 1317,1160 
			1317.9,1163.1 1321.6,1167.5 1321.8,1170.8 1329.5,1172.3 1329.3,1176.9 1327.9,1179 1324.6,1179.6 1323.3,1182.5 1321,1183.3 
			1315.2,1183.1 1312.1,1182.6 1310,1183.7 1307.1,1183.2 1295.6,1183.5 1295.4,1187.3 		"/>
	</g>
</g>
</svg>
