<?xml version="1.0" encoding="UTF-8"?>
<svg width="52px" height="38px" viewBox="0 0 52 38" version="1.1" xmlns="http://www.w3.org/2000/svg" xmlns:xlink="http://www.w3.org/1999/xlink">
    <!-- Generator: Sketch 43.2 (39069) - http://www.bohemiancoding.com/sketch -->
    <title>BF</title>
    <desc>Created with Sketch.</desc>
    <defs></defs>
    <g id="Map-countries" stroke="none" stroke-width="1" fill="none" fill-rule="evenodd">
        <g id="Artboard" transform="translate(-1278.000000, -1148.000000)" stroke-width="0.5" stroke="#FFFFFF" fill="#B1B2B3">
            <polygon id="BF" points="1296.33986 1185.33303 1291.80685 1183.60951 1288.69041 1183.86922 1286.37668 1185.54551 1283.40189 1184.12892 1282.24503 1181.93321 1279.27024 1180.4694 1278.82166 1176.59739 1280.63959 1173.7406 1280.47432 1171.47406 1285.73923 1165.90214 1286.70721 1161.27461 1288.52514 1159.62192 1291.73602 1160.51909 1294.49833 1159.14972 1295.39549 1157.4026 1300.54234 1154.38054 1301.79364 1152.25565 1307.97932 1149.42247 1311.63878 1148.45447 1313.29144 1149.75301 1317.51753 1149.7294 1316.99812 1153.03478 1317.89528 1156.12767 1321.62557 1160.5427 1321.81445 1163.80086 1329.4639 1165.3355 1329.29864 1169.93942 1327.85846 1171.96986 1324.62397 1172.58372 1323.27823 1175.51134 1321.01173 1176.26685 1315.2038 1176.12519 1312.13458 1175.60578 1310.00973 1176.69183 1307.08216 1176.19602 1295.58436 1176.50295 1295.4191 1180.30413"></polygon>
        </g>
    </g>
</svg>