<?xml version="1.0" encoding="UTF-8"?>
<svg width="81px" height="91px" viewBox="0 0 81 91" version="1.1" xmlns="http://www.w3.org/2000/svg" xmlns:xlink="http://www.w3.org/1999/xlink">
    <!-- Generator: Sketch 43.2 (39069) - http://www.bohemiancoding.com/sketch -->
    <title>BO</title>
    <desc>Created with Sketch.</desc>
    <defs></defs>
    <g id="Map-countries" stroke="none" stroke-width="1" fill="none" fill-rule="evenodd">
        <g id="Artboard" transform="translate(-854.000000, -1313.000000)" stroke-width="0.5" stroke="#FFFFFF" fill="#B1B2B3">
            <polygon id="BO" points="899.016632 1397.70346 891.461612 1397.39653 888.888183 1403.13372 884.992626 1397.98677 876.327962 1396.26326 870.826963 1402.68513 866.034247 1403.65313 863.437209 1393.85505 859.895794 1385.96937 861.973424 1379.19335 858.502837 1376.24212 857.629288 1371.23684 854.371185 1366.51487 858.550056 1359.10138 855.693314 1353.34058 857.227927 1351.05043 856.023846 1348.52418 858.620884 1345.12436 858.762541 1339.36356 859.069463 1334.59438 860.509639 1332.32783 854.772546 1321.51453 859.706918 1322.08117 863.106677 1321.9159 864.594072 1319.90906 870.378384 1317.19393 873.848971 1314.69129 882.513635 1313.55802 881.828961 1318.5633 882.631682 1321.13677 882.088665 1325.62264 889.289544 1331.64315 896.702907 1332.75281 899.299945 1335.27906 903.785739 1336.62482 906.524434 1338.58444 910.679695 1338.51361 914.528033 1340.52045 914.811346 1344.43968 916.109865 1346.4229 916.204303 1349.37413 914.268329 1349.46857 916.818148 1357.42508 929.496417 1357.7084 928.52843 1361.67485 929.236713 1364.38998 932.848957 1366.32599 934.430789 1370.62298 933.250317 1376.10046 931.432391 1379.14613 932.069845 1383.13619 929.992215 1384.57639 929.897777 1382.4279 923.712104 1378.86281 917.57365 1378.74476 906.028635 1380.77521 902.864971 1386.96098 902.699705 1390.73856 900.079057 1399.21449"></polygon>
        </g>
    </g>
</svg>