<?xml version="1.0" encoding="utf-8"?>
<!-- Generator: Adobe Illustrator 21.1.0, SVG Export Plug-In . SVG Version: 6.00 Build 0)  -->
<svg version="1.1" id="Layer_1" xmlns="http://www.w3.org/2000/svg" xmlns:xlink="http://www.w3.org/1999/xlink" x="0px" y="0px"
	 viewBox="0 0 91 91" style="enable-background:new 0 0 91 91;" xml:space="preserve">
<style type="text/css">
	.st0{fill:#B1B2B3;stroke:#FFFFFF;stroke-width:0.5;}
</style>
<title>BO</title>
<desc>Created with Sketch.</desc>
<g id="Map-countries">
	<g id="Artboard" transform="translate(-854.000000, -1313.000000)">
		<polygon id="BO" class="st0" points="904,1397.7 896.5,1397.4 893.9,1403.1 890,1398 881.3,1396.3 875.8,1402.7 871,1403.7 
			868.4,1393.9 864.9,1386 867,1379.2 863.5,1376.2 862.6,1371.2 859.4,1366.5 863.6,1359.1 860.7,1353.3 862.2,1351.1 861,1348.5 
			863.6,1345.1 863.8,1339.4 864.1,1334.6 865.5,1332.3 859.8,1321.5 864.7,1322.1 868.1,1321.9 869.6,1319.9 875.4,1317.2 
			878.8,1314.7 887.5,1313.6 886.8,1318.6 887.6,1321.1 887.1,1325.6 894.3,1331.6 901.7,1332.8 904.3,1335.3 908.8,1336.6 
			911.5,1338.6 915.7,1338.5 919.5,1340.5 919.8,1344.4 921.1,1346.4 921.2,1349.4 919.3,1349.5 921.8,1357.4 934.5,1357.7 
			933.5,1361.7 934.2,1364.4 937.8,1366.3 939.4,1370.6 938.3,1376.1 936.4,1379.1 937.1,1383.1 935,1384.6 934.9,1382.4 
			928.7,1378.9 922.6,1378.7 911,1380.8 907.9,1387 907.7,1390.7 905.1,1399.2 		"/>
	</g>
</g>
</svg>
