<?xml version="1.0" encoding="utf-8"?>
<!-- Generator: Adobe Illustrator 21.1.0, SVG Export Plug-In . SVG Version: 6.00 Build 0)  -->
<svg version="1.1" id="Layer_1" xmlns="http://www.w3.org/2000/svg" xmlns:xlink="http://www.w3.org/1999/xlink" x="0px" y="0px"
	 viewBox="0 0 272 272" style="enable-background:new 0 0 272 272;" xml:space="preserve">
<style type="text/css">
	.st0{fill:#B1B2B3;stroke:#FFFFFF;stroke-width:0.5;}
</style>
<title>BR</title>
<desc>Created with Sketch.</desc>
<g id="Map-countries">
	<g id="Artboard" transform="translate(-825.000000, -1214.000000)">
		<polygon id="BR" class="st0" points="939.1,1457.8 947.9,1447.4 955.4,1440.2 959.8,1437.2 965.4,1433.1 965.5,1427.2 962.2,1423 
			958.9,1424.4 960.2,1420.2 961.1,1415.9 961.1,1411.9 958.7,1410.6 956.3,1411.8 953.8,1411.4 953,1408.7 952.4,1402.1 
			951.2,1400 946.7,1398.1 944,1399.5 937,1398.1 937.5,1388.5 935.5,1384.6 937.6,1383.1 936.9,1379.1 938.8,1376.1 939.9,1370.6 
			938.3,1366.3 934.7,1364.4 934,1361.7 935,1357.7 922.3,1357.4 919.8,1349.5 921.7,1349.4 921.6,1346.4 920.3,1344.4 920,1340.5 
			916.2,1338.5 912,1338.6 909.3,1336.6 904.8,1335.3 902.2,1332.8 894.8,1331.6 887.6,1325.6 888.1,1321.1 887.3,1318.6 
			888,1313.6 879.3,1314.7 875.9,1317.2 870.1,1319.9 868.6,1321.9 865.2,1322.1 860.3,1321.5 856.5,1322.7 853.5,1321.9 
			854,1311.7 848.5,1315.7 842.7,1315.5 840.2,1311.9 835.8,1311.6 837.2,1308.7 833.5,1304.6 830.8,1298.7 832.5,1297.5 
			832.5,1294.6 836.5,1292.7 835.9,1289.2 837.5,1286.9 838,1283.8 845.6,1279.3 851,1278 851.9,1277 857.9,1277.3 860.8,1259.3 
			861,1256.4 860,1252.7 857,1250.3 857.1,1245.5 860.8,1244.4 862.1,1245.1 862.3,1242.6 858.5,1241.9 858.4,1237.8 871.3,1237.9 
			873.5,1235.6 875.3,1237.7 876.6,1241.6 877.8,1240.8 881.5,1244.3 886.6,1243.9 887.9,1241.8 892.8,1240.3 895.6,1239.2 
			896.3,1236.4 901.1,1234.6 900.7,1233.2 895.1,1232.6 894.2,1228.5 894.4,1224.1 891.5,1222.4 892.7,1221.7 897.6,1222.6 
			902.9,1224.2 904.8,1222.7 909.5,1221.6 917,1219.2 919.4,1216.7 918.5,1214.8 921.9,1214.5 923.5,1216 922.6,1218.9 
			924.9,1219.9 926.4,1223 924.6,1225.3 923.5,1230.9 925.2,1234.3 925.7,1237.3 929.8,1240.4 933,1240.7 933.8,1239.4 
			935.8,1239.1 938.8,1238 941,1236.2 944.7,1236.8 946.3,1236.5 949.9,1237.1 950.5,1235.7 949.4,1234.4 950,1232.5 952.7,1233.1 
			955.8,1232.4 959.6,1233.8 962.5,1235.2 964.6,1233.4 966,1233.7 966.9,1235.6 970.1,1235.1 972.6,1232.6 974.7,1227.7 
			978.6,1221.7 980.8,1221.4 982.5,1225 986.2,1236.5 989.7,1237.6 989.9,1242.2 984.9,1247.6 987,1249.6 998.7,1250.6 
			998.9,1257.2 1004,1252.9 1012.3,1255.2 1023.3,1259.3 1026.5,1263.1 1025.4,1266.7 1033.1,1264.7 1046,1268.2 1055.9,1267.9 
			1065.7,1273.4 1074.1,1280.8 1079.2,1282.7 1084.9,1283 1087.3,1285 1089.5,1293.5 1090.7,1297.5 1088,1308.5 1084.6,1312.8 
			1075.3,1322.1 1071.1,1329.7 1066.2,1335.5 1064.5,1335.7 1062.7,1340.6 1063.1,1353.4 1061.3,1364 1060.6,1368.5 1058.5,1371.2 
			1057.3,1380.5 1050.6,1389.7 1049.5,1397 1044.1,1400.1 1042.6,1404.4 1035.4,1404.3 1025,1407.1 1020.3,1410.3 1012.9,1412.4 
			1005.1,1418.1 999.5,1425.4 998.6,1430.9 999.7,1434.9 998.4,1442.4 996.9,1446.1 992.3,1450.2 985,1463.6 979.1,1469.8 
			974.6,1473.4 971.6,1480.9 967.2,1485.4 965.4,1480.9 968.3,1477.2 964.5,1471.9 959.3,1467.6 952.5,1462.7 950,1462.9 
			943.4,1457 		"/>
	</g>
</g>
</svg>
