<?xml version="1.0" encoding="UTF-8"?>
<svg width="261px" height="272px" viewBox="0 0 261 272" version="1.1" xmlns="http://www.w3.org/2000/svg" xmlns:xlink="http://www.w3.org/1999/xlink">
    <!-- Generator: Sketch 43.2 (39069) - http://www.bohemiancoding.com/sketch -->
    <title>BR</title>
    <desc>Created with Sketch.</desc>
    <defs></defs>
    <g id="Map-countries" stroke="none" stroke-width="1" fill="none" fill-rule="evenodd">
        <g id="Artboard" transform="translate(-825.000000, -1214.000000)" stroke-width="0.5" stroke="#FFFFFF" fill="#B1B2B3">
            <polygon id="BR" points="933.580849 1457.76687 942.410779 1447.44937 949.894971 1440.17754 954.333545 1437.15548 959.905373 1433.07098 960.047029 1427.19214 956.718099 1422.96598 953.436387 1424.35896 954.734906 1420.15641 955.632064 1415.85942 955.632064 1411.89296 953.247511 1410.59442 950.76852 1411.75131 948.313139 1411.44438 947.534027 1408.65842 946.920182 1402.11849 945.668882 1399.99361 941.206698 1398.0576 938.515222 1399.45058 931.526828 1398.08121 931.951798 1388.49562 929.992215 1384.57639 932.069845 1383.13619 931.432391 1379.14613 933.250317 1376.10046 934.430789 1370.62298 932.848957 1366.32599 929.236713 1364.38998 928.52843 1361.67485 929.496417 1357.7084 916.818148 1357.42508 914.268329 1349.46857 916.204303 1349.37413 916.109865 1346.4229 914.811346 1344.43968 914.528033 1340.52045 910.679695 1338.51361 906.524434 1338.58444 903.785739 1336.62482 899.299945 1335.27906 896.702907 1332.75281 889.289544 1331.64315 882.088665 1325.62264 882.631682 1321.13677 881.828961 1318.5633 882.513635 1313.55802 873.848971 1314.69129 870.378384 1317.19393 864.594072 1319.90906 863.106677 1321.9159 859.706918 1322.08117 854.772546 1321.51453 851.042254 1322.67141 848.020246 1321.89229 848.468826 1311.74006 843.038655 1315.65929 837.207124 1315.49402 834.704523 1311.92894 830.313168 1311.55118 831.706125 1308.69439 828.023052 1304.6335 825.260748 1298.66022 827.007847 1297.45611 827.007847 1294.64654 831.021451 1292.73415 830.360387 1289.16906 832.036657 1286.8553 832.532455 1283.78602 840.087475 1279.27654 845.517646 1278.02522 846.391195 1277.03361 852.364383 1277.34054 855.339172 1259.27902 855.504438 1256.42223 854.465623 1252.66826 851.538053 1250.26006 851.561662 1245.49088 855.291953 1244.40482 856.614082 1245.08951 856.826567 1242.56326 852.954619 1241.87857 852.883791 1237.77046 865.774544 1237.91212 867.970221 1235.64558 869.811758 1237.72324 871.086667 1241.61886 872.337967 1240.79252 875.99743 1244.28677 881.144288 1243.8618 882.419197 1241.83135 887.32996 1240.29671 890.068655 1239.23427 890.824157 1236.44831 895.569654 1234.55952 895.191903 1233.19015 889.596467 1232.62352 888.675698 1228.46819 888.935402 1224.05315 885.984222 1222.35324 887.211913 1221.73939 892.122676 1222.58934 897.387581 1224.24203 899.299945 1222.68378 904.045443 1221.64495 911.458806 1219.18952 913.890578 1216.66327 912.99342 1214.7981 916.440397 1214.51478 917.99862 1216.02581 917.125071 1218.92982 919.391577 1219.92143 920.926191 1222.99071 919.084654 1225.30447 918.02223 1230.92361 919.722109 1234.2526 920.194298 1237.29826 924.278731 1240.36754 927.536833 1240.69808 928.268726 1239.42315 930.346356 1239.13983 933.344755 1237.98295 935.493214 1236.23582 939.152677 1236.77885 940.758119 1236.54275 944.370363 1237.08578 944.960598 1235.74002 943.850955 1234.44147 944.512019 1232.52908 947.179886 1233.11932 950.319941 1232.43464 954.097451 1233.82762 957.001412 1235.19699 959.055433 1233.40264 960.519218 1233.68596 961.439986 1235.55114 964.603651 1235.07894 967.129861 1232.5763 969.160272 1227.71267 973.079439 1221.69217 975.345945 1221.38524 976.974996 1225.02115 980.681678 1236.54275 984.223094 1237.6288 984.411969 1242.16189 979.430378 1247.56854 981.484399 1249.55177 993.19468 1250.5906 993.430775 1257.17774 998.459585 1252.85714 1006.79372 1255.24174 1017.77211 1259.25541 1021.0066 1263.10381 1019.92056 1266.73972 1027.61724 1264.70928 1040.50799 1268.20353 1050.40035 1267.94382 1060.17466 1273.3977 1068.62683 1280.78757 1073.72647 1282.67636 1079.39274 1282.95968 1081.8009 1285.03734 1084.0438 1293.46605 1085.15344 1297.45611 1082.50918 1308.45829 1079.13303 1312.8025 1069.80731 1322.10478 1065.58122 1329.68353 1060.69406 1335.53877 1059.0414 1335.68043 1057.17626 1340.63849 1057.64845 1353.3878 1055.80691 1363.96501 1055.09863 1368.52171 1053.021 1371.23684 1051.84052 1380.53911 1045.13544 1389.69972 1044.00219 1396.99516 1038.64285 1400.08805 1037.08463 1404.36143 1029.90736 1404.33782 1019.49559 1407.10017 1014.82093 1410.2875 1007.40756 1412.38877 999.616447 1418.14957 994.021011 1425.37418 993.053024 1430.85166 994.162667 1434.93616 992.911367 1442.44409 991.423972 1446.10361 986.796523 1450.23533 979.453987 1463.64571 973.622456 1469.76066 969.113053 1473.39657 966.114655 1480.85728 961.723299 1485.36676 959.881763 1480.88089 962.809334 1477.17415 958.984605 1471.86194 953.790528 1467.56495 946.967401 1462.6541 944.512019 1462.86659 937.877767 1456.96413"></polygon>
        </g>
    </g>
</svg>