<?xml version="1.0" encoding="utf-8"?>
<!-- Generator: Adobe Illustrator 21.1.0, SVG Export Plug-In . SVG Version: 6.00 Build 0)  -->
<svg version="1.1" id="Layer_1" xmlns="http://www.w3.org/2000/svg" xmlns:xlink="http://www.w3.org/1999/xlink" x="0px" y="0px"
	 viewBox="0 0 67 67" style="enable-background:new 0 0 67 67;" xml:space="preserve">
<style type="text/css">
	.st0{fill:#B1B2B3;stroke:#FFFFFF;stroke-width:0.5;}
</style>
<title>BW</title>
<desc>Created with Sketch.</desc>
<g id="Map-countries">
	<g id="Artboard" transform="translate(-1446.000000, -1366.000000)">
		<polygon id="BW" class="st0" points="1486.3,1373.1 1487.7,1374.4 1489.8,1378.4 1497.2,1386.1 1500.1,1386.8 1500.1,1389.3 
			1502,1393.8 1507.2,1394.9 1511.4,1398.1 1502,1403.3 1496.1,1408.7 1493.9,1413.5 1491.9,1416.2 1488.3,1416.8 1487.1,1420.3 
			1486.4,1422.5 1482.2,1424.2 1476.8,1423.9 1473.7,1421.8 1470.9,1420.9 1467.6,1422.6 1466,1426.1 1462.9,1428.3 1459.6,1431.6 
			1454.8,1432.4 1453.4,1429.8 1454,1425.3 1450,1418.4 1448.3,1417.3 1448.3,1396.4 1454.8,1396.1 1455,1371.2 1459.9,1371 
			1470.1,1368.5 1472.6,1371.4 1476.8,1368.7 1478.9,1368.6 1482.6,1367.1 1483.8,1367.6 		"/>
	</g>
</g>
</svg>
