<?xml version="1.0" encoding="UTF-8"?>
<svg width="64px" height="67px" viewBox="0 0 64 67" version="1.1" xmlns="http://www.w3.org/2000/svg" xmlns:xlink="http://www.w3.org/1999/xlink">
    <!-- Generator: Sketch 43.2 (39069) - http://www.bohemiancoding.com/sketch -->
    <title>BW</title>
    <desc>Created with Sketch.</desc>
    <defs></defs>
    <g id="Map-countries" stroke="none" stroke-width="1" fill="none" fill-rule="evenodd">
        <g id="Artboard" transform="translate(-1446.000000, -1366.000000)" stroke-width="0.5" stroke="#FFFFFF" fill="#B1B2B3">
            <polygon id="BW" points="1484.83762 1373.14923 1486.15974 1374.37694 1488.26098 1378.41422 1495.74518 1386.08742 1498.57831 1386.84293 1498.60192 1389.32197 1500.53789 1393.80783 1505.66114 1394.89389 1509.88723 1398.10482 1500.51428 1403.34621 1494.5647 1408.68203 1492.36903 1413.47482 1490.38583 1416.18995 1486.77359 1416.7802 1485.61673 1420.25084 1484.93205 1422.51739 1480.70596 1424.2173 1475.32301 1423.86315 1472.15935 1421.8327 1469.37343 1420.93553 1466.13894 1422.63544 1464.50989 1426.12969 1461.36983 1428.32541 1458.06451 1431.60717 1453.31902 1432.36269 1451.85523 1429.78922 1452.46908 1425.30335 1448.5263 1418.38567 1446.75559 1417.29962 1446.75559 1396.38131 1453.2718 1396.1216 1453.46067 1371.16601 1458.39505 1370.95352 1468.59432 1368.52171 1471.14414 1371.37849 1475.34662 1368.66336 1477.37703 1368.63975 1481.10732 1367.08151 1482.2878 1367.60092"></polygon>
        </g>
    </g>
</svg>