<?xml version="1.0" encoding="utf-8"?>
<!-- Generator: Adobe Illustrator 21.1.0, SVG Export Plug-In . SVG Version: 6.00 Build 0)  -->
<svg version="1.1" id="Layer_1" xmlns="http://www.w3.org/2000/svg" xmlns:xlink="http://www.w3.org/1999/xlink" x="0px" y="0px"
	 viewBox="0 0 64 64" style="enable-background:new 0 0 64 64;" xml:space="preserve">
<style type="text/css">
	.st0{fill:#B1B2B3;stroke:#FFFFFF;stroke-width:0.5;}
</style>
<title>BY</title>
<desc>Created with Sketch.</desc>
<g id="Map-countries">
	<g id="Artboard" transform="translate(-1468.000000, -799.000000)">
		<polygon id="BY" class="st0" points="1470.5,829.7 1476.9,829.8 1484.1,825.5 1485.6,819.1 1491,815.4 1490.4,810.2 1494.4,808.2 
			1501.6,803.7 1508.5,806.6 1509.5,809.5 1513,808.2 1519.4,810.9 1520.1,816.4 1518.6,819.5 1522.8,826.9 1525.5,829 1525.1,831 
			1529.6,833 1531.5,835.9 1528.9,838.3 1523.6,838 1522.3,839 1523.8,842.6 1525.5,849.6 1519.8,850.2 1517.7,852.6 1517.3,857.9 
			1514.7,856.9 1508.7,857.4 1507,854.9 1504.5,856.8 1502,855.2 1496.8,855 1489.4,852.5 1482.7,851.6 1477.6,851.9 1474,854.8 
			1470.8,855.2 1470.7,850.4 1468.6,845.4 1472.6,843.2 1472.6,838.8 1470.8,834.6 		"/>
	</g>
</g>
</svg>
