<?xml version="1.0" encoding="UTF-8"?>
<svg width="64px" height="56px" viewBox="0 0 64 56" version="1.1" xmlns="http://www.w3.org/2000/svg" xmlns:xlink="http://www.w3.org/1999/xlink">
    <!-- Generator: Sketch 43.2 (39069) - http://www.bohemiancoding.com/sketch -->
    <title>BY</title>
    <desc>Created with Sketch.</desc>
    <defs></defs>
    <g id="Map-countries" stroke="none" stroke-width="1" fill="none" fill-rule="evenodd">
        <g id="Artboard" transform="translate(-1468.000000, -799.000000)" stroke-width="0.5" stroke="#FFFFFF" fill="#B1B2B3">
            <polygon id="BY" points="1470.50669 825.68447 1476.90484 825.778909 1484.08211 821.52914 1485.61673 815.107266 1491.0469 811.400522 1490.43305 806.206359 1494.44666 804.223134 1501.57671 799.666436 1508.54149 802.641275 1509.48587 805.545284 1512.95646 804.152304 1519.42544 806.938264 1520.0629 812.392135 1518.64633 815.508633 1522.80159 822.94573 1525.49307 824.999785 1525.09171 827.03023 1529.55389 828.989846 1531.46626 831.941075 1528.89283 834.349278 1523.55709 833.971521 1522.28218 835.010353 1523.84041 838.646267 1525.46946 845.563948 1519.77958 846.201413 1517.74917 848.562396 1517.30059 853.898218 1514.67995 852.882995 1508.70676 853.402412 1506.95966 850.923379 1504.48067 852.764946 1502.00168 851.230307 1496.78399 851.017819 1489.39424 848.467957 1482.71277 847.618003 1477.58952 847.854101 1473.95367 850.758111 1470.79 851.159478 1470.67195 846.413902 1468.61793 841.408618 1472.58432 839.189293 1472.63154 834.821475 1470.79 830.618925"></polygon>
        </g>
    </g>
</svg>