<?xml version="1.0" encoding="utf-8"?>
<!-- Generator: Adobe Illustrator 21.1.0, SVG Export Plug-In . SVG Version: 6.00 Build 0)  -->
<svg version="1.1" id="Layer_1" xmlns="http://www.w3.org/2000/svg" xmlns:xlink="http://www.w3.org/1999/xlink" x="0px" y="0px"
	 viewBox="0 0 766 766" style="enable-background:new 0 0 766 766;" xml:space="preserve">
<style type="text/css">
	.st0{fill:#B1B2B3;stroke:#FFFFFF;stroke-width:0.5;}
</style>
<title>CA</title>
<desc>Created with Sketch.</desc>
<g id="Map-countries">
	<g id="Artboard" transform="translate(-381.000000, -178.000000)">
		<path id="CA" class="st0" d="M752.7,382.2l-0.5-13.9l8.6,1.4l3.8,2.3l7.9,11.6l-1.8,11.7l-9.8,6.5l-5.4-7.4L752.7,382.2
			L752.7,382.2z M783.9,412.1l0.8-3.5l-4.7-5.8l-13.3-0.4l1.8,8.7l12.4,2L783.9,412.1L783.9,412.1z M869.7,522.9l7.3,12l1.9,1.3
			l7.2-3l7.1,0.5l7,0.7l-0.6-6.2l-11.4-12.7l-15.2-2.5l-3.2,1.6L869.7,522.9L869.7,522.9z M715.2,374.9l-6.4,9.9l14.7,1.2l10.9,10.5
			l10.8,3.5l-2.6-13.4l-5.1-15.9l-17.9-12.6l-13-4.8l0.5,13.4L715.2,374.9L715.2,374.9z M776.3,350.7l12.1-0.3l-5.2,9.4l-0.1,12.5
			l7.1,13.6l13.7,4.2l11.7-2.3l12.2-25.3L837,352l-8-11.7l-5.2-25.1l-10.9-7.5l-11.1-8.7l-8.5-22.6l-15.4,2.2l2.9,9.8l-6.8,3
			l-4.6,12.6l-4.6,17.6l4.2,17.1L776.3,350.7L776.3,350.7z M625.8,476.7l9.3,4.6l29.9-3.1l-13.7,11.3l0.8,8.1l10.1-0.6l16.7-10.8
			l22.4-3.9l4-12.3l-1.2-13.2l-6.9-1.2l-5.9,4.6l-2.6-9.8l-2.2-13.5l-6.8-3.4l-6.1,10.4l9.5,26.1l-11.6-2l-11.8-16l-18.6-9.4
			l-6.2,7.8L625.8,476.7L625.8,476.7z M679.1,377.4l-8.6-6.8l-3.5-1.6l-6.8,10.1l-0.1,4.7l11,0L679.1,377.4L679.1,377.4z
			 M675.6,406.6l2.2-9.4l-9.3-5l-9.7,3.3l-5.4,10.1l9.8,9.9L675.6,406.6L675.6,406.6z M744.3,485.1l10.9-2.6l3-19.5l-0.2-14
			l-5.1-13.1l-0.5,3.8l-9.3-1.7l-10,9.7l-7.1-0.9l0.4,21.1l10.9-2.1l-0.1,15.3L744.3,485.1L744.3,485.1z M736.6,592.7l-11.9-9.3
			l-11.1-9.9l-2.1-14.6l-4.2-21.1l-7.4-9.1l-6.6-3.7l-5.8,3.4l4.7,22.6l-3.3,8.8l-5.4-21.2l-6-7.3l-7.5,11.4l-9.2-11.2l-14.7,6.8
			l3.3-10.5l-6.8-4.4l-17.7,13.8l-4.6,8.8l-5.5,16l11.6,5.5l10.2-0.3l-15.3,8.2l3.5,7.4l9.4,0.4l14.1-1.6l12.8,4.6l-8.6,3.4
			l-9.3-0.9l-10.2,3.3l-4.4,2.1l8.1,15l5.9-2.1l9,5.1l3.6,8.6l11.8-1.7l16.8-2.7l12.4-6.3l7.7-1.1l11.4,5l12,2.9l2.2-6.8l-4.2-7.2
			l10.9-1.5L736.6,592.7L736.6,592.7z M754.9,590.4l-4.6,8.4l-5.8,5.9l9,8.4l5.4-2l8.9,5.6l4.1-6.4l-4-7.2l-2-3.6l-4-3.4
			L754.9,590.4L754.9,590.4z M713.3,520.9l-5-5.1l-8.9,0.9l-2.2,3.3l10.3,15.9L713.3,520.9L713.3,520.9z M781,552l7.1-16.4l7.9-4.4
			l9.9-20.6l-12.7-5.8l-13.8-0.8l-6.6,6.5l-3.5,10l-0.1,11.4l4.1,19.3L781,552L781,552z M821.5,497.7l13.6-0.4l19-3.8l8.5,3l9.9-5.3
			l4.1-6.7l-1.5-10.7l-7.1-10l-10.8-1.9l-13.5,2.3l-10.5,5.8l-9.7-2.2l-8.9-1.2l-4.2-6.4l-7.6-6.2l1.5-10.5l-5.7-9.4l-13,0.1
			l-7.3-9.4l-13.6-1.9l-2.5,12l7.7,8.8l13.7,3.4l6.6,12l0.8,13.2l2.3,14.1l17.6,8.1L821.5,497.7L821.5,497.7z M611.3,454.6
			l12.3-11.9l6.2-1.4l5.1-10l0.9-23.1l-9.1,4.5l-10.2-0.4L603,431.6l-11.2,21.2l9,5.9L611.3,454.6L611.3,454.6z M781.7,492.7
			l3.6-9.8l-2.4-8.2l-5.8-9.3l-9.5,7.1l-3.5,11.6l8,6.6L781.7,492.7L781.7,492.7z M762.1,519.7l-1.7-6.8l-11.8,3l-7.9-5l-7.8,11.3
			l7.3,14.8l-13.5-2.8l-0.1,7.1l16.5,16.6l4.6,8l6.4,1.7l10.9-8.1l1.2-19.4l-10-9.6L762.1,519.7L762.1,519.7z M587.4,882.7l-2.7-5.5
			l-6.6-4.2l-3.3-4.8l-2.2-3.5l-6.2-1.1l-4.1-1.6l-6.9-2.3l-0.6,2.4l2.5,5.6l6.8,1.8l1.2,2.9l5.9,3.5l2,3.6l10.9,4.5L587.4,882.7
			L587.4,882.7z M874.8,699.4l-4.7-5l-4.9,1.2l-0.6-7.2l-7.6-4.8l-7.2-5.4l-3.8-4.1l-3.4,2.4l-1.2-7l-4.8-1.3l-2.3,14.5l-0.8,12.1
			l-5.8,7.4l9-1.4l2.3,8.6l9.4-7.6l6.6-8l3.7,6.8l10.3,3.6L874.8,699.4L874.8,699.4z M590.2,575.4l17.4-9.9v-9.1l8.2-15.1l16.2-15.8
			l8.3-5.8l-7.1-9.9l-6.4-7l-16.9-1.3l-9.4-5.1l-22.4,3.8l6.5,14.7l-5.7,15.2l-4.6,16.2l-2.8,9.1l15.3,11.1L590.2,575.4L590.2,575.4
			z M907.1,639.9l0.8-2.4l-0.1-7.5l-5.2-4.9l-6.1,2.5l-2.8,9.8l1.7,8.4l7.4-0.8L907.1,639.9L907.1,639.9z M963.4,657.7l10.4,15.6
			l8.1,6.7l11.6-18.6l2.1-11.6l-10.4-1.1l-9.5-15.8l-10.5-3.9l-15.6-11.7l12.2-8.6l-6.3-17.8l-5.8-7.9l-16-7.9l-6.9-13.1l-12.3,4.7
			l-0.8-9.1l-9.1-10.2l-14.7-11.1l-6.3,8.8l-13.1,6.3l1-14.3l-11.4-23.7l-16.8,9.6l-6.1,18.2l-5.2-14l4.9-15l-17.1,6.3l-6.8,9.4
			l-5.1,19.9l2.1,21.4l9.4,0.1l-6.9,9.3l5.5,7l10.7,3l14,5.7l24.1,4.3l12-2.5l3.5-5.7l5.2,6.6l5.8,1.1l7,11.7l-4.2,4.7l13.4,6.2
			l10.1,8.7l2.5,6l1.8,7.6l-8.6,16.4l-2.3,8.1l2.2,5.7l-13.6,2l-12.4,0.3l-4.4,11.5l5.6,5.3l19.1-2.4l-0.1-4.5l9.6,7.4l9.9,7.7
			l-2.3,4.2l8,7.1l14.2,8.3l17.9,5.6l-1.1-4.9l-6.9-8.7l-9.3-12.7l16.6,11.8l8.4,3.9l2.3-10.5l-4.3-14.9l-2.7-4.1l-9-7.2l-7-9.2
			l0.8-9.3L963.4,657.7L963.4,657.7z M808,276.2l5.5,17.2l11.7,13.9l23.2-2.6l14.9,4.7l-10.3,14.3l-5.2-4.2l-18.1-1.7l2.8,19.6
			l9.3,14.3l-1.9,12.3l-11.7,8.2l-5.4,12.9l10.7,6.3l9,20.2L824.8,398l-4,2.2l3.3,22.1l-12.2,6.7l0.8,13.8l12.5,1.5l9.8,3.4
			l19.5-4.3l17.3,7.7l17.7-17l-0.1-7.1l-11.3,1.1l-0.9-6.7l9.3-9l3.1-12.2l10.2-9L906,380l-5.5-16.8l4.6-6.3l-9.1-4.5l20-3.8
			l4.2-7.4l13.6-6.1l11.3-31.8l10.8-11.7l15.6-26.3l-14.4,0.2l6-10.2l16-9.4l16.1-21l0.3-13.5l-12.1-14.3l-14.2-6.9l-17.7-4.3
			l-14.3-3.5l-14.3-3.5l-19.1,9.4l-3.5-6l-20.2,2.3l-11.9,6.1l-8.7,8.6l-5,27.7l-7.2-14.2l-8.2-2.7l-9.7,18.8l-13,7.9l-7.7,1.6
			l-9.8,9.1l1.4,15.7L808,276.2L808,276.2z M983.6,901.9l-2.3-4.7l-2.5,3l1.7,3.2l8.4,4l2.5-0.6l3.3-3.9l-6.1,0.3L983.6,901.9
			L983.6,901.9z M849,718l1.4,3.8l4.7,0.3l7.7-7.9l0.1-2.8l-9.1-0.1L849,718L849,718z M995.7,874.9l-6.8-4.2l-8.7-2.6l-2.3,0.9
			l6.2,4.8l8.6,3.2l3.2-0.2L995.7,874.9L995.7,874.9z M1054.5,886.2l-0.8-5.3l-4.6,1.7l2.1-7.3l-6.6-3.1l-3,2.5l-5.9-2.8l2.3-3.6
			l-4.4-2.2l-4.3,3.5l4.4-9l3.5-6.6l1.3-2.9l-3.1-0.5l-5.7,3.7l-4.1,6l-6.8,16.3l-5.5,6l2.9,2.7l-4.1,3.5l1,2.9l12.8,0.3l7.1-0.6
			l6.4,2.4l-4.7,4.6l3.9,0.3l7.7-8.5l1.8,1.3l-1.4,8l4.3,1.8l3-0.4l2.8-8.5L1054.5,886.2L1054.5,886.2z M1004.4,897.5l-6.6,10.8
			l-10.9,1.4l-8.6-4.7l-2.2-7.2l-2.1-10.5l6.3-6.7l-5.9-4.9l-9.9,1l-13.9,8.3L940,897.7l-5.6,1.6l7.6-9l9.5-13.2l8.4-4.5l5.5-7.3
			l6.8-0.7l9.9,0.1l14.2,2.2l11.2-1.7l8.3-8.5l10.9-3.8l4.7-3.7l4.8-4l-0.5-12.3l-2.7-4.2l-5.1-1.5l-2.6-9.6l-4.2-3.7l-10.6-3
			l-5.9-6.7l-8.8-6.7l2.7-7.6l-7.3-14.8l-8.6-16.3l-5.1-11.8l-4.4,6.2l-6.3,14.3l-9.6,7l-4.8-7.5l-6-2l-2.2-16.5l0.2-11.3l-11.8-1
			l-2-5.4l-8.1-8.1l-6.2-4.8l-5.5,3.7l-6.8-1.4l-11.4-3.9l-4.6,3.3l2.2,21.7l2.9,12.1l-7.8,13.6l8.1,9.5l4.5,10.5l0.5,8.1l-3.7,8.3
			l-7.5,8.2l-10.6,5.4l4.7,6l3.4,17.5l-3.6,11l-5.1,3.4l-9.8-10.1l-4.8-12.2l-2.1-11.2l1.1-9.9l-7.2-1.1l-10.9-0.7l-7-4.9l-8.3-3.2
			l-4.7-5.6l-6.6-4.6l-12.3-5.3l-9.3,2.4l-3.1-9.3l-3-11.8l-9.7-2.1l0.4-15.1l2.6-10.6l7.2-15.6l8.1-11.6l7.7-1.8l0.4-9.6l5.2-6.3
			l9.5-1l7.7-10.4l1.9-6.8l6.4-13.5l2-8.3l6.8,5l9.2-2.5l13-11.7l0.8-8.4l-4.7-9.4l4.9-9.6l-0.4-9.1l-8.9-9.3l-9.8-2.8l-9.4-1.5
			l-0.4,20.6l-4.8,15.5L827,644l-6.4-11.7l2-13.2l-7.9-11.9l-8.9,14.4l0-18.9l-12.3-3.8l5.9-9.5l-9-22.6l-6.7-9.2l-8.7-3.4
			l-7.8,15.2l-0.5,22.1l7.7,7.8l7.1,11.6l-3,18.2l-5.3-0.5l-4.2,13.9l0-16.5l-10.2-6.1l-5.9,3.1l0.8,11l-9.7-0.4l-10.3,2.8
			l-11.7-7.9l-7.4,1.4l-6.7-9.7l-5.3-4.3l-5.3,1.8l-8.1,0.8l-4.3,6.2l6.8,7.5l-7.2,8.8l-7.1-10.4l-5.6,3.1l-17.9,2.1l-12-3.8
			l9.3-8.8l-8.9-9.2l-6.5,1.2l-9.1-3.1l-15.5-6.8l-10.1-8l-8-1.1l-2.5,5.6l-8.1,3.1l-0.9-14.5l-8.8,13l-11.2-17.3l-4.6-2.1l-1.5,9.2
			l-4.9,4.5l-4.6-8l-10.8,4.8l-9.9,8.4l-9.8-2.3l-8,5.9l-5.8,7.7l-6.9-1.7l-10.4-9l-12.3-4.6l0,65.3l0,83.6l6.5,0.4l6.4,3.7l4.6,5.8
			l5.9,8.5l6.4-7.2l6.6-4.2l3.5,6.7l4.5,5.3l6.1,5.7l4.1,8.9l6.8,13.9l11.3,7.6l0.2,7.4l-3.7,5.5l0.1,5.9l8,8.1l1.2,8.9l8.5,4.6
			l-0.9,6.6l3.7,9.3l12,4.3l4.7,4.5l12.8,10l0.9,0h18.8h19.6h6.5h20.2h19.5h19.9h19.9h22.5h22.6h13.7l0-3.9l2.2,0l1.2,5.5l2.1,1.7
			l4.6,0.6l6.8,1.6l6.4,3.1l5.4-1.3l8.1,2.6l2.7-3.9l3.8-1.6l1.5-2.4l1.5-1.3l6.2,2l4.6,0.2l1.6,1.3l2.2,5.6l7.4,1.5l-1.2,2.8
			l2.6,2.9l-1.1,3.7l2.8,1.2l-1.4,3.2l1.8,0.3l1.3-1.4l1.3,2.1l5,1.2l5,0.1l5.4,1l5.9,1.8l2.1,3l4.3,7.2l-2.1,3.1l-5.4-1.3l-3.4-5.8
			l0.8,5.9l-3.2,5.1l0.4,4.3l-0.5,2.5l-4.3,3l-3.1,4.9l-1.5,3.1l3.6,0.6l4.9-2.8l2.9-2.5l2-0.4l3.6,0.9l1.8-1.4l3.2-1.1l5.8-1.1l0,0
			l0,0l-0.6-2.7l-0.3,0.1l-2,0.5l-2.6-0.8l2-3.1l2-1.1l4.7-1.3l5.6-1.3l2.9,1.7l1.8-2l2.1-1.3l1.4,0.7l0.1,0.1l6.8-6.4l3-1.7
			l10.1-0.1h12.2l0.7-2.3l2.1-0.5l2.8-1.5l2.4-4.3l2-7.4l5.1-7.3l2.2,2.5l4.4-1.7l3,2.8v13l4.3,5.3l7.4-1.1l10.6-0.3l-11.5,7.7
			l0.3,7.8l5,0.7l7.4-6.6l6.6-3.7l14.7-5.5l8.2-6.2l-4.3-3.4L1004.4,897.5L1004.4,897.5z M877.7,729.6l2.6-7.4l-1.7-2.9L876,719
			l-2.5,4.2l-0.3,1l1.7,4.2L877.7,729.6L877.7,729.6z M540.9,815.6L540.9,815.6l3.7-5.5L540.9,815.6L540.9,815.6z M532.9,823.4
			l-6.4,0.9l-3.1-1.5l-0.4,3.6l1.2,4.9l3.4,3.4l2.5,5l4,5l2.6,0l-5.8-8.7L532.9,823.4L532.9,823.4z"/>
	</g>
</g>
</svg>
