<?xml version="1.0" encoding="UTF-8"?>
<svg width="586px" height="766px" viewBox="0 0 586 766" version="1.1" xmlns="http://www.w3.org/2000/svg" xmlns:xlink="http://www.w3.org/1999/xlink">
    <!-- Generator: Sketch 43.2 (39069) - http://www.bohemiancoding.com/sketch -->
    <title>CA</title>
    <desc>Created with Sketch.</desc>
    <defs></defs>
    <g id="Map-countries" stroke="none" stroke-width="1" fill="none" fill-rule="evenodd">
        <g id="Artboard" transform="translate(-381.000000, -178.000000)" stroke="#FFFFFF" stroke-width="0.5" fill="#B1B2B3">
            <path d="M662.662549,382.197404 L662.143141,368.267604 L670.713367,369.636974 L674.561706,371.903518 L682.470867,383.519555 L680.67655,395.253641 L670.878633,401.793564 L665.495682,394.427296 L662.662549,382.197404 L662.662549,382.197404 Z M693.850617,412.06384 L694.629728,408.545975 L689.978669,402.761567 L676.639336,402.31298 L678.410044,411.001398 L690.804999,412.961014 L693.850617,412.06384 L693.850617,412.06384 Z M779.670923,522.911997 L786.94263,534.953011 L788.854995,536.298771 L796.103092,533.300323 L803.233143,533.772519 L810.268755,534.433594 L809.678519,528.200599 L798.251551,515.49851 L783.094292,512.948648 L779.907018,514.530507 L779.670923,522.911997 L779.670923,522.911997 Z M625.194371,374.878356 L618.796213,384.770876 L633.528503,385.998587 L644.412453,396.481352 L655.225576,400.022826 L652.652147,386.612442 L647.599728,370.723026 L629.703774,358.091767 L616.718583,353.275361 L617.190772,366.709355 L625.194371,374.878356 L625.194371,374.878356 Z M686.342815,350.701889 L698.454457,350.418571 L693.213162,359.862504 L693.118724,372.375714 L700.225165,385.974977 L713.942248,390.153917 L725.652529,387.816544 L737.882218,362.483195 L746.971852,351.97682 L738.991862,340.242734 L733.774176,315.098264 L722.913835,307.566728 L711.77018,298.87831 L703.318001,276.307312 L687.924648,278.526636 L690.828608,288.324716 L684.0527,291.275945 L679.472469,303.836375 L674.892238,321.449309 L679.094718,338.590046 L686.342815,350.701889 L686.342815,350.701889 Z M535.832648,476.731167 L545.087548,481.335084 L575.000706,478.265806 L561.260013,489.527696 L562.109953,497.625868 L572.167573,497.059232 L588.859446,486.245929 L611.288412,482.303088 L615.325626,469.978756 L614.168763,456.82808 L607.227589,455.647588 L601.325229,460.204286 L598.728191,450.453425 L596.485294,436.995822 L589.638557,433.643226 L583.570932,444.055161 L593.038317,470.144025 L581.469692,468.137189 L569.712192,452.106114 L551.084345,442.662181 L544.851454,450.500645 L535.832648,476.731167 L535.832648,476.731167 Z M589.09554,377.428218 L580.478096,370.581367 L576.93668,369.023118 L570.137162,379.128126 L570.019115,383.850092 L581.021113,383.873702 L589.09554,377.428218 L589.09554,377.428218 Z M585.648562,406.586359 L587.84424,397.166037 L578.518512,392.160753 L568.862252,395.442519 L563.50291,405.500307 L573.324436,415.440046 L585.648562,406.586359 L585.648562,406.586359 Z M654.328417,485.065438 L665.235978,482.444747 L668.257986,462.966636 L668.045501,448.918786 L662.993081,435.79172 L662.473673,439.569293 L653.171555,437.916605 L643.208372,447.573026 L636.078322,446.699462 L636.503292,467.759432 L647.363633,465.705376 L647.221977,480.980937 L654.328417,485.065438 L654.328417,485.065438 Z M646.584522,592.749877 L634.638146,583.471214 L623.518101,573.531475 L621.46408,558.940599 L617.308819,537.88063 L609.895455,528.814455 L603.308422,525.154931 L597.476891,528.507527 L602.175169,551.149355 L598.846238,559.955822 L593.439677,538.754194 L587.395661,531.411536 L579.911469,542.767865 L570.703788,531.529585 L555.971499,538.305607 L559.27682,527.775622 L552.500912,523.360584 L534.770224,537.148725 L530.166383,545.907972 L524.618165,561.891828 L536.18679,567.369309 L546.409677,567.085991 L531.063542,575.254992 L534.557739,582.644869 L543.954295,583.046237 L558.096348,581.464378 L570.892664,586.091905 L562.251609,589.49172 L552.925881,588.618157 L542.702995,591.947143 L538.28803,594.001198 L546.433286,608.993441 L552.312036,606.915776 L561.354451,611.991889 L564.943085,620.609478 L576.724195,618.88596 L593.486896,616.14722 L605.90546,609.890614 L613.602137,608.757343 L624.981886,613.762627 L636.951871,616.643026 L639.171158,609.890614 L634.945069,602.689616 L645.80541,601.178587 L646.584522,592.749877 L646.584522,592.749877 Z M664.858227,590.436114 L660.230777,598.793994 L654.399246,604.672842 L663.44166,613.030722 L668.824612,611.023886 L677.74898,616.595806 L681.857022,610.150323 L677.819808,602.996544 L675.836615,599.38424 L671.87023,595.937204 L664.858227,590.436114 L664.858227,590.436114 Z M623.282007,520.905161 L618.253196,515.781828 L609.376048,516.726221 L607.133151,519.984378 L617.450475,535.921014 L623.282007,520.905161 L623.282007,520.905161 Z M691.017484,551.999309 L698.123925,535.637696 L706.009477,531.269877 L715.901832,510.634885 L703.247173,504.803257 L689.459261,503.953303 L682.895837,510.493226 L679.42525,520.480184 L679.330812,531.860123 L683.462464,551.196575 L691.017484,551.999309 L691.017484,551.999309 Z M731.50767,497.696697 L745.106706,497.27172 L764.088694,493.470538 L772.564483,496.492596 L782.433228,491.156774 L786.564879,484.451582 L785.077485,473.779939 L777.994653,463.79298 L767.22875,461.904194 L753.747761,464.194347 L743.217951,469.955146 L733.561691,467.735822 L724.637324,466.55533 L720.434844,460.180676 L712.832605,454.01851 L714.343609,443.559355 L708.630125,434.162642 L695.597715,434.233472 L688.25518,424.813149 L674.608925,422.924363 L672.106324,434.965376 L679.779392,443.795453 L693.472866,447.218879 L700.107118,459.236283 L700.909838,472.457788 L703.199954,486.600077 L720.788985,494.674639 L731.50767,497.696697 L731.50767,497.696697 Z M521.336453,454.561536 L533.636971,442.638571 L539.822643,441.245591 L544.922282,431.258633 L545.819441,408.191828 L536.729807,412.701306 L526.577749,412.276329 L512.978712,431.61278 L501.74062,452.814409 L510.712206,458.740476 L521.336453,454.561536 L521.336453,454.561536 Z M691.749377,492.738633 L695.361621,482.964163 L692.953458,474.795161 L687.169146,465.540108 L677.654542,472.670276 L674.136736,484.286313 L682.163945,490.873456 L691.749377,492.738633 L691.749377,492.738633 Z M672.129934,519.74828 L670.406445,512.948648 L658.601726,515.923487 L650.716173,510.941813 L642.87784,522.274531 L650.173156,537.101505 L636.668558,534.339155 L636.526901,541.445714 L652.982679,558.090645 L657.56291,566.070768 L663.937459,567.794286 L674.7978,559.743333 L675.978272,540.359662 L665.96787,530.750461 L672.129934,519.74828 L672.129934,519.74828 Z M497.443702,882.725822 L494.705007,877.201121 L488.094365,873.022181 L484.812653,868.182166 L482.569756,864.640691 L476.336865,863.554639 L472.276041,861.97278 L465.334867,859.706237 L464.76824,862.114439 L467.318059,867.733579 L474.141187,869.575146 L475.321659,872.479155 L481.247628,876.02063 L483.230821,879.585714 L494.091162,884.118802 L497.443702,882.725822 L497.443702,882.725822 Z M784.770562,699.442704 L780.048674,694.461029 L775.18513,695.641521 L774.594894,688.416912 L767.016265,683.600507 L759.768167,678.241075 L755.919829,674.109355 L752.543679,676.541167 L751.315988,669.552657 L746.523273,668.254117 L744.256767,682.726943 L743.406827,694.791567 L737.646124,702.205054 L746.61771,700.788464 L748.884216,709.406052 L758.304382,701.780077 L764.867806,693.799954 L768.574488,700.552366 L778.868203,704.11745 L784.770562,699.442704 L784.770562,699.442704 Z M500.206007,575.373041 L517.629772,565.504132 L517.629772,556.367127 L525.845856,541.233226 L542.089149,525.438249 L550.399672,519.606621 L543.293231,509.690492 L536.871464,502.725591 L519.967106,501.379831 L510.523331,496.280108 L488.141584,500.12851 L494.61057,514.837435 L488.873476,530.018556 L484.293245,546.23851 L481.460113,555.351905 L496.735419,566.424916 L500.206007,575.373041 L500.206007,575.373041 Z M817.139101,639.85149 L817.894603,637.466897 L817.823775,629.982581 L812.653308,625.071736 L806.585683,627.550768 L803.77616,637.396068 L805.42882,645.801167 L812.842184,644.951214 L817.139101,639.85149 L817.139101,639.85149 Z M873.376783,657.653303 L883.788545,673.235791 L891.933801,679.964593 L903.549644,661.383656 L905.603665,649.744009 L895.191903,648.634347 L885.6773,632.81576 L875.1711,628.943748 L859.588871,617.209662 L871.747731,608.639293 L865.49123,590.837481 L859.730528,582.928187 L843.746938,575.018894 L836.852982,561.915438 L824.552465,566.613794 L823.702525,557.500399 L814.589282,547.300952 L799.904212,536.180722 L793.647711,544.939969 L780.544473,551.220184 L781.536069,536.912627 L770.179929,513.184747 L753.393619,522.770338 L747.278775,540.949908 L742.061089,526.972888 L746.924633,511.933425 L729.8314,518.190031 L723.031882,527.610353 L717.955853,547.489831 L720.057093,568.856728 L729.453649,568.951167 L722.536084,578.206221 L728.037083,585.194731 L738.779377,588.14596 L752.779774,593.859539 L776.8614,598.156528 L788.854995,595.701106 L792.39641,589.987527 L797.614096,596.57467 L803.445627,597.660722 L810.457631,609.371198 L806.207932,614.045945 L819.618092,620.25533 L829.746541,628.943748 L832.296361,634.964255 L834.114287,642.61384 L825.544061,658.975453 L823.230336,667.097235 L825.449624,672.810814 L811.826978,674.84126 L799.384804,675.124578 L795.017058,686.622565 L800.612495,691.887558 L819.759749,689.455745 L819.665311,684.993487 L829.297962,692.430584 L839.166707,700.174608 L836.852982,704.353548 L844.880191,711.483717 L859.093073,719.817988 L877.036246,725.460737 L875.950211,720.526283 L869.056255,711.861475 L859.706918,699.182995 L876.304353,710.987911 L884.662094,714.907143 L886.952209,704.424378 L882.655292,689.550184 L879.916597,685.465684 L870.921401,678.311905 L863.956617,669.080461 L864.782947,659.778187 L873.376783,657.653303 L873.376783,657.653303 Z M717.955853,276.212873 L723.480461,293.424439 L735.190742,307.30702 L758.351601,304.733548 L773.249156,309.384685 L762.908223,323.668633 L757.690537,319.466083 L739.605707,317.789785 L742.41523,337.409555 L751.764568,351.669892 L749.875813,363.947005 L738.141922,372.116006 L732.78258,385.030584 L743.524874,391.287189 L752.543679,411.473594 L734.836601,398.015991 L730.799387,400.235315 L734.057489,422.381336 L721.8278,429.062919 L722.654131,442.87467 L735.167133,444.362089 L745.012269,447.761905 L764.466445,443.417696 L781.772163,451.138111 L799.455632,434.162642 L799.313976,427.032473 L788.005055,428.165745 L787.084287,421.460553 L796.339187,412.417988 L799.479242,400.258925 L809.702129,391.216359 L815.982239,379.97808 L810.504849,363.2151 L815.08508,356.958495 L805.971837,352.496237 L826.01625,348.647834 L830.24234,341.210737 L843.888595,335.072181 L855.221125,303.269739 L866.010638,291.606482 L881.640086,265.35235 L867.238329,265.588449 L873.235126,255.436221 L889.242325,246.015899 L905.39118,225.003149 L905.674494,211.474716 L893.562852,197.214378 L879.34997,190.296697 L861.666501,185.999708 L847.335573,182.481843 L833.004644,178.940369 L813.880999,188.337081 L810.363193,182.363794 L790.129904,184.677558 L778.254357,190.745284 L769.518865,199.362873 L764.490055,227.080814 L757.265567,212.891306 L749.049482,210.199785 L739.322394,229.01682 L726.337203,236.926114 L718.616917,238.484363 L708.771781,247.550538 L710.211957,263.251075 L717.955853,276.212873 L717.955853,276.212873 Z M893.610071,901.873395 L891.296346,897.198648 L888.793746,900.173487 L890.446406,903.384424 L898.851366,907.421705 L901.306748,906.807849 L904.56485,902.888618 L898.426396,903.148326 L893.610071,901.873395 L893.610071,901.873395 Z M759.036275,718.04725 L760.47645,721.895653 L765.151119,722.22619 L772.895015,714.340507 L773.036671,711.530937 L763.947038,711.389278 L759.036275,718.04725 L759.036275,718.04725 Z M905.721713,874.910968 L898.945804,870.661198 L890.233921,868.087727 L887.943806,868.96129 L894.105869,873.777696 L902.676095,876.941413 L905.886979,876.752535 L905.721713,874.910968 L905.721713,874.910968 Z M964.461994,886.220077 L963.612054,880.931475 L958.984605,882.631382 L961.038626,875.288725 L954.427983,872.172227 L951.382366,874.65126 L945.503616,871.8653 L947.81734,868.300215 L943.378766,866.104501 L939.058239,869.575146 L943.449594,860.55619 L946.99101,853.945438 L948.26592,851.065038 L945.196693,850.592842 L939.459599,854.252366 L935.351557,860.225653 L928.50482,876.563656 L922.956602,882.607773 L925.836954,885.299293 L921.705302,888.769939 L922.720508,891.673948 L935.564042,891.980876 L942.670483,891.39063 L949.021422,893.775223 L944.346753,898.33192 L948.289529,898.662458 L955.962597,890.210138 L957.804133,891.461459 L956.363957,899.417972 L960.708094,901.235929 L963.706492,900.881782 L966.492406,892.358633 L964.461994,886.220077 L964.461994,886.220077 Z M914.433595,897.458356 L907.799343,908.224439 L896.868173,909.59381 L888.274338,904.848233 L886.10227,897.600015 L884.00103,887.070031 L890.257531,880.388449 L884.40239,875.453994 L874.510036,876.469217 L860.627686,884.803487 L850.003439,897.670845 L844.384393,899.252704 L852.010241,890.280968 L861.548454,877.130292 L869.977024,872.644424 L875.525241,865.301767 L882.371978,864.593472 L892.311552,864.664301 L906.477215,866.836406 L917.668088,865.160108 L926.00222,856.613349 L936.90978,852.859386 L941.655277,849.129032 L946.471603,845.091751 L945.999414,832.838249 L943.331547,828.659309 L938.18469,827.171889 L935.564042,817.609908 L931.314343,813.950384 L920.760925,810.975545 L914.811346,804.317573 L906.005026,797.635991 L908.672892,790.080845 L901.353967,775.301091 L892.736522,759.033917 L887.589664,747.276221 L883.198309,753.438387 L876.870979,767.722335 L867.285548,774.734455 L862.492832,767.273748 L856.448816,765.266912 L854.253138,748.763641 L854.442013,737.430922 L842.637294,736.392089 L840.630492,731.032657 L832.485236,722.910876 L826.323173,718.09447 L820.845783,721.824823 L814.046265,720.455453 L802.690125,716.559831 L798.086285,719.865207 L800.305572,741.539032 L803.185924,753.627266 L795.3712,767.202919 L803.422018,776.694071 L807.907811,787.176836 L808.450828,795.251398 L804.791365,803.514839 L797.283564,811.68384 L786.682927,817.066882 L791.357595,823.040169 L794.804573,840.511444 L791.215939,851.560845 L786.1163,855.00788 L776.271164,844.902873 L771.478448,832.69659 L769.424427,821.45831 L770.510462,811.565791 L763.309583,810.456129 L752.378413,809.795054 L745.36641,804.884209 L737.079497,801.649662 L732.334,796.030522 L725.723358,791.450215 L713.422841,786.185223 L704.167941,788.593425 L701.075105,779.267542 L698.100315,767.486237 L688.373227,765.361352 L688.727368,750.22745 L691.300797,739.650246 L698.478066,724.067757 L706.576104,712.49894 L714.27278,710.680983 L714.72136,701.119002 L719.939045,694.791567 L729.40643,693.799954 L737.079497,683.435238 L739.015471,676.588387 L745.39002,663.059954 L747.373212,654.796513 L754.219949,659.778187 L763.42763,657.228326 L776.389212,645.517849 L777.239151,637.159969 L772.564483,627.763257 L777.498855,618.177665 L777.097495,609.040661 L768.220346,599.714777 L758.446039,596.905207 L749.049482,595.441398 L748.695341,616.005561 L743.879016,631.49361 L736.96145,644.00682 L730.563293,632.319954 L732.546485,619.074839 L724.637324,607.222704 L715.783784,621.601091 L715.807394,602.736836 L703.506877,598.888433 L709.385627,589.420891 L700.390431,566.779063 L693.68535,557.547619 L684.949858,554.147803 L677.111525,569.328925 L676.592117,591.380507 L684.312404,599.148141 L691.395235,610.740568 L688.396836,628.943748 L683.061103,628.471551 L678.858623,642.354132 L678.905842,625.82725 L668.659346,619.735914 L662.780596,622.876022 L663.536098,633.901813 L653.879838,633.476836 L643.609733,636.239186 L631.923061,628.329892 L624.533307,629.746482 L617.875445,620.042842 L612.539712,615.698633 L607.251198,617.51659 L599.20038,618.342934 L594.927072,624.5051 L601.679371,632.036636 L594.478492,640.819493 L587.41927,630.383948 L581.776615,633.453226 L563.90427,635.507281 L551.934285,631.753318 L561.236404,622.923241 L552.312036,613.715407 L545.819441,614.895899 L536.706198,611.779401 L521.218406,604.95616 L511.089957,596.999647 L503.062749,595.889985 L500.560148,601.461905 L492.438501,604.554793 L491.541343,590.034747 L482.735022,603.020154 L471.544149,585.737757 L466.963918,583.636482 L465.476523,592.867926 L460.542151,597.353794 L455.985529,589.350061 L445.148797,594.190077 L435.232833,602.571567 L425.387698,600.257803 L417.360489,606.160261 L411.552567,613.904286 L404.658611,612.204378 L394.246849,603.232642 L381.899113,598.652335 L381.851894,663.933518 L381.828285,747.583149 L388.34449,747.984516 L394.789866,751.66765 L399.417316,757.428449 L405.296066,765.927988 L411.741443,758.726989 L418.375695,754.500829 L421.893501,761.229631 L426.355685,766.494624 L432.42331,772.208203 L436.554962,781.156329 L443.330871,795.038909 L454.592572,802.594055 L454.781448,809.960323 L451.098376,815.508633 L451.240032,821.363871 L459.243632,829.509263 L460.400494,838.386559 L468.876282,843.014086 L467.931905,849.601229 L471.614977,858.950722 L483.608572,863.247711 L488.330459,867.709969 L501.150384,877.696928 L502.047543,877.720538 L520.840655,877.720538 L540.483708,877.720538 L546.999913,877.720538 L567.185982,877.720538 L586.710987,877.720538 L606.566524,877.720538 L626.445671,877.720538 L648.945466,877.720538 L671.586917,877.720538 L685.280391,877.720538 L685.304,873.848525 L687.546897,873.801306 L688.727368,879.349616 L690.78139,881.049524 L695.408839,881.663379 L702.161139,883.245238 L708.582906,886.314516 L713.942248,885.015975 L722.087504,887.589447 L724.77898,883.670215 L728.532881,882.111966 L729.996666,879.680154 L731.484061,878.381613 L737.646124,880.412058 L742.202745,880.648157 L743.784578,881.993917 L746.003865,887.613057 L753.440838,889.100476 L752.283975,891.886436 L754.904623,894.743226 L753.77137,898.426359 L756.557284,899.630461 L755.164327,902.865008 L756.935035,903.171935 L758.186335,901.755346 L759.484854,903.88023 L764.442836,905.060722 L769.471646,905.155161 L774.830989,906.123164 L780.756958,907.964731 L782.905416,910.93957 L787.202334,918.116959 L785.077485,921.186237 L779.694533,919.911306 L776.341993,914.150507 L777.191932,920.029355 L774.028268,925.152688 L774.382409,929.496897 L773.839392,932.023149 L769.566084,935.021598 L766.449638,939.956052 L764.985853,943.07255 L768.621706,943.639186 L773.53247,940.806006 L776.43643,938.303364 L778.396014,937.901997 L782.031867,938.799171 L783.802575,937.40619 L787.037068,936.272919 L792.797771,935.163257 L792.797771,935.163257 L792.797771,935.163257 L792.207535,932.448126 L791.900612,932.542565 L789.870201,933.014762 L787.225944,932.164808 L789.209136,929.04831 L791.215939,927.962258 L795.890607,926.640108 L801.486044,925.388786 L804.413614,927.112304 L806.255151,925.105469 L808.356391,923.830538 L809.772957,924.515223 L809.843785,924.656882 L816.619694,918.211398 L819.618092,916.48788 L829.675713,916.417051 L841.881792,916.417051 L842.542857,914.103287 L844.667706,913.631091 L847.477229,912.167281 L849.838173,907.870292 L851.868585,900.433195 L856.921004,893.114147 L859.116682,895.664009 L863.555256,894.011321 L866.506436,896.820891 L866.506436,909.853518 L870.826963,915.16573 L878.193108,914.032458 L888.793746,913.72553 L877.295949,921.422335 L877.555653,929.189969 L882.584463,929.851045 L889.974218,923.263902 L896.537641,919.533548 L911.199102,913.985238 L919.391577,907.799462 L915.118269,904.352427 L914.433595,897.458356 L914.433595,897.458356 Z M787.745351,729.592458 L790.342389,722.22619 L788.666119,719.322181 L785.951034,719.015253 L783.401215,723.265023 L783.094292,724.233026 L784.84139,728.411966 L787.745351,729.592458 L787.745351,729.592458 Z M450.93311,815.603072 L450.93311,815.603072 L454.616182,810.054762 L450.93311,815.603072 L450.93311,815.603072 Z M442.905901,823.370707 L436.554962,824.26788 L433.438516,822.804071 L433.037156,826.392765 L434.264846,831.28 L437.617387,834.727035 L440.072768,839.755929 L444.062763,844.713994 L446.70702,844.737604 L440.946317,836.001966 L442.905901,823.370707 L442.905901,823.370707 Z" id="CA"></path>
        </g>
    </g>
</svg>