<?xml version="1.0" encoding="UTF-8"?>
<svg width="127px" height="124px" viewBox="0 0 127 124" version="1.1" xmlns="http://www.w3.org/2000/svg" xmlns:xlink="http://www.w3.org/1999/xlink">
    <!-- Generator: Sketch 43.2 (39069) - http://www.bohemiancoding.com/sketch -->
    <title>CD</title>
    <desc>Created with Sketch.</desc>
    <defs></defs>
    <g id="Map-countries" stroke="none" stroke-width="1" fill="none" fill-rule="evenodd">
        <g id="Artboard" transform="translate(-1395.000000, -1214.000000)" stroke-width="0.5" stroke="#FFFFFF" fill="#B1B2B3">
            <polygon id="CD" points="1519.16574 1225.96555 1518.76438 1233.66235 1521.40864 1234.53591 1519.28379 1236.87329 1516.73397 1238.62041 1514.20776 1242.06745 1512.8148 1245.11312 1512.43705 1250.40172 1510.90244 1252.90436 1510.85522 1257.86243 1508.94285 1259.70399 1508.70676 1263.62323 1507.78599 1264.11903 1507.17214 1267.73134 1508.84841 1270.70618 1509.27338 1278.66269 1510.45386 1284.73041 1509.79279 1288.17745 1511.11492 1292.00224 1514.96326 1295.70899 1518.52828 1304.09048 1515.93125 1303.40579 1507.03049 1304.53906 1505.25978 1305.31819 1503.37102 1309.56796 1504.85842 1312.51919 1503.67795 1320.42848 1502.85162 1327.15728 1504.64593 1328.36138 1509.27338 1330.95846 1511.09131 1329.75436 1511.65794 1337.02619 1506.58191 1336.95536 1503.86682 1333.24862 1501.43505 1330.36822 1496.35902 1329.42382 1494.87163 1325.90596 1490.8108 1328.03084 1485.52229 1327.08645 1483.303 1324.04078 1479.10052 1323.42693 1476.00769 1323.5922 1475.62994 1321.51453 1473.33982 1321.34926 1470.31781 1320.9479 1466.23338 1321.93951 1463.35303 1321.77424 1461.70037 1322.3881 1462.05451 1314.43158 1459.85883 1311.95255 1459.36303 1307.86805 1460.33102 1303.85438 1459.00889 1301.28091 1458.89084 1297.12558 1450.84003 1297.1728 1451.43026 1294.7882 1448.05411 1294.81181 1447.69997 1295.96869 1443.59193 1296.2284 1441.91566 1300.0768 1440.92406 1301.7531 1437.2646 1300.80871 1435.09253 1301.7531 1430.70117 1302.27252 1428.17496 1298.80187 1426.66396 1296.65338 1424.7516 1292.68693 1423.12255 1287.75247 1403.59754 1287.68164 1401.26021 1288.46077 1399.34784 1288.34272 1396.60915 1289.23989 1395.68838 1287.18584 1397.36465 1286.47754 1397.57713 1283.59714 1398.66317 1281.89724 1401.07133 1280.52786 1402.81843 1281.18894 1405.08493 1278.66269 1408.67357 1278.73352 1409.09854 1280.59869 1411.57753 1281.77919 1415.47309 1277.62386 1419.32143 1274.41292 1420.9977 1272.31164 1420.78521 1266.88138 1423.66556 1260.48312 1426.68757 1257.10691 1431.05532 1253.9432 1431.81082 1251.84192 1431.97608 1249.43372 1433.06212 1247.14356 1432.70798 1243.41321 1433.53431 1237.58158 1434.83283 1233.47347 1436.81602 1229.95561 1437.19377 1225.98916 1437.78401 1221.38524 1440.38104 1218.03264 1443.92246 1215.90776 1449.37624 1218.15069 1453.57872 1220.5825 1458.41865 1221.24358 1463.35303 1222.51851 1465.33622 1218.55206 1466.25699 1218.03264 1469.25539 1218.69372 1476.64514 1215.41195 1479.24218 1216.80493 1481.39064 1216.61605 1482.38223 1215.01058 1484.83762 1214.44395 1489.81921 1215.12863 1494.06891 1215.27029 1496.26458 1214.58561 1500.25458 1220.03948 1503.22937 1220.8186 1505.00008 1219.70894 1508.0693 1220.15753 1511.75238 1218.76455 1513.33421 1221.57412"></polygon>
        </g>
    </g>
</svg>