<?xml version="1.0" encoding="utf-8"?>
<!-- Generator: Adobe Illustrator 21.1.0, SVG Export Plug-In . SVG Version: 6.00 Build 0)  -->
<svg version="1.1" id="Layer_1" xmlns="http://www.w3.org/2000/svg" xmlns:xlink="http://www.w3.org/1999/xlink" x="0px" y="0px"
	 viewBox="0 0 127 127" style="enable-background:new 0 0 127 127;" xml:space="preserve">
<style type="text/css">
	.st0{fill:#B1B2B3;stroke:#FFFFFF;stroke-width:0.5;}
</style>
<title>CD</title>
<desc>Created with Sketch.</desc>
<g id="Map-countries">
	<g id="Artboard" transform="translate(-1395.000000, -1214.000000)">
		<polygon id="CD" class="st0" points="1519.2,1227.5 1518.8,1235.2 1521.4,1236 1519.3,1238.4 1516.7,1240.1 1514.2,1243.6 
			1512.8,1246.6 1512.4,1251.9 1510.9,1254.4 1510.9,1259.4 1508.9,1261.2 1508.7,1265.1 1507.8,1265.6 1507.2,1269.2 
			1508.8,1272.2 1509.3,1280.2 1510.5,1286.2 1509.8,1289.7 1511.1,1293.5 1515,1297.2 1518.5,1305.6 1515.9,1304.9 1507,1306 
			1505.3,1306.8 1503.4,1311.1 1504.9,1314 1503.7,1321.9 1502.9,1328.7 1504.6,1329.9 1509.3,1332.5 1511.1,1331.3 1511.7,1338.5 
			1506.6,1338.5 1503.9,1334.7 1501.4,1331.9 1496.4,1330.9 1494.9,1327.4 1490.8,1329.5 1485.5,1328.6 1483.3,1325.5 
			1479.1,1324.9 1476,1325.1 1475.6,1323 1473.3,1322.8 1470.3,1322.4 1466.2,1323.4 1463.4,1323.3 1461.7,1323.9 1462.1,1315.9 
			1459.9,1313.5 1459.4,1309.4 1460.3,1305.4 1459,1302.8 1458.9,1298.6 1450.8,1298.7 1451.4,1296.3 1448.1,1296.3 1447.7,1297.5 
			1443.6,1297.7 1441.9,1301.6 1440.9,1303.3 1437.3,1302.3 1435.1,1303.3 1430.7,1303.8 1428.2,1300.3 1426.7,1298.2 
			1424.8,1294.2 1423.1,1289.3 1403.6,1289.2 1401.3,1290 1399.3,1289.8 1396.6,1290.7 1395.7,1288.7 1397.4,1288 1397.6,1285.1 
			1398.7,1283.4 1401.1,1282 1402.8,1282.7 1405.1,1280.2 1408.7,1280.2 1409.1,1282.1 1411.6,1283.3 1415.5,1279.1 1419.3,1275.9 
			1421,1273.8 1420.8,1268.4 1423.7,1262 1426.7,1258.6 1431.1,1255.4 1431.8,1253.3 1432,1250.9 1433.1,1248.6 1432.7,1244.9 
			1433.5,1239.1 1434.8,1235 1436.8,1231.5 1437.2,1227.5 1437.8,1222.9 1440.4,1219.5 1443.9,1217.4 1449.4,1219.7 1453.6,1222.1 
			1458.4,1222.7 1463.4,1224 1465.3,1220.1 1466.3,1219.5 1469.3,1220.2 1476.6,1216.9 1479.2,1218.3 1481.4,1218.1 1482.4,1216.5 
			1484.8,1215.9 1489.8,1216.6 1494.1,1216.8 1496.3,1216.1 1500.3,1221.5 1503.2,1222.3 1505,1221.2 1508.1,1221.7 1511.8,1220.3 
			1513.3,1223.1 		"/>
	</g>
</g>
</svg>
