<?xml version="1.0" encoding="UTF-8"?>
<svg width="87px" height="60px" viewBox="0 0 87 60" version="1.1" xmlns="http://www.w3.org/2000/svg" xmlns:xlink="http://www.w3.org/1999/xlink">
    <!-- Generator: Sketch 43.2 (39069) - http://www.bohemiancoding.com/sketch -->
    <title>CF</title>
    <desc>Created with Sketch.</desc>
    <defs></defs>
    <g id="Map-countries" stroke="none" stroke-width="1" fill="none" fill-rule="evenodd">
        <g id="Artboard" transform="translate(-1410.000000, -1175.000000)" stroke-width="0.5" stroke="#FFFFFF" fill="#B1B2B3">
            <polygon id="CF" points="1416.18137 1200.11278 1421.65876 1199.59336 1422.88645 1197.89346 1423.97248 1198.03512 1425.62515 1199.52253 1433.95928 1196.99628 1436.7688 1194.3992 1440.23939 1192.06183 1439.57832 1189.72445 1441.44347 1189.1106 1447.84163 1189.53558 1454.07452 1186.44269 1458.84362 1179.14725 1462.21977 1176.45573 1466.39864 1175.29885 1467.15415 1178.17925 1470.97888 1182.35819 1470.97888 1185.07332 1469.91645 1187.85928 1470.34142 1189.91333 1472.63154 1191.82573 1477.68396 1194.75335 1481.2962 1197.42126 1481.36703 1199.59336 1485.8056 1203.0404 1488.56791 1205.89719 1490.24418 1209.86364 1495.20216 1212.48433 1496.26458 1214.58561 1494.06891 1215.27029 1489.81921 1215.12863 1484.83762 1214.44395 1482.38223 1215.01058 1481.39064 1216.61605 1479.24218 1216.80493 1476.64514 1215.41195 1469.25539 1218.69372 1466.25699 1218.03264 1465.33622 1218.55206 1463.35303 1222.51851 1458.41865 1221.24358 1453.57872 1220.5825 1449.37624 1218.15069 1443.92246 1215.90776 1440.38104 1218.03264 1437.78401 1221.38524 1437.19377 1225.98916 1432.94407 1225.6114 1428.45828 1224.50174 1424.5155 1227.99599 1421.04491 1234.13455 1420.33663 1232.22215 1420.05332 1229.2237 1417.03131 1227.09882 1414.57593 1223.699 1414.0093 1221.33802 1410.89286 1217.89098 1411.41226 1215.93137 1410.7512 1213.14541 1411.27061 1208.02207 1412.85244 1206.81797"></polygon>
        </g>
    </g>
</svg>