<?xml version="1.0" encoding="utf-8"?>
<!-- Generator: Adobe Illustrator 21.1.0, SVG Export Plug-In . SVG Version: 6.00 Build 0)  -->
<svg version="1.1" id="Layer_1" xmlns="http://www.w3.org/2000/svg" xmlns:xlink="http://www.w3.org/1999/xlink" x="0px" y="0px"
	 viewBox="0 0 87 87" style="enable-background:new 0 0 87 87;" xml:space="preserve">
<style type="text/css">
	.st0{fill:#B1B2B3;stroke:#FFFFFF;stroke-width:0.5;}
</style>
<title>CF</title>
<desc>Created with Sketch.</desc>
<g id="Map-countries">
	<g id="Artboard" transform="translate(-1410.000000, -1175.000000)">
		<polygon id="CF" class="st0" points="1416.2,1213.6 1421.7,1213.1 1422.9,1211.4 1424,1211.5 1425.6,1213 1434,1210.5 
			1436.8,1207.9 1440.2,1205.6 1439.6,1203.2 1441.4,1202.6 1447.8,1203 1454.1,1199.9 1458.8,1192.6 1462.2,1190 1466.4,1188.8 
			1467.2,1191.7 1471,1195.9 1471,1198.6 1469.9,1201.4 1470.3,1203.4 1472.6,1205.3 1477.7,1208.3 1481.3,1210.9 1481.4,1213.1 
			1485.8,1216.5 1488.6,1219.4 1490.2,1223.4 1495.2,1226 1496.3,1228.1 1494.1,1228.8 1489.8,1228.6 1484.8,1227.9 1482.4,1228.5 
			1481.4,1230.1 1479.2,1230.3 1476.6,1228.9 1469.3,1232.2 1466.3,1231.5 1465.3,1232.1 1463.4,1236 1458.4,1234.7 1453.6,1234.1 
			1449.4,1231.7 1443.9,1229.4 1440.4,1231.5 1437.8,1234.9 1437.2,1239.5 1432.9,1239.1 1428.5,1238 1424.5,1241.5 1421,1247.6 
			1420.3,1245.7 1420.1,1242.7 1417,1240.6 1414.6,1237.2 1414,1234.8 1410.9,1231.4 1411.4,1229.4 1410.8,1226.6 1411.3,1221.5 
			1412.9,1220.3 		"/>
	</g>
</g>
</svg>
