<?xml version="1.0" encoding="UTF-8"?>
<svg width="50px" height="59px" viewBox="0 0 50 59" version="1.1" xmlns="http://www.w3.org/2000/svg" xmlns:xlink="http://www.w3.org/1999/xlink">
    <!-- Generator: Sketch 43.2 (39069) - http://www.bohemiancoding.com/sketch -->
    <title>CG</title>
    <desc>Created with Sketch.</desc>
    <defs></defs>
    <g id="Map-countries" stroke="none" stroke-width="1" fill="none" fill-rule="evenodd">
        <g id="Artboard" transform="translate(-1388.000000, -1224.000000)" stroke-width="0.5" stroke="#FFFFFF" fill="#B1B2B3">
            <polygon id="CG" points="1401.07133 1280.52786 1398.59234 1278.26132 1396.58554 1279.37098 1393.91767 1282.20416 1388.4875 1275.23926 1393.51631 1271.60335 1391.03732 1267.23553 1393.30383 1265.58284 1397.76601 1264.78011 1398.28542 1261.85249 1401.82683 1265.01621 1407.68197 1265.29952 1409.71238 1262.18303 1410.53871 1257.81521 1409.80682 1252.66826 1406.69038 1248.79625 1409.54712 1241.17028 1407.89446 1239.87174 1402.98369 1240.39115 1401.11855 1237.01495 1401.61435 1234.13455 1409.94848 1234.39425 1415.30782 1236.11777 1420.57273 1237.67602 1421.04491 1234.13455 1424.5155 1227.99599 1428.45828 1224.50174 1432.94407 1225.6114 1437.19377 1225.98916 1436.81602 1229.95561 1434.83283 1233.47347 1433.53431 1237.58158 1432.70798 1243.41321 1433.06212 1247.14356 1431.97608 1249.43372 1431.81082 1251.84192 1431.05532 1253.9432 1426.68757 1257.10691 1423.66556 1260.48312 1420.78521 1266.88138 1420.9977 1272.31164 1419.32143 1274.41292 1415.47309 1277.62386 1411.57753 1281.77919 1409.09854 1280.59869 1408.67357 1278.73352 1405.08493 1278.66269 1402.81843 1281.18894"></polygon>
        </g>
    </g>
</svg>