<?xml version="1.0" encoding="utf-8"?>
<!-- Generator: Adobe Illustrator 21.1.0, SVG Export Plug-In . SVG Version: 6.00 Build 0)  -->
<svg version="1.1" id="Layer_1" xmlns="http://www.w3.org/2000/svg" xmlns:xlink="http://www.w3.org/1999/xlink" x="0px" y="0px"
	 viewBox="0 0 59 59" style="enable-background:new 0 0 59 59;" xml:space="preserve">
<style type="text/css">
	.st0{fill:#B1B2B3;stroke:#FFFFFF;stroke-width:0.5;}
</style>
<title>CG</title>
<desc>Created with Sketch.</desc>
<g id="Map-countries">
	<g id="Artboard" transform="translate(-1388.000000, -1224.000000)">
		<polygon id="CG" class="st0" points="1405.6,1280.5 1403.1,1278.3 1401.1,1279.4 1398.4,1282.2 1393,1275.2 1398,1271.6 
			1395.5,1267.2 1397.8,1265.6 1402.3,1264.8 1402.8,1261.9 1406.3,1265 1412.2,1265.3 1414.2,1262.2 1415,1257.8 1414.3,1252.7 
			1411.2,1248.8 1414,1241.2 1412.4,1239.9 1407.5,1240.4 1405.6,1237 1406.1,1234.1 1414.4,1234.4 1419.8,1236.1 1425.1,1237.7 
			1425.5,1234.1 1429,1228 1433,1224.5 1437.4,1225.6 1441.7,1226 1441.3,1230 1439.3,1233.5 1438,1237.6 1437.2,1243.4 
			1437.6,1247.1 1436.5,1249.4 1436.3,1251.8 1435.6,1253.9 1431.2,1257.1 1428.2,1260.5 1425.3,1266.9 1425.5,1272.3 
			1423.8,1274.4 1420,1277.6 1416.1,1281.8 1413.6,1280.6 1413.2,1278.7 1409.6,1278.7 1407.3,1281.2 		"/>
	</g>
</g>
</svg>
