<?xml version="1.0" encoding="UTF-8"?>
<svg width="42px" height="42px" viewBox="0 0 42 42" version="1.1" xmlns="http://www.w3.org/2000/svg" xmlns:xlink="http://www.w3.org/1999/xlink">
    <!-- Generator: Sketch 43.2 (39069) - http://www.bohemiancoding.com/sketch -->
    <title>CI</title>
    <desc>Created with Sketch.</desc>
    <defs></defs>
    <g id="Map-countries" stroke="none" stroke-width="1" fill="none" fill-rule="evenodd">
        <g id="Artboard" transform="translate(-1257.000000, -1179.000000)" stroke-width="0.5" stroke="#FFFFFF" fill="#B1B2B3">
            <polygon id="CI" points="1296.12738 1216.16747 1293.12898 1216.23829 1288.50153 1214.93975 1284.27544 1215.01058 1276.4135 1216.16747 1271.83327 1218.07986 1265.26984 1220.48806 1263.99493 1220.3228 1264.49073 1214.89253 1265.12819 1214.06619 1264.93931 1211.4455 1262.12979 1208.68315 1260.02855 1208.23456 1258.09257 1206.41661 1259.53275 1203.48899 1258.87169 1200.27805 1259.17861 1198.34204 1260.24103 1198.34204 1260.61878 1195.43803 1260.09938 1194.1631 1260.73683 1193.24232 1263.19221 1192.43959 1261.56316 1187.10376 1260.02855 1184.36502 1260.57156 1182.07487 1261.89369 1181.57906 1262.74363 1180.96521 1264.58517 1181.95682 1269.68481 1182.02765 1270.9125 1180.06803 1272.04575 1180.20969 1273.95812 1179.45418 1274.99693 1182.31097 1276.53154 1181.46101 1279.27024 1180.4694 1282.24503 1181.93321 1283.40189 1184.12892 1286.37668 1185.54551 1288.69041 1183.86922 1291.80685 1183.60951 1296.33986 1185.33303 1298.08696 1194.80057 1295.30105 1200.37249 1293.57756 1207.8568 1296.4343 1213.54677"></polygon>
        </g>
    </g>
</svg>