<?xml version="1.0" encoding="utf-8"?>
<!-- Generator: Adobe Illustrator 21.1.0, SVG Export Plug-In . SVG Version: 6.00 Build 0)  -->
<svg version="1.1" id="Layer_1" xmlns="http://www.w3.org/2000/svg" xmlns:xlink="http://www.w3.org/1999/xlink" x="0px" y="0px"
	 viewBox="0 0 42 42" style="enable-background:new 0 0 42 42;" xml:space="preserve">
<style type="text/css">
	.st0{fill:#B1B2B3;stroke:#FFFFFF;stroke-width:0.5;}
</style>
<title>CI</title>
<desc>Created with Sketch.</desc>
<g id="Map-countries">
	<g id="Artboard" transform="translate(-1257.000000, -1179.000000)">
		<polygon id="CI" class="st0" points="1296.1,1216.2 1293.1,1216.2 1288.5,1214.9 1284.3,1215 1276.4,1216.2 1271.8,1218.1 
			1265.3,1220.5 1264,1220.3 1264.5,1214.9 1265.1,1214.1 1264.9,1211.4 1262.1,1208.7 1260,1208.2 1258.1,1206.4 1259.5,1203.5 
			1258.9,1200.3 1259.2,1198.3 1260.2,1198.3 1260.6,1195.4 1260.1,1194.2 1260.7,1193.2 1263.2,1192.4 1261.6,1187.1 1260,1184.4 
			1260.6,1182.1 1261.9,1181.6 1262.7,1181 1264.6,1182 1269.7,1182 1270.9,1180.1 1272,1180.2 1274,1179.5 1275,1182.3 
			1276.5,1181.5 1279.3,1180.5 1282.2,1181.9 1283.4,1184.1 1286.4,1185.5 1288.7,1183.9 1291.8,1183.6 1296.3,1185.3 
			1298.1,1194.8 1295.3,1200.4 1293.6,1207.9 1296.4,1213.5 		"/>
	</g>
</g>
</svg>
