<?xml version="1.0" encoding="UTF-8"?>
<svg width="59px" height="327px" viewBox="0 0 59 327" version="1.1" xmlns="http://www.w3.org/2000/svg" xmlns:xlink="http://www.w3.org/1999/xlink">
    <!-- Generator: Sketch 43.2 (39069) - http://www.bohemiancoding.com/sketch -->
    <title>CL</title>
    <desc>Created with Sketch.</desc>
    <defs></defs>
    <g id="Map-countries" stroke="none" stroke-width="1" fill="none" fill-rule="evenodd">
        <g id="Artboard" transform="translate(-814.000000, -1366.000000)" stroke="#FFFFFF" stroke-width="0.5" fill="#B1B2B3">
            <path d="M860.698514,1658.30877 L860.698514,1683.26436 L867.781346,1683.26436 L871.771341,1683.57129 L869.575663,1688.24604 L863.909398,1691.85834 L860.651296,1691.48058 L856.732129,1690.53619 L851.915804,1687.04194 L844.974629,1685.36564 L836.640497,1678.96737 L829.888198,1672.89965 L820.774955,1660.50449 L826.228735,1662.79464 L835.530854,1670.18452 L844.313565,1674.19819 L847.736933,1669.07485 L849.885392,1661.51971 L855.976627,1657.01023 L860.698514,1658.30877 L860.698514,1658.30877 Z M863.437209,1393.85505 L866.034247,1403.65313 L870.803354,1402.68513 L871.606075,1404.47948 L869.339569,1411.94018 L862.13869,1415.50527 L862.351175,1427.64072 L860.958218,1430.00171 L862.941411,1432.90571 L858.266742,1437.50963 L853.922606,1444.49814 L851.561662,1451.34499 L852.199117,1458.68765 L848.114684,1466.57333 L851.160302,1480.00733 L852.883791,1481.44753 L852.860181,1488.74296 L849.082671,1496.55782 L849.224328,1503.33384 L844.219127,1508.66966 L844.242736,1516.27203 L846.249538,1524.44103 L842.283153,1527.51031 L840.512445,1535.11267 L838.954222,1543.96636 L840.063866,1554.68522 L837.395999,1556.50318 L838.930613,1566.89151 L841.929011,1570.33854 L839.756943,1574.18694 L842.82617,1576.02851 L843.534453,1579.52276 L840.654102,1581.2935 L841.362385,1586.79459 L838.954222,1599.42585 L835.436416,1607.73651 L836.215527,1612.71819 L834.114287,1619.04562 L829.038258,1623.48427 L829.628494,1634.34479 L831.965828,1638.12237 L836.380793,1637.46129 L836.262746,1645.32336 L839.001441,1651.53275 L855.00864,1652.97295 L861.147094,1654.64925 L855.268344,1654.57842 L852.08107,1657.24633 L846.107882,1661.18917 L845.045457,1671.53028 L842.235934,1671.78998 L834.775352,1668.15407 L827.196722,1660.48088 L827.196722,1660.48088 L818.957028,1654.27149 L816.879398,1647.49547 L818.744543,1641.30969 L815.415612,1634.3684 L814.565673,1617.03879 L817.375196,1607.52402 L824.363589,1599.99249 L814.305969,1597.18292 L820.609689,1588.75421 L822.852585,1573.26616 L830.21873,1576.50071 L833.665708,1557.68367 L829.227134,1555.32269 L827.149503,1566.53736 L822.970633,1565.26243 L825.048263,1552.4659 L827.314769,1536.31677 L830.360387,1530.46154 L828.448022,1522.1981 L827.905005,1512.80138 L830.690919,1512.54167 L834.751742,1499.32017 L839.331973,1486.50003 L842.141496,1474.76594 L840.606883,1463.17352 L842.590076,1456.86969 L841.787355,1447.5202 L845.659302,1438.3832 L846.863384,1424.12286 L848.988233,1409.08339 L851.065864,1393.14676 L850.570066,1381.64877 L849.200718,1371.85069 L852.600477,1370.07995 L854.371185,1366.53848 L857.605678,1371.23684 L858.479227,1376.24212 L861.949815,1379.19335 L859.872184,1385.96937 L863.437209,1393.85505 L863.437209,1393.85505 Z" id="CL"></path>
        </g>
    </g>
</svg>