<?xml version="1.0" encoding="utf-8"?>
<!-- Generator: Adobe Illustrator 21.1.0, SVG Export Plug-In . SVG Version: 6.00 Build 0)  -->
<svg version="1.1" id="Layer_1" xmlns="http://www.w3.org/2000/svg" xmlns:xlink="http://www.w3.org/1999/xlink" x="0px" y="0px"
	 viewBox="0 0 327 327" style="enable-background:new 0 0 327 327;" xml:space="preserve">
<style type="text/css">
	.st0{fill:#B1B2B3;stroke:#FFFFFF;stroke-width:0.5;}
</style>
<title>CL</title>
<desc>Created with Sketch.</desc>
<g id="Map-countries">
	<g id="Artboard" transform="translate(-814.000000, -1366.000000)">
		<path id="CL" class="st0" d="M994.7,1658.3v25h7.1l4,0.3l-2.2,4.7l-5.7,3.6l-3.3-0.4l-3.9-0.9l-4.8-3.5l-6.9-1.7l-8.3-6.4
			l-6.8-6.1l-9.1-12.4l5.5,2.3l9.3,7.4l8.8,4l3.4-5.1l2.1-7.6l6.1-4.5L994.7,1658.3L994.7,1658.3z M997.4,1393.9l2.6,9.8l4.8-1
			l0.8,1.8l-2.3,7.5l-7.2,3.6l0.2,12.1l-1.4,2.4l2,2.9l-4.7,4.6l-4.3,7l-2.4,6.8l0.6,7.3l-4.1,7.9l3,13.4l1.7,1.4l0,7.3l-3.8,7.8
			l0.1,6.8l-5,5.3l0,7.6l2,8.2l-4,3.1l-1.8,7.6l-1.6,8.9l1.1,10.7l-2.7,1.8l1.5,10.4l3,3.4l-2.2,3.8l3.1,1.8l0.7,3.5l-2.9,1.8
			l0.7,5.5l-2.4,12.6l-3.5,8.3l0.8,5l-2.1,6.3l-5.1,4.4l0.6,10.9l2.3,3.8l4.4-0.7l-0.1,7.9l2.7,6.2l16,1.4l6.1,1.7l-5.9-0.1
			l-3.2,2.7l-6,3.9l-1.1,10.3l-2.8,0.3l-7.5-3.6l-7.6-7.7l0,0l-8.2-6.2l-2.1-6.8l1.9-6.2l-3.3-6.9l-0.8-17.3l2.8-9.5l7-7.5
			l-10.1-2.8l6.3-8.4l2.2-15.5l7.4,3.2l3.4-18.8l-4.4-2.4l-2.1,11.2l-4.2-1.3l2.1-12.8l2.3-16.1l3-5.9l-1.9-8.3l-0.5-9.4l2.8-0.3
			l4.1-13.2l4.6-12.8l2.8-11.7l-1.5-11.6l2-6.3l-0.8-9.3l3.9-9.1l1.2-14.3l2.1-15l2.1-15.9l-0.5-11.5l-1.4-9.8l3.4-1.8l1.8-3.5
			l3.2,4.7l0.9,5l3.5,3l-2.1,6.8L997.4,1393.9L997.4,1393.9z"/>
	</g>
</g>
</svg>
