<?xml version="1.0" encoding="UTF-8"?>
<svg width="52px" height="75px" viewBox="0 0 52 75" version="1.1" xmlns="http://www.w3.org/2000/svg" xmlns:xlink="http://www.w3.org/1999/xlink">
    <!-- Generator: Sketch 43.2 (39069) - http://www.bohemiancoding.com/sketch -->
    <title>CM</title>
    <desc>Created with Sketch.</desc>
    <defs></defs>
    <g id="Map-countries" stroke="none" stroke-width="1" fill="none" fill-rule="evenodd">
        <g id="Artboard" transform="translate(-1370.000000, -1163.000000)" stroke-width="0.5" stroke="#FFFFFF" fill="#B1B2B3">
            <polygon id="CM" points="1401.61435 1234.13455 1400.78802 1233.7804 1396.86885 1234.63035 1392.83164 1233.73318 1389.69158 1234.18177 1378.92568 1234.0165 1379.89366 1228.82233 1377.29663 1224.47813 1374.27462 1223.34485 1372.92888 1220.39363 1371.229 1219.44923 1371.32344 1217.63127 1373.02332 1212.95653 1376.16337 1206.58187 1378.07574 1206.51104 1382.01851 1202.63903 1384.54472 1202.54459 1388.25141 1205.25972 1392.80803 1203.01679 1393.42187 1200.27805 1394.90927 1197.58653 1395.92447 1194.23393 1399.46589 1191.49519 1400.81163 1186.84406 1402.20458 1185.35664 1403.14896 1181.88599 1404.89606 1177.61261 1410.46789 1172.41845 1410.82203 1170.17551 1411.55392 1168.97141 1408.93327 1166.27989 1409.14576 1164.15501 1411.0109 1163.75364 1413.63155 1168.07424 1414.08013 1172.5365 1413.84404 1176.99876 1417.43267 1183.06648 1413.7496 1182.99565 1411.88445 1183.46785 1408.86244 1182.80677 1407.42227 1185.94688 1411.31783 1189.8425 1414.19818 1190.97578 1415.14256 1193.73813 1417.22019 1198.29482 1416.18137 1200.11278 1412.85244 1206.81797 1411.27061 1208.02207 1410.7512 1213.14541 1411.41226 1215.93137 1410.89286 1217.89098 1414.0093 1221.33802 1414.57593 1223.699 1417.03131 1227.09882 1420.05332 1229.2237 1420.33663 1232.22215 1421.04491 1234.13455 1420.57273 1237.67602 1415.30782 1236.11777 1409.94848 1234.39425"></polygon>
        </g>
    </g>
</svg>