<?xml version="1.0" encoding="utf-8"?>
<!-- Generator: Adobe Illustrator 21.1.0, SVG Export Plug-In . SVG Version: 6.00 Build 0)  -->
<svg version="1.1" id="Layer_1" xmlns="http://www.w3.org/2000/svg" xmlns:xlink="http://www.w3.org/1999/xlink" x="0px" y="0px"
	 viewBox="0 0 75 75" style="enable-background:new 0 0 75 75;" xml:space="preserve">
<style type="text/css">
	.st0{fill:#B1B2B3;stroke:#FFFFFF;stroke-width:0.5;}
</style>
<title>CM</title>
<desc>Created with Sketch.</desc>
<g id="Map-countries">
	<g id="Artboard" transform="translate(-1370.000000, -1163.000000)">
		<polygon id="CM" class="st0" points="1413.1,1234.1 1412.3,1233.8 1408.4,1234.6 1404.3,1233.7 1401.2,1234.2 1390.4,1234 
			1391.4,1228.8 1388.8,1224.5 1385.8,1223.3 1384.4,1220.4 1382.7,1219.4 1382.8,1217.6 1384.5,1213 1387.7,1206.6 1389.6,1206.5 
			1393.5,1202.6 1396,1202.5 1399.8,1205.3 1404.3,1203 1404.9,1200.3 1406.4,1197.6 1407.4,1194.2 1411,1191.5 1412.3,1186.8 
			1413.7,1185.4 1414.6,1181.9 1416.4,1177.6 1422,1172.4 1422.3,1170.2 1423.1,1169 1420.4,1166.3 1420.6,1164.2 1422.5,1163.8 
			1425.1,1168.1 1425.6,1172.5 1425.3,1177 1428.9,1183.1 1425.2,1183 1423.4,1183.5 1420.4,1182.8 1418.9,1185.9 1422.8,1189.8 
			1425.7,1191 1426.6,1193.7 1428.7,1198.3 1427.7,1200.1 1424.4,1206.8 1422.8,1208 1422.3,1213.1 1422.9,1215.9 1422.4,1217.9 
			1425.5,1221.3 1426.1,1223.7 1428.5,1227.1 1431.6,1229.2 1431.8,1232.2 1432.5,1234.1 1432.1,1237.7 1426.8,1236.1 
			1421.4,1234.4 		"/>
	</g>
</g>
</svg>
