<?xml version="1.0" encoding="UTF-8"?>
<svg width="408px" height="298px" viewBox="0 0 408 298" version="1.1" xmlns="http://www.w3.org/2000/svg" xmlns:xlink="http://www.w3.org/1999/xlink">
    <!-- Generator: Sketch 43.2 (39069) - http://www.bohemiancoding.com/sketch -->
    <title>CN</title>
    <desc>Created with Sketch.</desc>
    <defs></defs>
    <g id="Map-countries" stroke="none" stroke-width="1" fill="none" fill-rule="evenodd">
        <g id="Artboard" transform="translate(-1802.000000, -830.000000)" stroke="#FFFFFF" stroke-width="0.5" fill="#B1B2B3">
            <path d="M2045.70502,1124.25771 L2039.99154,1127.5867 L2034.56137,1125.4382 L2034.37249,1119.46492 L2037.63059,1116.3012 L2044.85508,1114.34158 L2048.6562,1114.50685 L2050.1436,1117.17476 L2047.23964,1120.24404 L2045.70502,1124.25771 L2045.70502,1124.25771 Z M2160.35245,870.404808 L2171.87386,873.662965 L2179.71219,880.816743 L2182.38006,890.142627 L2192.43768,890.142627 L2198.17477,886.247005 L2209.10594,883.319386 L2205.63535,892.196682 L2203.06193,895.761767 L2200.79542,906.291751 L2196.33324,915.475975 L2188.30603,913.823287 L2182.61615,917.128664 L2184.36325,925.061567 L2183.41887,935.80404 L2180.04272,936.040138 L2180.08994,940.596836 L2175.81663,935.308233 L2173.19599,940.337127 L2162.9731,944.16192 L2164.01192,948.813057 L2158.29843,948.482519 L2155.15838,945.720169 L2150.60175,951.953164 L2143.30644,956.627911 L2137.92349,962.176221 L2128.66859,964.678863 L2123.80504,968.668925 L2116.67499,970.982688 L2120.1928,967.039846 L2118.79984,963.71086 L2124.04114,957.926452 L2120.54694,953.369754 L2114.78624,956.439032 L2107.30205,962.435929 L2103.21761,967.96063 L2096.72502,968.361997 L2093.34887,972.328449 L2096.84306,978.018418 L2102.24963,979.387788 L2102.46211,983.118141 L2107.70341,985.526344 L2115.11677,979.600276 L2120.99552,982.834823 L2125.26883,983.047312 L2126.35486,987.391521 L2116.98192,989.681674 L2113.88908,994.096713 L2107.4437,998.181214 L2104.04394,1003.82396 L2111.17399,1008.21539 L2113.77103,1016.03025 L2117.80825,1023.23124 L2122.29404,1029.20453 L2122.17599,1034.94172 L2118.02073,1037.043 L2119.60256,1041.1275 L2123.49812,1043.48848 L2122.48291,1049.65065 L2120.80664,1055.60032 L2117.09996,1056.2614 L2112.26003,1064.31235 L2106.90069,1073.96877 L2100.76223,1082.65719 L2091.64899,1089.31516 L2082.44131,1095.33567 L2074.98073,1096.16201 L2070.94351,1099.32573 L2068.6534,1097.01197 L2064.8995,1100.55344 L2055.6446,1104.09492 L2048.63259,1105.18097 L2046.36609,1112.61806 L2042.70662,1113.01943 L2040.95953,1107.91971 L2042.51775,1105.18097 L2033.6406,1102.91442 L2030.50054,1104.07131 L2023.84268,1102.22974 L2020.70263,1099.34934 L2021.74144,1095.24123 L2015.69743,1093.94269 L2012.51015,1091.25117 L2006.8675,1095.07596 L2000.42212,1095.9023 L1995.13361,1095.85508 L1991.59219,1097.60221 L1988.16882,1098.64104 L1989.16042,1106.73922 L1985.619,1106.55034 L1985.02877,1104.89765 L1984.83989,1101.97003 L1979.97635,1104.02409 L1977.1196,1102.72555 L1972.20884,1100.05763 L1974.14482,1094.13157 L1969.94234,1092.73859 L1968.3605,1086.12783 L1961.37211,1087.33194 L1962.17483,1078.76157 L1968.45494,1072.67023 L1968.71464,1066.6025 L1968.52577,1060.93614 L1965.64542,1059.16541 L1963.42613,1054.77398 L1959.55418,1055.34061 L1952.42413,1054.23095 L1954.66703,1051.09084 L1951.57419,1046.39249 L1946.85231,1049.57982 L1941.28048,1047.73825 L1933.65463,1052.53104 L1927.63422,1058.10296 L1922.29849,1059.02375 L1919.39453,1057.01691 L1915.90033,1056.82803 L1911.17844,1055.10452 L1907.61342,1056.9933 L1903.24567,1062.518 L1902.67905,1056.66276 L1898.64183,1058.22101 L1890.92155,1057.48911 L1883.43736,1055.76559 L1878.0544,1052.48382 L1872.90755,1050.99641 L1870.68826,1047.3841 L1866.95797,1046.29805 L1860.2765,1041.36359 L1854.96437,1039.02622 L1852.22568,1040.84418 L1843.018,1035.50836 L1836.5254,1030.62112 L1834.66026,1022.05075 L1839.40575,1023.08959 L1839.61824,1019.09952 L1836.97398,1015.06224 L1837.63505,1008.59315 L1830.5286,999.172826 L1819.64465,995.89106 L1817.68507,989.610845 L1812.79792,985.762442 L1811.61744,983.377849 L1810.62585,978.632273 L1810.86194,975.374117 L1806.84834,973.46172 L1804.67627,974.311674 L1803,966.47321 L1804.88876,964.513594 L1803.96799,962.506759 L1810.29532,958.422258 L1814.87555,956.72235 L1821.88755,957.879232 L1824.39015,952.330922 L1832.88955,951.292089 L1835.25049,947.797834 L1845.68586,943.005038 L1846.60663,940.998203 L1846.08722,935.874869 L1850.62024,933.513886 L1844.67066,917.57725 L1857.7739,913.846897 L1861.17366,911.745622 L1865.94276,894.604885 L1879.06961,897.792212 L1882.75268,893.400783 L1883.0596,883.508264 L1888.5606,882.587481 L1893.58941,875.905899 L1896.18645,875.079555 L1897.93355,882.091674 L1903.50538,887.356667 L1912.94915,891.06341 L1917.50577,898.901874 L1914.95595,910.069324 L1917.34051,914.153825 L1925.20245,915.759293 L1934.12682,917.057834 L1942.13042,922.842243 L1946.21485,923.857465 L1949.23686,932.286175 L1953.13242,937.645607 L1960.42773,937.433118 L1974.0976,939.439954 L1982.90392,938.188633 L1989.44373,939.534393 L1999.24165,944.941045 L2007.24525,944.941045 L2010.17282,947.679785 L2017.86949,942.934209 L2028.56457,939.841321 L2038.48053,939.510783 L2046.22443,936.347066 L2050.96993,931.507051 L2055.59738,928.437773 L2054.53495,925.415714 L2052.4101,921.87424 L2055.88069,915.877343 L2059.61098,916.727296 L2066.4105,918.616083 L2072.99753,913.658018 L2083.10237,909.998495 L2087.94231,903.71828 L2092.59337,900.979539 L2102.20241,899.704608 L2107.42009,900.790661 L2108.15199,897.367235 L2102.15519,890.543994 L2096.84306,887.403886 L2091.74343,891.0398 L2085.20361,889.505161 L2081.44971,890.756482 L2079.74983,886.719201 L2084.4245,876.732243 L2087.65899,869.059048 L2095.61537,872.90745 L2104.9411,866.438356 L2104.87027,861.881659 L2110.84346,850.714209 L2114.52653,847.290783 L2114.4321,841.341106 L2110.79624,838.744025 L2116.27363,833.290154 L2124.48972,831.306928 L2133.27243,831 L2143.18839,834.281767 L2148.99631,838.319048 L2153.08075,849.20318 L2155.55974,853.783487 L2157.87346,860.228971 L2160.35245,870.404808 L2160.35245,870.404808 Z" id="CN"></path>
        </g>
    </g>
</svg>