<?xml version="1.0" encoding="utf-8"?>
<!-- Generator: Adobe Illustrator 21.1.0, SVG Export Plug-In . SVG Version: 6.00 Build 0)  -->
<svg version="1.1" id="Layer_1" xmlns="http://www.w3.org/2000/svg" xmlns:xlink="http://www.w3.org/1999/xlink" x="0px" y="0px"
	 viewBox="0 0 408 408" style="enable-background:new 0 0 408 408;" xml:space="preserve">
<style type="text/css">
	.st0{fill:#B1B2B3;stroke:#FFFFFF;stroke-width:0.5;}
</style>
<title>CN</title>
<desc>Created with Sketch.</desc>
<g id="Map-countries">
	<g id="Artboard" transform="translate(-1802.000000, -830.000000)">
		<path id="CN" class="st0" d="M2045.7,1179.3l-5.7,3.3l-5.4-2.1l-0.2-6l3.3-3.2l7.2-2l3.8,0.2l1.5,2.7l-2.9,3.1L2045.7,1179.3
			L2045.7,1179.3z M2160.4,925.4l11.5,3.3l7.8,7.2l2.7,9.3h10.1l5.7-3.9l10.9-2.9l-3.5,8.9l-2.6,3.6l-2.3,10.5l-4.5,9.2l-8-1.7
			l-5.7,3.3l1.7,7.9l-0.9,10.7l-3.4,0.2l0,4.6l-4.3-5.3l-2.6,5l-10.2,3.8l1,4.7l-5.7-0.3l-3.1-2.8l-4.6,6.2l-7.3,4.7l-5.4,5.5
			l-9.3,2.5l-4.9,4l-7.1,2.3l3.5-3.9l-1.4-3.3l5.2-5.8l-3.5-4.6l-5.8,3.1l-7.5,6l-4.1,5.5l-6.5,0.4l-3.4,4l3.5,5.7l5.4,1.4l0.2,3.7
			l5.2,2.4l7.4-5.9l5.9,3.2l4.3,0.2l1.1,4.3l-9.4,2.3l-3.1,4.4l-6.4,4.1l-3.4,5.6l7.1,4.4l2.6,7.8l4,7.2l4.5,6l-0.1,5.7l-4.2,2.1
			l1.6,4.1l3.9,2.4l-1,6.2l-1.7,5.9l-3.7,0.7l-4.8,8.1l-5.4,9.7l-6.1,8.7l-9.1,6.7l-9.2,6l-7.5,0.8l-4,3.2l-2.3-2.3l-3.8,3.5
			l-9.3,3.5l-7,1.1l-2.3,7.4l-3.7,0.4l-1.7-5.1l1.6-2.7l-8.9-2.3l-3.1,1.2l-6.7-1.8l-3.1-2.9l1-4.1l-6-1.3l-3.2-2.7l-5.6,3.8
			l-6.4,0.8l-5.3,0l-3.5,1.7l-3.4,1l1,8.1l-3.5-0.2l-0.6-1.7l-0.2-2.9l-4.9,2.1l-2.9-1.3l-4.9-2.7l1.9-5.9l-4.2-1.4l-1.6-6.6l-7,1.2
			l0.8-8.6l6.3-6.1l0.3-6.1l-0.2-5.7l-2.9-1.8l-2.2-4.4l-3.9,0.6l-7.1-1.1l2.2-3.1l-3.1-4.7l-4.7,3.2l-5.6-1.8l-7.6,4.8l-6,5.6
			l-5.3,0.9l-2.9-2l-3.5-0.2l-4.7-1.7l-3.6,1.9l-4.4,5.5l-0.6-5.9l-4,1.6l-7.7-0.7l-7.5-1.7l-5.4-3.3l-5.1-1.5l-2.2-3.6l-3.7-1.1
			l-6.7-4.9l-5.3-2.3l-2.7,1.8l-9.2-5.3l-6.5-4.9l-1.9-8.6l4.7,1l0.2-4l-2.6-4l0.7-6.5l-7.1-9.4l-10.9-3.3l-2-6.3l-4.9-3.8l-1.2-2.4
			l-1-4.7l0.2-3.3l-4-1.9l-2.2,0.8l-1.7-7.8l1.9-2l-0.9-2l6.3-4.1l4.6-1.7l7,1.2l2.5-5.5l8.5-1l2.4-3.5l10.4-4.8l0.9-2l-0.5-5.1
			l4.5-2.4l-5.9-15.9l13.1-3.7l3.4-2.1l4.8-17.1l13.1,3.2l3.7-4.4l0.3-9.9l5.5-0.9l5-6.7l2.6-0.8l1.7,7l5.6,5.3l9.4,3.7l4.6,7.8
			l-2.5,11.2l2.4,4.1l7.9,1.6l8.9,1.3l8,5.8l4.1,1l3,8.4l3.9,5.4l7.3-0.2l13.7,2l8.8-1.3l6.5,1.3l9.8,5.4h8l2.9,2.7l7.7-4.7
			l10.7-3.1l9.9-0.3l7.7-3.2l4.7-4.8l4.6-3.1l-1.1-3l-2.1-3.5l3.5-6l3.7,0.8l6.8,1.9l6.6-5l10.1-3.7l4.8-6.3l4.7-2.7l9.6-1.3
			l5.2,1.1l0.7-3.4l-6-6.8l-5.3-3.1l-5.1,3.6l-6.5-1.5l-3.8,1.3l-1.7-4l4.7-10l3.2-7.7l8,3.8l9.3-6.5l-0.1-4.6l6-11.2l3.7-3.4
			l-0.1-5.9l-3.6-2.6l5.5-5.5l8.2-2l8.8-0.3l9.9,3.3l5.8,4l4.1,10.9l2.5,4.6l2.3,6.4L2160.4,925.4L2160.4,925.4z"/>
	</g>
</g>
</svg>
