<?xml version="1.0" encoding="utf-8"?>
<!-- Generator: Adobe Illustrator 21.1.0, SVG Export Plug-In . SVG Version: 6.00 Build 0)  -->
<svg version="1.1" id="Layer_1" xmlns="http://www.w3.org/2000/svg" xmlns:xlink="http://www.w3.org/1999/xlink" x="0px" y="0px"
	 viewBox="0 0 112 112" style="enable-background:new 0 0 112 112;" xml:space="preserve">
<style type="text/css">
	.st0{fill:#B1B2B3;stroke:#FFFFFF;stroke-width:0.5;}
</style>
<title>CO</title>
<desc>Created with Sketch.</desc>
<g id="Map-countries">
	<g id="Artboard" transform="translate(-791.000000, -1166.000000)">
		<polygon id="CO" class="st0" points="831.1,1250 828.3,1248.5 825,1246.3 823.1,1247.4 817.5,1246.4 815.9,1243.6 814.7,1243.7 
			808,1240 807.1,1237.9 809.6,1237.4 809.3,1234.1 810.9,1231.8 814.1,1231.3 817,1227.2 819.5,1223.7 817,1222.1 818.3,1218.3 
			816.8,1212.3 818.2,1210.5 817.2,1205 814.5,1201.4 815.3,1198.2 817.5,1198.7 818.7,1196.7 817.2,1192.8 818,1191.8 821.4,1192 
			826.4,1187.4 829.1,1186.7 829.2,1184.5 830.4,1178.8 834.2,1175.7 838.3,1175.6 838.9,1174.2 844.1,1174.7 849.3,1171.4 
			851.9,1169.8 855,1166.6 857.4,1167 859.1,1168.8 857.8,1171 853.6,1172.2 851.9,1175.5 849.4,1177.4 847.4,1179.9 846.6,1184.7 
			844.8,1188.6 848.2,1189 849,1192.1 850.5,1193.6 851,1196.2 850.2,1198.7 850.5,1200.1 852.1,1200.6 853.7,1202.9 862.2,1202.3 
			866,1203.2 870.7,1208.8 873.4,1208.1 878.2,1208.5 881.9,1207.7 884.3,1208.9 883.1,1212.4 881.6,1214.7 881.1,1219.4 
			882.4,1223.8 884.3,1225.7 884.5,1227.2 881.2,1230.5 883.6,1231.9 885.3,1234.3 887.3,1240.8 886.1,1241.6 884.8,1237.7 
			883,1235.6 880.8,1237.9 867.9,1237.8 868,1241.9 871.8,1242.6 871.6,1245.1 870.3,1244.4 866.6,1245.5 866.5,1250.3 
			869.5,1252.7 870.5,1256.4 870.3,1259.3 867.4,1277.3 864.1,1273.8 862.1,1273.7 866.3,1267 861.3,1263.9 857.3,1264.4 
			854.9,1263.3 851.3,1265.1 846.3,1264.2 842.4,1257.3 839.4,1255.6 837.3,1252.5 832.9,1249.4 		"/>
	</g>
</g>
</svg>
