<?xml version="1.0" encoding="UTF-8"?>
<svg width="82px" height="112px" viewBox="0 0 82 112" version="1.1" xmlns="http://www.w3.org/2000/svg" xmlns:xlink="http://www.w3.org/1999/xlink">
    <!-- Generator: Sketch 43.2 (39069) - http://www.bohemiancoding.com/sketch -->
    <title>CO</title>
    <desc>Created with Sketch.</desc>
    <defs></defs>
    <g id="Map-countries" stroke="none" stroke-width="1" fill="none" fill-rule="evenodd">
        <g id="Artboard" transform="translate(-791.000000, -1166.000000)" stroke-width="0.5" stroke="#FFFFFF" fill="#B1B2B3">
            <polygon id="CO" points="816.100286 1250.04757 813.267154 1248.48932 810.009051 1246.31722 808.120296 1247.35605 802.50125 1246.43527 800.895808 1243.60209 799.668117 1243.72014 793.033865 1239.96618 792.136707 1237.91212 794.615698 1237.41631 794.332384 1234.13455 795.866998 1231.74995 799.14871 1231.30137 801.958233 1227.16965 804.484443 1223.72261 802.029061 1222.14075 803.280361 1218.31596 801.792967 1212.27184 803.209533 1210.54833 802.170718 1204.9528 799.479242 1201.41132 800.329182 1198.20038 802.47764 1198.67258 803.728941 1196.68935 802.194327 1192.79373 802.997048 1191.80212 806.396807 1192.01461 811.378399 1187.36347 814.093484 1186.65518 814.164312 1184.45946 815.392003 1178.81671 819.193123 1175.70022 823.348384 1175.58217 823.867791 1174.18919 829.061868 1174.73221 834.279553 1171.35601 836.852982 1169.84498 840.040256 1166.61043 842.4012 1167.0118 844.124689 1168.78253 842.849779 1171.04908 838.600081 1172.18235 836.92381 1175.53495 834.350382 1177.44734 832.438017 1179.94998 831.611687 1184.69556 829.79376 1188.61479 833.193519 1189.03977 834.043459 1192.10905 835.507244 1193.57286 836.026652 1196.24077 835.24754 1198.69619 835.483635 1200.08917 837.112686 1200.6322 838.694518 1202.94596 847.193916 1202.30849 851.042254 1203.15845 855.716923 1208.84842 858.38479 1208.14012 863.153896 1208.49427 866.931406 1207.73876 869.26874 1208.89564 868.064659 1212.43711 866.600874 1214.65644 866.081466 1219.40201 867.403595 1223.76983 869.29235 1225.72945 869.504835 1227.21687 866.152295 1230.49863 868.560457 1231.93883 870.331165 1234.2526 872.337967 1240.79252 871.086667 1241.61886 869.811758 1237.72324 867.970221 1235.64558 865.774544 1237.91212 852.883791 1237.77046 852.954619 1241.87857 856.826567 1242.56326 856.614082 1245.08951 855.291953 1244.40482 851.561662 1245.49088 851.538053 1250.26006 854.465623 1252.66826 855.504438 1256.42223 855.339172 1259.27902 852.364383 1277.34054 849.059062 1273.82267 847.075869 1273.68101 851.349177 1266.97582 846.273148 1263.88293 842.306762 1264.44957 839.922209 1263.3163 836.262746 1265.06343 831.328374 1264.23708 827.432816 1257.34301 824.363589 1255.6431 822.262349 1252.52661 817.870994 1249.41011"></polygon>
        </g>
    </g>
</svg>