<?xml version="1.0" encoding="utf-8"?>
<!-- Generator: Adobe Illustrator 21.1.0, SVG Export Plug-In . SVG Version: 6.00 Build 0)  -->
<svg version="1.1" id="Layer_1" xmlns="http://www.w3.org/2000/svg" xmlns:xlink="http://www.w3.org/1999/xlink" x="0px" y="0px"
	 viewBox="0 0 23 23" style="enable-background:new 0 0 23 23;" xml:space="preserve">
<style type="text/css">
	.st0{fill:#B1B2B3;stroke:#FFFFFF;stroke-width:0.5;}
</style>
<title>CR</title>
<desc>Created with Sketch.</desc>
<g id="Map-countries">
	<g id="Artboard" transform="translate(-746.000000, -1174.000000)">
		<polygon id="CR" class="st0" points="765.8,1195.3 762.2,1193.8 760.9,1192.4 761.7,1191.2 761.4,1189.8 759.6,1188.2 757,1186.9 
			754.7,1186 754.3,1184.1 752.5,1182.9 752.9,1184.8 751.6,1186.4 750.1,1184.6 748,1183.9 747.1,1182.6 747.1,1180.5 748,1178.4 
			746.1,1177.5 747.7,1176.2 748.6,1175.3 753,1177.1 754.5,1176.2 756.6,1176.8 757.7,1178.1 759.7,1178.6 761.3,1177.2 
			763,1180.8 765.5,1183.5 768.6,1186.4 766,1186.9 766.1,1189.6 767.5,1190.6 766.5,1191.4 766.7,1192.6 766.2,1194 		"/>
	</g>
</g>
</svg>
