<?xml version="1.0" encoding="UTF-8"?>
<svg width="23px" height="22px" viewBox="0 0 23 22" version="1.1" xmlns="http://www.w3.org/2000/svg" xmlns:xlink="http://www.w3.org/1999/xlink">
    <!-- Generator: Sketch 43.2 (39069) - http://www.bohemiancoding.com/sketch -->
    <title>CR</title>
    <desc>Created with Sketch.</desc>
    <defs></defs>
    <g id="Map-countries" stroke="none" stroke-width="1" fill="none" fill-rule="evenodd">
        <g id="Artboard" transform="translate(-746.000000, -1174.000000)" stroke-width="0.5" stroke="#FFFFFF" fill="#B1B2B3">
            <polygon id="CR" points="765.835793 1194.77696 762.247158 1193.28954 760.90142 1191.89656 761.656922 1190.73968 761.420828 1189.27587 759.579292 1187.6704 756.982254 1186.37186 754.692138 1185.5219 754.267168 1183.56229 752.52007 1182.35819 752.94504 1184.3178 751.622911 1185.89966 750.111907 1184.0581 747.987058 1183.39702 747.089899 1182.05126 747.137118 1180.02081 748.010667 1177.89593 746.145522 1176.95154 747.656526 1175.67661 748.648122 1174.80304 753.015868 1176.57378 754.526872 1175.70022 756.628112 1176.26685 757.737756 1177.63622 759.67373 1178.08481 761.255562 1176.66822 762.955441 1180.30413 765.505261 1182.99565 768.621706 1185.85244 766.048278 1186.44269 766.095497 1189.1106 767.464844 1190.10221 766.473248 1190.90495 766.732951 1192.10905 766.189934 1193.45481"></polygon>
        </g>
    </g>
</svg>