<?xml version="1.0" encoding="utf-8"?>
<!-- Generator: Adobe Illustrator 21.1.0, SVG Export Plug-In . SVG Version: 6.00 Build 0)  -->
<svg version="1.1" id="Layer_1" xmlns="http://www.w3.org/2000/svg" xmlns:xlink="http://www.w3.org/1999/xlink" x="0px" y="0px"
	 viewBox="0 0 73 73" style="enable-background:new 0 0 73 73;" xml:space="preserve">
<style type="text/css">
	.st0{fill:#B1B2B3;stroke:#FFFFFF;stroke-width:0.5;}
</style>
<title>CU</title>
<desc>Created with Sketch.</desc>
<g id="Map-countries">
	<g id="Artboard" transform="translate(-752.000000, -1091.000000)">
		<polygon id="CU" class="st0" points="770.4,1115.7 776.2,1116.2 781.4,1116.3 787.6,1118.7 790.2,1121.3 796.4,1120.5 
			798.7,1122.2 804.4,1126.6 808.5,1129.8 810.6,1129.7 814.6,1131.1 814.1,1133.1 819,1133.4 824,1136.3 823.2,1137.9 
			818.8,1138.8 814.4,1139.1 809.8,1138.6 800.3,1139.3 804.8,1135.3 802.1,1133.5 797.8,1133 795.5,1131 793.9,1127 790.2,1127.3 
			784,1125.4 782,1123.9 773.4,1122.8 771.1,1121.4 773.6,1119.6 767.1,1119.3 762.3,1122.9 759.6,1123 758.6,1124.8 755.4,1125.6 
			752.5,1124.9 756,1122.7 757.5,1120.1 760.5,1118.5 763.8,1117.1 768.9,1116.4 		"/>
	</g>
</g>
</svg>
