<?xml version="1.0" encoding="UTF-8"?>
<svg width="73px" height="26px" viewBox="0 0 73 26" version="1.1" xmlns="http://www.w3.org/2000/svg" xmlns:xlink="http://www.w3.org/1999/xlink">
    <!-- Generator: Sketch 43.2 (39069) - http://www.bohemiancoding.com/sketch -->
    <title>CU</title>
    <desc>Created with Sketch.</desc>
    <defs></defs>
    <g id="Map-countries" stroke="none" stroke-width="1" fill="none" fill-rule="evenodd">
        <g id="Artboard" transform="translate(-752.000000, -1091.000000)" stroke-width="0.5" stroke="#FFFFFF" fill="#B1B2B3">
            <polygon id="CU" points="770.439633 1092.16863 776.176727 1092.68805 781.370803 1092.75888 787.580085 1095.19069 790.224342 1097.81138 796.410015 1097.00865 798.747349 1098.66134 804.366396 1103.07637 808.474438 1106.2637 810.646506 1106.16926 814.612892 1107.60946 814.117093 1109.59269 819.004247 1109.87601 824.009448 1112.75641 823.230336 1114.38548 818.815372 1115.28266 814.353188 1115.6368 809.796566 1115.07017 800.329182 1115.75485 804.767756 1111.83562 802.07628 1110.01767 797.802972 1109.54547 795.512856 1107.51502 793.931024 1103.50135 790.200733 1103.76106 784.01506 1101.87227 782.031867 1100.38485 773.414422 1099.27519 771.100697 1097.88221 773.579688 1096.11147 767.087093 1095.75733 762.341596 1099.44046 759.579292 1099.5349 758.634914 1101.28203 755.376812 1102.06115 752.543679 1101.37647 756.037876 1099.18075 757.454442 1096.60728 760.452841 1095.02542 763.828991 1093.63244 768.857801 1092.94776"></polygon>
        </g>
    </g>
</svg>