<?xml version="1.0" encoding="UTF-8"?>
<svg width="46px" height="28px" viewBox="0 0 46 28" version="1.1" xmlns="http://www.w3.org/2000/svg" xmlns:xlink="http://www.w3.org/1999/xlink">
    <!-- Generator: Sketch 43.2 (39069) - http://www.bohemiancoding.com/sketch -->
    <title>CZ</title>
    <desc>Created with Sketch.</desc>
    <defs></defs>
    <g id="Map-countries" stroke="none" stroke-width="1" fill="none" fill-rule="evenodd">
        <g id="Artboard" transform="translate(-1395.000000, -855.000000)" stroke-width="0.5" stroke="#FFFFFF" fill="#B1B2B3">
            <polygon id="CZ" points="1427.32503 881.852258 1424.2558 879.963472 1421.16296 880.482888 1416.0161 877.41361 1413.67877 878.169124 1409.97209 882.277235 1405.03772 879.042688 1401.30742 874.722089 1397.93127 872.266667 1397.22299 867.969677 1396.06613 864.900399 1400.88245 862.657465 1403.33784 860.060384 1408.08333 858.029939 1409.7596 856.046713 1411.5067 857.250814 1414.45788 856.141152 1417.59794 859.517358 1422.53231 860.438141 1422.13095 863.294931 1425.71958 865.419816 1426.71118 862.751905 1431.24419 863.908786 1431.88165 867.143333 1436.79241 867.757189 1439.83803 872.786083 1437.87844 872.809693 1436.83963 874.62765 1435.32862 875.076237 1434.90365 877.36639 1433.62875 877.862197 1433.43987 878.78298 1431.19697 879.821813 1428.24579 879.656544"></polygon>
        </g>
    </g>
</svg>