<?xml version="1.0" encoding="utf-8"?>
<!-- Generator: Adobe Illustrator 21.1.0, SVG Export Plug-In . SVG Version: 6.00 Build 0)  -->
<svg version="1.1" id="Layer_1" xmlns="http://www.w3.org/2000/svg" xmlns:xlink="http://www.w3.org/1999/xlink" x="0px" y="0px"
	 viewBox="0 0 46 46" style="enable-background:new 0 0 46 46;" xml:space="preserve">
<style type="text/css">
	.st0{fill:#B1B2B3;stroke:#FFFFFF;stroke-width:0.5;}
</style>
<title>CZ</title>
<desc>Created with Sketch.</desc>
<g id="Map-countries">
	<g id="Artboard" transform="translate(-1395.000000, -855.000000)">
		<polygon id="CZ" class="st0" points="1427.3,890.9 1424.3,889 1421.2,889.5 1416,886.4 1413.7,887.2 1410,891.3 1405,888 
			1401.3,883.7 1397.9,881.3 1397.2,877 1396.1,873.9 1400.9,871.7 1403.3,869.1 1408.1,867 1409.8,865 1411.5,866.3 1414.5,865.1 
			1417.6,868.5 1422.5,869.4 1422.1,872.3 1425.7,874.4 1426.7,871.8 1431.2,872.9 1431.9,876.1 1436.8,876.8 1439.8,881.8 
			1437.9,881.8 1436.8,883.6 1435.3,884.1 1434.9,886.4 1433.6,886.9 1433.4,887.8 1431.2,888.8 1428.2,888.7 		"/>
	</g>
</g>
</svg>
