<?xml version="1.0" encoding="utf-8"?>
<!-- Generator: Adobe Illustrator 21.1.0, SVG Export Plug-In . SVG Version: 6.00 Build 0)  -->
<svg version="1.1" id="Layer_1" xmlns="http://www.w3.org/2000/svg" xmlns:xlink="http://www.w3.org/1999/xlink" x="0px" y="0px"
	 viewBox="0 0 82 82" style="enable-background:new 0 0 82 82;" xml:space="preserve">
<style type="text/css">
	.st0{fill:#B1B2B3;stroke:#FFFFFF;stroke-width:0.5;}
</style>
<title>DE</title>
<desc>Created with Sketch.</desc>
<g id="Map-countries">
	<g id="Artboard" transform="translate(-1354.000000, -813.000000)">
		<polygon id="DE" class="st0" points="1390.9,813.5 1391,817.9 1397.7,820.5 1397.7,824.6 1404.4,822.4 1408.1,819.3 1415.6,823.8 
			1418.7,827.4 1420.3,833 1418.4,836 1420.8,839.9 1422.5,845.6 1421.9,849.3 1424.7,856.1 1421.7,857.2 1420,856 1418.3,858 
			1413.5,860 1411.1,862.6 1406.3,864.8 1407.4,867.9 1408.1,872.2 1411.5,874.7 1415.2,879 1412.9,883.6 1410.5,884.9 
			1411.5,891.3 1410.8,892.9 1408.8,890.9 1405.6,890.6 1400.9,892.4 1395.1,892 1394.1,894.5 1390.8,891.8 1388.7,892.4 
			1381.7,889.4 1380.3,891.5 1374.7,891.4 1375.5,884.4 1378.9,877.6 1369.3,875.7 1366.2,873.1 1366.6,868.6 1365.3,866.3 
			1366,859.3 1364.9,848.2 1368.9,848.2 1370.5,844.2 1372.2,834.2 1370.9,830.4 1372.2,828.1 1377.8,827.5 1379,829.9 
			1383.5,824.4 1382,820.2 1381.7,813.7 1386.7,815.2 		"/>
	</g>
</g>
</svg>
