<?xml version="1.0" encoding="UTF-8"?>
<svg width="61px" height="82px" viewBox="0 0 61 82" version="1.1" xmlns="http://www.w3.org/2000/svg" xmlns:xlink="http://www.w3.org/1999/xlink">
    <!-- Generator: Sketch 43.2 (39069) - http://www.bohemiancoding.com/sketch -->
    <title>DE</title>
    <desc>Created with Sketch.</desc>
    <defs></defs>
    <g id="Map-countries" stroke="none" stroke-width="1" fill="none" fill-rule="evenodd">
        <g id="Artboard" transform="translate(-1354.000000, -813.000000)" stroke-width="0.5" stroke="#FFFFFF" fill="#B1B2B3">
            <polygon id="DE" points="1380.71999 813.525407 1380.83804 817.964055 1387.54312 820.608356 1387.47229 824.622028 1394.20098 822.497143 1397.90767 819.404255 1405.39186 823.866513 1408.5083 827.431598 1410.06653 833.074347 1408.22499 836.025576 1410.60954 839.921198 1412.2622 845.705607 1411.7428 849.38874 1414.45788 856.141152 1411.5067 857.250814 1409.7596 856.046713 1408.08333 858.029939 1403.33784 860.060384 1400.88245 862.657465 1396.06613 864.900399 1397.22299 867.969677 1397.93127 872.266667 1401.30742 874.722089 1405.03772 879.042688 1402.72399 883.646605 1400.33944 884.921536 1401.28382 891.34341 1400.64636 892.996098 1398.59234 890.989263 1395.42867 890.705945 1390.68318 892.453072 1384.85165 892.028095 1383.90727 894.601567 1380.55473 891.910046 1378.54793 892.429462 1371.46509 889.454624 1370.09575 891.579508 1364.4767 891.508679 1365.30303 884.472949 1368.65557 877.626098 1359.11736 875.784531 1356.00091 873.116621 1356.37866 868.654363 1355.05654 866.340599 1355.81204 859.328479 1354.67878 848.255469 1358.66878 848.255469 1360.34505 844.218187 1361.99771 834.231229 1360.74641 830.500876 1362.04493 828.139892 1367.56954 827.526037 1368.79723 829.981459 1373.30663 824.480369 1371.79563 820.254209 1371.4887 813.761505 1376.49391 815.272535"></polygon>
        </g>
    </g>
</svg>