<?xml version="1.0" encoding="utf-8"?>
<!-- Generator: Adobe Illustrator 21.1.0, SVG Export Plug-In . SVG Version: 6.00 Build 0)  -->
<svg version="1.1" id="Layer_1" xmlns="http://www.w3.org/2000/svg" xmlns:xlink="http://www.w3.org/1999/xlink" x="0px" y="0px"
	 viewBox="0 0 138 138" style="enable-background:new 0 0 138 138;" xml:space="preserve">
<style type="text/css">
	.st0{fill:#B1B2B3;stroke:#FFFFFF;stroke-width:0.5;}
</style>
<title>DZ</title>
<desc>Created with Sketch.</desc>
<g id="Map-countries">
	<g id="Artboard" transform="translate(-1257.000000, -985.000000)">
		<polygon id="DZ" class="st0" points="1394.5,1090.6 1371.8,1104.2 1352.6,1118 1343.3,1121.1 1336,1121.8 1335.9,1117.4 
			1332.8,1116.3 1328.7,1114.2 1327.1,1111 1304.8,1095.5 1282.5,1079.8 1257.5,1062 1257.7,1060.6 1257.7,1060.1 1257.6,1051.2 
			1268.3,1045.7 1274.9,1044.5 1280.3,1042.5 1282.9,1038.6 1290.6,1035.6 1290.9,1029.9 1294.7,1029.2 1297.7,1026.4 
			1306.4,1025.1 1307.6,1022 1305.9,1020.4 1303.6,1012 1303.2,1007.2 1300.7,1002 1307,997.6 1314.2,996.2 1318.4,992.8 
			1324.8,990.3 1336,988.9 1346.9,988.2 1350.3,989.4 1356.5,986.2 1363.6,986.1 1366.3,988 1370.8,987.5 1369.4,991.8 
			1370.5,999.5 1368.9,1006.2 1364.9,1010.6 1365.4,1016.6 1370.9,1021.2 1370.9,1023.2 1375,1026.3 1377.8,1040.1 1380,1046.8 
			1380.3,1050.3 1379.2,1056.5 1379.6,1059.9 1378.8,1063.9 1379.4,1068.6 1376.7,1071.6 1380.6,1076.9 1380.9,1080.1 
			1383.2,1084.1 1386.3,1082.8 1391.6,1086.1 		"/>
	</g>
</g>
</svg>
