<?xml version="1.0" encoding="UTF-8"?>
<svg width="138px" height="137px" viewBox="0 0 138 137" version="1.1" xmlns="http://www.w3.org/2000/svg" xmlns:xlink="http://www.w3.org/1999/xlink">
    <!-- Generator: Sketch 43.2 (39069) - http://www.bohemiancoding.com/sketch -->
    <title>DZ</title>
    <desc>Created with Sketch.</desc>
    <defs></defs>
    <g id="Map-countries" stroke="none" stroke-width="1" fill="none" fill-rule="evenodd">
        <g id="Artboard" transform="translate(-1257.000000, -985.000000)" stroke-width="0.5" stroke="#FFFFFF" fill="#B1B2B3">
            <polygon id="DZ" points="1394.4843 1090.13819 1371.79563 1103.71384 1352.62476 1117.52559 1343.29904 1120.64209 1335.9565 1121.32677 1335.88567 1116.88813 1332.81645 1115.75485 1328.68479 1113.74802 1327.12657 1110.46625 1304.79204 1095.00181 1282.45751 1079.30127 1257.54956 1061.52307 1257.69121 1060.08287 1257.69121 1059.58707 1257.62039 1050.73338 1268.31546 1045.16146 1274.9261 1044.00458 1280.33266 1041.97413 1282.88248 1038.14934 1290.62638 1035.10367 1290.90969 1029.4137 1294.73442 1028.72902 1297.73282 1025.87223 1306.39748 1024.55008 1307.60157 1021.52802 1305.85447 1019.85172 1303.56435 1011.51745 1303.1866 1006.67743 1300.684 1001.53049 1307.03494 997.115453 1314.21221 995.698863 1318.39108 992.322657 1324.76563 989.843625 1335.98011 988.379816 1346.93489 987.695131 1350.26382 988.922842 1356.49671 985.688295 1363.57954 985.617465 1366.27102 987.529862 1370.78042 987.034055 1369.43468 991.260215 1370.49711 999.00424 1368.93889 1005.66221 1364.85445 1010.10086 1365.44469 1016.07415 1370.85125 1020.74889 1370.92208 1022.66129 1374.9829 1025.8014 1377.81603 1039.63676 1379.96449 1046.34195 1380.31863 1049.83621 1379.16177 1055.95115 1379.63396 1059.35097 1378.78402 1063.41186 1379.37426 1068.063 1376.73 1071.10866 1380.64917 1076.44449 1380.90887 1079.56098 1383.2462 1083.59826 1386.33904 1082.27611 1391.58034 1085.62871"></polygon>
        </g>
    </g>
</svg>