<?xml version="1.0" encoding="utf-8"?>
<!-- Generator: Adobe Illustrator 21.1.0, SVG Export Plug-In . SVG Version: 6.00 Build 0)  -->
<svg version="1.1" id="Layer_1" xmlns="http://www.w3.org/2000/svg" xmlns:xlink="http://www.w3.org/1999/xlink" x="0px" y="0px"
	 viewBox="0 0 43 43" style="enable-background:new 0 0 43 43;" xml:space="preserve">
<style type="text/css">
	.st0{fill:#B1B2B3;stroke:#FFFFFF;stroke-width:0.5;}
</style>
<title>EC</title>
<desc>Created with Sketch.</desc>
<g id="Map-countries">
	<g id="Artboard" transform="translate(-778.000000, -1239.000000)">
		<polygon id="EC" class="st0" points="785,1271.4 788.5,1266.5 787,1263.6 784.5,1266.7 780.6,1263.8 781.9,1262 780.8,1256 
			783.1,1255 784.3,1250.9 786.8,1246.7 786.4,1244 790,1242.6 794.5,1240 801.2,1243.7 802.4,1243.6 804,1246.4 809.6,1247.4 
			811.5,1246.3 814.8,1248.5 817.6,1250 818.5,1255 816.5,1259.3 809.2,1266.2 801.3,1268.8 797.2,1274.5 796,1279 792.2,1281.7 
			789.5,1278.4 786.8,1277.6 784,1278.2 783.9,1275.8 785.8,1274.2 		"/>
	</g>
</g>
</svg>
