<?xml version="1.0" encoding="UTF-8"?>
<svg width="82px" height="72px" viewBox="0 0 82 72" version="1.1" xmlns="http://www.w3.org/2000/svg" xmlns:xlink="http://www.w3.org/1999/xlink">
    <!-- Generator: Sketch 43.2 (39069) - http://www.bohemiancoding.com/sketch -->
    <title>EG</title>
    <desc>Created with Sketch.</desc>
    <defs></defs>
    <g id="Map-countries" stroke="none" stroke-width="1" fill="none" fill-rule="evenodd">
        <g id="Artboard" transform="translate(-1478.000000, -1029.000000)" stroke-width="0.5" stroke="#FFFFFF" fill="#B1B2B3">
            <polygon id="EG" points="1546.22215 1045.75171 1544.35701 1048.79737 1542.94044 1054.46373 1541.14613 1058.33575 1539.5879 1059.6579 1537.39222 1057.24969 1534.39383 1053.8971 1529.67194 1043.1074 1529.01087 1043.79209 1531.74957 1051.7486 1535.81039 1059.25653 1540.81559 1070.77813 1543.24737 1074.74458 1545.37221 1078.85269 1551.32179 1086.88003 1549.99966 1088.13135 1550.21215 1092.78249 1557.93244 1099.18075 1559.0893 1100.64456 1532.8356 1100.64456 1507.14853 1100.64456 1480.5407 1100.64456 1480.5407 1074.13072 1480.5407 1047.73493 1478.55751 1041.64359 1480.25738 1036.92163 1479.24218 1033.63986 1481.62673 1029.93312 1490.43305 1029.81507 1496.8076 1031.84551 1503.37102 1034.13567 1506.44025 1035.31616 1511.53989 1032.88435 1514.25498 1030.68863 1520.11012 1030.05117 1524.80839 1031.01917 1526.62632 1034.84396 1528.16093 1032.31771 1533.44945 1034.13567 1538.61992 1034.58425 1541.87802 1032.64825"></polygon>
        </g>
    </g>
</svg>