<?xml version="1.0" encoding="utf-8"?>
<!-- Generator: Adobe Illustrator 21.1.0, SVG Export Plug-In . SVG Version: 6.00 Build 0)  -->
<svg version="1.1" id="Layer_1" xmlns="http://www.w3.org/2000/svg" xmlns:xlink="http://www.w3.org/1999/xlink" x="0px" y="0px"
	 viewBox="0 0 82 82" style="enable-background:new 0 0 82 82;" xml:space="preserve">
<style type="text/css">
	.st0{fill:#B1B2B3;stroke:#FFFFFF;stroke-width:0.5;}
</style>
<title>EG</title>
<desc>Created with Sketch.</desc>
<g id="Map-countries">
	<g id="Artboard" transform="translate(-1478.000000, -1029.000000)">
		<polygon id="EG" class="st0" points="1546.2,1050.8 1544.4,1053.8 1542.9,1059.5 1541.1,1063.3 1539.6,1064.7 1537.4,1062.2 
			1534.4,1058.9 1529.7,1048.1 1529,1048.8 1531.7,1056.7 1535.8,1064.3 1540.8,1075.8 1543.2,1079.7 1545.4,1083.9 1551.3,1091.9 
			1550,1093.1 1550.2,1097.8 1557.9,1104.2 1559.1,1105.6 1532.8,1105.6 1507.1,1105.6 1480.5,1105.6 1480.5,1079.1 1480.5,1052.7 
			1478.6,1046.6 1480.3,1041.9 1479.2,1038.6 1481.6,1034.9 1490.4,1034.8 1496.8,1036.8 1503.4,1039.1 1506.4,1040.3 
			1511.5,1037.9 1514.3,1035.7 1520.1,1035.1 1524.8,1036 1526.6,1039.8 1528.2,1037.3 1533.4,1039.1 1538.6,1039.6 1541.9,1037.6 
					"/>
	</g>
</g>
</svg>
