<?xml version="1.0" encoding="UTF-8"?>
<svg width="57px" height="49px" viewBox="0 0 57 49" version="1.1" xmlns="http://www.w3.org/2000/svg" xmlns:xlink="http://www.w3.org/1999/xlink">
    <!-- Generator: Sketch 43.2 (39069) - http://www.bohemiancoding.com/sketch -->
    <title>EH</title>
    <desc>Created with Sketch.</desc>
    <defs></defs>
    <g id="Map-countries" stroke="none" stroke-width="1" fill="none" fill-rule="evenodd">
        <g id="Artboard" transform="translate(-1201.000000, -1059.000000)" stroke-width="0.5" stroke="#FFFFFF" fill="#B1B2B3">
            <polygon id="EH" points="1228.43912 1059.39819 1236.98574 1059.4218 1257.64399 1059.49263 1257.64399 1059.49263 1257.64399 1059.49263 1236.98574 1059.4218 1228.43912 1059.39819 1228.17942 1059.61068 1228.06137 1059.70512 1223.85889 1067.26026 1219.46753 1069.95178 1217.05937 1074.46126 1216.91771 1078.35688 1215.14701 1082.58304 1212.92772 1083.73992 1209.24465 1088.32023 1206.97814 1093.39634 1207.40311 1095.80455 1205.23104 1099.51129 1202.68122 1101.4473 1202.3743 1104.72906 1202.09099 1107.72751 1203.53116 1105.36653 1229.45433 1105.41375 1228.20303 1095.14347 1229.83208 1091.48395 1236.01775 1090.84648 1235.80526 1072.28916 1257.54956 1072.69052 1257.54956 1061.52307 1257.69121 1060.08287 1257.69121 1059.58707"></polygon>
        </g>
    </g>
</svg>