<?xml version="1.0" encoding="utf-8"?>
<!-- Generator: Adobe Illustrator 21.1.0, SVG Export Plug-In . SVG Version: 6.00 Build 0)  -->
<svg version="1.1" id="Layer_1" xmlns="http://www.w3.org/2000/svg" xmlns:xlink="http://www.w3.org/1999/xlink" x="0px" y="0px"
	 viewBox="0 0 57 57" style="enable-background:new 0 0 57 57;" xml:space="preserve">
<style type="text/css">
	.st0{fill:#B1B2B3;stroke:#FFFFFF;stroke-width:0.5;}
</style>
<title>EH</title>
<desc>Created with Sketch.</desc>
<g id="Map-countries">
	<g id="Artboard" transform="translate(-1201.000000, -1059.000000)">
		<polygon id="EH" class="st0" points="1228.4,1063.4 1237,1063.4 1257.6,1063.5 1257.6,1063.5 1257.6,1063.5 1237,1063.4 
			1228.4,1063.4 1228.2,1063.6 1228.1,1063.7 1223.9,1071.3 1219.5,1074 1217.1,1078.5 1216.9,1082.4 1215.1,1086.6 1212.9,1087.7 
			1209.2,1092.3 1207,1097.4 1207.4,1099.8 1205.2,1103.5 1202.7,1105.4 1202.4,1108.7 1202.1,1111.7 1203.5,1109.4 1229.5,1109.4 
			1228.2,1099.1 1229.8,1095.5 1236,1094.8 1235.8,1076.3 1257.5,1076.7 1257.5,1065.5 1257.7,1064.1 1257.7,1063.6 		"/>
	</g>
</g>
</svg>
