<?xml version="1.0" encoding="UTF-8"?>
<svg width="84px" height="69px" viewBox="0 0 84 69" version="1.1" xmlns="http://www.w3.org/2000/svg" xmlns:xlink="http://www.w3.org/1999/xlink">
    <!-- Generator: Sketch 43.2 (39069) - http://www.bohemiancoding.com/sketch -->
    <title>ES</title>
    <desc>Created with Sketch.</desc>
    <defs></defs>
    <g id="Map-countries" stroke="none" stroke-width="1" fill="none" fill-rule="evenodd">
        <g id="Artboard" transform="translate(-1252.000000, -927.000000)" stroke-width="0.5" stroke="#FFFFFF" fill="#B1B2B3">
            <polygon id="ES" points="1255.23583 944.890507 1255.56636 938.563072 1252.87489 934.64384 1262.22423 928.103917 1270.32226 929.756605 1279.22302 929.685776 1286.25863 931.244025 1291.75963 930.771828 1302.45471 931.055146 1305.09896 934.573011 1317.28143 938.657512 1319.6896 936.721505 1327.15018 940.782396 1334.82325 939.625515 1335.17739 944.796068 1328.89728 950.674916 1320.42149 952.516482 1319.83125 955.444101 1315.74682 960.236897 1313.197 967.225407 1315.77043 972.065422 1311.9457 975.842995 1310.52914 981.273257 1305.52393 982.925945 1300.82566 989.276989 1292.44431 989.395038 1286.11698 989.253379 1281.98533 992.133779 1279.45912 995.226667 1276.20101 994.541982 1273.76924 991.779631 1271.88049 987.057665 1265.69481 985.782734 1265.1518 983.043994 1267.60718 979.927496 1268.50434 977.660952 1266.23783 975.15831 1268.05576 969.61 1265.4115 964.486667 1268.26824 963.778372 1268.52795 959.717481 1269.61398 958.46616 1269.68481 951.666528 1272.75403 949.305545 1270.9125 944.866897 1267.04055 944.559969 1265.9073 945.669631 1262.01174 945.693241 1260.33547 941.349032 1257.64399 942.647573"></polygon>
        </g>
    </g>
</svg>