<?xml version="1.0" encoding="utf-8"?>
<!-- Generator: Adobe Illustrator 21.1.0, SVG Export Plug-In . SVG Version: 6.00 Build 0)  -->
<svg version="1.1" id="Layer_1" xmlns="http://www.w3.org/2000/svg" xmlns:xlink="http://www.w3.org/1999/xlink" x="0px" y="0px"
	 viewBox="0 0 84 84" style="enable-background:new 0 0 84 84;" xml:space="preserve">
<style type="text/css">
	.st0{fill:#B1B2B3;stroke:#FFFFFF;stroke-width:0.5;}
</style>
<title>ES</title>
<desc>Created with Sketch.</desc>
<g id="Map-countries">
	<g id="Artboard" transform="translate(-1252.000000, -927.000000)">
		<polygon id="ES" class="st0" points="1255.2,952.4 1255.6,946.1 1252.9,942.1 1262.2,935.6 1270.3,937.3 1279.2,937.2 
			1286.3,938.7 1291.8,938.3 1302.5,938.6 1305.1,942.1 1317.3,946.2 1319.7,944.2 1327.2,948.3 1334.8,947.1 1335.2,952.3 
			1328.9,958.2 1320.4,960 1319.8,962.9 1315.7,967.7 1313.2,974.7 1315.8,979.6 1311.9,983.3 1310.5,988.8 1305.5,990.4 
			1300.8,996.8 1292.4,996.9 1286.1,996.8 1282,999.6 1279.5,1002.7 1276.2,1002 1273.8,999.3 1271.9,994.6 1265.7,993.3 
			1265.2,990.5 1267.6,987.4 1268.5,985.2 1266.2,982.7 1268.1,977.1 1265.4,972 1268.3,971.3 1268.5,967.2 1269.6,966 
			1269.7,959.2 1272.8,956.8 1270.9,952.4 1267,952.1 1265.9,953.2 1262,953.2 1260.3,948.8 1257.6,950.1 		"/>
	</g>
</g>
</svg>
