<?xml version="1.0" encoding="utf-8"?>
<!-- Generator: Adobe Illustrator 21.1.0, SVG Export Plug-In . SVG Version: 6.00 Build 0)  -->
<svg version="1.1" id="Layer_1" xmlns="http://www.w3.org/2000/svg" xmlns:xlink="http://www.w3.org/1999/xlink" x="0px" y="0px"
	 viewBox="0 0 100 100" style="enable-background:new 0 0 100 100;" xml:space="preserve">
<style type="text/css">
	.st0{fill:#B1B2B3;stroke:#FFFFFF;stroke-width:0.5;}
</style>
<title>ET</title>
<desc>Created with Sketch.</desc>
<g id="Map-countries">
	<g id="Artboard" transform="translate(-1532.000000, -1149.000000)">
		<polygon id="ET" class="st0" points="1566,1160.5 1570,1163.6 1573.9,1162 1575.5,1163.4 1580,1163.5 1585.8,1166.2 
			1587.5,1168.6 1590.4,1170.8 1593.1,1174.7 1595.4,1176.9 1593.1,1179.9 1590.8,1183 1591.3,1184.9 1591.5,1186.9 1595.2,1187 
			1596.7,1186.6 1598.2,1187.7 1596.8,1190.1 1599.2,1193.8 1601.7,1197 1604.2,1199.4 1625.8,1207.3 1631.4,1207.2 1612.7,1227.1 
			1604.1,1227.4 1598.2,1232.1 1593.9,1232.2 1592.1,1234.3 1587.6,1234.3 1584.9,1232 1578.9,1234.8 1576.9,1237.5 1572.5,1237 
			1571,1236.3 1569.5,1236.4 1567.4,1236.4 1559,1230.8 1554.4,1230.8 1552.1,1228.6 1552.1,1224.9 1548.7,1223.8 1544.8,1216.6 
			1541.8,1215.1 1540.6,1212.4 1537.3,1209.2 1533.2,1208.7 1535.5,1204.9 1539,1204.7 1539.9,1202.7 1539.9,1196.7 1541.8,1189.7 
			1544.9,1187.9 1545.6,1185.1 1548.5,1180 1552.5,1176.6 1555.1,1170 1556.2,1164.2 1563.9,1165.6 		"/>
	</g>
</g>
</svg>
