<?xml version="1.0" encoding="UTF-8"?>
<svg width="100px" height="78px" viewBox="0 0 100 78" version="1.1" xmlns="http://www.w3.org/2000/svg" xmlns:xlink="http://www.w3.org/1999/xlink">
    <!-- Generator: Sketch 43.2 (39069) - http://www.bohemiancoding.com/sketch -->
    <title>ET</title>
    <desc>Created with Sketch.</desc>
    <defs></defs>
    <g id="Map-countries" stroke="none" stroke-width="1" fill="none" fill-rule="evenodd">
        <g id="Artboard" transform="translate(-1532.000000, -1149.000000)" stroke-width="0.5" stroke="#FFFFFF" fill="#B1B2B3">
            <polygon id="ET" points="1565.98325 1149.51691 1569.99686 1152.6098 1573.86881 1151.00433 1575.47425 1152.44453 1580.00726 1152.51536 1585.76796 1155.23049 1587.49145 1157.59147 1590.41902 1159.76358 1593.13411 1163.70642 1595.40061 1165.90214 1593.06328 1168.87697 1590.84399 1172.01708 1591.33979 1173.88226 1591.45784 1175.9127 1595.16452 1176.03075 1596.74635 1175.55856 1598.21014 1176.73905 1596.76996 1179.12364 1599.22534 1182.80677 1601.65711 1186.01771 1604.18332 1188.4023 1625.83318 1196.28799 1631.40501 1196.24077 1612.68272 1216.12025 1604.06528 1216.40356 1598.16292 1221.0547 1593.93683 1221.17275 1592.1189 1223.25041 1587.58589 1223.25041 1584.91802 1221.03109 1578.87401 1223.79344 1576.91442 1226.53218 1572.49946 1226.01276 1571.03567 1225.25725 1569.47745 1225.42252 1567.39982 1225.3753 1559.01847 1219.75616 1554.41463 1219.75616 1552.14812 1217.60767 1552.14812 1213.90092 1548.70115 1212.79126 1544.80559 1205.59026 1541.78358 1204.05562 1540.60311 1201.41132 1537.25057 1198.17677 1533.18974 1197.70458 1535.45625 1193.90339 1538.95045 1193.73813 1539.94204 1191.70768 1539.87122 1185.73439 1541.8308 1178.74588 1544.94724 1176.8571 1545.63192 1174.11836 1548.46505 1168.99502 1552.45505 1165.64243 1555.14652 1159.00806 1556.20895 1153.17644 1563.90562 1154.59303"></polygon>
        </g>
    </g>
</svg>