<?xml version="1.0" encoding="utf-8"?>
<!-- Generator: Adobe Illustrator 21.1.0, SVG Export Plug-In . SVG Version: 6.00 Build 0)  -->
<svg version="1.1" id="Layer_1" xmlns="http://www.w3.org/2000/svg" xmlns:xlink="http://www.w3.org/1999/xlink" x="0px" y="0px"
	 viewBox="0 0 166 166" style="enable-background:new 0 0 166 166;" xml:space="preserve">
<style type="text/css">
	.st0{fill:#B1B2B3;stroke:#FFFFFF;stroke-width:0.5;}
</style>
<title>FI</title>
<desc>Created with Sketch.</desc>
<g id="Map-countries">
	<g id="Artboard" transform="translate(-1451.000000, -589.000000)">
		<polygon id="FI" class="st0" points="1550.8,610.9 1549.8,623.7 1560,635.4 1553.9,648.4 1561.6,667.2 1557.1,680.8 1563.1,692.2 
			1560.4,702 1570.2,712.1 1567.7,719.4 1561.5,727.5 1547.4,745 1535.4,746.1 1523.7,751 1512.9,753.8 1509.1,746.5 1502.7,742.1 
			1504.2,728.6 1501,715.8 1504.1,707.4 1510.1,698.1 1525.2,681.5 1529.7,678.2 1529,671.5 1519.8,663.9 1517.5,657.5 
			1517.4,631.3 1507,619.1 1498.2,610.1 1502.2,605.2 1509.5,615 1518.2,614.1 1525.3,618.5 1531.6,610.4 1534.9,596.6 1545.1,590 
			1553.6,597.7 		"/>
	</g>
</g>
</svg>
