<?xml version="1.0" encoding="UTF-8"?>
<svg width="73px" height="166px" viewBox="0 0 73 166" version="1.1" xmlns="http://www.w3.org/2000/svg" xmlns:xlink="http://www.w3.org/1999/xlink">
    <!-- Generator: Sketch 43.2 (39069) - http://www.bohemiancoding.com/sketch -->
    <title>FI</title>
    <desc>Created with Sketch.</desc>
    <defs></defs>
    <g id="Map-countries" stroke="none" stroke-width="1" fill="none" fill-rule="evenodd">
        <g id="Artboard" transform="translate(-1451.000000, -589.000000)" stroke-width="0.5" stroke="#FFFFFF" fill="#B1B2B3">
            <polygon id="FI" points="1504.3154 610.905837 1503.34742 623.655146 1513.49947 635.436452 1507.38463 648.374639 1515.08131 667.168065 1510.61912 680.767327 1516.59231 692.241705 1513.87722 702.016175 1523.67514 712.073963 1521.17254 719.393011 1515.03409 727.538402 1500.86842 745.033287 1488.85122 746.09573 1477.21177 750.982965 1466.44586 753.768925 1462.59753 746.520707 1456.19937 742.105668 1457.66315 728.600845 1454.45227 715.827926 1457.61593 707.375607 1463.61273 698.073333 1478.74638 681.499232 1483.18496 678.217465 1482.47667 671.512273 1473.26899 663.909908 1471.0497 657.535253 1470.86083 631.281121 1460.5435 619.122058 1451.71357 610.126713 1455.67996 605.215868 1463.0461 615.013948 1471.68716 614.093164 1478.7936 618.508203 1485.09732 610.386421 1488.35542 596.57467 1498.62553 590.011137 1507.12493 597.707942"></polygon>
        </g>
    </g>
</svg>