<?xml version="1.0" encoding="utf-8"?>
<!-- Generator: Adobe Illustrator 21.1.0, SVG Export Plug-In . SVG Version: 6.00 Build 0)  -->
<svg version="1.1" id="Layer_1" xmlns="http://www.w3.org/2000/svg" xmlns:xlink="http://www.w3.org/1999/xlink" x="0px" y="0px"
	 viewBox="0 0 95 95" style="enable-background:new 0 0 95 95;" xml:space="preserve">
<style type="text/css">
	.st0{fill:#B1B2B3;stroke:#FFFFFF;stroke-width:0.5;}
</style>
<title>FR</title>
<desc>Created with Sketch.</desc>
<g id="Map-countries">
	<g id="Artboard" transform="translate(-1284.000000, -855.000000)">
		<path id="FR" class="st0" d="M1378.3,942.5l-2.2,6.8l-3-1.8l-1.5-6l1.3-3.3l4.3-3.4L1378.3,942.5L1378.3,942.5z M1338.8,863.7
			l4.6,4.9l3.4-0.8l5.8,4.7l1.5,0.9l1.9-0.2l3.1,2.6l9.5,1.9l-3.4,6.8l-0.8,7l-1.8,1.7l-3-0.9l0.2,2.5l-4.8,5.4l-0.1,4.3l3.2-1.5
			l2.3,4.2l-0.3,2.7l2,3.5l-2.3,2.9l1.7,7.2l3.6,1.2l-0.8,4l-6,5.1l-13.1-2.5l-9.6,2.9l-0.8,5.4l-7.7,1.2l-7.4-4.1l-2.4,1.9
			l-12.2-4.1l-2.6-3.5l3.4-5.5l1.3-18.6l-6.8-10.1l-4.9-4.9l-10.1-3.8l-0.7-7.2l8.6-2.2l11.1,2.6l-2.1-11.4l6.3,4.4l15.4-8l2-8.5
			l5.8-2.1l1,3.7l3.1,0.2L1338.8,863.7L1338.8,863.7z"/>
	</g>
</g>
</svg>
