<?xml version="1.0" encoding="utf-8"?>
<!-- Generator: Adobe Illustrator 21.1.0, SVG Export Plug-In . SVG Version: 6.00 Build 0)  -->
<svg version="1.1" id="Layer_1" xmlns="http://www.w3.org/2000/svg" xmlns:xlink="http://www.w3.org/1999/xlink" x="0px" y="0px"
	 viewBox="0 0 43 43" style="enable-background:new 0 0 43 43;" xml:space="preserve">
<style type="text/css">
	.st0{fill:#B1B2B3;stroke:#FFFFFF;stroke-width:0.5;}
</style>
<title>GA</title>
<desc>Created with Sketch.</desc>
<g id="Map-countries">
	<g id="Artboard" transform="translate(-1373.000000, -1233.000000)">
		<polygon id="GA" class="st0" points="1391,1275.2 1384.2,1268.6 1379.8,1263.2 1375.8,1256.4 1376,1254.2 1377.4,1252.1 
			1379,1247.3 1380.4,1242.4 1382.6,1242 1392.2,1242.1 1392.2,1234.2 1395.3,1233.7 1399.4,1234.6 1403.3,1233.8 1404.1,1234.1 
			1403.6,1237 1405.5,1240.4 1410.4,1239.9 1412,1241.2 1409.2,1248.8 1412.3,1252.7 1413,1257.8 1412.2,1262.2 1410.2,1265.3 
			1404.3,1265 1400.8,1261.9 1400.3,1264.8 1395.8,1265.6 1393.5,1267.2 1396,1271.6 		"/>
	</g>
</g>
</svg>
