<?xml version="1.0" encoding="utf-8"?>
<!-- Generator: Adobe Illustrator 21.1.0, SVG Export Plug-In . SVG Version: 6.00 Build 0)  -->
<svg version="1.1" id="Layer_1" xmlns="http://www.w3.org/2000/svg" xmlns:xlink="http://www.w3.org/1999/xlink" x="0px" y="0px"
	 viewBox="0 0 100 100" style="enable-background:new 0 0 100 100;" xml:space="preserve">
<style type="text/css">
	.st0{fill:#B1B2B3;stroke:#FFFFFF;stroke-width:0.5;}
</style>
<title>GB</title>
<desc>Created with Sketch.</desc>
<g id="Map-countries">
	<g id="Artboard" transform="translate(-1264.000000, -769.000000)">
		<path id="GB" class="st0" d="M1296.1,818.4l-3.5,7.8l-5-2.3l-4.1,0.2l1.4-6.1l-1.4-6.1l5.5-0.5L1296.1,818.4L1296.1,818.4z
			 M1313.7,769.4l-7.1,13.5l6.8-1.7l7.2,0.1l-1.7,10l-5.9,10.7l6.8,0.8l0.5,1.2l5.9,13.7l4.5,1.8l4.1,12.8l1.9,4.3l8,2.1l-0.8,6.9
			l-3.4,3.1l2.6,5.5l-5.9,5.5l-8.9-0.1l-11.3,2.9l-3.1-2.1l-4.4,4.9l-6.1-1.2l-4.7,3.9l-3.5-2.1l9.7-11l5.9-2.3h0l-10.3-1.8
			l-1.9-4.2l6.9-3.3l-3.6-5.9l1.3-7.2l9.8,1l0,0l1-6.5l-4.4-7l-0.1-0.2l-8-2l-1.6-3.1l2.4-5.2l-2.2-3.2l-3.6,5.5l-0.4-11.3l-3.4-6.1
			l2.4-12.7l5.1-10.2l5.3,1L1313.7,769.4L1313.7,769.4z"/>
	</g>
</g>
</svg>
