<?xml version="1.0" encoding="UTF-8"?>
<svg width="63px" height="100px" viewBox="0 0 63 100" version="1.1" xmlns="http://www.w3.org/2000/svg" xmlns:xlink="http://www.w3.org/1999/xlink">
    <!-- Generator: Sketch 43.2 (39069) - http://www.bohemiancoding.com/sketch -->
    <title>GB</title>
    <desc>Created with Sketch.</desc>
    <defs></defs>
    <g id="Map-countries" stroke="none" stroke-width="1" fill="none" fill-rule="evenodd">
        <g id="Artboard" transform="translate(-1264.000000, -769.000000)" stroke="#FFFFFF" stroke-width="0.5" fill="#B1B2B3">
            <path d="M1277.57036,818.436252 L1274.02894,826.203886 L1269.02374,823.890123 L1264.93931,824.055392 L1266.30866,817.987665 L1264.93931,811.849109 L1270.48753,811.376912 L1277.57036,818.436252 L1277.57036,818.436252 Z M1295.15939,769.422243 L1288.07656,782.950676 L1294.82886,781.250768 L1302.07696,781.321598 L1300.35347,791.284946 L1294.40389,801.9802 L1301.25063,802.735714 L1301.77003,803.963425 L1307.67239,817.633518 L1312.20541,819.451475 L1316.28984,832.224393 L1318.17859,836.568602 L1326.2058,838.646267 L1325.40308,845.563948 L1322.02693,848.704055 L1324.67119,854.205146 L1318.72161,859.706237 L1309.86807,859.611797 L1298.60637,862.468587 L1295.51353,860.414531 L1291.14579,865.278157 L1285.03094,864.097665 L1280.37988,868.040507 L1276.86208,865.986452 L1286.56556,855.03149 L1292.49152,852.741336 L1292.44431,852.741336 L1282.10337,850.970599 L1280.23823,846.720829 L1287.15579,843.391843 L1283.51994,837.536605 L1284.77124,830.311997 L1294.61637,831.30361 L1294.61637,831.30361 L1295.58436,824.834516 L1291.14579,817.869616 L1291.05135,817.704347 L1283.02414,815.697512 L1281.44231,812.581014 L1283.85047,807.386851 L1281.6784,804.152304 L1278.11338,809.677005 L1277.73563,798.344286 L1274.38309,792.229339 L1276.79125,779.57447 L1281.93811,769.398633 L1287.22662,770.390246 L1295.15939,769.422243 L1295.15939,769.422243 Z" id="GB"></path>
        </g>
    </g>
</svg>