<?xml version="1.0" encoding="utf-8"?>
<!-- Generator: Adobe Illustrator 21.1.0, SVG Export Plug-In . SVG Version: 6.00 Build 0)  -->
<svg version="1.1" id="Layer_1" xmlns="http://www.w3.org/2000/svg" xmlns:xlink="http://www.w3.org/1999/xlink" x="0px" y="0px"
	 viewBox="0 0 598 598" style="enable-background:new 0 0 598 598;" xml:space="preserve">
<style type="text/css">
	.st0{fill:#B1B2B3;stroke:#FFFFFF;stroke-width:0.5;}
</style>
<title>GL</title>
<desc>Created with Sketch.</desc>
<g id="Map-countries">
	<g id="Artboard" transform="translate(-829.000000, -154.000000)">
		<polygon id="GL" class="st0" points="1101.5,211.5 1123.7,179.3 1146.9,181.8 1155.4,160.7 1178.8,155 1231.7,162.4 1273.1,206.3 
			1260.8,225.9 1235.5,228.1 1199.9,232.9 1203.2,241.5 1226.6,236.2 1246.6,252.5 1259.4,238.1 1264.9,255 1257.7,280.9 
			1274.5,264.5 1306.7,246.7 1326.5,255.7 1330.2,274.8 1303.2,304.7 1299.5,313.9 1278.4,320.7 1293.7,322.6 1285.9,349.7 
			1280.6,372.4 1280.8,408.4 1288.8,428.1 1278.4,429.3 1267.5,438.5 1279.7,453.3 1281.3,476 1274.2,478.5 1282.8,500.1 
			1268.1,501.8 1275.8,511.6 1273.6,519.9 1264.3,523.5 1255.1,523.5 1263.3,538.8 1263.4,548.6 1250.3,539.5 1246.9,545.4 
			1255.9,550.8 1264.5,563.8 1267,580.2 1255.2,584 1250.1,576.3 1241.9,564.5 1244.2,578.4 1236.5,588.8 1254,589.6 1263.1,590.7 
			1245.3,607.3 1227.4,621.8 1208,627.9 1200.7,628 1193.9,634.8 1184.6,652.8 1170.4,664.4 1165.8,665 1157,669 1147.5,672.7 
			1141.8,682.5 1141.7,693.2 1138.4,703.1 1127.6,714.7 1130.3,725.9 1127.3,737.3 1123.9,750.4 1114.6,751.2 1104.8,740.3 
			1091.6,740.2 1085.1,732.7 1080.7,719 1069.2,700.9 1065.9,691.1 1065,677.2 1055.8,662.4 1058.2,650.2 1053.8,644.2 
			1060.3,623.8 1070.3,617.1 1072.9,609.4 1074.3,594.6 1066.7,601.3 1063.1,604.2 1057.2,606.8 1049.1,600.7 1048.6,587.6 
			1051.2,577 1057.3,576.7 1070.9,582 1059.5,569.2 1053.5,562.1 1047,565 1041.4,559.9 1048.8,539.8 1044.8,531.5 1039.5,515.5 
			1031.6,489.8 1023.2,479.9 1023.2,469 1005.5,453.2 991.4,451.2 973.7,452.3 957.6,454.3 949.9,445.5 938.4,427.4 955.8,418 
			969.1,416.4 940.8,408.5 925.8,395.7 926.8,383 951.8,366.8 976.1,349.9 978.6,336.6 960.8,323 966.5,307.3 989.4,278.2 
			999.1,273.5 996.3,253.3 1012,240.9 1032.3,233.4 1052.7,232.9 1059.9,247.8 1077.5,221.1 1093.3,239.5 1102.6,243.2 
			1116.3,258.3 1100.6,232.9 		"/>
	</g>
</g>
</svg>
