<?xml version="1.0" encoding="UTF-8"?>
<svg width="406px" height="598px" viewBox="0 0 406 598" version="1.1" xmlns="http://www.w3.org/2000/svg" xmlns:xlink="http://www.w3.org/1999/xlink">
    <!-- Generator: Sketch 43.2 (39069) - http://www.bohemiancoding.com/sketch -->
    <title>GL</title>
    <desc>Created with Sketch.</desc>
    <defs></defs>
    <g id="Map-countries" stroke="none" stroke-width="1" fill="none" fill-rule="evenodd">
        <g id="Artboard" transform="translate(-829.000000, -154.000000)" stroke-width="0.5" stroke="#FFFFFF" fill="#B1B2B3">
            <polygon id="GL" points="1005.47159 211.451106 1027.71168 179.318126 1050.94337 181.844378 1059.37193 160.713579 1082.76889 155 1135.65403 162.437097 1177.06498 206.327773 1164.83529 225.923932 1139.50237 228.119647 1103.87573 232.912442 1107.20466 241.506421 1130.64883 236.217819 1150.57519 252.532212 1163.44234 238.082995 1168.94334 254.964025 1161.67163 280.864009 1178.52877 264.502396 1210.66121 246.676974 1230.51675 255.67232 1234.22343 274.843502 1207.23784 304.733548 1203.50755 313.941382 1182.3535 320.693794 1197.67602 322.558971 1189.93213 349.733886 1184.59639 372.375714 1184.80888 408.404316 1192.76526 428.094916 1182.42433 429.299017 1171.54037 438.459631 1183.74645 453.333825 1185.30468 476.046482 1178.22185 478.454685 1186.79207 500.05768 1172.107 501.828418 1179.78007 511.602888 1177.608 519.889939 1168.28227 523.455023 1159.05098 523.525853 1167.33789 538.825023 1167.43233 548.575883 1154.32909 539.533318 1150.92934 545.412166 1159.8537 550.818817 1168.54198 563.757005 1171.04458 580.165837 1159.23986 583.99063 1154.14022 576.293825 1145.94774 564.536129 1148.21425 578.3951 1140.54118 588.807035 1157.96495 589.633379 1167.1018 590.695822 1149.3475 607.293533 1131.35711 621.766359 1111.99737 627.928525 1104.70206 628.022965 1097.85532 634.798986 1088.64764 652.813287 1074.41115 664.358495 1069.83092 665.04318 1061.00099 668.986022 1051.50999 672.739985 1045.82012 682.467235 1045.72568 693.233318 1042.39675 703.055008 1031.58363 714.741874 1034.25149 725.862104 1031.2767 737.312873 1027.90055 750.439939 1018.57483 751.242673 1008.80052 740.311321 995.555624 740.240492 989.133857 732.732565 984.718892 719.038863 973.244705 700.906513 969.892165 691.108433 968.995006 677.202243 959.810935 662.398879 962.195488 650.192596 957.780523 644.219309 964.320338 623.796805 974.28352 617.068003 976.904168 609.371198 978.297125 594.591444 970.718495 601.343856 967.129861 604.153425 961.180282 606.844946 953.058636 600.68278 952.610056 587.579324 955.207095 577.00212 961.345548 576.718802 974.850147 582.031014 963.470398 569.210876 957.544429 562.104316 950.957396 565.031935 945.432787 559.861382 952.822541 539.793026 948.808937 531.458756 943.544032 515.54573 935.587652 489.787404 927.159082 479.942104 927.229911 469.010753 909.452004 453.215776 895.404388 451.20894 877.720919 452.318602 861.572064 454.349048 853.875387 445.495361 842.377591 427.41023 859.754137 418.037127 873.093469 416.431659 844.762144 408.498756 829.840979 395.655008 830.761747 383.047358 855.811361 366.827404 880.058254 349.922765 882.608073 336.60682 864.759338 323.007558 870.520041 307.33063 893.444805 278.219708 903.077456 273.544962 900.315151 253.311336 915.991818 240.939785 936.343154 233.361029 956.694489 232.936052 963.918977 247.810246 981.484399 221.083917 997.279113 239.452366 1006.55762 243.206329 1020.32192 258.34023 1004.57443 232.912442"></polygon>
        </g>
    </g>
</svg>