<?xml version="1.0" encoding="utf-8"?>
<!-- Generator: Adobe Illustrator 21.1.0, SVG Export Plug-In . SVG Version: 6.00 Build 0)  -->
<svg version="1.1" id="Layer_1" xmlns="http://www.w3.org/2000/svg" xmlns:xlink="http://www.w3.org/1999/xlink" x="0px" y="0px"
	 viewBox="0 0 50 50" style="enable-background:new 0 0 50 50;" xml:space="preserve">
<style type="text/css">
	.st0{fill:#B1B2B3;stroke:#FFFFFF;stroke-width:0.5;}
</style>
<title>GN</title>
<desc>Created with Sketch.</desc>
<g id="Map-countries">
	<g id="Artboard" transform="translate(-1214.000000, -1165.000000)">
		<polygon id="GN" class="st0" points="1259.2,1204.8 1257.3,1204.7 1256,1207.3 1254.1,1207.3 1252.8,1205.9 1253.2,1203.2 
			1250.5,1199.2 1248.7,1199.9 1247.3,1200.1 1245.5,1200.5 1245.6,1198 1244.5,1196.3 1244.7,1194.3 1243.3,1191.5 1241.4,1189.1 
			1236.2,1189.1 1234.6,1190.4 1232.8,1190.5 1231.7,1192 1230.9,1193.8 1227.4,1196.8 1224.4,1192.8 1221.9,1190.2 1220.2,1189.4 
			1218.5,1188 1217.8,1185.1 1216.8,1183.6 1214.9,1182.5 1217.8,1179.2 1219.8,1179.3 1221.6,1178.2 1223,1178.2 1224.1,1177.3 
			1223.5,1175.1 1224.2,1174.4 1224.4,1172.1 1227.5,1172.2 1232.3,1173.8 1233.8,1173.7 1234.3,1172.9 1237.9,1173.4 
			1238.8,1173.1 1239.2,1175.5 1240.3,1175.5 1242,1174.6 1243.1,1174.9 1244.9,1176.6 1247.8,1177.1 1249.6,1175.6 1251.7,1174.7 
			1253.3,1173.8 1254.6,1174 1256.1,1175.4 1256.9,1177.3 1259.6,1180.1 1258.2,1181.8 1258,1184 1259.4,1183.4 1260.2,1184.2 
			1259.9,1186.1 1261.9,1188.1 1260.6,1188.6 1260,1190.9 1261.6,1193.6 1263.2,1198.9 1260.7,1199.7 1260.1,1200.7 1260.6,1201.9 
			1260.2,1204.8 		"/>
	</g>
</g>
</svg>
