<?xml version="1.0" encoding="UTF-8"?>
<svg width="50px" height="37px" viewBox="0 0 50 37" version="1.1" xmlns="http://www.w3.org/2000/svg" xmlns:xlink="http://www.w3.org/1999/xlink">
    <!-- Generator: Sketch 43.2 (39069) - http://www.bohemiancoding.com/sketch -->
    <title>GN</title>
    <desc>Created with Sketch.</desc>
    <defs></defs>
    <g id="Map-countries" stroke="none" stroke-width="1" fill="none" fill-rule="evenodd">
        <g id="Artboard" transform="translate(-1214.000000, -1165.000000)" stroke-width="0.5" stroke="#FFFFFF" fill="#B1B2B3">
            <polygon id="GN" points="1259.17861 1198.34204 1257.31346 1198.17677 1255.96772 1200.84469 1254.07897 1200.82108 1252.80406 1199.40449 1253.22903 1196.73657 1250.46673 1192.67568 1248.74324 1193.40759 1247.32667 1193.57286 1245.50874 1193.95061 1245.57957 1191.5188 1244.51715 1189.77167 1244.72963 1187.83567 1243.28946 1185.0261 1241.44792 1182.64151 1236.15941 1182.64151 1234.62479 1183.89283 1232.78326 1184.03449 1231.65 1185.47469 1230.8945 1187.33986 1227.35309 1190.26748 1224.44912 1186.32464 1221.8757 1183.70395 1220.17582 1182.85399 1218.52316 1181.50823 1217.79126 1178.557 1216.82328 1177.0932 1214.8873 1175.98353 1217.83848 1172.72538 1219.84528 1172.84343 1221.56877 1171.71015 1223.03256 1171.71015 1224.07137 1170.81298 1223.50475 1168.59366 1224.23664 1167.88536 1224.35469 1165.59521 1227.54196 1165.66604 1232.31107 1167.31873 1233.77485 1167.15346 1234.27065 1166.42155 1237.85929 1166.94097 1238.82727 1166.56321 1239.20502 1169.04224 1240.26745 1169.01863 1241.99094 1168.12146 1243.07697 1168.35756 1244.91851 1170.05747 1247.75164 1170.60049 1249.56957 1169.13668 1251.71803 1168.23951 1253.29986 1167.29512 1254.62199 1167.48399 1256.08577 1168.9478 1256.88849 1170.81298 1259.60358 1173.62255 1258.23423 1175.34607 1257.97453 1177.51817 1259.39109 1176.8571 1260.21742 1177.65983 1259.86328 1179.64306 1261.89369 1181.57906 1260.57156 1182.07487 1260.02855 1184.36502 1261.56316 1187.10376 1263.19221 1192.43959 1260.73683 1193.24232 1260.09938 1194.1631 1260.61878 1195.43803 1260.24103 1198.34204"></polygon>
        </g>
    </g>
</svg>