<?xml version="1.0" encoding="UTF-8"?>
<svg width="44px" height="59px" viewBox="0 0 44 59" version="1.1" xmlns="http://www.w3.org/2000/svg" xmlns:xlink="http://www.w3.org/1999/xlink">
    <!-- Generator: Sketch 43.2 (39069) - http://www.bohemiancoding.com/sketch -->
    <title>GR</title>
    <desc>Created with Sketch.</desc>
    <defs></defs>
    <g id="Map-countries" stroke="none" stroke-width="1" fill="none" fill-rule="evenodd">
        <g id="Artboard" transform="translate(-1448.000000, -945.000000)" stroke="#FFFFFF" stroke-width="0.5" fill="#B1B2B3">
            <path d="M1471.92325,997.186283 L1475.5355,999.925023 L1480.68235,999.476436 L1485.61673,1000.04307 L1485.45146,1001.45966 L1489.06371,1000.49166 L1488.23737,1002.87625 L1478.69916,1003.56094 L1478.76999,1002.23879 L1470.69556,1000.65693 L1471.92325,997.186283 L1471.92325,997.186283 Z M1491.16495,947.700077 L1489.11092,953.201167 L1487.52909,954.169171 L1483.49188,953.933072 L1480.0449,953.106728 L1472.01769,955.373272 L1476.59792,960.236897 L1473.24538,961.629877 L1469.56231,961.629877 L1466.06811,957.191229 L1464.81681,959.080015 L1466.30421,964.226959 L1469.60953,968.24063 L1467.10693,970.105806 L1470.79,974.001429 L1474.07171,976.433241 L1474.16615,981.155207 L1470.95527,978.440077 L1468.0277,978.935883 L1469.98728,983.185653 L1467.81521,983.63424 L1465.45427,982.005161 L1468.2874,991.331045 L1466.91805,991.331045 L1465.85563,988.379816 L1464.50989,988.332596 L1463.89604,991.449094 L1462.83362,990.740799 L1463.06971,988.993671 L1461.74759,986.538249 L1460.23658,986.538249 L1460.51989,988.521475 L1459.92966,989.15894 L1458.46587,987.884009 L1457.56872,985.499416 L1458.79641,984.153656 L1457.94647,982.406528 L1456.97848,981.509355 L1455.98688,981.296866 L1454.83002,979.077542 L1456.19937,977.849831 L1457.04931,976.716559 L1458.37144,976.952657 L1458.96167,975.984654 L1460.35463,975.606897 L1461.96007,976.692949 L1463.25859,977.094316 L1464.17936,975.630507 L1461.96007,975.441628 L1460.63794,974.993041 L1457.68676,975.654117 L1454.80641,975.772166 L1452.23298,971.900154 L1451.80801,971.309908 L1452.20937,969.798879 L1448.85683,967.083748 L1448.40825,964.651935 L1451.47748,960.496605 L1451.87884,957.687035 L1454.0273,956.435714 L1454.16896,954.145561 L1458.48948,953.366436 L1461.01569,951.45404 L1464.60433,951.619309 L1465.69036,950.08467 L1466.94166,949.801352 L1471.82882,950.06106 L1477.14094,947.652857 L1481.81561,950.722135 L1487.83601,949.895791 L1487.90684,945.504363 L1491.16495,947.700077 L1491.16495,947.700077 Z" id="GR"></path>
        </g>
    </g>
</svg>