<?xml version="1.0" encoding="utf-8"?>
<!-- Generator: Adobe Illustrator 21.1.0, SVG Export Plug-In . SVG Version: 6.00 Build 0)  -->
<svg version="1.1" id="Layer_1" xmlns="http://www.w3.org/2000/svg" xmlns:xlink="http://www.w3.org/1999/xlink" x="0px" y="0px"
	 viewBox="0 0 59 59" style="enable-background:new 0 0 59 59;" xml:space="preserve">
<style type="text/css">
	.st0{fill:#B1B2B3;stroke:#FFFFFF;stroke-width:0.5;}
</style>
<title>GR</title>
<desc>Created with Sketch.</desc>
<g id="Map-countries">
	<g id="Artboard" transform="translate(-1448.000000, -945.000000)">
		<path id="GR" class="st0" d="M1479.4,997.2l3.6,2.7l5.1-0.4l4.9,0.6l-0.2,1.4l3.6-1l-0.8,2.4l-9.5,0.7l0.1-1.3l-8.1-1.6
			L1479.4,997.2L1479.4,997.2z M1498.7,947.7l-2.1,5.5l-1.6,1l-4-0.2l-3.4-0.8l-8,2.3l4.6,4.9l-3.4,1.4h-3.7l-3.5-4.4l-1.3,1.9
			l1.5,5.1l3.3,4l-2.5,1.9l3.7,3.9l3.3,2.4l0.1,4.7l-3.2-2.7l-2.9,0.5l2,4.2l-2.2,0.4l-2.4-1.6l2.8,9.3h-1.4l-1.1-3l-1.3,0l-0.6,3.1
			l-1.1-0.7l0.2-1.7l-1.3-2.5h-1.5l0.3,2l-0.6,0.6l-1.5-1.3l-0.9-2.4l1.2-1.3l-0.8-1.7l-1-0.9l-1-0.2l-1.2-2.2l1.4-1.2l0.8-1.1
			l1.3,0.2l0.6-1l1.4-0.4l1.6,1.1l1.3,0.4l0.9-1.5l-2.2-0.2l-1.3-0.4l-3,0.7l-2.9,0.1l-2.6-3.9l-0.4-0.6l0.4-1.5l-3.4-2.7l-0.4-2.4
			l3.1-4.2l0.4-2.8l2.1-1.3l0.1-2.3l4.3-0.8l2.5-1.9l3.6,0.2l1.1-1.5l1.3-0.3l4.9,0.3l5.3-2.4l4.7,3.1l6-0.8l0.1-4.4L1498.7,947.7
			L1498.7,947.7z"/>
	</g>
</g>
</svg>
