<?xml version="1.0" encoding="utf-8"?>
<!-- Generator: Adobe Illustrator 21.1.0, SVG Export Plug-In . SVG Version: 6.00 Build 0)  -->
<svg version="1.1" id="Layer_1" xmlns="http://www.w3.org/2000/svg" xmlns:xlink="http://www.w3.org/1999/xlink" x="0px" y="0px"
	 viewBox="0 0 30 30" style="enable-background:new 0 0 30 30;" xml:space="preserve">
<style type="text/css">
	.st0{fill:#B1B2B3;stroke:#FFFFFF;stroke-width:0.5;}
</style>
<title>GT</title>
<desc>Created with Sketch.</desc>
<g id="Map-countries">
	<g id="Artboard" transform="translate(-704.000000, -1129.000000)">
		<polygon id="GT" class="st0" points="719.6,1157.8 716.2,1156.6 712.1,1156.5 709.1,1155.2 705.5,1152.4 705.7,1150.4 
			706.4,1148.8 705.5,1147.5 708.7,1142 717.2,1141.9 717.4,1139.6 716.3,1139.2 715.6,1137.7 713.1,1136.1 710.6,1133.8 
			713.6,1133.8 713.6,1129.9 719.8,1129.9 725.9,1130 725.9,1135.4 725.4,1143.2 727.3,1143.2 729.5,1144.4 730.1,1143.4 
			732,1144.3 729,1146.9 725.9,1148.8 725.4,1150.1 725.9,1151.4 724.6,1153.2 723,1153.6 723.3,1154.4 722.1,1155.1 719.9,1156.8 
					"/>
	</g>
</g>
</svg>
