<?xml version="1.0" encoding="UTF-8"?>
<svg width="28px" height="30px" viewBox="0 0 28 30" version="1.1" xmlns="http://www.w3.org/2000/svg" xmlns:xlink="http://www.w3.org/1999/xlink">
    <!-- Generator: Sketch 43.2 (39069) - http://www.bohemiancoding.com/sketch -->
    <title>GT</title>
    <desc>Created with Sketch.</desc>
    <defs></defs>
    <g id="Map-countries" stroke="none" stroke-width="1" fill="none" fill-rule="evenodd">
        <g id="Artboard" transform="translate(-704.000000, -1129.000000)" stroke-width="0.5" stroke="#FFFFFF" fill="#B1B2B3">
            <polygon id="GT" points="718.640526 1157.82757 715.240767 1156.64708 711.109116 1156.52903 708.087108 1155.18327 704.522082 1152.39731 704.687349 1150.41409 705.442851 1148.80862 704.522082 1147.53369 707.709357 1141.96177 716.185145 1141.93816 716.37402 1139.62439 715.287986 1139.19942 714.556094 1137.712 712.100712 1136.13014 709.645331 1133.81637 712.643729 1133.81637 712.643729 1129.92075 718.829402 1129.92075 724.944246 1129.99158 724.897027 1135.44545 724.37762 1143.18948 726.337203 1143.18948 728.509271 1144.4408 729.075898 1143.40197 731.011872 1144.27553 728.013473 1146.89622 724.873418 1148.80862 724.401229 1150.10716 724.920637 1151.42931 723.551289 1153.17644 721.993067 1153.5778 722.347208 1154.38054 721.119517 1155.13605 718.853011 1156.83596"></polygon>
        </g>
    </g>
</svg>