<?xml version="1.0" encoding="utf-8"?>
<!-- Generator: Adobe Illustrator 21.1.0, SVG Export Plug-In . SVG Version: 6.00 Build 0)  -->
<svg version="1.1" id="Layer_1" xmlns="http://www.w3.org/2000/svg" xmlns:xlink="http://www.w3.org/1999/xlink" x="0px" y="0px"
	 viewBox="0 0 48 48" style="enable-background:new 0 0 48 48;" xml:space="preserve">
<style type="text/css">
	.st0{fill:#B1B2B3;stroke:#FFFFFF;stroke-width:0.5;}
</style>
<title>GY</title>
<desc>Created with Sketch.</desc>
<g id="Map-countries">
	<g id="Artboard" transform="translate(-908.000000, -1193.000000)">
		<polygon id="GY" class="st0" points="926.5,1193.8 930.8,1196.3 934.9,1200.6 935.1,1204 937.6,1204.2 941.1,1207.4 943.7,1209.7 
			942.7,1215.6 938.7,1217.4 939,1218.9 937.8,1222.3 940.7,1227.1 942.8,1227.1 943.7,1230.8 947.8,1236.5 946.2,1236.8 
			942.5,1236.2 940.3,1238 937.3,1239.1 935.3,1239.4 934.5,1240.7 931.3,1240.4 927.2,1237.3 926.7,1234.3 925,1230.9 
			926.1,1225.3 927.9,1223 926.4,1219.9 924.1,1218.9 925,1216 923.4,1214.5 920,1214.8 915.5,1209.8 917.3,1208 917.2,1204.9 
			921.3,1203.8 922.9,1202.6 920.6,1200.2 921.2,1197.7 		"/>
	</g>
</g>
</svg>
