<?xml version="1.0" encoding="UTF-8"?>
<svg width="34px" height="48px" viewBox="0 0 34 48" version="1.1" xmlns="http://www.w3.org/2000/svg" xmlns:xlink="http://www.w3.org/1999/xlink">
    <!-- Generator: Sketch 43.2 (39069) - http://www.bohemiancoding.com/sketch -->
    <title>GY</title>
    <desc>Created with Sketch.</desc>
    <defs></defs>
    <g id="Map-countries" stroke="none" stroke-width="1" fill="none" fill-rule="evenodd">
        <g id="Artboard" transform="translate(-908.000000, -1193.000000)" stroke-width="0.5" stroke="#FFFFFF" fill="#B1B2B3">
            <polygon id="GY" points="919.462406 1193.83257 923.806542 1196.26438 927.914584 1200.58498 928.07985 1204.0084 930.582451 1204.17367 934.123866 1207.38461 936.744514 1209.69837 935.682089 1215.64805 931.668485 1217.37157 932.022626 1218.90621 930.794936 1222.32963 933.746115 1227.09882 935.847355 1227.12243 936.720905 1230.82917 940.758119 1236.54275 939.152677 1236.77885 935.493214 1236.23582 933.344755 1237.98295 930.346356 1239.13983 928.268726 1239.42315 927.536833 1240.69808 924.278731 1240.36754 920.194298 1237.29826 919.722109 1234.2526 918.02223 1230.92361 919.084654 1225.30447 920.926191 1222.99071 919.391577 1219.92143 917.125071 1218.92982 917.99862 1216.02581 916.440397 1214.51478 912.99342 1214.7981 908.531236 1209.79281 910.325553 1207.97485 910.183896 1204.90558 914.268329 1203.84313 915.89738 1202.61542 913.630874 1200.16 914.22111 1197.72819"></polygon>
        </g>
    </g>
</svg>