<?xml version="1.0" encoding="utf-8"?>
<!-- Generator: Adobe Illustrator 21.1.0, SVG Export Plug-In . SVG Version: 6.00 Build 0)  -->
<svg version="1.1" id="Layer_1" xmlns="http://www.w3.org/2000/svg" xmlns:xlink="http://www.w3.org/1999/xlink" x="0px" y="0px"
	 viewBox="0 0 42 42" style="enable-background:new 0 0 42 42;" xml:space="preserve">
<style type="text/css">
	.st0{fill:#B1B2B3;stroke:#FFFFFF;stroke-width:0.5;}
</style>
<title>HN</title>
<desc>Created with Sketch.</desc>
<g id="Map-countries">
	<g id="Artboard" transform="translate(-723.000000, -1142.000000)">
		<polygon id="HN" class="st0" points="737,1172.9 735.9,1170.8 733.9,1170.2 734.3,1167.5 733.4,1166.8 732.1,1166.3 729.2,1167.1 
			728.9,1166.2 726.9,1165.1 725.5,1163.7 723.6,1163.2 724.9,1161.4 724.4,1160.1 724.9,1158.8 728,1156.9 731,1154.3 
			731.7,1154.6 733.2,1153.4 735,1153.3 735.7,1153.8 736.7,1153.5 739.8,1154.1 742.8,1153.9 745,1153.1 745.7,1152.4 
			747.8,1152.7 749.4,1153.2 751.2,1153 752.5,1152.5 755.5,1153.4 756.6,1153.5 758.6,1154.8 760.5,1156.4 762.9,1157.4 
			764.6,1159.3 762.4,1159.1 761.4,1160.1 759.2,1161 757.5,1161 756,1161.8 754.7,1161.5 753.6,1160.5 752.9,1160.7 752,1162.3 
			751.4,1162.2 751.3,1163.6 749,1165.5 747.8,1166.3 747.1,1167.2 745.1,1165.8 743.7,1167.6 742.3,1167.5 740.7,1167.7 
			740.9,1171 739.9,1171.1 739.1,1172.6 		"/>
	</g>
</g>
</svg>
