<?xml version="1.0" encoding="UTF-8"?>
<svg width="42px" height="22px" viewBox="0 0 42 22" version="1.1" xmlns="http://www.w3.org/2000/svg" xmlns:xlink="http://www.w3.org/1999/xlink">
    <!-- Generator: Sketch 43.2 (39069) - http://www.bohemiancoding.com/sketch -->
    <title>HN</title>
    <desc>Created with Sketch.</desc>
    <defs></defs>
    <g id="Map-countries" stroke="none" stroke-width="1" fill="none" fill-rule="evenodd">
        <g id="Artboard" transform="translate(-723.000000, -1142.000000)" stroke-width="0.5" stroke="#FFFFFF" fill="#B1B2B3">
            <polygon id="HN" points="737.032279 1162.90369 735.899025 1160.80241 733.868614 1160.21217 734.340803 1157.49704 733.443644 1156.76513 732.074297 1156.29293 729.170336 1157.09567 728.934241 1156.17488 726.927439 1155.08883 725.510873 1153.74307 723.551289 1153.17644 724.920637 1151.42931 724.401229 1150.10716 724.873418 1148.80862 728.013473 1146.89622 731.011872 1144.27553 731.696546 1144.55885 733.160331 1143.35475 735.049086 1143.26031 735.662931 1143.80333 736.701746 1143.4728 739.770973 1144.08665 742.8402 1143.89777 744.96505 1143.14226 745.744161 1142.38674 747.845401 1142.74089 749.427233 1143.21309 751.150722 1143.04782 752.472851 1142.45757 755.494859 1143.40197 756.557284 1143.54363 758.564086 1144.81856 760.47645 1146.3532 762.884613 1147.39203 764.631711 1149.28081 762.365205 1149.13916 761.444437 1150.05994 759.154322 1150.95711 757.478052 1150.95711 756.014267 1151.83068 754.692138 1151.52375 753.558885 1150.48492 752.874211 1150.67379 752.024272 1152.30287 751.386817 1152.23204 751.26877 1153.64863 748.955045 1155.51381 747.750963 1156.31654 747.06629 1157.1665 745.106706 1155.79713 743.69014 1157.59147 742.297183 1157.54425 740.73896 1157.70952 740.880617 1161.03851 739.91263 1161.08573 739.0863 1162.64398"></polygon>
        </g>
    </g>
</svg>