<?xml version="1.0" encoding="utf-8"?>
<!-- Generator: Adobe Illustrator 21.1.0, SVG Export Plug-In . SVG Version: 6.00 Build 0)  -->
<svg version="1.1" id="Layer_1" xmlns="http://www.w3.org/2000/svg" xmlns:xlink="http://www.w3.org/1999/xlink" x="0px" y="0px"
	 viewBox="0 0 39 39" style="enable-background:new 0 0 39 39;" xml:space="preserve">
<style type="text/css">
	.st0{fill:#B1B2B3;stroke:#FFFFFF;stroke-width:0.5;}
</style>
<title>HR</title>
<desc>Created with Sketch.</desc>
<g id="Map-countries">
	<g id="Artboard" transform="translate(-1405.000000, -902.000000)">
		<polygon id="HR" class="st0" points="1439.7,908.5 1441.3,912.1 1443.4,914.8 1440.9,918.4 1437.9,916.3 1433.3,916.4 
			1427.6,914.9 1424.5,915.1 1423.1,917 1420.7,914.9 1419.3,918.7 1422.6,923.1 1424,925.9 1427,929.3 1429.5,931.3 1432,935.1 
			1437.9,938.5 1437.2,940.1 1431,936.7 1427.1,933.5 1421.1,930.8 1415.5,924.1 1416.8,923.4 1413.8,919.5 1413.7,916.3 
			1409.4,914.9 1407.4,918.9 1405.4,915.8 1405.6,912.5 1405.8,912.4 1410.4,912.7 1411.7,911.1 1413.9,912.6 1416.5,912.8 
			1416.5,910.2 1418.8,909.2 1419.4,905.4 1424.7,902.8 1426.8,904 1431.8,908.1 1437.2,909.9 		"/>
	</g>
</g>
</svg>
