<?xml version="1.0" encoding="UTF-8"?>
<svg width="39px" height="38px" viewBox="0 0 39 38" version="1.1" xmlns="http://www.w3.org/2000/svg" xmlns:xlink="http://www.w3.org/1999/xlink">
    <!-- Generator: Sketch 43.2 (39069) - http://www.bohemiancoding.com/sketch -->
    <title>HR</title>
    <desc>Created with Sketch.</desc>
    <defs></defs>
    <g id="Map-countries" stroke="none" stroke-width="1" fill="none" fill-rule="evenodd">
        <g id="Artboard" transform="translate(-1405.000000, -902.000000)" stroke-width="0.5" stroke="#FFFFFF" fill="#B1B2B3">
            <polygon id="HR" points="1439.69637 907.988341 1441.30181 911.647865 1443.40305 914.339386 1440.85323 917.85725 1437.85483 915.779585 1433.2746 915.921244 1427.58473 914.362995 1424.49189 914.575484 1423.07533 916.51149 1420.69077 914.362995 1419.29782 918.235008 1422.55592 922.555607 1423.97248 925.412396 1427.0181 928.835822 1429.54431 930.842657 1432.04691 934.64384 1437.90205 938.043656 1437.17016 939.554685 1430.96088 936.249309 1427.11254 932.991152 1421.06852 930.299631 1415.4967 923.570829 1416.84243 922.862535 1413.82043 918.990522 1413.67877 915.826805 1409.42907 914.362995 1407.39866 918.400276 1405.43908 915.260169 1405.60434 912.002012 1405.84044 911.860353 1410.44428 912.190891 1411.67197 910.585422 1413.91486 912.120061 1416.5119 912.30894 1416.48829 909.664639 1418.77841 908.696636 1419.43947 904.871843 1424.70438 902.321982 1426.80562 903.502473 1431.7636 907.586974 1437.21738 909.404931"></polygon>
        </g>
    </g>
</svg>