<?xml version="1.0" encoding="utf-8"?>
<!-- Generator: Adobe Illustrator 21.1.0, SVG Export Plug-In . SVG Version: 6.00 Build 0)  -->
<svg version="1.1" id="Layer_1" xmlns="http://www.w3.org/2000/svg" xmlns:xlink="http://www.w3.org/1999/xlink" x="0px" y="0px"
	 viewBox="0 0 44 44" style="enable-background:new 0 0 44 44;" xml:space="preserve">
<style type="text/css">
	.st0{fill:#B1B2B3;stroke:#FFFFFF;stroke-width:0.5;}
</style>
<title>HU</title>
<desc>Created with Sketch.</desc>
<g id="Map-countries">
	<g id="Artboard" transform="translate(-1422.000000, -881.000000)">
		<polygon id="HU" class="st0" points="1422.3,906.5 1424.5,900.2 1423.2,898.1 1426.9,898.1 1427.4,894.1 1430.8,896.6 
			1433.3,897.7 1438.8,896.5 1439.3,894.5 1442,894.2 1445.2,892.6 1445.9,893.3 1449,892 1450.6,889.7 1452.8,889.1 1459.8,892.1 
			1461.3,891.1 1464.9,893.8 1465.4,896.4 1461.3,898.5 1458.2,905.1 1454.2,911.6 1448.9,913.4 1444.8,913 1439.7,915.5 
			1437.2,916.9 1431.8,915.1 1426.8,911 1424.7,909.8 1423.4,906.6 		"/>
	</g>
</g>
</svg>
