<?xml version="1.0" encoding="UTF-8"?>
<svg width="304px" height="106px" viewBox="0 0 304 106" version="1.1" xmlns="http://www.w3.org/2000/svg" xmlns:xlink="http://www.w3.org/1999/xlink">
    <!-- Generator: Sketch 43.2 (39069) - http://www.bohemiancoding.com/sketch -->
    <title>ID</title>
    <desc>Created with Sketch.</desc>
    <defs></defs>
    <g id="Map-countries" stroke="none" stroke-width="1" fill="none" fill-rule="evenodd">
        <g id="Artboard" transform="translate(-1945.000000, -1212.000000)" stroke="#FFFFFF" stroke-width="0.5" fill="#B1B2B3">
            <path d="M2114.14718,1316.74535 L2111.36127,1316.86339 L2102.57856,1312.18865 L2108.74062,1310.8665 L2112.21121,1312.89694 L2114.52494,1314.92739 L2114.14718,1316.74535 L2114.14718,1316.74535 Z M2138.77183,1316.08427 L2133.10556,1317.54808 L2132.30284,1316.74535 L2132.89308,1314.4788 L2135.74982,1310.41791 L2142.28963,1307.77361 L2142.9507,1309.09576 L2143.06875,1311.12621 L2138.77183,1316.08427 L2138.77183,1316.08427 Z M2095.51934,1302.4614 L2097.90389,1304.23214 L2101.98832,1303.68911 L2103.64098,1306.52229 L2095.99153,1307.86805 L2091.4113,1308.76522 L2087.84627,1308.718 L2090.11278,1304.89321 L2093.74863,1304.84599 L2095.51934,1302.4614 L2095.51934,1302.4614 Z M2128.64338,1302.43779 L2127.67539,1306.12092 L2117.73582,1308.00971 L2108.9295,1307.18336 L2108.90589,1304.75155 L2114.17079,1303.35857 L2118.32605,1305.3418 L2122.74102,1304.84599 L2128.64338,1302.43779 L2128.64338,1302.43779 Z M2034.11119,1293.72576 L2046.78946,1294.38684 L2048.25324,1291.6481 L2060.53015,1294.83542 L2062.93831,1299.13241 L2072.87789,1300.33651 L2080.99953,1304.27935 L2073.44451,1306.80561 L2066.17281,1304.1377 L2060.17601,1304.32657 L2053.30566,1303.83077 L2047.11999,1302.62667 L2039.44692,1300.10041 L2034.58338,1299.43934 L2031.82107,1300.26568 L2019.75665,1297.52694 L2018.59979,1294.67015 L2012.53216,1294.17435 L2017.06518,1287.84691 L2025.09238,1288.24828 L2030.42812,1290.82175 L2033.16681,1291.31756 L2034.11119,1293.72576 L2034.11119,1293.72576 Z M2206.88506,1289.99541 L2203.4853,1294.50488 L2202.84784,1289.52321 L2204.02831,1287.13862 L2205.42127,1284.89568 L2206.93228,1286.83169 L2206.88506,1289.99541 L2206.88506,1289.99541 Z M2157.39967,1271.79223 L2154.92068,1273.98794 L2150.34045,1272.78384 L2149.04193,1269.95066 L2155.74701,1269.64373 L2157.39967,1271.79223 L2157.39967,1271.79223 Z M2178.74261,1269.40763 L2181.15077,1274.43653 L2175.55533,1271.7214 L2170.03072,1271.17837 L2166.30043,1271.60335 L2161.7202,1271.36725 L2163.30203,1267.75495 L2171.4709,1267.47163 L2178.74261,1269.40763 L2178.74261,1269.40763 Z M2203.03672,1256.61111 L2204.87825,1267.25914 L2211.72499,1271.20198 L2217.2496,1264.21347 L2224.85184,1260.24702 L2230.73059,1260.24702 L2236.39685,1262.53717 L2241.30762,1264.89816 L2248.41406,1266.14948 L2248.53211,1287.63442 L2248.65015,1309.26103 L2242.74779,1303.80716 L2236.0191,1302.4614 L2234.39005,1304.35018 L2226.0087,1304.56267 L2228.81822,1299.15602 L2232.99709,1297.31445 L2231.27361,1290.11346 L2228.08633,1284.56515 L2215.2428,1278.96962 L2209.78902,1278.42659 L2199.84944,1272.33525 L2197.88986,1275.54619 L2195.34004,1276.13644 L2193.82904,1273.72823 L2193.80543,1270.87144 L2188.75301,1267.6369 L2195.88306,1265.27591 L2200.60495,1265.39396 L2200.03832,1263.64684 L2190.35845,1263.62323 L2187.7378,1259.70399 L2181.83544,1258.49989 L2179.02592,1255.24174 L2187.95029,1253.65988 L2191.35005,1251.51138 L2201.97429,1254.2029 L2203.03672,1256.61111 L2203.03672,1256.61111 Z M2144.10756,1239.70647 L2138.79544,1246.22278 L2133.81385,1247.49771 L2127.4393,1246.22278 L2116.41369,1246.55332 L2110.62938,1247.49771 L2109.685,1252.47939 L2115.61097,1258.33462 L2119.17599,1255.35978 L2131.52373,1253.11685 L2130.98071,1256.13891 L2128.10036,1255.19452 L2125.22001,1259.04292 L2119.38848,1261.59278 L2125.64498,1270.02149 L2124.4409,1272.28803 L2130.39048,1279.8904 L2130.34326,1284.23461 L2126.80184,1286.17061 L2124.2048,1283.85685 L2127.41569,1278.4502 L2120.92309,1281.00006 L2119.27043,1279.1821 L2120.12037,1276.63224 L2115.35127,1272.76023 L2115.84706,1266.33836 L2111.4321,1268.34519 L2111.99873,1276.01839 L2112.25843,1285.46232 L2108.05595,1286.43032 L2105.22282,1284.49432 L2107.11157,1278.42659 L2106.09637,1272.07555 L2103.31045,1272.02833 L2101.25643,1267.51885 L2103.99513,1263.19825 L2104.9395,1257.98048 L2108.26843,1248.06435 L2109.66139,1245.34922 L2115.28044,1240.46198 L2120.4509,1242.39799 L2128.80865,1243.31877 L2136.41088,1243.03545 L2142.9507,1238.26627 L2144.10756,1239.70647 L2144.10756,1239.70647 Z M2166.93789,1241.59525 L2166.58375,1247.33244 L2163.16038,1246.69498 L2162.14517,1250.68504 L2164.88387,1254.15568 L2163.01872,1254.93481 L2160.35085,1250.77948 L2158.39127,1242.37438 L2159.7134,1237.10939 L2161.90908,1234.72479 L2162.38127,1238.31349 L2166.30043,1238.88012 L2166.93789,1241.59525 L2166.93789,1241.59525 Z M2095.35407,1237.01495 L2102.76744,1243.10628 L2094.9291,1243.88541 L2092.70981,1248.37127 L2092.99313,1254.32095 L2086.61858,1258.83043 L2086.47692,1265.37035 L2083.9271,1275.45175 L2082.95912,1273.11438 L2075.42771,1276.08922 L2072.80706,1272.05194 L2068.08517,1271.67418 L2064.77985,1269.5729 L2056.91791,1271.93389 L2054.50974,1268.74656 L2050.16561,1269.10071 L2044.71183,1268.34519 L2043.69662,1259.51512 L2040.3913,1257.69716 L2037.20403,1252.07802 L2036.28326,1246.31722 L2037.06237,1240.22588 L2041.00515,1235.85806 L2042.11479,1240.24949 L2046.6478,1243.95624 L2050.92111,1242.61048 L2055.1472,1243.08267 L2058.99554,1239.75369 L2062.1592,1239.18705 L2068.4157,1241.02862 L2073.82226,1239.63564 L2077.22202,1230.47502 L2079.77184,1228.18487 L2082.06196,1220.70055 L2089.6642,1220.70055 L2095.40129,1221.81022 L2091.64739,1227.75989 L2096.51093,1233.99289 L2095.35407,1237.01495 L2095.35407,1237.01495 Z M2015.53056,1287.5872 L2008.21164,1287.72886 L2002.63981,1282.20416 L1994.14041,1276.82112 L1991.30728,1272.83106 L1986.30208,1267.47163 L1983.02037,1262.53717 L1977.99156,1253.32934 L1972.18363,1247.85186 L1970.24766,1242.20911 L1967.81589,1237.08578 L1961.8427,1232.95406 L1958.37211,1227.31131 L1953.39052,1223.62817 L1946.49657,1216.35634 L1945.90633,1213.00375 L1950.17964,1213.26346 L1960.42613,1214.53839 L1966.28127,1220.98387 L1971.40452,1225.44613 L1975.06399,1228.18487 L1981.3441,1235.26782 L1988.07279,1235.36226 L1993.64461,1239.87174 L1997.46934,1245.37283 L2002.49815,1248.37127 L1999.8539,1253.73071 L2003.65501,1256.02086 L2006.03957,1256.18613 L2007.17282,1260.76644 L2009.48655,1264.44957 L2014.35009,1265.03982 L2017.56097,1269.19515 L2015.90831,1277.38776 L2015.53056,1287.5872 L2015.53056,1287.5872 Z" id="ID"></path>
        </g>
    </g>
</svg>