<?xml version="1.0" encoding="utf-8"?>
<!-- Generator: Adobe Illustrator 21.1.0, SVG Export Plug-In . SVG Version: 6.00 Build 0)  -->
<svg version="1.1" id="Layer_1" xmlns="http://www.w3.org/2000/svg" xmlns:xlink="http://www.w3.org/1999/xlink" x="0px" y="0px"
	 viewBox="0 0 304 304" style="enable-background:new 0 0 304 304;" xml:space="preserve">
<style type="text/css">
	.st0{fill:#B1B2B3;stroke:#FFFFFF;stroke-width:0.5;}
</style>
<title>ID</title>
<desc>Created with Sketch.</desc>
<g id="Map-countries">
	<g id="Artboard" transform="translate(-1945.000000, -1212.000000)">
		<path id="ID" class="st0" d="M2114.1,1415.7l-2.8,0.1l-8.8-4.7l6.2-1.3l3.5,2l2.3,2L2114.1,1415.7L2114.1,1415.7z M2138.8,1415.1
			l-5.7,1.5l-0.8-0.8l0.6-2.3l2.9-4.1l6.5-2.6l0.7,1.3l0.1,2L2138.8,1415.1L2138.8,1415.1z M2095.5,1401.5l2.4,1.8l4.1-0.5l1.7,2.8
			l-7.6,1.3l-4.6,0.9l-3.6,0l2.3-3.8l3.6,0L2095.5,1401.5L2095.5,1401.5z M2128.6,1401.4l-1,3.7l-9.9,1.9l-8.8-0.8l0-2.4l5.3-1.4
			l4.2,2l4.4-0.5L2128.6,1401.4L2128.6,1401.4z M2034.1,1392.7l12.7,0.7l1.5-2.7l12.3,3.2l2.4,4.3l9.9,1.2l8.1,3.9l-7.6,2.5
			l-7.3-2.7l-6,0.2l-6.9-0.5l-6.2-1.2l-7.7-2.5l-4.9-0.7l-2.8,0.8l-12.1-2.7l-1.2-2.9l-6.1-0.5l4.5-6.3l8,0.4l5.3,2.6l2.7,0.5
			L2034.1,1392.7L2034.1,1392.7z M2206.9,1389l-3.4,4.5l-0.6-5l1.2-2.4l1.4-2.2l1.5,1.9L2206.9,1389L2206.9,1389z M2157.4,1370.8
			l-2.5,2.2l-4.6-1.2l-1.3-2.8l6.7-0.3L2157.4,1370.8L2157.4,1370.8z M2178.7,1368.4l2.4,5l-5.6-2.7l-5.5-0.5l-3.7,0.4l-4.6-0.2
			l1.6-3.6l8.2-0.3L2178.7,1368.4L2178.7,1368.4z M2203,1355.6l1.8,10.6l6.8,3.9l5.5-7l7.6-4h5.9l5.7,2.3l4.9,2.4l7.1,1.3l0.1,21.5
			l0.1,21.6l-5.9-5.5l-6.7-1.3l-1.6,1.9l-8.4,0.2l2.8-5.4l4.2-1.8l-1.7-7.2l-3.2-5.5l-12.8-5.6l-5.5-0.5l-9.9-6.1l-2,3.2l-2.5,0.6
			l-1.5-2.4l0-2.9l-5.1-3.2l7.1-2.4l4.7,0.1l-0.6-1.7l-9.7,0l-2.6-3.9l-5.9-1.2l-2.8-3.3l8.9-1.6l3.4-2.1l10.6,2.7L2203,1355.6
			L2203,1355.6z M2144.1,1338.7l-5.3,6.5l-5,1.3l-6.4-1.3l-11,0.3l-5.8,0.9l-0.9,5l5.9,5.9l3.6-3l12.3-2.2l-0.5,3l-2.9-0.9l-2.9,3.8
			l-5.8,2.5l6.3,8.4l-1.2,2.3l5.9,7.6l0,4.3l-3.5,1.9l-2.6-2.3l3.2-5.4l-6.5,2.5l-1.7-1.8l0.8-2.5l-4.8-3.9l0.5-6.4l-4.4,2l0.6,7.7
			l0.3,9.4l-4.2,1l-2.8-1.9l1.9-6.1l-1-6.4l-2.8,0l-2.1-4.5l2.7-4.3l0.9-5.2l3.3-9.9l1.4-2.7l5.6-4.9l5.2,1.9l8.4,0.9l7.6-0.3
			l6.5-4.8L2144.1,1338.7L2144.1,1338.7z M2166.9,1340.6l-0.4,5.7l-3.4-0.6l-1,4l2.7,3.5l-1.9,0.8l-2.7-4.2l-2-8.4l1.3-5.3l2.2-2.4
			l0.5,3.6l3.9,0.6L2166.9,1340.6L2166.9,1340.6z M2095.4,1336l7.4,6.1l-7.8,0.8l-2.2,4.5l0.3,5.9l-6.4,4.5l-0.1,6.5l-2.5,10.1
			l-1-2.3l-7.5,3l-2.6-4l-4.7-0.4l-3.3-2.1l-7.9,2.4l-2.4-3.2l-4.3,0.4l-5.5-0.8l-1-8.8l-3.3-1.8l-3.2-5.6l-0.9-5.8l0.8-6.1l3.9-4.4
			l1.1,4.4l4.5,3.7l4.3-1.3l4.2,0.5l3.8-3.3l3.2-0.6l6.3,1.8l5.4-1.4l3.4-9.2l2.5-2.3l2.3-7.5h7.6l5.7,1.1l-3.8,5.9l4.9,6.2
			L2095.4,1336L2095.4,1336z M2015.5,1386.6l-7.3,0.1l-5.6-5.5l-8.5-5.4l-2.8-4l-5-5.4l-3.3-4.9l-5-9.2l-5.8-5.5l-1.9-5.6l-2.4-5.1
			l-6-4.1l-3.5-5.6l-5-3.7l-6.9-7.3l-0.6-3.4l4.3,0.3l10.2,1.3l5.9,6.4l5.1,4.5l3.7,2.7l6.3,7.1l6.7,0.1l5.6,4.5l3.8,5.5l5,3
			l-2.6,5.4l3.8,2.3l2.4,0.2l1.1,4.6l2.3,3.7l4.9,0.6l3.2,4.2l-1.7,8.2L2015.5,1386.6L2015.5,1386.6z"/>
	</g>
</g>
</svg>
