<?xml version="1.0" encoding="UTF-8"?>
<svg width="195px" height="199px" viewBox="0 0 195 199" version="1.1" xmlns="http://www.w3.org/2000/svg" xmlns:xlink="http://www.w3.org/1999/xlink">
    <!-- Generator: Sketch 43.2 (39069) - http://www.bohemiancoding.com/sketch -->
    <title>IN</title>
    <desc>Created with Sketch.</desc>
    <defs></defs>
    <g id="Map-countries" stroke="none" stroke-width="1" fill="none" fill-rule="evenodd">
        <g id="Artboard" transform="translate(-1766.000000, -998.000000)" stroke-width="0.5" stroke="#FFFFFF" fill="#B1B2B3">
            <polygon id="IN" points="1830.31452 998.9098 1837.42096 1008.33012 1836.7599 1014.79922 1839.38055 1018.8365 1839.16806 1022.82656 1834.42256 1021.78773 1836.28771 1030.3581 1842.7803 1035.22172 1851.98799 1040.58115 1847.78551 1044.02819 1845.21208 1051.08753 1851.63384 1053.92071 1857.86674 1057.58023 1866.50779 1061.75917 1875.57381 1062.72717 1879.39854 1066.48114 1884.49818 1067.16582 1892.47817 1068.88934 1897.97917 1068.77129 1898.73467 1065.84367 1897.86112 1061.14531 1898.38053 1057.95799 1902.41774 1056.37613 1902.98437 1062.23137 1903.10242 1063.71879 1909.12283 1066.52836 1913.3017 1065.37147 1918.87352 1065.86728 1924.28008 1065.65479 1924.75227 1061.0981 1922.0608 1058.73711 1927.39653 1057.79272 1933.41694 1052.24441 1941.04279 1047.45161 1946.591 1049.29318 1951.31289 1046.12946 1954.42934 1050.80421 1952.18644 1053.96793 1959.31649 1055.07759 1959.8359 1057.91077 1957.49856 1059.28014 1958.04158 1063.83684 1953.31969 1062.49108 1944.74947 1067.5908 1944.93834 1071.79335 1941.30249 1077.9319 1940.94835 1081.47338 1937.99717 1087.42306 1932.8267 1085.77037 1932.567 1093.20747 1931.0796 1095.63928 1931.78789 1098.66134 1928.50617 1100.36124 1925.03559 1089.02853 1923.19405 1089.05214 1922.10802 1093.63244 1918.49577 1089.90209 1920.52618 1085.81759 1923.50097 1085.39261 1926.54659 1079.27767 1922.74547 1078.02634 1916.58341 1078.14439 1910.3033 1077.15278 1909.71306 1072.07667 1906.5494 1071.69891 1901.3081 1068.53519 1898.97077 1073.51687 1903.73987 1077.36527 1899.60822 1080.0804 1898.14444 1082.7247 1902.20526 1084.66071 1901.09562 1089.00492 1903.38573 1094.38796 1904.42455 1100.2432 1903.45656 1102.84028 1898.97077 1102.74584 1890.8019 1104.20965 1891.17965 1109.52186 1887.63824 1113.67719 1878.12363 1118.39916 1870.71027 1126.56816 1865.72868 1130.93598 1859.14165 1135.44545 1859.14165 1138.60917 1855.83632 1140.30908 1849.86314 1142.74089 1846.7703 1143.11865 1844.78711 1148.31281 1846.15645 1157.1665 1846.5106 1162.76203 1843.72468 1169.16029 1843.67746 1180.56384 1840.25409 1180.89438 1837.2557 1185.97049 1839.2625 1188.16621 1833.21848 1190.05499 1830.9992 1194.58808 1828.33133 1196.50048 1822.07483 1190.29109 1819.0056 1180.9416 1816.45578 1174.18919 1814.14206 1171.02547 1810.62425 1164.55637 1808.9952 1156.10406 1807.83834 1151.85429 1801.81793 1142.48118 1799.07923 1129.16524 1797.09604 1120.26433 1797.11965 1111.81201 1795.84474 1105.20126 1786.21209 1109.42742 1781.53742 1108.57747 1772.89637 1100.0071 1776.08364 1097.43363 1774.12406 1094.64767 1766.35655 1088.55633 1770.77152 1083.73992 1785.33854 1083.76353 1784.01641 1077.53054 1780.30973 1073.8474 1779.55423 1068.20465 1775.21009 1064.89928 1782.50541 1057.10803 1790.20209 1057.67467 1797.11965 1049.83621 1801.27491 1042.1394 1807.69668 1034.48982 1807.60224 1028.98873 1813.2449 1024.47925 1807.88556 1020.63084 1805.59544 1015.31863 1803.25811 1008.35373 1806.4926 1004.9067 1816.55022 1006.86631 1823.91636 1005.66221"></polygon>
        </g>
    </g>
</svg>