<?xml version="1.0" encoding="utf-8"?>
<!-- Generator: Adobe Illustrator 21.1.0, SVG Export Plug-In . SVG Version: 6.00 Build 0)  -->
<svg version="1.1" id="Layer_1" xmlns="http://www.w3.org/2000/svg" xmlns:xlink="http://www.w3.org/1999/xlink" x="0px" y="0px"
	 viewBox="0 0 199 199" style="enable-background:new 0 0 199 199;" xml:space="preserve">
<style type="text/css">
	.st0{fill:#B1B2B3;stroke:#FFFFFF;stroke-width:0.5;}
</style>
<title>IN</title>
<desc>Created with Sketch.</desc>
<g id="Map-countries">
	<g id="Artboard" transform="translate(-1766.000000, -998.000000)">
		<polygon id="IN" class="st0" points="1832.3,998.9 1839.4,1008.3 1838.8,1014.8 1841.4,1018.8 1841.2,1022.8 1836.4,1021.8 
			1838.3,1030.4 1844.8,1035.2 1854,1040.6 1849.8,1044 1847.2,1051.1 1853.6,1053.9 1859.9,1057.6 1868.5,1061.8 1877.6,1062.7 
			1881.4,1066.5 1886.5,1067.2 1894.5,1068.9 1900,1068.8 1900.7,1065.8 1899.9,1061.1 1900.4,1058 1904.4,1056.4 1905,1062.2 
			1905.1,1063.7 1911.1,1066.5 1915.3,1065.4 1920.9,1065.9 1926.3,1065.7 1926.8,1061.1 1924.1,1058.7 1929.4,1057.8 
			1935.4,1052.2 1943,1047.5 1948.6,1049.3 1953.3,1046.1 1956.4,1050.8 1954.2,1054 1961.3,1055.1 1961.8,1057.9 1959.5,1059.3 
			1960,1063.8 1955.3,1062.5 1946.7,1067.6 1946.9,1071.8 1943.3,1077.9 1942.9,1081.5 1940,1087.4 1934.8,1085.8 1934.6,1093.2 
			1933.1,1095.6 1933.8,1098.7 1930.5,1100.4 1927,1089 1925.2,1089.1 1924.1,1093.6 1920.5,1089.9 1922.5,1085.8 1925.5,1085.4 
			1928.5,1079.3 1924.7,1078 1918.6,1078.1 1912.3,1077.2 1911.7,1072.1 1908.5,1071.7 1903.3,1068.5 1901,1073.5 1905.7,1077.4 
			1901.6,1080.1 1900.1,1082.7 1904.2,1084.7 1903.1,1089 1905.4,1094.4 1906.4,1100.2 1905.5,1102.8 1901,1102.7 1892.8,1104.2 
			1893.2,1109.5 1889.6,1113.7 1880.1,1118.4 1872.7,1126.6 1867.7,1130.9 1861.1,1135.4 1861.1,1138.6 1857.8,1140.3 
			1851.9,1142.7 1848.8,1143.1 1846.8,1148.3 1848.2,1157.2 1848.5,1162.8 1845.7,1169.2 1845.7,1180.6 1842.3,1180.9 1839.3,1186 
			1841.3,1188.2 1835.2,1190.1 1833,1194.6 1830.3,1196.5 1824.1,1190.3 1821,1180.9 1818.5,1174.2 1816.1,1171 1812.6,1164.6 
			1811,1156.1 1809.8,1151.9 1803.8,1142.5 1801.1,1129.2 1799.1,1120.3 1799.1,1111.8 1797.8,1105.2 1788.2,1109.4 1783.5,1108.6 
			1774.9,1100 1778.1,1097.4 1776.1,1094.6 1768.4,1088.6 1772.8,1083.7 1787.3,1083.8 1786,1077.5 1782.3,1073.8 1781.6,1068.2 
			1777.2,1064.9 1784.5,1057.1 1792.2,1057.7 1799.1,1049.8 1803.3,1042.1 1809.7,1034.5 1809.6,1029 1815.2,1024.5 1809.9,1020.6 
			1807.6,1015.3 1805.3,1008.4 1808.5,1004.9 1818.6,1006.9 1825.9,1005.7 		"/>
	</g>
</g>
</svg>
