<?xml version="1.0" encoding="utf-8"?>
<!-- Generator: Adobe Illustrator 21.1.0, SVG Export Plug-In . SVG Version: 6.00 Build 0)  -->
<svg version="1.1" id="Layer_1" xmlns="http://www.w3.org/2000/svg" xmlns:xlink="http://www.w3.org/1999/xlink" x="0px" y="0px"
	 viewBox="0 0 63 63" style="enable-background:new 0 0 63 63;" xml:space="preserve">
<style type="text/css">
	.st0{fill:#B1B2B3;stroke:#FFFFFF;stroke-width:0.5;}
</style>
<title>ID</title>
<desc>Created with Sketch.</desc>
<g id="_x30_6-MAP">
	<g id="Map---List" transform="translate(-36.000000, -401.000000)">
		<g id="Group-Copy" transform="translate(15.000000, 361.000000)">
			<path id="ID" class="st0" d="M55.8,81.8l-0.6,0l-1.8-0.9l1.2-0.3l0.7,0.4l0.5,0.4L55.8,81.8L55.8,81.8z M60.7,81.7L59.6,82
				l-0.2-0.2l0.1-0.5l0.6-0.8l1.3-0.5l0.1,0.3l0,0.4L60.7,81.7L60.7,81.7z M52.1,79l0.5,0.4l0.8-0.1l0.3,0.6l-1.5,0.3l-0.9,0.2
				l-0.7,0l0.5-0.8l0.7,0L52.1,79L52.1,79z M58.7,79l-0.2,0.7l-2,0.4l-1.8-0.2l0-0.5l1.1-0.3l0.8,0.4l0.9-0.1L58.7,79L58.7,79z
				 M39.7,77.2l2.5,0.1l0.3-0.6l2.5,0.6l0.5,0.9l2,0.2l1.6,0.8l-1.5,0.5l-1.5-0.5l-1.2,0l-1.4-0.1L42.3,79l-1.5-0.5l-1-0.1l-0.6,0.2
				L36.8,78l-0.2-0.6l-1.2-0.1l0.9-1.3l1.6,0.1l1.1,0.5l0.6,0.1L39.7,77.2L39.7,77.2z M74.4,76.5l-0.7,0.9l-0.1-1l0.2-0.5l0.3-0.5
				l0.3,0.4L74.4,76.5L74.4,76.5z M64.5,72.8L64,73.2L63.1,73l-0.3-0.6l1.3-0.1L64.5,72.8L64.5,72.8z M68.8,72.3l0.5,1l-1.1-0.5
				L67,72.7l-0.7,0.1l-0.9,0l0.3-0.7l1.6-0.1L68.8,72.3L68.8,72.3z M73.7,69.8l0.4,2.1l1.4,0.8l1.1-1.4l1.5-0.8h1.2l1.1,0.5l1,0.5
				l1.4,0.3l0,4.3l0,4.3l-1.2-1.1L80.3,79l-0.3,0.4l-1.7,0l0.6-1.1l0.8-0.4l-0.3-1.4l-0.6-1.1l-2.6-1.1L75,74.1l-2-1.2l-0.4,0.6
				l-0.5,0.1l-0.3-0.5l0-0.6l-1-0.6l1.4-0.5l0.9,0L73,71.2l-1.9,0l-0.5-0.8l-1.2-0.2l-0.6-0.7l1.8-0.3l0.7-0.4l2.1,0.5L73.7,69.8
				L73.7,69.8z M61.8,66.4l-1.1,1.3l-1,0.3l-1.3-0.3l-2.2,0.1l-1.2,0.2l-0.2,1l1.2,1.2l0.7-0.6l2.5-0.5l-0.1,0.6l-0.6-0.2L58,70.2
				l-1.2,0.5l1.3,1.7l-0.2,0.5l1.2,1.5l0,0.9l-0.7,0.4l-0.5-0.5l0.6-1.1l-1.3,0.5l-0.3-0.4l0.2-0.5L56,73l0.1-1.3l-0.9,0.4l0.1,1.5
				l0.1,1.9l-0.8,0.2L54,75.4l0.4-1.2l-0.2-1.3l-0.6,0L53.2,72l0.6-0.9l0.2-1l0.7-2l0.3-0.5l1.1-1l1,0.4l1.7,0.2l1.5-0.1l1.3-1
				L61.8,66.4L61.8,66.4z M66.4,66.7l-0.1,1.2l-0.7-0.1l-0.2,0.8l0.6,0.7l-0.4,0.2l-0.5-0.8l-0.4-1.7l0.3-1.1l0.4-0.5l0.1,0.7
				l0.8,0.1L66.4,66.7L66.4,66.7z M52,65.8l1.5,1.2l-1.6,0.2l-0.4,0.9l0.1,1.2l-1.3,0.9l0,1.3l-0.5,2l-0.2-0.5L48,73.7l-0.5-0.8
				l-0.9-0.1l-0.7-0.4l-1.6,0.5l-0.5-0.6l-0.9,0.1l-1.1-0.2l-0.2-1.8L41,70l-0.6-1.1l-0.2-1.2l0.2-1.2l0.8-0.9l0.2,0.9l0.9,0.7
				l0.9-0.3l0.8,0.1l0.8-0.7l0.6-0.1l1.3,0.4l1.1-0.3l0.7-1.8l0.5-0.5l0.5-1.5h1.5l1.2,0.2L51.3,64l1,1.3L52,65.8L52,65.8z M36,76
				l-1.5,0l-1.1-1.1l-1.7-1.1L31.1,73l-1-1.1l-0.7-1l-1-1.8L27.3,68l-0.4-1.1l-0.5-1L25.2,65l-0.7-1.1l-1-0.7l-1.4-1.5L22,61
				l0.9,0.1l2.1,0.3l1.2,1.3l1,0.9l0.7,0.6l1.3,1.4l1.4,0l1.1,0.9l0.8,1.1l1,0.6l-0.5,1.1l0.8,0.5l0.5,0l0.2,0.9l0.5,0.7l1,0.1
				l0.6,0.8l-0.3,1.6L36,76L36,76z"/>
		</g>
	</g>
</g>
</svg>
