<?xml version="1.0" encoding="UTF-8" standalone="no"?>
<svg width="63px" height="23px" viewBox="0 0 63 23" version="1.1" xmlns="http://www.w3.org/2000/svg" xmlns:xlink="http://www.w3.org/1999/xlink">
    <!-- Generator: Sketch 42 (36781) - http://www.bohemiancoding.com/sketch -->
    <title>ID</title>
    <desc>Created with Sketch.</desc>
    <defs></defs>
    <g id="06-MAP" stroke="none" stroke-width="1" fill="none" fill-rule="evenodd">
        <g id="Map---List" transform="translate(-36.000000, -401.000000)" stroke="#FFFFFF" stroke-width="0.5" fill="#B1B2B3">
            <g id="Group-Copy" transform="translate(15.000000, 361.000000)">
                <path d="M55.7948303,61.8387534 L55.235219,61.8624661 L53.4710207,60.9234417 L54.708805,60.6578591 L55.4059479,61.0657182 L55.8707098,61.4735772 L55.7948303,61.8387534 L55.7948303,61.8387534 Z M60.7412249,61.7059621 L59.6030325,62 L59.4417885,61.8387534 L59.5603502,61.3834688 L60.1341889,60.5677507 L61.4478527,60.0365854 L61.5806418,60.302168 L61.6043542,60.7100271 L60.7412249,61.7059621 L60.7412249,61.7059621 Z M52.0530227,58.9695122 L52.532012,59.3252033 L53.352459,59.2161247 L53.6844318,59.7852304 L52.147872,60.0555556 L51.2278332,60.2357724 L50.5117204,60.2262873 L50.9669974,59.4579946 L51.6973375,59.4485095 L52.0530227,58.9695122 L52.0530227,58.9695122 Z M58.7067059,58.9647696 L58.5122647,59.704607 L56.5156855,60.0840108 L54.7467448,59.9180217 L54.7420023,59.4295393 L55.7995728,59.149729 L56.6342472,59.548103 L57.5210888,59.4485095 L58.7067059,58.9647696 L58.7067059,58.9647696 Z M39.7178622,57.2147696 L42.2645678,57.347561 L42.5586008,56.7974255 L45.0246844,57.4376694 L45.5084162,58.300813 L47.5049954,58.5426829 L49.1364046,59.3346883 L47.6188147,59.8421409 L46.1581344,59.3062331 L44.9535474,59.3441734 L43.573489,59.2445799 L42.3309623,59.00271 L40.7896601,58.4952575 L39.8127116,58.3624661 L39.2578427,58.5284553 L36.8344414,57.9783198 L36.6020604,57.4044715 L35.383246,57.304878 L36.2938,56.0338753 L37.9062392,56.1144986 L38.9780371,56.6314363 L39.5281634,56.7310298 L39.7178622,57.2147696 L39.7178622,57.2147696 Z M74.4232464,56.4654472 L73.740331,57.3712737 L73.6122843,56.3705962 L73.8494077,55.8915989 L74.1292134,55.4410569 L74.4327314,55.8299458 L74.4232464,56.4654472 L74.4232464,56.4654472 Z M64.4830325,52.8089431 L63.9850733,53.25 L63.0650344,53.0081301 L62.8041987,52.4390244 L64.1510597,52.3773713 L64.4830325,52.8089431 L64.4830325,52.8089431 Z M68.770224,52.3299458 L69.2539558,53.3401084 L68.1299908,52.7947154 L67.0202531,52.6856369 L66.2709431,52.7710027 L65.3509042,52.7235772 L65.6686496,51.9979675 L67.3095437,51.9410569 L68.770224,52.3299458 L68.770224,52.3299458 Z M73.6502241,49.7594851 L74.0201366,51.898374 L75.3954525,52.6903794 L76.5051901,51.2865854 L78.0322649,50.4898374 L79.2131396,50.4898374 L80.351332,50.9498645 L81.3377654,51.4241192 L82.7652484,51.6754743 L82.7889608,55.9911924 L82.8126731,60.3353659 L81.627056,59.2398374 L80.2754525,58.9695122 L79.9482222,59.348916 L78.2646459,59.3915989 L78.8289996,58.3055556 L79.6684165,57.9356369 L79.3222163,56.4891599 L78.6819831,55.3746612 L76.1020803,54.2506775 L75.00657,54.1415989 L73.0099908,52.9180217 L72.6163659,53.5630081 L72.1041793,53.6815718 L71.8006614,53.197832 L71.7959189,52.6239837 L70.7810306,51.9742547 L72.2132561,51.5 L73.1617498,51.5237127 L73.0479306,51.1727642 L71.1035185,51.1680217 L70.5771045,50.3807588 L69.3914874,50.1388889 L68.8271336,49.4844173 L70.6197867,49.1666667 L71.3027022,48.7350949 L73.436813,49.2757453 L73.6502241,49.7594851 L73.6502241,49.7594851 Z M61.8130228,46.3638211 L60.7459674,47.6727642 L59.7453065,47.9288618 L58.46484,47.6727642 L56.2501073,47.7391599 L55.0882025,47.9288618 L54.8985037,48.9295393 L56.0888633,50.1056911 L56.8049761,49.5081301 L59.2852871,49.0575881 L59.1762103,49.6646341 L58.5976291,49.4749322 L58.019048,50.2479675 L56.8476583,50.7601626 L58.1044124,52.453252 L57.8625465,52.9085366 L59.0576486,54.4356369 L59.0481637,55.3082656 L58.3367934,55.6971545 L57.8151219,55.2323848 L58.4600976,54.1463415 L57.1559187,54.6585366 L56.8239459,54.2933604 L56.9946748,53.7811653 L56.0366962,53.0033875 L56.136288,51.7134146 L55.2494464,52.1165312 L55.3632657,53.6578591 L55.4154328,55.554878 L54.5712734,55.7493225 L54.0021772,55.3604336 L54.3815747,54.1415989 L54.1776485,52.8658537 L53.6180373,52.8563686 L53.2054425,51.950542 L53.7555688,51.0826558 L53.9452676,50.0345528 L54.6139556,48.0426829 L54.8937613,47.49729 L56.0224688,46.5155827 L57.0610694,46.9044715 L58.7399032,47.0894309 L60.266978,47.0325203 L61.5806418,46.0745257 L61.8130228,46.3638211 L61.8130228,46.3638211 Z M66.3989898,46.7432249 L66.3278527,47.895664 L65.6401948,47.7676152 L65.4362687,48.5691057 L65.986395,49.2662602 L65.61174,49.4227642 L65.0758411,48.5880759 L64.6822162,46.899729 L64.9477944,45.8421409 L65.388844,45.3631436 L65.4836934,46.0840108 L66.2709431,46.197832 L66.3989898,46.7432249 L66.3989898,46.7432249 Z M52.0198254,45.8231707 L53.5089605,47.046748 L51.934461,47.203252 L51.4886689,48.104336 L51.5455785,49.299458 L50.2651121,50.2052846 L50.2366572,51.5189702 L49.7244706,53.5440379 L49.5300294,53.0745257 L48.017182,53.6720867 L47.490768,52.8611111 L46.5422743,52.7852304 L45.8783287,52.3631436 L44.2990867,52.8373984 L43.8153549,52.1971545 L42.9427407,52.2682927 L41.8472305,52.1165312 L41.6433044,50.3428184 L40.9793588,49.9776423 L40.3391256,48.848916 L40.1541693,47.6917344 L40.3106707,46.4681572 L41.102663,45.5907859 L41.325559,46.4728997 L42.2361129,47.2174797 L43.0944997,46.9471545 L43.9434016,47.0420054 L44.7164239,46.3733062 L45.3519147,46.2594851 L46.6086689,46.6294038 L47.6946941,46.3495935 L48.3776096,44.5094851 L48.8897962,44.049458 L49.3498156,42.5460705 L50.8768905,42.5460705 L52.0293103,42.7689702 L51.2752578,43.9640921 L52.2522063,45.2161247 L52.0198254,45.8231707 L52.0198254,45.8231707 Z M35.9855395,55.9817073 L34.5153743,56.0101626 L33.3961517,54.9004065 L31.6888631,53.8191057 L31.1197669,53.0176152 L30.1143635,51.9410569 L29.4551604,50.9498645 L28.4450146,49.100271 L27.2783674,48 L26.889485,46.8665312 L26.4010107,45.8373984 L25.2011662,45.0074526 L24.5040233,43.8739837 L23.5033625,43.1341463 L22.1185617,41.6734417 L22,41 L22.8583868,41.052168 L24.9166181,41.3082656 L26.0927503,42.602981 L27.1218659,43.4993225 L27.8569486,44.049458 L29.1184452,45.4722222 L30.4700487,45.4911924 L31.5892712,46.397019 L32.3575511,47.5020325 L33.3676969,48.104336 L32.8365404,49.1808943 L33.6000779,49.6409214 L34.0790672,49.6741192 L34.3067057,50.5941734 L34.7714676,51.3340108 L35.7484161,51.4525745 L36.3933918,52.2872629 L36.061419,53.9329268 L35.9855395,55.9817073 L35.9855395,55.9817073 Z" id="ID"></path>
            </g>
        </g>
    </g>
</svg>