<?xml version="1.0" encoding="utf-8"?>
<!-- Generator: Adobe Illustrator 21.1.0, SVG Export Plug-In . SVG Version: 6.00 Build 0)  -->
<svg version="1.1" id="Layer_1" xmlns="http://www.w3.org/2000/svg" xmlns:xlink="http://www.w3.org/1999/xlink" x="0px" y="0px"
	 viewBox="0 0 129 129" style="enable-background:new 0 0 129 129;" xml:space="preserve">
<style type="text/css">
	.st0{fill:#B1B2B3;stroke:#FFFFFF;stroke-width:0.5;}
</style>
<title>IR</title>
<desc>Created with Sketch.</desc>
<g id="Map-countries">
	<g id="Artboard" transform="translate(-1606.000000, -963.000000)">
		<polygon id="IR" class="st0" points="1672,991.5 1677.8,989.9 1682.5,985.1 1686.9,985.3 1689.8,983.8 1694.6,984.5 1701.9,988.8 
			1707.2,989.7 1714.7,997 1719.7,997.3 1720.2,1004.1 1717.6,1014.2 1715.7,1020 1718.6,1021.1 1715.8,1025.4 1718,1031.7 
			1718.5,1036.6 1723.5,1037.9 1724,1042.9 1718,1049.8 1721.3,1053.7 1724,1058.3 1730.3,1061.6 1730.5,1068.1 1733.6,1069.3 
			1734.2,1072.7 1724.6,1076.5 1722.1,1085 1709.7,1082.9 1702.5,1081.2 1695,1080.2 1692.2,1071.2 1689,1069.9 1683.9,1071.2 
			1677.3,1074.8 1669.2,1072.3 1662.5,1066.7 1656.1,1064.5 1651.7,1057.4 1646.8,1047.3 1643.2,1048.6 1639,1046 1636.6,1049 
			1632.9,1045 1632.8,1040.9 1630.7,1040.9 1631.8,1035.3 1628.4,1029.4 1620.3,1025.1 1615.7,1017.6 1617.2,1011.4 1620.6,1008.6 
			1620,1003.9 1615.7,1001.5 1611.4,991.7 1607.8,985 1609.1,982.4 1607,972.7 1611.6,970.3 1612.6,973.5 1616,977.4 1620.5,978.5 
			1622.9,978.3 1630.7,972 1633.2,971.4 1635.1,973.9 1632.9,978.1 1637,982.5 1638.6,982.1 1640.7,988.3 1647,990 1651.6,994.1 
			1661,995.6 1671.4,993.4 		"/>
	</g>
</g>
</svg>
