<?xml version="1.0" encoding="UTF-8"?>
<svg width="129px" height="116px" viewBox="0 0 129 116" version="1.1" xmlns="http://www.w3.org/2000/svg" xmlns:xlink="http://www.w3.org/1999/xlink">
    <!-- Generator: Sketch 43.2 (39069) - http://www.bohemiancoding.com/sketch -->
    <title>IR</title>
    <desc>Created with Sketch.</desc>
    <defs></defs>
    <g id="Map-countries" stroke="none" stroke-width="1" fill="none" fill-rule="evenodd">
        <g id="Artboard" transform="translate(-1606.000000, -963.000000)" stroke-width="0.5" stroke="#FFFFFF" fill="#B1B2B3">
            <polygon id="IR" points="1671.98963 984.95639 1677.82116 983.350922 1682.51944 978.581736 1686.9344 978.817834 1689.83837 977.259585 1694.56025 978.03871 1701.87918 982.264869 1707.16769 983.185653 1714.72271 990.481091 1719.65709 990.764409 1720.24732 997.634869 1717.55585 1007.66905 1715.73792 1013.45346 1718.61827 1014.61034 1715.78514 1018.93094 1717.95721 1025.16393 1718.47661 1030.09839 1723.48181 1031.39693 1724.02483 1036.35499 1718.02803 1043.27267 1721.28614 1047.23912 1723.954 1051.79582 1730.28133 1055.1012 1730.47021 1061.64112 1733.63387 1062.84522 1734.17689 1066.24504 1724.63868 1070.04622 1722.13608 1078.54576 1709.6939 1076.35005 1702.46941 1074.67375 1695.00883 1073.70575 1692.1757 1064.7104 1689.01204 1063.38825 1683.9124 1064.7104 1677.25454 1068.27548 1669.1565 1065.84367 1662.47503 1060.1537 1656.10048 1058.02882 1651.68551 1050.92226 1646.79836 1040.84086 1643.23334 1042.06857 1639.03086 1039.54232 1636.55186 1042.51716 1632.8924 1038.5271 1632.82157 1034.4426 1630.72033 1034.4426 1631.80637 1028.84707 1628.383 1022.94461 1620.28496 1018.64762 1615.68112 1011.13969 1617.21573 1004.9067 1620.56827 1002.14435 1620.04887 997.422381 1615.72834 994.966959 1611.43142 985.192488 1607.81918 978.510906 1609.09409 975.937435 1607.04007 966.210184 1611.57308 963.778372 1612.61189 967.012919 1615.96443 970.932151 1620.49745 972.041813 1622.90561 971.805714 1630.72033 965.525499 1633.19932 964.888034 1635.1353 967.414286 1632.86879 971.616836 1637.00044 976.008264 1638.62949 975.606897 1640.73073 981.769063 1647.01085 983.492581 1651.61469 987.647911 1661.01124 989.064501 1671.35218 986.892396"></polygon>
        </g>
    </g>
</svg>