<?xml version="1.0" encoding="UTF-8"?>
<svg width="79px" height="94px" viewBox="0 0 79 94" version="1.1" xmlns="http://www.w3.org/2000/svg" xmlns:xlink="http://www.w3.org/1999/xlink">
    <!-- Generator: Sketch 43.2 (39069) - http://www.bohemiancoding.com/sketch -->
    <title>IT</title>
    <desc>Created with Sketch.</desc>
    <defs></defs>
    <g id="Map-countries" stroke="none" stroke-width="1" fill="none" fill-rule="evenodd">
        <g id="Artboard" transform="translate(-1359.000000, -896.000000)" stroke="#FFFFFF" stroke-width="0.5" fill="#B1B2B3">
            <path d="M1417.78681,976.338802 L1415.40226,982.902335 L1416.39386,985.475806 L1415.0009,989.701966 L1409.94848,986.609078 L1406.57233,985.711905 L1397.34104,981.485745 L1398.26181,977.188756 L1406.0057,977.94427 L1412.758,977.023487 L1417.78681,976.338802 L1417.78681,976.338802 Z M1376.02172,950.792965 L1379.9881,956.97874 L1379.06733,968.335069 L1376.06894,967.792043 L1373.37746,970.625223 L1370.87486,968.382289 L1370.61516,958.041183 L1369.10415,953.083118 L1372.74,953.531705 L1376.02172,950.792965 L1376.02172,950.792965 Z M1396.96329,899.79573 L1406.43067,902.274762 L1405.72239,906.973118 L1407.30422,911.010399 L1402.03932,909.641029 L1396.65637,912.993625 L1397.03412,917.644762 L1396.2314,920.289063 L1398.40346,924.987419 L1404.61275,929.591336 L1407.94168,937.075653 L1415.30782,944.276651 L1420.5019,944.229432 L1422.10734,946.189048 L1420.24219,947.936175 L1426.16816,951.123502 L1431.03171,953.767803 L1436.69797,958.300891 L1437.38265,959.906359 L1436.15495,962.999247 L1432.47188,958.985576 L1426.71118,957.568986 L1423.92527,963.140906 L1428.71798,966.304624 L1427.93887,970.743272 L1425.17657,971.239078 L1421.63515,978.463687 L1418.87285,979.101152 L1418.89646,976.55129 L1420.24219,972.041813 L1421.68237,970.223856 L1419.10894,965.289401 L1417.07853,960.968802 L1414.33983,959.88275 L1412.38025,956.152396 L1408.13055,954.570538 L1405.27381,951.052673 L1400.38666,950.486037 L1395.21619,946.519585 L1389.17217,940.735177 L1384.66277,935.564624 L1382.60875,926.592888 L1379.30343,925.530445 L1373.92048,922.484777 L1370.87486,923.736098 L1367.05013,927.985868 L1364.28783,928.646943 L1365.04333,924.680492 L1361.45469,923.52361 L1359.75481,916.346221 L1362.04493,913.489432 L1360.08535,909.947957 L1360.36866,907.280046 L1363.2254,909.310492 L1366.41268,908.861905 L1370.11936,905.650968 L1371.27622,907.161997 L1374.43988,906.855069 L1375.88006,903.006667 L1380.76721,904.210768 L1383.69478,902.6053 L1384.21419,898.662458 L1388.2278,900.031828 L1389.00691,898.190261 L1395.54672,896.513963 L1396.96329,899.79573 L1396.96329,899.79573 Z" id="IT"></path>
        </g>
    </g>
</svg>