<?xml version="1.0" encoding="utf-8"?>
<!-- Generator: Adobe Illustrator 21.1.0, SVG Export Plug-In . SVG Version: 6.00 Build 0)  -->
<svg version="1.1" id="Layer_1" xmlns="http://www.w3.org/2000/svg" xmlns:xlink="http://www.w3.org/1999/xlink" x="0px" y="0px"
	 viewBox="0 0 94 94" style="enable-background:new 0 0 94 94;" xml:space="preserve">
<style type="text/css">
	.st0{fill:#B1B2B3;stroke:#FFFFFF;stroke-width:0.5;}
</style>
<title>IT</title>
<desc>Created with Sketch.</desc>
<g id="Map-countries">
	<g id="Artboard" transform="translate(-1359.000000, -896.000000)">
		<path id="IT" class="st0" d="M1425.3,976.3l-2.4,6.6l1,2.6l-1.4,4.2l-5.1-3.1l-3.4-0.9l-9.2-4.2l0.9-4.3l7.7,0.8l6.8-0.9
			L1425.3,976.3L1425.3,976.3z M1383.5,950.8l4,6.2l-0.9,11.4l-3-0.5l-2.7,2.8l-2.5-2.2l-0.3-10.3l-1.5-5l3.6,0.4L1383.5,950.8
			L1383.5,950.8z M1404.5,899.8l9.5,2.5l-0.7,4.7l1.6,4l-5.3-1.4l-5.4,3.4l0.4,4.7l-0.8,2.6l2.2,4.7l6.2,4.6l3.3,7.5l7.4,7.2l5.2,0
			l1.6,2l-1.9,1.7l5.9,3.2l4.9,2.6l5.7,4.5l0.7,1.6l-1.2,3.1l-3.7-4l-5.8-1.4l-2.8,5.6l4.8,3.2l-0.8,4.4l-2.8,0.5l-3.5,7.2l-2.8,0.6
			l0-2.5l1.3-4.5l1.4-1.8l-2.6-4.9l-2-4.3l-2.7-1.1l-2-3.7l-4.2-1.6l-2.9-3.5l-4.9-0.6l-5.2-4l-6-5.8l-4.5-5.2l-2.1-9l-3.3-1.1
			l-5.4-3l-3,1.3l-3.8,4.2l-2.8,0.7l0.8-4l-3.6-1.2l-1.7-7.2l2.3-2.9l-2-3.5l0.3-2.7l2.9,2l3.2-0.4l3.7-3.2l1.2,1.5l3.2-0.3l1.4-3.8
			l4.9,1.2l2.9-1.6l0.5-3.9l4,1.4l0.8-1.8l6.5-1.7L1404.5,899.8L1404.5,899.8z"/>
	</g>
</g>
</svg>
