<?xml version="1.0" encoding="utf-8"?>
<!-- Generator: Adobe Illustrator 21.1.0, SVG Export Plug-In . SVG Version: 6.00 Build 0)  -->
<svg version="1.1" id="Layer_1" xmlns="http://www.w3.org/2000/svg" xmlns:xlink="http://www.w3.org/1999/xlink" x="0px" y="0px"
	 viewBox="0 0 124 124" style="enable-background:new 0 0 124 124;" xml:space="preserve">
<style type="text/css">
	.st0{fill:#B1B2B3;stroke:#FFFFFF;stroke-width:0.5;}
</style>
<title>JP</title>
<desc>Created with Sketch.</desc>
<g id="Map-countries">
	<g id="Artboard" transform="translate(-2171.000000, -911.000000)">
		<path id="JP" class="st0" d="M2214.3,1009.7l0.9,2.7l-3.7,4.8l-2.7-2.5l-3.4,1.8l-1.7,4.6l-4.3-2.2l0-3.7l3.7-4.7l3.8,0.9l2.7-3.4
			L2214.3,1009.7L2214.3,1009.7z M2256.3,985.4l-2.5,6.6l1.2,4.1l-3.4,5.7l-8.5,3.8l-11.6,0.5l-9.4,9.1l-4.4-3l-0.3-5.9l-11.5,1.8
			l-7.8,3.8l-7.7,0.1l6.7,5.8l-4.4,13.2l-4.3,3.2l-3.2-3l1.6-7l-4.2-2.3l-2.7-5.4l6.3-2.4l3.5-5l6.7-4.1l4.9-5.5l13.2-2.4l7.1,1.7
			l6.9-14.6l4.4,3.9l9.7-8.3l3.8-3.3l4.2-10.3l-1.1-9.7l2.8-5.5l7-1.6l3.6,12.1l-0.2,6.9l-6.1,8.5L2256.3,985.4L2256.3,985.4z
			 M2275.7,924.2l4.7,2l4.7-3.9l1.5,10.3l-9.8,2.5l-5.8,8.9l-10.4-6.1l-3.6,9.7l-7.4,0.1l-0.9-8.8l3.3-6.9l7.1-0.5l1.9-12.7l2-7.3
			l7.8,9.7L2275.7,924.2L2275.7,924.2z"/>
	</g>
</g>
</svg>
