<?xml version="1.0" encoding="UTF-8"?>
<svg width="108px" height="124px" viewBox="0 0 108 124" version="1.1" xmlns="http://www.w3.org/2000/svg" xmlns:xlink="http://www.w3.org/1999/xlink">
    <!-- Generator: Sketch 43.2 (39069) - http://www.bohemiancoding.com/sketch -->
    <title>JP</title>
    <desc>Created with Sketch.</desc>
    <defs></defs>
    <g id="Map-countries" stroke="none" stroke-width="1" fill="none" fill-rule="evenodd">
        <g id="Artboard" transform="translate(-2171.000000, -911.000000)" stroke="#FFFFFF" stroke-width="0.5" fill="#B1B2B3">
            <path d="M2206.31843,1009.69949 L2207.16837,1012.41462 L2203.43808,1017.20742 L2200.72299,1014.68117 L2197.32323,1016.52273 L2195.57614,1021.12665 L2191.25561,1018.88372 L2191.30283,1015.15336 L2194.96229,1010.4314 L2198.71619,1011.35218 L2201.43128,1007.99959 L2206.31843,1009.69949 L2206.31843,1009.69949 Z M2248.2724,985.428587 L2245.7698,991.99212 L2246.92666,996.076621 L2243.47969,1001.7902 L2235.02751,1005.56777 L2223.38805,1006.06358 L2213.94428,1015.12975 L2209.5057,1012.08409 L2209.246,1006.13441 L2197.72459,1007.90515 L2189.88626,1011.65911 L2182.14237,1011.80077 L2188.84745,1017.60879 L2184.43248,1030.8539 L2180.15917,1034.08845 L2176.94829,1031.09 L2178.57734,1024.10149 L2174.39847,1021.83495 L2171.70699,1016.4519 L2177.9635,1014.02009 L2181.43408,1009.03842 L2188.09194,1004.9067 L2192.95549,999.405607 L2206.12955,996.997404 L2213.21239,998.650092 L2220.12995,984.082826 L2224.54492,988.025668 L2234.2484,979.738618 L2238.0023,976.480461 L2242.15756,966.139355 L2241.0243,956.459324 L2243.81022,950.958233 L2250.84583,949.352765 L2254.45807,961.417389 L2254.2692,968.358679 L2248.15435,976.858218 L2248.2724,985.428587 L2248.2724,985.428587 Z M2267.70297,924.208295 L2272.35403,926.167911 L2277.0287,922.272289 L2278.49248,932.542565 L2268.67096,935.021598 L2262.86303,943.898894 L2252.45127,937.807558 L2248.83903,947.534808 L2241.47288,947.676467 L2240.55212,938.84639 L2243.83383,931.9051 L2250.91666,931.409293 L2252.85263,918.707204 L2254.81222,911.411767 L2262.57972,921.139017 L2267.70297,924.208295 L2267.70297,924.208295 Z" id="JP"></path>
        </g>
    </g>
</svg>