<?xml version="1.0" encoding="UTF-8"?>
<svg width="54px" height="69px" viewBox="0 0 54 69" version="1.1" xmlns="http://www.w3.org/2000/svg" xmlns:xlink="http://www.w3.org/1999/xlink">
    <!-- Generator: Sketch 43.2 (39069) - http://www.bohemiancoding.com/sketch -->
    <title>KE</title>
    <desc>Created with Sketch.</desc>
    <defs></defs>
    <g id="Map-countries" stroke="none" stroke-width="1" fill="none" fill-rule="evenodd">
        <g id="Artboard" transform="translate(-1539.000000, -1212.000000)" stroke-width="0.5" stroke="#FFFFFF" fill="#B1B2B3">
            <polygon id="KE" points="1586.40542 1254.69871 1590.32458 1260.10536 1585.69713 1262.74966 1584.06808 1265.4884 1581.56548 1265.9606 1580.64472 1270.61174 1578.51987 1273.25604 1577.22135 1277.64747 1574.55348 1279.81957 1565.06249 1273.23243 1564.5903 1269.40763 1540.60311 1256.02086 1539.46986 1255.28896 1539.42264 1248.32406 1541.31139 1245.65614 1544.56949 1241.31194 1546.97766 1236.51914 1544.0737 1228.96399 1543.29458 1225.65862 1540.15453 1221.07831 1544.21535 1217.13547 1548.70115 1212.79126 1552.14812 1213.90092 1552.14812 1217.60767 1554.41463 1219.75616 1559.01847 1219.75616 1567.39982 1225.3753 1569.47745 1225.42252 1571.03567 1225.25725 1572.49946 1226.01276 1576.91442 1226.53218 1578.87401 1223.79344 1584.91802 1221.03109 1587.58589 1223.25041 1592.1189 1223.25041 1586.33459 1230.73473"></polygon>
        </g>
    </g>
</svg>