<?xml version="1.0" encoding="utf-8"?>
<!-- Generator: Adobe Illustrator 21.1.0, SVG Export Plug-In . SVG Version: 6.00 Build 0)  -->
<svg version="1.1" id="Layer_1" xmlns="http://www.w3.org/2000/svg" xmlns:xlink="http://www.w3.org/1999/xlink" x="0px" y="0px"
	 viewBox="0 0 69 69" style="enable-background:new 0 0 69 69;" xml:space="preserve">
<style type="text/css">
	.st0{fill:#B1B2B3;stroke:#FFFFFF;stroke-width:0.5;}
</style>
<title>KE</title>
<desc>Created with Sketch.</desc>
<g id="Map-countries">
	<g id="Artboard" transform="translate(-1539.000000, -1212.000000)">
		<polygon id="KE" class="st0" points="1593.9,1254.7 1597.8,1260.1 1593.2,1262.7 1591.6,1265.5 1589.1,1266 1588.1,1270.6 
			1586,1273.3 1584.7,1277.6 1582.1,1279.8 1572.6,1273.2 1572.1,1269.4 1548.1,1256 1547,1255.3 1546.9,1248.3 1548.8,1245.7 
			1552.1,1241.3 1554.5,1236.5 1551.6,1229 1550.8,1225.7 1547.7,1221.1 1551.7,1217.1 1556.2,1212.8 1559.6,1213.9 1559.6,1217.6 
			1561.9,1219.8 1566.5,1219.8 1574.9,1225.4 1577,1225.4 1578.5,1225.3 1580,1226 1584.4,1226.5 1586.4,1223.8 1592.4,1221 
			1595.1,1223.3 1599.6,1223.3 1593.8,1230.7 		"/>
	</g>
</g>
</svg>
