<?xml version="1.0" encoding="utf-8"?>
<!-- Generator: Adobe Illustrator 21.1.0, SVG Export Plug-In . SVG Version: 6.00 Build 0)  -->
<svg version="1.1" id="Layer_1" xmlns="http://www.w3.org/2000/svg" xmlns:xlink="http://www.w3.org/1999/xlink" x="0px" y="0px"
	 viewBox="0 0 73 73" style="enable-background:new 0 0 73 73;" xml:space="preserve">
<style type="text/css">
	.st0{fill:#B1B2B3;stroke:#FFFFFF;stroke-width:0.5;}
</style>
<title>KG</title>
<desc>Created with Sketch.</desc>
<g id="Map-countries">
	<g id="Artboard" transform="translate(-1774.000000, -931.000000)">
		<polygon id="KG" class="st0" points="1784.8,959.5 1786.3,955.5 1790.6,954.3 1801.5,957.4 1802.5,952.1 1806.3,950.2 1815.7,954 
			1818.2,953 1829.1,953.2 1839,954.2 1842.3,957.4 1846.3,958.7 1845.4,960.7 1835,965.5 1832.6,969 1824.1,970.1 1821.6,975.6 
			1814.6,974.5 1810.1,976.2 1803.7,980.2 1804.7,982.2 1802.8,984.2 1790.2,985.5 1782.1,982.7 1774.9,983.4 1775.5,978.4 
			1782.7,979.9 1785.1,977.2 1790.2,978 1798.7,971.8 1790.8,967.2 1786.1,969.4 1781.2,966.1 1786.8,960.3 		"/>
	</g>
</g>
</svg>
