<?xml version="1.0" encoding="UTF-8"?>
<svg width="73px" height="37px" viewBox="0 0 73 37" version="1.1" xmlns="http://www.w3.org/2000/svg" xmlns:xlink="http://www.w3.org/1999/xlink">
    <!-- Generator: Sketch 43.2 (39069) - http://www.bohemiancoding.com/sketch -->
    <title>KG</title>
    <desc>Created with Sketch.</desc>
    <defs></defs>
    <g id="Map-countries" stroke="none" stroke-width="1" fill="none" fill-rule="evenodd">
        <g id="Artboard" transform="translate(-1774.000000, -931.000000)" stroke-width="0.5" stroke="#FFFFFF" fill="#B1B2B3">
            <polygon id="KG" points="1784.79552 941.467081 1786.28292 937.547849 1790.62706 936.272919 1801.53462 939.365806 1802.54982 934.077204 1806.30372 932.188418 1815.7475 935.989601 1818.15566 934.997988 1829.13405 935.234086 1838.95558 936.178479 1842.2609 939.413026 1846.34533 940.711567 1845.42456 942.742012 1834.98919 947.534808 1832.62825 951.029063 1824.12885 952.067896 1821.62625 957.616206 1814.61425 956.459324 1810.05762 958.159232 1803.73029 962.220123 1804.65106 964.226959 1802.76231 966.186575 1790.24931 967.485115 1782.05683 964.722765 1774.87956 965.38384 1775.51702 960.425776 1782.71789 961.865975 1785.14967 959.198065 1790.17848 960.048018 1798.65427 953.815023 1790.81593 949.187496 1786.09404 951.38321 1781.20689 948.077834 1786.75511 942.340645"></polygon>
        </g>
    </g>
</svg>