<?xml version="1.0" encoding="UTF-8"?>
<svg width="45px" height="47px" viewBox="0 0 45 47" version="1.1" xmlns="http://www.w3.org/2000/svg" xmlns:xlink="http://www.w3.org/1999/xlink">
    <!-- Generator: Sketch 43.2 (39069) - http://www.bohemiancoding.com/sketch -->
    <title>KP</title>
    <desc>Created with Sketch.</desc>
    <defs></defs>
    <g id="Map-countries" stroke="none" stroke-width="1" fill="none" fill-rule="evenodd">
        <g id="Artboard" transform="translate(-2137.000000, -935.000000)" stroke-width="0.5" stroke="#FFFFFF" fill="#B1B2B3">
            <polygon id="KP" points="2179.85225 940.3102 2180.77302 941.892058 2178.27042 941.349032 2175.39007 944.347481 2173.40687 947.369539 2173.66658 953.673364 2170.24321 955.58576 2169.06274 957.120399 2166.56014 959.670261 2162.14517 961.086851 2159.28843 963.400614 2159.07594 967.107358 2158.29683 968.051751 2160.94109 969.421121 2164.69499 973.151475 2163.727 975.18192 2160.91748 975.724946 2156.24281 976.126313 2153.66938 979.903886 2150.69459 979.620568 2150.29323 980.376083 2147.08235 978.794224 2146.27963 980.352473 2144.34366 981.037158 2144.10756 979.478909 2142.38407 978.723395 2140.61336 977.377634 2142.43129 973.670891 2143.98951 972.679278 2143.39928 971.144639 2145.07555 966.564332 2144.62697 965.171352 2140.77863 964.226959 2137.66218 961.936805 2143.04514 956.388495 2150.34045 951.713748 2154.89707 945.457143 2158.03713 948.219493 2163.75061 948.550031 2162.7118 943.898894 2172.93468 940.050492 2175.57894 935.021598"></polygon>
        </g>
    </g>
</svg>