<?xml version="1.0" encoding="utf-8"?>
<!-- Generator: Adobe Illustrator 21.1.0, SVG Export Plug-In . SVG Version: 6.00 Build 0)  -->
<svg version="1.1" id="Layer_1" xmlns="http://www.w3.org/2000/svg" xmlns:xlink="http://www.w3.org/1999/xlink" x="0px" y="0px"
	 viewBox="0 0 47 47" style="enable-background:new 0 0 47 47;" xml:space="preserve">
<style type="text/css">
	.st0{fill:#B1B2B3;stroke:#FFFFFF;stroke-width:0.5;}
</style>
<title>KP</title>
<desc>Created with Sketch.</desc>
<g id="Map-countries">
	<g id="Artboard" transform="translate(-2137.000000, -935.000000)">
		<polygon id="KP" class="st0" points="2180.9,940.3 2181.8,941.9 2179.3,941.3 2176.4,944.3 2174.4,947.4 2174.7,953.7 
			2171.2,955.6 2170.1,957.1 2167.6,959.7 2163.1,961.1 2160.3,963.4 2160.1,967.1 2159.3,968.1 2161.9,969.4 2165.7,973.2 
			2164.7,975.2 2161.9,975.7 2157.2,976.1 2154.7,979.9 2151.7,979.6 2151.3,980.4 2148.1,978.8 2147.3,980.4 2145.3,981 
			2145.1,979.5 2143.4,978.7 2141.6,977.4 2143.4,973.7 2145,972.7 2144.4,971.1 2146.1,966.6 2145.6,965.2 2141.8,964.2 
			2138.7,961.9 2144,956.4 2151.3,951.7 2155.9,945.5 2159,948.2 2164.8,948.6 2163.7,943.9 2173.9,940.1 2176.6,935 		"/>
	</g>
</g>
</svg>
