<?xml version="1.0" encoding="utf-8"?>
<!-- Generator: Adobe Illustrator 21.1.0, SVG Export Plug-In . SVG Version: 6.00 Build 0)  -->
<svg version="1.1" id="Layer_1" xmlns="http://www.w3.org/2000/svg" xmlns:xlink="http://www.w3.org/1999/xlink" x="0px" y="0px"
	 viewBox="0 0 272 272" style="enable-background:new 0 0 272 272;" xml:space="preserve">
<style type="text/css">
	.st0{fill:#B1B2B3;stroke:#FFFFFF;stroke-width:0.5;}
</style>
<title>KZ</title>
<desc>Created with Sketch.</desc>
<g id="Map-countries">
	<g id="Artboard" transform="translate(-1622.000000, -808.000000)">
		<polygon id="KZ" class="st0" points="1784.8,1003.5 1781,1005.1 1772.3,1011.3 1769.4,1017.5 1766.9,1017.6 1765.1,1013.5 
			1756.7,1013.2 1755.3,1005.9 1752.1,1005.9 1752.6,996.9 1744.7,990.3 1733.3,991 1725.6,992.3 1719.2,984.1 1713.8,980.6 
			1703.6,973.9 1702.3,973 1685.3,978.6 1685.5,1011.9 1682.1,1012.4 1677.5,1005.5 1673,1002.9 1665.5,1004.8 1662.6,1007.8 
			1662.2,1005.6 1663.8,1001.9 1662.6,998.8 1654.9,995.7 1651.9,987.5 1648.3,985.2 1648,982.2 1654.5,983 1654.8,976.2 
			1660.4,974.7 1666.2,976.1 1667.4,966.9 1666.2,961 1659.5,961.4 1653.9,959.1 1646.3,963.3 1640.1,965.3 1636.7,963.8 
			1637.4,958.8 1633.2,952.3 1628.3,952.6 1622.6,945.9 1626.5,938.3 1624.5,936.2 1629.8,925 1636.6,930.9 1637.4,923.4 
			1651.1,912 1661.4,911.7 1676.1,919 1683.9,923.2 1690.9,918.8 1701.4,918.6 1709.9,924 1711.8,920.9 1721.1,921.4 1722.7,916.4 
			1712,909.1 1718.4,903.8 1717.1,900.9 1723.5,898 1718.7,890.5 1721.7,886.6 1746.5,882.7 1749.7,879.9 1766.3,875.7 
			1772.3,870.9 1784.2,873.4 1786.2,885.2 1793.2,882.5 1801.7,886.3 1801.1,892.4 1807.5,891.8 1824,881.2 1821.6,884.7 
			1830.1,893.4 1844.9,920.7 1848.4,915.2 1857.5,921.2 1867,918.5 1870.7,920.4 1873.9,926.5 1878.5,928.4 1881.3,932.8 
			1889.8,931.4 1893.4,937.6 1888.3,944.3 1882.8,945.3 1882.5,955.1 1878.8,959.5 1865.7,956.3 1860.9,973.5 1857.5,975.6 
			1844.4,979.3 1850.4,995.3 1845.8,997.6 1846.3,1002.7 1842.3,1001.4 1839,998.2 1829.1,997.2 1818.2,997 1815.7,998 
			1806.3,994.2 1802.5,996.1 1801.5,1001.4 1790.6,998.3 1786.3,999.5 		"/>
	</g>
</g>
</svg>
