<?xml version="1.0" encoding="UTF-8"?>
<svg width="272px" height="148px" viewBox="0 0 272 148" version="1.1" xmlns="http://www.w3.org/2000/svg" xmlns:xlink="http://www.w3.org/1999/xlink">
    <!-- Generator: Sketch 43.2 (39069) - http://www.bohemiancoding.com/sketch -->
    <title>KZ</title>
    <desc>Created with Sketch.</desc>
    <defs></defs>
    <g id="Map-countries" stroke="none" stroke-width="1" fill="none" fill-rule="evenodd">
        <g id="Artboard" transform="translate(-1622.000000, -808.000000)" stroke-width="0.5" stroke="#FFFFFF" fill="#B1B2B3">
            <polygon id="KZ" points="1784.79552 941.467081 1780.99441 943.11977 1772.28252 949.281935 1769.37856 955.538541 1766.89957 955.58576 1765.10525 951.45404 1756.67668 951.170722 1755.33095 943.946114 1752.09645 943.875284 1752.59225 934.903548 1744.68309 928.292796 1733.32695 929.001091 1725.55945 930.323241 1719.23212 922.0598 1713.82555 918.565545 1703.55545 911.860353 1702.32776 911.034009 1685.28174 916.58232 1685.54145 949.943011 1682.14169 950.367988 1677.51424 943.450307 1673.02845 940.947665 1665.52064 942.812842 1662.59307 945.764071 1662.21532 943.591966 1663.84437 939.885223 1662.59307 936.768725 1654.92001 933.699447 1651.92161 925.506836 1648.28575 923.193072 1648.04966 920.171014 1654.49504 921.044578 1654.75474 914.244946 1660.37379 912.733917 1666.1581 914.126897 1667.36218 904.895453 1666.18171 898.969386 1659.54746 899.441582 1653.92841 897.080599 1646.25534 901.306759 1640.09328 903.337204 1636.71713 901.778955 1637.4018 896.820891 1633.17571 890.304578 1628.26495 890.564286 1622.64591 883.882704 1626.47063 876.280338 1624.53466 874.226283 1629.79956 862.964393 1636.62269 868.93768 1637.44902 861.406144 1651.09528 849.955376 1661.43621 849.672058 1676.05045 856.991106 1683.86518 861.217266 1690.90079 856.802227 1701.38338 856.613349 1709.85917 862.02 1711.79514 858.927112 1721.07365 859.375699 1722.74992 854.394025 1712.00763 847.098587 1718.35857 841.833594 1717.13088 838.882366 1723.48181 836.025576 1718.71271 828.47043 1721.73472 824.645637 1746.50102 820.726406 1749.73551 817.916836 1766.30934 813.690676 1772.25891 808.87427 1784.15807 811.376912 1786.2357 823.205438 1793.15327 820.466697 1801.65266 824.3151 1801.10965 830.406436 1807.46059 829.768971 1824.03441 819.168157 1821.62625 822.709631 1830.07843 831.350829 1844.85794 858.691014 1848.39935 853.189923 1857.51259 859.23404 1867.0272 856.542519 1870.66305 858.431306 1873.85032 864.451813 1878.47777 866.435038 1881.31091 870.802857 1889.83391 869.433487 1893.35172 875.642873 1888.2993 882.324455 1882.7983 883.268848 1882.49138 893.137757 1878.80831 897.529186 1865.68146 894.341859 1860.91235 911.482596 1857.51259 913.583871 1844.40936 917.314224 1850.35893 933.25086 1845.82592 935.611843 1846.34533 940.711567 1842.2609 939.413026 1838.95558 936.178479 1829.13405 935.234086 1818.15566 934.997988 1815.7475 935.989601 1806.30372 932.188418 1802.54982 934.077204 1801.53462 939.365806 1790.62706 936.272919 1786.28292 937.547849"></polygon>
        </g>
    </g>
</svg>