<?xml version="1.0" encoding="utf-8"?>
<!-- Generator: Adobe Illustrator 21.1.0, SVG Export Plug-In . SVG Version: 6.00 Build 0)  -->
<svg version="1.1" id="Layer_1" xmlns="http://www.w3.org/2000/svg" xmlns:xlink="http://www.w3.org/1999/xlink" x="0px" y="0px"
	 viewBox="0 0 61 61" style="enable-background:new 0 0 61 61;" xml:space="preserve">
<style type="text/css">
	.st0{fill:#B1B2B3;stroke:#FFFFFF;stroke-width:0.5;}
</style>
<title>LA</title>
<desc>Created with Sketch.</desc>
<g id="Map-countries">
	<g id="Artboard" transform="translate(-1977.000000, -1097.000000)">
		<polygon id="LA" class="st0" points="2016.6,1154.2 2018.7,1151.1 2019,1145.4 2013.7,1139.4 2013.2,1132.6 2008.2,1127 
			2003.2,1126.5 2001.9,1128.9 1998,1129.1 1996,1127.9 1989,1132 1988.9,1125.8 1990.5,1118.5 1986,1118.2 1985.7,1114 
			1982.8,1111.8 1984.2,1109.2 1989.8,1104.6 1990.4,1106.3 1993.9,1106.5 1993,1098.4 1996.4,1097.3 2000.2,1102.9 2003.2,1109.4 
			2011.4,1109.4 2013.9,1115.5 2009.7,1117.4 2007.8,1119.9 2015.7,1124 2021.2,1132.2 2025.4,1138.3 2030.4,1143 2032.1,1147.9 
			2030.9,1154.7 2025,1152.2 2022,1156.9 		"/>
	</g>
</g>
</svg>
