<?xml version="1.0" encoding="UTF-8"?>
<svg width="51px" height="61px" viewBox="0 0 51 61" version="1.1" xmlns="http://www.w3.org/2000/svg" xmlns:xlink="http://www.w3.org/1999/xlink">
    <!-- Generator: Sketch 43.2 (39069) - http://www.bohemiancoding.com/sketch -->
    <title>LA</title>
    <desc>Created with Sketch.</desc>
    <defs></defs>
    <g id="Map-countries" stroke="none" stroke-width="1" fill="none" fill-rule="evenodd">
        <g id="Artboard" transform="translate(-1977.000000, -1097.000000)" stroke-width="0.5" stroke="#FFFFFF" fill="#B1B2B3">
            <polygon id="LA" points="2011.56418 1154.19166 2013.71264 1151.12238 2014.01956 1145.36158 2008.66022 1139.38829 2008.23525 1132.61227 2003.20644 1126.99313 1998.20123 1126.52094 1996.87911 1128.92914 1992.98355 1129.11802 1991.00036 1127.91392 1984.03557 1132.02203 1983.87031 1125.83625 1985.49936 1118.49359 1981.03717 1118.18667 1980.65942 1113.98412 1977.77907 1111.81201 1979.19564 1109.21493 1984.83829 1104.63462 1985.42853 1106.28731 1988.94633 1106.47619 1987.95474 1098.37802 1991.37811 1097.33919 1995.25005 1102.93472 1998.22484 1109.35659 2006.3701 1109.42742 2008.94353 1115.54237 2004.71744 1117.36032 2002.80507 1119.88657 2010.73785 1124.0419 2016.23885 1132.21091 2020.41772 1138.27863 2025.42292 1143.04782 2027.09919 1147.86422 2025.89511 1154.66386 2020.01636 1152.16121 2017.01796 1156.85957"></polygon>
        </g>
    </g>
</svg>