<?xml version="1.0" encoding="UTF-8"?>
<svg width="106px" height="101px" viewBox="0 0 106 101" version="1.1" xmlns="http://www.w3.org/2000/svg" xmlns:xlink="http://www.w3.org/1999/xlink">
    <!-- Generator: Sketch 43.2 (39069) - http://www.bohemiancoding.com/sketch -->
    <title>LY</title>
    <desc>Created with Sketch.</desc>
    <defs></defs>
    <g id="Map-countries" stroke="none" stroke-width="1" fill="none" fill-rule="evenodd">
        <g id="Artboard" transform="translate(-1376.000000, -1017.000000)" stroke-width="0.5" stroke="#FFFFFF" fill="#B1B2B3">
            <polygon id="LY" points="1413.34824 1094.50601 1408.67357 1097.15031 1404.94328 1093.23108 1394.4843 1090.13819 1391.58034 1085.62871 1386.33904 1082.27611 1383.2462 1083.59826 1380.90887 1079.56098 1380.64917 1076.44449 1376.73 1071.10866 1379.37426 1068.063 1378.78402 1063.41186 1379.63396 1059.35097 1379.16177 1055.95115 1380.31863 1049.83621 1379.96449 1046.34195 1377.81603 1039.63676 1381.05053 1037.86602 1381.61715 1034.60786 1380.90887 1031.42054 1385.46549 1028.4457 1387.4959 1025.96667 1390.7304 1023.72373 1391.10815 1017.70323 1398.87565 1020.41836 1401.66157 1019.73367 1407.18617 1021.05582 1415.96889 1024.52647 1419.06172 1031.42054 1425.0113 1032.93157 1434.33703 1036.1425 1441.39625 1039.94369 1444.63074 1037.96046 1447.79441 1034.4426 1446.25979 1028.51653 1448.33742 1024.73896 1453.10653 1021.07943 1457.66315 1020.01699 1466.61113 1021.62246 1468.87764 1025.11671 1471.33302 1025.14032 1473.43426 1026.46247 1480.02129 1027.38326 1481.62673 1029.93312 1479.24218 1033.63986 1480.25738 1036.92163 1478.55751 1041.64359 1480.5407 1047.73493 1480.5407 1074.13072 1480.5407 1100.64456 1480.5407 1114.71602 1472.93846 1114.73963 1472.84402 1117.66725 1446.44867 1104.20965 1420.02971 1090.58677"></polygon>
        </g>
    </g>
</svg>