<?xml version="1.0" encoding="utf-8"?>
<!-- Generator: Adobe Illustrator 21.1.0, SVG Export Plug-In . SVG Version: 6.00 Build 0)  -->
<svg version="1.1" id="Layer_1" xmlns="http://www.w3.org/2000/svg" xmlns:xlink="http://www.w3.org/1999/xlink" x="0px" y="0px"
	 viewBox="0 0 106 106" style="enable-background:new 0 0 106 106;" xml:space="preserve">
<style type="text/css">
	.st0{fill:#B1B2B3;stroke:#FFFFFF;stroke-width:0.5;}
</style>
<title>LY</title>
<desc>Created with Sketch.</desc>
<g id="Map-countries">
	<g id="Artboard" transform="translate(-1376.000000, -1017.000000)">
		<polygon id="LY" class="st0" points="1413.3,1097 1408.7,1099.7 1404.9,1095.7 1394.5,1092.6 1391.6,1088.1 1386.3,1084.8 
			1383.2,1086.1 1380.9,1082.1 1380.6,1078.9 1376.7,1073.6 1379.4,1070.6 1378.8,1065.9 1379.6,1061.9 1379.2,1058.5 
			1380.3,1052.3 1380,1048.8 1377.8,1042.1 1381.1,1040.4 1381.6,1037.1 1380.9,1033.9 1385.5,1030.9 1387.5,1028.5 1390.7,1026.2 
			1391.1,1020.2 1398.9,1022.9 1401.7,1022.2 1407.2,1023.6 1416,1027 1419.1,1033.9 1425,1035.4 1434.3,1038.6 1441.4,1042.4 
			1444.6,1040.5 1447.8,1036.9 1446.3,1031 1448.3,1027.2 1453.1,1023.6 1457.7,1022.5 1466.6,1024.1 1468.9,1027.6 1471.3,1027.6 
			1473.4,1029 1480,1029.9 1481.6,1032.4 1479.2,1036.1 1480.3,1039.4 1478.6,1044.1 1480.5,1050.2 1480.5,1076.6 1480.5,1103.1 
			1480.5,1117.2 1472.9,1117.2 1472.8,1120.2 1446.4,1106.7 1420,1093.1 		"/>
	</g>
</g>
</svg>
