<?xml version="1.0" encoding="UTF-8"?>
<svg width="80px" height="64px" viewBox="0 0 80 64" version="1.1" xmlns="http://www.w3.org/2000/svg" xmlns:xlink="http://www.w3.org/1999/xlink">
    <!-- Generator: Sketch 43.2 (39069) - http://www.bohemiancoding.com/sketch -->
    <title>MA</title>
    <desc>Created with Sketch.</desc>
    <defs></defs>
    <g id="Map-countries" stroke="none" stroke-width="1" fill="none" fill-rule="evenodd">
        <g id="Artboard" transform="translate(-1228.000000, -996.000000)" stroke-width="0.5" stroke="#FFFFFF" fill="#B1B2B3">
            <polygon id="MA" points="1257.69121 1059.58707 1257.62039 1050.73338 1268.31546 1045.16146 1274.9261 1044.00458 1280.33266 1041.97413 1282.88248 1038.14934 1290.62638 1035.10367 1290.90969 1029.4137 1294.73442 1028.72902 1297.73282 1025.87223 1306.39748 1024.55008 1307.60157 1021.52802 1305.85447 1019.85172 1303.56435 1011.51745 1303.1866 1006.67743 1300.684 1001.53049 1297.80365 1001.43605 1290.95691 999.665315 1284.65319 1000.23195 1280.6632 996.784916 1275.79965 996.737696 1273.69841 1001.71937 1269.28345 1010.00642 1264.37268 1013.28819 1257.73843 1016.90049 1253.48873 1022.18909 1252.59157 1026.2972 1250.06537 1032.95518 1251.71803 1042.46994 1246.19342 1048.79737 1242.8881 1050.80421 1237.67041 1055.92754 1231.50835 1056.75389 1228.43912 1059.39819 1236.98574 1059.4218 1257.64399 1059.49263 1257.64399 1059.49263 1257.64399 1059.49263 1236.98574 1059.4218 1228.43912 1059.39819"></polygon>
        </g>
    </g>
</svg>