<?xml version="1.0" encoding="utf-8"?>
<!-- Generator: Adobe Illustrator 21.1.0, SVG Export Plug-In . SVG Version: 6.00 Build 0)  -->
<svg version="1.1" id="Layer_1" xmlns="http://www.w3.org/2000/svg" xmlns:xlink="http://www.w3.org/1999/xlink" x="0px" y="0px"
	 viewBox="0 0 80 80" style="enable-background:new 0 0 80 80;" xml:space="preserve">
<style type="text/css">
	.st0{fill:#B1B2B3;stroke:#FFFFFF;stroke-width:0.5;}
</style>
<title>MA</title>
<desc>Created with Sketch.</desc>
<g id="Map-countries">
	<g id="Artboard" transform="translate(-1228.000000, -996.000000)">
		<polygon id="MA" class="st0" points="1257.7,1067.6 1257.6,1058.7 1268.3,1053.2 1274.9,1052 1280.3,1050 1282.9,1046.1 
			1290.6,1043.1 1290.9,1037.4 1294.7,1036.7 1297.7,1033.9 1306.4,1032.6 1307.6,1029.5 1305.9,1027.9 1303.6,1019.5 
			1303.2,1014.7 1300.7,1009.5 1297.8,1009.4 1291,1007.7 1284.7,1008.2 1280.7,1004.8 1275.8,1004.7 1273.7,1009.7 1269.3,1018 
			1264.4,1021.3 1257.7,1024.9 1253.5,1030.2 1252.6,1034.3 1250.1,1041 1251.7,1050.5 1246.2,1056.8 1242.9,1058.8 1237.7,1063.9 
			1231.5,1064.8 1228.4,1067.4 1237,1067.4 1257.6,1067.5 1257.6,1067.5 1257.6,1067.5 1237,1067.4 1228.4,1067.4 		"/>
	</g>
</g>
</svg>
