<?xml version="1.0" encoding="utf-8"?>
<!-- Generator: Adobe Illustrator 21.1.0, SVG Export Plug-In . SVG Version: 6.00 Build 0)  -->
<svg version="1.1" id="Layer_1" xmlns="http://www.w3.org/2000/svg" xmlns:xlink="http://www.w3.org/1999/xlink" x="0px" y="0px"
	 viewBox="0 0 63 63" style="enable-background:new 0 0 63 63;" xml:space="preserve">
<style type="text/css">
	.st0{fill:#B1B2B3;stroke:#FFFFFF;stroke-width:0.5;}
</style>
<title>MY</title>
<desc>Created with Sketch.</desc>
<g id="_x30_6-MAP">
	<g id="Map---List" transform="translate(-35.000000, -521.000000)">
		<g id="Group-Copy" transform="translate(15.000000, 480.000000)">
			<path id="MY" class="st0" d="M24.1,65.3l0.3,1.6l2.1-0.4l1-1.3l0.7,0.3l1.9,1.9l1.3,2.1l0.2,2.1l-0.3,1.4l0.3,1.1l0.2,1.9L33,77
				l1.3,2.8l-0.1,1.1l-2.3,0.2l-3-2.3l-3.8-2.5l-0.4-1.6l-1.8-2.1l-0.4-2.6l-1.2-1.7l0.4-2.3L21,64.5l0.6-0.6L24.1,65.3L24.1,65.3z
				 M80.2,70.8l-2.3,1.1l-2.8-0.5h-3.7L70.3,75L69,76.1l-1.6,4.4l-2.6,0.7l-3-0.9l-1.5,0.3l-1.9,1.6l-2-0.2l-2.1,0.6l-2.2-1.8
				l-0.5-2.1l2.3,1.1l2.5-0.6l0.6-2.7l1.4-0.6l3.8-0.7l2.3-2.5l1.6-2l1.5,1.7l0.7-1.1l1.5,0.1l0.2-2l0.1-1.6l2.5-2.2l1.6-2.5l1.3,0
				l1.6,1.6l0.1,1.4l2.1,0.9l2.7,1l-0.2,1.3l-2.1,0.2L80.2,70.8L80.2,70.8z"/>
		</g>
	</g>
</g>
</svg>
