<?xml version="1.0" encoding="UTF-8" standalone="no"?>
<svg width="63px" height="21px" viewBox="0 0 63 21" version="1.1" xmlns="http://www.w3.org/2000/svg" xmlns:xlink="http://www.w3.org/1999/xlink">
    <!-- Generator: Sketch 42 (36781) - http://www.bohemiancoding.com/sketch -->
    <title>MY</title>
    <desc>Created with Sketch.</desc>
    <defs></defs>
    <g id="06-MAP" stroke="none" stroke-width="1" fill="none" fill-rule="evenodd">
        <g id="Map---List" transform="translate(-35.000000, -521.000000)" stroke="#FFFFFF" stroke-width="0.5" fill="#B1B2B3">
            <g id="Group-Copy" transform="translate(15.000000, 480.000000)">
                <path d="M24.1312947,44.3010654 L24.3819016,45.9414288 L26.4892779,45.5655122 L27.5372705,44.2554997 L28.2663087,44.5516765 L30.1572518,46.4768252 L31.5014161,48.6070194 L31.6836757,50.748605 L31.341939,52.1953145 L31.649502,53.2888901 L31.8887177,55.1684732 L33.0164488,56.045612 L34.2694833,58.8478996 L34.2125272,59.9186924 L31.9456738,60.1351292 L28.9269997,57.7884982 L25.1451136,55.2709959 L24.7692032,53.6534153 L22.9238251,51.5232211 L22.4795674,48.8918048 L21.3290538,47.16031 L21.6821818,44.8364618 L20.9759259,43.4808837 L21.5340959,42.911313 L24.1312947,44.3010654 L24.1312947,44.3010654 Z M80.1647214,49.8031178 L77.8181295,50.885302 L75.0500622,50.3499056 L71.3820884,50.3499056 L70.2771397,53.9609835 L69.0468876,55.0659505 L67.4065515,59.4858187 L64.7979614,60.157912 L61.7792873,59.2693818 L60.2528634,59.5427757 L58.396094,61.1489649 L56.357065,60.9211367 L54.2952537,61.5704472 L52.1081388,59.7819954 L51.5727513,57.6631926 L53.9079521,58.7567683 L56.3798475,58.1644148 L57.017756,55.4760414 L58.3847028,54.8722965 L62.2121538,54.1888117 L64.5017896,51.6713095 L66.0737784,49.6550294 L67.531855,51.3067843 L68.2039371,50.2246001 L69.730361,50.3271228 L69.9126206,48.2994513 L70.0607065,46.7274363 L72.5212107,44.5061108 L74.1273732,42.0113914 L75.4145814,42 L77.0549175,43.6175806 L77.2030034,45.007333 L79.3103797,45.8958632 L81.9759259,46.8527419 L81.7481015,48.1057973 L79.6065515,48.265277 L80.1647214,49.8031178 L80.1647214,49.8031178 Z" id="MY"></path>
            </g>
        </g>
    </g>
</svg>