<?xml version="1.0" encoding="UTF-8"?>
<svg width="49px" height="96px" viewBox="0 0 49 96" version="1.1" xmlns="http://www.w3.org/2000/svg" xmlns:xlink="http://www.w3.org/1999/xlink">
    <!-- Generator: Sketch 43.2 (39069) - http://www.bohemiancoding.com/sketch -->
    <title>MG</title>
    <desc>Created with Sketch.</desc>
    <defs></defs>
    <g id="Map-countries" stroke="none" stroke-width="1" fill="none" fill-rule="evenodd">
        <g id="Artboard" transform="translate(-1601.000000, -1328.000000)" stroke-width="0.5" stroke="#FFFFFF" fill="#B1B2B3">
            <polygon id="MG" points="1643.02085 1331.71398 1644.76795 1334.57077 1646.397 1339.03303 1647.48303 1347.20203 1649.18291 1350.38935 1648.52185 1353.64751 1647.36499 1355.67796 1645.09848 1351.66429 1643.87079 1353.69473 1645.12209 1358.74724 1644.53185 1361.67485 1642.71393 1363.25671 1642.28896 1369.11195 1639.69192 1377.18651 1636.43382 1386.84293 1632.32577 1400.22971 1629.79956 1410.16945 1626.80117 1418.55094 1621.41821 1420.27445 1615.6339 1423.36734 1611.83278 1421.50217 1606.56788 1418.90508 1604.74995 1415.08029 1604.30137 1408.68203 1601.98765 1402.96845 1601.3738 1397.84512 1602.55427 1392.74539 1605.59989 1391.51768 1605.6235 1389.18031 1608.78717 1383.84449 1609.3774 1379.40584 1607.84279 1376.10046 1606.59149 1371.73264 1606.07208 1365.35799 1608.3858 1361.50959 1609.25935 1357.14177 1612.56468 1356.90567 1616.27136 1355.48908 1618.70313 1354.26137 1621.6307 1354.16693 1625.3846 1350.27131 1630.83838 1346.06876 1632.82157 1342.66894 1631.92441 1339.76493 1634.73394 1340.59127 1638.3934 1335.89292 1638.51145 1331.83203 1640.70713 1328.80997"></polygon>
        </g>
    </g>
</svg>