<?xml version="1.0" encoding="utf-8"?>
<!-- Generator: Adobe Illustrator 21.1.0, SVG Export Plug-In . SVG Version: 6.00 Build 0)  -->
<svg version="1.1" id="Layer_1" xmlns="http://www.w3.org/2000/svg" xmlns:xlink="http://www.w3.org/1999/xlink" x="0px" y="0px"
	 viewBox="0 0 96 96" style="enable-background:new 0 0 96 96;" xml:space="preserve">
<style type="text/css">
	.st0{fill:#B1B2B3;stroke:#FFFFFF;stroke-width:0.5;}
</style>
<title>MG</title>
<desc>Created with Sketch.</desc>
<g id="Map-countries">
	<g id="Artboard" transform="translate(-1601.000000, -1328.000000)">
		<polygon id="MG" class="st0" points="1666.5,1331.7 1668.3,1334.6 1669.9,1339 1671,1347.2 1672.7,1350.4 1672,1353.6 
			1670.9,1355.7 1668.6,1351.7 1667.4,1353.7 1668.6,1358.7 1668,1361.7 1666.2,1363.3 1665.8,1369.1 1663.2,1377.2 1659.9,1386.8 
			1655.8,1400.2 1653.3,1410.2 1650.3,1418.6 1644.9,1420.3 1639.1,1423.4 1635.3,1421.5 1630.1,1418.9 1628.2,1415.1 
			1627.8,1408.7 1625.5,1403 1624.9,1397.8 1626.1,1392.7 1629.1,1391.5 1629.1,1389.2 1632.3,1383.8 1632.9,1379.4 1631.3,1376.1 
			1630.1,1371.7 1629.6,1365.4 1631.9,1361.5 1632.8,1357.1 1636.1,1356.9 1639.8,1355.5 1642.2,1354.3 1645.1,1354.2 
			1648.9,1350.3 1654.3,1346.1 1656.3,1342.7 1655.4,1339.8 1658.2,1340.6 1661.9,1335.9 1662,1331.8 1664.2,1328.8 		"/>
	</g>
</g>
</svg>
