<?xml version="1.0" encoding="UTF-8"?>
<svg width="110px" height="104px" viewBox="0 0 110 104" version="1.1" xmlns="http://www.w3.org/2000/svg" xmlns:xlink="http://www.w3.org/1999/xlink">
    <!-- Generator: Sketch 43.2 (39069) - http://www.bohemiancoding.com/sketch -->
    <title>ML</title>
    <desc>Created with Sketch.</desc>
    <defs></defs>
    <g id="Map-countries" stroke="none" stroke-width="1" fill="none" fill-rule="evenodd">
        <g id="Artboard" transform="translate(-1234.000000, -1079.000000)" stroke-width="0.5" stroke="#FFFFFF" fill="#B1B2B3">
            <polygon id="ML" points="1234.48314 1151.85429 1236.70242 1150.62657 1237.81207 1146.6129 1239.91331 1146.44763 1244.54076 1148.33642 1248.27105 1146.99066 1250.82087 1147.43925 1251.83607 1145.92822 1278.39669 1145.83378 1279.86048 1141.04098 1278.70361 1140.19103 1275.51634 1110.25376 1272.32906 1079.41932 1282.45751 1079.30127 1304.79204 1095.00181 1327.12657 1110.46625 1328.68479 1113.74802 1332.81645 1115.75485 1335.88567 1116.88813 1335.9565 1121.32677 1343.29904 1120.64209 1343.32264 1136.57873 1339.68679 1141.15903 1339.12016 1145.38519 1333.24141 1146.44763 1324.22261 1147.03788 1321.76723 1149.46969 1317.51753 1149.7294 1313.29144 1149.75301 1311.63878 1148.45447 1307.97932 1149.42247 1301.79364 1152.25565 1300.54234 1154.38054 1295.39549 1157.4026 1294.49833 1159.14972 1291.73602 1160.51909 1288.52514 1159.62192 1286.70721 1161.27461 1285.73923 1165.90214 1280.47432 1171.47406 1280.63959 1173.7406 1278.82166 1176.59739 1279.27024 1180.4694 1276.53154 1181.46101 1274.99693 1182.31097 1273.95812 1179.45418 1272.04575 1180.20969 1270.9125 1180.06803 1269.68481 1182.02765 1264.58517 1181.95682 1262.74363 1180.96521 1261.89369 1181.57906 1259.86328 1179.64306 1260.21742 1177.65983 1259.39109 1176.8571 1257.97453 1177.51817 1258.23423 1175.34607 1259.60358 1173.62255 1256.88849 1170.81298 1256.08577 1168.9478 1254.62199 1167.48399 1253.29986 1167.29512 1251.71803 1168.23951 1249.56957 1169.13668 1247.75164 1170.60049 1244.91851 1170.05747 1243.07697 1168.35756 1241.99094 1168.12146 1240.26745 1169.01863 1239.20502 1169.04224 1238.82727 1166.56321 1239.1342 1164.46194 1238.56757 1161.86485 1236.08858 1159.95246 1234.79006 1156.08045"></polygon>
        </g>
    </g>
</svg>