<?xml version="1.0" encoding="utf-8"?>
<!-- Generator: Adobe Illustrator 21.1.0, SVG Export Plug-In . SVG Version: 6.00 Build 0)  -->
<svg version="1.1" id="Layer_1" xmlns="http://www.w3.org/2000/svg" xmlns:xlink="http://www.w3.org/1999/xlink" x="0px" y="0px"
	 viewBox="0 0 110 110" style="enable-background:new 0 0 110 110;" xml:space="preserve">
<style type="text/css">
	.st0{fill:#B1B2B3;stroke:#FFFFFF;stroke-width:0.5;}
</style>
<title>ML</title>
<desc>Created with Sketch.</desc>
<g id="Map-countries">
	<g id="Artboard" transform="translate(-1234.000000, -1079.000000)">
		<polygon id="ML" class="st0" points="1234.5,1154.9 1236.7,1153.6 1237.8,1149.6 1239.9,1149.4 1244.5,1151.3 1248.3,1150 
			1250.8,1150.4 1251.8,1148.9 1278.4,1148.8 1279.9,1144 1278.7,1143.2 1275.5,1113.3 1272.3,1082.4 1282.5,1082.3 1304.8,1098 
			1327.1,1113.5 1328.7,1116.7 1332.8,1118.8 1335.9,1119.9 1336,1124.3 1343.3,1123.6 1343.3,1139.6 1339.7,1144.2 1339.1,1148.4 
			1333.2,1149.4 1324.2,1150 1321.8,1152.5 1317.5,1152.7 1313.3,1152.8 1311.6,1151.5 1308,1152.4 1301.8,1155.3 1300.5,1157.4 
			1295.4,1160.4 1294.5,1162.1 1291.7,1163.5 1288.5,1162.6 1286.7,1164.3 1285.7,1168.9 1280.5,1174.5 1280.6,1176.7 
			1278.8,1179.6 1279.3,1183.5 1276.5,1184.5 1275,1185.3 1274,1182.5 1272,1183.2 1270.9,1183.1 1269.7,1185 1264.6,1185 
			1262.7,1184 1261.9,1184.6 1259.9,1182.6 1260.2,1180.7 1259.4,1179.9 1258,1180.5 1258.2,1178.3 1259.6,1176.6 1256.9,1173.8 
			1256.1,1171.9 1254.6,1170.5 1253.3,1170.3 1251.7,1171.2 1249.6,1172.1 1247.8,1173.6 1244.9,1173.1 1243.1,1171.4 1242,1171.1 
			1240.3,1172 1239.2,1172 1238.8,1169.6 1239.1,1167.5 1238.6,1164.9 1236.1,1163 1234.8,1159.1 		"/>
	</g>
</g>
</svg>
