<?xml version="1.0" encoding="utf-8"?>
<!-- Generator: Adobe Illustrator 21.1.0, SVG Export Plug-In . SVG Version: 6.00 Build 0)  -->
<svg version="1.1" id="Layer_1" xmlns="http://www.w3.org/2000/svg" xmlns:xlink="http://www.w3.org/1999/xlink" x="0px" y="0px"
	 viewBox="0 0 130 130" style="enable-background:new 0 0 130 130;" xml:space="preserve">
<style type="text/css">
	.st0{fill:#B1B2B3;stroke:#FFFFFF;stroke-width:0.5;}
</style>
<title>MM</title>
<desc>Created with Sketch.</desc>
<g id="Map-countries">
	<g id="Artboard" transform="translate(-1925.000000, -1054.000000)">
		<polygon id="MM" class="st0" points="2008.5,1113.4 2004.6,1116.5 2000,1116.8 1996.9,1124.3 1994.1,1125.6 1997.4,1131.6 
			2001.6,1136.7 2004.3,1141.2 2001.8,1147.2 1999.6,1148.4 2001.1,1151.8 2005.6,1157.2 2006.3,1161 2006.2,1164.1 2008.8,1170.3 
			2005.1,1176.5 2001.9,1183.4 2001.3,1178.4 2003.3,1173.3 2001.1,1169.3 2001.7,1162 1999,1158.5 1996.8,1150.4 1995.6,1141.7 
			1992.8,1136.1 1988.4,1139.5 1980.9,1144.4 1977.1,1143.8 1973,1142.2 1975.3,1133.7 1974,1127.2 1968.8,1119.2 1969.6,1116.7 
			1965.7,1115.8 1961,1110 1960.6,1104.4 1962.9,1105.4 1963,1100.4 1966.3,1098.7 1965.6,1095.6 1967.1,1093.2 1967.3,1085.8 
			1972.5,1087.4 1975.4,1081.5 1975.8,1077.9 1979.4,1071.8 1979.2,1067.6 1987.8,1062.5 1992.5,1063.8 1992,1059.3 1994.3,1057.9 
			1993.8,1055.1 1997.7,1054.5 1999.9,1058.9 2002.8,1060.7 2003,1066.3 2002.7,1072.4 1996.5,1078.5 1995.7,1087.1 2002.6,1085.9 
			2004.2,1092.5 2008.4,1093.9 2006.5,1099.8 2011.4,1102.5 2014.3,1103.8 2019.1,1101.7 2019.3,1104.6 2013.7,1109.2 
			2012.3,1111.8 		"/>
	</g>
</g>
</svg>
