<?xml version="1.0" encoding="UTF-8"?>
<svg width="61px" height="130px" viewBox="0 0 61 130" version="1.1" xmlns="http://www.w3.org/2000/svg" xmlns:xlink="http://www.w3.org/1999/xlink">
    <!-- Generator: Sketch 43.2 (39069) - http://www.bohemiancoding.com/sketch -->
    <title>MM</title>
    <desc>Created with Sketch.</desc>
    <defs></defs>
    <g id="Map-countries" stroke="none" stroke-width="1" fill="none" fill-rule="evenodd">
        <g id="Artboard" transform="translate(-1925.000000, -1054.000000)" stroke-width="0.5" stroke="#FFFFFF" fill="#B1B2B3">
            <polygon id="MM" points="1974.00156 1113.44109 1970.12961 1116.46315 1965.45494 1116.79369 1962.43294 1124.32522 1959.64702 1125.57654 1962.85791 1131.64427 1967.06039 1136.67316 1969.75186 1141.20625 1967.3437 1147.15593 1965.05358 1148.40725 1966.63542 1151.83068 1971.05038 1157.21372 1971.80588 1160.99129 1971.68784 1164.1314 1974.28487 1170.26995 1970.64902 1176.52656 1967.43814 1183.39702 1966.80068 1178.43896 1968.83109 1173.29201 1966.61181 1169.32556 1967.15482 1161.9829 1964.46335 1158.48865 1962.31489 1150.36687 1961.11081 1141.72567 1958.25407 1136.05931 1953.88632 1139.50634 1946.35491 1144.36997 1942.64823 1143.75611 1938.54018 1142.17425 1940.8303 1133.65111 1939.46095 1127.18201 1934.26688 1119.17828 1935.0696 1116.65203 1931.19765 1115.75485 1926.49937 1110.04127 1926.0744 1104.35131 1928.38813 1105.43736 1928.50617 1100.36124 1931.78789 1098.66134 1931.0796 1095.63928 1932.567 1093.20747 1932.8267 1085.77037 1937.99717 1087.42306 1940.94835 1081.47338 1941.30249 1077.9319 1944.93834 1071.79335 1944.74947 1067.5908 1953.31969 1062.49108 1958.04158 1063.83684 1957.49856 1059.28014 1959.8359 1057.91077 1959.31649 1055.07759 1963.18844 1054.51095 1965.40773 1058.90238 1968.28808 1060.67312 1968.50056 1066.33948 1968.21725 1072.4072 1961.96075 1078.49854 1961.15803 1087.06891 1968.14642 1085.88842 1969.72825 1092.49917 1973.93073 1093.89215 1971.99476 1099.79461 1976.90552 1102.46252 1979.78587 1103.76106 1984.62581 1101.707 1984.83829 1104.63462 1979.19564 1109.21493 1977.77907 1111.81201"></polygon>
        </g>
    </g>
</svg>