<?xml version="1.0" encoding="UTF-8"?>
<svg width="214px" height="103px" viewBox="0 0 214 103" version="1.1" xmlns="http://www.w3.org/2000/svg" xmlns:xlink="http://www.w3.org/1999/xlink">
    <!-- Generator: Sketch 43.2 (39069) - http://www.bohemiancoding.com/sketch -->
    <title>MN</title>
    <desc>Created with Sketch.</desc>
    <defs></defs>
    <g id="Map-countries" stroke="none" stroke-width="1" fill="none" fill-rule="evenodd">
        <g id="Artboard" transform="translate(-1895.000000, -845.000000)" stroke-width="0.5" stroke="#FFFFFF" fill="#B1B2B3">
            <polygon id="MN" points="1895.92515 874.816528 1902.91354 873.069401 1915.54459 864.239324 1925.62582 859.352089 1931.36292 862.539416 1938.28048 862.681075 1942.69545 867.521091 1949.30609 867.875238 1958.89152 870.44871 1965.31329 863.294931 1962.62181 857.156375 1969.49216 846.154194 1976.90552 850.569232 1982.90232 851.820553 1990.69343 854.535684 1991.94473 862.374147 2001.3649 866.718356 2007.6214 864.80596 2015.97914 863.4602 2022.61339 864.82957 2029.10599 869.764025 2033.11959 874.958187 2039.25805 874.863748 2047.59218 876.492826 2053.68341 873.990184 2062.3953 872.313886 2072.09878 865.089278 2076.06516 866.19894 2079.53575 869.645975 2087.4213 868.796022 2084.21042 876.469217 2079.53575 886.432565 2081.23563 890.469846 2084.98953 889.218525 2091.50573 890.753164 2096.60537 887.11725 2101.9175 890.257358 2107.91429 897.080599 2107.1824 900.504025 2101.96471 899.417972 2092.35567 900.692903 2087.681 903.431644 2082.84107 909.711859 2072.73623 913.371382 2066.1492 918.329447 2059.34968 916.440661 2055.61939 915.590707 2052.1488 921.587604 2054.25004 925.129078 2055.33607 928.151137 2050.68502 931.220415 2045.93952 936.06043 2038.21923 939.200538 2028.27966 939.554685 2017.58458 942.647573 2009.88791 947.393149 2006.96034 944.654409 1998.95674 944.654409 1989.15882 939.247757 1982.61901 937.901997 1973.81269 939.153318 1960.14282 937.146482 1952.8475 937.358971 1948.97556 931.999539 1945.95355 923.570829 1941.86912 922.555607 1933.86552 916.771198 1924.94115 915.472657 1917.07921 913.867189 1914.69465 909.782688 1917.24447 898.615238 1912.68785 890.800384 1903.24408 887.093641 1897.67225 881.828648"></polygon>
        </g>
    </g>
</svg>