<?xml version="1.0" encoding="utf-8"?>
<!-- Generator: Adobe Illustrator 21.1.0, SVG Export Plug-In . SVG Version: 6.00 Build 0)  -->
<svg version="1.1" id="Layer_1" xmlns="http://www.w3.org/2000/svg" xmlns:xlink="http://www.w3.org/1999/xlink" x="0px" y="0px"
	 viewBox="0 0 214 214" style="enable-background:new 0 0 214 214;" xml:space="preserve">
<style type="text/css">
	.st0{fill:#B1B2B3;stroke:#FFFFFF;stroke-width:0.5;}
</style>
<title>MN</title>
<desc>Created with Sketch.</desc>
<g id="Map-countries">
	<g id="Artboard" transform="translate(-1895.000000, -845.000000)">
		<polygon id="MN" class="st0" points="1895.9,930.3 1902.9,928.6 1915.5,919.7 1925.6,914.9 1931.4,918 1938.3,918.2 1942.7,923 
			1949.3,923.4 1958.9,925.9 1965.3,918.8 1962.6,912.7 1969.5,901.7 1976.9,906.1 1982.9,907.3 1990.7,910 1991.9,917.9 
			2001.4,922.2 2007.6,920.3 2016,919 2022.6,920.3 2029.1,925.3 2033.1,930.5 2039.3,930.4 2047.6,932 2053.7,929.5 2062.4,927.8 
			2072.1,920.6 2076.1,921.7 2079.5,925.1 2087.4,924.3 2084.2,932 2079.5,941.9 2081.2,946 2085,944.7 2091.5,946.3 2096.6,942.6 
			2101.9,945.8 2107.9,952.6 2107.2,956 2102,954.9 2092.4,956.2 2087.7,958.9 2082.8,965.2 2072.7,968.9 2066.1,973.8 
			2059.3,971.9 2055.6,971.1 2052.1,977.1 2054.2,980.6 2055.3,983.7 2050.7,986.7 2045.9,991.6 2038.2,994.7 2028.3,995.1 
			2017.6,998.1 2009.9,1002.9 2007,1000.2 1999,1000.2 1989.2,994.7 1982.6,993.4 1973.8,994.7 1960.1,992.6 1952.8,992.9 
			1949,987.5 1946,979.1 1941.9,978.1 1933.9,972.3 1924.9,971 1917.1,969.4 1914.7,965.3 1917.2,954.1 1912.7,946.3 1903.2,942.6 
			1897.7,937.3 		"/>
	</g>
</g>
</svg>
