<?xml version="1.0" encoding="utf-8"?>
<!-- Generator: Adobe Illustrator 21.1.0, SVG Export Plug-In . SVG Version: 6.00 Build 0)  -->
<svg version="1.1" id="Layer_1" xmlns="http://www.w3.org/2000/svg" xmlns:xlink="http://www.w3.org/1999/xlink" x="0px" y="0px"
	 viewBox="0 0 92 92" style="enable-background:new 0 0 92 92;" xml:space="preserve">
<style type="text/css">
	.st0{fill:#B1B2B3;stroke:#FFFFFF;stroke-width:0.5;}
</style>
<title>MR</title>
<desc>Created with Sketch.</desc>
<g id="Map-countries">
	<g id="Artboard" transform="translate(-1201.000000, -1061.000000)">
		<polygon id="MR" class="st0" points="1239.5,1151.9 1235.1,1147.2 1231.1,1142.2 1226.7,1140.3 1223.5,1138.3 1219.8,1138.4 
			1216.6,1139.9 1213.3,1139.3 1211.1,1141.5 1210.5,1137.8 1212.3,1134.4 1213.2,1127.9 1212.4,1121 1211.6,1117.6 1212.3,1114.1 
			1210.6,1110.7 1207.1,1107.7 1208.5,1105.4 1234.5,1105.4 1233.2,1095.1 1234.8,1091.5 1241,1090.8 1240.8,1072.3 1262.5,1072.7 
			1262.5,1061.5 1287.5,1079.3 1277.3,1079.4 1280.5,1110.3 1283.7,1140.2 1284.9,1141 1283.4,1145.8 1256.8,1145.9 1255.8,1147.4 
			1253.3,1147 1249.5,1148.3 1244.9,1146.4 1242.8,1146.6 1241.7,1150.6 		"/>
	</g>
</g>
</svg>
