<?xml version="1.0" encoding="UTF-8"?>
<svg width="82px" height="92px" viewBox="0 0 82 92" version="1.1" xmlns="http://www.w3.org/2000/svg" xmlns:xlink="http://www.w3.org/1999/xlink">
    <!-- Generator: Sketch 43.2 (39069) - http://www.bohemiancoding.com/sketch -->
    <title>MR</title>
    <desc>Created with Sketch.</desc>
    <defs></defs>
    <g id="Map-countries" stroke="none" stroke-width="1" fill="none" fill-rule="evenodd">
        <g id="Artboard" transform="translate(-1201.000000, -1061.000000)" stroke-width="0.5" stroke="#FFFFFF" fill="#B1B2B3">
            <polygon id="MR" points="1234.48314 1151.85429 1230.11539 1147.17954 1226.10179 1142.15065 1221.71043 1140.33269 1218.54677 1138.32585 1214.84008 1138.39668 1211.6292 1139.8841 1208.32388 1139.29386 1206.05737 1141.48957 1205.49075 1137.80644 1207.33228 1134.40662 1208.15861 1127.91392 1207.42672 1121.04346 1206.624 1117.57281 1207.28506 1114.10217 1205.58518 1110.74957 1202.09099 1107.72751 1203.53116 1105.36653 1229.45433 1105.41375 1228.20303 1095.14347 1229.83208 1091.48395 1236.01775 1090.84648 1235.80526 1072.28916 1257.54956 1072.69052 1257.54956 1061.52307 1282.45751 1079.30127 1272.32906 1079.41932 1275.51634 1110.25376 1278.70361 1140.19103 1279.86048 1141.04098 1278.39669 1145.83378 1251.83607 1145.92822 1250.82087 1147.43925 1248.27105 1146.99066 1244.54076 1148.33642 1239.91331 1146.44763 1237.81207 1146.6129 1236.70242 1150.62657"></polygon>
        </g>
    </g>
</svg>