<?xml version="1.0" encoding="UTF-8"?>
<svg width="202px" height="133px" viewBox="0 0 202 133" version="1.1" xmlns="http://www.w3.org/2000/svg" xmlns:xlink="http://www.w3.org/1999/xlink">
    <!-- Generator: Sketch 43.2 (39069) - http://www.bohemiancoding.com/sketch -->
    <title>MX</title>
    <desc>Created with Sketch.</desc>
    <defs></defs>
    <g id="Map-countries" stroke="none" stroke-width="1" fill="none" fill-rule="evenodd">
        <g id="Artboard" transform="translate(-539.000000, -1020.000000)" stroke-width="0.5" stroke="#FFFFFF" fill="#B1B2B3">
            <polygon id="MX" points="672.011886 1072.76135 669.438458 1079.15962 668.281595 1084.37739 667.785797 1094.0102 667.148342 1097.48084 668.305205 1101.35286 670.359226 1104.8235 671.681354 1110.27737 676.07271 1115.49515 677.607323 1119.48521 680.204361 1122.90863 687.239974 1124.77381 689.978669 1127.65421 695.78659 1125.7182 700.815401 1125.03352 705.773383 1123.7822 709.952253 1122.5781 714.154733 1119.74492 715.736565 1115.66041 716.279583 1109.78157 717.436445 1107.72751 721.898629 1105.86233 728.910632 1104.23326 734.765772 1104.46935 738.779377 1103.87911 740.361209 1105.36653 740.148724 1108.76634 736.583699 1112.94528 735.025476 1117.21866 736.229558 1118.42276 735.237961 1121.44482 733.585301 1126.85147 731.90903 1125.08074 730.516074 1125.19879 729.264773 1125.29323 726.90383 1129.47217 725.699748 1128.64582 724.897027 1128.97636 724.944246 1129.99158 718.829402 1129.92075 712.643729 1129.92075 712.643729 1133.81637 709.645331 1133.81637 712.100712 1136.13014 714.556094 1137.712 715.287986 1139.19942 716.37402 1139.62439 716.185145 1141.93816 707.709357 1141.96177 704.522082 1147.53369 705.442851 1148.80862 704.687349 1150.41409 704.522082 1152.39731 697.037891 1145.05465 693.614522 1142.83533 688.207961 1141.04098 684.524889 1141.53679 679.189156 1144.11026 675.860225 1144.79495 671.185556 1143.0006 666.227574 1141.67845 660.041901 1138.53834 655.083919 1137.57034 647.576118 1134.38301 642.05151 1131.07763 640.37524 1129.23607 636.668558 1128.8347 629.892649 1126.63899 627.130345 1123.47527 620.023904 1119.53243 616.718583 1115.11739 615.13675 1111.69396 617.332428 1111.00928 616.647754 1109.00244 618.182368 1107.18449 618.205977 1104.72906 615.98669 1101.56535 615.372845 1098.73217 613.153558 1095.14347 607.322026 1088.0133 600.664165 1082.37055 597.453281 1077.86108 591.763407 1074.88624 590.559326 1073.09189 591.574531 1068.5588 588.198382 1066.83528 584.279215 1063.24659 582.626554 1058.07604 579.061529 1057.46218 575.2368 1053.54295 572.120354 1049.88343 571.837041 1047.52244 568.272016 1041.80886 565.934682 1035.95363 566.029119 1033.0024 561.236404 1029.95673 559.040726 1030.28727 555.263216 1028.16238 554.200791 1031.30249 555.286825 1034.98562 555.92428 1040.72281 558.214396 1043.86292 563.125159 1049.08069 564.211193 1050.85143 565.226399 1051.37084 566.076338 1053.96793 567.25681 1053.84988 568.602548 1058.66628 570.60935 1060.55507 572.002307 1063.17576 576.181178 1066.95333 578.376856 1073.77657 580.336439 1076.9639 582.177975 1080.36372 582.532117 1084.18851 585.719391 1084.42461 588.387257 1087.70637 590.79542 1090.91731 590.630154 1092.19224 587.84424 1094.81293 586.663768 1094.78932 584.91667 1090.42151 580.596143 1086.337 575.827036 1082.84275 572.427277 1081.00118 572.639762 1075.68897 571.648166 1071.72252 568.484501 1069.45598 563.92788 1066.17421 563.05433 1067.1186 561.40167 1065.1826 557.317237 1063.41186 553.42168 1059.09126 553.893868 1058.52462 556.608954 1058.9496 559.064335 1056.16364 559.324039 1052.78743 554.224401 1047.428 550.352453 1045.32673 547.897071 1040.58115 545.44169 1035.57587 542.372463 1029.4137 539.680987 1022.42519 547.212397 1021.83495 555.617357 1020.98499 555.003512 1022.49602 564.990304 1026.2972 580.100345 1031.75108 593.274411 1031.68025 598.515706 1031.68025 598.515706 1028.49292 609.989893 1028.49292 612.398056 1031.25527 615.797815 1033.68708 619.716981 1037.06329 621.912659 1041.05335 623.56532 1045.20868 626.988688 1047.49883 632.489687 1049.76538 636.644948 1043.79209 642.075119 1043.65043 646.726178 1046.67249 650.055109 1051.81943 652.345225 1056.21086 656.240782 1060.46063 657.704567 1065.63118 659.569713 1069.10183 664.71657 1071.36837 669.414848 1072.97384"></polygon>
        </g>
    </g>
</svg>