<?xml version="1.0" encoding="utf-8"?>
<!-- Generator: Adobe Illustrator 21.1.0, SVG Export Plug-In . SVG Version: 6.00 Build 0)  -->
<svg version="1.1" id="Layer_1" xmlns="http://www.w3.org/2000/svg" xmlns:xlink="http://www.w3.org/1999/xlink" x="0px" y="0px"
	 viewBox="0 0 202 202" style="enable-background:new 0 0 202 202;" xml:space="preserve">
<style type="text/css">
	.st0{fill:#B1B2B3;stroke:#FFFFFF;stroke-width:0.5;}
</style>
<title>MX</title>
<desc>Created with Sketch.</desc>
<g id="Map-countries">
	<g id="Artboard" transform="translate(-539.000000, -1020.000000)">
		<polygon id="MX" class="st0" points="672,1107.3 669.4,1113.7 668.3,1118.9 667.8,1128.5 667.1,1132 668.3,1135.9 670.4,1139.3 
			671.7,1144.8 676.1,1150 677.6,1154 680.2,1157.4 687.2,1159.3 690,1162.2 695.8,1160.2 700.8,1159.5 705.8,1158.3 710,1157.1 
			714.2,1154.2 715.7,1150.2 716.3,1144.3 717.4,1142.2 721.9,1140.4 728.9,1138.7 734.8,1139 738.8,1138.4 740.4,1139.9 
			740.1,1143.3 736.6,1147.4 735,1151.7 736.2,1152.9 735.2,1155.9 733.6,1161.4 731.9,1159.6 730.5,1159.7 729.3,1159.8 
			726.9,1164 725.7,1163.1 724.9,1163.5 724.9,1164.5 718.8,1164.4 712.6,1164.4 712.6,1168.3 709.6,1168.3 712.1,1170.6 
			714.6,1172.2 715.3,1173.7 716.4,1174.1 716.2,1176.4 707.7,1176.5 704.5,1182 705.4,1183.3 704.7,1184.9 704.5,1186.9 
			697,1179.6 693.6,1177.3 688.2,1175.5 684.5,1176 679.2,1178.6 675.9,1179.3 671.2,1177.5 666.2,1176.2 660,1173 655.1,1172.1 
			647.6,1168.9 642.1,1165.6 640.4,1163.7 636.7,1163.3 629.9,1161.1 627.1,1158 620,1154 616.7,1149.6 615.1,1146.2 617.3,1145.5 
			616.6,1143.5 618.2,1141.7 618.2,1139.2 616,1136.1 615.4,1133.2 613.2,1129.6 607.3,1122.5 600.7,1116.9 597.5,1112.4 
			591.8,1109.4 590.6,1107.6 591.6,1103.1 588.2,1101.3 584.3,1097.7 582.6,1092.6 579.1,1092 575.2,1088 572.1,1084.4 571.8,1082 
			568.3,1076.3 565.9,1070.5 566,1067.5 561.2,1064.5 559,1064.8 555.3,1062.7 554.2,1065.8 555.3,1069.5 555.9,1075.2 
			558.2,1078.4 563.1,1083.6 564.2,1085.4 565.2,1085.9 566.1,1088.5 567.3,1088.3 568.6,1093.2 570.6,1095.1 572,1097.7 
			576.2,1101.5 578.4,1108.3 580.3,1111.5 582.2,1114.9 582.5,1118.7 585.7,1118.9 588.4,1122.2 590.8,1125.4 590.6,1126.7 
			587.8,1129.3 586.7,1129.3 584.9,1124.9 580.6,1120.8 575.8,1117.3 572.4,1115.5 572.6,1110.2 571.6,1106.2 568.5,1104 
			563.9,1100.7 563.1,1101.6 561.4,1099.7 557.3,1097.9 553.4,1093.6 553.9,1093 556.6,1093.4 559.1,1090.7 559.3,1087.3 
			554.2,1081.9 550.4,1079.8 547.9,1075.1 545.4,1070.1 542.4,1063.9 539.7,1056.9 547.2,1056.3 555.6,1055.5 555,1057 565,1060.8 
			580.1,1066.3 593.3,1066.2 598.5,1066.2 598.5,1063 610,1063 612.4,1065.8 615.8,1068.2 619.7,1071.6 621.9,1075.6 623.6,1079.7 
			627,1082 632.5,1084.3 636.6,1078.3 642.1,1078.2 646.7,1081.2 650.1,1086.3 652.3,1090.7 656.2,1095 657.7,1100.1 659.6,1103.6 
			664.7,1105.9 669.4,1107.5 		"/>
	</g>
</g>
</svg>
