<?xml version="1.0" encoding="UTF-8"?>
<svg width="128px" height="42px" viewBox="0 0 128 42" version="1.1" xmlns="http://www.w3.org/2000/svg" xmlns:xlink="http://www.w3.org/1999/xlink">
    <!-- Generator: Sketch 43.2 (39069) - http://www.bohemiancoding.com/sketch -->
    <title>MY</title>
    <desc>Created with Sketch.</desc>
    <defs></defs>
    <g id="Map-countries" stroke="none" stroke-width="1" fill="none" fill-rule="evenodd">
        <g id="Artboard" transform="translate(-1977.000000, -1203.000000)" stroke="#FFFFFF" stroke-width="0.5" fill="#B1B2B3">
            <path d="M1984.13001,1208.16373 L1984.64942,1211.56355 L1989.01716,1210.78442 L1991.18923,1208.06929 L1992.70024,1208.68315 L1996.6194,1212.67321 L1999.40532,1217.08825 L1999.78307,1221.5269 L1999.07478,1224.52535 L1999.71224,1226.79189 L2000.20804,1230.68751 L2002.54537,1232.50547 L2005.14241,1238.31349 L2005.02436,1240.53281 L2000.32608,1240.9814 L1994.06958,1236.11777 L1986.23125,1230.9 L1985.45214,1227.5474 L1981.62741,1223.13237 L1980.70664,1217.67849 L1978.32209,1214.0898 L1979.05398,1209.27339 L1977.5902,1206.46382 L1978.74706,1205.28333 L1984.13001,1208.16373 L1984.13001,1208.16373 Z M2100.26483,1219.56728 L2095.40129,1221.81022 L2089.6642,1220.70055 L2082.06196,1220.70055 L2079.77184,1228.18487 L2077.22202,1230.47502 L2073.82226,1239.63564 L2068.4157,1241.02862 L2062.1592,1239.18705 L2058.99554,1239.75369 L2055.1472,1243.08267 L2050.92111,1242.61048 L2046.6478,1243.95624 L2042.11479,1240.24949 L2041.00515,1235.85806 L2045.84508,1238.12461 L2050.96833,1236.8969 L2052.29046,1231.32498 L2055.12359,1230.07366 L2063.05636,1228.65707 L2067.80186,1223.43929 L2071.05996,1219.26035 L2074.08197,1222.68378 L2075.47492,1220.44084 L2078.63859,1220.65333 L2079.01634,1216.45078 L2079.32326,1213.19263 L2084.4229,1208.58871 L2087.75183,1203.41816 L2090.4197,1203.39455 L2093.81946,1206.74714 L2094.12638,1209.62754 L2098.49413,1211.46911 L2104.01874,1213.45233 L2103.54655,1216.04942 L2099.10797,1216.37995 L2100.26483,1219.56728 L2100.26483,1219.56728 Z" id="MY"></path>
        </g>
    </g>
</svg>