<?xml version="1.0" encoding="utf-8"?>
<!-- Generator: Adobe Illustrator 21.1.0, SVG Export Plug-In . SVG Version: 6.00 Build 0)  -->
<svg version="1.1" id="Layer_1" xmlns="http://www.w3.org/2000/svg" xmlns:xlink="http://www.w3.org/1999/xlink" x="0px" y="0px"
	 viewBox="0 0 128 128" style="enable-background:new 0 0 128 128;" xml:space="preserve">
<style type="text/css">
	.st0{fill:#B1B2B3;stroke:#FFFFFF;stroke-width:0.5;}
</style>
<title>MY</title>
<desc>Created with Sketch.</desc>
<g id="Map-countries">
	<g id="Artboard" transform="translate(-1977.000000, -1203.000000)">
		<path id="MY" class="st0" d="M1984.1,1251.2l0.5,3.4l4.4-0.8l2.2-2.7l1.5,0.6l3.9,4l2.8,4.4l0.4,4.4l-0.7,3l0.6,2.3l0.5,3.9
			l2.3,1.8l2.6,5.8l-0.1,2.2l-4.7,0.4l-6.3-4.9l-7.8-5.2l-0.8-3.4l-3.8-4.4l-0.9-5.5l-2.4-3.6l0.7-4.8l-1.5-2.8l1.2-1.2
			L1984.1,1251.2L1984.1,1251.2z M2100.3,1262.6l-4.9,2.2l-5.7-1.1h-7.6l-2.3,7.5l-2.5,2.3l-3.4,9.2l-5.4,1.4l-6.3-1.8l-3.2,0.6
			l-3.8,3.3l-4.2-0.5l-4.3,1.3l-4.5-3.7l-1.1-4.4l4.8,2.3l5.1-1.2l1.3-5.6l2.8-1.3l7.9-1.4l4.7-5.2l3.3-4.2l3,3.4l1.4-2.2l3.2,0.2
			l0.4-4.2l0.3-3.3l5.1-4.6l3.3-5.2l2.7,0l3.4,3.4l0.3,2.9l4.4,1.8l5.5,2l-0.5,2.6l-4.4,0.3L2100.3,1262.6L2100.3,1262.6z"/>
	</g>
</g>
</svg>
