<?xml version="1.0" encoding="utf-8"?>
<!-- Generator: Adobe Illustrator 21.1.0, SVG Export Plug-In . SVG Version: 6.00 Build 0)  -->
<svg version="1.1" id="Layer_1" xmlns="http://www.w3.org/2000/svg" xmlns:xlink="http://www.w3.org/1999/xlink" x="0px" y="0px"
	 viewBox="0 0 115 115" style="enable-background:new 0 0 115 115;" xml:space="preserve">
<style type="text/css">
	.st0{fill:#B1B2B3;stroke:#FFFFFF;stroke-width:0.5;}
</style>
<title>MZ</title>
<desc>Created with Sketch.</desc>
<g id="Map-countries">
	<g id="Artboard" transform="translate(-1514.000000, -1317.000000)">
		<polygon id="MZ" class="st0" points="1565.3,1325.3 1570.3,1324.8 1578.3,1326.7 1580,1325.8 1584.6,1325.6 1587,1323.6 
			1590.9,1323.7 1598.2,1321.1 1603.4,1317.3 1604.5,1320.3 1604.2,1326.9 1605,1332.8 1605.3,1343.4 1606.5,1346.7 1604.5,1351.6 
			1601.9,1356.4 1597.7,1360.6 1591.7,1363.2 1584.2,1366.6 1576.7,1374 1574.2,1375.3 1569.5,1380.2 1566.8,1381.8 1566.3,1386.8 
			1569.4,1392.2 1570.7,1396.3 1570.8,1398.4 1571.9,1398.1 1571.8,1405.1 1570.7,1408.4 1572.3,1409.6 1571.3,1412.6 
			1568.5,1415.2 1563,1417.7 1555.1,1421.6 1552.2,1424.3 1552.8,1427.4 1554.4,1427.9 1553.9,1431.7 1548.9,1431.7 1548.3,1428.4 
			1547.3,1425.1 1546.7,1422.5 1547.9,1414.4 1546.2,1409.3 1543,1399.2 1550,1391.2 1551.7,1386.1 1552.8,1385.5 1553.5,1381.4 
			1552.4,1379.3 1552.7,1374.1 1554,1369.3 1554,1360.6 1550.6,1358.3 1547.4,1357.9 1546,1356.2 1542.9,1354.7 1537.4,1354.9 
			1537,1352.3 1536.3,1347.5 1556.4,1341.8 1560.2,1345.1 1562.1,1344.5 1564.7,1346.2 1565.1,1348.9 1563.7,1352.1 1564.1,1356.9 
			1568.5,1361.2 1570.5,1356.4 1573.3,1355 1572.8,1346.2 1570,1341.3 1567.6,1339.1 1565.3,1339.2 1563.5,1330.4 		"/>
	</g>
</g>
</svg>
