<?xml version="1.0" encoding="UTF-8"?>
<svg width="72px" height="115px" viewBox="0 0 72 115" version="1.1" xmlns="http://www.w3.org/2000/svg" xmlns:xlink="http://www.w3.org/1999/xlink">
    <!-- Generator: Sketch 43.2 (39069) - http://www.bohemiancoding.com/sketch -->
    <title>MZ</title>
    <desc>Created with Sketch.</desc>
    <defs></defs>
    <g id="Map-countries" stroke="none" stroke-width="1" fill="none" fill-rule="evenodd">
        <g id="Artboard" transform="translate(-1514.000000, -1317.000000)" stroke-width="0.5" stroke="#FFFFFF" fill="#B1B2B3">
            <polygon id="MZ" points="1543.81399 1325.31571 1548.79558 1324.77269 1556.75196 1326.66147 1558.49906 1325.81152 1563.1029 1325.64625 1565.46385 1323.63942 1569.43023 1323.73386 1576.65472 1321.13677 1581.91962 1317.26476 1583.00566 1320.26321 1582.72235 1326.94479 1583.54868 1332.84725 1583.80838 1343.42445 1584.96524 1346.72983 1583.00566 1351.61707 1580.43223 1356.36264 1576.20614 1360.61241 1570.16212 1363.2331 1562.70154 1366.56209 1555.21735 1373.99919 1552.66753 1375.27412 1548.04008 1380.20857 1545.325 1381.83765 1544.75837 1386.84293 1547.89842 1392.15515 1549.19694 1396.31048 1549.29138 1398.43536 1550.44824 1398.08121 1550.25937 1405.06972 1549.19694 1408.39871 1550.75517 1409.62642 1549.76357 1412.62487 1547.00127 1415.19834 1541.54749 1417.65376 1533.59111 1421.573 1530.68714 1424.28813 1531.25377 1427.3574 1532.93004 1427.85321 1532.36341 1431.72522 1527.35821 1431.678 1526.79159 1428.41985 1525.79999 1425.13808 1525.23336 1422.51739 1526.41384 1414.41922 1524.69035 1409.29588 1521.52668 1399.2381 1528.49147 1391.18714 1530.23857 1386.11103 1531.25377 1385.47356 1531.98566 1381.36545 1530.92324 1379.28779 1531.20655 1374.09363 1532.50507 1369.27722 1532.48146 1360.56519 1529.05809 1358.34587 1525.89443 1357.85006 1524.47786 1356.15015 1521.40864 1354.70995 1515.88403 1354.85161 1515.45906 1352.30175 1514.8216 1347.46174 1534.91323 1341.8426 1538.71435 1345.10075 1540.55589 1344.4869 1543.15293 1346.21041 1543.55429 1348.92555 1542.16133 1352.11287 1542.63352 1356.92928 1546.95405 1361.15544 1548.98446 1356.40986 1551.8412 1354.96966 1551.27457 1346.1868 1548.51227 1341.27596 1546.12772 1339.10386 1543.81399 1339.19829 1541.97246 1330.41544"></polygon>
        </g>
    </g>
</svg>