<?xml version="1.0" encoding="UTF-8"?>
<svg width="90px" height="89px" viewBox="0 0 90 89" version="1.1" xmlns="http://www.w3.org/2000/svg" xmlns:xlink="http://www.w3.org/1999/xlink">
    <!-- Generator: Sketch 43.2 (39069) - http://www.bohemiancoding.com/sketch -->
    <title>NA</title>
    <desc>Created with Sketch.</desc>
    <defs></defs>
    <g id="Map-countries" stroke="none" stroke-width="1" fill="none" fill-rule="evenodd">
        <g id="Artboard" transform="translate(-1392.000000, -1361.000000)" stroke-width="0.5" stroke="#FFFFFF" fill="#B1B2B3">
            <polygon id="NA" points="1423.24059 1445.37171 1418.32983 1439.72896 1415.73279 1434.29869 1414.26901 1427.14492 1412.63995 1421.8327 1410.42067 1410.68886 1410.27901 1402.11849 1409.42907 1398.24648 1406.85564 1395.31886 1403.43227 1389.48724 1399.96169 1381.05853 1398.52151 1376.69071 1393.11495 1369.91469 1392.71359 1364.60247 1395.90086 1363.30393 1399.86725 1362.12344 1404.16417 1362.33593 1408.10694 1365.45243 1409.09854 1364.95662 1435.94247 1364.6733 1440.5227 1367.97868 1456.55351 1368.94668 1468.71237 1366.13711 1474.14254 1364.55525 1478.43946 1364.95662 1481.0365 1366.51487 1481.10732 1367.08151 1477.37703 1368.63975 1475.34662 1368.66336 1471.14414 1371.37849 1468.59432 1368.52171 1458.39505 1370.95352 1453.46067 1371.16601 1453.2718 1396.1216 1446.75559 1396.38131 1446.75559 1417.29962 1446.73198 1444.49814 1440.82962 1448.34654 1437.28821 1448.88957 1433.10934 1447.47298 1430.13455 1446.92995 1429.0249 1443.71902 1426.40426 1441.66496"></polygon>
        </g>
    </g>
</svg>