<?xml version="1.0" encoding="utf-8"?>
<!-- Generator: Adobe Illustrator 21.1.0, SVG Export Plug-In . SVG Version: 6.00 Build 0)  -->
<svg version="1.1" id="Layer_1" xmlns="http://www.w3.org/2000/svg" xmlns:xlink="http://www.w3.org/1999/xlink" x="0px" y="0px"
	 viewBox="0 0 90 90" style="enable-background:new 0 0 90 90;" xml:space="preserve">
<style type="text/css">
	.st0{fill:#B1B2B3;stroke:#FFFFFF;stroke-width:0.5;}
</style>
<title>NA</title>
<desc>Created with Sketch.</desc>
<g id="Map-countries">
	<g id="Artboard" transform="translate(-1392.000000, -1361.000000)">
		<polygon id="NA" class="st0" points="1423.2,1445.9 1418.3,1440.2 1415.7,1434.8 1414.3,1427.6 1412.6,1422.3 1410.4,1411.2 
			1410.3,1402.6 1409.4,1398.7 1406.9,1395.8 1403.4,1390 1400,1381.6 1398.5,1377.2 1393.1,1370.4 1392.7,1365.1 1395.9,1363.8 
			1399.9,1362.6 1404.2,1362.8 1408.1,1366 1409.1,1365.5 1435.9,1365.2 1440.5,1368.5 1456.6,1369.4 1468.7,1366.6 1474.1,1365.1 
			1478.4,1365.5 1481,1367 1481.1,1367.6 1477.4,1369.1 1475.3,1369.2 1471.1,1371.9 1468.6,1369 1458.4,1371.5 1453.5,1371.7 
			1453.3,1396.6 1446.8,1396.9 1446.8,1417.8 1446.7,1445 1440.8,1448.8 1437.3,1449.4 1433.1,1448 1430.1,1447.4 1429,1444.2 
			1426.4,1442.2 		"/>
	</g>
</g>
</svg>
