<?xml version="1.0" encoding="UTF-8"?>
<svg width="105px" height="84px" viewBox="0 0 105 84" version="1.1" xmlns="http://www.w3.org/2000/svg" xmlns:xlink="http://www.w3.org/1999/xlink">
    <!-- Generator: Sketch 43.2 (39069) - http://www.bohemiancoding.com/sketch -->
    <title>NE</title>
    <desc>Created with Sketch.</desc>
    <defs></defs>
    <g id="Map-countries" stroke="none" stroke-width="1" fill="none" fill-rule="evenodd">
        <g id="Artboard" transform="translate(-1316.000000, -1089.000000)" stroke-width="0.5" stroke="#FFFFFF" fill="#B1B2B3">
            <polygon id="NE" points="1329.29864 1169.93942 1329.4639 1165.3355 1321.81445 1163.80086 1321.62557 1160.5427 1317.89528 1156.12767 1316.99812 1153.03478 1317.51753 1149.7294 1321.76723 1149.46969 1324.22261 1147.03788 1333.24141 1146.44763 1339.12016 1145.38519 1339.68679 1141.15903 1343.32264 1136.57873 1343.29904 1120.64209 1352.62476 1117.52559 1371.79563 1103.71384 1394.4843 1090.13819 1404.94328 1093.23108 1408.67357 1097.15031 1413.34824 1094.50601 1414.97729 1105.5318 1417.45628 1107.37336 1417.57433 1109.6163 1420.31302 1112.0245 1418.87285 1115.04656 1416.32303 1129.16524 1415.99249 1138.11336 1407.54032 1144.58246 1404.68357 1153.55419 1407.44588 1156.05684 1407.42227 1160.42465 1411.67197 1160.58992 1411.0109 1163.75364 1409.14576 1164.15501 1408.93327 1166.27989 1407.68197 1166.44516 1403.21979 1159.05528 1401.66157 1158.77197 1396.4911 1162.54954 1391.36785 1160.58992 1387.80283 1160.18856 1385.89046 1161.13295 1381.9949 1160.94407 1378.09935 1163.82447 1374.7232 1163.98974 1366.7196 1160.49548 1363.57954 1162.14817 1360.20339 1162.03012 1357.7244 1159.48026 1351.06654 1156.95401 1343.9601 1157.75674 1342.23661 1159.22055 1341.31584 1163.11618 1339.40348 1165.83131 1338.9549 1171.8282 1333.90248 1167.95619 1331.51793 1167.9798"></polygon>
        </g>
    </g>
</svg>