<?xml version="1.0" encoding="utf-8"?>
<!-- Generator: Adobe Illustrator 21.1.0, SVG Export Plug-In . SVG Version: 6.00 Build 0)  -->
<svg version="1.1" id="Layer_1" xmlns="http://www.w3.org/2000/svg" xmlns:xlink="http://www.w3.org/1999/xlink" x="0px" y="0px"
	 viewBox="0 0 105 105" style="enable-background:new 0 0 105 105;" xml:space="preserve">
<style type="text/css">
	.st0{fill:#B1B2B3;stroke:#FFFFFF;stroke-width:0.5;}
</style>
<title>NE</title>
<desc>Created with Sketch.</desc>
<g id="Map-countries">
	<g id="Artboard" transform="translate(-1316.000000, -1089.000000)">
		<polygon id="NE" class="st0" points="1329.3,1180.4 1329.5,1175.8 1321.8,1174.3 1321.6,1171 1317.9,1166.6 1317,1163.5 
			1317.5,1160.2 1321.8,1160 1324.2,1157.5 1333.2,1156.9 1339.1,1155.9 1339.7,1151.7 1343.3,1147.1 1343.3,1131.1 1352.6,1128 
			1371.8,1114.2 1394.5,1100.6 1404.9,1103.7 1408.7,1107.7 1413.3,1105 1415,1116 1417.5,1117.9 1417.6,1120.1 1420.3,1122.5 
			1418.9,1125.5 1416.3,1139.7 1416,1148.6 1407.5,1155.1 1404.7,1164.1 1407.4,1166.6 1407.4,1170.9 1411.7,1171.1 1411,1174.3 
			1409.1,1174.7 1408.9,1176.8 1407.7,1176.9 1403.2,1169.6 1401.7,1169.3 1396.5,1173 1391.4,1171.1 1387.8,1170.7 1385.9,1171.6 
			1382,1171.4 1378.1,1174.3 1374.7,1174.5 1366.7,1171 1363.6,1172.6 1360.2,1172.5 1357.7,1170 1351.1,1167.5 1344,1168.3 
			1342.2,1169.7 1341.3,1173.6 1339.4,1176.3 1339,1182.3 1333.9,1178.5 1331.5,1178.5 		"/>
	</g>
</g>
</svg>
