<?xml version="1.0" encoding="utf-8"?>
<!-- Generator: Adobe Illustrator 21.1.0, SVG Export Plug-In . SVG Version: 6.00 Build 0)  -->
<svg version="1.1" id="Layer_1" xmlns="http://www.w3.org/2000/svg" xmlns:xlink="http://www.w3.org/1999/xlink" x="0px" y="0px"
	 viewBox="0 0 80 80" style="enable-background:new 0 0 80 80;" xml:space="preserve">
<style type="text/css">
	.st0{fill:#B1B2B3;stroke:#FFFFFF;stroke-width:0.5;}
</style>
<title>NG</title>
<desc>Created with Sketch.</desc>
<g id="Map-countries">
	<g id="Artboard" transform="translate(-1332.000000, -1156.000000)">
		<polygon id="NG" class="st0" points="1371.3,1224.6 1364.5,1227 1361.9,1226.7 1359.4,1228.1 1354.1,1228 1350.5,1223.9 
			1348.4,1219.1 1343.7,1214.7 1338.7,1214.8 1332.9,1214.8 1333.2,1204.1 1333.1,1199.9 1334.3,1195.7 1336.4,1193.7 
			1339.6,1189.5 1338.9,1187.7 1340.2,1185 1338.7,1181.1 1339,1178.8 1339.4,1172.8 1341.3,1170.1 1342.2,1166.2 1344,1164.8 
			1351.1,1164 1357.7,1166.5 1360.2,1169 1363.6,1169.1 1366.7,1167.5 1374.7,1171 1378.1,1170.8 1382,1167.9 1385.9,1168.1 
			1387.8,1167.2 1391.4,1167.6 1396.5,1169.5 1401.7,1165.8 1403.2,1166.1 1407.7,1173.4 1408.9,1173.3 1411.6,1176 1410.8,1177.2 
			1410.5,1179.4 1404.9,1184.6 1403.1,1188.9 1402.2,1192.4 1400.8,1193.8 1399.5,1198.5 1395.9,1201.2 1394.9,1204.6 
			1393.4,1207.3 1392.8,1210 1388.3,1212.3 1384.5,1209.5 1382,1209.6 1378.1,1213.5 1376.2,1213.6 1373,1220 		"/>
	</g>
</g>
</svg>
