<?xml version="1.0" encoding="UTF-8"?>
<svg width="80px" height="66px" viewBox="0 0 80 66" version="1.1" xmlns="http://www.w3.org/2000/svg" xmlns:xlink="http://www.w3.org/1999/xlink">
    <!-- Generator: Sketch 43.2 (39069) - http://www.bohemiancoding.com/sketch -->
    <title>NG</title>
    <desc>Created with Sketch.</desc>
    <defs></defs>
    <g id="Map-countries" stroke="none" stroke-width="1" fill="none" fill-rule="evenodd">
        <g id="Artboard" transform="translate(-1332.000000, -1156.000000)" stroke-width="0.5" stroke="#FFFFFF" fill="#B1B2B3">
            <polygon id="NG" points="1371.32344 1217.63127 1364.45309 1219.99226 1361.92688 1219.66172 1359.37706 1221.12553 1354.08855 1220.98387 1350.54713 1216.85215 1348.37506 1212.08296 1343.67679 1207.73876 1338.6952 1207.80959 1332.86366 1207.80959 1333.24141 1197.11433 1333.07615 1192.88817 1334.32745 1188.70923 1336.35786 1186.65518 1339.56874 1182.52346 1338.88407 1180.72911 1340.18259 1178.03759 1338.6952 1174.07114 1338.9549 1171.8282 1339.40348 1165.83131 1341.31584 1163.11618 1342.23661 1159.22055 1343.9601 1157.75674 1351.06654 1156.95401 1357.7244 1159.48026 1360.20339 1162.03012 1363.57954 1162.14817 1366.7196 1160.49548 1374.7232 1163.98974 1378.09935 1163.82447 1381.9949 1160.94407 1385.89046 1161.13295 1387.80283 1160.18856 1391.36785 1160.58992 1396.4911 1162.54954 1401.66157 1158.77197 1403.21979 1159.05528 1407.68197 1166.44516 1408.93327 1166.27989 1411.55392 1168.97141 1410.82203 1170.17551 1410.46789 1172.41845 1404.89606 1177.61261 1403.14896 1181.88599 1402.20458 1185.35664 1400.81163 1186.84406 1399.46589 1191.49519 1395.92447 1194.23393 1394.90927 1197.58653 1393.42187 1200.27805 1392.80803 1203.01679 1388.25141 1205.25972 1384.54472 1202.54459 1382.01851 1202.63903 1378.07574 1206.51104 1376.16337 1206.58187 1373.02332 1212.95653"></polygon>
        </g>
    </g>
</svg>