<?xml version="1.0" encoding="UTF-8"?>
<svg width="31px" height="31px" viewBox="0 0 31 31" version="1.1" xmlns="http://www.w3.org/2000/svg" xmlns:xlink="http://www.w3.org/1999/xlink">
    <!-- Generator: Sketch 43.2 (39069) - http://www.bohemiancoding.com/sketch -->
    <title>NI</title>
    <desc>Created with Sketch.</desc>
    <defs></defs>
    <g id="Map-countries" stroke="none" stroke-width="1" fill="none" fill-rule="evenodd">
        <g id="Artboard" transform="translate(-734.000000, -1148.000000)" stroke-width="0.5" stroke="#FFFFFF" fill="#B1B2B3">
            <polygon id="NI" points="747.656526 1175.67661 745.36641 1173.55172 742.273574 1170.83659 740.809789 1168.57005 738.023875 1166.46877 734.694944 1163.4231 735.426837 1162.38427 736.53648 1163.39949 737.032279 1162.90369 739.0863 1162.64398 739.91263 1161.08573 740.880617 1161.03851 740.73896 1157.70952 742.297183 1157.54425 743.69014 1157.59147 745.106706 1155.79713 747.06629 1157.1665 747.750963 1156.31654 748.955045 1155.51381 751.26877 1153.64863 751.386817 1152.23204 752.024272 1152.30287 752.874211 1150.67379 753.558885 1150.48492 754.692138 1151.52375 756.014267 1151.83068 757.478052 1150.95711 759.154322 1150.95711 761.444437 1150.05994 762.365205 1149.13916 764.631711 1149.28081 764.065085 1149.94189 763.734553 1151.45292 764.395617 1153.93195 762.884613 1156.24571 762.17633 1158.96084 761.940236 1161.95929 762.317987 1163.68281 762.483253 1166.72848 761.468047 1167.38955 760.854201 1170.26995 761.302781 1172.04069 759.933433 1173.76421 760.263965 1175.55856 761.255562 1176.66822 759.67373 1178.08481 757.737756 1177.63622 756.628112 1176.26685 754.526872 1175.70022 753.015868 1176.57378 748.648122 1174.80304"></polygon>
        </g>
    </g>
</svg>