<?xml version="1.0" encoding="utf-8"?>
<!-- Generator: Adobe Illustrator 21.1.0, SVG Export Plug-In . SVG Version: 6.00 Build 0)  -->
<svg version="1.1" id="Layer_1" xmlns="http://www.w3.org/2000/svg" xmlns:xlink="http://www.w3.org/1999/xlink" x="0px" y="0px"
	 viewBox="0 0 31 31" style="enable-background:new 0 0 31 31;" xml:space="preserve">
<style type="text/css">
	.st0{fill:#B1B2B3;stroke:#FFFFFF;stroke-width:0.5;}
</style>
<title>NI</title>
<desc>Created with Sketch.</desc>
<g id="Map-countries">
	<g id="Artboard" transform="translate(-734.000000, -1148.000000)">
		<polygon id="NI" class="st0" points="747.7,1175.7 745.4,1173.6 742.3,1170.8 740.8,1168.6 738,1166.5 734.7,1163.4 735.4,1162.4 
			736.5,1163.4 737,1162.9 739.1,1162.6 739.9,1161.1 740.9,1161 740.7,1157.7 742.3,1157.5 743.7,1157.6 745.1,1155.8 
			747.1,1157.2 747.8,1156.3 749,1155.5 751.3,1153.6 751.4,1152.2 752,1152.3 752.9,1150.7 753.6,1150.5 754.7,1151.5 756,1151.8 
			757.5,1151 759.2,1151 761.4,1150.1 762.4,1149.1 764.6,1149.3 764.1,1149.9 763.7,1151.5 764.4,1153.9 762.9,1156.2 762.2,1159 
			761.9,1162 762.3,1163.7 762.5,1166.7 761.5,1167.4 760.9,1170.3 761.3,1172 759.9,1173.8 760.3,1175.6 761.3,1176.7 
			759.7,1178.1 757.7,1177.6 756.6,1176.3 754.5,1175.7 753,1176.6 748.6,1174.8 		"/>
	</g>
</g>
</svg>
