<?xml version="1.0" encoding="utf-8"?>
<!-- Generator: Adobe Illustrator 21.1.0, SVG Export Plug-In . SVG Version: 6.00 Build 0)  -->
<svg version="1.1" id="Layer_1" xmlns="http://www.w3.org/2000/svg" xmlns:xlink="http://www.w3.org/1999/xlink" x="0px" y="0px"
	 viewBox="0 0 208 208" style="enable-background:new 0 0 208 208;" xml:space="preserve">
<style type="text/css">
	.st0{fill:#B1B2B3;stroke:#FFFFFF;stroke-width:0.5;}
</style>
<title>NO</title>
<desc>Created with Sketch.</desc>
<g id="Map-countries">
	<g id="Artboard" transform="translate(-1347.000000, -569.000000)">
		<polygon id="NO" class="st0" points="1517.5,569.6 1538.2,584.3 1529.7,589.6 1536.9,601.7 1525.7,609.2 1520.3,610.9 
			1523.1,597.7 1514.6,590 1504.4,596.6 1501.1,610.4 1494.8,618.5 1487.7,614.1 1479.1,615 1471.7,605.2 1467.7,610.2 
			1463.6,610.9 1462.7,622.9 1450.2,620 1448.4,630 1442.1,629.9 1437.7,642.3 1431.1,660.9 1420.8,683.3 1423.3,688.6 
			1420.9,694.6 1414.4,694.3 1410.1,708.3 1410.5,727.3 1414.7,734.3 1412.5,750.2 1407,759.2 1404.1,766.6 1399.6,758.7 
			1386.6,773.5 1377.7,776.4 1368.6,770 1366.2,756.2 1364.1,724.9 1370.2,715.7 1387.7,703.5 1400.8,687.9 1412.9,666 
			1428.8,633.5 1439.9,620.1 1458.1,596.8 1472.6,588.3 1483.5,589.3 1493.6,572.8 1505.6,573.7 		"/>
	</g>
</g>
</svg>
