<?xml version="1.0" encoding="UTF-8"?>
<svg width="176px" height="208px" viewBox="0 0 176 208" version="1.1" xmlns="http://www.w3.org/2000/svg" xmlns:xlink="http://www.w3.org/1999/xlink">
    <!-- Generator: Sketch 43.2 (39069) - http://www.bohemiancoding.com/sketch -->
    <title>NO</title>
    <desc>Created with Sketch.</desc>
    <defs></defs>
    <g id="Map-countries" stroke="none" stroke-width="1" fill="none" fill-rule="evenodd">
        <g id="Artboard" transform="translate(-1347.000000, -569.000000)" stroke-width="0.5" stroke="#FFFFFF" fill="#B1B2B3">
            <polygon id="NO" points="1501.50588 569.612243 1522.21136 584.344777 1513.68835 589.60977 1520.93645 601.674393 1509.67474 609.205929 1504.33901 610.905837 1507.14853 597.707942 1498.64914 590.034747 1488.37903 596.59828 1485.12093 610.410031 1478.81721 618.531813 1471.71077 614.116774 1463.06971 615.013948 1455.70357 605.215868 1451.73718 610.150323 1447.62914 610.905837 1446.66115 622.899631 1434.19537 620.019232 1432.44827 629.982581 1426.09733 629.911751 1421.72959 642.283303 1415.11895 660.86424 1404.84884 683.293579 1407.257 688.558571 1404.94328 694.579078 1398.37985 694.31937 1394.08294 708.27278 1394.4843 727.255084 1398.71039 734.290814 1396.51471 750.18023 1391.01371 759.175576 1388.08614 766.612673 1383.64756 758.703379 1370.56794 773.506743 1361.73801 776.434363 1352.57754 770.036098 1350.2166 756.200737 1348.11536 724.894101 1354.2066 715.733487 1371.67758 703.503594 1384.75721 687.944716 1396.86885 665.987573 1412.78161 633.500445 1423.87805 620.113671 1442.08092 596.763548 1456.60073 588.287619 1467.48468 589.326452 1477.56591 572.82318 1489.63033 573.720353"></polygon>
        </g>
    </g>
</svg>