<?xml version="1.0" encoding="utf-8"?>
<!-- Generator: Adobe Illustrator 21.1.0, SVG Export Plug-In . SVG Version: 6.00 Build 0)  -->
<svg version="1.1" id="Layer_1" xmlns="http://www.w3.org/2000/svg" xmlns:xlink="http://www.w3.org/1999/xlink" x="0px" y="0px"
	 viewBox="0 0 108 108" style="enable-background:new 0 0 108 108;" xml:space="preserve">
<style type="text/css">
	.st0{fill:#B1B2B3;stroke:#FFFFFF;stroke-width:0.5;}
</style>
<title>NZ</title>
<desc>Created with Sketch.</desc>
<g id="Map-countries">
	<g id="Artboard" transform="translate(-2417.000000, -1490.000000)">
		<path id="NZ" class="st0" d="M2473.9,1544.7l1.5,3.6l4.7-3.5l1.9,3.7v3.7l-2.5,4.1l-4.3,6.6l-3.4,3.6l2.4,4.4l-5.1,0.1l-5.7,3.4
			l-1.8,6.1l-3.8,9.5l-5.2,4.2l-3.3,2.7l-6.1-0.2l-4.3-3.2l-7.2-0.7l-1.1-3.5l3.6-7l8.3-9.1l4.3-1.7l4.7-3.5l5.7-4.7l4-4.7l3-6.6
			l2.5-2.2l1-4.9l4.7-4L2473.9,1544.7L2473.9,1544.7z M2484.4,1504.6l4.8,8.7l0.1-5.6l3,2.2l1,6.3l5.3,2.7l4.5,0.7l3.8-3.2l3.4,1
			l-1.6,7.4l-2,4.9l-5.1-0.2l-1.8,2.6l0.6,3.7l-1,1.6l-2.5,4.7l-3.3,6l-5.1,3.5l-1.1-2.3l-2.8-1.3l3.8-7.2l-2.2-4.7l-7.1-3.4
			l0.2-3.1l4.8-3l1.1-6.5l-0.3-5.4l-2.7-5.5l0.2-1.4l-3.2-3.4l-5.2-7.2l-2.8-5.7l2.5-0.6l3.6,4.5l5.1,2.1L2484.4,1504.6
			L2484.4,1504.6z"/>
	</g>
</g>
</svg>
