<?xml version="1.0" encoding="UTF-8"?>
<svg width="81px" height="108px" viewBox="0 0 81 108" version="1.1" xmlns="http://www.w3.org/2000/svg" xmlns:xlink="http://www.w3.org/1999/xlink">
    <!-- Generator: Sketch 43.2 (39069) - http://www.bohemiancoding.com/sketch -->
    <title>NZ</title>
    <desc>Created with Sketch.</desc>
    <defs></defs>
    <g id="Map-countries" stroke="none" stroke-width="1" fill="none" fill-rule="evenodd">
        <g id="Artboard" transform="translate(-2417.000000, -1490.000000)" stroke="#FFFFFF" stroke-width="0.5" fill="#B1B2B3">
            <path d="M2460.4032,1544.74548 L2461.91421,1548.35779 L2466.61248,1544.81631 L2468.52485,1548.52306 L2468.52485,1552.2298 L2466.06947,1556.33791 L2461.74894,1562.94866 L2458.37279,1566.58458 L2460.80456,1570.97601 L2455.70492,1571.09406 L2450.03866,1574.54109 L2448.26795,1580.60882 L2444.51405,1590.12358 L2439.31997,1594.37335 L2436.01465,1597.11209 L2429.92342,1596.8996 L2425.6265,1593.73588 L2418.42562,1593.07481 L2417.31598,1589.58055 L2420.881,1582.59204 L2429.21513,1573.45504 L2433.48844,1571.73152 L2438.23394,1568.26088 L2443.9002,1563.5153 L2447.86659,1558.84055 L2450.81777,1552.20619 L2453.32037,1549.96326 L2454.31197,1545.07602 L2458.96303,1541.06235 L2460.4032,1544.74548 L2460.4032,1544.74548 Z M2470.93301,1504.56155 L2475.72573,1513.22636 L2475.86738,1507.60722 L2478.86578,1509.85015 L2479.85738,1516.10676 L2485.19311,1518.82189 L2489.65529,1519.48296 L2493.4328,1516.29564 L2496.78535,1517.26364 L2495.1799,1524.70074 L2493.1731,1529.63519 L2488.12068,1529.46992 L2486.34997,1532.067 L2486.96382,1535.75014 L2485.99583,1537.35561 L2483.49323,1542.00674 L2480.21152,1547.98003 L2475.08827,1551.4979 L2473.95502,1549.18413 L2471.19271,1547.9092 L2475.01744,1540.73181 L2472.84537,1535.98624 L2465.71532,1532.56281 L2465.9042,1529.46992 L2470.69692,1526.51869 L2471.80656,1520.0496 L2471.49964,1514.66656 L2468.80816,1509.14186 L2468.99704,1507.70166 L2465.83337,1504.32545 L2460.61569,1497.14806 L2457.85338,1491.4581 L2460.30876,1490.82063 L2463.92101,1495.28289 L2469.06786,1497.38416 L2470.93301,1504.56155 L2470.93301,1504.56155 Z" id="NZ"></path>
        </g>
    </g>
</svg>