<?xml version="1.0" encoding="utf-8"?>
<!-- Generator: Adobe Illustrator 21.1.0, SVG Export Plug-In . SVG Version: 6.00 Build 0)  -->
<svg version="1.1" id="Layer_1" xmlns="http://www.w3.org/2000/svg" xmlns:xlink="http://www.w3.org/1999/xlink" x="0px" y="0px"
	 viewBox="0 0 71 71" style="enable-background:new 0 0 71 71;" xml:space="preserve">
<style type="text/css">
	.st0{fill:#B1B2B3;stroke:#FFFFFF;stroke-width:0.5;}
</style>
<title>OM</title>
<desc>Created with Sketch.</desc>
<g id="Map-countries">
	<g id="Artboard" transform="translate(-1658.000000, -1068.000000)">
		<path id="OM" class="st0" d="M1713.2,1106.9l-2.5,4.8l-3-0.4l-1.4,1.7l-1.1,3.5l0.8,4.7l-0.6,0.8l-3,0l-4.1,2.6l-0.6,3.4l-1.5,1.5
			l-4.1,0l-2.6,1.7l0,2.8l-3.2,1.9l-3.7-0.6l-4.4,2.3l-3.1,0.4l-2.2-4.8l-5.2-11.4l19.9-7l4.4-14.1l-3-5.1l0.2-2.9l1.9-3l0-3l3-1.4
			l-1.2-1l0.5-4.7l3.4,0l3,4.9l3.7,2.6l4.9,0.9l3.9,1.3l3,4.1l1.8,2.4l2.4,0.9l0,1.6l-2.4,4.2l-1.1,2L1713.2,1106.9L1713.2,1106.9z
			 M1696.9,1072.6l-0.9,1.3l-1.3-2.5l1.9-2.5l0.8,0.6L1696.9,1072.6L1696.9,1072.6z"/>
	</g>
</g>
</svg>
