<?xml version="1.0" encoding="UTF-8"?>
<svg width="54px" height="71px" viewBox="0 0 54 71" version="1.1" xmlns="http://www.w3.org/2000/svg" xmlns:xlink="http://www.w3.org/1999/xlink">
    <!-- Generator: Sketch 43.2 (39069) - http://www.bohemiancoding.com/sketch -->
    <title>OM</title>
    <desc>Created with Sketch.</desc>
    <defs></defs>
    <g id="Map-countries" stroke="none" stroke-width="1" fill="none" fill-rule="evenodd">
        <g id="Artboard" transform="translate(-1658.000000, -1068.000000)" stroke="#FFFFFF" stroke-width="0.5" fill="#B1B2B3">
            <path d="M1704.6887,1106.90117 L1702.20971,1111.71757 L1699.21131,1111.33982 L1697.84197,1113.01611 L1696.77954,1116.55759 L1697.58226,1121.23233 L1696.96842,1122.08229 L1693.9228,1122.05868 L1689.79115,1124.65576 L1689.15369,1128.03197 L1687.64269,1129.49578 L1683.53465,1129.44856 L1680.93761,1131.19568 L1680.96122,1133.98164 L1677.75033,1135.89404 L1674.09087,1135.25657 L1669.6523,1137.57034 L1666.58307,1137.9481 L1664.411,1133.13169 L1659.24053,1121.70453 L1679.09607,1114.71602 L1683.51104,1100.62095 L1680.46542,1095.56845 L1680.63068,1092.68805 L1682.56666,1089.71321 L1682.59027,1086.76198 L1685.58867,1085.34539 L1684.40819,1084.35378 L1684.95121,1079.63181 L1688.32736,1079.6082 L1691.30215,1084.54266 L1695.00883,1087.16335 L1699.87238,1088.10774 L1703.79154,1089.40628 L1706.78994,1093.51439 L1708.58426,1095.87538 L1710.9452,1096.77255 L1710.92159,1098.35441 L1708.51343,1102.58057 L1707.45101,1104.56379 L1704.6887,1106.90117 L1704.6887,1106.90117 Z M1688.35097,1072.57247 L1687.47742,1073.89462 L1686.22612,1071.39198 L1688.1621,1068.88934 L1688.98843,1069.5268 L1688.35097,1072.57247 L1688.35097,1072.57247 Z" id="OM"></path>
        </g>
    </g>
</svg>