<?xml version="1.0" encoding="utf-8"?>
<!-- Generator: Adobe Illustrator 21.1.0, SVG Export Plug-In . SVG Version: 6.00 Build 0)  -->
<svg version="1.1" id="Layer_1" xmlns="http://www.w3.org/2000/svg" xmlns:xlink="http://www.w3.org/1999/xlink" x="0px" y="0px"
	 viewBox="0 0 39 39" style="enable-background:new 0 0 39 39;" xml:space="preserve">
<style type="text/css">
	.st0{fill:#B1B2B3;stroke:#FFFFFF;stroke-width:0.5;}
</style>
<title>PA</title>
<desc>Created with Sketch.</desc>
<g id="Map-countries">
	<g id="Artboard" transform="translate(-765.000000, -1185.000000)">
		<polygon id="PA" class="st0" points="799.5,1212.4 797.3,1210.5 795.9,1206.9 797.5,1205.1 795.8,1204.7 794.6,1202.5 
			791.3,1200.7 788.4,1201.1 787.1,1203.4 784.4,1205 782.9,1205.3 782.3,1206.7 785.4,1210.3 783.6,1211.1 782.7,1212.1 
			779.6,1212.4 778.4,1208.5 777.6,1209.6 775.4,1209.2 774.1,1206.5 771.4,1206.1 769.6,1205.3 766.8,1205.3 766.6,1206.8 
			765.8,1205.8 766.2,1204.5 766.7,1203.1 766.5,1201.9 767.5,1201.1 766.1,1200.1 766,1197.4 768.6,1196.9 771,1199.2 
			770.8,1200.7 773.5,1200.9 774.1,1200.4 775.9,1202 779.2,1201.6 782,1199.9 786,1198.5 788.3,1196.5 791.9,1196.9 791.7,1197.6 
			795.4,1197.8 798.3,1199 800.5,1201 803,1202.8 802.2,1203.8 803.7,1207.7 802.5,1209.7 800.3,1209.2 		"/>
	</g>
</g>
</svg>
