<?xml version="1.0" encoding="UTF-8"?>
<svg width="39px" height="17px" viewBox="0 0 39 17" version="1.1" xmlns="http://www.w3.org/2000/svg" xmlns:xlink="http://www.w3.org/1999/xlink">
    <!-- Generator: Sketch 43.2 (39069) - http://www.bohemiancoding.com/sketch -->
    <title>PA</title>
    <desc>Created with Sketch.</desc>
    <defs></defs>
    <g id="Map-countries" stroke="none" stroke-width="1" fill="none" fill-rule="evenodd">
        <g id="Artboard" transform="translate(-765.000000, -1185.000000)" stroke-width="0.5" stroke="#FFFFFF" fill="#B1B2B3">
            <polygon id="PA" points="799.479242 1201.41132 797.283564 1199.49892 795.866998 1195.91023 797.496049 1194.13949 795.819779 1193.69091 794.592088 1191.49519 791.286767 1189.65363 788.382806 1190.0786 787.060678 1192.39237 784.369202 1194.04505 782.929026 1194.28115 782.291571 1195.67413 785.431626 1199.26283 783.637309 1200.11278 782.669322 1201.10439 779.600095 1201.43493 778.443233 1197.46848 777.593293 1198.60175 775.397615 1198.22399 774.075487 1195.53247 771.360401 1195.1075 769.636912 1194.32837 766.80378 1194.32837 766.591295 1195.76857 765.835793 1194.77696 766.189934 1193.45481 766.732951 1192.10905 766.473248 1190.90495 767.464844 1190.10221 766.095497 1189.1106 766.048278 1186.44269 768.621706 1185.85244 770.98265 1188.23704 770.840994 1189.65363 773.485251 1189.93694 774.122706 1189.39392 775.940632 1191.04661 779.198735 1190.5508 782.008258 1188.8745 786.021862 1187.52874 788.288368 1185.54551 791.947831 1185.92327 791.688127 1186.58435 795.394809 1186.82045 798.345989 1187.97733 800.494448 1189.96055 802.997048 1191.80212 802.194327 1192.79373 803.728941 1196.68935 802.47764 1198.67258 800.329182 1198.20038"></polygon>
        </g>
    </g>
</svg>