<?xml version="1.0" encoding="UTF-8"?>
<svg width="86px" height="124px" viewBox="0 0 86 124" version="1.1" xmlns="http://www.w3.org/2000/svg" xmlns:xlink="http://www.w3.org/1999/xlink">
    <!-- Generator: Sketch 43.2 (39069) - http://www.bohemiancoding.com/sketch -->
    <title>PE</title>
    <desc>Created with Sketch.</desc>
    <defs></defs>
    <g id="Map-countries" stroke="none" stroke-width="1" fill="none" fill-rule="evenodd">
        <g id="Artboard" transform="translate(-775.000000, -1249.000000)" stroke-width="0.5" stroke="#FFFFFF" fill="#B1B2B3">
            <polygon id="PE" points="854.371185 1366.51487 852.600477 1370.07995 849.200718 1371.82708 842.566466 1367.86063 841.97623 1365.02745 828.872992 1358.13338 816.997445 1350.64906 811.874197 1346.44651 809.135502 1340.85098 810.221536 1338.89137 804.626099 1330.03768 798.086285 1317.66613 791.853393 1304.3974 789.138308 1301.35174 787.060678 1296.48811 781.91382 1292.1439 777.191932 1289.47599 779.340391 1286.52476 776.129508 1280.22094 778.183529 1275.61702 783.472043 1271.43808 784.251154 1274.20043 782.362399 1275.75868 782.527665 1278.16688 785.26636 1277.64747 787.957836 1278.35576 790.72014 1281.68475 794.474041 1278.96962 795.725341 1274.53097 799.786165 1268.79378 807.742545 1266.1967 814.967033 1259.30263 817.021054 1255.02925 816.100286 1250.04757 817.870994 1249.41011 822.262349 1252.52661 824.363589 1255.6431 827.432816 1257.34301 831.328374 1264.23708 836.262746 1265.06343 839.922209 1263.3163 842.306762 1264.44957 846.273148 1263.88293 851.349177 1266.97582 847.075869 1273.68101 849.059062 1273.82267 852.364383 1277.34054 846.391195 1277.03361 845.517646 1278.02522 840.087475 1279.27654 832.532455 1283.78602 832.036657 1286.8553 830.360387 1289.16906 831.021451 1292.73415 827.007847 1294.64654 827.007847 1297.45611 825.260748 1298.66022 828.023052 1304.6335 831.706125 1308.69439 830.313168 1311.55118 834.704523 1311.92894 837.207124 1315.49402 843.038655 1315.65929 848.468826 1311.74006 848.020246 1321.89229 851.042254 1322.67141 854.772546 1321.51453 860.509639 1332.32783 859.069463 1334.59438 858.762541 1339.36356 858.620884 1345.12436 856.023846 1348.52418 857.227927 1351.05043 855.693314 1353.34058 858.550056 1359.10138"></polygon>
        </g>
    </g>
</svg>