<?xml version="1.0" encoding="utf-8"?>
<!-- Generator: Adobe Illustrator 21.1.0, SVG Export Plug-In . SVG Version: 6.00 Build 0)  -->
<svg version="1.1" id="Layer_1" xmlns="http://www.w3.org/2000/svg" xmlns:xlink="http://www.w3.org/1999/xlink" x="0px" y="0px"
	 viewBox="0 0 124 124" style="enable-background:new 0 0 124 124;" xml:space="preserve">
<style type="text/css">
	.st0{fill:#B1B2B3;stroke:#FFFFFF;stroke-width:0.5;}
</style>
<title>PE</title>
<desc>Created with Sketch.</desc>
<g id="Map-countries">
	<g id="Artboard" transform="translate(-775.000000, -1249.000000)">
		<polygon id="PE" class="st0" points="873.4,1366.5 871.6,1370.1 868.2,1371.8 861.6,1367.9 861,1365 847.9,1358.1 836,1350.6 
			830.9,1346.4 828.1,1340.9 829.2,1338.9 823.6,1330 817.1,1317.7 810.9,1304.4 808.1,1301.4 806.1,1296.5 800.9,1292.1 
			796.2,1289.5 798.3,1286.5 795.1,1280.2 797.2,1275.6 802.5,1271.4 803.3,1274.2 801.4,1275.8 801.5,1278.2 804.3,1277.6 
			807,1278.4 809.7,1281.7 813.5,1279 814.7,1274.5 818.8,1268.8 826.7,1266.2 834,1259.3 836,1255 835.1,1250 836.9,1249.4 
			841.3,1252.5 843.4,1255.6 846.4,1257.3 850.3,1264.2 855.3,1265.1 858.9,1263.3 861.3,1264.4 865.3,1263.9 870.3,1267 
			866.1,1273.7 868.1,1273.8 871.4,1277.3 865.4,1277 864.5,1278 859.1,1279.3 851.5,1283.8 851,1286.9 849.4,1289.2 850,1292.7 
			846,1294.6 846,1297.5 844.3,1298.7 847,1304.6 850.7,1308.7 849.3,1311.6 853.7,1311.9 856.2,1315.5 862,1315.7 867.5,1311.7 
			867,1321.9 870,1322.7 873.8,1321.5 879.5,1332.3 878.1,1334.6 877.8,1339.4 877.6,1345.1 875,1348.5 876.2,1351.1 874.7,1353.3 
			877.6,1359.1 		"/>
	</g>
</g>
</svg>
