<?xml version="1.0" encoding="UTF-8"?>
<svg width="101px" height="55px" viewBox="0 0 101 55" version="1.1" xmlns="http://www.w3.org/2000/svg" xmlns:xlink="http://www.w3.org/1999/xlink">
    <!-- Generator: Sketch 43.2 (39069) - http://www.bohemiancoding.com/sketch -->
    <title>PG</title>
    <desc>Created with Sketch.</desc>
    <defs></defs>
    <g id="Map-countries" stroke="none" stroke-width="1" fill="none" fill-rule="evenodd">
        <g id="Artboard" transform="translate(-2248.000000, -1265.000000)" stroke="#FFFFFF" stroke-width="0.5" fill="#B1B2B3">
            <path d="M2346.93624,1293.98547 L2345.0711,1294.64654 L2342.21435,1292.09668 L2339.31039,1287.89413 L2337.89383,1282.86524 L2338.8146,1282.22777 L2339.52288,1284.18739 L2341.52968,1285.67481 L2344.74056,1289.85375 L2347.85701,1292.09668 L2346.93624,1293.98547 L2346.93624,1293.98547 Z M2321.13113,1285.13178 L2317.66054,1285.67481 L2316.62172,1287.53998 L2313.00948,1289.14545 L2309.60972,1290.7037 L2306.09191,1290.7037 L2300.66174,1288.79131 L2296.88423,1286.94974 L2297.42725,1284.89568 L2303.35322,1285.86369 L2306.96546,1285.34427 L2307.95706,1282.18055 L2308.90144,1282.01528 L2309.53889,1285.53315 L2313.3164,1285.03734 L2315.18155,1282.7708 L2318.88823,1280.40982 L2318.15634,1276.51419 L2322.12272,1276.39614 L2323.46846,1277.4822 L2323.3268,1281.14172 L2321.13113,1285.13178 L2321.13113,1285.13178 Z M2289.42365,1297.76304 L2295.32601,1302.10725 L2299.62293,1309.16659 L2303.42405,1308.9541 L2303.16434,1311.90533 L2308.28759,1313.0386 L2306.3044,1314.28992 L2313.34001,1317.09949 L2312.60812,1319.0355 L2308.21676,1319.5077 L2306.58771,1317.78418 L2300.89784,1317.02866 L2294.21637,1316.01344 L2289.06951,1311.76367 L2285.31561,1308.10415 L2281.86863,1302.29613 L2273.22758,1299.39212 L2267.60853,1301.28091 L2263.57132,1303.47662 L2264.42126,1308.38747 L2259.22718,1310.67762 L2255.5205,1309.56796 L2248.67376,1309.28464 L2248.55571,1287.65803 L2248.43767,1266.17309 L2259.93546,1270.70618 L2272.16515,1274.48375 L2276.72177,1277.85995 L2280.40485,1281.18894 L2281.42005,1285.08456 L2292.44566,1289.16906 L2294.0511,1292.68693 L2287.95987,1293.39522 L2289.42365,1297.76304 L2289.42365,1297.76304 Z M2328.78058,1278.66269 L2326.70295,1280.40982 L2325.45165,1276.51419 L2323.91704,1273.96433 L2320.91864,1271.81584 L2317.14113,1269.00627 L2312.37203,1267.07026 L2314.21356,1265.4884 L2317.77859,1267.32997 L2320.02148,1268.77017 L2322.8074,1270.35203 L2325.45165,1273.11438 L2327.97786,1275.21565 L2328.78058,1278.66269 L2328.78058,1278.66269 Z" id="PG"></path>
        </g>
    </g>
</svg>