<?xml version="1.0" encoding="utf-8"?>
<!-- Generator: Adobe Illustrator 21.1.0, SVG Export Plug-In . SVG Version: 6.00 Build 0)  -->
<svg version="1.1" id="Layer_1" xmlns="http://www.w3.org/2000/svg" xmlns:xlink="http://www.w3.org/1999/xlink" x="0px" y="0px"
	 viewBox="0 0 101 101" style="enable-background:new 0 0 101 101;" xml:space="preserve">
<style type="text/css">
	.st0{fill:#B1B2B3;stroke:#FFFFFF;stroke-width:0.5;}
</style>
<title>PG</title>
<desc>Created with Sketch.</desc>
<g id="Map-countries">
	<g id="Artboard" transform="translate(-2248.000000, -1265.000000)">
		<path id="PG" class="st0" d="M2346.9,1317l-1.9,0.7l-2.9-2.5l-2.9-4.2l-1.4-5l0.9-0.6l0.7,2l2,1.5l3.2,4.2l3.1,2.2L2346.9,1317
			L2346.9,1317z M2321.1,1308.1l-3.5,0.5l-1,1.9l-3.6,1.6l-3.4,1.6h-3.5l-5.4-1.9l-3.8-1.8l0.5-2.1l5.9,1l3.6-0.5l1-3.2l0.9-0.2
			l0.6,3.5l3.8-0.5l1.9-2.3l3.7-2.4l-0.7-3.9l4-0.1l1.3,1.1l-0.1,3.7L2321.1,1308.1L2321.1,1308.1z M2289.4,1320.8l5.9,4.3l4.3,7.1
			l3.8-0.2l-0.3,3l5.1,1.1l-2,1.3l7,2.8l-0.7,1.9l-4.4,0.5l-1.6-1.7l-5.7-0.8l-6.7-1l-5.1-4.2l-3.8-3.7l-3.4-5.8l-8.6-2.9l-5.6,1.9
			l-4,2.2l0.8,4.9l-5.2,2.3l-3.7-1.1l-6.8-0.3l-0.1-21.6l-0.1-21.5l11.5,4.5l12.2,3.8l4.6,3.4l3.7,3.3l1,3.9l11,4.1l1.6,3.5
			l-6.1,0.7L2289.4,1320.8L2289.4,1320.8z M2328.8,1301.7l-2.1,1.7l-1.3-3.9l-1.5-2.5l-3-2.1l-3.8-2.8l-4.8-1.9l1.8-1.6l3.6,1.8
			l2.2,1.4l2.8,1.6l2.6,2.8l2.5,2.1L2328.8,1301.7L2328.8,1301.7z"/>
	</g>
</g>
</svg>
