<?xml version="1.0" encoding="utf-8"?>
<!-- Generator: Adobe Illustrator 21.1.0, SVG Export Plug-In . SVG Version: 6.00 Build 0)  -->
<svg version="1.1" id="Layer_1" xmlns="http://www.w3.org/2000/svg" xmlns:xlink="http://www.w3.org/1999/xlink" x="0px" y="0px"
	 viewBox="0 0 89 89" style="enable-background:new 0 0 89 89;" xml:space="preserve">
<style type="text/css">
	.st0{fill:#B1B2B3;stroke:#FFFFFF;stroke-width:0.5;}
</style>
<title>PH</title>
<desc>Created with Sketch.</desc>
<g id="Map-countries">
	<g id="Artboard" transform="translate(-2090.000000, -1124.000000)">
		<path id="PH" class="st0" d="M2164.6,1193.5l0.7,4.4l0.4,3.7l-2.3,6.1l-2.4-6.8l-3.1,3.4l2.1,4.9l-1.9,3.1l-7.8-3.8l-1.9-4.8
			l2-3.1l-4.2-3.1l-2.1,2.8l-3.1-0.3l-4.9,3.7l-1.1-1.9l2.6-5.6l4.2-1.9l3.6-2.5l2.3,3l5-1.8l1.1-3l4.7-0.2l-0.4-5.1l5.4,3.2
			l0.6,3.4L2164.6,1193.5L2164.6,1193.5z M2148.8,1181.1l-2.4,2.2l-2.1,4.2l-2.1,2l-4.1-4.6l1.4-1.8l1.7-1.9l0.7-4.2l3.7-0.4
			l-1.1,4.5l4.9-6.5L2148.8,1181.1L2148.8,1181.1z M2112.5,1187.5l-8.8,6.3l3.3-4.7l4.8-4.1l4-4.6l3.5-6.7l1.2,5.5l-4.4,3.7
			L2112.5,1187.5L2112.5,1187.5z M2134.9,1170.3l4,2.1h4.2l-0.1,2.8l-3.1,2.8l-4.2,2l-0.2-3.1l0.5-3.4L2134.9,1170.3L2134.9,1170.3z
			 M2158.8,1168.5l1.9,7.5l-5.1-1.8l0.1,2.2l1.6,4.1l-3.1,1.5l-0.3-4.7l-2-0.4l-1-4.1l3.9,0.5l-0.1-2.5l-4-5.1l6.4,0.1
			L2158.8,1168.5L2158.8,1168.5z M2132.5,1162.3l-1.7,5.8l-2.8-3.4l-3.4-5.1l5.7,0.2L2132.5,1162.3L2132.5,1162.3z M2131.2,1125.2
			l4.1,2l2-1.8l0.6,1.8l-1.1,2.9l2.3,4.9l-1.7,5.7l-3.9,2.3l-1,5.5l1.5,5.4l3.5,0.8l2.9-0.8l8.3,3.8l-0.6,3.7l2.2,1.6l-0.7,3.1
			l-5.1-3.3l-2.5-3.5l-1.7,2.5l-4.2-4.1l-6,1l-3.3-1.5l0.3-2.8l2.1-1.7l-2-1.6l-0.8,2.5l-3.3-3.9l-1-3l-0.2-6.5l2.7,2.3l0.7-10.7
			l2.1-6.3L2131.2,1125.2L2131.2,1125.2z"/>
	</g>
</g>
</svg>
