<?xml version="1.0" encoding="UTF-8"?>
<svg width="63px" height="89px" viewBox="0 0 63 89" version="1.1" xmlns="http://www.w3.org/2000/svg" xmlns:xlink="http://www.w3.org/1999/xlink">
    <!-- Generator: Sketch 43.2 (39069) - http://www.bohemiancoding.com/sketch -->
    <title>PH</title>
    <desc>Created with Sketch.</desc>
    <defs></defs>
    <g id="Map-countries" stroke="none" stroke-width="1" fill="none" fill-rule="evenodd">
        <g id="Artboard" transform="translate(-2090.000000, -1124.000000)" stroke="#FFFFFF" stroke-width="0.5" fill="#B1B2B3">
            <path d="M2151.61536,1193.50203 L2152.30004,1197.91707 L2152.7014,1201.64742 L2150.43489,1207.71515 L2148.02673,1200.96273 L2144.93389,1204.31533 L2147.05874,1209.17896 L2145.16999,1212.27184 L2137.37887,1208.42344 L2135.51373,1203.63065 L2137.54414,1200.49054 L2133.34166,1197.35043 L2131.26403,1200.11278 L2128.14758,1199.85307 L2123.23682,1203.55982 L2122.15078,1201.62381 L2124.74782,1196.02828 L2128.92669,1194.1631 L2132.53894,1191.66046 L2134.87627,1194.65891 L2139.90508,1192.84095 L2140.99112,1189.86611 L2145.66578,1189.67724 L2145.26442,1184.53029 L2150.62377,1187.69401 L2151.19039,1191.04661 L2151.61536,1193.50203 L2151.61536,1193.50203 Z M2135.77343,1181.08326 L2133.38888,1183.27897 L2131.31125,1187.50513 L2129.23362,1189.48836 L2125.14918,1184.88444 L2126.51853,1183.09009 L2128.17119,1181.22492 L2128.90308,1177.06959 L2132.56255,1176.66822 L2131.50012,1181.1777 L2136.41088,1174.7086 L2135.77343,1181.08326 L2135.77343,1181.08326 Z M2099.50933,1187.50513 L2090.70301,1193.80896 L2093.96111,1189.15782 L2098.75383,1185.04971 L2102.72022,1180.42218 L2106.1908,1173.76421 L2107.37128,1179.21808 L2103.00353,1182.90121 L2099.50933,1187.50513 L2099.50933,1187.50513 Z M2121.89108,1170.26995 L2125.85747,1172.34762 L2130.05995,1172.34762 L2129.9419,1175.15719 L2126.87267,1177.99037 L2122.67019,1179.9972 L2122.4341,1176.88071 L2122.90629,1173.45728 L2121.89108,1170.26995 L2121.89108,1170.26995 Z M2145.83105,1168.452 L2147.6962,1175.95992 L2142.59656,1174.18919 L2142.73821,1176.43212 L2144.36726,1180.56384 L2141.22721,1182.05126 L2140.9439,1177.3529 L2138.9607,1176.99876 L2137.92189,1172.93786 L2141.81745,1173.48089 L2141.72301,1170.93103 L2137.68579,1165.78409 L2144.03673,1165.92575 L2145.83105,1168.452 L2145.83105,1168.452 Z M2119.53014,1162.33705 L2117.78304,1168.16868 L2114.94991,1164.81608 L2111.57376,1159.66914 L2117.24002,1159.90524 L2119.53014,1162.33705 L2119.53014,1162.33705 Z M2118.16079,1125.17518 L2122.24522,1127.1584 L2124.27563,1125.36406 L2124.86587,1127.13479 L2123.77983,1130.01519 L2126.04634,1134.94965 L2124.29924,1140.66323 L2120.40369,1142.92977 L2119.36487,1148.43086 L2120.85226,1153.83751 L2124.37007,1154.59303 L2127.29764,1153.79029 L2135.56094,1157.54425 L2134.92349,1161.22739 L2137.09556,1162.85647 L2136.41088,1165.97296 L2131.26403,1162.66759 L2128.80865,1159.12611 L2127.10877,1161.60515 L2122.88268,1157.54425 L2116.86227,1158.53587 L2113.55695,1157.04845 L2113.88748,1154.23888 L2115.96511,1152.51536 L2113.98192,1150.9335 L2113.13198,1153.38892 L2109.87388,1149.4933 L2108.88228,1146.51846 L2108.64619,1139.97854 L2111.31405,1142.24508 L2111.99873,1131.50261 L2114.14718,1125.2224 L2118.16079,1125.17518 L2118.16079,1125.17518 Z" id="PH"></path>
        </g>
    </g>
</svg>