<?xml version="1.0" encoding="utf-8"?>
<!-- Generator: Adobe Illustrator 21.1.0, SVG Export Plug-In . SVG Version: 6.00 Build 0)  -->
<svg version="1.1" id="Layer_1" xmlns="http://www.w3.org/2000/svg" xmlns:xlink="http://www.w3.org/1999/xlink" x="0px" y="0px"
	 viewBox="0 0 112 112" style="enable-background:new 0 0 112 112;" xml:space="preserve">
<style type="text/css">
	.st0{fill:none;}
	.st1{fill:#B1B2B3;}
</style>
<title>philippines-outline</title>
<desc>Created with Sketch.</desc>
<g id="_x30_1-Dashboard-_x28_START-HERE_x29_">
	<g id="Home" transform="translate(-88.000000, -151.000000)">
		<g id="Country-Overview" transform="translate(15.000000, 137.000000)">
			<g id="philippines-outline" transform="translate(65.000000, 11.000000)">
				<rect id="container" x="23.5" class="st0" width="80" height="115"/>
				<g id="Layer_1_1_" transform="translate(7.000000, 3.000000)">
					<polygon id="PH-SUR" class="st1" points="84.9,78.7 85.2,78.9 84.7,79.1 85.1,79.5 85.3,79.2 85.2,79.4 85.5,80.1 85.8,80.3 
						86.2,80.2 86.6,79.8 86.8,79.8 86.5,81.2 86.7,81.4 86.7,81.3 87.4,82.2 87.3,82.4 87.6,82.4 87.4,82.7 87.6,83 87.5,83 
						87.6,83.1 87.4,83.3 87.1,83.4 86.8,83.7 86.8,83.8 87,83.9 86.6,83.9 86.1,84.3 85.9,84.5 86.2,84.7 86.1,84.8 86.3,85.1 
						86.8,85.1 86.6,84.9 86.8,84.8 87.3,85 87.8,84.9 87.8,85.1 88,85.1 88,85.4 87.8,85.4 87.7,85.7 87.9,85.7 87.9,85.8 
						87.7,86.1 87.4,86.2 87.5,86.5 87.9,86.7 87.4,87.1 87.6,87.4 88.4,87 88.2,87.9 88.3,88 88,88.6 88.1,88.7 88.3,88.7 87.9,89 
						87.7,89.3 87.7,89.3 87.7,88.7 87.7,88.7 87.7,88.3 87.4,88.2 87.8,87.8 87.3,87.8 86.7,87.4 86.8,87.1 87.3,86.7 87.2,86.3 
						87.2,85.9 87.1,86.1 86.6,86.1 86,86 85.7,85.8 86.1,85.4 85.6,85.4 85.5,84.7 85.3,84.6 85.3,84.2 85.4,84 85,83 84.7,82.6 
						84.6,81.5 83.8,80.4 83.8,80.4 83.8,79.8 83.8,79.8 84.9,78.6 84.9,78.6 84.9,78.7 					"/>
					<polygon id="PH-TAR" class="st1" points="49.2,35.2 49.5,36.4 49.8,36.7 50.2,36.8 50,37.2 50.3,38.1 50.1,38.6 50.4,38.8 
						50.3,39.1 50.3,39.1 50.1,39.1 50.1,39 49.8,39.2 49.6,39 49,39.1 47.6,39.8 47.6,39.8 47.1,38.9 46.2,38.4 46.4,37.4 46.6,37 
						46.9,36.8 46.8,36.7 46.8,36.7 47.3,36.5 47.3,36.3 47.8,35.6 48.4,35.9 48.9,35.6 49.1,34.8 					"/>
					<path id="PH-TAW" class="st1" d="M41.2,110.4l-0.1,0.2l-0.2-0.2l0.2-0.3L41.2,110.4L41.2,110.4z M44,110l0.3,0.2h-0.4L44,110
						L44,110z M41.5,109.4l0.3,1l-0.3,0.8L41.5,109.4z M43.8,109.3l0.3,0.2v0.2h-0.3L43.8,109.3L43.8,109.3z M45.2,108.8l-0.1,0.3
						H45v-0.3H45.2z M43.6,108.6v0.1h-0.2v-0.1H43.6z M45.9,108.6l0.1,0.2l-0.2-0.2L45.9,108.6z M46.6,108.6h-0.3l0.2-0.1
						L46.6,108.6z M43.8,108v0.4l-0.5,0.2l0.2-0.4L43.8,108z M47.2,108v0.2H47L47.2,108z M47.4,107.8l-0.1,0.2h-0.1v-0.2L47.4,107.8
						z M47.2,107.5l-0.2,0.1l-0.2-0.1l0.1-0.5l0.3,0.2L47.2,107.5L47.2,107.5z M47.5,107.1l-0.1,0.5l-0.1-0.3L47.5,107.1z
						 M46.5,106.5v0.3l0.3,0.2l-0.2,0.3v0.7l-0.4-0.1l0.2-0.3l-0.2-0.1l-0.1,0.2l-0.2-0.1l-0.2,0.2l-0.4-0.2l-0.3,0.2l-0.2,0.5
						l-0.2-0.1l-0.5,0.3l-0.3-0.1l-0.1-0.5l0.1-0.2l0.8-0.3l0.2-0.3h0.3l1-0.7L46.5,106.5z M49.1,106.1L49,106l0.1-0.2L49.1,106.1
						L49.1,106.1z M35.1,95.1l0.1,0.1l-0.1,0.2l0.2,0.2l-0.7-0.2l-0.2-0.2L35.1,95.1z"/>
					<polygon id="PH-ZMB" class="st1" points="44.4,35.4 45.1,35.5 45.3,35.1 45.7,35.3 46.1,35.3 46.8,36.7 46.8,36.7 46.9,36.8 
						46.6,37 46.4,37.5 46.2,38.5 47.1,39 47.6,39.8 47.6,39.8 47.6,40.2 47.9,40.4 48,41 48.3,41.4 48.3,41.4 48.1,41.8 47.7,41.7 
						47.6,42 47.6,42 47.2,42.3 46.7,41.8 46.5,41.9 46.6,42.2 46.4,42.7 45.7,42.4 45.9,42.2 45.7,42.2 45.7,42 45.5,41.7 
						45.6,40.8 45.2,39.1 44.7,38.2 44.4,38 44.6,37.9 44.5,37.5 44.8,37.7 44.9,37.5 44.7,37.1 44.8,37 44.6,37.1 44.6,36.8 
						44.5,36.7 44.7,36.2 44.3,35.9 44.5,35.7 					"/>
					<polygon id="PH-ZAN" class="st1" points="67.9,83.8 68.2,83.8 68.3,84.1 68.6,83.9 68.5,84.3 69,84.5 69,84.5 69,87.2 69,87.2 
						66.7,87.1 66.4,88.7 65.8,88.7 65.1,89.3 64.7,89.3 64.7,89.3 63.7,89.1 63,89.2 62.3,89.5 61.6,90.1 61,90.4 60.4,91.2 
						60,92.3 60,92.3 59.7,92.9 59.5,93.9 59,94.4 57.9,94.4 57.9,94.4 58.3,93.7 58.9,93.4 58.7,93 59.1,92.1 59,91.9 59.2,91.9 
						59.5,91.5 59.2,91.4 59.4,90.9 59.3,90.5 59.1,90.4 59.2,90.3 59.4,90.3 59.4,90 59.5,90 59.6,89.6 60.1,89.3 60.1,88.9 
						60.9,88.4 62.5,88.1 63,87.6 63.2,87.9 63.4,87.9 64.7,87.7 65.2,87.2 65.2,87 64.8,86.6 65.2,86.4 65.2,85.9 65.3,85.8 
						65.5,85.3 65.7,85.2 66.5,85.1 67.3,85.2 67.6,84.4 68.1,84.4 68.1,84.2 67.8,83.9 					"/>
					<path id="PH-ZSI" class="st1" d="M60.4,95.4v0.3h-0.3v0.1L59.8,96l0.2-0.5L60.4,95.4z M64.6,92.4l-0.1,0.5l-0.3-0.4L64,92.5
						l-0.1,0.5l0.2,0v0.3l0.2,0.1l0.1-0.2l0.4-0.1l0.1-0.2l0.2,0.1l-0.2-0.2l0.3,0.1l-0.2-0.3L64.6,92.4z M63.6,89L63,89.1l-0.8,0.3
						L61.6,90l-0.6,0.3l-0.5,0.8L60,92.3l-0.3,0.6l-0.2,1L59,94.4h-1.1l0,0v0.5l0.3,0.8l1.1,0.5l0.3-0.1l0.2-0.3l0.1-0.8l0.4-0.3
						l-0.1-0.5l0.2-0.3l0.1-0.6l0.2-0.1v0.2h0.1l0.4-0.5h-0.3l0.1-0.4l0.6-0.5h0.2l0.2-0.4l-0.4,0.1l-0.1-0.1l0.4-0.3l0-0.1l0.4-0.6
						l0.8-0.4l0.1,0.2l0.1-0.2l0.4,0.3l0.1-0.1l0.3,0.1v0.2l-0.1-0.1l-0.1,0.3v0.6l0.2,0.3L64,91.9l-0.2-0.1l-0.1,0.3v0.1l0.1-0.1
						l0.1,0.1v0.3l0.4-0.2L64.3,92l0.3-0.3l0.3,0.4l0.1-0.1l0.1,0.2l0.3-0.8l-0.1-0.3h0.2v-0.4h0.1l0.1-0.2l0,0l-0.1-0.7l-1.1-0.1
						v-0.6L63.6,89z"/>
					<polygon id="PH-ABR" class="st1" points="51.4,20.2 51.8,20.5 51.9,21.2 52.3,21.2 52.5,21.3 52.7,22.3 52.7,22.3 52.5,22.5 
						52.6,23 52.6,23.2 51.8,23.7 51.8,24.3 51.3,25.4 51.3,25.4 51.2,25.8 50.9,25.8 50.5,25.8 50.2,26 49.8,26 49.7,25.8 
						49.8,25.4 49.3,25 48.9,25 48.8,24.6 49.1,23.8 48.7,23.6 48.4,23.8 48.3,23.6 48.8,22.2 48.8,22.2 49,21.5 49.7,21.2 50,20.8 
						50.3,20.7 50.7,20.4 51.2,20.4 					"/>
					<polygon id="PH-AGN" class="st1" points="81.8,78.9 82.5,78.8 83.3,79 83.7,79.3 83.7,79.7 83.7,79.7 83.7,80.3 83.7,80.3 
						83.8,80.8 83.6,81.4 83.3,82 83,83.2 83.2,84 82.1,84 81.7,84.2 80.3,84.2 80.3,82.9 80.4,82.8 80.2,82.4 80.3,82.2 80.1,81.3 
						80.1,81.3 80.3,81.7 80.6,82 80.9,82 80.9,82.1 81,82 81.6,82.1 82.2,81.8 82.3,80.6 					"/>
					<polygon id="PH-AGS" class="st1" points="83.8,80.3 84.6,81.4 84.8,82.8 85.1,83.1 85.5,84.1 85.4,84.3 85.4,84.8 85.6,84.9 
						85.7,85.6 86.1,85.6 85.8,85.9 86.1,86.2 86.6,86.2 87.2,86.2 87.3,86.1 87.2,86.5 87.4,86.8 86.9,87.2 86.8,87.6 87.4,88 
						87.8,88 87.4,88.4 87.7,88.5 87.7,88.8 86.5,88.8 85.7,89.2 85.4,89.1 85.2,88.8 83.2,88.8 81.2,88.9 81.2,88.9 81.2,88.3 
						80.9,87.5 81,87.2 80.3,86.3 80.2,84.9 80.2,84.9 80.2,84.4 81.5,84.4 81.9,84.1 83.1,84.1 82.9,83.3 83.3,82.2 83.6,81.6 
						83.7,80.9 					"/>
					<path id="PH-AKL" class="st1" d="M58.3,62l0.8,0.7l1,0.2l0.6,0.5h0.4L61,63.5l0.2-0.1l0.2,0.4l0.5,0.4l-0.1,0.1l-0.4-0.5
						L61.2,64l0.2,0.2v0.2h0.2v-0.1v0.4h0.2l0.1-0.3l0.5,0.3l0,0L62,65.1h-0.8l-0.6,0.8l-0.7,0.3l0,0L59.8,66l0.1-0.3l-0.4-0.6
						l0.1-0.4l-0.1-0.8l0.2-0.5l-0.1-0.3l-1.2-0.5h-0.4l-0.6,0.4l0,0l0.2-0.4v-0.6L58.3,62z M58,61.6l0.1,0.4l-0.2-0.3L58,61.6z"/>
					<path id="PH-ALB" class="st1" d="M72.9,53.1l0.5,0.2l0.1,0.2l-1.1-0.2L72.9,53.1z M71.9,52.8l0.1,0.1l0.1-0.2l0.2,0.2l0.1-0.1
						l0.4,0.1l-0.5,0.3l-0.2-0.1h-0.3l-0.3-0.4L71.9,52.8z M71,52.3l0.5,0.2l-0.3,0.3l0.2,0.3l-0.2,0.1l-0.3-0.3l0.2-0.3l-0.2-0.1
						L71,52.3z M70.4,51.9l0.6,0.3l-0.1,0.2L70.4,51.9z M69.4,51.2l0.5,0.3l0.5,1.1l0.8,0.6v0.1h-0.6l-0.1,0.4l0.2,0.4l-0.1,0.2
						h-0.2v0.2l0.3,0.1l0.5-0.7l0.4,0.2l0,0l-0.2,0.5H71l-0.6,0.4l-0.2-0.3l-0.7,0.1l-0.4-0.1l-0.6,0.3l0,0L68,54.4l-0.6,0.3
						l-0.3-0.3v-0.6l0.3-0.3L67,53l0,0l1.1-0.7h0.4l0.6-0.3v-0.3l-0.3-0.4l0.4-0.1l0,0L69.4,51.2z"/>
					<path id="PH-ANT" class="st1" d="M57.5,63.2l0.6-0.4h0.4l1.2,0.5l0.1,0.3L59.5,64l0.1,0.8l-0.1,0.4l0.4,0.6l-0.1,0.3l0.1,0.2
						l0,0V67l0.2,0.5l0,0l0.5,0.8v0.6l-0.8,0.7l-0.2,0.5L59,70.5l-0.3,0.8l-0.1,0.5l0.1,0.2l0,0l-0.5,0.4L58,72.2v-0.4l0.3-0.3
						l0.1-0.8L58,70l0.4-1.1l0.5-0.7l-0.1-1.1l0.1-0.5l-0.2-0.3l0.2-0.3v-0.8l0.2-0.2l0.1-1.4L59,63.4L57.5,63.2z M54.8,62.5
						l0.6,0.2l-0.1,0.1l-0.7-0.1L54.8,62.5z M55.6,61.8l0.2,0.4l-0.2,0.1l-0.1-0.4L55.6,61.8z M54.2,60.8h0.2l0.3,0.6l-0.3,0.3
						l-0.2-0.5l0.2-0.1l-0.2-0.1L54.2,60.8z"/>
					<polygon id="PH-APA" class="st1" points="51.6,16.9 51.9,16.8 52.1,16.4 52.4,16.3 52.4,16.7 53.5,17 53.7,17.3 55,17.9 
						55.1,18.5 54.9,19.7 54.6,19.9 53.9,21.4 54.3,21.5 54.7,22 54.8,22.3 54.8,22.3 54.4,22.6 53.5,22.4 53.3,22.7 52.6,22.3 
						52.6,22.3 52.5,21.3 52.3,21.1 51.9,21.1 51.7,20.5 51.3,20.2 51.3,20.2 51.4,19.3 51.7,18.9 51.5,17.5 					"/>
					<polygon id="PH-AUR" class="st1" points="60.3,30.5 59.9,31 60.1,31.4 60.2,31.1 60.1,31.6 59.8,32 59.9,32.1 60.2,31.9 
						60,32.4 59,33.2 59,33.5 58.8,33.7 58.5,33.9 58.7,33.4 59.2,32.9 59.2,32.7 59.4,32.5 59.4,32.3 59.2,32.3 59,32.4 59,32.8 
						58.6,32.8 58.1,33.2 57.6,33.2 57,33.6 56.8,33.6 55.5,34.8 55.5,35.5 55.6,35.7 56.1,35.7 56.1,36 55.9,36 55.9,36.5 55,37.3 
						54.9,38 54.6,38.4 54.4,38.3 54.3,38.4 54.2,38.8 54.5,39.5 54.5,39.5 54.3,39.8 54.4,40.1 54,40.6 54,41 54,41 53.8,39.6 
						53.8,39.6 54.2,37.6 53.6,35.6 53.6,35.6 54.9,34.6 54.9,34.6 57.3,32.4 58.9,30.6 59.3,30.3 59.3,30.3 60.3,30.3 60.3,30.3 
											"/>
					<polygon id="PH-BAN" class="st1" points="48.2,41.5 48.5,41.6 48.7,42.1 49,42.2 49,42.2 48.8,42.5 48.8,42.9 49.2,44.2 
						49.2,44.6 48.9,45 48.4,44.9 48.5,45.1 47.8,44.7 47.7,44.3 47.8,43.8 47.6,43.6 47.2,43.6 46.8,43.1 46.8,42.8 47,42.8 
						46.7,42.7 47,42.5 46.8,42.4 47.5,42 47.5,42 47.6,41.7 48,41.8 					"/>
					<path id="PH-BTN" class="st1" d="M57.5,3.4l0.3,0.3l-0.2,0.3l-0.1-0.2L57.5,3.4z M58.6,2.5l0.2,0.2L58.3,3l0.1,0.3L58,3.5
						L58.1,3l0.3-0.2l-0.1-0.2L58.6,2.5z M57.6,0l0.1,0.2v0.4L57.3,1l-0.1-0.2l0.4-0.7L57.6,0z"/>
					<path id="PH-BTG" class="st1" d="M52.4,50.8l0.1,0.3l-0.1,0.1l-0.3-0.3L52.4,50.8z M50.7,50l0.8,0.3H51l-0.2-0.1L50.7,50z
						 M49.1,46.3l0.2,0.1l0,0l0.4,0.1l-0.1,0.2l0.2,0.2h0.4l0.5,0.3v0.2l0.8-0.2l0.6-0.4l0,0l1,0.2l0.2,0.7l0.2,0.3h0.1v0.2l0,0v0.2
						l-0.2,0.1l0.2,0.3h0.6l0.6,0.3l0,0l-0.2,0.4l0.1,0.5l0.2,0.1l-0.3,0.2l-0.3-0.1l-0.7,0.5L53,50.2l-0.7,0.2L52,50.3l0.2-0.6
						l-0.4-0.4l-0.2,0.1L51,50l-0.1-0.2l0.4-0.3L51.1,49l0.1-0.4l-0.8-0.3h-0.6l0.1,0.5l-0.4-0.1l0.2,0.5l-0.1,0.1l-0.2-0.3v-1
						l-0.1-0.1h0.2l-0.1-1l-0.4-0.2l0.3-0.1l-0.2,0h0.3L49,46.5L49.1,46.3z"/>
					<polygon id="PH-BEN" class="st1" points="50.3,27.5 51,28.2 51,28.2 51.2,28.6 51.2,29.8 51.2,29.8 51,30.5 51.1,31 50.8,31.8 
						50.5,31.8 50.2,32.3 50.2,32.6 50.2,32.6 49.5,32.7 48.5,32.4 48.5,32.4 48.2,30.6 48.8,29.9 48.7,29.8 49,29.5 49,29.5 
						49.3,29 49.4,27.8 					"/>
					<path id="PH-BIL" class="st1" d="M74.9,63.6l0.7,0.2l0.3,0.7l0.2,0.2L76.1,65l-0.8,0.2L75,65.1l-0.7-1.3L74.9,63.6z M74.2,62.8
						l0.2,0.1l-0.2,0.3L74,63L74.2,62.8z"/>
					<path id="PH-BOH" class="st1" d="M70.9,77.6l0.2,0.1v0.2l-0.5,0.3h-0.3V78l-0.2-0.1L70.9,77.6z M70.5,75.9h0.1l-0.2,0.2
						L70.5,75.9L70.5,75.9L70.5,75.9z M70.8,75.8h0.3l-0.2,0.2L70.8,75.8L70.8,75.8z M76.1,74.1l-0.2,0.3l0.1,0.2h-0.3l-0.1,0.2
						h-0.1l-0.1-0.4h0.2v-0.1l0.1,0.2v-0.2L76.1,74.1z M74,74l0.3,0.2v0.2l0.2-0.3l0.2,0.3l0.6,0.3l0.2-0.1l0.3,0.2l0.1,0.3h-0.1
						l0.1,0.4h-0.1l0.3,0.1l-0.1,0.3l-0.3,0.2l0.5,0.4v0.3L75.5,77l-0.2-0.3l-0.5,0.3l-0.1,0.4l-0.9,0.4l-0.5-0.1l-0.9,0.1l-1.4-0.3
						L71,77.4l0.2-0.3l-0.2-0.2h-0.3l0.1-0.6l-0.1-0.2l0.2,0.1v0.1l0.4-0.4l0.1-0.2l0.1,0.1l0.5-0.3l0.4-0.1l0.2-0.7h0.2l0.4-0.6
						h0.8L74,74z M73.3,74v0.2l-0.1-0.1L73.3,74z M73.8,73.8L73.6,74l-0.2-0.1L73.8,73.8z M73.2,73.8L73.2,73.8l-0.1,0.1L73.2,73.8z
						"/>
					<polygon id="PH-BUK" class="st1" points="75.8,87.1 75.9,86.7 76.1,86.6 76.2,85.8 77.5,85.8 77.5,85.5 77.8,84.7 80.4,84.7 
						80.4,84.7 80.5,86.2 81.2,87.1 81.1,87.3 81.3,88.1 81.3,88.8 81.3,88.8 81.6,89.2 81.6,89.9 81.8,90.2 81.7,91 81.5,91.2 
						80.5,91.1 80.5,91.5 80.5,91.5 80.3,91.4 80.3,91.5 80,91.5 79.8,92.2 79.2,92.3 79,92.7 78.5,92.7 78.2,92.4 77.9,92.6 
						77.5,92 77.3,92.1 77.5,91.7 77.4,91.3 77.4,91.3 77.1,90.9 76.9,90.3 76.4,89.7 76.2,89.7 76.2,89.3 75.8,88.7 75.6,88 
						75.4,87.7 75.4,87.7 75.8,87.5 					"/>
					<polygon id="PH-BUL" class="st1" points="51.5,39.5 52,39.2 52.8,39.1 53.5,39.6 53.9,39.6 53.9,39.6 54.1,41 54.1,41 
						54.1,41.7 54.1,41.7 53.5,42 53,42.2 52.6,42.6 52.6,42.6 52.1,42.5 51.8,42.9 51.4,42.8 51.5,43.1 51.3,43.1 51.3,43.1 
						50.8,42.8 50.8,42.6 50.6,42.5 50.5,42.7 49.7,42.5 49.9,42.3 49.9,42.3 50.1,41.5 50.7,41.5 51.2,41.1 51.2,40.9 51.3,41 
						51.4,40.7 51.6,40.7 51.8,40.2 51.5,39.9 					"/>
					<path id="PH-CAG" class="st1" d="M59.5,16h0.2v0.4l-0.3,0.2v-0.4L59.5,16z M52.7,15.7l0.5,0.1l1.5,1.1l3.2,1.4l0.7-0.2l0.6-0.7
						h0.2l0.1-0.9l0.6-0.1l0.1,0.5l0.4,0.4l0.2,0.6l-0.2,0.6l-0.3,0.3L60,19l-0.3,0.5l0.1,0.2v1.1l-0.4,0.8l0.2,0.7v0.6l0.2,0.4l0,0
						l-3.6,0.3l0,0l-1.2-1.1h-0.3v-0.2l0,0l-0.1-0.3l-0.4-0.4l-0.5-0.2l0.7-1.5l0.3-0.1l0.2-1.2L55,17.8l-1.2-0.6L53.5,17l-1.1-0.4
						v-0.4l-0.3,0.1l-0.3,0.4l-0.3,0.1l0,0l0.1-1l0,0l0.4-0.3l0.2,0.1L52.7,15.7z M54.7,13.7l0.4,0.2l-0.9,0.2L53.7,14v-0.2
						L54.7,13.7z M58,13h0.2l0.3,0.3v0.1l-0.6,0.5l-0.3,0.4l-0.2-0.4l0.3-0.1l-0.1-0.2l0.1-0.4L58,13z M53.3,11.8l0.2,0.5v0.6
						l-0.4-0.4L53.3,11.8z M54.6,10.2l0.5,0.2l0.2-0.1l0.1,0.8l-0.2,0.2L54.6,11l-0.1-0.3l-0.3-0.2L54.6,10.2z M58.4,8.9l0.2,0.1
						v0.3l-0.2,0.3l-0.5-0.5L58.4,8.9z"/>
					<path id="PH-CAN" class="st1" d="M62.1,45.5l0.6,0.2l-0.1,0.1l0.3,0.2v-0.3l0.3,0.2L63,45.5h0.1h0.2l0.1,0.2l0.2-0.1l0.3,0.1
						v0.2l0.5,0.1l0.3,0.3v0.2l0.9,0.7l-0.1,0.5l0.4,0.4l0.1,0.6l-0.2,0.4l0,0l-1.8-1.2l0,0l-2.3-0.9L61,47.4h-0.4v-0.1l0,0l0.3-0.3
						l-0.1-0.5l0.1-0.2l0.2,0.1L61,46.1l0.2-0.3h0.2v-0.2l0.1,0.1l0.3-0.3l0.1,0.1L62.1,45.5z M64.9,44.8l0.2,0.2l-0.4-0.2
						L64.9,44.8z M64.9,44.5l-0.1,0.3h-0.3L64.9,44.5z"/>
					<path id="PH-CAS" class="st1" d="M70.8,48h0.1l-0.1,0.6l-0.2-0.4L70.8,48z M69.6,48l0.2,0.2l-0.4,0.2h-0.2v-0.3l0.1,0.1
						l0.1-0.2l0.1,0.1L69.6,48z M67.6,47.2l0.2,0.4l-0.2,0.2l0.3-0.2V48h0.2l0,0.3l0.2,0.2v-0.4l0.4,0.2l-0.1,0.2l0.2-0.1l0.2,0.1
						v-0.2l0.4,0.3l0.5,0.1H70v-0.4l0.5,0.6l0.5,0.3l0.1-0.1l0.2,0.2h0.3v0.3h0.1v0.3l-0.2-0.2v0.1l-0.4-0.1L70.7,50L69,49.7
						l0.2,0.1L69,50.1l-0.1,0.4l0.1,0.1l-0.1,0.2l0.4,0.1l0.1,0.2l0,0l-0.4,0.1l0.3,0.4V52l-0.6,0.3h-0.4L67.2,53l0,0l-0.4-0.6
						l-0.1-0.6l-2-1L64,50.3h0.2l0.2-0.3l-0.2-0.3l-0.7-0.6H63l-0.1-0.4l-0.4-0.2l0-0.1h-0.2l0.1-0.1l-0.1-0.1l0,0l1.6-0.4l0,0
						l1.8,1.2l0,0l-0.1,0.4l0.5,0.3h0.7l0.3-0.1l0.3-0.5l-0.3-0.5l0.1-0.2l-0.2-0.2h-0.2v-0.2l0.2-0.1l-0.2-0.1h0.4l-0.2-0.3
						l0.4,0.3l-0.1-0.2h0.3l-0.1-0.1L67.6,47.2z M67.3,47l0.2,0.1l-0.1,0.2L67.3,47z"/>
					<polygon id="PH-CAM" class="st1" points="76.8,80.2 77.2,80.5 77.4,81.1 77.2,81.4 76.6,81.1 76.3,80.8 76.3,80.3 					"/>
					<polygon id="PH-CAP" class="st1" points="63.4,64.2 63.9,64.3 64.1,64.2 64.4,64.6 64.3,64.7 64.5,64.7 64.8,64.9 64.4,65.3 
						64.6,65.5 64.7,65.1 65.2,65.1 65.9,64.7 65.9,64.7 65.6,65.3 65.6,65.7 64.9,65.9 64.9,66.3 64.6,66.5 64.6,66.8 64.4,66.8 
						64.3,67.1 63.8,67.2 63.8,66.9 63.7,66.8 62.9,66.9 62.8,66.8 62.9,66.6 62.8,66.6 62.5,66.9 62.4,66.7 62.2,67 61.9,67.2 
						61.2,67.1 60.7,66.9 60.2,67.5 60.2,67.5 59.9,66.9 59.9,66.3 59.9,66.3 60.6,66 61.2,65.2 62,65.2 62.4,64.7 62.4,64.7 
						62.5,64.9 62.8,64.9 63,64.8 62.8,64.7 62.9,64.5 63,64.7 63.4,64.4 					"/>
					<path id="PH-CAT" class="st1" d="M74.2,48.1l0.1,0.2h-0.2L74.1,48L74.2,48.1z M73.4,47.2l0.4,0.6l0.1,0.5l0.2,0.1v0.3l0.3-0.3
						v0.2l0.2,0.2v-0.2l0.1,0.2h-0.1l0.2,0.1L74.6,49l0.2,0.3l-0.2,0.1l0.1,0.2l-0.2,0.2l0.2,0.3l-0.5,0.2l0.1,0.3l-0.2,0.3h-0.1
						l-0.1-0.4l-0.5,0.3v0.3l-0.7-0.5l-0.4-0.1l0.1-0.1l-0.3-0.3l0.5-0.3l0.3-0.6l-0.1-0.6l0.1-0.3l-0.2-0.9l0.3,0.1L73.4,47.2z"/>
					<polygon id="PH-CAV" class="st1" points="51.2,44.4 51.1,44.7 51.6,44.6 51.6,44.6 51.9,45.4 51.9,45.4 51.9,45.7 52.3,45.6 
						52.1,46.2 52.2,46.2 52.1,46.4 52.2,46.8 52.2,46.8 51.6,47.2 50.8,47.4 50.8,47.2 50.3,46.9 49.9,46.9 49.7,46.6 49.8,46.5 
						49.4,46.3 49.4,46.3 49.4,46 49.8,45.9 50.3,45.6 					"/>
					<path id="PH-CEB" class="st1" d="M72.5,73.2l-0.2,0.3l-0.1-0.1L72.5,73.2z M71.9,72.9L72,73l0.3-0.1l-0.4,0.5l-0.3,0.1
						l-0.1-0.1l0.2-0.1h-0.2v-0.2L71.9,72.9z M74.9,70.3l0.5,0.3v0.2l-0.5,0.2l-0.4-0.1v0.1L74,71.2h-0.2l0.3-0.8l0.4,0.1l0.1,0.3
						L74.9,70.3z M75.8,69.6L75.6,70l-0.3,0.2V70L75.8,69.6z M72.4,66.5l-0.2,0.9l-0.3,0.5L72,68h0.3l-0.1,0.8l0.2,0.3L72,70.1
						l0.2,1.4L72,72.4l0.2,0.2L71.8,73l-0.5,0.3l-0.1,0.3l-0.7,0.2l-0.5,0.7v0.3h-0.3L69.4,76l-0.5,0.5v0.3L68.7,77l-0.3,1.1l-0.8,1
						h-0.3l0.3-2.5l0.4-0.8l-0.1-0.2l-0.2-0.1v-0.3l0.2,0.1l0.1-0.5l0.2-0.1l0.5-0.6l0.4-0.8v-0.4l0.6-0.6l0.3-0.6l0-0.2l0.2-0.6
						l0.4-0.6l0.2-0.1l0.7-1.8l-0.2-0.3l0.2-0.2v-0.3l0.2,0.2l-0.2-0.7l0.3-0.3l0.1-0.3H72.4z M70.2,66.3l0.5,1l-0.6,0.1l0.1-0.2
						l-0.3-0.4L70.2,66.3z"/>
					<polygon id="PH-COM" class="st1" points="86.5,88.7 86.4,88.9 87.4,92.4 87.4,93.6 85,94.9 85,94.9 84.6,94.6 84.7,94.3 
						84.3,93.7 84.4,93.1 84.3,93 84.3,93 84.3,92.3 84.6,92.1 84.4,91.8 84.8,91.7 85,91 84.7,90.7 85,90.3 84.8,89.8 84.1,91 
						83.9,91 83.8,90.5 83.4,90.1 83.2,88.7 85.3,88.7 85.4,88.9 85.7,89.1 					"/>
					<path id="PH-DAV" class="st1" d="M83.3,95.7l0.2,0.2v0.3l-0.3-0.3L83.3,95.7z M83.5,94.1l0.6,0.5l-0.1,0.6l0.1,0.6l-0.2,0.3
						l-0.3-0.5l-0.1-0.7h-0.2l-0.1-0.2L83.5,94.1z M83.2,88.7l0.2,1.4l0.4,0.4l0.1,0.5h0.2l0.8-1.2l0.2,0.4l-0.3,0.5L85,91l-0.1,0.7
						l-0.4,0.1l0.2,0.3l-0.3,0.2V93l0,0l-0.8,0.4h-0.3l-0.4,0.4h-0.7v-2.2h-1.7l0,0v-0.1l0,0v-0.4l1,0.2l0.2-0.2l0.1-0.7l-0.2-0.3
						v-0.6l-0.3-0.5l0,0L83.2,88.7z"/>
					<polygon id="PH-DAS" class="st1" points="80.4,91.6 82.1,91.6 82.1,93.8 82.8,93.8 83.2,93.4 83.5,93.4 83,93.8 83.2,94.5 
						83.1,94.7 82.6,95.2 82.4,95.1 82.2,95.2 82,95.5 82,95.9 81.3,96.7 81.2,97.2 81.3,97.8 81.1,98.1 81.7,98.2 81.6,97.8 
						82.2,98.4 82.2,98.6 82.4,98.5 82.6,98.7 82.5,98.8 82.7,98.8 82.6,99.3 82.8,99.4 83.4,100.7 83.4,102 83.1,102.7 82.1,103.8 
						81.5,105 80.9,105.1 80.8,105 80.8,105 80.8,104.9 81.3,104.5 81.9,103.2 81.9,102.8 82.3,101.4 82.1,101.2 82.1,100.6 
						81.8,100.1 82,99.9 82,99.5 81.6,98.9 81.1,98.7 80.9,99.1 80.4,99.3 79.9,99 79.9,99 80,98.5 80,98.5 79.9,97.9 79.6,97.5 
						79.6,97.2 79.7,97.2 79.5,97 79.5,97 79.4,96.6 79.7,96.6 79.8,96.2 80.4,95.7 80.6,95.2 80.8,95.2 80.6,94.6 80.2,94.1 
						80.3,93.7 80.2,93.1 80.5,92 					"/>
					<polygon id="PH-DAO" class="st1" points="87.8,88.7 87.8,89.3 87.8,89.3 88,89.8 88.3,89.8 88.8,90.5 89.3,90.6 89.1,90.8 
						89.1,91.2 89.3,91.4 89.2,91.6 89.3,91.6 89.4,92.2 89.4,92.4 89.2,92.5 89.2,92.7 89.3,92.7 89.2,92.9 89.3,93.2 89.1,93.3 
						89.2,93.5 89.5,93.5 89.2,94.1 89,94.1 88.9,94.6 88.6,94.9 88.6,95 88.4,95.1 88.4,95.3 88.5,95.5 87.7,95.4 87.5,95.8 
						87.3,95.9 87.7,96.4 87.7,96.8 87.3,96.6 87.4,96.3 87,95.9 86.7,95.8 86.6,96.3 87.1,97.1 86.9,97.9 86.9,99.3 86.7,99.5 
						86.6,99.9 86.3,99.6 86.4,99.3 85.9,98.6 86,98.1 85.8,97.7 86,97.6 86,97.2 85.9,97 85.9,96.5 85.2,95.9 85.3,95.3 84.9,94.9 
						84.9,94.9 87.3,93.6 87.3,92.4 86.3,88.9 86.4,88.7 87.7,88.7 					"/>
					<path id="PH-DIN" class="st1" d="M81.9,72l0.2,0.1v0.2h-0.1L81.9,72z M83,72l0.3,0.5l-0.2,0.6v0.4l-0.2-0.1l0.3,0.5l0,0.2h0.2
						l-0.1,0.3l0.2,0.4l-0.1,0.7l-0.2,0.1l0.3,0.4v0.2l-0.2,0.1L83,76v-0.4l-0.5-0.4l0.1-0.1l0.1-0.5l-0.1-0.1v0.2l-0.2-0.1
						l-0.3,0.1l-0.2-0.5l0.2-0.3l0.3-0.1l-0.2-0.3V73h0.3l-0.1-0.4l0.3,0.1l0.1-0.5L83,72z"/>
					<path id="PH-EAS" class="st1" d="M85.1,69.9l0.1,0.2L85,69.9L85.1,69.9z M83.4,69.6l0.2,0.2l-0.1,0.3l0.6,0.1v0.2h-0.4
						l-0.6-0.4l-0.1-0.3L83.4,69.6z M83,68.3v0.2h-0.2L83,68.3z M83.8,68.2l0.5,0.6l-0.5-0.5L83.8,68.2z M79.7,59.6L80,59l0.7,0.7
						l0.2-0.1l0,0l0.1,0.1l0.1-0.2h0.2l-0.1,0.2h0.5l0.2,0.2L81.7,60h0.2l0.2,0.3v0.1h-0.4l0.1,0.1l-0.2,0.1v0.2h0.2l0.1,0.1h-0.1
						l0.3,0.2l-0.6,0.7l0.1,0.9l0.2,0.2l-0.4,0.2l0.2,0.1l0.2-0.1l0.1,0.5l0.1,0.1h-0.3l0.1,0.2l-0.2,0.2l0.1,0.2h0.2v0.3l0.3,0.3
						l-0.1,0.3h0.2l0.3,0.4h0.1l0.3,0.3l-0.1,0.4l-0.4,0.3L82.3,67l0.4,0.1l0.2-0.1l-0.2-0.2l0.1-0.1l0.4,0.2l0.7,1.1l-0.1,0.1
						l-0.2-0.1l-0.3-0.4l0.2-0.2h-0.2v-0.2l-0.5,0.2l-0.2-0.1l0.1-0.1h-0.3l-0.1,0.5l-0.3-0.3v0.2l-0.1-0.1l-0.2,0.2v-0.1L81,67.6
						l-0.1-0.2l-0.3,0.2l0,0v-1.4l0.4-0.5l-0.5-0.3l-0.2-1.1l0.1-0.2l0.4-0.3l-0.1-1.2l-0.4-1h-0.6v-1.2l0.2-0.2L79.7,59.6z"/>
					<path id="PH-GUI" class="st1" d="M63.3,71.9l0.2,0.1l-0.3,0.1L63.3,71.9z M63,70l0.4,0.4V71l-0.3,0.8l-0.4,0.4L62,72.4v-0.3
						l-0.2-0.2l0.1-0.2l0.3-0.1L62,71.2l0.3-0.6l0.3-0.1v-0.3L63,70z"/>
					<polygon id="PH-IFU" class="st1" points="51,28.3 51.2,28.3 51.5,28.1 51.7,27.5 51.7,27.1 53.4,27 54.2,26.6 54.8,26.5 
						55.5,26.6 55.5,26.6 55.8,27.8 55.5,28.1 54.9,28.3 54.8,28.2 54.6,28.5 54.3,28.5 54.1,28.6 54.1,28.8 54.1,28.8 54,29.2 
						53.8,29.2 53.8,29.4 51.2,29.9 51.2,29.9 51.2,28.6 					"/>
					<polygon id="PH-ILN" class="st1" points="50.8,15.5 51.2,16.1 51.5,16.1 51.7,15.9 51.7,15.9 51.6,16.9 51.6,16.9 51.5,17.4 
						51.7,18.9 51.4,19.3 51.3,20.2 51.3,20.2 51.2,20.4 50.7,20.3 50.4,20.6 50,20.8 49.8,21.2 49,21.5 48.7,22.1 48.7,22.1 
						48.5,21.8 48.7,20.9 48.1,20.8 48.1,20.8 48,20.7 48.4,20.1 48.3,19.9 48.3,19.5 48.5,19.1 48.6,18.7 49.1,17.7 48.9,16.7 
						49.3,16.3 49.9,16.4 50.3,16.3 50.4,15.8 					"/>
					<polygon id="PH-ILS" class="st1" points="48.1,20.8 48.7,20.9 48.6,21.8 48.7,22.1 48.7,22.1 48.3,23.5 48.4,23.7 48.7,23.6 
						49.1,23.7 48.8,24.6 48.9,24.9 49.3,24.9 49.7,25.3 49.6,25.7 49.8,26 50.2,26 50.5,25.7 50.9,25.7 50.4,26.3 50.4,27.5 
						50.4,27.5 49.5,27.8 49.3,28.9 49,29.5 49,29.5 48.7,29.1 48.8,28.7 48.5,28.2 48.6,27.7 48.4,27.8 47.9,27.6 47.9,27.6 
						48.1,27.2 48,25.8 47.8,25.6 48.1,25.1 48,24.7 48.1,24.7 48.3,24.2 48,23.9 48,23.5 47.5,23.2 47.5,23 47.7,22.2 48.1,21.9 
						47.9,21.7 48.1,21.6 47.9,21.5 48.3,21.3 					"/>
					<path id="PH-ILI" class="st1" d="M66.3,67.3l-0.2,0.4L66,67.5L66.3,67.3z M66.4,66.9h0.1l-0.1,0.2L66.4,66.9z M66.4,66.2
						l0.2,0.1l-0.3,0.3L66.4,66.2z M67,65.2l0.1,0.1L67,65.5L67,65.2L67,65.2z M66.9,65.2h-0.2l0-0.3h0.1L66.9,65.2z M66.6,64.7v0.2
						l-0.2,0.1l0.1-0.2L66.6,64.7z M66.3,64.3l0.1,0.2L66.2,65l-0.1-0.1h-0.2l0.3,0.2l-0.1,0.1l0.2-0.1l0.1,0.1l-0.2,0.4l0.2,0.2
						L66.2,66L66,66.1v0.7l0.2,0.2v0.2l-0.1,0.1l-0.3-0.2v0.1h-0.2l-0.1,0.5l-0.2,0.2H65v0.2l-0.2-0.2l-0.1,0.3l-0.2-0.1l-0.1,0.3
						h-0.5l-0.2,0.3l0.2,0.3l-0.2,0.5l-0.2,0.3l-0.4-0.1v0.1h-0.4l-0.2,0.6h-0.8L60,70.8l-0.4,0.4l-0.3,0.1L58.9,72l0,0l-0.1-0.2
						l0.1-0.6l0.4-0.8l0.7-0.4l0.2-0.5l0.8-0.7v-0.6l-0.6-0.8l0,0l0.6-0.6l0.5,0.2l0.7,0.1l0.4-0.2l0.2-0.3l0.1,0.2l0.3-0.3H63
						l-0.2,0.2l0.2,0.2l0.8-0.1l0.1,0.1v0.2l0.5-0.1l0.2-0.3h0.1v-0.2l0.4-0.2L65,65.9l0.8-0.3v-0.4l0.3-0.6l0,0L66.3,64.3z
						 M67.7,64.3l-0.1,0.2l-0.1-0.1L67.7,64.3z M67.7,64.1l-0.1,0.2L67.7,64.1L67.7,64.1z"/>
					<polygon id="PH-ISA" class="st1" points="59.8,23.2 59.8,23.5 60.2,24.2 60.2,24.5 60.5,24.5 60.7,24.7 61.1,24.6 61.3,24.7 
						61.6,25.2 61.3,25.8 61.3,26.1 61.8,26.2 62,26 62.1,26.4 61.7,27.2 61.7,27.8 61.4,28.2 61.4,28.4 60.3,30.4 60.3,30.4 
						59.4,30.4 59.4,30.4 59.1,30.4 56.9,31.4 55.5,29.7 54.5,29.6 54.5,29.6 54.5,29.3 54,28.9 54,28.9 54,28.6 54.2,28.5 
						54.5,28.5 54.7,28.2 54.8,28.3 55.4,28.1 55.7,27.8 55.5,26.6 55.5,26.6 55.5,25.2 55.5,25.2 55.9,24.4 56.3,24 56.2,23.6 
						56.2,23.6 59.8,23.3 59.8,23.3 					"/>
					<polygon id="PH-KAL" class="st1" points="54.8,22.2 54.8,22.4 55.1,22.4 56.3,23.6 56.3,23.6 56.4,24 55.9,24.4 55.6,25.2 
						55.6,25.2 54.6,25 54.2,25.1 53.5,25.8 53,25.9 52.5,25.8 52.2,25.5 51.2,25.4 51.2,25.4 51.8,24.3 51.8,23.7 52.5,23.2 
						52.6,23 52.4,22.5 52.6,22.3 52.6,22.3 53.3,22.8 53.5,22.4 54.4,22.6 					"/>
					<polygon id="PH-LUN" class="st1" points="47.9,27.6 48.4,27.8 48.6,27.6 48.5,28.2 48.8,28.7 48.7,29.1 49,29.5 49,29.5 
						48.7,29.8 48.8,29.9 48.2,30.6 48.5,32.4 48.5,32.4 48.5,32.6 47.9,32.6 47.9,32.6 47.8,32.3 47.4,32.1 47.3,31.3 47.3,30.8 
						47.1,30.5 47.2,30 46.9,29.7 47.1,29.7 47.3,29.2 47.3,28.2 47.8,27.9 					"/>
					<path id="PH-LAG" class="st1" d="M55,43.9l0.6,1.2l0.4,0.1l0.1,0.9l-0.4,0.6l-0.3,0.2l-0.2,0.5l-0.4,0.1L54.1,48l-0.5,0.1l0,0
						v-0.2h-0.1l-0.2-0.3l-0.1-0.7l-1-0.1l0,0l-0.1-0.4l0.1-0.2h-0.1l0.2-0.6l-0.4,0.1v-0.3l0,0l0.3-0.2v-0.8l0.3-0.2l0,0l0.4,0.1
						l0.3,0.7v-0.4l0.2-0.3l0.5,0.4l0.1,0.3l-0.2,0.8l0.5-0.4l-0.1-0.2v-0.6l0.1-0.4L55,43.9z M53.5,45.5L53.5,45.5L53.4,45v0.5
						l0.2,0.4v-0.3l0,0l0.1-0.1L53.5,45.5z"/>
					<polygon id="PH-LAN" class="st1" points="73.7,86.5 75.2,86.5 75.6,86.7 75.8,87.1 75.8,87.1 75.8,87.7 75.3,87.8 75.3,87.8 
						74.2,87.3 74,87.3 73.9,88.1 73.5,88.6 72.9,88.7 72.9,88.9 72.8,89.3 72.2,89.3 72.3,89.8 72,90.7 70.9,90.4 70.8,90.7 
						70.8,90.7 70.2,90.5 70.2,90.2 69.9,89.9 69.5,89.8 69.5,89.8 69.8,89 69.8,89 70.3,88.7 71,87.9 71.3,87.9 72.1,87.3 
						73.1,87.4 73.5,87.3 73.8,86.8 					"/>
					<polygon id="PH-LAS" class="st1" points="75.3,87.7 75.6,88.1 75.7,88.8 76.2,89.4 76.2,89.7 76.4,89.8 76.8,90.4 77,91 
						77.4,91.3 77.4,91.3 76.7,91.1 76.3,91.3 76,91.2 75.6,90.8 74.9,91 74.9,91 74.4,91.6 73.6,92 73.3,92.6 73.3,92.6 72.8,92.4 
						72.9,92.3 72.8,91.9 72.1,91.1 71.9,91.1 71.4,90.7 70.7,90.7 70.7,90.7 70.9,90.4 72,90.8 72.3,89.9 72.1,89.4 72.7,89.4 
						72.9,89 72.8,88.7 73.4,88.6 73.8,88.2 74,87.3 74.2,87.3 					"/>
					<polygon id="PH-LEY" class="st1" points="74.1,64.5 75.1,65.7 75.1,65.3 75.2,65.3 75.6,65.5 75.7,66.1 75.9,66.3 76.8,66.3 
						77.4,65.8 77.5,65.4 77.9,65.6 78.3,65.5 78.4,65.7 78.6,65.7 78.4,66.5 78.6,66.7 78.8,66.7 78.8,67.4 79,68 79,68.9 
						78.8,69.5 78.9,70.2 79.5,70.5 79.5,70.6 79.8,71 79.8,71 79.1,71.7 78.3,71.7 78,72.5 78,73.4 77.7,73.5 77.2,73.9 77.1,73.9 
						77.1,73.9 77.3,73.1 76.9,72.7 76.8,72 77.2,71.6 77.2,71 77.4,70.8 77.2,70 76.6,68.9 76,68.4 75.6,68.6 75.7,68.9 75.4,69.4 
						74.9,69.2 74.8,68.8 74.8,69.1 74.5,69 74.8,68.6 74.8,68.2 74.5,68 74.7,67.7 74.5,66.4 74.3,66.3 74.3,66 74.5,66 74.3,65.9 
						74.3,65.8 74.4,65.8 74.2,65.7 74,65.2 74,64.8 					"/>
					<path id="PH_MG" class="st1" d="M72.1,93.4v-0.2l0.4-0.3L72.1,93.4z M74.4,91.6L73.7,92l-0.3,0.6l0,0l0.3,0.1l0.1,0.4h-0.3v0.7
						h-0.2v0.2L73.1,94l0.1,0l-0.4,0.3h-0.3L72,95.1L71.7,96l0.1,0.3l-0.2,0.3l0.1,0.2h0.1v0.2l0.3-0.2l0.2,0.3l0,0h1.5l0.1,0.2h1.5
						l0.5-0.5l-0.2-0.4l0.7-0.2l0.2,0.1l-0.2,0.6H77l0.4,0.9h0.6l0.8-0.4l0,0L78,96.9L77.7,97l-0.2-0.1v-1.5l-0.1-0.1V95h0.2v-0.2
						h-0.2v-0.2l-0.6-0.5l-0.1,0.3l0.3,0.3h-0.1v0.2l-0.1-0.1L76.7,95l-0.1-0.1l0.2,0.6l-0.3,0.3l-0.3-0.2h-0.3l-0.4-0.5l-0.2,0.1
						l-0.5-0.4l0.5-1h-0.6l-0.3,0.4h-0.3l0.5-0.9h0.1l0.4-1l-0.4-0.5V91L74.4,91.6z"/>
					<polygon id="PH-MAD" class="st1" points="57.7,50.8 58,51.1 58.1,51 58.5,51.1 58.6,51 58.8,51.1 58.7,51.2 58.9,51.2 59,51.4 
						58.9,51.4 59.2,51.4 59.5,51.6 59.3,51.8 59.6,52.2 58.9,52.8 58.9,53.1 58.8,53.4 58.4,53.3 58.2,53 57.7,52.8 57.3,52.4 
						57.3,51.7 					"/>
					<path id="PH-MAS" class="st1" d="M66.9,57.5l1,0.4h-0.3l0.1,0.4l-0.2,0.1l0.2,0.2l0.1-0.2h0.2l-0.1-0.3l0.5-0.1l0.6,0.5
						l0.1-0.1l0.1,0.3l0.3,0.2l-0.2,0.2h0.4l0.4,0.2l0.6,0.9l0.1-0.3l0.4,0.3l0.1-0.2l0.1,0.1l1.1,1.6v0.1L72,61.5v0.2l0.5,0.9
						L72.4,63l0.1,0.5l-1-1L70.2,62l-0.1-0.2l0.3-0.2l-0.7-0.6L69.4,61l0.1-0.1l-0.5-0.8L68.7,60l-0.5,0.2l-0.4,0.6L67.4,61
						l-0.1,0.4l-0.9,0.8L66.3,62l0.4-0.6l0.1-0.8l0.4-0.2l-0.1-0.2l0.1-0.1L67,59.9l-0.2,0.2l-0.1-0.1h0.1l-0.1-0.2l0.3-0.5V59
						l0.2-0.4L67,58.5L66.9,57.5z M69.5,56.8l0.2,0.3l0.5,0.3l0.3,0.8v0.5h0.1v0.5l-1.4-2v-0.2l0.1,0.1h0.2L69.3,57L69.5,56.8z
						 M65.2,53.7l0.3,0.2l0.9,1.5l0.6,0.2l0.1,0.5l0.7,0.9l-0.3-0.2L67,55.9l-0.4-0.1l-0.2-0.3l-0.2,0l0.1-0.1L65.8,55l-0.1-0.3
						l-0.5-0.1L65,54.5l-0.1,0.1l0.1-0.4L64.8,54L65.2,53.7z"/>
					<polygon id="PH-MNL" class="st1" points="51.3,43.1 51.6,43.1 51.4,42.8 51.8,42.9 52.1,42.5 52.6,42.6 52.6,42.6 52.7,42.7 
						52.5,43.2 52.7,43.3 52.5,43.5 52.5,44.2 52.5,44.2 52.2,44.4 52.2,45.2 51.9,45.4 51.9,45.4 51.7,44.6 51.7,44.6 51.8,44.4 
						51.7,44.4 51.8,44 51.5,43.8 51.6,43.5 					"/>
					<polygon id="PH-MSC" class="st1" points="69.4,84.2 69.6,84.3 69.9,84.3 70.5,85.1 71.1,86.5 71,86.8 71.1,87.6 70.6,88 
						70.4,88.3 70.1,88.3 69.6,88.6 69.6,88.6 69.6,88.5 69.1,88.4 69,87.2 69,87.2 69,84.5 69,84.5 69.2,84.5 69.3,84.3 69.2,84.3 
											"/>
					<polygon id="PH-MSR" class="st1" points="80.1,81.3 80.3,82.2 80.2,82.4 80.4,82.8 80.3,82.9 80.3,84.2 80.3,84.2 80.3,84.8 
						80.3,84.8 77.8,84.7 77.4,85.5 77.4,85.8 76.1,85.8 76,86.6 75.8,86.7 75.8,87.1 75.8,87.1 75.5,86.7 75.1,86.4 73.6,86.4 
						73.6,86.4 73.9,86 73.9,85.5 74.1,85 75,84.5 75.2,84.5 75.2,84.7 75.9,85.2 76.4,85.2 76.3,85.4 76.5,85.2 76.5,85.4 
						76.7,85.5 77,85.3 77,84.9 77.2,84.6 77,84 77.2,83.8 77.1,83.5 77.3,83.1 77.2,82.1 77.5,81.9 77.8,81.9 78.8,82.5 79.2,83.1 
						79.8,83 79.9,82.4 79.8,81.9 					"/>
					<polygon id="PH-MOU" class="st1" points="55.5,25.1 55.5,26.6 55.5,26.6 54.8,26.5 54.2,26.6 53.4,27 51.7,27 51.7,27.5 
						51.5,28 51.3,28.2 51,28.2 50.3,27.5 50.3,27.5 50.3,26.3 50.8,25.7 50.8,25.7 51.1,25.7 51.2,25.3 51.2,25.3 52.2,25.4 
						52.4,25.7 52.9,25.9 53.5,25.7 54.1,25.1 54.6,24.9 					"/>
					<polygon id="PH-NEC" class="st1" points="66.6,68.3 66.9,68.3 67.4,68.7 68,68.7 68.4,68.9 68.6,68.8 68.9,69.5 69.1,69.5 
						69.1,69.8 68.9,70.1 68.8,70 68.4,71.6 67.7,72.2 67.5,72.6 67.5,72.6 67,72.4 66.1,72.4 66.6,73.4 65.4,75.1 65.2,75.8 
						62.9,78.6 62.7,79.1 62.7,79.1 62.2,78.6 62,78.3 61.8,78.1 61.7,77.7 61.5,77.7 61.6,77.4 61.2,77.4 61.4,77.2 61.1,77.1 
						61.3,76.4 61.1,76.2 61.5,75.8 61.6,75.3 63,75.3 63.8,74.7 64.1,74.7 64.4,74.5 64.2,73.6 64.3,72.6 63.9,71.6 64.5,71.3 
						64.7,71 64.9,70.2 65,70.2 65,69.1 65.6,68.9 65.7,69 					"/>
					<polygon id="PH-NER" class="st1" points="62.7,79.1 62.9,78.5 65.2,75.8 65.4,75.1 66.6,73.3 66.1,72.3 67,72.3 67.5,72.6 
						67.5,72.6 67.5,73.3 67.2,73.9 67.2,74.3 66.2,76.3 66.4,77.2 66.4,77.7 66.2,77.5 66.1,77.7 66.5,78.1 66.4,78.2 66.3,78 
						66.2,78.2 66.4,78.2 66.6,78.7 66.9,78.8 67.1,79.4 67.5,79.8 67.3,80.5 66.7,81.3 66.2,81.6 65.9,81.5 65.5,81.7 65,81.4 
						64.6,80.4 64.5,79.7 63.9,79.5 63.1,79.4 					"/>
					<polygon id="PH-NCO" class="st1" points="75,91 75.7,90.8 76.1,91.2 76.4,91.3 76.8,91.1 77.5,91.3 77.5,91.3 77.6,91.8 
						77.3,92.2 77.5,92.1 78,92.6 78.3,92.5 78.6,92.7 79.1,92.7 79.2,92.4 79.8,92.3 80.1,91.6 80.2,91.6 80.2,91.4 80.4,91.5 
						80.4,91.5 80.4,91.6 80.4,91.6 80.5,92 80.2,93.1 80.4,93.7 80.2,94.1 80.6,94.6 80.8,95.2 80.6,95.2 80.4,95.7 79.8,96.2 
						79.7,96.6 79.4,96.6 79.5,97 79.5,97 78.7,97.2 78.7,97.2 78,96.8 77.7,96.9 77.5,96.8 77.5,95.4 77.3,95.3 77.3,95 77.5,95 
						77.5,94.8 77.3,94.8 77.3,94.6 76.8,94.1 76.7,94.4 77,94.7 76.9,94.7 76.9,94.8 76.8,94.7 76.7,94.9 76.6,94.8 76.8,95.4 
						76.5,95.7 76.2,95.6 75.9,95.6 75.5,95.1 75.3,95.2 74.8,94.8 74.8,94.8 75.4,93.8 74.8,93.8 74.5,94.2 74.2,94.2 74.7,93.3 
						74.8,93.3 75.2,92.3 74.9,91.8 					"/>
					<path id="PH-NSA" class="st1" d="M72.7,59.6l0.1,0.1l-0.1,0.1V59.6L72.7,59.6z M73.9,59.1l-0.2-0.7l0.2,0.3L73.9,59.1z
						 M73,58.3l0.3,0.5L73.2,59l-0.3-0.3L73,58.3z M74.9,57.6l0.2,0.2L75,57.8l-0.2-0.1L74.9,57.6z M75.3,57.6l0.2,0.3h-0.1
						l-0.2-0.3H75.3L75.3,57.6z M74.4,57.3l0.2,0.3l-0.2-0.1L74.4,57.3z M78.7,57.2l0.2,0.3l0.3,0.2L79,57.9h0.2v-0.3l0.3,0.1
						l0.2-0.2l0.8,0.6v0.1h0.2v0.3l0.3,0.2l-0.3,0.1l0.1,0.1l-0.2,0.2v0.2h0.2l-0.2,0.2v0.1l0.3-0.2v0.2h-0.1l0,0l-0.2,0.1L80,58.9
						l-0.3,0.6l0,0l-1.2,0.4L78,59.7l-0.3,0.8l-0.2-0.2l0.1-0.3l-0.9-0.5l-0.5,0.3l-1.1-0.6l-0.4,0.3h-0.5l-0.2-0.4l0.1-0.3
						l-0.1,0.1l-0.5-1.2l0.1-0.2l0.3,0.3h0.2v-0.1l0.2,0.1v-0.2l0.2,0.2l0.3-0.1v0.1l0.2,0.1h1.5l0.4-0.2l0.5,0.1l0.1-0.2l-0.2-0.1
						l0.5,0.1l0.2-0.1v0.2h0.3l0.2-0.1L78.7,57.2z M79.2,56.9l0.2,0.5l-0.4-0.1l0.2-0.1l-0.2-0.1V57L79.2,56.9z M74.4,56.8l0.2,0.1
						v0.3l-0.2-0.1V56.8z"/>
					<polygon id="PH-NUE" class="st1" points="51,33.3 52,33.2 53,33.4 53.2,34.7 53.7,35.7 53.7,35.7 54.3,37.7 53.9,39.7 
						53.9,39.7 53.4,39.7 52.8,39.2 52,39.3 51.5,39.6 51.5,39.6 51.2,39.7 50.9,40 50.8,39.7 50.4,39.7 50.3,39.2 50.3,39.2 
						50.4,39 50.1,38.8 50.2,38.2 50,37.3 50.2,36.9 49.8,36.8 49.5,36.5 49.2,35.3 49.2,35.3 50.1,35.2 50.6,35.6 50.9,35.4 
						51.3,34.3 					"/>
					<polygon id="PH-NUV" class="st1" points="54.1,28.8 54.5,29.2 54.6,29.6 54.6,29.6 54.4,30.9 54.9,31.1 54.8,31.7 53.8,32.1 
						54,33.8 55,34.6 55,34.6 53.7,35.6 53.7,35.6 53.2,34.6 53,33.4 52,33.2 51,33.3 51,33.3 50.7,32.8 50.2,32.6 50.2,32.6 
						50.2,32.3 50.5,31.8 50.8,31.8 51.1,31 51,30.5 51.2,29.9 51.2,29.9 53.8,29.4 53.8,29.2 54,29.1 					"/>
					<path id="PH-MDC" class="st1" d="M51.9,60l0.1,0.2h-0.2L51.9,60z M52.3,59.5l0.2,0.4v0.3l0.1-0.1l0.1,0.2l-0.1,0.1l-0.2-0.1
						l-0.1-0.3L52.1,60v-0.4L52.3,59.5z M48,51.1l2.2,0.4l0.9-0.2l0,0l-0.1,0.6l-0.6,0.9l3,1.5v5.8l0,0l-0.2-0.2h-0.7l-0.1-0.3h0.2
						l-0.1-0.5h-0.5l-0.8-1v-0.7l-0.5-0.7l-0.4-0.1V56l-0.2-0.1l0.2-0.5l-0.4-1l-0.6-0.9L49,53.2h-0.3V53l-0.3-0.2l-0.1-0.8
						l-0.2-0.1L47.8,52l-0.1,0.2h-0.2l-0.2-0.3l-0.1-0.2l0.2-0.3L48,51.1z M47.2,50l0.7,0.2l0.1,0.2L47.2,50z M47.1,49l0.3,0.2
						l-0.2,0.2l-0.3-0.2L47.1,49z M45.8,48.8l0.7,0.4l0.1-0.1l0.4,0.6l-0.2,0.1l0.2,0.1V50l-0.2,0.1l-0.1-0.2l-1-0.6l-0.2-0.4
						L45.8,48.8z M45.4,48.5l0.2,0.1l-0.1,0.1l-0.2-0.1L45.4,48.5z"/>
					<polygon id="PH-MDR" class="st1" points="51.7,51.5 52.2,51.9 53.1,51.8 53.2,51.7 53.6,52.2 53.9,52.3 54.4,53 54.8,53.1 
						54.8,53.7 55.2,53.7 55.6,53.9 55.6,54.1 55.1,54.6 55.2,55.2 55,56.3 55.5,57 55.5,57.2 55.2,57.8 54.8,58 54.8,58.3 
						54.5,58.5 54.5,58.8 54.8,59.1 54.3,59.1 54.4,59.6 54.2,59.5 54.2,59.3 54.1,59.3 54,59.5 53.6,59.6 53.4,60.1 53.4,60.1 
						53.4,54.3 50.4,52.8 51,51.9 51,51.3 51,51.3 51.4,51.3 					"/>
					<path id="PH-PLW" class="st1" d="M25.5,88.2l0.1,1.1l-0.1,0.1v0.4L25.1,90L25,89.9v-0.2l-0.5-0.6l0.3-0.1l-0.1-0.3l0.1-0.4v0.2
						l0.2-0.2v-0.1L25.5,88.2z M25.2,87.8l0.2,0.3l-0.3,0.1L24.9,88L25.2,87.8z M25.9,87.4h0.3l0.1,0.2H26L25.9,87.4z M25.6,87
						l0.2,0.2h-0.3L25.6,87z M27.1,86.5l0.2,0.2v0.5L27,87.5l-0.2-0.2v-0.6l0.1-0.1L27.1,86.5L27.1,86.5z M26.5,86.6h0.2v0.2
						L26.2,87l-0.1-0.2h0.2l0.3-0.3L26.5,86.6L26.5,86.6z M39.5,71.2l-0.1,0.2h-0.2l0.1-0.2l-0.1-0.1L39.5,71.2L39.5,71.2z M44,70.7
						l0.5,0.4H45l0.1,0.2L45,71.4v0.1l-0.2,0.1v-0.1l-0.1,0.2l-0.3-0.3l0.3,0.4h-0.4l0.1,0.2l-0.5,0.1L43.6,72l-0.1-0.6l0.1-0.1
						l0.2,0.1L44,71L44,70.7z M52.3,69l-0.1,0.2l0.1,0.1l-0.1,0.1v0.2L52,69.7l-0.2-0.2v-0.2L52.3,69z M40.3,68.2v0.5l-0.2-0.2v-0.2
						L40.3,68.2z M43.1,68l0.1,0.2h-0.2L43.1,68z M42.3,67.7l0.3,0.1v0.4l-0.1,0.1l-0.1-0.2l-0.2-0.1L42.3,67.7z M43,67.5l0.1,0.2
						l-0.1,0.1l-0.1-0.3L43,67.5z M51.7,67.1v0.1l-0.3,0.1v-0.1L51.7,67.1z M42.5,67h0.2v0.2l-0.4,0.2v-0.2L42.5,67z M43,66.1
						l-0.1,0.4l-0.1-0.2L43,66.1z M41.6,65.4l0.2,0.1v0.6l0.2,0.1l0.1-0.1l0.1,0.3L42,67.2l-0.2,0.3l0.2,0.4l0.2-0.1l0.1,0.5h-0.5
						l-0.1,0.9l0.3,0.4l0.3-0.2l0.2,0.1l-0.1,0.3l0.2,0.4l-0.2,0.4h0.3l0.2-0.2l0.1,0.1l0.1,0.1h-0.3l0.1,0.2L42.6,71l0.2,0.1
						l0.1,0.4h0.2L43,71.6l0.2,0.1l-0.9,0.6l-0.1,0.3h-0.8l-0.9,0.4L40,73.8l-0.3,1l-1.5,0.4l-0.5,0.1v-0.1l-0.5,0.3l-0.5,0.1
						l-0.1,0.6l0.2,0.3V77L36.6,77v-0.4l-0.2,0.2v0.3h0.2v0.2h0.2v0.1l-0.7,0.8L35,79.9l-0.4,0.1l-0.1,0.2h-0.2L34,80.7l-0.9,0.1
						L32.7,81l-0.2-0.1l-0.1,0.6h-0.2l0.1,0.2h-0.1l-0.4,0.9L30.9,83l-1,1l-0.8,0.2l-0.4-0.1l-0.2,0.2l0.1,0.3l-0.3,0.6L28,85.1
						l-0.2,0.2h-0.4l-1.1,0.9v0.2h-0.2v-0.2l0.2-0.4v-0.6l0.3-0.4l-0.1-0.2h0.1l0.1-0.4l0.3-0.1l0.1-0.2h-0.1l0.2-0.3l0.4-0.1v-0.2
						l0.2-0.2l0.1-0.3l0.6-0.7h0.2l0.2-0.3l0-0.3l0.4-0.3l0.1,0.2H30l0.2-0.7l0.2-0.2l0.3-0.1l0.3-0.3l0.3,0.1l0.2-0.2v0.2h0.2
						l0.4-0.6l0.3-0.1v-0.4l0.4-0.1l0.1-0.4l0.9-0.8l0.1-0.4l0.4-0.1l0.1-0.3l0.6-0.4l0.6-0.7v-0.3l0.3-0.1l0.1-0.3L36,75.1l0.5-0.2
						l0.3-0.7l0.1,0.7h0.2v-0.3l0.2-0.2l-0.2-0.1v-0.5l0.9-0.1l0.1-0.3L38,73.4h0.2L38,73.2h0.2v-0.2h0.2v-0.2h0.1l-0.1-0.2
						l-0.3,0.2l-0.1-0.2l0.1-0.2l0.3-0.1l0.3,0.2v-0.2l0.3-0.1l-0.2-0.1l0.1-0.2h0.2v0.5l0.2,0.2l0.5-0.7h0.3l0.1-0.2l-0.3-0.2
						l0.3,0l0.3-0.4l0.2-1l-0.2-0.3l-0.2,0.1l-0.1-0.4l-0.4-0.1l0.3-0.2L40,68.9h-0.2l0.1-0.2l-0.1-0.1H40v0.3l0.1-0.2l0.1,0.1V69
						h0.1l-0.2,0.1h0.3l-0.2,0.2l0.2,0.2v-0.1l0.1,0.2l0.2-0.1l-0.1,0.1H41l0.1,0.3l0.1-0.1l0.1,0.3h0.2l-0.2-0.5v-0.2l0.1-0.1
						l-0.3-0.2h-0.4l-0.1-0.1l0.2-0.3h-0.3v-0.4l0.1-0.2l0.1,0.3l0.2-0.1l-0.3-0.2l0.1-0.1h-0.1v-0.3l0.3,0.4h0.3l0.1-0.7h-0.2v-0.2
						l0.1-0.3v-0.7l0.4-0.3L41.6,65.4z M43.9,64.8l0.4,0.2v0.3l-0.3,0.5l-0.1-0.2l0.1-0.2h-0.2l-0.1,0.2l-0.4-0.5l0.1-0.1l0.3,0.3
						v-0.1h0.1l-0.2-0.1l0.1-0.1l0.2,0.3v-0.1l0.2,0.1L43.9,65h0.2L43.9,64.8z M46.1,63.1h0.2v0.1L46.1,63.1z M44.5,61.7l0.5,0.2
						h-0.2v0.2l0.5-0.1v0.1L45,62.2l0.6,0.2l-0.4,0.1h0.2l-0.1,0.2l0.3,0.1l-0.3,0.2h0.2l-0.1,0.3l-0.6,0.4l-0.1-0.5l0.4-0.4
						l-0.3-0.1v0.2h-0.2l-0.1-0.2l-0.1-0.3l0.1-0.1L44,61.8l0.3,0.2l-0.1-0.3L44.5,61.7z M46.8,61.6L47,62l-0.2,0.2H47v0.2l-0.3,0.2
						l-0.4-0.6L46.8,61.6z M44.4,59.3l0.2,0.1v0.3l0.6,0.1l0.3,0.4l0.2-0.1v0.2l0.4,0.4l0.3-0.1l0.1-0.5h0.1v0.5l0.2-0.1l0.1,0.2
						l0.3,0.2v0.7l-0.2,0.1l-0.3-0.2l-0.2,0.2l-0.4-0.3h-0.2v0.2l-0.2,0.3l-0.1-0.3l-0.2-0.1l-0.2,0.2L45,61.5l-0.6-1.3l-0.3,0.4
						l0.2-0.5L44.2,60l0.1-0.4l-0.1-0.1L44.4,59.3z"/>
					<polygon id="PH-PAM" class="st1" points="47.6,39.8 49,39.2 49.5,39.1 49.8,39.2 50.1,39 50.1,39.1 50.3,39.1 50.3,39.1 
						50.4,39.6 50.8,39.6 51,39.9 51.2,39.6 51.5,39.5 51.5,39.5 51.5,39.9 51.8,40.3 51.6,40.8 51.4,40.8 51.3,41 51.2,41 
						51.2,41.2 50.7,41.5 50.1,41.6 49.9,42.4 49.9,42.4 49.5,42.6 49,42.2 49,42.2 48.6,42.1 48.5,41.6 48.2,41.5 48.2,41.5 
						47.9,41.1 47.8,40.5 47.6,40.3 					"/>
					<path id="PH-PAN" class="st1" d="M45.1,31.6l0.2,0.2l-0.2,0.3l0.1,0.2l-0.2,0.1L44.6,32l0.2-0.2l0.1,0.2v-0.3L45.1,31.6z
						 M46.8,36.7l-0.7-1.4l-0.4,0.1l-0.4-0.2L45,35.5l-0.7-0.1l0,0l0.2-0.2l-0.3-0.8l-0.1-0.1l-0.2,0.1l0,0.2l-0.1-0.1l-0.1,0.1
						l-0.2-0.3l0.2-0.4l-0.1-0.2v-0.4l0.1-0.2l-0.2-0.3l0.2-0.5v-0.5l0.2-0.4h0.3l0.2-0.2l0.3,0.2l-0.1,0.9l0.5,0.2v0.1l0.3,0.3
						l0.1-0.2l0.4,0.1l0.2,0.2l-0.1,0.3l0.2,0.2l-0.1,0.1l0.3,0.2l1.2-0.1l0.6-0.7l0-0.3l0,0h0.6l0.1-0.2l0,0l1,0.3l0.8-0.1l0,0
						l0.5,0.2l0.3,0.5l0,0l0.3,0.9L51,35.3l-0.2,0.2l-0.5-0.4l-0.9,0.1l0,0l-0.2-0.4l-0.3,0.8l-0.5,0.3l-0.6-0.2l-0.5,0.7v0.1
						L46.8,36.7z M44.7,31.1l0.2,0.4l-0.3-0.1v-0.2L44.7,31.1z"/>
					<path id="PH-QUE" class="st1" d="M56.9,48.2h0.2v0.4l-0.4-0.1L56.9,48.2z M58.3,46.5l1.1,0.8l0.4,0.5h-0.2L58.5,47L58,46.5
						l0.1-0.3L58.3,46.5z M57.4,45.8h0.2l-0.2,0.4l-0.1-0.3L57.4,45.8z M61.3,42.8l0.2,0.2l-0.1,0.1l-0.8,0.1l0.2-0.2L61.3,42.8z
						 M59.5,42.2l0.3-0.1v0.3l0.5,0.1v0.4l-1-0.5l-0.1-0.3L59.5,42.2z M58.7,41.8l0.4,0.3h-0.4L58.7,41.8L58.7,41.8z M58.2,40.6
						l0.5,0.2l-0.1,0.2h0.3v0.3L58.7,41h-0.1l-0.1,0.2l0.2-0.1v0.3l-0.4,0.1l0.1,0.5l0.3,0.2l0.1,0.7l-0.2,0.3l-0.4,0.3l-0.2-0.3
						v-0.3l0.2,0.1l-0.2-0.6l-0.5-1.1v0.2l-0.2-0.1l0.2-0.7l0.2,0.1L58.2,40.6z M54.1,41v-0.3l0.4-0.6l-0.1-0.3l0.3-0.3l0,0l0.4,0.2
						l0.2,0.9L56,42l-0.1,0.2l0.9,0.9h-0.3l-0.3,0.2L56,43.2l-0.1,0.2l0.4,1.8l0.4,0.5V46l0.2,0.2l-0.2,0.6l1.4,1.2l1,0.4l0.9,0.2
						l0.1-0.3l-0.3-0.1L59.8,48l0.8,0.2V48l0.2-0.2h-0.2v-0.1l-0.6-0.4l-0.2-0.3v-0.1l0.2,0.1v-0.2l0.2-0.2l0.2,0.1v-0.5l0.2,0
						L60.4,47l0.3-0.1l-0.1,0.4l0,0v0.1H61l0.5-0.6l2.3,0.9l0,0l-1.6,0.5l0,0l-0.1-0.1v0.3h-0.5l0.5,0.8L62,49.5l0.1,0.3h-0.2
						l-0.1,0.1l0.1,0.5l0.3,0.4l0.6,0.4l-0.1,0.1l-0.4-0.3l0.8,1.2v0.7l0.2,0.3l-0.7,0.4L62,53.1l0.1-0.3v-0.5l-0.8-1.2l-0.5-0.2
						l-0.1-0.2l-0.3,0.1h-0.1l0.1-0.1l-0.1-0.1H60v-0.2l-0.7-1L59,49.5l-0.2-0.2h-0.3L58.5,49l-0.5-0.1l-0.1-0.2h-0.3l-0.1-0.3h-0.2
						L57,48.1h-0.4l0.1,0.3L56,48.5l-0.1,0.1l-0.1-0.1l-1,0.6l0,0l-0.6-0.3h-0.7l-0.2-0.3l0.2-0.1v-0.2l0,0L54,48l0.7-0.5l0.4-0.1
						l0.2-0.5l0.3-0.2l0.4-0.6l0-0.9l-0.4-0.1L55,43.9l0,0l-0.8-1.5v-0.8l0,0L54.1,41z"/>
					<polygon id="PH-QUI" class="st1" points="54.6,29.6 55.6,29.6 56.9,31.3 59.1,30.3 59.4,30.3 59.4,30.3 59,30.6 57.5,32.5 
						55,34.6 55,34.6 54,33.8 53.8,32.1 54.8,31.7 54.9,31.1 54.4,30.9 					"/>
					<path id="PH-RIZ" class="st1" d="M53.5,45.6v0.3l-0.2-0.4v-0.5l0.1,0.5l0,0L53.5,45.6L53.5,45.6z M54.2,41.7v0.8l0.8,1.4l0,0
						l-0.6,0.4l-0.1,0.4v0.6l0.1,0.2l-0.5,0.4l0.2-0.8L54,44.7l-0.5-0.4l-0.2,0.3V45l-0.3-0.7l-0.4-0.1l0,0v-0.7l0.2-0.2l-0.2-0.1
						l0.2-0.4l-0.1-0.1l0,0l0.5-0.5l0.5-0.1L54.2,41.7z"/>
					<path id="PH-ROM" class="st1" d="M58.1,60.9l0.2,0.2v0.2L58,61.1L58.1,60.9z M62.2,58.1l0.7,0.2l0.3,0.6l-0.1,0.5l-0.3,0.4
						l-0.5-0.3l-0.1-0.3l-0.6-0.2l-0.2-0.2l0.2-0.4L62.2,58.1z M60.5,57.3l0.3,0.6v0.2l-0.2,0.2l-0.4-0.4l0.1-0.1l-0.1-0.2h0.2
						L60.5,57.3z M59.3,56.9l0.3,0.1l0.1,0.2h-0.2l0,0.1l0.1,0.5l-0.2,0.3l-0.2,1.3L58.8,60v0.2l0.2,0.1l-0.3,0.2l-0.1,0.4l-0.4-0.6
						l0.1-0.3l0.1,0.3l0.2-0.3l-0.3-0.2l-0.2-0.3l-0.1,0.1v-0.2l0.1-0.5l0.3-0.1l0.1-0.2v-1l0.5-0.2L59.3,56.9z M59.1,55.8L59,56.2
						h-0.2L59.1,55.8z M56.6,55.1l0.2,0.1l-0.1,0.2l-0.2-0.2L56.6,55.1z M59.1,55h0.1l-0.1,0.3L59,55.3L58.8,55L59.1,55z"/>
					<path id="PH-WSA" class="st1" d="M77.6,63.7l0.4,0.1l-0.1,0.4l-0.3-0.1l-0.1-0.5L77.6,63.7z M76.9,63.4l0.1,0.3l0.2-0.1
						l-0.1,0.2l0.3,0.2l-0.1,0.3h0.4l-0.2,0.5l-0.2-0.1l0.1-0.1l-0.3-0.1v-0.2h0.2l-0.5-0.4L76.9,63.4L76.9,63.4L76.9,63.4z
						 M77,63.3l0.2,0.1l-0.1,0.2L77,63.3z M76.3,62.1l0.1,0.1v0.1L76.3,62.1z M75,62.1l0.1,0.3h-0.3v-0.2L75,62.1z M74.2,61.8V62
						L74,62.2h-0.2V62L74.2,61.8z M74.8,61.6v0.2l-0.2-0.1L74.8,61.6z M73.5,61l0.1,0.2l-0.2-0.1l-0.3,0.2L73,61.3l0.2-0.2L73.5,61z
						 M74.4,59.6h0.5l0.4-0.3l1.1,0.6l0.5-0.3l0.9,0.5l-0.1,0.3l0.2,0.2l0.3-0.8l0.5,0.2l1.2-0.4l0,0v0.7l-0.2,0.1v1.2h0.6l0.4,1
						l0.1,1.2l-0.4,0.3l-0.1,0.2l0.2,1l0.5,0.3l-0.4,0.5v1.4l0,0l-0.1,0.2l-0.2-0.1l-0.4-1.3l-0.5-0.1l-0.4,0.1l-0.2-0.1v-0.3
						l0.2-0.2l-0.2-0.7l-0.4-0.1L78,64.9v0.3h-0.3L77.5,65l0.2-0.4l0.1,0.1H78l-0.1-0.3h0.6l-0.1-0.1l0.2-0.1l-0.1-0.4l0.4-0.3v-0.3
						l-0.3-0.1l-0.6,0.3l-0.1-0.1l-0.2-0.4l-0.6-0.3l0.2-0.2l-0.1-0.1l-0.4,0.1v-0.2l0.2-0.1L76.8,62v-0.2l-0.5-0.5l-0.7-0.1
						l-0.9-0.9L74.4,59.6z"/>
					<path id="PH-SAR" class="st1" d="M81.4,105.9l0.2,0.1l0,0.4h-0.5l-0.1-0.2L81.4,105.9z M81.9,105.5l0.1,0.2l-0.2,0.5l-0.1-0.3
						l0.1-0.1l-0.1-0.1H82L81.9,105.5z M74.7,100.7l2.7,1.4l1.5,0l0.2-0.4v0.6h0.3l0,0l-0.2,0.7h-1l-2.1-0.8l-0.2-0.2l-0.4-0.1
						l-1.1-0.6l0,0L74.7,100.7z M79.9,99l0.5,0.3l0.5-0.2l0.2-0.3l0.5,0.1l0.5,0.6v0.4l-0.2,0.2l0.3,0.5v0.6l0.2,0.2l-0.4,1.3l0,0.4
						l-0.6,1.3l-0.6,0.4l0.1,0.1l0,0l-0.2-0.1l0.1-0.3l-0.1-0.4l-0.3-0.2l-0.1-0.3h-0.2l-0.1-0.2v-0.2l0.2,0.1l0-0.4l0.4-0.2
						l0.1-0.4l-0.1-0.7l-0.2-0.1l0,0v-0.5l0.2-0.7l-1.3-0.5l0.3-0.5h0.2L79.9,99z"/>
					<polygon id="PH-SIG" class="st1" points="69.3,79.9 69.5,79.9 69.9,80.4 69.7,80.6 70,80.9 69.8,81.1 69.6,81.1 69.2,81.3 
						68.3,80.6 68.4,80.4 69,80.4 69.2,80.2 					"/>
					<polygon id="PH-SOR" class="st1" points="71.7,54 71.8,54 72.6,54.7 72.9,54.2 73.3,54.4 73.3,54.6 73.2,54.7 73.1,54.6 
						72.9,55.2 72.8,55.3 73,55.5 73.1,56.1 72.9,57.1 72.7,57.3 72.8,57.6 72.6,57.7 72.7,57.8 72.6,58 72,57.9 71.6,57.5 
						71.6,57.3 71.5,57.3 71.2,57.1 70.9,55.9 71.1,55.6 71.6,55.8 71.7,55.6 72.2,55.6 72.3,55.2 72.2,54.9 71.8,55 71.3,54.9 
						71.1,55.4 70.9,55.4 70.9,55.6 70.8,55.5 70.7,55.7 70.4,55.5 70.2,55.8 70.2,55.5 69.9,55.7 69.9,55.3 69.6,55.5 69.6,55.7 
						69,55.2 68.8,55.2 68.5,54.8 68.5,54.8 69.1,54.5 69.5,54.7 70.2,54.6 70.4,54.8 71,54.5 71.3,54.5 71.6,54 71.6,54 					"/>
					<polygon id="PH-SCO" class="st1" points="74.7,100.7 74.1,100.5 73.9,99.9 75.7,99.9 76,100 76.3,99.5 76.1,98.7 76.3,98 
						76.4,98 76.5,98.2 77,97.7 77.6,98.6 80,98.6 80,98.6 79.9,99.1 79.9,99.1 79.7,99.4 79.5,99.4 79.2,99.9 80.5,100.4 
						80.3,101.1 80.3,101.6 80.3,101.6 79.8,101.5 79.4,102.5 79.4,102.5 79,102.5 79,101.9 78.8,102.2 77.3,102.2 					"/>
					<polygon id="PH-SLE" class="st1" points="79.7,70.9 80,71.2 79.8,71.5 80,71.9 79.9,72.2 80.2,72.5 80.3,72.5 80.5,72.6 
						80.5,73.1 80.4,73.4 80.2,73.5 79.6,73.3 79.6,74.1 80.2,74.3 80.6,75.2 80.7,75.7 80.5,75.7 80,74.9 79.7,74.7 79.6,73.9 
						79.3,73.7 78.8,72.6 78.5,72.6 78.6,73.7 78.9,74.5 78.9,75.1 78.1,74.5 78,74.3 77.2,74.2 77.1,73.8 77.1,73.8 77.2,73.8 
						77.7,73.3 78.1,73.3 78.1,72.3 78.4,71.5 79.1,71.5 					"/>
					<polygon id="PH-SUK" class="st1" points="72.3,97.1 73.8,97.1 73.9,97.3 75.4,97.3 75.9,96.8 75.7,96.3 76.4,96.2 76.7,96.3 
						76.5,96.9 77,96.9 77.4,97.8 77.9,97.8 78.7,97.3 78.7,97.3 79.5,97.1 79.5,97.1 79.7,97.2 79.6,97.3 79.6,97.6 79.9,98 
						80,98.5 80,98.5 77.6,98.5 77,97.6 76.5,98 76.4,97.8 76.3,97.8 76,98.6 76.3,99.3 76,99.9 75.6,99.8 73.8,99.8 74.1,100.3 
						74.6,100.5 74.6,100.5 74.3,101.2 74.3,101.2 74.1,101.2 73.2,100.5 73.1,100.1 72.7,99.8 72.5,99.3 72.3,99.4 72.1,98.4 
						72.4,98.2 72.2,98.2 72.3,97.7 72.1,97.1 					"/>
					<path id="PH-SLU" class="st1" d="M50.6,105.4l0.1,0.2l-0.2,0.2L50.6,105.4z M50.5,105.6l-0.2,0l0.2-0.2L50.5,105.6z M50.5,105
						l0.1,0.1l-0.1,0.2l-0.3,0.2l-0.1-0.2l0.1-0.2L50.5,105z M50.9,104.9l0.4,0.3l-0.3,0.3l-0.3-0.4L50.9,104.9z M52.4,104.2
						l-0.2,0.2l-0.2-0.2L52.4,104.2L52.4,104.2z M51,104.1l0.2,0.1l-0.2,0.2h-0.4l0.1-0.2H51L51,104.1z M51.3,103.8l0.1,0.3
						l-0.3,0.2v-0.3L51.3,103.8z M52.9,103.1l0.3,0.1l0.1,0.2l-0.5,0.1L52.9,103.1z M44.8,102.9l0.2,0.2l-0.3-0.1L44.8,102.9z
						 M45.2,102.5v0.2l-0.1-0.1L45.2,102.5z M55.8,102.3l0.1,0.2l-0.2,0.1l-0.1-0.2L55.8,102.3z M46,102.4l-0.2-0.1l0.1-0.1
						L46,102.4z M55.6,101.9l-0.2,0.2l0.1-0.3L55.6,101.9z M54.7,101.8l0.1,0.3h-0.3v-0.1L54.7,101.8z M56.4,101.8l0.4,0.2l-0.4,0.3
						l-0.1-0.1l0.2-0.2L56.4,101.8z M52.6,101.5l0.3,0.1l0.3,0.6l0.5-0.2l0.2,0.1l0.5-0.1l0.2,0.4l-0.2,0.1v0.2l-0.2-0.1l-0.4,0.4
						V103l-0.3-0.1v-0.3l-0.3-0.1l-0.8,0.5l-0.3-0.3l-0.6,0.3l-0.4-0.2v-0.2l0.3-0.5l0.5-0.2l0-0.3L52.6,101.5z M57.1,101.5l0.6,0.5
						l0.6-0.2l-0.6,0.4l-0.5-0.4l-0.1-0.2L57.1,101.5z M48.8,101.2l0.1,0.1l-0.1,0.1L48.8,101.2z M57.5,101.2l0.1,0.2h-0.2
						L57.5,101.2z M48.2,101v0.3l-0.2-0.1L48.2,101z M57.4,101l0.1,0.2l-0.2,0.1l-0.1-0.2L57.4,101z M51.7,100.8l0.2,0.1v0.1h-0.1
						L51.7,100.8z M49.6,100l0,0.3l-0.2,0.2l-0.1-0.1L49.6,100z M51,99.9l0.1,0.2l-0.2,0.1L51,99.9z M49.2,99.5l-0.2,1h-0.7v-0.1
						h0.3l0.2-0.7L49.2,99.5z M50,99.2v0.2l-0.3-0.1L50,99.2z"/>
					<path id="PH-SUN" class="st1" d="M82.9,77h0.2v0.4L82.9,77L82.9,77L82.9,77z M85.6,77h0.3v0.1h-0.2l-0.2,0.2v-0.1l-0.2,0.1V77
						l0.2,0.2L85.6,77z M85,76.8V77l0.2-0.1l0.1,0.1l-0.1,0.3l0.2,0.2l-0.2,0.6L85,78.2l-0.3-0.4l0.1-0.1v-0.2H85l-0.1-0.7L85,76.8z
						 M83,76.6l0.2,0.3l-0.3-0.1L83,76.6z M83.6,76.6l0.1,0.1l-0.1,0.2l-0.2-0.1v-0.2L83.6,76.6L83.6,76.6z M82.1,76.6l0.1,0.2h0.5
						l-0.1,0.1l0.2,0.2l0.1,0.6l0.3,0.2l0.6,0.1v0.2l0.7,0.2l0.2,0.3h0.3l0,0l-1.1,1.2l0,0v-0.5l-0.4-0.3l-0.8-0.2l-0.7,0.1l0,0
						l-0.5-1.4l0.1-0.8l0.3-0.2v-0.2l0.2,0.1l-0.1,0.1L82.1,76.6z M83.1,75.8v0.2v0.1l0.1,0.1h0.2l-0.7,0.3v-0.2l-0.1,0.1v-0.1
						L83.1,75.8z M82.2,75.8l0.2,0.3L82.2,76L82.2,75.8z M85.3,75.8l-0.4,0.3l0.4-0.4L85.3,75.8L85.3,75.8z M85.9,74.8l0.4,1.3
						l-0.1,0.1l0.3,0.1v0.3h0.1l-0.4,0.4h-0.4l-0.7-0.6l0.1-0.1h0.2l-0.2-0.2L85.9,74.8z"/>
					<path id="PH-BAS" class="st1" d="M58.5,100.1v0.1h-0.2v-0.1L58.5,100.1z M56,98.1l0.1-0.4l-0.5-0.3L56,98.1z M58.8,99.9
						l-0.1-0.1l-0.1,0.1L58.8,99.9L58.8,99.9z M58.4,99.7l-0.2,0.1l0.2,0.1L58.4,99.7z M59.5,97.6v-0.3h-0.3L59,97l-0.5,0.1
						l-0.7,0.5l-0.3-0.2L57.2,98l0.6,0.3l-0.1,0.4l0.6,0.5v0.2h0.5l1-0.3l0.2-0.9l0.6-0.1l0.2-0.2l-0.1-0.1L59.5,97.6z"/>
					<polygon id="PH-ZAS" class="st1" points="64.7,89.2 65,89.2 65.8,88.7 66.4,88.7 66.6,87 69,87.2 69,87.2 69.1,88.3 69.6,88.4 
						69.6,88.5 69.6,88.5 69.8,88.9 69.8,88.9 69.4,89.8 69.4,89.8 69.1,89.6 68.1,89.9 68.1,90.2 68.5,90.4 68.5,90.8 68.4,91.1 
						67.8,91.2 67.8,91.6 67.6,91.4 67.5,91.6 67.8,91.7 67.9,92.2 68,92.2 68.2,92.4 68.2,92.6 68.3,92.8 68,92.9 67.1,92.2 
						67.2,91.7 66.7,91.7 66.5,91.9 66.6,92 66.4,92.2 66.4,92 66.1,91.8 66,91.5 66.2,91.4 65.9,91.2 66.1,91.2 66.2,91.4 
						66.6,91.3 66.5,91 66.1,90.8 66.2,90.5 66.1,90.4 65.9,90.6 65.9,90.6 65.9,89.9 64.7,89.7 64.7,89.1 64.7,89.1 					"/>
				</g>
			</g>
		</g>
	</g>
</g>
</svg>
