<?xml version="1.0" encoding="UTF-8" standalone="no"?>
<svg width="65px" height="112px" viewBox="0 0 65 112" version="1.1" xmlns="http://www.w3.org/2000/svg" xmlns:xlink="http://www.w3.org/1999/xlink">
    <!-- Generator: Sketch 42 (36781) - http://www.bohemiancoding.com/sketch -->
    <title>philippines-outline</title>
    <desc>Created with Sketch.</desc>
    <defs></defs>
    <g id="01-Dashboard-(START-HERE)" stroke="none" stroke-width="1" fill="none" fill-rule="evenodd">
        <g id="Home" transform="translate(-88.000000, -151.000000)">
            <g id="Country-Overview" transform="translate(15.000000, 137.000000)">
                <g id="philippines-outline" transform="translate(65.000000, 11.000000)">
                    <rect id="container" x="0" y="0" width="80" height="115"></rect>
                    <g id="Layer_1" transform="translate(7.000000, 3.000000)" fill="#B1B2B3">
                        <polygon id="PH-SUR" points="61.38 78.71 61.65 78.88 61.22 79.13 61.58 79.46 61.84 79.19 61.72 79.43 61.97 80.11 62.25 80.33 62.72 80.18 63.05 79.83 63.31 79.83 62.98 81.2 63.19 81.4 63.19 81.3 63.93 82.2 63.82 82.4 64.05 82.45 63.93 82.71 64.12 82.98 63.99 82.98 64.07 83.06 63.91 83.34 63.58 83.41 63.3 83.69 63.3 83.83 63.52 83.94 63.13 83.94 62.58 84.26 62.43 84.52 62.72 84.72 62.64 84.83 62.84 85.07 63.35 85.07 63.13 84.89 63.28 84.83 63.82 85.02 64.26 84.89 64.26 85.09 64.52 85.09 64.52 85.42 64.29 85.42 64.19 85.71 64.36 85.71 64.36 85.85 64.2 86.12 63.95 86.21 64.02 86.5 64.42 86.65 63.92 87.08 64.12 87.38 64.88 86.97 64.69 87.86 64.85 87.96 64.54 88.56 64.6 88.73 64.83 88.73 64.41 88.96 64.23 89.26 64.23 89.26 64.17 88.65 64.17 88.65 64.17 88.31 63.86 88.22 64.26 87.83 63.81 87.83 63.23 87.42 63.33 87.07 63.8 86.68 63.65 86.32 63.73 85.89 63.59 86.09 63.05 86.09 62.5 86.02 62.24 85.77 62.56 85.41 62.11 85.41 61.99 84.71 61.81 84.6 61.81 84.17 61.94 83.98 61.5 82.98 61.17 82.6 61.11 81.48 60.28 80.36 60.28 80.36 60.28 79.76 60.28 79.76 61.42 78.61 61.42 78.61 61.42 78.74"></polygon>
                        <polygon id="PH-TAR" points="25.74 35.2 26.02 36.37 26.31 36.67 26.69 36.77 26.47 37.16 26.76 38.07 26.59 38.62 26.88 38.84 26.81 39.11 26.81 39.11 26.62 39.11 26.62 38.99 26.34 39.15 26.06 39.05 25.49 39.13 24.13 39.76 24.13 39.76 23.56 38.92 22.74 38.43 22.89 37.43 23.13 36.96 23.41 36.8 23.35 36.67 23.35 36.67 23.82 36.45 23.82 36.32 24.33 35.64 24.92 35.89 25.37 35.61 25.64 34.79"></polygon>
                        <path d="M17.74,110.4 L17.65,110.64 L17.5,110.48 L17.72,110.19 L17.72,110.35 L17.74,110.4 Z M20.46,110.01 L20.73,110.2 L20.38,110.2 L20.38,110.07 L20.46,110.01 Z M17.97,109.4 L18.31,110.4 L17.99,111.19 L17.97,109.4 Z M20.3,109.32 L20.64,109.49 L20.64,109.73 L20.31,109.73 L20.31,109.27 L20.3,109.32 Z M21.75,108.75 L21.67,109.07 L21.54,109.07 L21.54,108.75 L21.75,108.75 Z M20.13,108.61 L20.13,108.74 L19.89,108.74 L19.89,108.61 L20.13,108.61 Z M22.44,108.61 L22.52,108.78 L22.28,108.59 L22.44,108.61 Z M23.12,108.61 L22.86,108.61 L23.02,108.47 L23.12,108.61 Z M20.34,107.98 L20.34,108.38 L19.83,108.54 L20.01,108.12 L20.34,107.98 Z M23.7,107.98 L23.7,108.19 L23.46,108.19 L23.7,107.98 Z M23.94,107.82 L23.89,108 L23.79,108 L23.79,107.8 L23.94,107.82 Z M23.7,107.5 L23.46,107.64 L23.27,107.58 L23.42,107.1 L23.68,107.32 L23.68,107.48 L23.7,107.5 Z M24.05,107.08 L23.91,107.58 L23.85,107.31 L24.05,107.08 Z M23.05,106.47 L23.05,106.79 L23.31,106.96 L23.15,107.24 L23.15,107.97 L22.76,107.83 L22.94,107.57 L22.78,107.5 L22.7,107.7 L22.46,107.55 L22.29,107.79 L21.91,107.59 L21.61,107.77 L21.38,108.29 L21.18,108.22 L20.71,108.49 L20.44,108.43 L20.38,107.97 L20.51,107.81 L21.26,107.54 L21.51,107.22 L21.85,107.22 L22.85,106.48 L23.05,106.47 Z M25.63,106.12 L25.47,106.04 L25.53,105.87 L25.71,106.03 L25.63,106.12 Z M11.63,95.06 L11.77,95.2 L11.65,95.44 L11.82,95.63 L11.11,95.46 L10.96,95.25 L11.63,95.06 Z" id="PH-TAW"></path>
                        <polygon id="PH-ZMB" points="20.88 35.38 21.57 35.48 21.83 35.11 22.21 35.35 22.64 35.26 23.35 36.69 23.35 36.69 23.41 36.82 23.13 36.98 22.89 37.46 22.74 38.46 23.56 38.95 24.13 39.79 24.13 39.79 24.13 40.22 24.39 40.41 24.5 41.01 24.77 41.43 24.77 41.43 24.6 41.76 24.2 41.7 24.08 41.99 24.08 41.99 23.66 42.32 23.18 41.79 23.03 41.87 23.11 42.22 22.87 42.74 22.23 42.42 22.41 42.18 22.21 42.23 22.21 41.96 21.99 41.67 22.08 40.84 21.75 39.11 21.22 38.25 20.9 37.98 21.08 37.86 21 37.55 21.25 37.66 21.42 37.45 21.21 37.12 21.29 37 21.08 37.09 21.14 36.85 21 36.67 21.2 36.17 20.76 35.88 21.03 35.74"></polygon>
                        <polygon id="PH-ZAN" points="44.41 83.77 44.7 83.84 44.8 84.06 45.13 83.94 45.04 84.34 45.5 84.48 45.5 84.48 45.5 87.22 45.5 87.22 43.16 87.06 42.93 88.7 42.33 88.7 41.55 89.27 41.24 89.27 41.24 89.27 40.15 89.1 39.54 89.19 38.79 89.54 38.12 90.1 37.49 90.4 36.94 91.21 36.5 92.3 36.5 92.3 36.17 92.94 36.01 93.94 35.51 94.41 34.36 94.41 34.36 94.41 34.84 93.72 35.44 93.41 35.21 92.98 35.62 92.05 35.51 91.87 35.7 91.87 35.98 91.54 35.73 91.39 35.93 90.91 35.81 90.54 35.6 90.45 35.72 90.27 35.86 90.27 35.86 89.97 36 89.97 36.12 89.62 36.57 89.28 36.57 88.93 37.37 88.41 38.97 88.11 39.49 87.58 39.65 87.86 39.88 87.92 41.17 87.69 41.73 87.23 41.73 86.98 41.34 86.59 41.65 86.45 41.65 85.87 41.84 85.77 41.99 85.35 42.21 85.18 43.01 85.06 43.79 85.15 44.13 84.37 44.56 84.37 44.56 84.17 44.28 83.89"></polygon>
                        <path d="M36.88,95.4 L36.88,95.68 L36.59,95.68 L36.59,95.78 L36.34,95.99 L36.5,95.53 L36.88,95.4 Z M41.1,92.4 L40.96,92.89 L40.68,92.45 L40.45,92.53 L40.35,93.05 L40.5,93.1 L40.5,93.38 L40.67,93.51 L40.78,93.3 L41.13,93.22 L41.26,93.03 L41.47,93.1 L41.3,92.88 L41.64,92.94 L41.39,92.68 L41.1,92.4 Z M40.1,89.02 L39.49,89.11 L38.74,89.46 L38.07,90.02 L37.44,90.32 L36.89,91.13 L36.5,92.3 L36.17,92.94 L36.01,93.94 L35.51,94.41 L34.36,94.41 L34.36,94.41 L34.36,94.87 L34.63,95.63 L35.77,96.14 L36.06,96.01 L36.29,95.7 L36.42,94.92 L36.77,94.64 L36.7,94.12 L36.92,93.84 L36.99,93.23 L37.18,93.13 L37.18,93.33 L37.28,93.33 L37.63,92.82 L37.3,92.82 L37.38,92.37 L38,91.9 L38.25,91.9 L38.5,91.48 L38.13,91.56 L37.99,91.42 L38.39,91.12 L38.34,90.98 L38.75,90.42 L39.52,90.06 L39.62,90.22 L39.76,90.07 L40.11,90.33 L40.26,90.24 L40.56,90.36 L40.56,90.57 L40.43,90.49 L40.31,90.83 L40.31,91.39 L40.54,91.74 L40.47,91.86 L40.31,91.75 L40.25,92.1 L40.25,92.21 L40.38,92.08 L40.5,92.15 L40.5,92.45 L40.91,92.24 L40.78,92.03 L41.1,91.7 L41.41,92.14 L41.56,92.09 L41.69,92.29 L41.98,91.48 L41.92,91.16 L42.13,91.16 L42.13,90.8 L42.28,90.8 L42.37,90.61 L42.37,90.61 L42.29,89.9 L41.15,89.76 L41.15,89.18 L40.1,89.02 Z" id="PH-ZSI"></path>
                        <polygon id="PH-ABR" points="27.86 20.23 28.26 20.5 28.41 21.17 28.79 21.17 29.01 21.34 29.16 22.34 29.16 22.34 28.95 22.46 29.14 23 29.08 23.2 28.33 23.69 28.33 24.27 27.8 25.4 27.8 25.4 27.69 25.8 27.43 25.8 27.03 25.8 26.75 26.01 26.33 26.01 26.15 25.78 26.25 25.35 25.79 24.97 25.41 24.97 25.28 24.62 25.59 23.79 25.19 23.63 24.9 23.76 24.8 23.61 25.26 22.2 25.26 22.2 25.5 21.48 26.23 21.23 26.48 20.82 26.85 20.69 27.19 20.35 27.7 20.42"></polygon>
                        <polygon id="PH-AGN" points="58.26 78.95 58.99 78.82 59.83 78.97 60.19 79.27 60.19 79.72 60.19 79.72 60.19 80.32 60.19 80.32 60.27 80.8 60.13 81.41 59.79 82 59.5 83.21 59.74 83.96 58.55 83.96 58.15 84.23 56.84 84.23 56.77 82.91 56.93 82.78 56.69 82.45 56.8 82.22 56.59 81.31 56.59 81.31 56.8 81.73 57.08 81.99 57.43 81.99 57.43 82.14 57.49 82 58.07 82.1 58.69 81.83 58.76 80.63"></polygon>
                        <polygon id="PH-AGS" points="60.29 80.33 61.12 81.45 61.25 82.76 61.58 83.14 62.02 84.14 61.89 84.33 61.89 84.76 62.07 84.87 62.19 85.57 62.64 85.57 62.32 85.93 62.58 86.18 63.13 86.25 63.66 86.25 63.8 86.05 63.72 86.48 63.87 86.84 63.4 87.23 63.3 87.58 63.88 87.99 64.33 87.99 63.93 88.38 64.24 88.47 64.24 88.81 62.97 88.81 62.18 89.25 61.86 89.06 61.74 88.82 59.69 88.82 57.69 88.91 57.69 88.91 57.69 88.29 57.45 87.5 57.52 87.22 56.83 86.32 56.72 84.89 56.72 84.89 56.72 84.36 58.03 84.36 58.43 84.09 59.62 84.09 59.38 83.34 59.76 82.15 60.1 81.56 60.24 80.95"></polygon>
                        <path d="M34.78,61.98 L35.6,62.66 L36.6,62.82 L37.19,63.36 L37.56,63.36 L37.5,63.54 L37.69,63.44 L37.92,63.84 L38.44,64.26 L38.35,64.33 L37.9,63.88 L37.72,63.95 L37.94,64.14 L37.94,64.35 L38.09,64.35 L38.09,64.21 L38.09,64.57 L38.29,64.57 L38.39,64.29 L38.92,64.59 L38.92,64.59 L38.49,65.08 L37.71,65.08 L37.09,65.93 L36.4,66.21 L36.4,66.21 L36.28,66 L36.34,65.71 L35.97,65.11 L36.1,64.7 L36.01,63.94 L36.26,63.43 L36.15,63.17 L34.97,62.69 L34.61,62.69 L34,63.09 L34,63.09 L34.25,62.73 L34.25,62.16 L34.78,61.98 Z M34.54,61.56 L34.66,61.97 L34.42,61.64 L34.54,61.56 Z" id="PH-AKL"></path>
                        <path d="M49.36,53.1 L49.86,53.27 L49.95,53.52 L48.88,53.3 L49.36,53.1 Z M48.36,52.79 L48.41,52.93 L48.53,52.74 L48.7,52.94 L48.8,52.8 L49.17,52.94 L48.66,53.23 L48.45,53.08 L48.17,53.08 L47.88,52.71 L48.36,52.79 Z M47.54,52.29 L48.05,52.47 L47.75,52.79 L47.92,53.08 L47.74,53.18 L47.44,52.85 L47.6,52.56 L47.45,52.42 L47.54,52.29 Z M46.95,51.92 L47.53,52.18 L47.42,52.35 L46.95,51.92 Z M45.87,51.18 L46.36,51.44 L46.83,52.51 L47.64,53.07 L47.64,53.18 L47.06,53.18 L46.92,53.59 L47.13,53.96 L47.06,54.13 L46.9,54.13 L46.9,54.29 L47.24,54.41 L47.75,53.76 L48.16,53.93 L48.16,53.93 L47.92,54.46 L47.5,54.46 L46.9,54.83 L46.67,54.57 L45.96,54.66 L45.59,54.52 L44.96,54.81 L44.96,54.81 L44.46,54.42 L43.89,54.7 L43.63,54.36 L43.63,53.73 L43.89,53.39 L43.54,52.95 L43.54,52.95 L44.6,52.27 L44.96,52.27 L45.59,52.01 L45.59,51.71 L45.3,51.27 L45.69,51.14 L45.69,51.14 L45.87,51.18 Z" id="PH-ALB"></path>
                        <path d="M34.01,63.18 L34.62,62.78 L34.98,62.78 L36.16,63.26 L36.27,63.52 L36.02,64.03 L36.11,64.79 L35.98,65.2 L36.35,65.8 L36.29,66.09 L36.41,66.3 L36.41,66.3 L36.41,66.97 L36.66,67.48 L36.66,67.48 L37.21,68.24 L37.21,68.88 L36.38,69.56 L36.21,70.09 L35.53,70.54 L35.18,71.33 L35.11,71.88 L35.24,72.06 L35.24,72.06 L34.78,72.47 L34.45,72.2 L34.45,71.81 L34.75,71.49 L34.89,70.7 L34.52,70.04 L34.93,68.91 L35.4,68.22 L35.26,67.14 L35.39,66.65 L35.22,66.39 L35.43,66.1 L35.43,65.25 L35.66,65.02 L35.76,63.63 L35.52,63.38 L34.01,63.18 Z M31.26,62.46 L31.91,62.61 L31.8,62.74 L31.12,62.69 L31.26,62.46 Z M32.07,61.83 L32.26,62.2 L32.06,62.3 L31.96,61.9 L32.07,61.83 Z M30.72,60.76 L30.94,60.76 L31.21,61.32 L30.95,61.64 L30.73,61.16 L30.9,61.05 L30.65,60.93 L30.72,60.76 Z" id="PH-ANT"></path>
                        <polygon id="PH-APA" points="28.08 16.93 28.36 16.79 28.63 16.35 28.91 16.27 28.91 16.66 29.98 17.05 30.23 17.34 31.45 17.92 31.6 18.5 31.41 19.74 31.1 19.88 30.38 21.38 30.84 21.54 31.21 21.95 31.29 22.27 31.29 22.27 30.93 22.61 30.02 22.4 29.84 22.73 29.14 22.31 29.14 22.31 28.99 21.31 28.77 21.14 28.39 21.14 28.24 20.47 27.84 20.2 27.84 20.2 27.9 19.34 28.16 18.87 27.96 17.48"></polygon>
                        <polygon id="PH-AUR" points="36.81 30.48 36.41 31.05 36.57 31.37 36.71 31.15 36.58 31.6 36.28 31.97 36.39 32.06 36.68 31.91 36.46 32.41 35.55 33.25 35.55 33.45 35.28 33.73 34.99 33.88 35.24 33.36 35.68 32.92 35.68 32.67 35.91 32.52 35.91 32.27 35.66 32.27 35.51 32.42 35.51 32.78 35.11 32.85 34.56 33.23 34.12 33.23 33.51 33.64 33.25 33.64 32 34.82 32 35.48 32.12 35.73 32.56 35.73 32.56 36.04 32.36 36.04 32.36 36.45 31.53 37.31 31.41 38.05 31.12 38.42 30.94 38.28 30.81 38.42 30.74 38.78 31.05 39.45 31.05 39.45 30.79 39.75 30.9 40.07 30.52 40.64 30.52 40.96 30.52 40.96 30.32 39.56 30.32 39.56 30.75 37.56 30.12 35.56 30.12 35.56 31.37 34.56 31.37 34.56 33.84 32.4 35.38 30.59 35.83 30.3 35.83 30.3 36.77 30.3 36.77 30.3"></polygon>
                        <polygon id="PH-BAN" points="24.72 41.48 24.97 41.61 25.16 42.1 25.51 42.17 25.51 42.17 25.3 42.46 25.3 42.9 25.74 44.22 25.74 44.6 25.43 44.98 24.93 44.9 25 45.1 24.26 44.73 24.16 44.28 24.29 43.85 24.12 43.58 23.75 43.58 23.32 43.12 23.32 42.82 23.5 42.82 23.24 42.65 23.5 42.48 23.34 42.42 24.02 42 24.02 42 24.14 41.71 24.54 41.77"></polygon>
                        <path d="M34.02,3.42 L34.32,3.75 L34.14,4.1 L33.99,3.91 L34.02,3.42 Z M35.08,2.47 L35.29,2.65 L34.81,3.02 L34.88,3.34 L34.5,3.48 L34.58,3.03 L34.85,2.78 L34.79,2.61 L35.08,2.47 Z M34.14,0.01 L34.27,0.18 L34.27,0.55 L33.76,1.05 L33.63,0.82 L34,0.08 L34.14,0.01 Z" id="PH-BTN"></path>
                        <path d="M28.92,50.79 L29.02,51.06 L28.9,51.12 L28.64,50.81 L28.92,50.79 Z M27.21,50 L27.99,50.34 L27.5,50.34 L27.28,50.23 L27.21,50 Z M25.63,46.28 L25.8,46.34 L25.8,46.34 L26.2,46.47 L26.14,46.64 L26.37,46.89 L26.77,46.89 L27.26,47.23 L27.26,47.42 L28.02,47.2 L28.6,46.78 L28.6,46.78 L29.6,46.93 L29.75,47.65 L29.93,47.92 L30.05,47.92 L30.05,48.11 L30.05,48.11 L30.05,48.28 L29.86,48.38 L30.09,48.71 L30.74,48.71 L31.33,49.05 L31.33,49.05 L31.17,49.45 L31.24,49.9 L31.41,49.98 L31.1,50.18 L30.84,50.09 L30.18,50.58 L29.49,50.25 L28.79,50.43 L28.5,50.33 L28.67,49.73 L28.26,49.31 L28.01,49.38 L27.53,50 L27.4,49.75 L27.76,49.46 L27.59,49.05 L27.66,48.67 L26.84,48.32 L26.28,48.32 L26.35,48.87 L25.91,48.74 L26.07,49.23 L25.95,49.37 L25.71,49.07 L25.71,48.07 L25.6,47.93 L25.79,47.93 L25.72,46.93 L25.36,46.78 L25.65,46.72 L25.5,46.68 L25.77,46.68 L25.5,46.48 L25.63,46.28 Z" id="PH-BTG"></path>
                        <polygon id="PH-BEN" points="26.84 27.48 27.54 28.23 27.54 28.23 27.67 28.56 27.67 29.84 27.67 29.84 27.53 30.47 27.58 30.97 27.27 31.76 27 31.76 26.68 32.32 26.75 32.61 26.75 32.61 25.99 32.71 24.99 32.37 24.99 32.37 24.7 30.56 25.3 29.87 25.19 29.8 25.5 29.48 25.5 29.48 25.77 28.98 25.92 27.83"></polygon>
                        <path d="M51.36,63.56 L52.1,63.77 L52.41,64.5 L52.64,64.67 L52.56,65.04 L51.72,65.22 L51.47,65.05 L50.82,63.8 L51.36,63.56 Z M50.66,62.83 L50.85,62.9 L50.68,63.19 L50.46,62.99 L50.66,62.83 Z" id="PH-BIL"></path>
                        <path d="M47.4,77.56 L47.64,77.68 L47.64,77.83 L47.16,78.18 L46.85,78.18 L46.85,77.98 L46.66,77.9 L47.4,77.56 Z M46.99,75.9 L47.1,75.9 L46.92,76.07 L46.92,75.87 L47.03,75.87 L46.99,75.9 Z M47.31,75.76 L47.57,75.76 L47.39,75.91 L47.21,75.76 L47.31,75.76 Z M52.64,74.12 L52.45,74.41 L52.55,74.57 L52.25,74.57 L52.2,74.82 L52.08,74.82 L52.01,74.39 L52.19,74.39 L52.19,74.26 L52.32,74.41 L52.32,74.22 L52.64,74.12 Z M50.5,73.98 L50.83,74.21 L50.83,74.38 L51.02,74.11 L51.19,74.44 L51.77,74.78 L51.93,74.65 L52.21,74.89 L52.31,75.2 L52.2,75.2 L52.26,75.61 L52.14,75.61 L52.4,75.68 L52.28,75.95 L51.97,76.1 L52.5,76.48 L52.5,76.83 L52.03,77.04 L51.79,76.78 L51.28,77.12 L51.22,77.51 L50.27,77.88 L49.79,77.8 L48.93,77.94 L47.55,77.62 L47.49,77.41 L47.66,77.07 L47.45,76.9 L47.1,76.9 L47.23,76.26 L47.11,76.06 L47.29,76.12 L47.29,76.21 L47.71,75.84 L47.77,75.62 L47.84,75.73 L48.3,75.43 L48.74,75.36 L48.98,74.68 L49.23,74.68 L49.59,74.09 L50.43,74.09 L50.5,73.98 Z M49.78,73.98 L49.78,74.14 L49.65,74.08 L49.78,73.98 Z M50.29,73.78 L50.12,73.98 L49.87,73.92 L50.29,73.78 Z M49.69,73.78 L49.79,73.88 L49.56,73.88 L49.69,73.78 Z" id="PH-BOH"></path>
                        <polygon id="PH-BUK" points="52.29 87.08 52.38 86.67 52.56 86.61 52.65 85.81 53.99 85.81 53.99 85.46 54.35 84.65 56.88 84.73 56.88 84.73 56.99 86.16 57.68 87.06 57.61 87.34 57.85 88.13 57.85 88.75 57.85 88.75 58.11 89.25 58.11 89.89 58.28 90.24 58.2 90.98 57.97 91.21 56.97 91.06 56.97 91.48 56.97 91.48 56.76 91.39 56.76 91.53 56.5 91.53 56.25 92.25 55.66 92.34 55.54 92.65 55.03 92.65 54.73 92.44 54.4 92.55 53.98 92.01 53.78 92.11 54.03 91.7 53.91 91.28 53.91 91.28 53.55 90.95 53.38 90.34 52.93 89.72 52.73 89.65 52.73 89.35 52.28 88.72 52.11 87.99 51.86 87.68 51.86 87.68 52.3 87.54"></polygon>
                        <polygon id="PH-BUL" points="28.05 39.48 28.49 39.24 29.31 39.1 29.96 39.57 30.43 39.57 30.43 39.57 30.63 40.97 30.63 40.97 30.63 41.7 30.63 41.7 30.05 42.05 29.54 42.15 29.08 42.61 29.08 42.61 28.62 42.49 28.25 42.94 27.89 42.81 28.04 43.11 27.77 43.11 27.77 43.11 27.25 42.77 27.25 42.58 27.1 42.5 26.99 42.66 26.2 42.55 26.37 42.35 26.37 42.35 26.63 41.52 27.22 41.47 27.65 41.12 27.65 40.94 27.81 41 27.93 40.71 28.12 40.71 28.25 40.25 27.96 39.88"></polygon>
                        <path d="M35.96,15.98 L36.12,15.98 L36.12,16.39 L35.86,16.54 L35.86,16.1 L35.96,15.98 Z M29.18,15.66 L29.67,15.8 L31.15,16.85 L34.39,18.25 L35.13,18.06 L35.73,17.39 L35.93,17.39 L36.05,16.51 L36.64,16.44 L36.74,16.91 L37.17,17.31 L37.34,17.9 L37.09,18.53 L36.83,18.87 L36.52,18.99 L36.18,19.48 L36.31,19.64 L36.31,20.75 L35.96,21.51 L36.17,22.17 L36.17,22.78 L36.36,23.22 L36.36,23.22 L32.77,23.5 L32.77,23.5 L31.58,22.35 L31.32,22.35 L31.32,22.19 L31.32,22.19 L31.24,21.87 L30.87,21.46 L30.41,21.3 L31.13,19.8 L31.44,19.66 L31.63,18.42 L31.48,17.84 L30.26,17.26 L30.01,16.97 L28.94,16.58 L28.94,16.19 L28.66,16.27 L28.39,16.71 L28.11,16.85 L28.11,16.85 L28.19,15.9 L28.19,15.9 L28.6,15.63 L28.77,15.72 L29.18,15.66 Z M31.18,13.66 L31.61,13.89 L30.7,14.12 L30.22,14 L30.22,13.82 L31.18,13.66 Z M34.54,12.97 L34.73,12.97 L35.04,13.28 L35.04,13.41 L34.4,13.91 L34.14,14.32 L33.95,13.87 L34.22,13.78 L34.1,13.54 L34.21,13.17 L34.54,12.97 Z M29.85,11.79 L30.05,12.26 L30.05,12.91 L29.69,12.53 L29.85,11.79 Z M31.13,10.22 L31.66,10.4 L31.9,10.25 L32.02,11.06 L31.82,11.27 L31.09,10.99 L31,10.66 L30.7,10.47 L31.13,10.22 Z M34.89,8.94 L35.04,9.08 L35.04,9.38 L34.8,9.64 L34.35,9.18 L34.89,8.94 Z" id="PH-CAG"></path>
                        <path d="M38.57,45.48 L39.16,45.69 L39.07,45.77 L39.42,45.95 L39.42,45.69 L39.72,45.91 L39.5,45.48 L39.63,45.48 L39.82,45.48 L39.88,45.67 L40.07,45.56 L40.34,45.68 L40.34,45.85 L40.86,45.95 L41.2,46.3 L41.2,46.48 L42.07,47.13 L41.98,47.58 L42.34,47.94 L42.42,48.55 L42.17,48.93 L42.17,48.93 L40.38,47.71 L40.38,47.71 L38.04,46.79 L37.53,47.36 L37.1,47.36 L37.1,47.26 L37.1,47.26 L37.42,46.98 L37.3,46.48 L37.41,46.29 L37.63,46.36 L37.47,46.13 L37.64,45.86 L37.8,45.86 L37.8,45.65 L37.9,45.75 L38.16,45.48 L38.26,45.56 L38.57,45.48 Z M41.41,44.85 L41.64,45.06 L41.27,44.87 L41.41,44.85 Z M41.41,44.46 L41.36,44.76 L41.07,44.76 L41.41,44.46 Z" id="PH-CAN"></path>
                        <path d="M47.29,48.03 L47.42,48.03 L47.36,48.58 L47.2,48.21 L47.29,48.03 Z M46.11,48.03 L46.33,48.27 L45.97,48.52 L45.81,48.52 L45.81,48.2 L45.91,48.34 L46.02,48.17 L46.17,48.3 L46.11,48.03 Z M44.11,47.16 L44.33,47.6 L44.12,47.79 L44.42,47.64 L44.42,47.97 L44.57,47.97 L44.52,48.24 L44.76,48.42 L44.76,48.06 L45.12,48.26 L45.04,48.45 L45.22,48.33 L45.4,48.48 L45.4,48.31 L45.79,48.58 L46.31,48.69 L46.54,48.69 L46.54,48.28 L47,48.92 L47.48,49.19 L47.62,49.09 L47.84,49.29 L48.12,49.29 L48.12,49.58 L48.26,49.58 L48.26,49.9 L48.04,49.72 L48.04,49.83 L47.64,49.7 L47.16,50.04 L45.53,49.71 L45.69,49.8 L45.47,50.13 L45.36,50.5 L45.48,50.63 L45.34,50.87 L45.69,50.96 L45.8,51.17 L45.8,51.17 L45.41,51.3 L45.7,51.74 L45.7,52.04 L45.07,52.3 L44.71,52.3 L43.65,52.98 L43.65,52.98 L43.21,52.4 L43.07,51.8 L41.07,50.8 L40.47,50.29 L40.64,50.29 L40.89,50.01 L40.72,49.7 L39.98,49.11 L39.5,49.11 L39.41,48.68 L38.99,48.52 L39.04,48.38 L38.83,48.38 L38.92,48.3 L38.78,48.19 L38.78,48.19 L40.42,47.74 L40.42,47.74 L42.21,48.96 L42.21,48.96 L42.12,49.38 L42.64,49.72 L43.38,49.72 L43.67,49.58 L44,49.06 L43.72,48.58 L43.79,48.37 L43.59,48.13 L43.37,48.13 L43.37,47.92 L43.62,47.83 L43.41,47.73 L43.78,47.73 L43.57,47.45 L43.99,47.71 L43.93,47.48 L44.19,47.48 L44.07,47.33 L44.11,47.16 Z M43.83,47 L44.02,47.12 L43.95,47.27 L43.83,47 Z" id="PH-CAS"></path>
                        <polygon id="PH-CAM" points="53.27 80.18 53.73 80.54 53.92 81.1 53.71 81.38 53.05 81.12 52.77 80.78 52.82 80.35"></polygon>
                        <polygon id="PH-CAP" points="39.87 64.2 40.4 64.32 40.63 64.22 40.88 64.59 40.82 64.74 40.97 64.67 41.33 64.86 40.86 65.28 41.09 65.49 41.24 65.08 41.72 65.08 42.44 64.66 42.44 64.66 42.12 65.3 42.12 65.66 41.36 65.92 41.44 66.29 41.05 66.48 41.05 66.75 40.95 66.75 40.8 67.08 40.33 67.15 40.33 66.9 40.19 66.84 39.44 66.95 39.27 66.79 39.42 66.6 39.32 66.6 39.04 66.91 38.94 66.72 38.74 67.04 38.38 67.2 37.68 67.11 37.22 66.87 36.66 67.46 36.66 67.46 36.41 66.95 36.41 66.28 36.41 66.28 37.1 66 37.72 65.15 38.5 65.15 38.93 64.66 38.93 64.66 39.03 64.88 39.28 64.88 39.47 64.75 39.32 64.68 39.42 64.49 39.49 64.71 39.92 64.45"></polygon>
                        <path d="M50.74,48.06 L50.88,48.23 L50.68,48.23 L50.56,47.97 L50.74,48.06 Z M49.88,47.18 L50.31,47.75 L50.4,48.25 L50.6,48.32 L50.6,48.59 L50.9,48.28 L50.9,48.51 L51.11,48.75 L51.11,48.56 L51.24,48.78 L51.14,48.78 L51.29,48.87 L51.14,48.95 L51.32,49.22 L51.1,49.33 L51.21,49.52 L51.04,49.77 L51.25,50.12 L50.75,50.29 L50.81,50.59 L50.65,50.85 L50.59,50.85 L50.44,50.49 L49.9,50.76 L49.9,51.09 L49.23,50.57 L48.82,50.5 L48.93,50.4 L48.66,50.08 L49.14,49.79 L49.41,49.17 L49.36,48.56 L49.5,48.27 L49.35,47.35 L49.65,47.41 L49.88,47.18 Z" id="PH-CAT"></path>
                        <polygon id="PH-CAV" points="27.75 44.41 27.6 44.74 28.14 44.58 28.14 44.58 28.43 45.44 28.43 45.44 28.43 45.71 28.85 45.59 28.61 46.15 28.73 46.15 28.6 46.4 28.66 46.76 28.66 46.76 28.08 47.18 27.32 47.4 27.32 47.21 26.83 46.87 26.43 46.87 26.2 46.62 26.26 46.45 25.86 46.32 25.86 46.32 25.86 46.01 26.33 45.91 26.84 45.56"></polygon>
                        <path d="M48.98,73.2 L48.78,73.51 L48.72,73.43 L48.98,73.2 Z M48.41,72.88 L48.54,73.03 L48.8,72.89 L48.38,73.4 L48.11,73.5 L48.04,73.41 L48.2,73.29 L48.02,73.29 L48.02,73.09 L48.41,72.88 Z M51.41,70.28 L51.88,70.54 L51.88,70.7 L51.4,70.89 L51.01,70.77 L51.01,70.91 L50.54,71.16 L50.29,71.16 L50.56,70.35 L50.95,70.48 L51.02,70.76 L51.41,70.28 Z M52.26,69.63 L52.14,70.01 L51.84,70.21 L51.84,70.01 L52.26,69.63 Z M48.91,66.48 L48.73,67.37 L48.38,67.88 L48.48,68.03 L48.78,68.03 L48.7,68.88 L48.86,69.2 L48.52,70.05 L48.74,71.44 L48.48,72.38 L48.63,72.58 L48.26,72.96 L47.71,73.22 L47.57,73.5 L46.91,73.65 L46.37,74.32 L46.37,74.6 L46.1,74.6 L45.88,76.02 L45.39,76.5 L45.39,76.81 L45.2,76.99 L44.91,78.07 L44.14,79.07 L43.8,79.07 L44.08,76.57 L44.46,75.77 L44.4,75.56 L44.22,75.48 L44.22,75.19 L44.44,75.27 L44.52,74.76 L44.74,74.67 L45.21,74.07 L45.65,73.31 L45.65,72.87 L46.23,72.3 L46.54,71.73 L46.5,71.48 L46.75,70.87 L47.15,70.27 L47.36,70.18 L48.04,68.42 L47.82,68.15 L48.04,67.93 L48.04,67.64 L48.25,67.8 L48.1,67.1 L48.41,66.81 L48.5,66.48 L48.91,66.48 Z M46.68,66.33 L47.2,67.33 L46.62,67.42 L46.69,67.24 L46.39,66.81 L46.68,66.33 Z" id="PH-CEB"></path>
                        <polygon id="PH-COM" points="63.02 88.67 62.92 88.87 63.92 92.41 63.92 93.59 61.5 94.9 61.5 94.9 61.11 94.55 61.17 94.28 60.8 93.69 60.92 93.05 60.76 92.96 60.76 92.96 60.76 92.29 61.11 92.12 60.89 91.84 61.34 91.74 61.47 91.04 61.23 90.74 61.51 90.28 61.35 89.83 60.55 90.98 60.4 90.98 60.34 90.51 59.9 90.13 59.71 88.68 61.76 88.68 61.88 88.92 62.2 89.11"></polygon>
                        <path d="M59.81,95.66 L60.05,95.83 L60.05,96.1 L59.75,95.77 L59.81,95.66 Z M59.96,94.07 L60.57,94.61 L60.43,95.18 L60.55,95.81 L60.36,96.12 L60.08,95.63 L60.01,94.93 L59.79,94.93 L59.69,94.73 L59.96,94.07 Z M59.74,88.68 L59.93,90.13 L60.37,90.51 L60.43,90.98 L60.58,90.98 L61.38,89.83 L61.54,90.28 L61.26,90.74 L61.5,91.04 L61.37,91.74 L60.92,91.84 L61.14,92.12 L60.79,92.29 L60.79,92.96 L60.79,92.96 L60,93.38 L59.7,93.38 L59.33,93.76 L58.62,93.76 L58.62,91.61 L56.93,91.61 L56.93,91.61 L56.93,91.51 L56.93,91.51 L56.93,91.08 L57.93,91.23 L58.16,91 L58.24,90.26 L58.07,89.91 L58.07,89.27 L57.81,88.77 L57.81,88.77 L59.74,88.68 Z" id="PH-DAV"></path>
                        <polygon id="PH-DAS" points="56.92 91.6 58.61 91.6 58.61 93.75 59.32 93.75 59.69 93.37 59.99 93.37 59.54 93.79 59.65 94.54 59.55 94.74 59.06 95.22 58.94 95.07 58.71 95.2 58.46 95.52 58.46 95.92 57.81 96.71 57.68 97.23 57.76 97.84 57.59 98.07 58.15 98.22 58.06 97.85 58.66 98.38 58.66 98.62 58.88 98.52 59.09 98.65 59.02 98.78 59.17 98.78 59.08 99.27 59.33 99.38 59.9 100.7 59.9 101.97 59.63 102.67 58.63 103.81 57.96 105.01 57.41 105.13 57.34 105.03 57.34 105.03 57.25 104.9 57.83 104.47 58.45 103.15 58.4 102.77 58.79 101.43 58.6 101.22 58.6 100.58 58.29 100.1 58.52 99.86 58.52 99.49 58.11 98.88 57.63 98.74 57.42 99.07 56.95 99.28 56.43 99 56.43 99 56.5 98.48 56.5 98.48 56.4 97.9 56.08 97.5 56.08 97.21 56.21 97.15 56 96.99 56 96.99 55.86 96.57 56.15 96.57 56.29 96.17 56.9 95.66 57.05 95.23 57.3 95.23 57.1 94.57 56.71 94.11 56.84 93.71 56.71 93.09 56.97 92.02"></polygon>
                        <polygon id="PH-DAO" points="64.29 88.66 64.35 89.27 64.35 89.27 64.5 89.81 64.78 89.81 65.3 90.48 65.76 90.61 65.63 90.75 65.63 91.16 65.8 91.37 65.67 91.56 65.84 91.63 65.95 92.2 65.95 92.43 65.65 92.52 65.65 92.74 65.82 92.74 65.67 92.89 65.76 93.21 65.63 93.31 65.73 93.47 65.99 93.47 65.7 94.05 65.52 94.05 65.4 94.61 65.06 94.86 65.06 95.01 64.91 95.06 64.91 95.31 65 95.47 64.2 95.39 64 95.84 63.81 95.91 64.24 96.38 64.24 96.75 63.82 96.62 63.9 96.35 63.51 95.86 63.21 95.75 63.11 96.26 63.64 97.08 63.36 97.88 63.41 99.26 63.21 99.53 63.14 99.89 62.8 99.55 62.9 99.34 62.45 98.58 62.51 98.13 62.35 97.74 62.51 97.55 62.51 97.19 62.36 97.03 62.36 96.48 61.67 95.91 61.76 95.35 61.44 94.93 61.44 94.93 63.81 93.61 63.81 92.43 62.81 88.89 62.91 88.69 64.17 88.69"></polygon>
                        <path d="M58.38,72.02 L58.59,72.14 L58.59,72.3 L58.45,72.3 L58.38,72.02 Z M59.53,71.96 L59.79,72.5 L59.56,73.09 L59.56,73.46 L59.35,73.34 L59.62,73.82 L59.57,74.04 L59.72,74.04 L59.62,74.36 L59.87,74.78 L59.74,75.44 L59.59,75.54 L59.93,75.92 L59.93,76.1 L59.7,76.19 L59.54,75.98 L59.54,75.58 L58.99,75.22 L59.13,75.16 L59.19,74.63 L59.07,74.56 L59.07,74.72 L58.88,74.59 L58.62,74.73 L58.37,74.24 L58.54,73.9 L58.84,73.77 L58.64,73.5 L58.64,72.98 L58.94,72.98 L58.88,72.56 L59.19,72.67 L59.3,72.15 L59.53,71.96 Z" id="PH-DIN"></path>
                        <path d="M61.64,69.89 L61.71,70.09 L61.5,69.91 L61.64,69.89 Z M59.88,69.56 L60.1,69.74 L60.03,70.09 L60.66,70.2 L60.66,70.44 L60.28,70.44 L59.73,70.06 L59.65,69.79 L59.88,69.56 Z M59.5,68.33 L59.5,68.51 L59.26,68.51 L59.5,68.33 Z M60.32,68.15 L60.8,68.78 L60.3,68.28 L60.32,68.15 Z M56.19,59.6 L56.48,59.02 L57.14,59.76 L57.34,59.64 L57.34,59.64 L57.45,59.71 L57.57,59.46 L57.74,59.46 L57.64,59.68 L58.12,59.68 L58.29,59.88 L58.23,59.99 L58.38,59.99 L58.63,60.26 L58.63,60.4 L58.26,60.4 L58.4,60.48 L58.2,60.59 L58.2,60.81 L58.44,60.81 L58.5,60.89 L58.36,60.89 L58.68,61.09 L58.08,61.8 L58.15,62.7 L58.4,62.92 L57.99,63.15 L58.17,63.28 L58.32,63.15 L58.38,63.65 L58.52,63.73 L58.25,63.73 L58.32,63.9 L58.15,64.1 L58.22,64.26 L58.39,64.26 L58.39,64.58 L58.7,64.93 L58.56,65.25 L58.75,65.25 L59.02,65.66 L59.16,65.66 L59.49,65.95 L59.36,66.33 L58.91,66.62 L58.82,67.03 L59.25,67.17 L59.4,67.03 L59.19,66.86 L59.27,66.81 L59.71,67.05 L60.37,68.17 L60.3,68.29 L60.07,68.19 L59.76,67.82 L59.96,67.61 L59.72,67.61 L59.72,67.44 L59.2,67.63 L59.04,67.54 L59.12,67.4 L58.85,67.4 L58.73,67.86 L58.4,67.56 L58.4,67.75 L58.27,67.67 L58.09,67.87 L58.09,67.75 L57.5,67.64 L57.37,67.46 L57.07,67.63 L57.07,67.63 L57.07,66.27 L57.45,65.72 L56.94,65.41 L56.78,64.36 L56.88,64.12 L57.29,63.82 L57.21,62.62 L56.79,61.62 L56.17,61.62 L56.17,60.45 L56.39,60.3 L56.19,59.6 Z" id="PH-EAS"></path>
                        <path d="M39.8,71.94 L39.95,72.09 L39.65,72.15 L39.8,71.94 Z M39.5,70.04 L39.92,70.45 L39.92,70.97 L39.62,71.75 L39.25,72.2 L38.49,72.39 L38.49,72.09 L38.26,71.89 L38.32,71.71 L38.59,71.64 L38.5,71.2 L38.84,70.64 L39.17,70.56 L39.17,70.27 L39.5,70.04 Z" id="PH-GUI"></path>
                        <polygon id="PH-IFU" points="27.5 28.28 27.75 28.28 27.96 28.07 28.19 27.54 28.19 27.09 29.86 27.03 30.69 26.61 31.28 26.52 32.05 26.58 32.05 26.58 32.27 27.76 31.99 28.09 31.41 28.27 31.26 28.2 31.06 28.45 30.8 28.45 30.6 28.6 30.6 28.82 30.6 28.82 30.47 29.16 30.3 29.22 30.3 29.41 27.67 29.87 27.67 29.87 27.67 28.59"></polygon>
                        <polygon id="PH-ILN" points="27.32 15.48 27.75 16.1 28.03 16.1 28.16 15.93 28.16 15.93 28.08 16.88 28.08 16.88 27.95 17.44 28.18 18.85 27.91 19.32 27.85 20.18 27.85 20.18 27.73 20.37 27.22 20.3 26.88 20.64 26.51 20.77 26.26 21.18 25.5 21.48 25.18 22.15 25.18 22.15 25.02 21.8 25.16 20.89 24.57 20.76 24.57 20.76 24.47 20.66 24.93 20.09 24.76 19.86 24.76 19.46 25.04 19.13 25.11 18.66 25.64 17.66 25.38 16.66 25.8 16.28 26.4 16.4 26.79 16.3 26.86 15.75"></polygon>
                        <polygon id="PH-ILS" points="24.61 20.75 25.2 20.88 25.06 21.79 25.22 22.14 25.22 22.14 24.76 23.55 24.86 23.7 25.15 23.57 25.56 23.73 25.25 24.56 25.38 24.91 25.76 24.91 26.22 25.29 26.12 25.72 26.3 25.95 26.72 25.95 27 25.74 27.4 25.74 26.88 26.28 26.88 27.51 26.88 27.51 25.99 27.78 25.84 28.93 25.5 29.48 25.5 29.48 25.18 29.09 25.3 28.71 25.01 28.19 25.08 27.67 24.87 27.79 24.36 27.65 24.36 27.65 24.61 27.23 24.5 25.84 24.35 25.6 24.56 25.07 24.5 24.73 24.62 24.73 24.76 24.24 24.54 23.94 24.5 23.48 24.01 23.19 24.01 23 24.23 22.25 24.63 21.9 24.43 21.73 24.56 21.61 24.4 21.47 24.77 21.26"></polygon>
                        <path d="M42.76,67.32 L42.55,67.69 L42.5,67.48 L42.76,67.32 Z M42.91,66.87 L43.06,66.87 L42.94,67.05 L42.91,66.87 Z M42.91,66.25 L43.11,66.38 L42.81,66.69 L42.91,66.25 Z M43.54,65.25 L43.66,65.35 L43.5,65.48 L43.44,65.26 L43.54,65.25 Z M43.38,65.25 L43.18,65.25 L43.13,64.96 L43.26,64.96 L43.38,65.25 Z M43.12,64.74 L43.12,64.93 L42.88,65.07 L42.94,64.85 L43.12,64.74 Z M42.8,64.34 L42.89,64.59 L42.72,64.96 L42.61,64.82 L42.44,64.82 L42.74,65.01 L42.65,65.11 L42.82,65.04 L42.91,65.16 L42.66,65.53 L42.82,65.68 L42.7,66.02 L42.47,66.11 L42.47,66.8 L42.68,67.01 L42.68,67.24 L42.57,67.3 L42.29,67.09 L42.29,67.21 L42.04,67.21 L41.9,67.72 L41.68,67.95 L41.51,67.95 L41.51,68.17 L41.32,67.95 L41.2,68.26 L40.97,68.18 L40.83,68.46 L40.36,68.46 L40.21,68.73 L40.41,69.08 L40.23,69.57 L39.99,69.85 L39.61,69.76 L39.61,69.88 L39.25,69.88 L39.06,70.46 L38.23,70.46 L36.55,70.8 L36.12,71.17 L35.8,71.24 L35.36,71.97 L35.36,71.97 L35.23,71.79 L35.3,71.24 L35.65,70.45 L36.33,70 L36.5,69.47 L37.33,68.79 L37.33,68.15 L36.78,67.39 L36.78,67.39 L37.34,66.8 L37.8,67.04 L38.5,67.13 L38.86,66.97 L39.06,66.65 L39.16,66.84 L39.44,66.53 L39.54,66.53 L39.39,66.72 L39.56,66.88 L40.31,66.77 L40.45,66.83 L40.45,67.08 L40.92,67.01 L41.07,66.68 L41.17,66.68 L41.17,66.48 L41.56,66.29 L41.48,65.92 L42.24,65.66 L42.24,65.3 L42.56,64.66 L42.56,64.66 L42.8,64.34 Z M44.2,64.34 L44.05,64.49 L43.96,64.41 L44.2,64.34 Z M44.2,64.05 L44.13,64.26 L44.13,64.08 L44.2,64.05 Z" id="PH-ILI"></path>
                        <polygon id="PH-ISA" points="36.34 23.24 36.34 23.53 36.74 24.19 36.74 24.52 37 24.52 37.17 24.73 37.57 24.58 37.82 24.72 38.06 25.2 37.85 25.76 37.85 26.07 38.29 26.23 38.47 26.05 38.6 26.36 38.18 27.21 38.18 27.83 37.93 28.25 37.93 28.44 36.83 30.36 36.83 30.36 35.89 30.36 35.89 30.36 35.56 30.36 33.37 31.36 32.04 29.69 31.04 29.61 31.04 29.61 30.98 29.29 30.54 28.87 30.54 28.87 30.54 28.65 30.74 28.5 31 28.5 31.2 28.25 31.35 28.32 31.93 28.14 32.21 27.81 31.99 26.63 31.99 26.63 31.99 25.18 31.99 25.18 32.36 24.36 32.83 24.02 32.7 23.58 32.7 23.58 36.29 23.3 36.29 23.3"></polygon>
                        <polygon id="PH-KAL" points="31.32 22.25 31.32 22.42 31.58 22.42 32.77 23.57 32.77 23.57 32.9 24.01 32.43 24.35 32.06 25.17 32.06 25.17 31.13 24.99 30.66 25.15 30.05 25.81 29.46 25.94 28.95 25.77 28.75 25.49 27.75 25.39 27.75 25.39 28.28 24.26 28.28 23.68 29.03 23.19 29.09 22.99 28.9 22.45 29.11 22.33 29.11 22.33 29.81 22.75 29.99 22.42 30.9 22.63"></polygon>
                        <polygon id="PH-LUN" points="24.38 27.63 24.89 27.77 25.1 27.65 25.03 28.17 25.32 28.69 25.2 29.07 25.5 29.48 25.5 29.48 25.24 29.84 25.35 29.91 24.75 30.6 25.04 32.41 25.04 32.41 24.95 32.59 24.39 32.59 24.39 32.59 24.28 32.29 23.93 32.08 23.76 31.33 23.76 30.78 23.59 30.55 23.7 30.05 23.41 29.73 23.62 29.73 23.82 29.23 23.82 28.18 24.25 27.87"></polygon>
                        <path d="M31.5,43.89 L32.1,45.04 L32.53,45.15 L32.58,46.06 L32.14,46.68 L31.86,46.84 L31.66,47.34 L31.25,47.41 L30.57,47.95 L30.11,48.1 L30.11,48.1 L30.11,47.91 L29.99,47.91 L29.81,47.64 L29.66,46.92 L28.66,46.77 L28.66,46.77 L28.6,46.41 L28.73,46.16 L28.61,46.16 L28.85,45.6 L28.43,45.72 L28.43,45.45 L28.43,45.45 L28.72,45.26 L28.72,44.46 L29.01,44.21 L29.01,44.21 L29.4,44.33 L29.75,45.03 L29.75,44.6 L29.97,44.3 L30.47,44.68 L30.56,45.03 L30.35,45.87 L30.88,45.49 L30.74,45.33 L30.74,44.71 L30.84,44.29 L31.5,43.89 Z M29.97,45.48 L29.97,45.48 L29.86,44.97 L29.86,45.46 L30.04,45.88 L30.04,45.62 L30.04,45.62 L30.15,45.5 L29.97,45.48 Z" id="PH-LAG"></path>
                        <polygon id="PH-LAN" points="50.15 86.48 51.67 86.48 52.08 86.74 52.29 87.13 52.29 87.13 52.29 87.65 51.85 87.79 51.85 87.79 50.75 87.29 50.53 87.29 50.4 88.14 49.96 88.59 49.38 88.68 49.45 88.93 49.27 89.34 48.68 89.34 48.83 89.84 48.53 90.72 47.43 90.38 47.28 90.68 47.28 90.68 46.75 90.47 46.75 90.25 46.44 89.93 45.97 89.82 45.97 89.82 46.3 88.98 46.3 88.98 46.82 88.67 47.49 87.91 47.83 87.91 48.63 87.35 49.55 87.44 50 87.26 50.29 86.8"></polygon>
                        <polygon id="PH-LAS" points="51.82 87.74 52.07 88.05 52.24 88.78 52.69 89.41 52.69 89.71 52.89 89.78 53.34 90.4 53.51 91.01 53.87 91.34 53.87 91.34 53.15 91.1 52.8 91.28 52.53 91.22 52.06 90.82 51.41 91.02 51.41 91.02 50.91 91.59 50.13 91.98 49.79 92.57 49.79 92.57 49.32 92.4 49.44 92.3 49.25 91.95 48.55 91.05 48.36 91.05 47.89 90.71 47.22 90.71 47.22 90.71 47.37 90.41 48.47 90.75 48.77 89.87 48.62 89.37 49.21 89.37 49.39 88.96 49.32 88.71 49.9 88.62 50.34 88.17 50.47 87.32 50.69 87.32"></polygon>
                        <polygon id="PH-LEY" points="50.61 64.53 51.61 65.71 51.61 65.33 51.72 65.27 52.1 65.48 52.2 66.06 52.42 66.3 53.26 66.3 53.87 65.84 53.96 65.45 54.39 65.6 54.81 65.48 54.9 65.71 55.06 65.71 54.95 66.52 55.05 66.7 55.26 66.7 55.26 67.36 55.48 67.97 55.48 68.87 55.27 69.48 55.43 70.2 56.03 70.48 55.96 70.63 56.26 70.98 56.26 70.98 55.61 71.65 54.85 71.65 54.54 72.46 54.54 73.41 54.19 73.49 53.71 73.95 53.6 73.95 53.6 73.95 53.81 73.1 53.42 72.7 53.34 71.97 53.65 71.61 53.65 71.04 53.87 70.78 53.73 69.99 53.07 68.89 52.47 68.38 52.09 68.63 52.18 68.95 51.95 69.37 51.39 69.22 51.3 68.82 51.3 69.06 51.03 68.99 51.26 68.59 51.26 68.25 51.02 68.04 51.24 67.73 51.04 66.41 50.84 66.34 50.84 66.02 50.97 66.02 50.77 65.94 50.77 65.82 50.93 65.75 50.72 65.69 50.54 65.15 50.54 64.84"></polygon>
                        <path d="M48.64,93.4 L48.64,93.16 L49.03,92.86 L48.64,93.4 Z M50.95,91.58 L50.17,91.97 L49.83,92.56 L49.83,92.56 L50.13,92.61 L50.22,93.05 L49.94,93.05 L49.94,93.72 L49.75,93.72 L49.75,93.92 L49.57,94.04 L49.63,94.09 L49.27,94.39 L48.94,94.39 L48.5,95.08 L48.2,95.96 L48.32,96.25 L48.11,96.58 L48.22,96.78 L48.32,96.78 L48.32,96.94 L48.59,96.77 L48.79,97.06 L48.79,97.06 L50.3,97.06 L50.42,97.26 L51.95,97.26 L52.41,96.77 L52.25,96.33 L52.93,96.18 L53.18,96.28 L52.98,96.85 L53.5,96.85 L53.86,97.74 L54.44,97.74 L55.23,97.31 L55.23,97.31 L54.52,96.89 L54.15,96.99 L53.96,96.9 L53.96,95.42 L53.84,95.35 L53.84,95.03 L54.02,95.03 L54.02,94.86 L53.83,94.86 L53.83,94.69 L53.26,94.15 L53.15,94.46 L53.5,94.75 L53.38,94.75 L53.38,94.92 L53.25,94.79 L53.17,94.99 L53.05,94.91 L53.28,95.47 L53,95.81 L52.65,95.62 L52.39,95.62 L52.03,95.16 L51.82,95.23 L51.33,94.84 L51.87,93.84 L51.24,93.84 L50.96,94.24 L50.66,94.24 L51.19,93.36 L51.28,93.36 L51.72,92.36 L51.36,91.85 L51.36,90.96 L50.95,91.58 Z" id="PH_MG"></path>
                        <polygon id="PH-MAD" points="34.19 50.81 34.5 51.11 34.59 50.99 35.05 51.14 35.13 50.96 35.29 51.1 35.23 51.21 35.39 51.21 35.5 51.38 35.4 51.38 35.69 51.38 35.96 51.62 35.78 51.85 36.11 52.2 35.42 52.85 35.42 53.09 35.25 53.38 34.94 53.32 34.73 53.04 34.16 52.79 33.85 52.38 33.79 51.68"></polygon>
                        <path d="M43.37,57.48 L44.37,57.89 L44.11,57.89 L44.25,58.27 L44,58.38 L44.16,58.58 L44.26,58.36 L44.42,58.36 L44.35,58.07 L44.82,58.01 L45.44,58.48 L45.57,58.39 L45.67,58.73 L45.93,58.93 L45.69,59.12 L46.08,59.12 L46.5,59.3 L47.09,60.24 L47.2,59.91 L47.57,60.25 L47.69,60.06 L47.84,60.15 L48.89,61.79 L48.89,61.93 L48.5,61.48 L48.5,61.64 L49.02,62.56 L48.92,62.96 L49.02,63.46 L48.02,62.46 L46.69,62.01 L46.62,61.84 L46.88,61.66 L46.15,61.09 L45.88,61.03 L45.97,60.89 L45.45,60.11 L45.2,60.02 L44.72,60.18 L44.31,60.81 L43.95,61.03 L43.83,61.39 L42.91,62.19 L42.79,62.02 L43.15,61.42 L43.29,60.65 L43.72,60.44 L43.63,60.2 L43.73,60.09 L43.5,59.88 L43.27,60.08 L43.19,59.94 L43.31,59.94 L43.23,59.75 L43.52,59.3 L43.52,59.01 L43.72,58.58 L43.5,58.48 L43.37,57.48 Z M45.97,56.85 L46.18,57.15 L46.66,57.41 L46.95,58.22 L46.95,58.76 L47.07,58.76 L47.07,59.24 L45.66,57.24 L45.66,57.09 L45.73,57.23 L45.89,57.23 L45.77,56.96 L45.97,56.85 Z M41.74,53.66 L42.07,53.82 L43,55.34 L43.62,55.5 L43.7,56 L44.35,56.86 L44.01,56.66 L43.52,55.9 L43.1,55.84 L42.91,55.54 L42.7,55.49 L42.76,55.4 L42.29,55.05 L42.2,54.77 L41.67,54.71 L41.5,54.48 L41.37,54.57 L41.47,54.17 L41.26,53.97 L41.74,53.66 Z" id="PH-MAS"></path>
                        <polygon id="PH-MNL" points="27.79 43.09 28.06 43.09 27.91 42.79 28.27 42.92 28.64 42.47 29.1 42.59 29.1 42.59 29.22 42.73 29.03 43.17 29.22 43.29 29.02 43.51 29.02 44.18 29.02 44.18 28.73 44.43 28.73 45.23 28.44 45.42 28.44 45.42 28.15 44.56 28.15 44.56 28.28 44.38 28.18 44.38 28.25 44.02 27.97 43.78 28.1 43.48"></polygon>
                        <polygon id="PH-MSC" points="45.89 84.15 46.07 84.34 46.39 84.34 47.04 85.06 47.58 86.48 47.47 86.76 47.59 87.6 47.07 87.98 46.88 88.32 46.56 88.32 46.06 88.59 46.06 88.59 46.06 88.48 45.57 88.39 45.5 87.22 45.5 87.22 45.5 84.48 45.5 84.48 45.71 84.48 45.82 84.32 45.66 84.32"></polygon>
                        <polygon id="PH-MSR" points="56.59 81.3 56.8 82.21 56.69 82.44 56.93 82.77 56.77 82.9 56.84 84.22 56.84 84.22 56.84 84.75 56.84 84.75 54.31 84.67 53.95 85.48 53.95 85.83 52.61 85.83 52.52 86.63 52.34 86.69 52.25 87.1 52.25 87.1 52.04 86.71 51.63 86.45 50.11 86.45 50.11 86.45 50.36 85.98 50.36 85.53 50.57 84.99 51.5 84.48 51.69 84.48 51.69 84.68 52.41 85.16 52.92 85.22 52.84 85.36 52.97 85.24 52.97 85.4 53.21 85.47 53.47 85.33 53.47 84.89 53.67 84.64 53.46 83.97 53.71 83.8 53.62 83.47 53.79 83.08 53.72 82.08 53.98 81.89 54.32 81.89 55.32 82.49 55.68 83.1 56.25 82.98 56.41 82.43 56.3 81.87"></polygon>
                        <polygon id="PH-MOU" points="32.04 25.12 32.04 26.57 32.04 26.57 31.3 26.48 30.71 26.57 29.88 26.99 28.21 27.05 28.21 27.5 27.98 28.03 27.77 28.24 27.5 28.24 26.8 27.49 26.8 27.49 26.8 26.26 27.32 25.72 27.32 25.72 27.58 25.72 27.69 25.32 27.69 25.32 28.69 25.42 28.89 25.7 29.4 25.87 29.99 25.74 30.6 25.08 31.07 24.92"></polygon>
                        <polygon id="PH-NEC" points="43.09 68.34 43.43 68.34 43.92 68.67 44.53 68.67 44.94 68.9 45.1 68.78 45.37 69.46 45.59 69.46 45.59 69.79 45.41 70.09 45.31 70.02 44.9 71.63 44.18 72.18 44.03 72.58 44.03 72.58 43.46 72.37 42.64 72.37 43.12 73.37 41.91 75.11 41.71 75.79 39.41 78.56 39.18 79.1 39.18 79.1 38.67 78.62 38.55 78.27 38.29 78.12 38.19 77.72 38.04 77.72 38.14 77.45 37.74 77.36 37.9 77.18 37.62 77.12 37.76 76.39 37.59 76.25 37.97 75.83 38.09 75.31 39.5 75.31 40.27 74.7 40.58 74.7 40.87 74.48 40.69 73.6 40.85 72.6 40.39 71.6 40.96 71.31 41.21 71.01 41.4 70.23 41.52 70.23 41.5 69.08 42.08 68.89 42.23 69.01"></polygon>
                        <polygon id="PH-NER" points="39.18 79.08 39.41 78.54 41.71 75.77 41.91 75.09 43.12 73.35 42.64 72.35 43.46 72.35 44.03 72.56 44.03 72.56 44.03 73.27 43.72 73.9 43.72 74.27 42.72 76.27 42.92 77.16 42.92 77.66 42.71 77.51 42.59 77.69 42.98 78.05 42.89 78.15 42.8 77.99 42.68 78.24 42.91 78.24 43.11 78.7 43.41 78.8 43.62 79.37 43.97 79.79 43.78 80.53 43.23 81.31 42.73 81.64 42.38 81.5 41.98 81.69 41.48 81.44 41.05 80.44 40.96 79.74 40.4 79.48 39.59 79.37"></polygon>
                        <polygon id="PH-NCO" points="51.5 91.01 52.16 90.81 52.63 91.21 52.9 91.27 53.25 91.09 53.97 91.33 53.97 91.33 54.09 91.75 53.84 92.16 54.04 92.06 54.46 92.6 54.79 92.49 55.09 92.7 55.6 92.7 55.72 92.39 56.31 92.3 56.56 91.58 56.72 91.58 56.72 91.44 56.93 91.53 56.93 91.53 56.93 91.63 56.93 91.63 57 92.04 56.74 93.11 56.87 93.73 56.74 94.13 57.13 94.59 57.33 95.25 57.08 95.25 56.93 95.68 56.32 96.19 56.18 96.59 55.89 96.59 56.03 97.01 56.03 97.01 55.24 97.25 55.24 97.25 54.53 96.83 54.16 96.93 53.97 96.84 53.97 95.36 53.85 95.29 53.85 94.97 54.03 94.97 54.03 94.8 53.84 94.8 53.84 94.63 53.27 94.09 53.16 94.39 53.51 94.68 53.39 94.68 53.39 94.85 53.26 94.72 53.18 94.92 53.06 94.84 53.29 95.4 53.01 95.74 52.66 95.55 52.4 95.55 52.04 95.09 51.83 95.16 51.34 94.77 51.34 94.77 51.88 93.77 51.25 93.77 50.97 94.17 50.67 94.17 51.2 93.29 51.29 93.29 51.73 92.29 51.37 91.78"></polygon>
                        <path d="M49.17,59.58 L49.27,59.68 L49.17,59.81 L49.07,59.64 L49.17,59.58 Z M50.36,59.09 L50.15,58.43 L50.38,58.74 L50.36,59.09 Z M49.46,58.29 L49.79,58.75 L49.72,58.96 L49.43,58.61 L49.46,58.29 Z M51.37,57.6 L51.56,57.77 L51.47,57.85 L51.27,57.76 L51.37,57.6 Z M51.8,57.6 L52,57.87 L51.86,57.87 L51.67,57.6 L51.81,57.6 L51.8,57.6 Z M50.91,57.28 L51.16,57.61 L50.94,57.51 L50.91,57.28 Z M55.15,57.18 L55.33,57.5 L55.68,57.65 L55.53,57.87 L55.71,57.87 L55.71,57.58 L55.97,57.68 L56.2,57.53 L57.02,58.16 L57.02,58.29 L57.23,58.29 L57.23,58.57 L57.51,58.72 L57.25,58.78 L57.37,58.85 L57.16,59.06 L57.16,59.23 L57.37,59.23 L57.14,59.38 L57.14,59.49 L57.44,59.32 L57.44,59.54 L57.32,59.54 L57.32,59.54 L57.12,59.66 L56.46,58.92 L56.17,59.5 L56.17,59.5 L54.97,59.89 L54.51,59.72 L54.18,60.5 L54.01,60.25 L54.09,59.95 L53.23,59.46 L52.74,59.79 L51.68,59.16 L51.31,59.51 L50.83,59.51 L50.67,59.07 L50.75,58.8 L50.65,58.87 L50.19,57.69 L50.32,57.46 L50.65,57.79 L50.83,57.79 L50.83,57.67 L51.08,57.79 L51.08,57.6 L51.27,57.85 L51.58,57.74 L51.58,57.8 L51.83,57.92 L53.33,57.92 L53.76,57.73 L54.22,57.8 L54.33,57.58 L54.17,57.45 L54.67,57.57 L54.83,57.45 L54.83,57.63 L55.09,57.63 L55.25,57.54 L55.15,57.18 Z M55.65,56.91 L55.81,57.46 L55.44,57.33 L55.61,57.21 L55.4,57.12 L55.4,56.98 L55.65,56.91 Z M50.92,56.83 L51.11,56.91 L51.11,57.21 L50.92,57.1 L50.92,56.83 Z" id="PH-NSA"></path>
                        <polygon id="PH-NUE" points="27.5 33.3 28.5 33.16 29.5 33.41 29.65 34.68 30.21 35.68 30.21 35.68 30.84 37.68 30.41 39.68 30.41 39.68 29.94 39.68 29.29 39.21 28.47 39.35 28.03 39.59 28.03 39.59 27.66 39.66 27.44 39.96 27.3 39.68 26.89 39.68 26.79 39.24 26.79 39.24 26.86 38.97 26.57 38.75 26.74 38.2 26.45 37.29 26.67 36.9 26.29 36.8 26 36.5 25.72 35.33 25.72 35.33 26.6 35.19 27.13 35.6 27.37 35.41 27.8 34.31"></polygon>
                        <polygon id="PH-NUV" points="30.59 28.83 31.03 29.25 31.09 29.57 31.09 29.57 30.89 30.9 31.37 31.06 31.28 31.68 30.28 32.08 30.47 33.76 31.47 34.61 31.47 34.61 30.22 35.61 30.22 35.61 29.66 34.61 29.5 33.4 28.5 33.15 27.5 33.29 27.5 33.29 27.24 32.83 26.75 32.62 26.75 32.62 26.68 32.33 27 31.77 27.27 31.77 27.58 30.98 27.53 30.48 27.67 29.85 27.67 29.85 30.3 29.39 30.3 29.2 30.47 29.14"></polygon>
                        <path d="M28.44,59.95 L28.59,60.2 L28.39,60.2 L28.44,59.95 Z M28.82,59.52 L29.05,59.96 L29.05,60.25 L29.17,60.19 L29.31,60.42 L29.2,60.51 L28.97,60.37 L28.89,60.11 L28.64,60.02 L28.64,59.58 L28.82,59.52 Z M24.5,51.11 L26.7,51.54 L27.64,51.3 L27.64,51.3 L27.58,51.9 L27,52.81 L30,54.3 L30,60.14 L30,60.14 L29.77,59.93 L29.11,59.93 L28.99,59.63 L29.23,59.63 L29.09,59.16 L28.64,59.16 L27.86,58.16 L27.86,57.43 L27.38,56.72 L26.93,56.61 L26.93,56 L26.78,55.88 L26.99,55.42 L26.61,54.42 L26.05,53.52 L25.5,53.25 L25.18,53.25 L25.18,52.96 L24.9,52.77 L24.76,51.93 L24.59,51.85 L24.29,51.96 L24.23,52.2 L23.98,52.2 L23.74,51.94 L23.67,51.77 L23.86,51.46 L24.5,51.11 Z M23.71,50.04 L24.41,50.23 L24.48,50.42 L23.71,50.04 Z M23.61,48.98 L23.91,49.18 L23.74,49.4 L23.4,49.18 L23.61,48.98 Z M22.27,48.78 L23.01,49.15 L23.15,49.08 L23.59,49.68 L23.34,49.78 L23.59,49.85 L23.59,50.02 L23.4,50.13 L23.31,49.91 L22.31,49.35 L22.15,48.91 L22.27,48.78 Z M21.89,48.54 L22.04,48.69 L21.97,48.77 L21.77,48.64 L21.89,48.54 Z" id="PH-MDC"></path>
                        <polygon id="PH-MDR" points="28.18 51.48 28.73 51.91 29.57 51.83 29.69 51.69 30.12 52.25 30.38 52.32 30.89 53.05 31.31 53.13 31.31 53.7 31.75 53.7 32.07 53.92 32.07 54.13 31.6 54.62 31.68 55.17 31.5 56.27 31.99 56.98 31.99 57.24 31.71 57.81 31.25 58.02 31.25 58.29 31.01 58.51 31.01 58.83 31.28 59.09 30.82 59.09 30.91 59.6 30.71 59.52 30.71 59.33 30.57 59.33 30.49 59.54 30.11 59.61 29.88 60.12 29.88 60.12 29.88 54.28 26.88 52.79 27.46 51.88 27.52 51.28 27.52 51.28 27.94 51.28"></polygon>
                        <path d="M1.96,88.16 L2.05,89.3 L1.93,89.36 L1.93,89.73 L1.59,89.99 L1.46,89.91 L1.46,89.67 L0.98,89.09 L1.24,88.99 L1.13,88.67 L1.24,88.3 L1.24,88.55 L1.48,88.37 L1.48,88.24 L1.96,88.16 Z M1.67,87.79 L1.89,88.09 L1.58,88.18 L1.4,88 L1.67,87.79 Z M2.41,87.45 L2.73,87.45 L2.85,87.62 L2.47,87.62 L2.41,87.45 Z M2.07,86.99 L2.32,87.2 L2.03,87.2 L2.07,86.99 Z M3.64,86.48 L3.84,86.71 L3.84,87.25 L3.49,87.46 L3.28,87.25 L3.28,86.61 L3.35,86.49 L3.64,86.49 L3.64,86.48 Z M3.02,86.57 L3.21,86.57 L3.21,86.75 L2.67,86.97 L2.58,86.77 L2.78,86.77 L3.04,86.44 L3.04,86.62 L3.02,86.57 Z M16.02,71.17 L15.88,71.42 L15.73,71.42 L15.84,71.27 L15.74,71.16 L16.02,71.16 L16.02,71.17 Z M20.49,70.74 L21,71.1 L21.5,71.1 L21.64,71.34 L21.52,71.44 L21.52,71.57 L21.28,71.65 L21.28,71.53 L21.18,71.74 L20.88,71.43 L21.14,71.88 L20.69,71.88 L20.81,72.04 L20.35,72.18 L20.06,72.03 L19.97,71.43 L20.06,71.34 L20.25,71.46 L20.53,71 L20.49,70.74 Z M28.83,68.99 L28.77,69.2 L28.91,69.34 L28.76,69.45 L28.76,69.66 L28.47,69.72 L28.31,69.51 L28.31,69.33 L28.83,68.99 Z M16.83,68.21 L16.83,68.72 L16.63,68.49 L16.63,68.24 L16.83,68.21 Z M19.62,67.97 L19.73,68.16 L19.57,68.16 L19.62,67.97 Z M18.79,67.68 L19.06,67.78 L19.06,68.21 L18.93,68.33 L18.85,68.14 L18.6,68.07 L18.79,67.68 Z M19.5,67.48 L19.57,67.69 L19.43,67.81 L19.36,67.5 L19.5,67.48 Z M28.19,67.14 L28.19,67.27 L27.9,67.4 L27.9,67.27 L28.19,67.14 Z M18.95,67.01 L19.11,67.01 L19.11,67.18 L18.69,67.35 L18.69,67.11 L18.95,67.01 Z M19.55,66.13 L19.43,66.53 L19.29,66.28 L19.55,66.13 Z M18.1,65.43 L18.28,65.49 L18.28,66.05 L18.5,66.18 L18.61,66.06 L18.71,66.39 L18.51,67.19 L18.26,67.47 L18.5,67.9 L18.66,67.8 L18.72,68.33 L18.27,68.33 L18.14,69.23 L18.48,69.65 L18.75,69.48 L18.92,69.59 L18.77,69.86 L18.93,70.26 L18.73,70.67 L19,70.67 L19.16,70.49 L19.31,70.61 L19.38,70.73 L19.08,70.73 L19.19,70.9 L19.1,70.99 L19.29,71.08 L19.4,71.51 L19.62,71.51 L19.55,71.61 L19.71,71.74 L18.83,72.32 L18.72,72.66 L17.96,72.66 L17.07,73.09 L16.53,73.84 L16.22,74.84 L14.72,75.27 L14.23,75.33 L14.23,75.23 L13.7,75.57 L13.23,75.64 L13.16,76.24 L13.38,76.54 L13.38,77.04 L13.12,76.98 L13.12,76.59 L12.9,76.76 L12.9,77.11 L13.13,77.11 L13.13,77.29 L13.31,77.29 L13.31,77.43 L12.58,78.2 L11.48,79.95 L11.09,80.05 L11.02,80.28 L10.85,80.28 L10.5,80.72 L9.6,80.78 L9.19,81.01 L9.03,80.94 L8.88,81.57 L8.66,81.57 L8.74,81.79 L8.59,81.79 L8.21,82.66 L7.43,83.01 L6.43,84.01 L5.63,84.21 L5.24,84.1 L5.04,84.31 L5.12,84.62 L4.81,85.26 L4.51,85.12 L4.34,85.3 L3.95,85.3 L2.84,86.2 L2.84,86.38 L2.66,86.38 L2.66,86.14 L2.91,85.73 L2.91,85.11 L3.23,84.72 L3.16,84.52 L3.28,84.52 L3.43,84.15 L3.69,84.03 L3.76,83.86 L3.62,83.86 L3.87,83.54 L4.31,83.45 L4.31,83.27 L4.56,83.1 L4.64,82.8 L5.19,82.11 L5.43,82.11 L5.68,81.85 L5.73,81.53 L6.14,81.25 L6.21,81.43 L6.52,81.43 L6.71,80.77 L6.95,80.54 L7.29,80.47 L7.59,80.12 L7.9,80.18 L8.09,79.98 L8.09,80.22 L8.33,80.22 L8.78,79.61 L9.04,79.55 L9.04,79.18 L9.43,79.09 L9.51,78.68 L10.39,77.93 L10.5,77.48 L10.94,77.38 L11.03,77.1 L11.64,76.73 L12.27,75.99 L12.27,75.69 L12.54,75.56 L12.66,75.28 L12.53,75.09 L13.06,74.87 L13.32,74.21 L13.41,74.95 L13.63,74.95 L13.63,74.68 L13.82,74.43 L13.61,74.36 L13.61,73.85 L14.5,73.74 L14.59,73.44 L14.49,73.36 L14.66,73.36 L14.46,73.23 L14.68,73.23 L14.68,73.06 L14.9,73.06 L14.9,72.85 L15.04,72.85 L14.97,72.61 L14.7,72.81 L14.64,72.64 L14.78,72.39 L15.04,72.33 L15.3,72.52 L15.3,72.29 L15.58,72.22 L15.37,72.1 L15.43,71.9 L15.64,71.9 L15.64,72.4 L15.81,72.6 L16.33,71.93 L16.6,71.93 L16.69,71.73 L16.43,71.5 L16.7,71.48 L17.05,71.12 L17.22,70.12 L16.97,69.86 L16.75,69.93 L16.67,69.48 L16.31,69.36 L16.64,69.11 L16.51,68.95 L16.33,68.95 L16.45,68.76 L16.37,68.62 L16.52,68.62 L16.52,68.89 L16.67,68.64 L16.79,68.72 L16.79,69.01 L16.93,69.01 L16.71,69.15 L17,69.15 L16.83,69.31 L17,69.48 L17,69.36 L17.1,69.61 L17.26,69.54 L17.18,69.68 L17.46,69.68 L17.53,69.94 L17.66,69.87 L17.76,70.19 L17.97,70.19 L17.78,69.68 L17.78,69.48 L17.92,69.39 L17.65,69.2 L17.22,69.2 L17.12,69.05 L17.3,68.75 L16.95,68.75 L16.95,68.32 L17.06,68.14 L17.2,68.42 L17.42,68.34 L17.11,68.12 L17.22,68 L17.08,68 L17.08,67.66 L17.39,68.09 L17.68,68.09 L17.75,67.4 L17.57,67.4 L17.57,67.16 L17.71,66.87 L17.71,66.18 L18.13,65.83 L18.1,65.43 Z M20.36,64.78 L20.74,64.97 L20.74,65.24 L20.4,65.76 L20.28,65.6 L20.42,65.41 L20.17,65.41 L20.09,65.62 L19.68,65.15 L19.79,65.05 L20.07,65.33 L20.07,65.19 L20.2,65.19 L20.05,65.07 L20.14,64.95 L20.31,65.23 L20.31,65.09 L20.48,65.19 L20.41,65.02 L20.57,65.02 L20.36,64.78 Z M22.57,63.12 L22.8,63.12 L22.8,63.24 L22.57,63.12 Z M20.98,61.67 L21.44,61.88 L21.23,61.88 L21.23,62.09 L21.76,61.96 L21.76,62.07 L21.49,62.19 L22.07,62.43 L21.71,62.56 L21.91,62.56 L21.76,62.79 L22.05,62.91 L21.79,63.12 L21.95,63.12 L21.89,63.38 L21.27,63.78 L21.15,63.29 L21.58,62.91 L21.32,62.82 L21.32,63.06 L21.1,63.06 L20.95,62.84 L20.86,62.58 L21,62.49 L20.54,61.78 L20.84,61.94 L20.72,61.62 L20.98,61.67 Z M23.28,61.62 L23.47,61.95 L23.28,62.14 L23.54,62.14 L23.54,62.29 L23.22,62.54 L22.85,61.94 L23.28,61.62 Z M20.92,59.27 L21.12,59.34 L21.12,59.67 L21.69,59.78 L22.01,60.22 L22.26,60.15 L22.26,60.32 L22.69,60.7 L23.03,60.62 L23.1,60.17 L23.23,60.17 L23.23,60.63 L23.42,60.54 L23.5,60.74 L23.81,60.9 L23.81,61.58 L23.56,61.65 L23.25,61.48 L23.06,61.64 L22.69,61.32 L22.44,61.32 L22.44,61.52 L22.19,61.81 L22.11,61.55 L21.88,61.42 L21.66,61.63 L21.5,61.48 L20.94,60.16 L20.64,60.53 L20.79,60.02 L20.68,59.95 L20.82,59.57 L20.72,59.43 L20.92,59.27 Z" id="PH-PLW"></path>
                        <polygon id="PH-PAM" points="24.12 39.8 25.48 39.16 26.05 39.08 26.33 39.18 26.61 39.02 26.61 39.14 26.8 39.14 26.8 39.14 26.9 39.58 27.31 39.58 27.45 39.86 27.67 39.56 28.04 39.49 28.04 39.49 27.96 39.93 28.25 40.3 28.12 40.76 27.93 40.76 27.81 41.05 27.65 40.99 27.65 41.17 27.22 41.52 26.63 41.57 26.37 42.4 26.37 42.4 26 42.62 25.49 42.18 25.49 42.18 25.14 42.11 24.95 41.62 24.7 41.49 24.7 41.49 24.43 41.07 24.32 40.47 24.06 40.28"></polygon>
                        <path d="M21.56,31.61 L21.78,31.86 L21.62,32.12 L21.75,32.37 L21.58,32.5 L21.07,31.97 L21.29,31.73 L21.38,31.93 L21.38,31.66 L21.56,31.61 Z M23.33,36.68 L22.62,35.25 L22.19,35.34 L21.81,35.1 L21.55,35.47 L20.86,35.37 L20.86,35.37 L21.03,35.14 L20.68,34.34 L20.58,34.23 L20.35,34.33 L20.3,34.56 L20.17,34.5 L20.08,34.62 L19.93,34.27 L20.09,33.86 L19.97,33.69 L19.97,33.28 L20.1,33.09 L19.91,32.83 L20.11,32.35 L20.11,31.87 L20.35,31.52 L20.62,31.52 L20.8,31.27 L21.08,31.44 L21.02,32.32 L21.5,32.48 L21.5,32.61 L21.8,32.87 L21.87,32.71 L22.26,32.85 L22.42,33.03 L22.27,33.29 L22.44,33.49 L22.33,33.56 L22.65,33.77 L23.88,33.64 L24.52,32.92 L24.47,32.6 L24.47,32.6 L25.03,32.6 L25.12,32.42 L25.12,32.42 L26.12,32.76 L26.88,32.66 L26.88,32.66 L27.37,32.87 L27.63,33.33 L27.63,33.33 L27.92,34.21 L27.49,35.31 L27.25,35.5 L26.72,35.09 L25.84,35.23 L25.84,35.23 L25.67,34.83 L25.4,35.65 L24.95,35.93 L24.36,35.68 L23.85,36.36 L23.85,36.49 L23.33,36.68 Z M21.18,31.06 L21.37,31.46 L21.03,31.35 L21.03,31.1 L21.18,31.06 Z" id="PH-PAN"></path>
                        <path d="M33.43,48.25 L33.65,48.25 L33.65,48.66 L33.3,48.56 L33.43,48.25 Z M34.83,46.46 L35.92,47.26 L36.34,47.8 L36.12,47.8 L34.96,47.04 L34.5,46.48 L34.61,46.19 L34.83,46.46 Z M33.91,45.76 L34.08,45.76 L33.86,46.11 L33.75,45.81 L33.91,45.76 Z M37.82,42.83 L38.01,43.02 L37.91,43.12 L37.12,43.2 L37.31,42.96 L37.82,42.83 Z M35.96,42.15 L36.3,42.04 L36.3,42.3 L36.75,42.42 L36.75,42.86 L35.75,42.32 L35.66,42.06 L35.96,42.15 Z M35.22,41.8 L35.63,42.06 L35.23,42.06 L35.23,41.83 L35.22,41.8 Z M34.73,40.57 L35.2,40.76 L35.13,40.91 L35.4,40.91 L35.4,41.21 L35.23,41.01 L35.09,41.01 L34.96,41.22 L35.15,41.15 L35.15,41.48 L34.79,41.57 L34.88,42.03 L35.16,42.25 L35.25,42.91 L35.02,43.24 L34.59,43.52 L34.35,43.18 L34.35,42.85 L34.57,42.94 L34.37,42.31 L33.87,41.26 L33.87,41.45 L33.67,41.39 L33.91,40.68 L34.11,40.8 L34.73,40.57 Z M30.64,40.99 L30.64,40.67 L31.02,40.1 L30.91,39.78 L31.17,39.48 L31.17,39.48 L31.59,39.72 L31.76,40.59 L32.5,41.98 L32.42,42.16 L33.31,43.07 L32.99,43.07 L32.65,43.31 L32.54,43.18 L32.43,43.41 L32.81,45.17 L33.26,45.65 L33.26,46.02 L33.46,46.22 L33.29,46.78 L34.71,47.99 L35.71,48.44 L36.6,48.63 L36.68,48.31 L36.38,48.19 L36.26,47.95 L37.05,48.2 L37.05,47.97 L37.25,47.78 L37.02,47.78 L37.02,47.63 L36.38,47.26 L36.19,46.93 L36.19,46.8 L36.34,46.94 L36.34,46.78 L36.56,46.59 L36.76,46.68 L36.76,46.23 L36.94,46.28 L36.88,47.04 L37.17,46.95 L37.11,47.33 L37.11,47.33 L37.11,47.43 L37.54,47.43 L38.05,46.86 L40.39,47.78 L40.39,47.78 L38.75,48.23 L38.75,48.23 L38.61,48.15 L38.61,48.41 L38.11,48.41 L38.61,49.16 L38.51,49.47 L38.61,49.73 L38.39,49.73 L38.31,49.87 L38.42,50.32 L38.75,50.75 L39.34,51.13 L39.23,51.24 L38.87,50.91 L39.62,52.16 L39.62,52.88 L39.8,53.22 L39.1,53.64 L38.46,53.09 L38.58,52.83 L38.58,52.36 L37.81,51.16 L37.34,50.91 L37.27,50.71 L36.99,50.82 L36.86,50.82 L36.97,50.74 L36.89,50.65 L36.5,50.65 L36.5,50.4 L35.8,49.4 L35.5,49.47 L35.32,49.25 L35.01,49.25 L34.95,49.01 L34.41,48.86 L34.28,48.63 L33.97,48.63 L33.91,48.29 L33.69,48.29 L33.46,48.09 L33.1,48.09 L33.17,48.36 L32.5,48.48 L32.44,48.6 L32.35,48.51 L31.35,49.08 L31.35,49.08 L30.76,48.74 L30.11,48.74 L29.88,48.41 L30.07,48.31 L30.07,48.14 L30.07,48.14 L30.53,47.99 L31.21,47.45 L31.62,47.38 L31.82,46.88 L32.1,46.72 L32.54,46.1 L32.49,45.19 L32.06,45.08 L31.46,43.93 L31.46,43.93 L30.7,42.48 L30.7,41.71 L30.7,41.71 L30.64,40.99 Z" id="PH-QUE"></path>
                        <polygon id="PH-QUI" points="31.09 29.57 32.09 29.65 33.42 31.32 35.61 30.32 35.94 30.32 35.94 30.32 35.49 30.61 33.96 32.48 31.5 34.61 31.5 34.61 30.5 33.76 30.31 32.08 31.31 31.68 31.4 31.06 30.92 30.9"></polygon>
                        <path d="M29.97,45.58 L29.97,45.84 L29.79,45.42 L29.79,44.93 L29.9,45.44 L29.9,45.44 L30.07,45.51 L29.97,45.58 Z M30.71,41.69 L30.71,42.46 L31.51,43.87 L31.51,43.87 L30.88,44.27 L30.78,44.69 L30.78,45.31 L30.92,45.47 L30.39,45.85 L30.6,45.01 L30.51,44.66 L30.01,44.28 L29.79,44.58 L29.79,45.01 L29.44,44.31 L29.05,44.19 L29.05,44.19 L29.05,43.52 L29.25,43.3 L29.06,43.18 L29.25,42.74 L29.13,42.6 L29.13,42.6 L29.59,42.14 L30.1,42.04 L30.71,41.69 Z" id="PH-RIZ"></path>
                        <path d="M34.63,60.89 L34.8,61.1 L34.8,61.34 L34.5,61.13 L34.63,60.89 Z M38.73,58.1 L39.46,58.25 L39.75,58.81 L39.64,59.31 L39.32,59.73 L38.83,59.42 L38.69,59.09 L38.08,58.84 L37.91,58.59 L38.16,58.22 L38.73,58.1 Z M36.97,57.28 L37.26,57.86 L37.26,58.1 L37.09,58.29 L36.73,57.93 L36.82,57.84 L36.7,57.64 L36.86,57.64 L36.97,57.28 Z M35.84,56.94 L36.1,57.04 L36.16,57.23 L35.94,57.23 L35.89,57.34 L36.01,57.89 L35.82,58.16 L35.66,59.43 L35.34,60.01 L35.34,60.26 L35.51,60.34 L35.21,60.51 L35.14,60.9 L34.76,60.28 L34.82,59.94 L34.96,60.27 L35.16,59.97 L34.82,59.81 L34.67,59.53 L34.56,59.6 L34.56,59.39 L34.7,58.88 L35,58.77 L35.12,58.53 L35.12,57.48 L35.62,57.31 L35.84,56.94 Z M35.64,55.82 L35.48,56.19 L35.28,56.19 L35.64,55.82 Z M33.08,55.06 L33.3,55.2 L33.16,55.43 L32.92,55.2 L33.08,55.06 Z M35.62,54.97 L35.74,54.97 L35.67,55.24 L35.46,55.32 L35.29,55.01 L35.62,54.97 Z" id="PH-ROM"></path>
                        <path d="M54.08,63.65 L54.47,63.74 L54.41,64.12 L54.1,64.07 L54.01,63.54 L54.08,63.65 Z M53.41,63.43 L53.56,63.76 L53.74,63.67 L53.64,63.82 L53.91,63.98 L53.83,64.29 L54.2,64.29 L54.02,64.77 L53.81,64.64 L53.91,64.52 L53.64,64.46 L53.64,64.23 L53.82,64.23 L53.36,63.82 L53.36,63.42 L53.47,63.42 L53.41,63.43 Z M53.54,63.34 L53.72,63.43 L53.62,63.62 L53.54,63.34 Z M52.8,62.11 L52.95,62.18 L52.95,62.32 L52.8,62.11 Z M51.5,62.06 L51.62,62.33 L51.29,62.33 L51.29,62.13 L51.5,62.06 Z M50.72,61.84 L50.72,61.99 L50.53,62.24 L50.32,62.24 L50.32,62.03 L50.72,61.84 Z M51.33,61.64 L51.33,61.87 L51.17,61.8 L51.33,61.64 Z M49.99,61.01 L50.08,61.17 L49.93,61.11 L49.67,61.36 L49.46,61.26 L49.61,61.05 L49.99,61.01 Z M50.88,59.64 L51.36,59.64 L51.73,59.29 L52.79,59.92 L53.28,59.59 L54.14,60.08 L54.06,60.38 L54.23,60.63 L54.56,59.85 L55.02,60.02 L56.22,59.63 L56.22,59.63 L56.22,60.31 L56,60.46 L56,61.63 L56.62,61.63 L57.04,62.63 L57.12,63.83 L56.71,64.13 L56.61,64.37 L56.77,65.42 L57.28,65.73 L56.9,66.28 L56.9,67.64 L56.9,67.64 L56.78,67.86 L56.6,67.78 L56.22,66.48 L55.69,66.41 L55.26,66.53 L55.07,66.42 L55.07,66.16 L55.23,65.95 L54.98,65.26 L54.6,65.15 L54.5,64.89 L54.5,65.2 L54.17,65.2 L54.04,65.03 L54.29,64.59 L54.38,64.73 L54.53,64.73 L54.45,64.47 L55.02,64.47 L54.96,64.38 L55.15,64.24 L55.08,63.87 L55.45,63.58 L55.45,63.28 L55.18,63.15 L54.59,63.42 L54.44,63.33 L54.25,62.93 L53.69,62.59 L53.86,62.42 L53.8,62.31 L53.45,62.37 L53.45,62.16 L53.62,62.09 L53.25,62.02 L53.25,61.8 L52.76,61.3 L52.03,61.22 L51.1,60.31 L50.88,59.64 Z" id="PH-WSA"></path>
                        <path d="M57.88,105.9 L58.09,106.01 L58.04,106.37 L57.56,106.37 L57.41,106.22 L57.88,105.9 Z M58.42,105.5 L58.56,105.68 L58.37,106.21 L58.24,105.9 L58.39,105.76 L58.27,105.69 L58.5,105.69 L58.42,105.5 Z M51.15,100.69 L53.81,102.05 L55.31,102.1 L55.55,101.73 L55.55,102.38 L55.89,102.38 L55.89,102.38 L55.7,103.03 L54.7,103.03 L52.55,102.18 L52.38,101.98 L51.98,101.93 L50.87,101.29 L50.87,101.29 L51.15,100.69 Z M56.36,98.97 L56.88,99.25 L57.35,99.04 L57.56,98.71 L58.04,98.85 L58.5,99.48 L58.5,99.85 L58.27,100.09 L58.58,100.57 L58.58,101.21 L58.77,101.42 L58.38,102.76 L58.43,103.14 L57.86,104.48 L57.28,104.91 L57.37,105.04 L57.37,105.04 L57.18,104.95 L57.28,104.63 L57.13,104.22 L56.8,104.05 L56.66,103.72 L56.43,103.72 L56.37,103.53 L56.37,103.29 L56.55,103.38 L56.6,102.97 L56.98,102.76 L57.1,102.36 L56.98,101.65 L56.76,101.56 L56.76,101.56 L56.76,101.06 L57,100.39 L55.69,99.92 L55.95,99.38 L56.14,99.38 L56.36,98.97 Z" id="PH-SAR"></path>
                        <polygon id="PH-SIG" points="45.84 79.89 46.03 79.89 46.38 80.38 46.18 80.6 46.49 80.9 46.35 81.06 46.08 81.06 45.73 81.27 44.81 80.6 44.93 80.39 45.53 80.39 45.75 80.22"></polygon>
                        <polygon id="PH-SOR" points="48.15 53.99 48.31 53.99 49.07 54.72 49.39 54.22 49.82 54.36 49.82 54.61 49.65 54.71 49.55 54.61 49.45 55.19 49.28 55.35 49.5 55.48 49.56 56.07 49.43 57.07 49.15 57.31 49.26 57.59 49.09 57.67 49.19 57.78 49.07 57.98 48.46 57.92 48.11 57.54 48.11 57.28 47.99 57.34 47.7 57.08 47.4 55.9 47.59 55.58 48.1 55.79 48.19 55.58 48.65 55.58 48.82 55.22 48.69 54.92 48.32 55.04 47.77 54.88 47.57 55.43 47.45 55.43 47.4 55.63 47.32 55.53 47.18 55.72 46.9 55.48 46.71 55.77 46.71 55.48 46.43 55.7 46.36 55.3 46.13 55.48 46.13 55.66 45.49 55.15 45.3 55.15 44.97 54.8 44.97 54.8 45.6 54.51 45.97 54.65 46.68 54.56 46.91 54.82 47.5 54.48 47.82 54.48 48.06 53.95 48.06 53.95"></polygon>
                        <polygon id="PH-SCO" points="51.16 100.69 50.63 100.5 50.38 99.92 52.15 99.92 52.5 100.04 52.83 99.48 52.55 98.71 52.81 97.99 52.9 97.99 53.02 98.18 53.54 97.7 54.1 98.63 56.54 98.63 56.54 98.63 56.37 99.08 56.37 99.08 56.17 99.4 55.98 99.4 55.72 99.93 57.03 100.4 56.79 101.07 56.79 101.57 56.79 101.57 56.28 101.52 55.86 102.52 55.86 102.52 55.52 102.52 55.52 101.87 55.28 102.24 53.78 102.19"></polygon>
                        <polygon id="PH-SLE" points="56.22 70.93 56.51 71.24 56.33 71.53 56.51 71.94 56.43 72.24 56.67 72.54 56.84 72.48 56.96 72.64 57.03 73.13 56.94 73.4 56.71 73.48 56.12 73.28 56.12 74.05 56.68 74.28 57.14 75.19 57.21 75.72 56.97 75.72 56.5 74.88 56.16 74.72 56.07 73.94 55.81 73.67 55.3 72.57 55.04 72.57 55.1 73.65 55.41 74.5 55.41 75.06 54.58 74.49 54.48 74.28 53.73 74.2 53.61 73.8 53.61 73.8 53.72 73.8 54.2 73.34 54.55 73.26 54.55 72.31 54.86 71.5 55.62 71.5"></polygon>
                        <polygon id="PH-SUK" points="48.77 97.07 50.28 97.07 50.4 97.27 51.93 97.27 52.39 96.78 52.23 96.34 52.92 96.19 53.17 96.29 52.97 96.86 53.5 96.86 53.86 97.75 54.44 97.75 55.23 97.32 55.23 97.32 56.02 97.08 56.02 97.08 56.23 97.24 56.1 97.3 56.1 97.59 56.42 97.99 56.5 98.48 56.5 98.48 54.06 98.48 53.5 97.55 52.98 98.03 52.86 97.84 52.77 97.84 52.51 98.56 52.79 99.33 52.46 99.89 52.11 99.77 50.34 99.77 50.59 100.35 51.12 100.54 51.12 100.54 50.82 101.17 50.82 101.17 50.64 101.17 49.7 100.52 49.58 100.1 49.18 99.78 48.99 99.33 48.83 99.39 48.59 98.39 48.88 98.25 48.69 98.19 48.8 97.69 48.55 97.08"></polygon>
                        <path d="M27.14,105.36 L27.26,105.59 L27.08,105.75 L27.14,105.36 Z M27.01,105.63 L26.84,105.58 L27.06,105.33 L27.01,105.63 Z M27.01,105.01 L27.12,105.1 L27.05,105.33 L26.78,105.49 L26.69,105.28 L26.82,105.05 L27.01,105.01 Z M27.38,104.89 L27.75,105.21 L27.43,105.55 L27.13,105.17 L27.38,104.89 Z M28.87,104.25 L28.65,104.42 L28.46,104.26 L28.87,104.26 L28.87,104.25 Z M27.49,104.12 L27.64,104.19 L27.45,104.36 L27.03,104.36 L27.11,104.12 L27.5,104.12 L27.49,104.12 Z M27.84,103.75 L27.94,104.02 L27.65,104.17 L27.65,103.85 L27.84,103.75 Z M29.38,103.13 L29.67,103.24 L29.77,103.46 L29.32,103.55 L29.38,103.13 Z M21.26,102.89 L21.42,103.05 L21.14,102.99 L21.26,102.89 Z M21.66,102.53 L21.66,102.73 L21.53,102.66 L21.66,102.53 Z M32.33,102.28 L32.4,102.44 L32.22,102.57 L32.14,102.41 L32.33,102.28 Z M22.51,102.42 L22.28,102.29 L22.35,102.19 L22.51,102.42 Z M32.13,101.94 L31.89,102.15 L32.03,101.86 L32.13,101.94 Z M31.2,101.77 L31.26,102.03 L30.99,102.03 L30.99,101.9 L31.2,101.77 Z M32.93,101.77 L33.29,101.93 L32.88,102.22 L32.78,102.16 L33.01,101.95 L32.93,101.77 Z M29.14,101.52 L29.43,101.61 L29.78,102.16 L30.27,102 L30.52,102.12 L31.03,102.06 L31.24,102.41 L30.99,102.53 L30.99,102.78 L30.78,102.69 L30.33,103.1 L30.33,102.96 L30.03,102.85 L30.03,102.55 L29.75,102.44 L28.94,102.95 L28.6,102.6 L28.03,102.87 L27.62,102.66 L27.62,102.43 L27.94,101.95 L28.46,101.76 L28.5,101.48 L29.14,101.52 Z M33.56,101.52 L34.19,102.01 L34.77,101.79 L34.14,102.16 L33.61,101.79 L33.47,101.62 L33.56,101.52 Z M25.29,101.17 L25.42,101.29 L25.33,101.39 L25.29,101.17 Z M34.04,101.17 L34.11,101.36 L33.89,101.36 L34.04,101.17 Z M24.75,101 L24.75,101.27 L24.5,101.14 L24.75,101 Z M33.89,101 L33.98,101.19 L33.8,101.32 L33.73,101.16 L33.89,101 Z M28.17,100.8 L28.35,100.89 L28.35,101 L28.2,101 L28.17,100.8 Z M26.08,100.03 L26.13,100.32 L25.92,100.51 L25.84,100.4 L26.08,100.03 Z M27.47,99.88 L27.56,100.03 L27.33,100.1 L27.47,99.88 Z M25.68,99.53 L25.5,100.48 L24.83,100.48 L24.83,100.36 L25.09,100.36 L25.33,99.63 L25.68,99.53 Z M26.45,99.24 L26.45,99.48 L26.17,99.43 L26.45,99.24 Z" id="PH-SLU"></path>
                        <path d="M59.43,77 L59.67,77 L59.67,77.39 L59.52,77.07 L59.39,77.07 L59.43,77 Z M62.13,77 L62.4,77 L62.4,77.13 L62.16,77.13 L61.99,77.34 L61.99,77.2 L61.75,77.29 L61.75,76.97 L61.92,77.17 L62.13,77 Z M61.54,76.82 L61.54,76.98 L61.69,76.9 L61.75,77.02 L61.69,77.29 L61.88,77.46 L61.69,78.1 L61.53,78.16 L61.19,77.8 L61.34,77.7 L61.34,77.51 L61.47,77.51 L61.38,76.83 L61.54,76.82 Z M59.54,76.59 L59.71,76.85 L59.42,76.74 L59.54,76.59 Z M60.05,76.59 L60.2,76.66 L60.1,76.85 L59.93,76.77 L59.93,76.58 L60.08,76.58 L60.05,76.59 Z M58.56,76.59 L58.62,76.78 L59.09,76.78 L59.03,76.9 L59.19,77.05 L59.32,77.65 L59.62,77.86 L60.19,77.91 L60.19,78.09 L60.9,78.26 L61.1,78.54 L61.39,78.54 L61.39,78.54 L60.25,79.69 L60.25,79.69 L60.25,79.24 L59.89,78.94 L59.05,78.79 L58.32,78.92 L58.32,78.92 L57.84,77.48 L57.91,76.73 L58.17,76.56 L58.17,76.35 L58.32,76.44 L58.26,76.57 L58.56,76.59 Z M59.56,75.8 L59.56,76.05 L59.56,76.13 L59.66,76.22 L59.86,76.22 L59.2,76.53 L59.2,76.35 L59.09,76.43 L59.09,76.3 L59.56,75.8 Z M58.74,75.8 L58.99,76.13 L58.7,75.96 L58.74,75.8 Z M61.81,75.8 L61.38,76.06 L61.82,75.65 L61.82,75.8 L61.81,75.8 Z M62.41,74.8 L62.81,76.06 L62.66,76.19 L62.95,76.28 L62.95,76.54 L63.09,76.54 L62.72,76.94 L62.3,76.94 L61.61,76.39 L61.68,76.26 L61.91,76.26 L61.68,76.1 L62.41,74.8 Z" id="PH-SUN"></path>
                        <path d="M34.99,100.05 L34.99,100.2 L34.77,100.2 L34.77,100.06 L34.99,100.05 Z M32.52,98.05 L32.59,97.7 L32.13,97.35 L32.52,98.05 Z M35.33,99.88 L35.25,99.73 L35.17,99.87 L35.33,99.87 L35.33,99.88 Z M34.89,99.65 L34.71,99.72 L34.95,99.8 L34.89,99.65 Z M36.02,97.58 L36.02,97.26 L35.76,97.26 L35.53,97 L35.05,97.1 L34.34,97.64 L33.99,97.48 L33.72,97.98 L34.29,98.3 L34.23,98.67 L34.82,99.17 L34.82,99.33 L35.37,99.33 L36.37,99.05 L36.58,98.19 L37.19,98.12 L37.35,97.89 L37.21,97.75 L36.02,97.58 Z" id="PH-BAS"></path>
                        <polygon id="PH-ZAS" points="41.21 89.22 41.52 89.22 42.3 88.65 42.9 88.65 43.13 87.01 45.47 87.17 45.47 87.17 45.56 88.32 46.05 88.41 46.05 88.53 46.05 88.53 46.27 88.94 46.27 88.94 45.94 89.78 45.94 89.78 45.56 89.62 44.56 89.86 44.56 90.17 44.97 90.44 44.97 90.84 44.87 91.1 44.34 91.25 44.34 91.59 44.12 91.43 43.99 91.6 44.29 91.72 44.38 92.23 44.49 92.17 44.75 92.39 44.66 92.55 44.77 92.79 44.52 92.89 43.64 92.16 43.75 91.74 43.24 91.68 42.96 91.91 43.07 92.04 42.93 92.17 42.93 91.97 42.57 91.84 42.48 91.53 42.66 91.39 42.44 91.24 42.6 91.24 42.7 91.43 43.1 91.33 42.97 91 42.64 90.85 42.71 90.51 42.56 90.37 42.44 90.57 42.44 90.57 42.36 89.86 41.22 89.72 41.22 89.13 41.22 89.13"></polygon>
                    </g>
                </g>
            </g>
        </g>
    </g>
</svg>