<?xml version="1.0" encoding="utf-8"?>
<!-- Generator: Adobe Illustrator 21.1.0, SVG Export Plug-In . SVG Version: 6.00 Build 0)  -->
<svg version="1.1" id="Layer_1" xmlns="http://www.w3.org/2000/svg" xmlns:xlink="http://www.w3.org/1999/xlink" x="0px" y="0px"
	 viewBox="0 0 114 114" style="enable-background:new 0 0 114 114;" xml:space="preserve">
<style type="text/css">
	.st0{fill:#B1B2B3;stroke:#FFFFFF;stroke-width:0.5;}
</style>
<title>PK</title>
<desc>Created with Sketch.</desc>
<g id="Map-countries">
	<g id="Artboard" transform="translate(-1717.000000, -985.000000)">
		<polygon id="PK" class="st0" points="1812.6,990.5 1817.5,994.3 1819.4,1000.6 1830.3,1003.9 1823.9,1010.7 1816.6,1011.9 
			1806.5,1009.9 1803.3,1013.4 1805.6,1020.3 1807.9,1025.6 1813.2,1029.5 1807.6,1034 1807.7,1039.5 1801.3,1047.1 1797.1,1054.8 
			1790.2,1062.7 1782.5,1062.1 1775.2,1069.9 1779.6,1073.2 1780.3,1078.8 1784,1082.5 1785.3,1088.8 1770.8,1088.7 1766.4,1093.6 
			1761.5,1091.7 1759.5,1086.5 1754.4,1081 1742.2,1082.4 1731.5,1082.5 1722.1,1083.5 1724.6,1075 1734.2,1071.2 1733.6,1067.8 
			1730.5,1066.6 1730.3,1060.1 1724,1056.8 1721.3,1052.2 1718,1048.3 1729.1,1052.1 1735.7,1051 1739.7,1052 1741,1050.3 
			1745.6,1051 1754.2,1047.8 1754.5,1041.3 1758.2,1037 1763.1,1037 1763.8,1034.8 1768.9,1033.8 1771.3,1034.5 1773.9,1032.4 
			1773.6,1027.7 1776.4,1023 1780.6,1021 1778,1015.7 1784.3,1016 1786.1,1013.1 1785.8,1010 1789.1,1006.6 1788.3,1002.6 
			1786.8,999.2 1790.7,995.6 1797.8,993.9 1805.4,993 1808.7,991.4 		"/>
	</g>
</g>
</svg>
