<?xml version="1.0" encoding="UTF-8"?>
<svg width="114px" height="104px" viewBox="0 0 114 104" version="1.1" xmlns="http://www.w3.org/2000/svg" xmlns:xlink="http://www.w3.org/1999/xlink">
    <!-- Generator: Sketch 43.2 (39069) - http://www.bohemiancoding.com/sketch -->
    <title>PK</title>
    <desc>Created with Sketch.</desc>
    <defs></defs>
    <g id="Map-countries" stroke="none" stroke-width="1" fill="none" fill-rule="evenodd">
        <g id="Artboard" transform="translate(-1717.000000, -985.000000)" stroke-width="0.5" stroke="#FFFFFF" fill="#B1B2B3">
            <polygon id="PK" points="1812.58383 985.499416 1817.47099 989.347819 1819.43057 995.628034 1830.31452 998.9098 1823.91636 1005.66221 1816.55022 1006.86631 1806.4926 1004.9067 1803.25811 1008.35373 1805.59544 1015.31863 1807.88556 1020.63084 1813.2449 1024.47925 1807.60224 1028.98873 1807.69668 1034.48982 1801.27491 1042.1394 1797.11965 1049.83621 1790.20209 1057.67467 1782.50541 1057.10803 1775.21009 1064.89928 1779.55423 1068.20465 1780.30973 1073.8474 1784.01641 1077.53054 1785.33854 1083.76353 1770.77152 1083.73992 1766.35655 1088.55633 1761.51662 1086.73837 1759.53343 1081.54421 1754.41018 1076.01951 1742.22771 1077.38888 1731.4618 1077.50693 1722.13608 1078.54576 1724.63868 1070.04622 1734.17689 1066.24504 1733.63387 1062.84522 1730.47021 1061.64112 1730.28133 1055.1012 1723.954 1051.79582 1721.28614 1047.23912 1718.02803 1043.27267 1729.10086 1047.14469 1735.73511 1046.01141 1739.67789 1046.95581 1741.02363 1045.30312 1745.62747 1045.96419 1754.24491 1042.82409 1754.48101 1036.33138 1758.16408 1031.98717 1763.09845 1031.98717 1763.80673 1029.83868 1768.88276 1028.82346 1771.31454 1029.53175 1773.91157 1027.35965 1773.55743 1022.6849 1776.36696 1017.96293 1780.56944 1015.9561 1777.9724 1010.71472 1784.27612 1010.97442 1786.09404 1008.09402 1785.81073 1005.02475 1789.11605 1001.64854 1788.33694 997.634869 1786.77872 994.187834 1790.65067 990.62275 1797.75711 988.899232 1805.35935 987.954839 1808.71189 986.4202"></polygon>
        </g>
    </g>
</svg>