<?xml version="1.0" encoding="utf-8"?>
<!-- Generator: Adobe Illustrator 21.1.0, SVG Export Plug-In . SVG Version: 6.00 Build 0)  -->
<svg version="1.1" id="Layer_1" xmlns="http://www.w3.org/2000/svg" xmlns:xlink="http://www.w3.org/1999/xlink" x="0px" y="0px"
	 viewBox="0 0 68 68" style="enable-background:new 0 0 68 68;" xml:space="preserve">
<style type="text/css">
	.st0{fill:#B1B2B3;stroke:#FFFFFF;stroke-width:0.5;}
</style>
<title>PL</title>
<desc>Created with Sketch.</desc>
<g id="Map-countries">
	<g id="Artboard" transform="translate(-1407.000000, -814.000000)">
		<polygon id="PL" class="st0" points="1414.5,858.1 1411.7,851.4 1412.3,847.7 1410.6,841.9 1408.2,838 1410.1,835.1 1408.5,829.4 
			1413,826.1 1423.4,820.9 1431.7,817 1438.3,819 1438.8,821.8 1445.2,821.9 1453.3,823.2 1465.5,823 1468.9,824.2 1470.5,827.7 
			1470.8,832.6 1472.6,836.8 1472.6,841.2 1468.6,843.4 1470.7,848.4 1470.8,853.2 1474.1,862.3 1473.4,865.3 1470.1,866.5 
			1464.1,875 1465.8,879.5 1464.4,878.9 1458.1,875.1 1453.3,876.5 1450.2,875.4 1446.3,877.6 1443,874 1440.2,875.4 1439.8,874.8 
			1436.8,869.8 1431.9,869.1 1431.2,865.9 1426.7,864.8 1425.7,867.4 1422.1,865.3 1422.5,862.4 1417.6,861.5 		"/>
	</g>
</g>
</svg>
