<?xml version="1.0" encoding="UTF-8"?>
<svg width="68px" height="64px" viewBox="0 0 68 64" version="1.1" xmlns="http://www.w3.org/2000/svg" xmlns:xlink="http://www.w3.org/1999/xlink">
    <!-- Generator: Sketch 43.2 (39069) - http://www.bohemiancoding.com/sketch -->
    <title>PL</title>
    <desc>Created with Sketch.</desc>
    <defs></defs>
    <g id="Map-countries" stroke="none" stroke-width="1" fill="none" fill-rule="evenodd">
        <g id="Artboard" transform="translate(-1407.000000, -814.000000)" stroke-width="0.5" stroke="#FFFFFF" fill="#B1B2B3">
            <polygon id="PL" points="1414.45788 856.141152 1411.7428 849.38874 1412.2622 845.705607 1410.60954 839.921198 1408.22499 836.025576 1410.06653 833.074347 1408.5083 827.431598 1413.04132 824.149831 1423.35864 818.908449 1431.71638 815.036436 1438.30341 816.972442 1438.79921 819.758402 1445.19737 819.900061 1453.34263 821.198602 1465.5251 821.009724 1468.92485 822.237435 1470.50669 825.68447 1470.79 830.618925 1472.63154 834.821475 1472.58432 839.189293 1468.61793 841.408618 1470.67195 846.413902 1470.79 851.159478 1474.11893 860.343702 1473.41065 863.271321 1470.12894 864.475422 1464.10853 872.998571 1465.80841 877.531659 1464.36823 876.941413 1458.08812 873.069401 1453.31902 874.485991 1450.20257 873.447158 1446.2834 875.619263 1442.95447 872.030568 1440.21578 873.399939 1439.83803 872.786083 1436.79241 867.757189 1431.88165 867.143333 1431.24419 863.908786 1426.71118 862.751905 1425.71958 865.419816 1422.13095 863.294931 1422.53231 860.438141 1417.59794 859.517358"></polygon>
        </g>
    </g>
</svg>