<?xml version="1.0" encoding="utf-8"?>
<!-- Generator: Adobe Illustrator 21.1.0, SVG Export Plug-In . SVG Version: 6.00 Build 0)  -->
<svg version="1.1" id="Layer_1" xmlns="http://www.w3.org/2000/svg" xmlns:xlink="http://www.w3.org/1999/xlink" x="0px" y="0px"
	 viewBox="0 0 48 48" style="enable-background:new 0 0 48 48;" xml:space="preserve">
<style type="text/css">
	.st0{fill:#B1B2B3;stroke:#FFFFFF;stroke-width:0.5;}
</style>
<title>PT</title>
<desc>Created with Sketch.</desc>
<g id="Map-countries">
	<g id="Artboard" transform="translate(-1251.000000, -941.000000)">
		<polygon id="PT" class="st0" points="1267.7,944.9 1270.1,942.6 1272.8,941.3 1274.5,945.7 1278.4,945.7 1279.5,944.6 
			1283.4,944.9 1285.3,949.3 1282.2,951.7 1282.1,958.5 1281,959.7 1280.8,963.8 1277.9,964.5 1280.6,969.6 1278.7,975.2 
			1281,977.7 1280.1,979.9 1277.7,983 1278.2,985.8 1275.6,987.9 1272.1,986.8 1268.6,987.7 1269.6,981.2 1269,976.1 1266.1,975.3 
			1264.5,972.1 1265,966.5 1267.6,963.4 1268.1,960 1269.5,954.7 1269.3,951 1268,947.9 		"/>
	</g>
</g>
</svg>
