<?xml version="1.0" encoding="UTF-8"?>
<svg width="23px" height="48px" viewBox="0 0 23 48" version="1.1" xmlns="http://www.w3.org/2000/svg" xmlns:xlink="http://www.w3.org/1999/xlink">
    <!-- Generator: Sketch 43.2 (39069) - http://www.bohemiancoding.com/sketch -->
    <title>PT</title>
    <desc>Created with Sketch.</desc>
    <defs></defs>
    <g id="Map-countries" stroke="none" stroke-width="1" fill="none" fill-rule="evenodd">
        <g id="Artboard" transform="translate(-1251.000000, -941.000000)" stroke-width="0.5" stroke="#FFFFFF" fill="#B1B2B3">
            <polygon id="PT" points="1255.23583 944.890507 1257.64399 942.647573 1260.33547 941.349032 1262.01174 945.693241 1265.9073 945.669631 1267.04055 944.559969 1270.9125 944.866897 1272.75403 949.305545 1269.68481 951.666528 1269.61398 958.46616 1268.52795 959.717481 1268.26824 963.778372 1265.4115 964.486667 1268.05576 969.61 1266.23783 975.15831 1268.50434 977.660952 1267.60718 979.927496 1265.1518 983.043994 1265.69481 985.782734 1263.05056 987.931229 1259.55636 986.774347 1256.13299 987.671521 1257.1482 981.202427 1256.53435 976.055484 1253.55956 975.276359 1251.97773 972.089032 1252.52075 966.517112 1255.14139 963.424224 1255.61358 959.953579 1257.00654 954.735806 1256.84127 951.029063 1255.51915 947.865346"></polygon>
        </g>
    </g>
</svg>