<?xml version="1.0" encoding="utf-8"?>
<!-- Generator: Adobe Illustrator 21.1.0, SVG Export Plug-In . SVG Version: 6.00 Build 0)  -->
<svg version="1.1" id="Layer_1" xmlns="http://www.w3.org/2000/svg" xmlns:xlink="http://www.w3.org/1999/xlink" x="0px" y="0px"
	 viewBox="0 0 60 60" style="enable-background:new 0 0 60 60;" xml:space="preserve">
<style type="text/css">
	.st0{fill:#B1B2B3;stroke:#FFFFFF;stroke-width:0.5;}
</style>
<title>PY</title>
<desc>Created with Sketch.</desc>
<g id="Map-countries">
	<g id="Artboard" transform="translate(-899.000000, -1378.000000)">
		<polygon id="PY" class="st0" points="901.6,1399.2 904.2,1390.7 904.4,1387 907.5,1380.8 919.1,1378.7 925.2,1378.9 931.4,1382.4 
			931.5,1384.6 933.5,1388.5 933,1398.1 940,1399.5 942.7,1398.1 947.2,1400 948.4,1402.1 949,1408.7 949.8,1411.4 952.3,1411.8 
			954.7,1410.6 957.1,1411.9 957.1,1415.9 956.2,1420.2 954.9,1424.4 953.9,1430.9 947.9,1436.5 942.6,1437.7 935.2,1436.6 
			928.5,1434.6 935,1423.4 934.1,1420.2 927.3,1417.3 919.2,1412 913.8,1410.9 		"/>
	</g>
</g>
</svg>
