<?xml version="1.0" encoding="utf-8"?>
<!-- Generator: Adobe Illustrator 21.1.0, SVG Export Plug-In . SVG Version: 6.00 Build 0)  -->
<svg version="1.1" id="Layer_1" xmlns="http://www.w3.org/2000/svg" xmlns:xlink="http://www.w3.org/1999/xlink" x="0px" y="0px"
	 viewBox="0 0 64 64" style="enable-background:new 0 0 64 64;" xml:space="preserve">
<style type="text/css">
	.st0{fill:#B1B2B3;stroke:#FFFFFF;stroke-width:0.5;}
</style>
<title>RO</title>
<desc>Created with Sketch.</desc>
<g id="Map-countries">
	<g id="Artboard" transform="translate(-1448.000000, -885.000000)">
		<polygon id="RO" class="st0" points="1465.4,898.9 1468.2,896.8 1472.3,897.9 1476.6,898 1479.6,900.4 1481.9,898.8 1486.8,897.9 
			1488.5,895.6 1491.3,895.6 1493.3,896.6 1495.3,899.5 1497.4,903.6 1501.2,909.4 1501.5,913.6 1500.8,917.7 1502,922 
			1504.9,923.7 1508,922.2 1511,923.8 1511.2,926.2 1508,928.2 1505.9,927.4 1504.1,938.5 1500.2,937.5 1495.4,934.2 1487.6,936.3 
			1484.3,938.6 1474.6,938.2 1469.5,936.7 1466.9,937.4 1465,933.6 1463.8,932 1465.4,930.5 1463.7,929.3 1461.6,931.4 
			1457.8,928.7 1457.3,924.9 1453.2,922.6 1452.5,919.6 1448.9,915.9 1454.2,914.1 1458.2,907.6 1461.3,901 		"/>
	</g>
</g>
</svg>
