<?xml version="1.0" encoding="UTF-8"?>
<svg width="64px" height="44px" viewBox="0 0 64 44" version="1.1" xmlns="http://www.w3.org/2000/svg" xmlns:xlink="http://www.w3.org/1999/xlink">
    <!-- Generator: Sketch 43.2 (39069) - http://www.bohemiancoding.com/sketch -->
    <title>RO</title>
    <desc>Created with Sketch.</desc>
    <defs></defs>
    <g id="Map-countries" stroke="none" stroke-width="1" fill="none" fill-rule="evenodd">
        <g id="Artboard" transform="translate(-1448.000000, -885.000000)" stroke-width="0.5" stroke="#FFFFFF" fill="#B1B2B3">
            <polygon id="RO" points="1465.38344 888.935207 1468.24018 886.833932 1472.34822 887.919985 1476.57431 887.967204 1479.64354 890.351797 1481.91005 888.840768 1486.7972 887.896375 1488.47347 885.582611 1491.25938 885.606221 1493.26619 886.550614 1495.32021 889.478233 1497.42145 893.609954 1501.24618 899.370753 1501.45866 903.596912 1500.75038 907.657803 1501.95446 911.978402 1504.90564 913.70192 1507.99847 912.190891 1511.02048 913.796359 1511.16214 916.228172 1507.95126 918.211398 1505.94445 917.361444 1504.10292 928.481674 1500.20736 927.513671 1495.39103 924.184685 1487.59992 926.30957 1484.31821 928.646943 1474.59112 928.174747 1469.49148 926.734547 1466.94166 927.419232 1465.0293 923.641659 1463.82522 922.03619 1465.35983 920.477942 1463.70717 919.32106 1461.62954 921.398725 1457.7812 918.707204 1457.26179 914.858802 1453.22458 912.639478 1452.49269 909.641029 1448.90405 905.910676 1454.21617 904.116329 1458.20617 897.600015 1461.34623 890.989263"></polygon>
        </g>
    </g>
</svg>