<?xml version="1.0" encoding="UTF-8"?>
<svg width="29px" height="37px" viewBox="0 0 29 37" version="1.1" xmlns="http://www.w3.org/2000/svg" xmlns:xlink="http://www.w3.org/1999/xlink">
    <!-- Generator: Sketch 43.2 (39069) - http://www.bohemiancoding.com/sketch -->
    <title>RS</title>
    <desc>Created with Sketch.</desc>
    <defs></defs>
    <g id="Map-countries" stroke="none" stroke-width="1" fill="none" fill-rule="evenodd">
        <g id="Artboard" transform="translate(-1439.000000, -905.000000)" stroke-width="0.5" stroke="#FFFFFF" fill="#B1B2B3">
            <polygon id="RS" points="1453.22458 912.639478 1457.26179 914.858802 1457.7812 918.707204 1461.62954 921.398725 1463.70717 919.32106 1465.35983 920.477942 1463.82522 922.03619 1465.0293 923.641659 1463.40025 925.719324 1463.99048 929.07192 1467.20137 932.991152 1464.67516 935.800722 1463.56551 938.657512 1464.2974 939.719954 1463.18776 940.994885 1460.14214 941.136544 1457.87564 941.65596 1457.66315 940.994885 1458.44226 939.932442 1459.19777 937.736728 1458.25339 937.783948 1456.95487 936.13126 1455.86884 935.706283 1455.0189 934.266083 1453.7676 933.699447 1452.82322 932.424516 1451.64275 932.943932 1450.72198 935.918771 1449.14015 936.579846 1449.68316 935.800722 1447.15695 933.935545 1444.98488 932.967542 1444.0169 931.692611 1442.2698 930.134363 1443.82802 929.732995 1444.79601 925.436006 1441.60874 921.894531 1443.2614 917.833641 1440.85323 917.85725 1443.40305 914.339386 1441.30181 911.647865 1439.69637 907.988341 1444.7724 905.509309 1448.90405 905.910676 1452.49269 909.641029"></polygon>
        </g>
    </g>
</svg>