<?xml version="1.0" encoding="utf-8"?>
<!-- Generator: Adobe Illustrator 21.1.0, SVG Export Plug-In . SVG Version: 6.00 Build 0)  -->
<svg version="1.1" id="Layer_1" xmlns="http://www.w3.org/2000/svg" xmlns:xlink="http://www.w3.org/1999/xlink" x="0px" y="0px"
	 viewBox="0 0 37 37" style="enable-background:new 0 0 37 37;" xml:space="preserve">
<style type="text/css">
	.st0{fill:#B1B2B3;stroke:#FFFFFF;stroke-width:0.5;}
</style>
<title>RS</title>
<desc>Created with Sketch.</desc>
<g id="Map-countries">
	<g id="Artboard" transform="translate(-1439.000000, -905.000000)">
		<polygon id="RS" class="st0" points="1457.2,912.6 1461.3,914.9 1461.8,918.7 1465.6,921.4 1467.7,919.3 1469.4,920.5 1467.8,922 
			1469,923.6 1467.4,925.7 1468,929.1 1471.2,933 1468.7,935.8 1467.6,938.7 1468.3,939.7 1467.2,941 1464.1,941.1 1461.9,941.7 
			1461.7,941 1462.4,939.9 1463.2,937.7 1462.3,937.8 1461,936.1 1459.9,935.7 1459,934.3 1457.8,933.7 1456.8,932.4 1455.6,932.9 
			1454.7,935.9 1453.1,936.6 1453.7,935.8 1451.2,933.9 1449,933 1448,931.7 1446.3,930.1 1447.8,929.7 1448.8,925.4 1445.6,921.9 
			1447.3,917.8 1444.9,917.9 1447.4,914.3 1445.3,911.6 1443.7,908 1448.8,905.5 1452.9,905.9 1456.5,909.6 		"/>
	</g>
</g>
</svg>
