<?xml version="1.0" encoding="UTF-8"?>
<svg width="1130px" height="676px" viewBox="0 0 1130 676" version="1.1" xmlns="http://www.w3.org/2000/svg" xmlns:xlink="http://www.w3.org/1999/xlink">
    <!-- Generator: Sketch 43.2 (39069) - http://www.bohemiancoding.com/sketch -->
    <title>RU</title>
    <desc>Created with Sketch.</desc>
    <defs></defs>
    <g id="Map-countries" stroke="none" stroke-width="1" fill="none" fill-rule="evenodd">
        <g id="Artboard" transform="translate(-1444.000000, -276.000000)" stroke="#FFFFFF" stroke-width="0.5" fill="#B1B2B3">
            <path d="M2573.4688,664.382104 L2566.90538,671.394224 L2556.04503,673.046912 L2555.87977,688.298863 L2553.23551,691.48619 L2547.02623,691.037604 L2541.97381,685.701782 L2533.16749,681.168694 L2531.68009,674.345453 L2524.9514,671.748372 L2517.41999,673.802427 L2513.83136,668.206897 L2515.27153,662.18639 L2507.33876,666.058402 L2510.31355,673.589939 L2506.55965,680.271521 L2506.51243,680.36596 L2498.01304,687.189201 L2489.44281,686.055929 L2495.416,694.177711 L2499.35877,706.454823 L2502.40439,710.397665 L2503.1835,716.370952 L2501.48362,720.148525 L2489.13589,717.032028 L2470.62609,727.680061 L2464.74734,729.30914 L2454.61889,738.989171 L2445.00985,747.252611 L2442.57808,753.273118 L2433.11069,744.065284 L2415.85219,754.500829 L2412.83018,749.589985 L2406.45564,755.232734 L2397.6021,753.438387 L2395.47725,762.008756 L2387.54448,774.333088 L2387.78057,779.385591 L2395.31198,782.147942 L2394.41482,799.760876 L2388.27637,800.209462 L2385.44324,810.007542 L2388.20554,814.965607 L2376.63692,820.797235 L2374.3468,833.546544 L2364.47805,836.238065 L2362.49486,847.240246 L2352.95665,857.109155 L2350.50127,849.837327 L2347.66813,834.04235 L2343.98506,808.89788 L2347.17234,792.489048 L2352.76777,785.240829 L2353.12192,779.480031 L2363.41563,776.694071 L2375.24396,760.686605 L2386.64732,747.158172 L2398.54647,736.368479 L2403.8586,716.607051 L2395.80778,717.811152 L2391.84139,729.427189 L2375.05508,744.443041 L2369.62491,727.585622 L2352.53168,732.307588 L2335.95785,754.878587 L2341.43524,762.85871 L2326.65574,766.211306 L2316.43285,767.533456 L2316.90504,758.207573 L2306.61132,756.224347 L2298.41885,762.599002 L2278.18556,760.379677 L2256.41766,764.20447 L2234.98029,788.593425 L2209.60014,816.405806 L2220.03551,817.846006 L2223.29362,824.928955 L2229.71538,827.407988 L2233.94147,821.788848 L2241.21318,822.520753 L2250.775,834.774255 L2250.98749,844.029309 L2245.81702,854.677343 L2245.25039,867.119724 L2242.2756,883.292458 L2232.28881,897.481966 L2230.06952,904.139939 L2221.07433,915.14212 L2212.14996,925.837373 L2207.87665,931.220415 L2199.04672,936.532627 L2194.86785,936.650676 L2190.71259,932.259247 L2181.83544,938.84639 L2180.79663,941.821229 L2179.87586,940.26298 L2179.82864,935.706283 L2183.20479,935.470184 L2184.14917,924.727711 L2182.40207,916.794808 L2188.09194,913.489432 L2196.11915,915.14212 L2200.58134,905.957896 L2202.84784,895.427911 L2205.42127,891.862826 L2208.89186,882.98553 L2197.96069,885.913149 L2192.2236,889.808771 L2182.16597,889.808771 L2179.49811,880.482888 L2171.65978,873.329109 L2160.13837,870.070952 L2157.68299,859.965945 L2155.36926,853.520461 L2152.89027,848.940154 L2148.80584,838.056022 L2142.99792,834.01874 L2133.08195,830.736974 L2124.29924,831.043902 L2116.08316,833.027127 L2110.60577,838.480998 L2114.24162,841.07808 L2114.33606,847.027757 L2110.65299,850.451183 L2104.6798,861.595023 L2104.75063,866.15172 L2095.4249,872.620814 L2087.46852,868.772412 L2079.55936,869.622366 L2076.08877,866.17533 L2072.12238,865.065668 L2062.41891,872.290276 L2053.70702,873.966575 L2047.61579,876.469217 L2039.28166,874.816528 L2033.1432,874.910968 L2029.1296,869.716805 L2022.637,864.78235 L2016.00275,863.41298 L2007.6214,864.75874 L2001.3649,866.671137 L1991.96834,862.326928 L1990.71704,854.488464 L1982.92593,851.773333 L1976.92913,850.522012 L1969.51577,846.106974 L1962.66903,857.109155 L1965.36051,863.247711 L1958.91513,870.40149 L1949.35331,867.828018 L1942.74266,867.450261 L1938.3277,862.633856 L1931.43374,862.492197 L1925.67304,859.304869 L1915.61542,864.192104 L1902.98437,873.022181 L1895.99598,874.769309 L1893.39894,875.595653 L1889.88113,869.386267 L1881.35813,870.755637 L1878.5486,866.411429 L1873.92115,864.404593 L1870.73388,858.384086 L1867.07442,856.4953 L1857.55981,859.18682 L1848.44657,853.119094 L1844.92876,858.620184 L1830.12565,831.28 L1821.67347,822.638802 L1824.10524,819.097327 L1807.5078,829.698141 L1801.15687,830.335607 L1801.69988,824.24427 L1793.20048,820.395868 L1786.28292,823.158218 L1784.20529,811.329693 L1772.30613,808.827051 L1766.35655,813.619846 L1749.78273,817.846006 L1746.54824,820.655576 L1721.78194,824.574808 L1718.73632,828.399601 L1723.50542,835.978356 L1717.15449,838.811536 L1718.40579,841.762765 L1712.05485,847.004147 L1722.77353,854.323195 L1721.12087,859.304869 L1711.81875,858.856283 L1709.90639,861.949171 L1701.4306,856.542519 L1690.9244,856.755008 L1683.88879,861.170046 L1676.05045,856.943886 L1661.45982,849.624839 L1651.11889,849.908157 L1637.44902,861.358925 L1636.62269,868.890461 L1629.82317,862.917174 L1624.53466,874.179063 L1626.47063,876.233118 L1622.64591,883.811874 L1628.26495,890.517066 L1633.17571,890.233748 L1637.4018,896.750061 L1636.74074,901.708126 L1640.09328,903.266375 L1637.07127,908.909124 L1630.6495,910.467373 L1624.06247,920.123794 L1630.08288,928.859432 L1629.42181,934.974378 L1636.6463,945.504363 L1632.70353,949.069447 L1631.57027,951.312381 L1628.6427,950.722135 L1624.08608,945.362704 L1622.22094,945.055776 L1618.06567,943.00172 L1616.03526,939.342197 L1609.84959,937.47702 L1605.83599,938.89361 L1604.67912,937.217312 L1595.66032,932.896713 L1585.90962,931.432903 L1580.31418,929.874654 L1579.51146,930.937097 L1571.08289,923.216682 L1563.52787,919.722427 L1557.81439,914.244946 L1562.63071,912.733917 L1568.13171,904.824624 L1564.42503,901.047051 L1574.17573,897.104209 L1574.01046,894.979324 L1568.06088,896.537573 L1568.27337,892.216974 L1571.69674,889.478233 L1578.0949,888.746329 L1579.13371,885.440952 L1577.66993,879.939862 L1580.3614,874.674869 L1580.29057,871.700031 L1570.53988,868.371045 L1566.66793,868.489094 L1562.5835,863.672688 L1557.50747,865.301767 L1549.10251,861.665853 L1549.24416,859.611797 L1546.88322,855.0551 L1541.5947,854.535684 L1541.05169,851.253917 L1542.70435,849.105422 L1538.47826,843.014086 L1531.60791,844.052919 L1529.60111,843.509892 L1527.92484,845.965315 L1525.44585,845.540338 L1523.8168,838.599048 L1522.25858,834.963134 L1523.53348,833.924301 L1528.86922,834.302058 L1531.44265,831.893856 L1529.53028,828.942627 L1525.0681,826.983011 L1525.46946,824.952565 L1522.77798,822.89851 L1518.62272,815.461413 L1520.03929,812.368525 L1519.40183,806.914654 L1512.93285,804.128694 L1509.46226,805.521674 L1508.51788,802.594055 L1501.5531,799.619217 L1499.42825,792.559877 L1498.86162,786.681029 L1495.67435,783.871459 L1498.50748,779.952227 L1496.5479,768.241751 L1501.26978,760.851874 L1500.27819,758.58533 L1507.8096,751.337112 L1500.86842,745.009677 L1515.03409,727.514793 L1521.17254,719.369401 L1523.65153,712.050353 L1513.85362,701.992565 L1516.5687,692.194485 L1510.61912,680.743717 L1515.08131,667.144455 L1507.38463,648.351029 L1513.49947,635.412842 L1503.37102,623.631536 L1504.33901,610.882227 L1509.67474,609.18232 L1520.93645,601.650783 L1527.75957,595.016421 L1538.64352,606.490799 L1556.77557,610.929447 L1581.77797,631.351951 L1586.854,639.639002 L1587.30258,650.97172 L1579.96004,659.683748 L1569.14692,664.051567 L1539.5879,651.514747 L1534.72436,653.639631 L1545.51387,665.680645 L1545.93884,673.117742 L1546.36381,689.054378 L1554.88682,693.705515 L1560.05729,697.624747 L1560.90722,690.282089 L1556.91723,683.671336 L1561.11971,677.745269 L1577.12691,687.4253 L1582.69874,683.671336 L1578.23655,672.149739 L1593.65352,656.236713 L1599.76836,657.181106 L1605.95403,662.918295 L1609.80237,651.561966 L1604.27776,641.456959 L1607.51226,631.045023 L1602.64871,619.972012 L1621.15851,625.732811 L1624.93602,635.60172 L1616.55467,637.750215 L1616.60189,647.288587 L1621.81957,653.049386 L1632.04246,649.413472 L1633.67151,638.529339 L1647.50664,630.218679 L1670.62028,614.777849 L1675.60187,615.675023 L1669.08567,626.629985 L1677.30175,628.471551 L1682.04725,622.380215 L1694.44221,621.884409 L1704.26373,614.352873 L1711.81875,625.260614 L1719.35016,613.24321 L1712.40899,602.429908 L1715.85597,596.149693 L1735.40458,601.910492 L1744.56504,607.789339 L1768.55223,628.565991 L1772.99081,619.192888 L1766.26212,609.489247 L1766.07324,605.522796 L1758.09325,603.681229 L1760.26532,594.638664 L1756.7239,579.315883 L1756.53503,572.84679 L1768.74111,553.982535 L1773.08524,534.103057 L1777.99601,529.664409 L1795.51421,535.590476 L1796.88356,547.820369 L1790.60345,565.008326 L1794.71149,571.571859 L1796.83634,585.596098 L1795.32533,611.732181 L1802.62065,622.899631 L1799.78752,634.728157 L1786.82594,658.810184 L1794.40457,661.218387 L1797.04882,655.29232 L1804.32053,650.99533 L1806.06763,642.61384 L1811.80472,634.374009 L1807.95638,624.316221 L1811.04922,612.322427 L1803.80112,610.811398 L1802.21929,600.375853 L1807.5078,580.826912 L1798.91397,564.229201 L1810.76591,549.968863 L1809.23129,534.339155 L1812.53661,533.819739 L1816.0072,546.073241 L1813.38655,566.542965 L1820.46939,570.296928 L1817.44738,555.257465 L1828.5202,546.805146 L1842.2609,545.648264 L1854.49059,557.878157 L1848.61184,539.887465 L1847.95077,515.616559 L1859.47218,510.847373 L1875.38494,511.886206 L1889.73948,508.769708 L1884.35652,496.067619 L1892.02959,479.493518 L1899.63183,478.785223 L1912.49897,465.776206 L1929.96996,462.211121 L1932.18925,454.774025 L1949.56579,452.224163 L1954.97235,458.386329 L1969.82269,443.653794 L1981.98155,444.125991 L1983.79948,431.754439 L1990.12681,419.170399 L2005.75625,406.633579 L2017.11239,416.573318 L2008.09359,423.963195 L2023.08558,428.496283 L2024.8799,442.733011 L2030.92392,435.79172 L2050.28365,436.169478 L2065.20482,449.957619 L2070.51694,460.227896 L2068.86428,474.039647 L2061.54536,481.689232 L2044.1452,495.666252 L2039.16361,502.93808 L2047.37969,506.314286 L2057.17761,512.334793 L2063.12719,507.825315 L2066.50334,522.911997 L2069.4073,516.86788 L2079.98433,513.161137 L2101.23282,517.056759 L2102.83826,527.870061 L2130.50852,531.246267 L2130.88628,513.609724 L2144.93389,517.717834 L2155.51092,517.599785 L2166.20599,529.735238 L2169.25161,543.995576 L2165.33245,553.061751 L2173.64297,569.541413 L2184.05473,577.781244 L2190.45289,556.107419 L2201.07713,565.551352 L2212.36245,559.932212 L2225.18237,566.354086 L2230.06952,560.522458 L2240.90626,563.450077 L2236.13715,543.617819 L2244.87264,534.008618 L2304.65174,548.316175 L2310.29439,560.947435 L2327.62372,576.647972 L2354.34961,572.82318 L2367.52367,576.152166 L2373.02467,584.415607 L2372.22195,598.628725 L2380.36721,604.035376 L2389.22075,600.163364 L2400.95464,599.667558 L2413.44403,603.374301 L2425.98064,601.273026 L2437.50205,617.776298 L2445.69452,611.92106 L2440.33518,599.950876 L2443.28636,591.404117 L2464.41681,596.810768 L2478.18111,595.653886 L2497.21031,604.720061 L2506.46521,612.841843 L2522.6849,626.677204 L2540.03784,644.00682 L2539.47121,654.489585 L2543.93339,658.597696 L2542.39878,646.438633 L2560.36556,648.964885 L2573.4688,664.382104 L2573.4688,664.382104 Z M2272.61373,878.051075 L2265.95587,859.918725 L2263.21718,849.270691 L2263.38244,838.646267 L2261.09233,828.021843 L2259.36884,820.584747 L2256.41766,822.166605 L2259.0383,827.384378 L2252.92346,832.507711 L2252.33322,847.381905 L2256.20517,857.79384 L2255.92186,871.605591 L2254.38725,879.255177 L2255.14275,889.97404 L2254.41086,899.441582 L2255.63855,907.468925 L2259.98268,900.079048 L2265.01149,905.839846 L2265.20037,899.134654 L2258.75499,889.147696 L2262.81582,874.722089 L2272.61373,878.051075 L2272.61373,878.051075 Z M1462.76279,813.17126 L1455.82162,811.140814 L1446.68476,814.871167 L1445.17376,819.900061 L1453.31902,821.198602 L1465.50149,821.033333 L1464.98208,818.129324 L1465.69036,814.989217 L1462.76279,813.17126 L1462.76279,813.17126 Z M2506.60687,576.789631 L2515.24793,575.56192 L2522.07105,570.698295 L2522.63768,567.888725 L2513.05225,561.962657 L2507.4332,561.915438 L2506.58326,562.789002 L2498.15469,571.38298 L2499.33516,577.828464 L2506.60687,576.789631 L2506.60687,576.789631 Z M2247.18637,512.830599 L2240.90626,522.085653 L2242.06312,523.313364 L2255.63855,525.863226 L2265.67256,525.697957 L2264.86984,519.63023 L2255.47328,510.634885 L2247.18637,512.830599 L2247.18637,512.830599 Z M2305.19476,490.33043 L2312.84421,480.296252 L2296.22317,473.496621 L2283.87543,469.530169 L2282.2936,478.006098 L2294.59412,488.087496 L2305.19476,490.33043 L2305.19476,490.33043 Z M2245.86424,486.340369 L2270.25279,487.048664 L2275.47047,467.830261 L2251.55411,453.499094 L2234.08313,452.294992 L2225.34764,457.441935 L2221.78261,475.739555 L2234.88585,492.290046 L2245.86424,486.340369 L2245.86424,486.340369 Z M1662.42781,547.58427 L1655.6519,552.211797 L1656.61989,563.615346 L1668.61348,569.163656 L1670.36058,578.182611 L1691.98682,580.779693 L1695.90599,579.032565 L1683.25133,562.245975 L1681.90559,544.491382 L1692.27014,522.911997 L1702.13888,499.727143 L1722.7027,475.715945 L1742.91238,463.108295 L1766.35655,449.556252 L1770.79513,440.797005 L1766.19129,429.393456 L1753.30053,433.171029 L1741.968,443.771843 L1719.9404,449.013226 L1698.07806,466.508111 L1683.27494,480.319862 L1685.06926,491.817849 L1669.22733,513.137527 L1675.31856,516.017926 L1662.19171,535.543257 L1662.42781,547.58427 L1662.42781,547.58427 Z M2010.6198,387.179078 L2012.57938,373.674255 L1995.79307,353.983656 L1990.81148,351.669892 L1985.38131,355.683564 L1973.29328,399.597849 L2010.6198,387.179078 L2010.6198,387.179078 Z M1622.882,317.978664 L1630.05927,327.139278 L1637.80316,320.788233 L1638.72393,314.366359 L1644.67351,311.367911 L1653.55066,306.102919 L1656.10048,299.917143 L1646.27895,290.827358 L1640.04606,297.674209 L1636.24494,307.401459 L1634.8992,296.422888 L1624.84158,296.918694 L1611.92722,304.332181 L1626.65951,305.559892 L1622.882,317.978664 L1622.882,317.978664 Z M1932.75587,348.765883 L1943.73426,362.294316 L1962.17323,372.210445 L1976.62221,367.960676 L1978.25126,335.804086 L1962.99956,297.933917 L1950.13242,276.637849 L1935.80149,286.34149 L1918.61382,314.27192 L1927.65623,321.992335 L1932.75587,348.765883 L1932.75587,348.765883 Z" id="RU"></path>
        </g>
    </g>
</svg>