<?xml version="1.0" encoding="utf-8"?>
<!-- Generator: Adobe Illustrator 21.1.0, SVG Export Plug-In . SVG Version: 6.00 Build 0)  -->
<svg version="1.1" id="Layer_1" xmlns="http://www.w3.org/2000/svg" xmlns:xlink="http://www.w3.org/1999/xlink" x="0px" y="0px"
	 viewBox="0 0 1130 1130" style="enable-background:new 0 0 1130 1130;" xml:space="preserve">
<style type="text/css">
	.st0{fill:#B1B2B3;stroke:#FFFFFF;stroke-width:0.5;}
</style>
<title>RU</title>
<desc>Created with Sketch.</desc>
<g id="Map-countries">
	<g id="Artboard" transform="translate(-1444.000000, -276.000000)">
		<path id="RU" class="st0" d="M2573.5,891.4l-6.6,7L2556,900l-0.2,15.3l-2.6,3.2l-6.2-0.4l-5.1-5.3l-8.8-4.5l-1.5-6.8l-6.7-2.6
			l-7.5,2.1l-3.6-5.6l1.4-6l-7.9,3.9l3,7.5l-3.8,6.7l0,0.1l-8.5,6.8l-8.6-1.1l6,8.1l3.9,12.3l3,3.9l0.8,6l-1.7,3.8l-12.3-3.1
			l-18.5,10.6l-5.9,1.6l-10.1,9.7l-9.6,8.3l-2.4,6l-9.5-9.2l-17.3,10.4l-3-4.9l-6.4,5.6l-8.9-1.8l-2.1,8.6l-7.9,12.3l0.2,5.1
			l7.5,2.8l-0.9,17.6l-6.1,0.4l-2.8,9.8l2.8,5l-11.6,5.8l-2.3,12.7l-9.9,2.7l-2,11l-9.5,9.9l-2.5-7.3l-2.8-15.8l-3.7-25.1l3.2-16.4
			l5.6-7.2l0.4-5.8l10.3-2.8l11.8-16l11.4-13.5l11.9-10.8l5.3-19.8l-8.1,1.2l-4,11.6l-16.8,15l-5.4-16.9l-17.1,4.7l-16.6,22.6l5.5,8
			l-14.8,3.4l-10.2,1.3l0.5-9.3l-10.3-2l-8.2,6.4l-20.2-2.2l-21.8,3.8l-21.4,24.4l-25.4,27.8l10.4,1.4l3.3,7.1l6.4,2.5l4.2-5.6
			l7.3,0.7l9.6,12.3l0.2,9.3l-5.2,10.6l-0.6,12.4l-3,16.2l-10,14.2l-2.2,6.7l-9,11l-8.9,10.7l-4.3,5.4l-8.8,5.3l-4.2,0.1l-4.2-4.4
			l-8.9,6.6l-1,3l-0.9-1.6l0-4.6l3.4-0.2l0.9-10.7l-1.7-7.9l5.7-3.3l8,1.7l4.5-9.2l2.3-10.5l2.6-3.6l3.5-8.9l-10.9,2.9l-5.7,3.9
			h-10.1l-2.7-9.3l-7.8-7.2l-11.5-3.3l-2.5-10.1l-2.3-6.4l-2.5-4.6l-4.1-10.9l-5.8-4l-9.9-3.3l-8.8,0.3l-8.2,2l-5.5,5.5l3.6,2.6
			l0.1,5.9l-3.7,3.4l-6,11.1l0.1,4.6l-9.3,6.5l-8-3.8l-7.9,0.8l-3.5-3.4l-4-1.1l-9.7,7.2l-8.7,1.7l-6.1,2.5l-8.3-1.7l-6.1,0.1
			l-4-5.2l-6.5-4.9l-6.6-1.4l-8.4,1.3l-6.3,1.9l-9.4-4.3l-1.3-7.8l-7.8-2.7l-6-1.3l-7.4-4.4l-6.8,11l2.7,6.1l-6.4,7.2l-9.6-2.6
			l-6.6-0.4l-4.4-4.8l-6.9-0.1l-5.8-3.2l-10.1,4.9l-12.6,8.8l-7,1.7l-2.6,0.8l-3.5-6.2l-8.5,1.4l-2.8-4.3l-4.6-2l-3.2-6l-3.7-1.9
			l-9.5,2.7l-9.1-6.1l-3.5,5.5l-14.8-27.3l-8.5-8.6l2.4-3.5l-16.6,10.6l-6.4,0.6l0.5-6.1l-8.5-3.8l-6.9,2.8l-2.1-11.8l-11.9-2.5
			l-5.9,4.8l-16.6,4.2l-3.2,2.8l-24.8,3.9l-3,3.8l4.8,7.6l-6.4,2.8l1.3,3l-6.4,5.2l10.7,7.3l-1.7,5l-9.3-0.4l-1.9,3.1l-8.5-5.4
			l-10.5,0.2l-7,4.4l-7.8-4.2l-14.6-7.3l-10.3,0.3l-13.7,11.5l-0.8,7.5l-6.8-6l-5.3,11.3l1.9,2.1l-3.8,7.6l5.6,6.7l4.9-0.3l4.2,6.5
			l-0.7,5l3.4,1.6l-3,5.6l-6.4,1.6l-6.6,9.7l6,8.7l-0.7,6.1l7.2,10.5l-3.9,3.6l-1.1,2.2l-2.9-0.6l-4.6-5.4l-1.9-0.3l-4.2-2.1l-2-3.7
			l-6.2-1.9l-4,1.4l-1.2-1.7l-9-4.3l-9.8-1.5l-5.6-1.6l-0.8,1.1l-8.4-7.7l-7.6-3.5l-5.7-5.5l4.8-1.5l5.5-7.9l-3.7-3.8l9.8-3.9
			l-0.2-2.1l-5.9,1.6l0.2-4.3l3.4-2.7l6.4-0.7l1-3.3l-1.5-5.5l2.7-5.3l-0.1-3l-9.8-3.3l-3.9,0.1l-4.1-4.8l-5.1,1.6l-8.4-3.6l0.1-2.1
			l-2.4-4.6l-5.3-0.5l-0.5-3.3l1.7-2.1l-4.2-6.1l-6.9,1l-2-0.5l-1.7,2.5l-2.5-0.4l-1.6-6.9l-1.6-3.6l1.3-1l5.3,0.4l2.6-2.4l-1.9-3
			l-4.5-2l0.4-2l-2.7-2.1l-4.2-7.4l1.4-3.1l-0.6-5.5l-6.5-2.8l-3.5,1.4l-0.9-2.9l-7-3l-2.1-7.1l-0.6-5.9l-3.2-2.8l2.8-3.9l-2-11.7
			l4.7-7.4l-1-2.3l7.5-7.2l-6.9-6.3l14.2-17.5l6.1-8.1l2.5-7.3l-9.8-10.1l2.7-9.8l-5.9-11.5l4.5-13.6l-7.7-18.8l6.1-12.9l-10.1-11.8
			l1-12.7l5.3-1.7l11.3-7.5l6.8-6.6l10.9,11.5l18.1,4.4l25,20.4l5.1,8.3l0.4,11.3l-7.3,8.7l-10.8,4.4l-29.6-12.5l-4.9,2.1l10.8,12
			l0.4,7.4l0.4,15.9l8.5,4.7l5.2,3.9l0.8-7.3l-4-6.6l4.2-5.9l16,9.7l5.6-3.8l-4.5-11.5l15.4-15.9l6.1,0.9l6.2,5.7l3.8-11.4
			l-5.5-10.1l3.2-10.4l-4.9-11.1l18.5,5.8l3.8,9.9l-8.4,2.1l0,9.5l5.2,5.8l10.2-3.6l1.6-10.9l13.8-8.3l23.1-15.4l5,0.9l-6.5,11
			l8.2,1.8l4.7-6.1l12.4-0.5l9.8-7.5l7.6,10.9l7.5-12l-6.9-10.8l3.4-6.3l19.5,5.8l9.2,5.9l24,20.8l4.4-9.4l-6.7-9.7l-0.2-4l-8-1.8
			l2.2-9l-3.5-15.3l-0.2-6.5l12.2-18.9l4.3-19.9l4.9-4.4l17.5,5.9l1.4,12.2l-6.3,17.2l4.1,6.6l2.1,14l-1.5,26.1l7.3,11.2l-2.8,11.8
			l-13,24.1l7.6,2.4l2.6-5.9l7.3-4.3l1.7-8.4l5.7-8.2l-3.8-10.1l3.1-12l-7.2-1.5l-1.6-10.4l5.3-19.5l-8.6-16.6l11.9-14.3l-1.5-15.6
			l3.3-0.5l3.5,12.3l-2.6,20.5l7.1,3.8l-3-15l11.1-8.5l13.7-1.2l12.2,12.2l-5.9-18l-0.7-24.3l11.5-4.8l15.9,1l14.4-3.1l-5.4-12.7
			l7.7-16.6l7.6-0.7l12.9-13l17.5-3.6l2.2-7.4l17.4-2.5l5.4,6.2l14.9-14.7l12.2,0.5l1.8-12.4l6.3-12.6l15.6-12.5l11.4,9.9l-9,7.4
			l15,4.5l1.8,14.2l6-6.9l19.4,0.4l14.9,13.8l5.3,10.3l-1.7,13.8l-7.3,7.6l-17.4,14l-5,7.3l8.2,3.4l9.8,6l5.9-4.5l3.4,15.1l2.9-6
			l10.6-3.7l21.2,3.9l1.6,10.8l27.7,3.4l0.4-17.6l14,4.1l10.6-0.1l10.7,12.1l3,14.3l-3.9,9.1l8.3,16.5l10.4,8.2l6.4-21.7l10.6,9.4
			l11.3-5.6l12.8,6.4l4.9-5.8l10.8,2.9l-4.8-19.8l8.7-9.6l59.8,14.3l5.6,12.6l17.3,15.7l26.7-3.8l13.2,3.3l5.5,8.3l-0.8,14.2
			l8.1,5.4l8.9-3.9l11.7-0.5l12.5,3.7l12.5-2.1l11.5,16.5l8.2-5.9l-5.4-12l3-8.5l21.1,5.4l13.8-1.2l19,9.1l9.3,8.1l16.2,13.8
			L2540,871l-0.6,10.5l4.5,4.1l-1.5-12.2l18,2.5L2573.5,891.4L2573.5,891.4z M2272.6,1105.1l-6.7-18.1l-2.7-10.6l0.2-10.6l-2.3-10.6
			l-1.7-7.4l-3,1.6l2.6,5.2l-6.1,5.1l-0.6,14.9l3.9,10.4l-0.3,13.8l-1.5,7.6l0.8,10.7l-0.7,9.5l1.2,8l4.3-7.4l5,5.8l0.2-6.7l-6.4-10
			l4.1-14.4L2272.6,1105.1L2272.6,1105.1z M1462.8,1040.2l-6.9-2l-9.1,3.7l-1.5,5l8.1,1.3l12.2-0.2l-0.5-2.9l0.7-3.1L1462.8,1040.2
			L1462.8,1040.2z M2506.6,803.8l8.6-1.2l6.8-4.9l0.6-2.8l-9.6-5.9l-5.6,0l-0.8,0.9l-8.4,8.6l1.2,6.4L2506.6,803.8L2506.6,803.8z
			 M2247.2,739.8l-6.3,9.3l1.2,1.2l13.6,2.5l10-0.2l-0.8-6.1l-9.4-9L2247.2,739.8L2247.2,739.8z M2305.2,717.3l7.6-10l-16.6-6.8
			l-12.3-4l-1.6,8.5l12.3,10.1L2305.2,717.3L2305.2,717.3z M2245.9,713.3l24.4,0.7l5.2-19.2l-23.9-14.3l-17.5-1.2l-8.7,5.1
			l-3.6,18.3l13.1,16.6L2245.9,713.3L2245.9,713.3z M1662.4,774.6l-6.8,4.6l1,11.4l12,5.5l1.7,9l21.6,2.6l3.9-1.7l-12.7-16.8
			l-1.3-17.8l10.4-21.6l9.9-23.2l20.6-24l20.2-12.6l23.4-13.6l4.4-8.8l-4.6-11.4l-12.9,3.8l-11.3,10.6l-22,5.2l-21.9,17.5
			l-14.8,13.8l1.8,11.5l-15.8,21.3l6.1,2.9l-13.1,19.5L1662.4,774.6L1662.4,774.6z M2010.6,614.2l2-13.5l-16.8-19.7l-5-2.3l-5.4,4
			l-12.1,43.9L2010.6,614.2L2010.6,614.2z M1622.9,545l7.2,9.2l7.7-6.4l0.9-6.4l5.9-3l8.9-5.3l2.5-6.2l-9.8-9.1l-6.2,6.8l-3.8,9.7
			l-1.3-11l-10.1,0.5l-12.9,7.4l14.7,1.2L1622.9,545L1622.9,545z M1932.8,575.8l11,13.5l18.4,9.9l14.4-4.2l1.6-32.2l-15.3-37.9
			l-12.9-21.3l-14.3,9.7l-17.2,27.9l9,7.7L1932.8,575.8L1932.8,575.8z"/>
	</g>
</g>
</svg>
