<?xml version="1.0" encoding="utf-8"?>
<!-- Generator: Adobe Illustrator 21.1.0, SVG Export Plug-In . SVG Version: 6.00 Build 0)  -->
<svg version="1.1" id="Layer_1" xmlns="http://www.w3.org/2000/svg" xmlns:xlink="http://www.w3.org/1999/xlink" x="0px" y="0px"
	 viewBox="0 0 140 140" style="enable-background:new 0 0 140 140;" xml:space="preserve">
<style type="text/css">
	.st0{fill:#B1B2B3;stroke:#FFFFFF;stroke-width:0.5;}
</style>
<title>SA</title>
<desc>Created with Sketch.</desc>
<g id="Map-countries">
	<g id="Artboard" transform="translate(-1544.000000, -1025.000000)">
		<polygon id="SA" class="st0" points="1598.2,1152 1597.4,1149.1 1595.4,1147 1594.9,1144.3 1591.5,1141.8 1587.9,1136 
			1586.1,1130.3 1581.5,1125.5 1578.5,1124.4 1574.1,1117.6 1573.4,1112.7 1573.7,1108.5 1569.9,1100.6 1566.8,1097.8 
			1563.2,1096.3 1561,1092.1 1561.4,1090.5 1559.5,1086.7 1557.6,1085.1 1555,1079.6 1551,1073.7 1547.6,1068.6 1544.3,1068.6 
			1545.3,1064.5 1545.6,1061.9 1546.4,1058.8 1553.8,1060 1556.7,1057.7 1558.3,1055 1563.3,1054 1564.4,1051.4 1566.6,1050.1 
			1560,1042.4 1573.3,1038.5 1574.5,1037.4 1582.5,1039.5 1592.4,1044.9 1611,1060.2 1623.3,1060.8 1629.2,1061.5 1630.9,1065.1 
			1635.5,1064.9 1638.1,1071.4 1641.4,1073 1642.5,1075.6 1647,1078.7 1647.4,1081.8 1646.8,1084.2 1647.6,1086.7 1649.5,1088.7 
			1650.4,1091.1 1651.4,1092.9 1653.4,1094.3 1655.2,1093.8 1656.5,1096.6 1656.7,1098.2 1659.3,1105.5 1679.2,1109.1 
			1680.5,1107.6 1683.5,1112.6 1679.1,1126.7 1659.3,1133.7 1640.2,1136.4 1634,1139.5 1629.3,1146.8 1626.2,1147.9 1624.5,1145.6 
			1622,1146 1615.6,1145.3 1614.4,1144.6 1606.7,1144.7 1604.9,1145.4 1602.2,1143.6 1600.5,1146.9 1601.1,1149.9 		"/>
	</g>
</g>
</svg>
