<?xml version="1.0" encoding="UTF-8"?>
<svg width="140px" height="116px" viewBox="0 0 140 116" version="1.1" xmlns="http://www.w3.org/2000/svg" xmlns:xlink="http://www.w3.org/1999/xlink">
    <!-- Generator: Sketch 43.2 (39069) - http://www.bohemiancoding.com/sketch -->
    <title>SA</title>
    <desc>Created with Sketch.</desc>
    <defs></defs>
    <g id="Map-countries" stroke="none" stroke-width="1" fill="none" fill-rule="evenodd">
        <g id="Artboard" transform="translate(-1544.000000, -1025.000000)" stroke-width="0.5" stroke="#FFFFFF" fill="#B1B2B3">
            <polygon id="SA" points="1598.23375 1140.04937 1597.38381 1137.12175 1595.377 1135.04409 1594.8576 1132.28174 1591.45784 1129.82631 1587.91642 1124.01829 1586.05128 1118.32833 1581.47105 1113.51192 1578.51987 1112.37865 1574.12851 1105.64985 1573.37301 1100.739 1573.65632 1096.51284 1569.8552 1088.57994 1566.76237 1085.77037 1563.17373 1084.28295 1561.00166 1080.12762 1561.3558 1078.49854 1559.51427 1074.72097 1557.57829 1073.09189 1555.00487 1067.61441 1550.96765 1061.66473 1547.5915 1056.56501 1544.30979 1056.58862 1545.325 1052.48051 1545.63192 1049.85982 1546.43464 1046.83776 1553.80078 1048.04186 1556.68114 1045.7281 1558.26297 1042.98935 1563.31539 1041.95052 1564.40142 1039.37705 1566.5971 1038.10212 1559.98646 1030.40531 1573.25496 1026.50969 1574.50626 1025.35281 1582.48625 1027.45409 1592.355 1032.86074 1611.00645 1048.18352 1623.30697 1048.79737 1629.20933 1049.52928 1630.86199 1053.09436 1635.53666 1052.90548 1638.1337 1059.35097 1641.3918 1061.02727 1642.52505 1063.64796 1647.03445 1066.74084 1647.43582 1069.78651 1646.77475 1072.21833 1647.62469 1074.67375 1649.51345 1076.7278 1650.4106 1079.1124 1651.4022 1080.88313 1653.38539 1082.32333 1655.22693 1081.80392 1656.47823 1084.56627 1656.73793 1086.24257 1659.28775 1093.51439 1679.1669 1097.10309 1680.51264 1095.59206 1683.53465 1100.64456 1679.11968 1114.73963 1659.26414 1121.72814 1640.18772 1124.39605 1634.00204 1127.51255 1629.25655 1134.76077 1626.16371 1135.89404 1624.51105 1133.60389 1621.98484 1133.95803 1615.58668 1133.27335 1614.35899 1132.56505 1606.73314 1132.73032 1604.93883 1133.36779 1602.22374 1131.57344 1600.45303 1134.94965 1601.13771 1137.85366"></polygon>
        </g>
    </g>
</svg>