<?xml version="1.0" encoding="UTF-8"?>
<svg width="41px" height="29px" viewBox="0 0 41 29" version="1.1" xmlns="http://www.w3.org/2000/svg" xmlns:xlink="http://www.w3.org/1999/xlink">
    <!-- Generator: Sketch 43.2 (39069) - http://www.bohemiancoding.com/sketch -->
    <title>SB</title>
    <desc>Created with Sketch.</desc>
    <defs></defs>
    <g id="Map-countries" stroke="none" stroke-width="1" fill="none" fill-rule="evenodd">
        <g id="Artboard" transform="translate(-2350.000000, -1292.000000)" stroke="#FFFFFF" stroke-width="0.5" fill="#B1B2B3">
            <path d="M2388.22915,1318.37442 L2390.07069,1320.66458 L2385.44324,1320.61736 L2382.91703,1316.50925 L2386.8598,1318.13833 L2388.22915,1318.37442 L2388.22915,1318.37442 Z M2379.8478,1314.28992 L2377.27437,1314.43158 L2373.21355,1313.7469 L2371.82059,1312.70806 L2372.24556,1310.06376 L2376.61331,1311.1026 L2378.76176,1312.49558 L2379.8478,1314.28992 L2379.8478,1314.28992 Z M2385.32519,1312.47197 L2384.33359,1313.69968 L2379.42283,1307.91527 L2378.05348,1303.94882 L2380.29638,1303.94882 L2382.68093,1309.26103 L2385.32519,1312.47197 L2385.32519,1312.47197 Z M2373.37881,1304.06687 L2373.66213,1305.41263 L2368.46805,1302.60306 L2364.8322,1300.21846 L2362.35321,1297.99914 L2363.3448,1297.31445 L2366.39042,1298.89631 L2371.82059,1301.94198 L2373.37881,1304.06687 L2373.37881,1304.06687 Z M2357.91463,1297.50333 L2356.5925,1297.88109 L2353.68854,1296.37006 L2350.97346,1293.65493 L2351.30399,1292.54527 L2355.24676,1295.33123 L2357.91463,1297.50333 L2357.91463,1297.50333 Z" id="SB"></path>
        </g>
    </g>
</svg>