<?xml version="1.0" encoding="utf-8"?>
<!-- Generator: Adobe Illustrator 21.1.0, SVG Export Plug-In . SVG Version: 6.00 Build 0)  -->
<svg version="1.1" id="Layer_1" xmlns="http://www.w3.org/2000/svg" xmlns:xlink="http://www.w3.org/1999/xlink" x="0px" y="0px"
	 viewBox="0 0 41 41" style="enable-background:new 0 0 41 41;" xml:space="preserve">
<style type="text/css">
	.st0{fill:#B1B2B3;stroke:#FFFFFF;stroke-width:0.5;}
</style>
<title>SB</title>
<desc>Created with Sketch.</desc>
<g id="Map-countries">
	<g id="Artboard" transform="translate(-2350.000000, -1292.000000)">
		<path id="SB" class="st0" d="M2388.2,1324.4l1.8,2.3l-4.6,0l-2.5-4.1l3.9,1.6L2388.2,1324.4L2388.2,1324.4z M2379.8,1320.3
			l-2.6,0.1l-4.1-0.7l-1.4-1l0.4-2.6l4.4,1l2.1,1.4L2379.8,1320.3L2379.8,1320.3z M2385.3,1318.5l-1,1.2l-4.9-5.8l-1.4-4h2.2
			l2.4,5.3L2385.3,1318.5L2385.3,1318.5z M2373.4,1310.1l0.3,1.3l-5.2-2.8l-3.6-2.4l-2.5-2.2l1-0.7l3,1.6l5.4,3L2373.4,1310.1
			L2373.4,1310.1z M2357.9,1303.5l-1.3,0.4l-2.9-1.5l-2.7-2.7l0.3-1.1l3.9,2.8L2357.9,1303.5L2357.9,1303.5z"/>
	</g>
</g>
</svg>
