<?xml version="1.0" encoding="utf-8"?>
<!-- Generator: Adobe Illustrator 21.1.0, SVG Export Plug-In . SVG Version: 6.00 Build 0)  -->
<svg version="1.1" id="Layer_1" xmlns="http://www.w3.org/2000/svg" xmlns:xlink="http://www.w3.org/1999/xlink" x="0px" y="0px"
	 viewBox="0 0 110 110" style="enable-background:new 0 0 110 110;" xml:space="preserve">
<style type="text/css">
	.st0{fill:#B1B2B3;stroke:#FFFFFF;stroke-width:0.5;}
</style>
<title>SD</title>
<desc>Created with Sketch.</desc>
<g id="Map-countries">
	<g id="Artboard" transform="translate(-1460.000000, -1100.000000)">
		<polygon id="SD" class="st0" points="1539.9,1195 1539,1194.9 1539.1,1191.6 1538.3,1189.3 1534.9,1186.6 1534.1,1181.8 
			1534.9,1176.8 1531.8,1176.4 1531.3,1177.9 1527.4,1178.2 1529,1180.2 1529.5,1184.2 1525.9,1187.9 1522.6,1192.7 1519.2,1193.4 
			1513.6,1189.5 1511.1,1190.9 1510.4,1192.8 1507,1194.1 1506.8,1195.5 1500.2,1195.5 1499.3,1194.1 1494.5,1193.9 1492.1,1195 
			1490.3,1194.4 1486.9,1190.5 1485.8,1188.7 1481,1189.6 1479.2,1192.7 1477.5,1198.7 1475.2,1199.9 1473.2,1200.7 1472.6,1200.3 
			1470.3,1198.4 1469.9,1196.4 1471,1193.6 1471,1190.9 1467.2,1186.7 1466.4,1183.8 1466.5,1182.2 1464,1180.2 1464,1176.3 
			1462.6,1173.7 1460.3,1174.1 1460.9,1171.6 1462.6,1168.8 1461.9,1166 1464.1,1163.9 1462.7,1162.3 1464.4,1158.1 1467.5,1153.1 
			1473.2,1153.6 1472.8,1126.2 1472.9,1123.2 1480.5,1123.2 1480.5,1109.1 1507.1,1109.1 1532.8,1109.1 1559.1,1109.1 
			1561.2,1116.1 1559.8,1117.4 1560.7,1124.6 1563.2,1132.9 1565.7,1134.6 1569.3,1137.2 1566,1141.1 1561.1,1142.2 1559,1144.4 
			1558.4,1148.9 1555.5,1159 1556.2,1161.7 1555.1,1167.5 1552.5,1174.1 1548.5,1177.5 1545.6,1182.6 1544.9,1185.4 1541.8,1187.2 
			1539.9,1194.2 		"/>
	</g>
</g>
</svg>
