<?xml version="1.0" encoding="UTF-8"?>
<svg width="110px" height="93px" viewBox="0 0 110 93" version="1.1" xmlns="http://www.w3.org/2000/svg" xmlns:xlink="http://www.w3.org/1999/xlink">
    <!-- Generator: Sketch 43.2 (39069) - http://www.bohemiancoding.com/sketch -->
    <title>SD</title>
    <desc>Created with Sketch.</desc>
    <defs></defs>
    <g id="Map-countries" stroke="none" stroke-width="1" fill="none" fill-rule="evenodd">
        <g id="Artboard" transform="translate(-1460.000000, -1100.000000)" stroke-width="0.5" stroke="#FFFFFF" fill="#B1B2B3">
            <polygon id="SD" points="1539.87122 1186.51352 1538.95045 1186.39547 1539.06849 1183.06648 1538.26577 1180.77633 1534.86601 1178.13203 1534.06329 1173.29201 1534.86601 1168.33395 1531.79679 1167.88536 1531.34821 1169.37278 1527.35821 1169.72693 1528.96366 1171.68654 1529.53028 1175.72382 1525.89443 1179.40696 1522.58911 1184.22336 1519.18935 1184.90805 1513.61752 1181.01243 1511.11492 1182.3818 1510.43025 1184.34141 1507.03049 1185.59273 1506.79439 1186.9621 1500.20736 1186.9621 1499.28659 1185.59273 1494.51749 1185.35664 1492.13293 1186.51352 1490.31501 1185.92327 1486.91525 1182.02765 1485.78199 1180.20969 1480.98928 1181.13048 1479.17135 1184.22336 1477.47147 1190.17304 1475.20497 1191.42436 1473.17455 1192.15627 1472.63154 1191.82573 1470.34142 1189.91333 1469.91645 1187.85928 1470.97888 1185.07332 1470.97888 1182.35819 1467.15415 1178.17925 1466.39864 1175.29885 1466.46947 1173.66977 1464.0377 1171.71015 1463.96687 1167.79092 1462.59753 1165.19384 1460.26019 1165.59521 1460.92126 1163.11618 1462.64474 1160.283 1461.88924 1157.49704 1464.06131 1155.41937 1462.69196 1153.83751 1464.43906 1149.63496 1467.46107 1144.60607 1473.17455 1145.07826 1472.84402 1117.66725 1472.93846 1114.73963 1480.5407 1114.71602 1480.5407 1100.64456 1507.14853 1100.64456 1532.8356 1100.64456 1559.0893 1100.64456 1561.21415 1107.58585 1559.77397 1108.86078 1560.74196 1116.08539 1563.17373 1124.39605 1565.67633 1126.11957 1569.31218 1128.66943 1565.95964 1132.61227 1561.07249 1133.74555 1558.99486 1135.87043 1558.35741 1140.42713 1555.50066 1150.46131 1556.20895 1153.17644 1555.14652 1159.00806 1552.45505 1165.64243 1548.46505 1168.99502 1545.63192 1174.11836 1544.94724 1176.8571 1541.8308 1178.74588 1539.87122 1185.73439"></polygon>
        </g>
    </g>
</svg>