<?xml version="1.0" encoding="utf-8"?>
<!-- Generator: Adobe Illustrator 21.1.0, SVG Export Plug-In . SVG Version: 6.00 Build 0)  -->
<svg version="1.1" id="Layer_1" xmlns="http://www.w3.org/2000/svg" xmlns:xlink="http://www.w3.org/1999/xlink" x="0px" y="0px"
	 viewBox="0 0 201 201" style="enable-background:new 0 0 201 201;" xml:space="preserve">
<style type="text/css">
	.st0{fill:#B1B2B3;stroke:#FFFFFF;stroke-width:0.5;}
</style>
<title>SE</title>
<desc>Created with Sketch.</desc>
<g id="Map-countries">
	<g id="Artboard" transform="translate(-1387.000000, -609.000000)">
		<polygon id="SE" class="st0" points="1518.9,668.5 1512.5,679.6 1513.5,689.1 1503,701.2 1490.2,713.8 1485.4,733.6 1490.1,743.2 
			1496.4,750.7 1490.3,765.4 1483.5,768.3 1480.9,789.2 1477.2,800.4 1469.1,799.3 1465.4,808.6 1457.7,809.2 1455.6,798 
			1450.1,784.3 1445,766.6 1448,759.2 1453.5,750.2 1455.7,734.3 1451.4,727.3 1451,708.3 1455.3,694.3 1461.9,694.6 1464.2,688.6 
			1461.8,683.3 1472,660.9 1478.7,642.3 1483.1,629.9 1489.4,630 1491.2,620 1503.6,622.9 1504.6,610.9 1508.7,610.1 1517.5,619.1 
			1527.9,631.3 1528,657.5 1530.3,663.9 		"/>
	</g>
</g>
</svg>
