<?xml version="1.0" encoding="UTF-8"?>
<svg width="87px" height="201px" viewBox="0 0 87 201" version="1.1" xmlns="http://www.w3.org/2000/svg" xmlns:xlink="http://www.w3.org/1999/xlink">
    <!-- Generator: Sketch 43.2 (39069) - http://www.bohemiancoding.com/sketch -->
    <title>SE</title>
    <desc>Created with Sketch.</desc>
    <defs></defs>
    <g id="Map-countries" stroke="none" stroke-width="1" fill="none" fill-rule="evenodd">
        <g id="Artboard" transform="translate(-1387.000000, -609.000000)" stroke-width="0.5" stroke="#FFFFFF" fill="#B1B2B3">
            <polygon id="SE" points="1461.88924 668.490215 1455.46748 679.563226 1456.50629 689.054378 1445.97648 701.166221 1433.20378 713.773871 1428.36384 733.629739 1433.08573 743.23894 1439.41306 750.652427 1433.34543 765.361352 1426.45148 768.33619 1423.92527 789.207281 1420.17137 800.445561 1412.14416 799.288679 1408.39026 808.614562 1400.71719 809.157588 1398.61595 798.037358 1393.06773 784.320046 1388.03892 766.612673 1390.96649 759.175576 1396.46749 750.18023 1398.66317 734.290814 1394.43708 727.255084 1394.01211 708.27278 1398.33264 694.31937 1404.89606 694.579078 1407.18617 688.558571 1404.77801 683.293579 1415.04812 660.86424 1421.68237 642.283303 1426.05012 629.911751 1432.40105 629.958971 1434.17176 620.019232 1446.63755 622.899631 1447.60553 610.905837 1451.71357 610.126713 1460.5435 619.122058 1470.86083 631.281121 1471.0497 657.535253 1473.26899 663.909908"></polygon>
        </g>
    </g>
</svg>