<?xml version="1.0" encoding="utf-8"?>
<!-- Generator: Adobe Illustrator 21.1.0, SVG Export Plug-In . SVG Version: 6.00 Build 0)  -->
<svg version="1.1" id="Layer_1" xmlns="http://www.w3.org/2000/svg" xmlns:xlink="http://www.w3.org/1999/xlink" x="0px" y="0px"
	 viewBox="0 0 134 134" style="enable-background:new 0 0 134 134;" xml:space="preserve">
<style type="text/css">
	.st0{fill:#B1B2B3;stroke:#FFFFFF;stroke-width:0.5;}
</style>
<title>SJ</title>
<desc>Created with Sketch.</desc>
<g id="Map-countries">
	<g id="Artboard" transform="translate(-1383.000000, -301.000000)">
		<path id="SJ" class="st0" d="M1488.7,401.7l-14.8,12.7l-11.7-7.1l4.6-8.1l-4-10.2l13.7-6.6l2.6,12.2L1488.7,401.7L1488.7,401.7z
			 M1445.9,338.7l21.8,26.7l-16.7,13.4l-3.7,23.8l-5.8,5.9l-3.1,24.8l-8,1.1l-14.2-18l6-10.9l-9.9-9.1l-12.9-27.9l-5.1-27.8l18-13.4
			l3.6,13.1l9.4-0.5l2.5-12.8l9.7-1.3L1445.9,338.7L1445.9,338.7z M1493.5,311.7l13,13.7l-9.8,20.1l-19.2,4.3l-19.5-6l-1.2-10.2
			l-9.5-0.7l-7.2-17.7l20.4-11.1l9.6,9.6l6.7-12L1493.5,311.7L1493.5,311.7z"/>
	</g>
</g>
</svg>
