<?xml version="1.0" encoding="UTF-8"?>
<svg width="39px" height="20px" viewBox="0 0 39 20" version="1.1" xmlns="http://www.w3.org/2000/svg" xmlns:xlink="http://www.w3.org/1999/xlink">
    <!-- Generator: Sketch 43.2 (39069) - http://www.bohemiancoding.com/sketch -->
    <title>SK</title>
    <desc>Created with Sketch.</desc>
    <defs></defs>
    <g id="Map-countries" stroke="none" stroke-width="1" fill="none" fill-rule="evenodd">
        <g id="Artboard" transform="translate(-1426.000000, -871.000000)" stroke-width="0.5" stroke="#FFFFFF" fill="#B1B2B3">
            <polygon id="SK" points="1439.83803 872.786083 1440.21578 873.399939 1442.95447 872.030568 1446.2834 875.619263 1450.20257 873.447158 1453.31902 874.485991 1458.08812 873.069401 1464.36823 876.941413 1462.55031 879.562104 1461.25179 883.599386 1459.83522 884.614608 1452.75239 881.59255 1450.58032 882.182796 1449.0221 884.543779 1445.90565 885.77149 1445.19737 885.134025 1441.98649 886.668664 1439.34223 886.975591 1438.82282 888.958817 1433.25099 890.162919 1430.81922 889.076866 1427.44307 886.550614 1426.78201 883.127189 1427.32503 881.852258 1428.24579 879.656544 1431.19697 879.821813 1433.43987 878.78298 1433.62875 877.862197 1434.90365 877.36639 1435.32862 875.076237 1436.83963 874.62765 1437.87844 872.809693"></polygon>
        </g>
    </g>
</svg>