<?xml version="1.0" encoding="utf-8"?>
<!-- Generator: Adobe Illustrator 21.1.0, SVG Export Plug-In . SVG Version: 6.00 Build 0)  -->
<svg version="1.1" id="Layer_1" xmlns="http://www.w3.org/2000/svg" xmlns:xlink="http://www.w3.org/1999/xlink" x="0px" y="0px"
	 viewBox="0 0 39 39" style="enable-background:new 0 0 39 39;" xml:space="preserve">
<style type="text/css">
	.st0{fill:#B1B2B3;stroke:#FFFFFF;stroke-width:0.5;}
</style>
<title>SK</title>
<desc>Created with Sketch.</desc>
<g id="Map-countries">
	<g id="Artboard" transform="translate(-1426.000000, -871.000000)">
		<polygon id="SK" class="st0" points="1439.8,882.3 1440.2,882.9 1443,881.5 1446.3,885.1 1450.2,882.9 1453.3,884 1458.1,882.6 
			1464.4,886.4 1462.6,889.1 1461.3,893.1 1459.8,894.1 1452.8,891.1 1450.6,891.7 1449,894 1445.9,895.3 1445.2,894.6 1442,896.2 
			1439.3,896.5 1438.8,898.5 1433.3,899.7 1430.8,898.6 1427.4,896.1 1426.8,892.6 1427.3,891.4 1428.2,889.2 1431.2,889.3 
			1433.4,888.3 1433.6,887.4 1434.9,886.9 1435.3,884.6 1436.8,884.1 1437.9,882.3 		"/>
	</g>
</g>
</svg>
