<?xml version="1.0" encoding="utf-8"?>
<!-- Generator: Adobe Illustrator 21.1.0, SVG Export Plug-In . SVG Version: 6.00 Build 0)  -->
<svg version="1.1" id="Layer_1" xmlns="http://www.w3.org/2000/svg" xmlns:xlink="http://www.w3.org/1999/xlink" x="0px" y="0px"
	 viewBox="0 0 42 42" style="enable-background:new 0 0 42 42;" xml:space="preserve">
<style type="text/css">
	.st0{fill:#B1B2B3;stroke:#FFFFFF;stroke-width:0.5;}
</style>
<title>SN</title>
<desc>Created with Sketch.</desc>
<g id="Map-countries">
	<g id="Artboard" transform="translate(-1198.000000, -1138.000000)">
		<polygon id="SN" class="st0" points="1204.4,1164.8 1201.7,1159.5 1198.4,1157.1 1201.3,1155.8 1204.5,1151 1206.1,1147.5 
			1208.3,1145.3 1211.6,1145.9 1214.8,1144.4 1218.5,1144.3 1221.7,1146.3 1226.1,1148.2 1230.1,1153.2 1234.5,1157.9 
			1234.8,1162.1 1236.1,1166 1238.6,1167.9 1239.1,1170.5 1238.8,1172.6 1237.9,1172.9 1234.3,1172.4 1233.8,1173.2 1232.3,1173.3 
			1227.5,1171.7 1224.4,1171.6 1212.1,1171.3 1210.4,1172.1 1208.2,1171.9 1204.6,1173 1203.6,1167.8 1209.6,1167.9 1211.2,1167 
			1212.4,1166.9 1214.8,1165.4 1217.6,1166.8 1220.5,1166.9 1223.4,1165.4 1222.1,1163.4 1219.9,1164.6 1217.8,1164.6 
			1215.2,1162.9 1213.1,1163 1211.6,1164.6 		"/>
	</g>
</g>
</svg>
