<?xml version="1.0" encoding="UTF-8"?>
<svg width="42px" height="30px" viewBox="0 0 42 30" version="1.1" xmlns="http://www.w3.org/2000/svg" xmlns:xlink="http://www.w3.org/1999/xlink">
    <!-- Generator: Sketch 43.2 (39069) - http://www.bohemiancoding.com/sketch -->
    <title>SN</title>
    <desc>Created with Sketch.</desc>
    <defs></defs>
    <g id="Map-countries" stroke="none" stroke-width="1" fill="none" fill-rule="evenodd">
        <g id="Artboard" transform="translate(-1198.000000, -1138.000000)" stroke-width="0.5" stroke="#FFFFFF" fill="#B1B2B3">
            <polygon id="SN" points="1204.40471 1158.79558 1201.66602 1153.50697 1198.3607 1151.09877 1201.28827 1149.80023 1204.49915 1145.00743 1206.05737 1141.48957 1208.32388 1139.29386 1211.6292 1139.8841 1214.84008 1138.39668 1218.54677 1138.32585 1221.71043 1140.33269 1226.10179 1142.15065 1230.11539 1147.17954 1234.48314 1151.85429 1234.79006 1156.08045 1236.08858 1159.95246 1238.56757 1161.86485 1239.1342 1164.46194 1238.82727 1166.56321 1237.85929 1166.94097 1234.27065 1166.42155 1233.77485 1167.15346 1232.31107 1167.31873 1227.54196 1165.66604 1224.35469 1165.59521 1212.125 1165.31189 1210.35429 1166.0674 1208.15861 1165.85492 1204.64081 1166.96458 1203.55477 1161.79402 1209.57518 1161.93568 1211.18062 1160.99129 1212.36109 1160.92046 1214.81647 1159.36221 1217.64961 1160.80241 1220.52996 1160.92046 1223.3867 1159.38582 1222.06457 1157.44982 1219.86889 1158.58309 1217.81487 1158.55948 1215.21783 1156.88318 1213.11659 1157.00123 1211.60559 1158.58309"></polygon>
        </g>
    </g>
</svg>