<?xml version="1.0" encoding="UTF-8"?>
<svg width="68px" height="92px" viewBox="0 0 68 92" version="1.1" xmlns="http://www.w3.org/2000/svg" xmlns:xlink="http://www.w3.org/1999/xlink">
    <!-- Generator: Sketch 43.2 (39069) - http://www.bohemiancoding.com/sketch -->
    <title>SO</title>
    <desc>Created with Sketch.</desc>
    <defs></defs>
    <g id="Map-countries" stroke="none" stroke-width="1" fill="none" fill-rule="evenodd">
        <g id="Artboard" transform="translate(-1586.000000, -1169.000000)" stroke-width="0.5" stroke="#FFFFFF" fill="#B1B2B3">
            <polygon id="SO" points="1653.55066 1171.23796 1653.38539 1169.37278 1650.88279 1169.39639 1647.74274 1171.71015 1644.22493 1172.37123 1641.17931 1173.36284 1639.07807 1173.5045 1635.30056 1173.7406 1632.93962 1174.96831 1629.65791 1175.4169 1623.82638 1177.49456 1616.6255 1178.27369 1610.369 1179.9972 1607.08729 1179.97359 1604.1125 1177.16402 1602.81398 1174.40167 1600.66552 1173.15035 1598.21014 1176.73905 1596.76996 1179.12364 1599.22534 1182.80677 1601.65711 1186.01771 1604.18332 1188.4023 1625.83318 1196.28799 1631.40501 1196.24077 1612.68272 1216.12025 1604.06528 1216.40356 1598.16292 1221.0547 1593.93683 1221.17275 1592.1189 1223.25041 1586.33459 1230.73473 1586.40542 1254.69871 1590.32458 1260.10536 1591.81198 1258.54711 1593.34659 1255.10008 1600.59469 1247.11995 1606.75675 1242.11467 1616.67272 1235.59836 1623.28336 1230.26253 1631.07447 1221.26719 1636.71713 1213.87731 1642.407 1204.19728 1646.49144 1195.72135 1649.67871 1188.28425 1651.54386 1181.08326 1652.96042 1178.67505 1652.93681 1175.13358"></polygon>
        </g>
    </g>
</svg>