<?xml version="1.0" encoding="utf-8"?>
<!-- Generator: Adobe Illustrator 21.1.0, SVG Export Plug-In . SVG Version: 6.00 Build 0)  -->
<svg version="1.1" id="Layer_1" xmlns="http://www.w3.org/2000/svg" xmlns:xlink="http://www.w3.org/1999/xlink" x="0px" y="0px"
	 viewBox="0 0 92 92" style="enable-background:new 0 0 92 92;" xml:space="preserve">
<style type="text/css">
	.st0{fill:#B1B2B3;stroke:#FFFFFF;stroke-width:0.5;}
</style>
<title>SO</title>
<desc>Created with Sketch.</desc>
<g id="Map-countries">
	<g id="Artboard" transform="translate(-1586.000000, -1169.000000)">
		<polygon id="SO" class="st0" points="1665.6,1171.2 1665.4,1169.4 1662.9,1169.4 1659.7,1171.7 1656.2,1172.4 1653.2,1173.4 
			1651.1,1173.5 1647.3,1173.7 1644.9,1175 1641.7,1175.4 1635.8,1177.5 1628.6,1178.3 1622.4,1180 1619.1,1180 1616.1,1177.2 
			1614.8,1174.4 1612.7,1173.2 1610.2,1176.7 1608.8,1179.1 1611.2,1182.8 1613.7,1186 1616.2,1188.4 1637.8,1196.3 1643.4,1196.2 
			1624.7,1216.1 1616.1,1216.4 1610.2,1221.1 1605.9,1221.2 1604.1,1223.3 1598.3,1230.7 1598.4,1254.7 1602.3,1260.1 
			1603.8,1258.5 1605.3,1255.1 1612.6,1247.1 1618.8,1242.1 1628.7,1235.6 1635.3,1230.3 1643.1,1221.3 1648.7,1213.9 
			1654.4,1204.2 1658.5,1195.7 1661.7,1188.3 1663.5,1181.1 1665,1178.7 1664.9,1175.1 		"/>
	</g>
</g>
</svg>
