<?xml version="1.0" encoding="utf-8"?>
<!-- Generator: Adobe Illustrator 21.1.0, SVG Export Plug-In . SVG Version: 6.00 Build 0)  -->
<svg version="1.1" id="Layer_1" xmlns="http://www.w3.org/2000/svg" xmlns:xlink="http://www.w3.org/1999/xlink" x="0px" y="0px"
	 viewBox="0 0 76 76" style="enable-background:new 0 0 76 76;" xml:space="preserve">
<style type="text/css">
	.st0{fill:#B1B2B3;stroke:#FFFFFF;stroke-width:0.5;}
</style>
<title>SS</title>
<desc>Created with Sketch.</desc>
<g id="Map-countries">
	<g id="Artboard" transform="translate(-1473.000000, -1167.000000)">
		<polygon id="SS" class="st0" points="1539.9,1194.5 1539.9,1199.7 1539,1201.7 1535.5,1201.9 1533.2,1205.7 1537.3,1206.2 
			1540.6,1209.4 1541.8,1212.1 1544.8,1213.6 1548.7,1220.8 1544.2,1225.1 1540.2,1229.1 1536.1,1232.1 1531.4,1232.1 
			1526.1,1233.6 1521.9,1232.1 1519.2,1234 1513.3,1229.6 1511.8,1226.8 1508.1,1228.2 1505,1227.7 1503.2,1228.8 1500.3,1228 
			1496.3,1222.6 1495.2,1220.5 1490.2,1217.9 1488.6,1213.9 1485.8,1211 1481.4,1207.6 1481.3,1205.4 1477.7,1202.8 1473.2,1200.2 
			1475.2,1199.4 1477.5,1198.2 1479.2,1192.2 1481,1189.1 1485.8,1188.2 1486.9,1190 1490.3,1193.9 1492.1,1194.5 1494.5,1193.4 
			1499.3,1193.6 1500.2,1195 1506.8,1195 1507,1193.6 1510.4,1192.3 1511.1,1190.4 1513.6,1189 1519.2,1192.9 1522.6,1192.2 
			1525.9,1187.4 1529.5,1183.7 1529,1179.7 1527.4,1177.7 1531.3,1177.4 1531.8,1175.9 1534.9,1176.3 1534.1,1181.3 1534.9,1186.1 
			1538.3,1188.8 1539.1,1191.1 1539,1194.4 		"/>
	</g>
</g>
</svg>
