<?xml version="1.0" encoding="UTF-8"?>
<svg width="76px" height="60px" viewBox="0 0 76 60" version="1.1" xmlns="http://www.w3.org/2000/svg" xmlns:xlink="http://www.w3.org/1999/xlink">
    <!-- Generator: Sketch 43.2 (39069) - http://www.bohemiancoding.com/sketch -->
    <title>SS</title>
    <desc>Created with Sketch.</desc>
    <defs></defs>
    <g id="Map-countries" stroke="none" stroke-width="1" fill="none" fill-rule="evenodd">
        <g id="Artboard" transform="translate(-1473.000000, -1167.000000)" stroke-width="0.5" stroke="#FFFFFF" fill="#B1B2B3">
            <polygon id="SS" points="1539.87122 1186.51352 1539.94204 1191.70768 1538.95045 1193.73813 1535.45625 1193.90339 1533.18974 1197.70458 1537.25057 1198.17677 1540.60311 1201.41132 1541.78358 1204.05562 1544.80559 1205.59026 1548.70115 1212.79126 1544.21535 1217.13547 1540.15453 1221.07831 1536.0701 1224.10037 1531.41904 1224.10037 1526.0833 1225.63501 1521.88082 1224.14759 1519.16574 1225.96555 1513.33421 1221.57412 1511.75238 1218.76455 1508.0693 1220.15753 1505.00008 1219.70894 1503.22937 1220.8186 1500.25458 1220.03948 1496.26458 1214.58561 1495.20216 1212.48433 1490.24418 1209.86364 1488.56791 1205.89719 1485.8056 1203.0404 1481.36703 1199.59336 1481.2962 1197.42126 1477.68396 1194.75335 1473.17455 1192.15627 1475.20497 1191.42436 1477.47147 1190.17304 1479.17135 1184.22336 1480.98928 1181.13048 1485.78199 1180.20969 1486.91525 1182.02765 1490.31501 1185.92327 1492.13293 1186.51352 1494.51749 1185.35664 1499.28659 1185.59273 1500.20736 1186.9621 1506.79439 1186.9621 1507.03049 1185.59273 1510.43025 1184.34141 1511.11492 1182.3818 1513.61752 1181.01243 1519.18935 1184.90805 1522.58911 1184.22336 1525.89443 1179.40696 1529.53028 1175.72382 1528.96366 1171.68654 1527.35821 1169.72693 1531.34821 1169.37278 1531.79679 1167.88536 1534.86601 1168.33395 1534.06329 1173.29201 1534.86601 1178.13203 1538.26577 1180.77633 1539.06849 1183.06648 1538.95045 1186.39547"></polygon>
        </g>
    </g>
</svg>