<?xml version="1.0" encoding="utf-8"?>
<!-- Generator: Adobe Illustrator 21.1.0, SVG Export Plug-In . SVG Version: 6.00 Build 0)  -->
<svg version="1.1" id="Layer_1" xmlns="http://www.w3.org/2000/svg" xmlns:xlink="http://www.w3.org/1999/xlink" x="0px" y="0px"
	 viewBox="0 0 111 111" style="enable-background:new 0 0 111 111;" xml:space="preserve">
<style type="text/css">
	.st0{fill:#B1B2B3;stroke:#FFFFFF;stroke-width:0.5;}
</style>
<title>TD</title>
<desc>Created with Sketch.</desc>
<g id="Map-countries">
	<g id="Artboard" transform="translate(-1404.000000, -1090.000000)">
		<polygon id="TD" class="st0" points="1431.5,1163.8 1432.2,1160.6 1427.9,1160.4 1427.9,1156.1 1425.2,1153.6 1428,1144.6 
			1436.5,1138.1 1436.8,1129.2 1439.4,1115 1440.8,1112 1438.1,1109.6 1438,1107.4 1435.5,1105.5 1433.8,1094.5 1440.5,1090.6 
			1466.9,1104.2 1493.3,1117.7 1493.7,1145.1 1488,1144.6 1484.9,1149.6 1483.2,1153.8 1484.6,1155.4 1482.4,1157.5 1483.1,1160.3 
			1481.4,1163.1 1480.8,1165.6 1483.1,1165.2 1484.5,1167.8 1484.5,1171.7 1487,1173.7 1486.9,1175.3 1482.7,1176.5 1479.3,1179.1 
			1474.6,1186.4 1468.3,1189.5 1461.9,1189.1 1460.1,1189.7 1460.7,1192.1 1457.3,1194.4 1454.5,1197 1446.1,1199.5 1444.5,1198 
			1443.4,1197.9 1442.2,1199.6 1436.7,1200.1 1437.7,1198.3 1435.6,1193.7 1434.7,1191 1431.8,1189.8 1427.9,1185.9 1429.4,1182.8 
			1432.4,1183.5 1434.2,1183 1437.9,1183.1 1434.3,1177 1434.6,1172.5 1434.1,1168.1 		"/>
	</g>
</g>
</svg>
