<?xml version="1.0" encoding="UTF-8"?>
<svg width="70px" height="111px" viewBox="0 0 70 111" version="1.1" xmlns="http://www.w3.org/2000/svg" xmlns:xlink="http://www.w3.org/1999/xlink">
    <!-- Generator: Sketch 43.2 (39069) - http://www.bohemiancoding.com/sketch -->
    <title>TD</title>
    <desc>Created with Sketch.</desc>
    <defs></defs>
    <g id="Map-countries" stroke="none" stroke-width="1" fill="none" fill-rule="evenodd">
        <g id="Artboard" transform="translate(-1404.000000, -1090.000000)" stroke-width="0.5" stroke="#FFFFFF" fill="#B1B2B3">
            <polygon id="TD" points="1411.0109 1163.75364 1411.67197 1160.58992 1407.42227 1160.42465 1407.44588 1156.05684 1404.68357 1153.55419 1407.54032 1144.58246 1415.99249 1138.11336 1416.32303 1129.16524 1418.87285 1115.04656 1420.31302 1112.0245 1417.57433 1109.6163 1417.45628 1107.37336 1414.97729 1105.5318 1413.34824 1094.50601 1420.02971 1090.58677 1446.44867 1104.20965 1472.84402 1117.66725 1473.17455 1145.07826 1467.46107 1144.60607 1464.43906 1149.63496 1462.69196 1153.83751 1464.06131 1155.41937 1461.88924 1157.49704 1462.64474 1160.283 1460.92126 1163.11618 1460.26019 1165.59521 1462.59753 1165.19384 1463.96687 1167.79092 1464.0377 1171.71015 1466.46947 1173.66977 1466.39864 1175.29885 1462.21977 1176.45573 1458.84362 1179.14725 1454.07452 1186.44269 1447.84163 1189.53558 1441.44347 1189.1106 1439.57832 1189.72445 1440.23939 1192.06183 1436.7688 1194.3992 1433.95928 1196.99628 1425.62515 1199.52253 1423.97248 1198.03512 1422.88645 1197.89346 1421.65876 1199.59336 1416.18137 1200.11278 1417.22019 1198.29482 1415.14256 1193.73813 1414.19818 1190.97578 1411.31783 1189.8425 1407.42227 1185.94688 1408.86244 1182.80677 1411.88445 1183.46785 1413.7496 1182.99565 1417.43267 1183.06648 1413.84404 1176.99876 1414.08013 1172.5365 1413.63155 1168.07424"></polygon>
        </g>
    </g>
</svg>