<?xml version="1.0" encoding="UTF-8"?>
<svg width="56px" height="101px" viewBox="0 0 56 101" version="1.1" xmlns="http://www.w3.org/2000/svg" xmlns:xlink="http://www.w3.org/1999/xlink">
    <!-- Generator: Sketch 43.2 (39069) - http://www.bohemiancoding.com/sketch -->
    <title>TH</title>
    <desc>Created with Sketch.</desc>
    <defs></defs>
    <g id="Map-countries" stroke="none" stroke-width="1" fill="none" fill-rule="evenodd">
        <g id="Artboard" transform="translate(-1959.000000, -1111.000000)" stroke-width="0.5" stroke="#FFFFFF" fill="#B1B2B3">
            <polygon id="TH" points="1994.14041 1168.28673 1988.19083 1165.19384 1982.52457 1165.3355 1983.49255 1160.02329 1977.66102 1160.07051 1977.14162 1167.48399 1973.57659 1177.28207 1971.42813 1183.18453 1971.87671 1188.02455 1976.17363 1188.23704 1978.8651 1194.30476 1980.06919 1200.04195 1983.75226 1203.84313 1987.76586 1204.62226 1991.18923 1208.04568 1989.04077 1210.76081 1984.64942 1211.56355 1984.13001 1208.16373 1978.74706 1205.25972 1977.5902 1206.44022 1974.96955 1203.91396 1973.83629 1200.6322 1970.31849 1196.87823 1967.1076 1193.73813 1966.02157 1197.63375 1964.77027 1193.95061 1965.50216 1189.79528 1967.43814 1183.39702 1970.64902 1176.52656 1974.28487 1170.26995 1971.68784 1164.1314 1971.80588 1160.99129 1971.05038 1157.21372 1966.63542 1151.83068 1965.05358 1148.40725 1967.3437 1147.15593 1969.75186 1141.20625 1967.06039 1136.67316 1962.85791 1131.64427 1959.64702 1125.57654 1962.43294 1124.32522 1965.45494 1116.79369 1970.12961 1116.46315 1974.00156 1113.44109 1977.77907 1111.81201 1980.65942 1113.98412 1981.03717 1118.18667 1985.49936 1118.49359 1983.87031 1125.83625 1984.03557 1132.02203 1991.00036 1127.91392 1992.98355 1129.11802 1996.87911 1128.92914 1998.20123 1126.52094 2003.20644 1126.99313 2008.23525 1132.61227 2008.66022 1139.38829 2014.01956 1145.36158 2013.71264 1151.12238 2011.56418 1154.19166 2005.35489 1153.22366 1996.80828 1154.5222 1992.55858 1160.14134"></polygon>
        </g>
    </g>
</svg>