<?xml version="1.0" encoding="utf-8"?>
<!-- Generator: Adobe Illustrator 21.1.0, SVG Export Plug-In . SVG Version: 6.00 Build 0)  -->
<svg version="1.1" id="Layer_1" xmlns="http://www.w3.org/2000/svg" xmlns:xlink="http://www.w3.org/1999/xlink" x="0px" y="0px"
	 viewBox="0 0 101 101" style="enable-background:new 0 0 101 101;" xml:space="preserve">
<style type="text/css">
	.st0{fill:#B1B2B3;stroke:#FFFFFF;stroke-width:0.5;}
</style>
<title>TH</title>
<desc>Created with Sketch.</desc>
<g id="Map-countries">
	<g id="Artboard" transform="translate(-1959.000000, -1111.000000)">
		<polygon id="TH" class="st0" points="2016.6,1168.3 2010.7,1165.2 2005,1165.3 2006,1160 2000.2,1160.1 1999.6,1167.5 
			1996.1,1177.3 1993.9,1183.2 1994.4,1188 1998.7,1188.2 2001.4,1194.3 2002.6,1200 2006.3,1203.8 2010.3,1204.6 2013.7,1208 
			2011.5,1210.8 2007.1,1211.6 2006.6,1208.2 2001.2,1205.3 2000.1,1206.4 1997.5,1203.9 1996.3,1200.6 1992.8,1196.9 
			1989.6,1193.7 1988.5,1197.6 1987.3,1194 1988,1189.8 1989.9,1183.4 1993.1,1176.5 1996.8,1170.3 1994.2,1164.1 1994.3,1161 
			1993.6,1157.2 1989.1,1151.8 1987.6,1148.4 1989.8,1147.2 1992.3,1141.2 1989.6,1136.7 1985.4,1131.6 1982.1,1125.6 
			1984.9,1124.3 1988,1116.8 1992.6,1116.5 1996.5,1113.4 2000.3,1111.8 2003.2,1114 2003.5,1118.2 2008,1118.5 2006.4,1125.8 
			2006.5,1132 2013.5,1127.9 2015.5,1129.1 2019.4,1128.9 2020.7,1126.5 2025.7,1127 2030.7,1132.6 2031.2,1139.4 2036.5,1145.4 
			2036.2,1151.1 2034.1,1154.2 2027.9,1153.2 2019.3,1154.5 2015.1,1160.1 		"/>
	</g>
</g>
</svg>
