<?xml version="1.0" encoding="UTF-8"?>
<svg width="51px" height="38px" viewBox="0 0 51 38" version="1.1" xmlns="http://www.w3.org/2000/svg" xmlns:xlink="http://www.w3.org/1999/xlink">
    <!-- Generator: Sketch 43.2 (39069) - http://www.bohemiancoding.com/sketch -->
    <title>TJ</title>
    <desc>Created with Sketch.</desc>
    <defs></defs>
    <g id="Map-countries" stroke="none" stroke-width="1" fill="none" fill-rule="evenodd">
        <g id="Artboard" transform="translate(-1761.000000, -952.000000)" stroke-width="0.5" stroke="#FFFFFF" fill="#B1B2B3">
            <polygon id="TJ" points="1785.14967 959.198065 1782.71789 961.865975 1775.51702 960.425776 1774.87956 965.38384 1782.05683 964.722765 1790.24931 967.485115 1802.76231 966.186575 1804.43858 974.048648 1806.61065 973.198694 1810.62425 975.111091 1810.41177 978.369247 1811.40336 983.114823 1804.55662 983.114823 1800 982.500968 1795.89196 986.207711 1792.94078 987.010445 1790.62706 988.757573 1788.00641 986.042442 1788.64386 979.077542 1786.63706 978.676175 1787.34534 976.102704 1783.78032 974.213917 1780.92358 977.117926 1780.21529 980.494132 1779.20009 981.721843 1775.2337 981.556575 1773.10885 985.334147 1770.86596 983.752289 1766.07324 986.39659 1764.06644 985.404977 1767.77312 976.976267 1766.35655 970.696052 1761.49301 968.665607 1763.2165 964.911644 1768.74111 965.313011 1771.88116 960.567435 1773.9824 955.019124 1782.83594 952.988679 1781.46659 957.02596 1782.41097 959.434163"></polygon>
        </g>
    </g>
</svg>