<?xml version="1.0" encoding="utf-8"?>
<!-- Generator: Adobe Illustrator 21.1.0, SVG Export Plug-In . SVG Version: 6.00 Build 0)  -->
<svg version="1.1" id="Layer_1" xmlns="http://www.w3.org/2000/svg" xmlns:xlink="http://www.w3.org/1999/xlink" x="0px" y="0px"
	 viewBox="0 0 51 51" style="enable-background:new 0 0 51 51;" xml:space="preserve">
<style type="text/css">
	.st0{fill:#B1B2B3;stroke:#FFFFFF;stroke-width:0.5;}
</style>
<title>TJ</title>
<desc>Created with Sketch.</desc>
<g id="Map-countries">
	<g id="Artboard" transform="translate(-1761.000000, -952.000000)">
		<polygon id="TJ" class="st0" points="1785.1,965.7 1782.7,968.4 1775.5,966.9 1774.9,971.9 1782.1,971.2 1790.2,974 1802.8,972.7 
			1804.4,980.5 1806.6,979.7 1810.6,981.6 1810.4,984.9 1811.4,989.6 1804.6,989.6 1800,989 1795.9,992.7 1792.9,993.5 
			1790.6,995.3 1788,992.5 1788.6,985.6 1786.6,985.2 1787.3,982.6 1783.8,980.7 1780.9,983.6 1780.2,987 1779.2,988.2 
			1775.2,988.1 1773.1,991.8 1770.9,990.3 1766.1,992.9 1764.1,991.9 1767.8,983.5 1766.4,977.2 1761.5,975.2 1763.2,971.4 
			1768.7,971.8 1771.9,967.1 1774,961.5 1782.8,959.5 1781.5,963.5 1782.4,965.9 		"/>
	</g>
</g>
</svg>
