<?xml version="1.0" encoding="UTF-8"?>
<svg width="94px" height="65px" viewBox="0 0 94 65" version="1.1" xmlns="http://www.w3.org/2000/svg" xmlns:xlink="http://www.w3.org/1999/xlink">
    <!-- Generator: Sketch 43.2 (39069) - http://www.bohemiancoding.com/sketch -->
    <title>TM</title>
    <desc>Created with Sketch.</desc>
    <defs></defs>
    <g id="Map-countries" stroke="none" stroke-width="1" fill="none" fill-rule="evenodd">
        <g id="Artboard" transform="translate(-1662.000000, -936.000000)" stroke-width="0.5" stroke="#FFFFFF" fill="#B1B2B3">
            <polygon id="TM" points="1720.24732 997.634869 1719.65709 990.764409 1714.72271 990.481091 1707.16769 983.185653 1701.87918 982.264869 1694.56025 978.03871 1689.83837 977.259585 1686.9344 978.817834 1682.51944 978.581736 1677.82116 983.350922 1671.98963 984.95639 1670.76194 979.077542 1671.72993 970.271075 1666.55946 967.390676 1668.25934 961.535438 1663.86798 961.016022 1665.33177 953.720584 1671.56466 955.869078 1677.39619 953.059508 1672.55626 947.794516 1670.6675 942.742012 1665.33177 945.008556 1664.6707 951.45404 1662.59307 945.764071 1665.52064 942.812842 1673.02845 940.947665 1677.51424 943.450307 1682.14169 950.367988 1685.54145 949.943011 1693.00203 949.824962 1691.916 945.386313 1697.58226 942.317035 1703.15409 937.122873 1712.07846 941.844839 1712.78674 948.904178 1715.31295 950.722135 1722.46661 950.320768 1724.6859 951.902627 1727.944 960.850753 1735.52263 966.77682 1739.84316 970.766882 1746.76072 974.898602 1755.56704 978.487296 1755.37817 983.58702 1753.39497 983.327312 1750.25492 981.107988 1749.2161 984.059217 1743.64427 985.664685 1742.32215 992.251828 1738.59185 994.73086 1733.37417 995.958571 1731.98121 999.618095 1726.99962 1000.70415"></polygon>
        </g>
    </g>
</svg>