<?xml version="1.0" encoding="utf-8"?>
<!-- Generator: Adobe Illustrator 21.1.0, SVG Export Plug-In . SVG Version: 6.00 Build 0)  -->
<svg version="1.1" id="Layer_1" xmlns="http://www.w3.org/2000/svg" xmlns:xlink="http://www.w3.org/1999/xlink" x="0px" y="0px"
	 viewBox="0 0 94 94" style="enable-background:new 0 0 94 94;" xml:space="preserve">
<style type="text/css">
	.st0{fill:#B1B2B3;stroke:#FFFFFF;stroke-width:0.5;}
</style>
<title>TM</title>
<desc>Created with Sketch.</desc>
<g id="Map-countries">
	<g id="Artboard" transform="translate(-1662.000000, -936.000000)">
		<polygon id="TM" class="st0" points="1720.2,1012.1 1719.7,1005.3 1714.7,1005 1707.2,997.7 1701.9,996.8 1694.6,992.5 
			1689.8,991.8 1686.9,993.3 1682.5,993.1 1677.8,997.9 1672,999.5 1670.8,993.6 1671.7,984.8 1666.6,981.9 1668.3,976 
			1663.9,975.5 1665.3,968.2 1671.6,970.4 1677.4,967.6 1672.6,962.3 1670.7,957.2 1665.3,959.5 1664.7,966 1662.6,960.3 
			1665.5,957.3 1673,955.4 1677.5,958 1682.1,964.9 1685.5,964.4 1693,964.3 1691.9,959.9 1697.6,956.8 1703.2,951.6 1712.1,956.3 
			1712.8,963.4 1715.3,965.2 1722.5,964.8 1724.7,966.4 1727.9,975.4 1735.5,981.3 1739.8,985.3 1746.8,989.4 1755.6,993 
			1755.4,998.1 1753.4,997.8 1750.3,995.6 1749.2,998.6 1743.6,1000.2 1742.3,1006.8 1738.6,1009.2 1733.4,1010.5 1732,1014.1 
			1727,1015.2 		"/>
	</g>
</g>
</svg>
