<?xml version="1.0" encoding="utf-8"?>
<!-- Generator: Adobe Illustrator 21.1.0, SVG Export Plug-In . SVG Version: 6.00 Build 0)  -->
<svg version="1.1" id="Layer_1" xmlns="http://www.w3.org/2000/svg" xmlns:xlink="http://www.w3.org/1999/xlink" x="0px" y="0px"
	 viewBox="0 0 57 57" style="enable-background:new 0 0 57 57;" xml:space="preserve">
<style type="text/css">
	.st0{fill:#B1B2B3;stroke:#FFFFFF;stroke-width:0.5;}
</style>
<title>TN</title>
<desc>Created with Sketch.</desc>
<g id="Map-countries">
	<g id="Artboard" transform="translate(-1364.000000, -983.000000)">
		<polygon id="TN" class="st0" points="1392.3,1039.6 1389.5,1025.8 1385.4,1022.7 1385.4,1020.7 1379.9,1016.1 1379.4,1010.1 
			1383.4,1005.7 1385,999 1383.9,991.3 1385.3,987 1392.5,983.7 1397.1,984.7 1396.9,988.9 1402.6,985.8 1403,987.4 1399.7,991.4 
			1399.7,995.2 1402,997.2 1401.1,1004.2 1396.7,1008.3 1398,1012.6 1401.4,1012.7 1403.1,1016.5 1405.6,1017.7 1405.2,1023.7 
			1402,1026 1400,1028.4 1395.4,1031.4 1396.1,1034.6 1395.6,1037.9 		"/>
	</g>
</g>
</svg>
