<?xml version="1.0" encoding="UTF-8"?>
<svg width="28px" height="57px" viewBox="0 0 28 57" version="1.1" xmlns="http://www.w3.org/2000/svg" xmlns:xlink="http://www.w3.org/1999/xlink">
    <!-- Generator: Sketch 43.2 (39069) - http://www.bohemiancoding.com/sketch -->
    <title>TN</title>
    <desc>Created with Sketch.</desc>
    <defs></defs>
    <g id="Map-countries" stroke="none" stroke-width="1" fill="none" fill-rule="evenodd">
        <g id="Artboard" transform="translate(-1364.000000, -983.000000)" stroke-width="0.5" stroke="#FFFFFF" fill="#B1B2B3">
            <polygon id="TN" points="1377.81603 1039.63676 1374.9829 1025.8014 1370.92208 1022.66129 1370.85125 1020.74889 1365.44469 1016.07415 1364.85445 1010.10086 1368.93889 1005.66221 1370.49711 999.00424 1369.43468 991.260215 1370.78042 987.034055 1378.00491 983.705069 1382.63236 984.696682 1382.44348 988.875622 1388.06253 985.829954 1388.53472 987.411813 1385.20579 991.449094 1385.18218 995.226667 1387.47229 997.233502 1386.59874 1004.22201 1382.231 1008.25929 1383.4823 1012.57989 1386.90567 1012.72155 1388.58194 1016.47551 1391.10815 1017.70323 1390.7304 1023.72373 1387.4959 1025.96667 1385.46549 1028.4457 1380.90887 1031.42054 1381.61715 1034.60786 1381.05053 1037.86602"></polygon>
        </g>
    </g>
</svg>