<?xml version="1.0" encoding="UTF-8"?>
<svg width="125px" height="55px" viewBox="0 0 125 55" version="1.1" xmlns="http://www.w3.org/2000/svg" xmlns:xlink="http://www.w3.org/1999/xlink">
    <!-- Generator: Sketch 43.2 (39069) - http://www.bohemiancoding.com/sketch -->
    <title>TR</title>
    <desc>Created with Sketch.</desc>
    <defs></defs>
    <g id="Map-countries" stroke="none" stroke-width="1" fill="none" fill-rule="evenodd">
        <g id="Artboard" transform="translate(-1487.000000, -942.000000)" stroke="#FFFFFF" stroke-width="0.5" fill="#B1B2B3">
            <path d="M1559.39622,949.706912 L1568.88721,953.083118 L1576.6075,951.737358 L1582.29738,952.516482 L1590.1121,947.936175 L1597.17132,947.511198 L1603.54587,951.831797 L1604.67912,954.901075 L1604.04167,959.127235 L1608.95243,961.27573 L1611.54947,963.778372 L1607.01646,966.210184 L1609.09409,975.913825 L1607.79557,978.510906 L1611.40781,985.168879 L1608.24415,986.561859 L1605.93042,984.460584 L1598.23375,983.398141 L1595.40061,984.696682 L1587.8692,985.971613 L1584.30418,985.829954 L1576.67833,988.922842 L1571.22455,988.946452 L1567.70674,987.388203 L1560.41143,989.678356 L1558.23936,988.072888 L1557.88522,992.653195 L1556.11451,994.447542 L1554.3438,996.241889 L1551.91203,992.535146 L1554.41463,989.465868 L1550.37742,990.174163 L1544.8292,988.285376 L1540.27258,993.007343 L1530.21496,993.928126 L1524.85561,989.536697 L1517.72556,989.253379 L1516.19095,992.653195 L1511.61072,993.621198 L1505.21256,989.253379 L1497.98807,989.395038 L1494.06891,981.178817 L1489.22897,976.55129 L1492.43985,969.987757 L1488.23737,965.926866 L1495.57991,957.710645 L1505.77919,957.356498 L1508.5651,950.722135 L1521.17254,951.879017 L1529.12892,946.165438 L1536.84921,943.662796 L1547.80399,943.473917 L1559.39622,949.706912 L1559.39622,949.706912 Z M1495.0605,955.349662 L1489.53589,960.024409 L1487.45826,955.987127 L1487.5527,954.19278 L1489.13453,953.224777 L1491.18855,947.723687 L1487.95406,945.386313 L1494.70636,942.600353 L1500.39624,943.780845 L1501.17535,947.180661 L1506.95966,950.01384 L1505.75558,952.162335 L1497.89364,952.634531 L1495.0605,955.349662 L1495.0605,955.349662 Z" id="TR"></path>
        </g>
    </g>
</svg>