<?xml version="1.0" encoding="utf-8"?>
<!-- Generator: Adobe Illustrator 21.1.0, SVG Export Plug-In . SVG Version: 6.00 Build 0)  -->
<svg version="1.1" id="Layer_1" xmlns="http://www.w3.org/2000/svg" xmlns:xlink="http://www.w3.org/1999/xlink" x="0px" y="0px"
	 viewBox="0 0 125 125" style="enable-background:new 0 0 125 125;" xml:space="preserve">
<style type="text/css">
	.st0{fill:#B1B2B3;stroke:#FFFFFF;stroke-width:0.5;}
</style>
<title>TR</title>
<desc>Created with Sketch.</desc>
<g id="Map-countries">
	<g id="Artboard" transform="translate(-1487.000000, -942.000000)">
		<path id="TR" class="st0" d="M1559.4,984.7l9.5,3.4l7.7-1.3l5.7,0.8l7.8-4.6l7.1-0.4l6.4,4.3l1.1,3.1l-0.6,4.2l4.9,2.1l2.6,2.5
			l-4.5,2.4l2.1,9.7l-1.3,2.6l3.6,6.7l-3.2,1.4l-2.3-2.1l-7.7-1.1l-2.8,1.3l-7.5,1.3l-3.6-0.1l-7.6,3.1l-5.5,0l-3.5-1.6l-7.3,2.3
			l-2.2-1.6l-0.4,4.6l-1.8,1.8l-1.8,1.8l-2.4-3.7l2.5-3.1l-4,0.7l-5.5-1.9l-4.6,4.7l-10.1,0.9l-5.4-4.4l-7.1-0.3l-1.5,3.4l-4.6,1
			l-6.4-4.4l-7.2,0.1l-3.9-8.2l-4.8-4.6l3.2-6.6l-4.2-4.1l7.3-8.2l10.2-0.4l2.8-6.6l12.6,1.2l8-5.7l7.7-2.5l11-0.2L1559.4,984.7
			L1559.4,984.7z M1495.1,990.3l-5.5,4.7l-2.1-4l0.1-1.8l1.6-1l2.1-5.5l-3.2-2.3l6.8-2.8l5.7,1.2l0.8,3.4l5.8,2.8l-1.2,2.1l-7.9,0.5
			L1495.1,990.3L1495.1,990.3z"/>
	</g>
</g>
</svg>
