<?xml version="1.0" encoding="utf-8"?>
<!-- Generator: Adobe Illustrator 21.1.0, SVG Export Plug-In . SVG Version: 6.00 Build 0)  -->
<svg version="1.1" id="Layer_1" xmlns="http://www.w3.org/2000/svg" xmlns:xlink="http://www.w3.org/1999/xlink" x="0px" y="0px"
	 viewBox="0 0 73 73" style="enable-background:new 0 0 73 73;" xml:space="preserve">
<style type="text/css">
	.st0{fill:#B1B2B3;stroke:#FFFFFF;stroke-width:0.5;}
</style>
<title>TZ</title>
<desc>Created with Sketch.</desc>
<g id="Map-countries">
	<g id="Artboard" transform="translate(-1509.000000, -1255.000000)">
		<polygon id="TZ" class="st0" points="1539.5,1255.8 1540.6,1256.5 1564.6,1269.9 1565.1,1273.7 1574.6,1280.3 1571.5,1288.5 
			1571.9,1292.2 1576.1,1294.6 1576.3,1296.4 1574.5,1300.4 1574.9,1302.4 1574.5,1305.6 1576.8,1309.7 1579.5,1316.3 
			1581.9,1317.8 1576.7,1321.6 1569.4,1324.2 1565.5,1324.1 1563.1,1326.1 1558.5,1326.3 1556.8,1327.2 1548.8,1325.3 
			1543.8,1325.8 1542,1316.7 1539.7,1313.6 1538.4,1311.7 1531.9,1310.5 1528.1,1308.5 1523.9,1307.4 1521.3,1306.3 1518.5,1304.6 
			1515,1296.2 1511.1,1292.5 1509.8,1288.7 1510.5,1285.2 1509.3,1279.2 1512,1278.9 1514.4,1276.5 1517,1273 1518.6,1271.7 
			1518.6,1269.5 1517.1,1268 1516.8,1265.4 1518.6,1264.6 1519,1260.7 1516.4,1257 1518.7,1256.2 1526,1256.3 		"/>
	</g>
</g>
</svg>
