<?xml version="1.0" encoding="UTF-8"?>
<svg width="73px" height="72px" viewBox="0 0 73 72" version="1.1" xmlns="http://www.w3.org/2000/svg" xmlns:xlink="http://www.w3.org/1999/xlink">
    <!-- Generator: Sketch 43.2 (39069) - http://www.bohemiancoding.com/sketch -->
    <title>TZ</title>
    <desc>Created with Sketch.</desc>
    <defs></defs>
    <g id="Map-countries" stroke="none" stroke-width="1" fill="none" fill-rule="evenodd">
        <g id="Artboard" transform="translate(-1509.000000, -1255.000000)" stroke-width="0.5" stroke="#FFFFFF" fill="#B1B2B3">
            <polygon id="TZ" points="1539.46986 1255.28896 1540.60311 1256.02086 1564.5903 1269.40763 1565.06249 1273.23243 1574.55348 1279.81957 1571.50786 1287.96496 1571.88561 1291.71892 1576.13531 1294.12713 1576.32419 1295.85065 1574.50626 1299.86432 1574.88401 1301.87115 1574.45904 1305.05848 1576.77277 1309.21381 1579.51146 1315.80095 1581.91962 1317.26476 1576.65472 1321.13677 1569.43023 1323.73386 1565.46385 1323.63942 1563.1029 1325.64625 1558.49906 1325.81152 1556.75196 1326.66147 1548.79558 1324.77269 1543.81399 1325.31571 1541.97246 1316.20232 1539.72956 1313.08582 1538.38382 1311.24425 1531.91484 1310.01654 1528.13733 1308.00971 1523.93485 1306.90005 1521.29059 1305.76677 1518.52828 1304.09048 1514.96326 1295.70899 1511.11492 1292.00224 1509.79279 1288.17745 1510.45386 1284.73041 1509.27338 1278.66269 1512.01208 1278.35576 1514.39663 1275.97117 1516.99367 1272.52413 1518.62272 1271.15476 1518.55189 1269.00627 1517.13533 1267.51885 1516.75758 1264.92177 1518.64633 1264.09542 1519.04769 1260.22341 1516.40343 1256.51667 1518.74077 1255.71393 1525.98887 1255.80837"></polygon>
        </g>
    </g>
</svg>