<?xml version="1.0" encoding="UTF-8"?>
<svg width="120px" height="81px" viewBox="0 0 120 81" version="1.1" xmlns="http://www.w3.org/2000/svg" xmlns:xlink="http://www.w3.org/1999/xlink">
    <!-- Generator: Sketch 43.2 (39069) - http://www.bohemiancoding.com/sketch -->
    <title>UA</title>
    <desc>Created with Sketch.</desc>
    <defs></defs>
    <g id="Map-countries" stroke="none" stroke-width="1" fill="none" fill-rule="evenodd">
        <g id="Artboard" transform="translate(-1461.000000, -842.000000)" stroke-width="0.5" stroke="#FFFFFF" fill="#B1B2B3">
            <polygon id="UA" points="1525.46946 845.563948 1527.92484 846.012535 1529.60111 843.557112 1531.60791 844.100138 1538.47826 843.061306 1542.70435 849.129032 1541.05169 851.301137 1541.5947 854.582903 1546.88322 855.07871 1549.24416 859.635407 1549.10251 861.689462 1557.50747 865.325376 1562.5835 863.696298 1566.66793 868.512704 1570.53988 868.418264 1580.29057 871.723641 1580.3614 874.722089 1577.69354 879.987081 1579.13371 885.488172 1578.0949 888.769939 1571.69674 889.501843 1568.29698 892.240584 1568.08449 896.561183 1562.79598 897.340307 1558.38102 900.456805 1552.19534 900.952611 1546.48186 904.541306 1543.36541 906.973118 1546.88322 910.443763 1550.11771 912.710307 1556.87001 912.143671 1555.57149 915.496267 1548.32339 917.101736 1539.3282 922.461167 1535.66874 920.595991 1537.10891 916.228172 1529.88442 913.489432 1531.0649 911.671475 1538.52548 907.823072 1537.5811 905.910676 1536.51868 906.878679 1535.47986 906.359263 1525.18615 903.95106 1524.73757 900.385975 1518.59911 901.566467 1516.14373 906.831459 1511.02048 913.796359 1507.99847 912.190891 1504.90564 913.70192 1501.95446 911.978402 1503.60712 910.93957 1504.76398 907.705023 1506.58191 904.659355 1506.10972 902.959447 1507.50268 902.203932 1508.14013 903.526083 1512.0593 903.785791 1513.8064 903.101106 1512.57871 902.109493 1513.02728 900.692903 1510.71356 898.237481 1509.76918 894.17659 1507.36102 892.594731 1507.83321 889.265745 1504.83481 886.621444 1502.11972 886.243687 1497.23257 883.150799 1492.84122 884.142412 1491.25938 885.606221 1488.47347 885.582611 1486.7972 887.896375 1481.91005 888.840768 1479.66715 890.351797 1476.57431 887.967204 1472.34822 887.919985 1468.24018 886.833932 1465.38344 888.935207 1464.91125 886.290906 1461.25179 883.599386 1462.55031 879.562104 1464.36823 876.965023 1465.83202 877.531659 1464.10853 872.998571 1470.12894 864.475422 1473.41065 863.271321 1474.11893 860.343702 1470.79 851.159478 1473.95367 850.758111 1477.58952 847.854101 1482.71277 847.618003 1489.39424 848.467957 1496.78399 851.017819 1502.00168 851.230307 1504.48067 852.764946 1506.95966 850.923379 1508.70676 853.402412 1514.67995 852.882995 1517.30059 853.898218 1517.74917 848.562396 1519.77958 846.201413"></polygon>
        </g>
    </g>
</svg>