<?xml version="1.0" encoding="utf-8"?>
<!-- Generator: Adobe Illustrator 21.1.0, SVG Export Plug-In . SVG Version: 6.00 Build 0)  -->
<svg version="1.1" id="Layer_1" xmlns="http://www.w3.org/2000/svg" xmlns:xlink="http://www.w3.org/1999/xlink" x="0px" y="0px"
	 viewBox="0 0 120 120" style="enable-background:new 0 0 120 120;" xml:space="preserve">
<style type="text/css">
	.st0{fill:#B1B2B3;stroke:#FFFFFF;stroke-width:0.5;}
</style>
<title>UA</title>
<desc>Created with Sketch.</desc>
<g id="Map-countries">
	<g id="Artboard" transform="translate(-1461.000000, -842.000000)">
		<polygon id="UA" class="st0" points="1525.5,865.1 1527.9,865.5 1529.6,863.1 1531.6,863.6 1538.5,862.6 1542.7,868.6 
			1541.1,870.8 1541.6,874.1 1546.9,874.6 1549.2,879.1 1549.1,881.2 1557.5,884.8 1562.6,883.2 1566.7,888 1570.5,887.9 
			1580.3,891.2 1580.4,894.2 1577.7,899.5 1579.1,905 1578.1,908.3 1571.7,909 1568.3,911.7 1568.1,916.1 1562.8,916.8 1558.4,920 
			1552.2,920.5 1546.5,924 1543.4,926.5 1546.9,929.9 1550.1,932.2 1556.9,931.6 1555.6,935 1548.3,936.6 1539.3,942 1535.7,940.1 
			1537.1,935.7 1529.9,933 1531.1,931.2 1538.5,927.3 1537.6,925.4 1536.5,926.4 1535.5,925.9 1525.2,923.5 1524.7,919.9 
			1518.6,921.1 1516.1,926.3 1511,933.3 1508,931.7 1504.9,933.2 1502,931.5 1503.6,930.4 1504.8,927.2 1506.6,924.2 1506.1,922.5 
			1507.5,921.7 1508.1,923 1512.1,923.3 1513.8,922.6 1512.6,921.6 1513,920.2 1510.7,917.7 1509.8,913.7 1507.4,912.1 
			1507.8,908.8 1504.8,906.1 1502.1,905.7 1497.2,902.7 1492.8,903.6 1491.3,905.1 1488.5,905.1 1486.8,907.4 1481.9,908.3 
			1479.7,909.9 1476.6,907.5 1472.3,907.4 1468.2,906.3 1465.4,908.4 1464.9,905.8 1461.3,903.1 1462.6,899.1 1464.4,896.5 
			1465.8,897 1464.1,892.5 1470.1,884 1473.4,882.8 1474.1,879.8 1470.8,870.7 1474,870.3 1477.6,867.4 1482.7,867.1 1489.4,868 
			1496.8,870.5 1502,870.7 1504.5,872.3 1507,870.4 1508.7,872.9 1514.7,872.4 1517.3,873.4 1517.7,868.1 1519.8,865.7 		"/>
	</g>
</g>
</svg>
