<?xml version="1.0" encoding="UTF-8"?>
<svg width="681px" height="558px" viewBox="0 0 681 558" version="1.1" xmlns="http://www.w3.org/2000/svg" xmlns:xlink="http://www.w3.org/1999/xlink">
    <!-- Generator: Sketch 43.2 (39069) - http://www.bohemiancoding.com/sketch -->
    <title>US</title>
    <desc>Created with Sketch.</desc>
    <defs></defs>
    <g id="Map-countries" stroke="none" stroke-width="1" fill="none" fill-rule="evenodd">
        <g id="Artboard" transform="translate(-192.000000, -565.000000)" stroke="#FFFFFF" stroke-width="0.5" fill="#B1B2B3">
            <path d="M450.93311,815.603072 L450.93311,815.603072 L447.297256,811.282473 L441.465725,807.57573 L439.600579,797.281843 L431.077572,787.530983 L427.512547,775.867727 L421.161608,775.064992 L410.631799,774.758065 L402.864294,771.122151 L389.17082,757.806206 L382.84349,755.327174 L371.274866,750.628817 L362.114404,751.762089 L349.105604,745.647143 L341.243661,739.909954 L333.901126,742.766743 L335.270473,752.045407 L331.61101,752.895361 L323.961552,755.634101 L318.130021,760.02553 L310.787486,762.76427 L309.843108,755.114685 L312.817898,742.058449 L319.85351,737.879508 L318.035583,734.432473 L309.607014,742.034839 L305.097611,750.935745 L295.559398,760.261628 L300.399333,766.518233 L294.142832,775.608018 L287.036391,780.825791 L280.402139,784.579754 L278.773088,789.986406 L268.432154,796.195791 L266.330914,801.767711 L258.587019,806.796605 L254.054007,805.899432 L247.868334,809.157588 L241.139644,813.10043 L235.638645,816.948833 L224.282505,820.206989 L223.24369,818.294593 L230.491787,812.935161 L236.960773,809.370077 L244.019995,802.971813 L252.23608,801.649662 L255.494182,796.786037 L264.678254,789.585038 L266.165648,787.153226 L271.052802,782.832627 L272.186055,773.388694 L275.562204,765.904378 L267.936356,769.77639 L265.811507,767.580676 L262.222872,772.184593 L257.902345,765.739109 L256.108028,770.319416 L253.629037,763.944762 L247.018394,769.068095 L242.957571,769.068095 L242.390944,761.44212 L243.595026,756.672934 L239.321717,751.998187 L230.704272,754.524439 L225.108836,748.315054 L220.575824,745.104117 L220.552214,737.430922 L215.452575,731.575684 L218.002395,723.524731 L223.408956,715.568218 L225.7699,708.131121 L231.129242,707.068679 L235.662254,709.406052 L240.997987,702.299493 L245.814313,703.574424 L250.866732,698.946897 L249.639042,692.052826 L245.93236,689.314086 L250.843123,683.364409 L246.7823,683.529677 L239.746687,686.905883 L237.739885,690.282089 L232.522199,686.905883 L223.149252,688.629401 L213.445773,684.946267 L210.65986,678.689662 L202.278509,669.458218 L211.580628,662.682197 L226.336526,654.631244 L231.790307,654.631244 L230.893148,662.847465 L244.869935,662.21 L239.486983,651.963333 L231.341727,645.541459 L226.643449,636.947481 L220.29251,629.463164 L211.202877,623.844025 L214.909558,614.329263 L226.643449,613.739017 L235.00119,605.286697 L236.583022,596.031644 L243.335322,586.8002 L249.780698,584.557266 L262.31731,575.679969 L268.408545,577.02573 L278.584213,566.141598 L288.594614,570.462197 L293.38733,579.599201 L296.33851,575.703579 L307.529383,576.90768 L307.128023,581.511598 L317.256472,584.887803 L324.008771,582.904578 L337.961949,589.137573 L350.687436,590.97914 L355.787075,593.505392 L364.593395,590.341674 L374.627406,596.149693 L381.828285,598.817604 L381.781066,664.098786 L381.757456,747.748418 L388.273661,748.149785 L394.719038,751.832919 L399.346488,757.593717 L405.225238,766.093257 L411.670614,758.892258 L418.304866,754.666098 L421.822673,761.3949 L426.284856,766.659892 L432.352482,772.373472 L436.484134,781.321598 L443.260042,795.204178 L454.521744,802.759324 L454.71062,810.125591 L450.93311,815.603072 L450.93311,815.603072 Z M866.293951,896.89172 L863.342772,894.082151 L858.904197,895.734839 L856.708519,893.184977 L851.6561,900.504025 L849.625688,907.941121 L847.264744,912.238111 L844.455221,913.70192 L842.330372,914.174117 L841.669307,916.48788 L829.463228,916.48788 L819.405607,916.55871 L816.407209,918.282227 L809.6313,924.727711 L810.315974,926.002642 L810.717334,929.567727 L805.759352,932.566175 L800.329182,931.810661 L795.135105,931.480123 L791.99505,932.518955 L792.585286,935.234086 L792.585286,935.234086 L792.703333,936.10765 L786.989849,941.467081 L782.008258,944.040553 L778.608499,945.244654 L774.689332,947.676467 L769.896616,948.856959 L766.591295,948.408372 L762.506862,946.590415 L764.773368,943.166989 L766.237153,940.050492 L769.353599,935.116037 L769.023067,931.409293 L767.842595,926.120691 L765.387213,925.199908 L761.279171,929.213579 L759.957043,929.14275 L759.626511,926.852596 L763.262364,923.169462 L763.876209,918.943303 L763.333192,914.717143 L758.422429,911.057619 L752.803383,909.168833 L751.882615,912.757527 L750.41883,913.70192 L749.238358,918.305837 L748.624513,915.16573 L745.980255,917.408664 L744.327595,920.525161 L742.604106,925.058249 L742.273574,928.930261 L744.469251,934.549401 L744.280376,940.475469 L741.5889,944.819677 L740.243162,946.047389 L738.448845,947.015392 L736.205948,947.062611 L735.592103,946.472366 L733.797786,941.797619 L733.750567,939.483856 L733.939442,937.264531 L733.113112,932.849493 L734.364412,927.70255 L735.851807,921.304286 L739.298785,914.150507 L738.307188,914.174117 L733.443644,920.171014 L732.546485,919.084962 L735.143523,915.732366 L739.0863,909.664639 L743.595702,908.814685 L748.766169,906.925899 L753.983855,907.917512 L754.19634,907.964731 L760.027871,907.114777 L756.72255,903.313594 L754.951842,903.006667 L752.92143,902.628909 L751.528473,899.937389 L745.035878,900.787343 L739.157128,902.912227 L734.506069,899.252704 L730.752168,898.024992 L732.877017,892.901659 L727.021877,896.136206 L721.709753,899.276313 L716.610115,901.731736 L712.549291,898.426359 L705.915039,900.433195 L705.938649,899.016605 L710.424442,894.932104 L715.12272,891.036482 L721.875019,887.801935 L713.729763,885.228464 L708.370421,886.527005 L701.948654,883.457727 L695.196354,881.875868 L690.568905,881.262012 L688.514884,879.562104 L687.334412,874.013794 L685.091515,874.061014 L685.067906,877.933026 L671.374432,877.933026 L648.732981,877.933026 L626.233186,877.933026 L606.35404,877.933026 L586.498502,877.933026 L566.973497,877.933026 L546.787428,877.933026 L540.271223,877.933026 L520.62817,877.933026 L501.835058,877.933026 L504.077954,886.125637 L505.140379,894.17659 L503.511328,896.750061 L499.993522,887.518618 L490.431699,884.166022 L489.628978,886.102028 L491.564952,890.682335 L493.666192,899.016605 L494.870274,911.813134 L494.067553,920.289063 L493.264832,928.646943 L490.667794,937.170092 L492.792643,944.016943 L493.028737,951.572089 L491.588562,958.773088 L495.106368,963.471444 L496.027136,970.436344 L501.150384,977.495684 L504.077954,980.258034 L503.84186,982.19404 L509.366468,993.644808 L515.788236,1001.7902 L516.590956,1006.20524 L518.267227,1007.50378 L524.40568,1008.2829 L526.766624,1010.4314 L530.473306,1010.83276 L531.205199,1013.09931 L534.298035,1014.0437 L538.594953,1018.57679 L539.704596,1022.59046 L547.236007,1022.00022 L555.640967,1021.15026 L555.027121,1022.6849 L565.013914,1026.46247 L580.123954,1031.91634 L593.29802,1031.86912 L598.539316,1031.86912 L598.562925,1028.6818 L610.037112,1028.6818 L612.445274,1031.42054 L615.821424,1033.85235 L619.7642,1037.22856 L621.959878,1041.21862 L623.612539,1045.39756 L627.035907,1047.68771 L632.536906,1049.95425 L636.715777,1043.98097 L642.122338,1043.83931 L646.797007,1046.86137 L650.125937,1052.00831 L652.416053,1056.39974 L656.31161,1060.64951 L657.775395,1065.82006 L659.640541,1069.29071 L664.811008,1071.55725 L669.509286,1073.16272 L672.082715,1072.95023 L670.831415,1070.44759 L670.500882,1066.90611 L670.571711,1061.80639 L672.106324,1058.45379 L675.718568,1054.88871 L682.305601,1051.65416 L688.326008,1046.05863 L693.897835,1044.2879 L698.005878,1043.74487 L702.822203,1045.492 L708.606515,1044.5476 L713.540888,1048.53767 L718.333604,1048.77376 L720.812595,1047.33356 L723.267976,1048.44323 L724.519276,1047.45161 L723.10271,1045.96419 L723.220757,1042.89492 L722.040285,1040.86447 L724.77898,1039.68398 L729.8314,1039.16456 L735.71015,1040.01452 L743.194342,1039.04651 L747.349603,1040.9353 L750.560486,1044.47677 L751.740958,1044.85453 L758.422429,1041.4075 L760.995858,1042.56438 L766.166325,1048.89181 L768.031471,1053.02353 L766.662123,1057.9816 L767.65372,1060.88561 L770.722946,1066.55197 L774.240753,1072.8794 L776.766963,1074.5557 L777.805778,1077.74303 L781.06388,1078.61659 L783.047073,1077.69581 L784.699734,1073.23355 L784.983047,1070.37676 L785.195532,1065.41869 L782.055477,1056.80111 L782.008258,1053.56656 L779.057078,1048.25435 L776.837791,1041.76164 L775.657319,1036.44943 L776.672525,1030.99556 L779.788971,1026.41525 L783.519262,1022.70851 L790.790969,1017.60879 L791.735346,1014.96449 L795.087886,1012.06048 L798.393208,1011.54106 L802.737344,1006.86631 L809.584081,1004.48172 L813.786561,998.508433 L812.865793,990.339432 L812.181119,987.482642 L810.292364,986.916006 L810.009051,979.006713 L805.45243,976.315192 L809.820176,977.637343 L808.403609,972.301521 L809.678519,968.641997 L810.457631,975.654117 L813.83378,978.865054 L811.779759,984.531413 L812.393604,984.861951 L816.123896,978.227588 L818.248745,974.969432 L818.154307,971.782104 L816.501647,970.271075 L815.132299,965.690768 L817.304368,967.815653 L818.768153,968.26424 L819.263951,970.436344 L824.080276,963.872811 L825.520452,957.687035 L823.560869,957.285668 L825.567671,954.877465 L825.378795,955.939908 L829.604885,955.916298 L838.883394,953.295607 L836.92381,951.642919 L827.196722,953.295607 L832.72133,950.769355 L836.569669,950.344378 L839.45002,949.895791 L844.337174,948.361152 L847.524448,948.526421 L851.986632,947.086221 L852.506039,944.559969 L850.522847,942.576743 L851.20752,945.81129 L848.468826,945.598802 L846.273148,940.900445 L846.343976,936.154869 L847.477229,934.124424 L850.971426,928.741382 L857.95982,926.026252 L864.759338,922.862535 L871.81856,918.376667 L870.685307,915.330998 L866.36478,910.018786 L866.293951,896.89172 L866.293951,896.89172 Z M300.706256,777.803733 L297.16484,779.692519 L291.144434,784.083948 L292.159639,789.797527 L295.535789,792.914025 L302.146432,788.310108 L307.883525,782.478479 L305.074002,778.630077 L300.706256,777.803733 L300.706256,777.803733 Z M193,710.350445 L197.816325,707.375607 L198.359342,705.770138 L193,704.18828 L193,710.350445 L193,710.350445 Z M213.068022,746.638756 L206.528208,748.928909 L210.541812,752.517604 L214.885949,754.973026 L218.946772,752.918971 L218.309317,747.842857 L213.068022,746.638756 L213.068022,746.638756 Z M442.905901,823.370707 L436.554962,824.26788 L433.438516,822.804071 L433.037156,826.392765 L434.264846,831.28 L437.617387,834.727035 L440.072768,839.755929 L444.062763,844.713994 L446.70702,844.737604 L440.946317,836.001966 L442.905901,823.370707 L442.905901,823.370707 Z M280.661843,1108.29415 L278.300899,1107.63307 L277.663444,1108.24693 L277.710663,1108.69551 L278.466165,1109.26215 L279.599418,1110.74957 L281.818706,1110.25376 L282.361723,1109.40381 L280.661843,1108.29415 L280.661843,1108.29415 Z M273.602621,1107.01922 L277.144037,1107.23171 L277.356522,1106.47619 L274.098419,1106.16926 L273.602621,1107.01922 L273.602621,1107.01922 Z M287.50858,1114.78685 L286.328108,1114.173 L283.801898,1112.9925 L283.3061,1112.85084 L282.928349,1113.51192 L283.376928,1114.88129 L282.220066,1116.01456 L281.889534,1116.79369 L282.975568,1119.34355 L282.786692,1121.30316 L284.439353,1122.29478 L285.40734,1121.1379 L287.53219,1120.05184 L290.129228,1118.56442 L290.294494,1118.18667 L288.618224,1115.73124 L287.50858,1114.78685 L287.50858,1114.78685 Z M268.951562,1102.6514 L267.180854,1103.6194 L267.440558,1103.90272 L268.290498,1105.50819 L270.604223,1105.7679 L271.076411,1105.86233 L271.430553,1105.46097 L269.518188,1103.12359 L268.951562,1102.6514 L268.951562,1102.6514 Z M258.563409,1098.96826 L257.548203,1099.67656 L257.194062,1100.19598 L259.413349,1101.49452 L260.19246,1100.78622 L260.050804,1099.13353 L258.563409,1098.96826 L258.563409,1098.96826 Z" id="US"></path>
        </g>
    </g>
</svg>