<?xml version="1.0" encoding="utf-8"?>
<!-- Generator: Adobe Illustrator 21.1.0, SVG Export Plug-In . SVG Version: 6.00 Build 0)  -->
<svg version="1.1" id="Layer_1" xmlns="http://www.w3.org/2000/svg" xmlns:xlink="http://www.w3.org/1999/xlink" x="0px" y="0px"
	 viewBox="0 0 681 681" style="enable-background:new 0 0 681 681;" xml:space="preserve">
<style type="text/css">
	.st0{fill:#B1B2B3;stroke:#FFFFFF;stroke-width:0.5;}
</style>
<title>US</title>
<desc>Created with Sketch.</desc>
<g id="Map-countries">
	<g id="Artboard" transform="translate(-192.000000, -565.000000)">
		<path id="US" class="st0" d="M450.9,877.1L450.9,877.1l-3.6-4.3l-5.8-3.7l-1.9-10.3l-8.5-9.8l-3.6-11.7l-6.4-0.8l-10.5-0.3
			l-7.8-3.6l-13.7-13.3l-6.3-2.5l-11.6-4.7l-9.2,1.1l-13-6.1l-7.9-5.7l-7.3,2.9l1.4,9.3l-3.7,0.8l-7.6,2.7l-5.8,4.4l-7.3,2.7
			l-0.9-7.6l3-13.1l7-4.2l-1.8-3.4l-8.4,7.6l-4.5,8.9l-9.5,9.3l4.8,6.3l-6.3,9.1l-7.1,5.2l-6.6,3.8l-1.6,5.4l-10.3,6.2l-2.1,5.6
			l-7.7,5l-4.5-0.9l-6.2,3.3l-6.7,3.9l-5.5,3.8l-11.4,3.3l-1-1.9l7.2-5.4l6.5-3.6l7.1-6.4l8.2-1.3l3.3-4.9l9.2-7.2l1.5-2.4l4.9-4.3
			l1.1-9.4l3.4-7.5l-7.6,3.9l-2.1-2.2l-3.6,4.6l-4.3-6.4l-1.8,4.6l-2.5-6.4l-6.6,5.1H243l-0.6-7.6l1.2-4.8l-4.3-4.7l-8.6,2.5
			l-5.6-6.2l-4.5-3.2l0-7.7l-5.1-5.9l2.5-8.1l5.4-8l2.4-7.4l5.4-1.1l4.5,2.3l5.3-7.1l4.8,1.3l5.1-4.6l-1.2-6.9l-3.7-2.7l4.9-5.9
			l-4.1,0.2l-7,3.4l-2,3.4l-5.2-3.4l-9.4,1.7l-9.7-3.7l-2.8-6.3l-8.4-9.2l9.3-6.8l14.8-8.1h5.5l-0.9,8.2l14-0.6l-5.4-10.2l-8.1-6.4
			l-4.7-8.6l-6.4-7.5l-9.1-5.6l3.7-9.5l11.7-0.6l8.4-8.5l1.6-9.3l6.8-9.2l6.4-2.2l12.5-8.9l6.1,1.3l10.2-10.9l10,4.3l4.8,9.1l3-3.9
			l11.2,1.2l-0.4,4.6l10.1,3.4l6.8-2l14,6.2l12.7,1.8l5.1,2.5l8.8-3.2l10,5.8l7.2,2.7l0,65.3l0,83.6l6.5,0.4l6.4,3.7l4.6,5.8
			l5.9,8.5l6.4-7.2l6.6-4.2l3.5,6.7l4.5,5.3l6.1,5.7l4.1,8.9l6.8,13.9l11.3,7.6l0.2,7.4L450.9,877.1L450.9,877.1z M866.3,958.4
			l-3-2.8l-4.4,1.7l-2.2-2.5l-5.1,7.3l-2,7.4l-2.4,4.3l-2.8,1.5l-2.1,0.5l-0.7,2.3h-12.2l-10.1,0.1l-3,1.7l-6.8,6.4l0.7,1.3l0.4,3.6
			l-5,3l-5.4-0.8l-5.2-0.3l-3.1,1l0.6,2.7l0,0l0.1,0.9l-5.7,5.4l-5,2.6l-3.4,1.2l-3.9,2.4l-4.8,1.2l-3.3-0.4l-4.1-1.8l2.3-3.4
			l1.5-3.1l3.1-4.9l-0.3-3.7l-1.2-5.3l-2.5-0.9l-4.1,4l-1.3-0.1l-0.3-2.3l3.6-3.7l0.6-4.2l-0.5-4.2l-4.9-3.7l-5.6-1.9l-0.9,3.6
			l-1.5,0.9l-1.2,4.6l-0.6-3.1l-2.6,2.2l-1.7,3.1l-1.7,4.5l-0.3,3.9l2.2,5.6l-0.2,5.9l-2.7,4.3l-1.3,1.2l-1.8,1l-2.2,0l-0.6-0.6
			l-1.8-4.7l0-2.3l0.2-2.2l-0.8-4.4l1.3-5.1l1.5-6.4l3.4-7.2l-1,0l-4.9,6l-0.9-1.1l2.6-3.4l3.9-6.1l4.5-0.8l5.2-1.9l5.2,1l0.2,0
			l5.8-0.8l-3.3-3.8l-1.8-0.3l-2-0.4l-1.4-2.7l-6.5,0.8l-5.9,2.1l-4.7-3.7l-3.8-1.2l2.1-5.1l-5.9,3.2l-5.3,3.1l-5.1,2.5l-4.1-3.3
			l-6.6,2l0-1.4l4.5-4.1l4.7-3.9l6.8-3.2l-8.1-2.6l-5.4,1.3l-6.4-3.1l-6.8-1.6l-4.6-0.6l-2.1-1.7l-1.2-5.5l-2.2,0l0,3.9h-13.7h-22.6
			h-22.5h-19.9h-19.9H567h-20.2h-6.5h-19.6h-18.8l2.2,8.2l1.1,8.1l-1.6,2.6L500,949l-9.6-3.4l-0.8,1.9l1.9,4.6l2.1,8.3l1.2,12.8
			l-0.8,8.5l-0.8,8.4l-2.6,8.5l2.1,6.8l0.2,7.6l-1.4,7.2l3.5,4.7l0.9,7l5.1,7.1l2.9,2.8l-0.2,1.9l5.5,11.5l6.4,8.1l0.8,4.4l1.7,1.3
			l6.1,0.8l2.4,2.1l3.7,0.4l0.7,2.3l3.1,0.9l4.3,4.5l1.1,4l7.5-0.6l8.4-0.8l-0.6,1.5l10,3.8l15.1,5.5l13.2,0h5.2l0-3.2H610l2.4,2.7
			l3.4,2.4l3.9,3.4l2.2,4l1.7,4.2l3.4,2.3l5.5,2.3l4.2-6l5.4-0.1l4.7,3l3.3,5.1l2.3,4.4l3.9,4.2l1.5,5.2l1.9,3.5l5.2,2.3l4.7,1.6
			l2.6-0.2l-1.3-2.5l-0.3-3.5l0.1-5.1l1.5-3.4l3.6-3.6l6.6-3.2l6-5.6l5.6-1.8l4.1-0.5l4.8,1.7l5.8-0.9l4.9,4l4.8,0.2l2.5-1.4
			l2.5,1.1l1.3-1l-1.4-1.5l0.1-3.1l-1.2-2l2.7-1.2l5.1-0.5l5.9,0.8l7.5-1l4.2,1.9l3.2,3.5l1.2,0.4l6.7-3.4l2.6,1.2l5.2,6.3l1.9,4.1
			l-1.4,5l1,2.9l3.1,5.7l3.5,6.3l2.5,1.7l1,3.2l3.3,0.9l2-0.9l1.7-4.5l0.3-2.9l0.2-5l-3.1-8.6l0-3.2l-3-5.3l-2.2-6.5l-1.2-5.3l1-5.5
			l3.1-4.6l3.7-3.7l7.3-5.1l0.9-2.6l3.4-2.9l3.3-0.5l4.3-4.7l6.8-2.4l4.2-6l-0.9-8.2l-0.7-2.9l-1.9-0.6l-0.3-7.9l-4.6-2.7l4.4,1.3
			l-1.4-5.3l1.3-3.7l0.8,7l3.4,3.2l-2.1,5.7l0.6,0.3l3.7-6.6l2.1-3.3l-0.1-3.2l-1.7-1.5l-1.4-4.6l2.2,2.1l1.5,0.4l0.5,2.2l4.8-6.6
			l1.4-6.2l-2-0.4l2-2.4l-0.2,1.1l4.2,0l9.3-2.6l-2-1.7l-9.7,1.7l5.5-2.5l3.8-0.4l2.9-0.4l4.9-1.5l3.2,0.2l4.5-1.4l0.5-2.5l-2-2
			l0.7,3.2l-2.7-0.2l-2.2-4.7l0.1-4.7l1.1-2l3.5-5.4l7-2.7l6.8-3.2l7.1-4.5l-1.1-3l-4.3-5.3L866.3,958.4L866.3,958.4z M300.7,839.3
			l-3.5,1.9l-6,4.4l1,5.7l3.4,3.1l6.6-4.6l5.7-5.8l-2.8-3.8L300.7,839.3L300.7,839.3z M193,771.9l4.8-3l0.5-1.6l-5.4-1.6V771.9
			L193,771.9z M213.1,808.1l-6.5,2.3l4,3.6l4.3,2.5l4.1-2.1l-0.6-5.1L213.1,808.1L213.1,808.1z M442.9,884.9l-6.4,0.9l-3.1-1.5
			l-0.4,3.6l1.2,4.9l3.4,3.4l2.5,5l4,5l2.6,0l-5.8-8.7L442.9,884.9L442.9,884.9z M280.7,1169.8l-2.4-0.7l-0.6,0.6l0,0.4l0.8,0.6
			l1.1,1.5l2.2-0.5l0.5-0.8L280.7,1169.8L280.7,1169.8z M273.6,1168.5l3.5,0.2l0.2-0.8l-3.3-0.3L273.6,1168.5L273.6,1168.5z
			 M287.5,1176.3l-1.2-0.6l-2.5-1.2l-0.5-0.1l-0.4,0.7l0.4,1.4l-1.2,1.1l-0.3,0.8l1.1,2.5l-0.2,2l1.7,1l1-1.2l2.1-1.1l2.6-1.5
			l0.2-0.4l-1.7-2.5L287.5,1176.3L287.5,1176.3z M269,1164.2l-1.8,1l0.3,0.3l0.8,1.6l2.3,0.3l0.5,0.1l0.4-0.4l-1.9-2.3L269,1164.2
			L269,1164.2z M258.6,1160.5l-1,0.7l-0.4,0.5l2.2,1.3l0.8-0.7l-0.1-1.7L258.6,1160.5L258.6,1160.5z"/>
	</g>
</g>
</svg>
