<?xml version="1.0" encoding="UTF-8"?>
<svg width="114px" height="76px" viewBox="0 0 114 76" version="1.1" xmlns="http://www.w3.org/2000/svg" xmlns:xlink="http://www.w3.org/1999/xlink">
    <!-- Generator: Sketch 43.2 (39069) - http://www.bohemiancoding.com/sketch -->
    <title>UZ</title>
    <desc>Created with Sketch.</desc>
    <defs></defs>
    <g id="Map-countries" stroke="none" stroke-width="1" fill="none" fill-rule="evenodd">
        <g id="Artboard" transform="translate(-1685.000000, -910.000000)" stroke-width="0.5" stroke="#FFFFFF" fill="#B1B2B3">
            <polygon id="UZ" points="1755.37817 983.58702 1755.56704 978.487296 1746.76072 974.898602 1739.84316 970.766882 1735.52263 966.77682 1727.944 960.850753 1724.6859 951.902627 1722.46661 950.320768 1715.31295 950.722135 1712.78674 948.904178 1712.07846 941.844839 1703.15409 937.122873 1697.58226 942.317035 1691.916 945.386313 1693.00203 949.824962 1685.54145 949.943011 1685.28174 916.58232 1702.32776 911.034009 1703.55545 911.860353 1713.82555 918.565545 1719.23212 922.0598 1725.55945 930.323241 1733.32695 929.001091 1744.68309 928.292796 1752.59225 934.903548 1752.09645 943.875284 1755.33095 943.946114 1756.67668 951.170722 1765.10525 951.45404 1766.89957 955.58576 1769.37856 955.538541 1772.28252 949.281935 1780.99441 943.11977 1784.79552 941.467081 1786.75511 942.340645 1781.20689 948.077834 1786.09404 951.38321 1790.81593 949.187496 1798.65427 953.815023 1790.17848 960.048018 1785.14967 959.198065 1782.41097 959.434163 1781.46659 957.02596 1782.83594 952.988679 1773.9824 955.019124 1771.88116 960.567435 1768.74111 965.313011 1763.2165 964.911644 1761.49301 968.665607 1766.35655 970.696052 1767.77312 976.976267 1764.06644 985.404977 1759.06124 983.657849"></polygon>
        </g>
    </g>
</svg>