<?xml version="1.0" encoding="utf-8"?>
<!-- Generator: Adobe Illustrator 21.1.0, SVG Export Plug-In . SVG Version: 6.00 Build 0)  -->
<svg version="1.1" id="Layer_1" xmlns="http://www.w3.org/2000/svg" xmlns:xlink="http://www.w3.org/1999/xlink" x="0px" y="0px"
	 viewBox="0 0 114 114" style="enable-background:new 0 0 114 114;" xml:space="preserve">
<style type="text/css">
	.st0{fill:#B1B2B3;stroke:#FFFFFF;stroke-width:0.5;}
</style>
<title>UZ</title>
<desc>Created with Sketch.</desc>
<g id="Map-countries">
	<g id="Artboard" transform="translate(-1685.000000, -910.000000)">
		<polygon id="UZ" class="st0" points="1755.4,1002.6 1755.6,997.5 1746.8,993.9 1739.8,989.8 1735.5,985.8 1727.9,979.9 
			1724.7,970.9 1722.5,969.3 1715.3,969.7 1712.8,967.9 1712.1,960.8 1703.2,956.1 1697.6,961.3 1691.9,964.4 1693,968.8 
			1685.5,968.9 1685.3,935.6 1702.3,930 1703.6,930.9 1713.8,937.6 1719.2,941.1 1725.6,949.3 1733.3,948 1744.7,947.3 
			1752.6,953.9 1752.1,962.9 1755.3,962.9 1756.7,970.2 1765.1,970.5 1766.9,974.6 1769.4,974.5 1772.3,968.3 1781,962.1 
			1784.8,960.5 1786.8,961.3 1781.2,967.1 1786.1,970.4 1790.8,968.2 1798.7,972.8 1790.2,979 1785.1,978.2 1782.4,978.4 
			1781.5,976 1782.8,972 1774,974 1771.9,979.6 1768.7,984.3 1763.2,983.9 1761.5,987.7 1766.4,989.7 1767.8,996 1764.1,1004.4 
			1759.1,1002.7 		"/>
	</g>
</g>
</svg>
