<?xml version="1.0" encoding="UTF-8"?>
<svg width="91px" height="77px" viewBox="0 0 91 77" version="1.1" xmlns="http://www.w3.org/2000/svg" xmlns:xlink="http://www.w3.org/1999/xlink">
    <!-- Generator: Sketch 43.2 (39069) - http://www.bohemiancoding.com/sketch -->
    <title>VE</title>
    <desc>Created with Sketch.</desc>
    <defs></defs>
    <g id="Map-countries" stroke="none" stroke-width="1" fill="none" fill-rule="evenodd">
        <g id="Artboard" transform="translate(-829.000000, -1168.000000)" stroke-width="0.5" stroke="#FFFFFF" fill="#B1B2B3">
            <polygon id="VE" points="842.849779 1171.04908 842.660904 1172.63094 838.765347 1173.41006 840.937415 1176.45573 840.842977 1179.97359 837.939016 1183.84561 840.441617 1189.13421 843.298359 1188.70923 844.785753 1183.89283 842.731732 1181.53184 842.4012 1176.47934 850.640894 1173.7406 849.720126 1170.57688 852.033851 1168.452 854.418404 1173.17396 859.069463 1173.29201 863.366381 1177.02237 863.626085 1179.24169 869.552054 1179.28891 876.634885 1178.60422 880.436005 1181.60267 885.488424 1182.42902 889.195106 1180.35135 889.265934 1178.65144 897.482019 1178.25008 905.41479 1178.15564 899.795744 1180.13886 902.03864 1183.30258 907.350764 1183.79839 912.355965 1187.08015 913.418389 1192.41598 916.865367 1192.25071 919.462406 1193.83257 914.22111 1197.72819 913.630874 1200.16 915.89738 1202.61542 914.268329 1203.84313 910.183896 1204.90558 910.325553 1207.97485 908.531236 1209.79281 912.99342 1214.7981 913.890578 1216.66327 911.458806 1219.18952 904.045443 1221.64495 899.299945 1222.68378 897.387581 1224.24203 892.122676 1222.58934 887.211913 1221.73939 885.984222 1222.35324 888.935402 1224.05315 888.675698 1228.46819 889.596467 1232.62352 895.191903 1233.19015 895.569654 1234.55952 890.824157 1236.44831 890.068655 1239.23427 887.32996 1240.29671 882.419197 1241.83135 881.144288 1243.8618 875.99743 1244.28677 872.337967 1240.79252 870.331165 1234.2526 868.560457 1231.93883 866.152295 1230.49863 869.504835 1227.21687 869.29235 1225.72945 867.403595 1223.76983 866.081466 1219.40201 866.600874 1214.65644 868.064659 1212.43711 869.26874 1208.89564 866.931406 1207.73876 863.153896 1208.49427 858.38479 1208.14012 855.716923 1208.84842 851.042254 1203.15845 847.193916 1202.30849 838.694518 1202.94596 837.112686 1200.6322 835.483635 1200.08917 835.24754 1198.69619 836.026652 1196.24077 835.507244 1193.57286 834.043459 1192.10905 833.193519 1189.03977 829.79376 1188.61479 831.611687 1184.69556 832.438017 1179.94998 834.350382 1177.44734 836.92381 1175.53495 838.600081 1172.18235"></polygon>
        </g>
    </g>
</svg>