<?xml version="1.0" encoding="utf-8"?>
<!-- Generator: Adobe Illustrator 21.1.0, SVG Export Plug-In . SVG Version: 6.00 Build 0)  -->
<svg version="1.1" id="Layer_1" xmlns="http://www.w3.org/2000/svg" xmlns:xlink="http://www.w3.org/1999/xlink" x="0px" y="0px"
	 viewBox="0 0 91 91" style="enable-background:new 0 0 91 91;" xml:space="preserve">
<style type="text/css">
	.st0{fill:#B1B2B3;stroke:#FFFFFF;stroke-width:0.5;}
</style>
<title>VE</title>
<desc>Created with Sketch.</desc>
<g id="Map-countries">
	<g id="Artboard" transform="translate(-829.000000, -1168.000000)">
		<polygon id="VE" class="st0" points="842.8,1178 842.7,1179.6 838.8,1180.4 840.9,1183.5 840.8,1187 837.9,1190.8 840.4,1196.1 
			843.3,1195.7 844.8,1190.9 842.7,1188.5 842.4,1183.5 850.6,1180.7 849.7,1177.6 852,1175.5 854.4,1180.2 859.1,1180.3 
			863.4,1184 863.6,1186.2 869.6,1186.3 876.6,1185.6 880.4,1188.6 885.5,1189.4 889.2,1187.4 889.3,1185.7 897.5,1185.3 
			905.4,1185.2 899.8,1187.1 902,1190.3 907.4,1190.8 912.4,1194.1 913.4,1199.4 916.9,1199.3 919.5,1200.8 914.2,1204.7 
			913.6,1207.2 915.9,1209.6 914.3,1210.8 910.2,1211.9 910.3,1215 908.5,1216.8 913,1221.8 913.9,1223.7 911.5,1226.2 904,1228.6 
			899.3,1229.7 897.4,1231.2 892.1,1229.6 887.2,1228.7 886,1229.4 888.9,1231.1 888.7,1235.5 889.6,1239.6 895.2,1240.2 
			895.6,1241.6 890.8,1243.4 890.1,1246.2 887.3,1247.3 882.4,1248.8 881.1,1250.9 876,1251.3 872.3,1247.8 870.3,1241.3 
			868.6,1238.9 866.2,1237.5 869.5,1234.2 869.3,1232.7 867.4,1230.8 866.1,1226.4 866.6,1221.7 868.1,1219.4 869.3,1215.9 
			866.9,1214.7 863.2,1215.5 858.4,1215.1 855.7,1215.8 851,1210.2 847.2,1209.3 838.7,1209.9 837.1,1207.6 835.5,1207.1 
			835.2,1205.7 836,1203.2 835.5,1200.6 834,1199.1 833.2,1196 829.8,1195.6 831.6,1191.7 832.4,1186.9 834.4,1184.4 836.9,1182.5 
			838.6,1179.2 		"/>
	</g>
</g>
</svg>
