<?xml version="1.0" encoding="UTF-8"?>
<svg width="49px" height="103px" viewBox="0 0 49 103" version="1.1" xmlns="http://www.w3.org/2000/svg" xmlns:xlink="http://www.w3.org/1999/xlink">
    <!-- Generator: Sketch 43.2 (39069) - http://www.bohemiancoding.com/sketch -->
    <title>VN</title>
    <desc>Created with Sketch.</desc>
    <defs></defs>
    <g id="Map-countries" stroke="none" stroke-width="1" fill="none" fill-rule="evenodd">
        <g id="Artboard" transform="translate(-1991.000000, -1090.000000)" stroke-width="0.5" stroke="#FFFFFF" fill="#B1B2B3">
            <polygon id="VN" points="2030.31007 1103.80828 2021.48014 1109.8524 2015.95553 1116.48676 2014.49175 1121.32677 2019.56778 1128.62221 2025.75345 1137.64117 2031.75025 1141.86733 2035.78746 1147.36842 2038.80947 1159.92885 2037.91231 1171.78098 2032.41131 1176.19602 2024.80907 1180.51662 2019.42612 1186.08854 2011.16282 1192.27432 2008.75465 1188.00094 2010.6198 1183.49146 2005.70904 1179.69028 2011.44613 1176.99876 2018.3873 1176.52656 2015.48334 1172.44206 2026.60339 1167.27151 2027.42972 1159.19694 2025.89511 1154.66386 2027.09919 1147.86422 2025.42292 1143.04782 2020.41772 1138.27863 2016.23885 1132.21091 2010.73785 1124.0419 2002.80507 1119.88657 2004.71744 1117.36032 2008.94353 1115.54237 2006.3701 1109.42742 1998.22484 1109.35659 1995.25005 1102.93472 1991.37811 1097.33919 1994.94313 1095.59206 2000.20804 1095.63928 2006.65341 1094.81293 2012.29607 1090.98814 2015.48334 1093.67966 2021.55097 1094.9782 2020.48854 1099.08631 2023.65221 1101.96671"></polygon>
        </g>
    </g>
</svg>