<?xml version="1.0" encoding="utf-8"?>
<!-- Generator: Adobe Illustrator 21.1.0, SVG Export Plug-In . SVG Version: 6.00 Build 0)  -->
<svg version="1.1" id="Layer_1" xmlns="http://www.w3.org/2000/svg" xmlns:xlink="http://www.w3.org/1999/xlink" x="0px" y="0px"
	 viewBox="0 0 103 103" style="enable-background:new 0 0 103 103;" xml:space="preserve">
<style type="text/css">
	.st0{fill:#B1B2B3;stroke:#FFFFFF;stroke-width:0.5;}
</style>
<title>VN</title>
<desc>Created with Sketch.</desc>
<g id="Map-countries">
	<g id="Artboard" transform="translate(-1991.000000, -1090.000000)">
		<polygon id="VN" class="st0" points="2057.3,1103.8 2048.5,1109.9 2043,1116.5 2041.5,1121.3 2046.6,1128.6 2052.8,1137.6 
			2058.8,1141.9 2062.8,1147.4 2065.8,1159.9 2064.9,1171.8 2059.4,1176.2 2051.8,1180.5 2046.4,1186.1 2038.2,1192.3 2035.8,1188 
			2037.6,1183.5 2032.7,1179.7 2038.4,1177 2045.4,1176.5 2042.5,1172.4 2053.6,1167.3 2054.4,1159.2 2052.9,1154.7 2054.1,1147.9 
			2052.4,1143 2047.4,1138.3 2043.2,1132.2 2037.7,1124 2029.8,1119.9 2031.7,1117.4 2035.9,1115.5 2033.4,1109.4 2025.2,1109.4 
			2022.2,1102.9 2018.4,1097.3 2021.9,1095.6 2027.2,1095.6 2033.7,1094.8 2039.3,1091 2042.5,1093.7 2048.6,1095 2047.5,1099.1 
			2050.7,1102 		"/>
	</g>
</g>
</svg>
