<?xml version="1.0" encoding="UTF-8"?>
<svg width="71px" height="45px" viewBox="0 0 71 45" version="1.1" xmlns="http://www.w3.org/2000/svg" xmlns:xlink="http://www.w3.org/1999/xlink">
    <!-- Generator: Sketch 43.2 (39069) - http://www.bohemiancoding.com/sketch -->
    <title>YE</title>
    <desc>Created with Sketch.</desc>
    <defs></defs>
    <g id="Map-countries" stroke="none" stroke-width="1" fill="none" fill-rule="evenodd">
        <g id="Artboard" transform="translate(-1596.000000, -1121.000000)" stroke-width="0.5" stroke="#FFFFFF" fill="#B1B2B3">
            <polygon id="YE" points="1666.60668 1137.9481 1661.81396 1139.81327 1660.53905 1142.83533 1660.37379 1145.1727 1653.78675 1148.0531 1643.20973 1151.24043 1637.28376 1156.03323 1634.3798 1156.38737 1632.3966 1155.98601 1628.52466 1158.81919 1624.29857 1160.11773 1618.75035 1160.47187 1617.07408 1160.84963 1615.6339 1162.62037 1613.8868 1163.11618 1612.8716 1164.83969 1609.58989 1164.69803 1607.46504 1165.59521 1602.88481 1165.26467 1601.16132 1161.32183 1601.35019 1157.61508 1600.28777 1155.60825 1598.98925 1150.60296 1597.07688 1147.79339 1598.39901 1147.46286 1597.71434 1144.34636 1598.51706 1143.02421 1598.23375 1140.04937 1601.13771 1137.85366 1600.45303 1134.94965 1602.22374 1131.57344 1604.93883 1133.36779 1606.73314 1132.73032 1614.35899 1132.56505 1615.58668 1133.27335 1621.98484 1133.95803 1624.51105 1133.60389 1626.16371 1135.89404 1629.25655 1134.76077 1634.00204 1127.51255 1640.18772 1124.39605 1659.26414 1121.72814 1664.45822 1133.1553"></polygon>
        </g>
    </g>
</svg>