<?xml version="1.0" encoding="utf-8"?>
<!-- Generator: Adobe Illustrator 21.1.0, SVG Export Plug-In . SVG Version: 6.00 Build 0)  -->
<svg version="1.1" id="Layer_1" xmlns="http://www.w3.org/2000/svg" xmlns:xlink="http://www.w3.org/1999/xlink" x="0px" y="0px"
	 viewBox="0 0 71 71" style="enable-background:new 0 0 71 71;" xml:space="preserve">
<style type="text/css">
	.st0{fill:#B1B2B3;stroke:#FFFFFF;stroke-width:0.5;}
</style>
<title>YE</title>
<desc>Created with Sketch.</desc>
<g id="Map-countries">
	<g id="Artboard" transform="translate(-1596.000000, -1121.000000)">
		<polygon id="YE" class="st0" points="1666.6,1150.9 1661.8,1152.8 1660.5,1155.8 1660.4,1158.2 1653.8,1161.1 1643.2,1164.2 
			1637.3,1169 1634.4,1169.4 1632.4,1169 1628.5,1171.8 1624.3,1173.1 1618.8,1173.5 1617.1,1173.8 1615.6,1175.6 1613.9,1176.1 
			1612.9,1177.8 1609.6,1177.7 1607.5,1178.6 1602.9,1178.3 1601.2,1174.3 1601.4,1170.6 1600.3,1168.6 1599,1163.6 1597.1,1160.8 
			1598.4,1160.5 1597.7,1157.3 1598.5,1156 1598.2,1153 1601.1,1150.9 1600.5,1147.9 1602.2,1144.6 1604.9,1146.4 1606.7,1145.7 
			1614.4,1145.6 1615.6,1146.3 1622,1147 1624.5,1146.6 1626.2,1148.9 1629.3,1147.8 1634,1140.5 1640.2,1137.4 1659.3,1134.7 
			1664.5,1146.2 		"/>
	</g>
</g>
</svg>
