<?xml version="1.0" encoding="utf-8"?>
<!-- Generator: Adobe Illustrator 21.1.0, SVG Export Plug-In . SVG Version: 6.00 Build 0)  -->
<svg version="1.1" id="Layer_1" xmlns="http://www.w3.org/2000/svg" xmlns:xlink="http://www.w3.org/1999/xlink" x="0px" y="0px"
	 viewBox="0 0 111 111" style="enable-background:new 0 0 111 111;" xml:space="preserve">
<style type="text/css">
	.st0{fill:#B1B2B3;stroke:#FFFFFF;stroke-width:0.5;}
</style>
<title>ZA</title>
<desc>Created with Sketch.</desc>
<g id="Map-countries">
	<g id="Artboard" transform="translate(-1422.000000, -1397.000000)">
		<path id="ZA" class="st0" d="M1523.7,1457.5l-1.3,1.1l-2.8,3.8l-1.8,3.9l-3.8,5.5l-7.5,8l-4.7,4.7l-5,3.6l-6.9,3.1l-3.4,0.4
			l-0.8,2.2l-4-1.2l-3.3,1.5l-7.2-1.5l-4,1l-2.7-0.4l-6.8,3.1l-5.6,1.3l-4.1,3l-3,0.2l-2.8-2.9l-2.2-0.1l-2.9-3.6l-0.3,1.1l-0.9-2.1
			l0-4.6l-2.1-5.3l2.1-1.4l-0.2-6l-4.3-7.2l-3.3-6.5v0l-4.7-9.8l3.2-3.7l2.6,2.1l1.1,3.2l3,0.5l4.2,1.4l3.6-0.5l5.9-3.8v-27.2
			l1.8,1.1l3.9,6.9l-0.6,4.5l1.5,2.6l4.7-0.8l3.3-3.3l3.1-2.2l1.6-3.5l3.2-1.7l2.8,0.9l3.2,2.1l5.4,0.4l4.2-1.7l0.7-2.3l1.2-3.5
			l3.6-0.6l2-2.7l2.2-4.8l5.9-5.3l9.4-5.2l2.7,0.1l3.2,1.2l2.2-0.8l3.5,0.7l3.2,10.1l1.7,5.1l-1.2,8.1l0.6,2.6l-3.4-1.3l-1.9,0.5
			l-0.6,2.1l-1.8,2.8l0.1,2.5l3.9,4l3.9-0.8l1.3-3.3l5,0.1l-1.7,5.4l-0.8,6.2l-1.7,3.4L1523.7,1457.5L1523.7,1457.5z M1506.9,1455.2
			l-2.9-2.3l-3.1,1.5l-3.6,3l-3.5,4.8l5,5.9l2.4-0.8l1.2-2.4l3.7-1.2l1.1-2.5l2-3.7L1506.9,1455.2L1506.9,1455.2z"/>
	</g>
</g>
</svg>
