<?xml version="1.0" encoding="UTF-8"?>
<svg width="111px" height="97px" viewBox="0 0 111 97" version="1.1" xmlns="http://www.w3.org/2000/svg" xmlns:xlink="http://www.w3.org/1999/xlink">
    <!-- Generator: Sketch 43.2 (39069) - http://www.bohemiancoding.com/sketch -->
    <title>ZA</title>
    <desc>Created with Sketch.</desc>
    <defs></defs>
    <g id="Map-countries" stroke="none" stroke-width="1" fill="none" fill-rule="evenodd">
        <g id="Artboard" transform="translate(-1422.000000, -1397.000000)" stroke="#FFFFFF" stroke-width="0.5" fill="#B1B2B3">
            <path d="M1523.69875,1450.49504 L1522.40023,1451.58109 L1519.59071,1455.42949 L1517.74917,1459.34873 L1513.99527,1464.84982 L1506.51108,1472.82994 L1501.83641,1477.50469 L1496.83121,1481.06977 L1489.91365,1484.13905 L1486.5375,1484.54041 L1485.68756,1486.73613 L1481.67395,1485.55564 L1478.39224,1487.06667 L1471.21497,1485.53203 L1467.20137,1486.50003 L1464.46267,1486.07505 L1457.63954,1489.21516 L1451.99689,1490.49009 L1447.91245,1493.51215 L1444.89045,1493.70103 L1442.08092,1490.84424 L1439.83803,1490.70258 L1436.98129,1487.1375 L1436.67436,1488.24716 L1435.80081,1486.09866 L1435.84803,1481.47114 L1433.69957,1476.20614 L1435.82442,1474.78955 L1435.65916,1468.81627 L1431.31502,1461.61527 L1427.98609,1455.14618 L1427.98609,1455.12257 L1423.24059,1445.32449 L1426.40426,1441.61774 L1429.0249,1443.6718 L1430.13455,1446.88273 L1433.10934,1447.42576 L1437.2646,1448.84235 L1440.82962,1448.29932 L1446.73198,1444.45092 L1446.73198,1417.2524 L1448.5263,1418.33845 L1452.44547,1425.25613 L1451.83162,1429.71839 L1453.31902,1432.31547 L1458.06451,1431.55995 L1461.36983,1428.27819 L1464.50989,1426.08247 L1466.13894,1422.58822 L1469.37343,1420.88831 L1472.15935,1421.78548 L1475.32301,1423.83954 L1480.70596,1424.19369 L1484.93205,1422.49378 L1485.59312,1420.22724 L1486.74998,1416.75659 L1490.36222,1416.16634 L1492.34542,1413.45121 L1494.54109,1408.65842 L1500.49067,1403.3226 L1509.86362,1398.08121 L1512.5551,1398.15204 L1515.76598,1399.35614 L1517.98527,1398.50619 L1521.50307,1399.21449 L1524.66674,1409.27227 L1526.39023,1414.39561 L1525.20975,1422.49378 L1525.77638,1425.11447 L1522.42384,1423.76871 L1520.51148,1424.28813 L1519.89763,1426.41301 L1518.0797,1429.17536 L1518.15053,1431.72522 L1522.09331,1435.73889 L1525.96526,1434.93616 L1527.31099,1431.65439 L1532.33981,1431.72522 L1530.68714,1437.10826 L1529.90803,1443.29404 L1528.18454,1446.67025 L1523.69875,1450.49504 L1523.69875,1450.49504 Z M1506.86522,1448.22849 L1503.98487,1445.91473 L1500.89203,1447.44937 L1497.3034,1450.4006 L1493.76198,1455.19339 L1498.71997,1461.04863 L1501.08091,1460.29312 L1502.3086,1457.86131 L1505.99167,1456.68081 L1507.12493,1454.20178 L1509.15534,1450.51865 L1506.86522,1448.22849 L1506.86522,1448.22849 Z" id="ZA"></path>
        </g>
    </g>
</svg>