<?xml version="1.0" encoding="utf-8"?>
<!-- Generator: Adobe Illustrator 21.1.0, SVG Export Plug-In . SVG Version: 6.00 Build 0)  -->
<svg version="1.1" id="Layer_1" xmlns="http://www.w3.org/2000/svg" xmlns:xlink="http://www.w3.org/1999/xlink" x="0px" y="0px"
	 viewBox="0 0 78 78" style="enable-background:new 0 0 78 78;" xml:space="preserve">
<style type="text/css">
	.st0{fill:#B1B2B3;stroke:#FFFFFF;stroke-width:0.5;}
</style>
<title>ZM</title>
<desc>Created with Sketch.</desc>
<g id="Map-countries">
	<g id="Artboard" transform="translate(-1459.000000, -1303.000000)">
		<polygon id="ZM" class="st0" points="1531.9,1315.5 1535,1318.5 1536.7,1324.2 1535.6,1326 1534.3,1331.4 1535.5,1337 
			1533.4,1339.3 1531.4,1345.6 1534.9,1347.3 1514.8,1353 1515.5,1357.8 1510.4,1358.7 1506.7,1361.5 1505.9,1363.8 1503.5,1364.4 
			1497.7,1370 1494.1,1374.5 1491.8,1374.7 1489.7,1373.9 1482.3,1373.1 1481.1,1372.6 1481,1372 1478.4,1370.5 1474.1,1370.1 
			1468.7,1371.6 1464.4,1367.3 1459.9,1361.7 1460.2,1340.1 1474,1340.2 1473.5,1337.9 1474.4,1335.3 1473.3,1332.2 1474,1328.9 
			1473.3,1326.8 1475.6,1327 1476,1329.1 1479.1,1328.9 1483.3,1329.5 1485.5,1332.6 1490.8,1333.5 1494.9,1331.4 1496.4,1334.9 
			1501.4,1335.9 1503.9,1338.7 1506.6,1342.5 1511.7,1342.5 1511.1,1335.3 1509.3,1336.5 1504.6,1333.9 1502.9,1332.7 
			1503.7,1325.9 1504.9,1318 1503.4,1315.1 1505.3,1310.8 1507,1310 1515.9,1308.9 1518.5,1309.6 1521.3,1311.3 1523.9,1312.4 
			1528.1,1313.5 		"/>
	</g>
</g>
</svg>
