<?xml version="1.0" encoding="UTF-8"?>
<svg width="78px" height="67px" viewBox="0 0 78 67" version="1.1" xmlns="http://www.w3.org/2000/svg" xmlns:xlink="http://www.w3.org/1999/xlink">
    <!-- Generator: Sketch 43.2 (39069) - http://www.bohemiancoding.com/sketch -->
    <title>ZM</title>
    <desc>Created with Sketch.</desc>
    <defs></defs>
    <g id="Map-countries" stroke="none" stroke-width="1" fill="none" fill-rule="evenodd">
        <g id="Artboard" transform="translate(-1459.000000, -1303.000000)" stroke-width="0.5" stroke="#FFFFFF" fill="#B1B2B3">
            <polygon id="ZM" points="1531.91484 1310.01654 1535.03128 1312.99138 1536.70755 1318.65774 1535.5743 1320.4757 1534.25217 1325.90596 1535.52708 1331.47788 1533.44945 1333.81525 1531.44265 1340.09547 1534.91323 1341.8426 1514.8216 1347.46174 1515.45906 1352.30175 1510.43025 1353.24614 1506.67635 1355.96127 1505.87363 1358.34587 1503.48907 1358.86528 1497.72837 1364.53164 1494.06891 1368.9939 1491.82601 1369.15917 1489.67755 1368.35644 1482.2878 1367.60092 1481.10732 1367.08151 1481.0365 1366.51487 1478.43946 1364.95662 1474.14254 1364.55525 1468.71237 1366.13711 1464.39184 1361.84012 1459.92966 1356.22098 1460.23658 1334.59438 1474.02449 1334.68882 1473.45787 1332.35144 1474.44946 1329.82519 1473.2926 1326.68508 1474.0481 1323.42693 1473.33982 1321.34926 1475.62994 1321.51453 1476.00769 1323.5922 1479.10052 1323.42693 1483.303 1324.04078 1485.52229 1327.08645 1490.8108 1328.03084 1494.87163 1325.90596 1496.35902 1329.42382 1501.43505 1330.36822 1503.86682 1333.24862 1506.58191 1336.95536 1511.65794 1337.02619 1511.09131 1329.75436 1509.27338 1330.95846 1504.64593 1328.36138 1502.85162 1327.15728 1503.67795 1320.42848 1504.85842 1312.51919 1503.37102 1309.56796 1505.25978 1305.31819 1507.03049 1304.53906 1515.93125 1303.40579 1518.52828 1304.09048 1521.29059 1305.76677 1523.93485 1306.90005 1528.13733 1308.00971"></polygon>
        </g>
    </g>
</svg>