<?xml version="1.0" encoding="UTF-8"?>
<svg width="51px" height="48px" viewBox="0 0 51 48" version="1.1" xmlns="http://www.w3.org/2000/svg" xmlns:xlink="http://www.w3.org/1999/xlink">
    <!-- Generator: Sketch 43.2 (39069) - http://www.bohemiancoding.com/sketch -->
    <title>ZW</title>
    <desc>Created with Sketch.</desc>
    <defs></defs>
    <g id="Map-countries" stroke="none" stroke-width="1" fill="none" fill-rule="evenodd">
        <g id="Artboard" transform="translate(-1482.000000, -1352.000000)" stroke-width="0.5" stroke="#FFFFFF" fill="#B1B2B3">
            <polygon id="ZW" points="1521.52668 1399.2381 1518.00888 1398.5298 1515.76598 1399.37975 1512.57871 1398.17565 1509.88723 1398.10482 1505.66114 1394.89389 1500.53789 1393.80783 1498.60192 1389.32197 1498.57831 1386.84293 1495.74518 1386.08742 1488.26098 1378.41422 1486.15974 1374.37694 1484.83762 1373.14923 1482.2878 1367.60092 1489.67755 1368.35644 1491.82601 1369.15917 1494.06891 1368.9939 1497.72837 1364.53164 1503.48907 1358.86528 1505.87363 1358.34587 1506.67635 1355.96127 1510.43025 1353.24614 1515.45906 1352.30175 1515.88403 1354.85161 1521.40864 1354.70995 1524.47786 1356.15015 1525.89443 1357.85006 1529.05809 1358.34587 1532.48146 1360.56519 1532.50507 1369.27722 1531.20655 1374.09363 1530.92324 1379.28779 1531.98566 1381.36545 1531.25377 1385.47356 1530.23857 1386.11103 1528.49147 1391.18714"></polygon>
        </g>
    </g>
</svg>