<?xml version="1.0" encoding="utf-8"?>
<!-- Generator: Adobe Illustrator 21.1.0, SVG Export Plug-In . SVG Version: 6.00 Build 0)  -->
<svg version="1.1" id="Layer_1" xmlns="http://www.w3.org/2000/svg" xmlns:xlink="http://www.w3.org/1999/xlink" x="0px" y="0px"
	 viewBox="0 0 51 51" style="enable-background:new 0 0 51 51;" xml:space="preserve">
<style type="text/css">
	.st0{fill:#B1B2B3;stroke:#FFFFFF;stroke-width:0.5;}
</style>
<title>ZW</title>
<desc>Created with Sketch.</desc>
<g id="Map-countries">
	<g id="Artboard" transform="translate(-1482.000000, -1352.000000)">
		<polygon id="ZW" class="st0" points="1521.5,1400.7 1518,1400 1515.8,1400.9 1512.6,1399.7 1509.9,1399.6 1505.7,1396.4 
			1500.5,1395.3 1498.6,1390.8 1498.6,1388.3 1495.7,1387.6 1488.3,1379.9 1486.2,1375.9 1484.8,1374.6 1482.3,1369.1 
			1489.7,1369.9 1491.8,1370.7 1494.1,1370.5 1497.7,1366 1503.5,1360.4 1505.9,1359.8 1506.7,1357.5 1510.4,1354.7 1515.5,1353.8 
			1515.9,1356.4 1521.4,1356.2 1524.5,1357.7 1525.9,1359.4 1529.1,1359.8 1532.5,1362.1 1532.5,1370.8 1531.2,1375.6 
			1530.9,1380.8 1532,1382.9 1531.3,1387 1530.2,1387.6 1528.5,1392.7 		"/>
	</g>
</g>
</svg>
